<svg width="121" height="118" viewBox="0 0 121 118" fill="none" xmlns="http://www.w3.org/2000/svg">
<path d="M35.7681 50.9415H15.1753C6.82974 50.9415 0 44.1136 0 35.7662V15.1735C0 6.82797 6.82974 0 15.1753 0H35.7681C44.1136 0 50.9434 6.82797 50.9434 15.1735V35.7662C50.9434 44.1135 44.1136 50.9415 35.7681 50.9415Z" fill="#D0D0CE"/>
<path d="M35.7681 117.623H15.1753C6.82974 117.623 0 110.795 0 102.448V81.8552C0 73.5097 6.82974 66.6818 15.1753 66.6818H35.7681C44.1136 66.6818 50.9434 73.5097 50.9434 81.8552V102.448C50.9434 110.795 44.1136 117.623 35.7681 117.623Z" fill="#457AA5"/>
<path d="M105.825 50.9415H85.2319C76.8864 50.9415 70.0566 44.1136 70.0566 35.7662V15.1735C70.0566 6.82797 76.8864 0 85.2319 0H105.825C114.17 0 121 6.82797 121 15.1735V35.7662C121 44.1136 114.17 50.9415 105.825 50.9415Z" fill="#A7A9AB"/>
<path d="M105.825 117.623H85.2319C76.8864 117.623 70.0566 110.795 70.0566 102.448V81.8552C70.0566 73.5097 76.8864 66.6818 85.2319 66.6818H105.825C114.17 66.6818 121 73.5097 121 81.8552V102.448C121 110.795 114.17 117.623 105.825 117.623Z" fill="#154973"/>
</svg>
