<svg xmlns="http://www.w3.org/2000/svg" width="191" height="118" fill="none" viewBox="0 0 191 118"><path fill="#d0d0ce" d="M35.768 50.942H15.175C6.83 50.942 0 44.113 0 35.765V15.174C0 6.828 6.83 0 15.175 0h20.593c8.346 0 15.175 6.828 15.175 15.174v20.592c0 8.348-6.83 15.176-15.175 15.176"/><path fill="#457aa5" d="M35.768 117.623H15.175C6.83 117.623 0 110.795 0 102.448V81.855c0-8.345 6.83-15.173 15.175-15.173h20.593c8.346 0 15.175 6.828 15.175 15.173v20.593c0 8.347-6.83 15.175-15.175 15.175"/><path fill="#a7a9ab" d="M105.768 50.942H85.175C76.83 50.942 70 44.113 70 35.765V15.174C70 6.828 76.83 0 85.175 0h20.593c8.346 0 15.175 6.828 15.175 15.174v20.592c0 8.348-6.829 15.176-15.175 15.176"/><path fill="#154973" d="M105.768 117.623H85.175c-8.345 0-15.175-6.828-15.175-15.175V81.855c0-8.345 6.83-15.173 15.175-15.173h20.593c8.346 0 15.175 6.828 15.175 15.173v20.593c0 8.347-6.829 15.175-15.175 15.175"/><path fill="#797c7f" d="M175.768 50.942h-20.593c-8.345 0-15.175-6.828-15.175-15.176V15.174C140 6.828 146.83 0 155.175 0h20.593c8.346 0 15.175 6.828 15.175 15.174v20.592c0 8.348-6.829 15.176-15.175 15.176"/><path fill="#0e324f" d="M175.768 117.623h-20.593c-8.345 0-15.175-6.828-15.175-15.175V81.855c0-8.345 6.83-15.173 15.175-15.173h20.593c8.346 0 15.175 6.828 15.175 15.173v20.593c0 8.347-6.829 15.175-15.175 15.175"/><path fill="#fff" fill-rule="evenodd" d="m95 11 12 7v13.996L95 39l-12-7.004V18.001zm-8.973 8.766v10.469L95 35.468l8.973-5.234V19.763L95 14.532z" clip-rule="evenodd"/><path fill="#fff" d="M98.027 24.999c0 1.69-1.356 3.058-3.027 3.058s-3.027-1.367-3.027-3.058c0-1.689 1.356-3.059 3.027-3.059s3.027 1.37 3.027 3.058"/><path fill="#fff" fill-rule="evenodd" d="m95 78 12 7v13.996L95 106l-12-7.004V85.001zm-8.973 8.766v10.468L95 102.468l8.973-5.234V86.763L95 81.532z" clip-rule="evenodd"/><path fill="#fff" d="M98.027 91.999c0 1.69-1.356 3.058-3.027 3.058s-3.027-1.367-3.027-3.058c0-1.689 1.356-3.059 3.027-3.059s3.027 1.37 3.027 3.059"/><path fill="#fff" fill-rule="evenodd" d="m25 11 12 7v13.996L25 39l-12-7.004V18.001zm-8.973 8.766v10.469L25 35.468l8.973-5.234V19.763L25 14.532z" clip-rule="evenodd"/><path fill="#fff" d="M28.027 24.999c0 1.69-1.356 3.058-3.027 3.058s-3.027-1.367-3.027-3.058c0-1.689 1.356-3.059 3.027-3.059s3.027 1.37 3.027 3.058"/><path fill="#fff" fill-rule="evenodd" d="m25 78 12 7v13.996L25 106l-12-7.004V85.001zm-8.973 8.766v10.468L25 102.468l8.973-5.234V86.763L25 81.532z" clip-rule="evenodd"/><path fill="#fff" d="M28.027 91.999c0 1.69-1.356 3.058-3.027 3.058s-3.027-1.367-3.027-3.058c0-1.689 1.356-3.059 3.027-3.059s3.027 1.37 3.027 3.059"/><path fill="#fff" fill-rule="evenodd" d="m165 11 12 7v13.996L165 39l-12-7.004V18.001zm-8.973 8.766v10.469L165 35.468l8.973-5.234V19.763L165 14.532z" clip-rule="evenodd"/><path fill="#fff" d="M168.027 24.999c0 1.69-1.356 3.058-3.027 3.058s-3.027-1.367-3.027-3.058c0-1.689 1.356-3.059 3.027-3.059s3.027 1.37 3.027 3.058"/><path fill="#fff" fill-rule="evenodd" d="m165 78 12 7v13.996L165 106l-12-7.004V85.001zm-8.973 8.766v10.468l8.973 5.234 8.973-5.234V86.763L165 81.532z" clip-rule="evenodd"/><path fill="#fff" d="M168.027 91.999c0 1.69-1.356 3.058-3.027 3.058s-3.027-1.367-3.027-3.058c0-1.689 1.356-3.059 3.027-3.059s3.027 1.37 3.027 3.059"/></svg>