<svg width="1425" height="600" viewBox="0 0 1425 600" fill="none" xmlns="http://www.w3.org/2000/svg">
<rect width="1425" height="600" fill="white"/>
<path d="M171.939 444.061C171.354 443.475 171.354 442.525 171.939 441.939L181.485 432.393C182.071 431.808 183.021 431.808 183.607 432.393C184.192 432.979 184.192 433.929 183.607 434.515L175.121 443L183.607 451.485C184.192 452.071 184.192 453.021 183.607 453.607C183.021 454.192 182.071 454.192 181.485 453.607L171.939 444.061ZM416.715 443L416.715 444.5L416.715 443ZM544 322L544 323.5L541.834 323.5L541.834 322L541.834 320.5L544 320.5L544 322ZM537.503 322L537.503 323.5L533.171 323.5L533.171 322L533.171 320.5L537.503 320.5L537.503 322ZM528.839 322L528.839 323.5L524.508 323.5L524.508 322L524.508 320.5L528.839 320.5L528.839 322ZM520.176 322L520.176 323.5L515.845 323.5L515.845 322L515.845 320.5L520.176 320.5L520.176 322ZM511.513 322L511.513 323.5L507.181 323.5L507.181 322L507.181 320.5L511.513 320.5L511.513 322ZM502.85 322L502.85 323.5L498.518 323.5L498.518 322L498.518 320.5L502.85 320.5L502.85 322ZM494.187 322L494.187 323.5L489.855 323.5L489.855 322L489.855 320.5L494.187 320.5L494.187 322ZM485.523 322L485.523 323.5L481.192 323.5L481.192 322L481.192 320.5L485.523 320.5L485.523 322ZM476.86 322L476.86 323.5L472.528 323.5L472.528 322L472.528 320.5L476.86 320.5L476.86 322ZM468.197 322L468.197 323.5L463.865 323.5L463.865 322L463.865 320.5L468.197 320.5L468.197 322ZM459.534 322L459.534 323.5L455.202 323.5L455.202 322L455.202 320.5L459.534 320.5L459.534 322ZM450.87 322L450.87 323.5L446.539 323.5L446.539 322L446.539 320.5L450.87 320.5L450.87 322ZM442.207 322L442.207 323.5L437.876 323.5L437.876 322L437.876 320.5L442.207 320.5L442.207 322ZM433.544 322L433.544 323.5L429.212 323.5L429.212 322L429.212 320.5L433.544 320.5L433.544 322ZM424.881 322L424.881 323.5L422.715 323.5L422.715 322L422.715 320.5L424.881 320.5L424.881 322ZM422.715 322L422.715 323.5C422.509 323.5 422.316 323.541 422.141 323.613L421.567 322.228L420.992 320.842C421.525 320.621 422.108 320.5 422.715 320.5L422.715 322ZM419.943 323.852L421.328 324.426C421.256 324.601 421.215 324.794 421.215 325L419.715 325L418.215 325C418.215 324.393 418.336 323.81 418.557 323.277L419.943 323.852ZM419.715 325L421.215 325L421.215 327.212L419.715 327.212L418.215 327.212L418.215 325L419.715 325ZM419.715 331.635L421.215 331.635L421.215 336.058L419.715 336.058L418.215 336.058L418.215 331.635L419.715 331.635ZM419.715 340.481L421.215 340.481L421.215 344.904L419.715 344.904L418.215 344.904L418.215 340.481L419.715 340.481ZM419.715 349.327L421.215 349.327L421.215 353.75L419.715 353.75L418.215 353.75L418.215 349.327L419.715 349.327ZM419.715 358.173L421.215 358.173L421.215 362.596L419.715 362.596L418.215 362.596L418.215 358.173L419.715 358.173ZM419.715 367.019L421.215 367.019L421.215 371.442L419.715 371.442L418.215 371.442L418.215 367.019L419.715 367.019ZM419.715 375.865L421.215 375.865L421.215 380.288L419.715 380.288L418.215 380.288L418.215 375.865L419.715 375.865ZM419.715 384.712L421.215 384.712L421.215 389.135L419.715 389.135L418.215 389.135L418.215 384.712L419.715 384.712ZM419.715 393.558L421.215 393.558L421.215 397.981L419.715 397.981L418.215 397.981L418.215 393.558L419.715 393.558ZM419.715 402.404L421.215 402.404L421.215 406.827L419.715 406.827L418.215 406.827L418.215 402.404L419.715 402.404ZM419.715 411.25L421.215 411.25L421.215 415.673L419.715 415.673L418.215 415.673L418.215 411.25L419.715 411.25ZM419.715 420.096L421.215 420.096L421.215 424.519L419.715 424.519L418.215 424.519L418.215 420.096L419.715 420.096ZM419.715 428.942L421.215 428.942L421.215 433.365L419.715 433.365L418.215 433.365L418.215 428.942L419.715 428.942ZM419.715 437.789L421.215 437.789L421.215 440L419.715 440L418.215 440L418.215 437.789L419.715 437.789ZM419.715 440L421.215 440C421.215 440.607 421.094 441.19 420.873 441.723L419.487 441.148L418.102 440.574C418.174 440.399 418.215 440.206 418.215 440L419.715 440ZM417.863 442.772L418.438 444.158C417.905 444.379 417.322 444.5 416.715 444.5L416.715 443L416.715 441.5C416.921 441.5 417.114 441.459 417.289 441.387L417.863 442.772ZM416.715 443L416.715 444.5L414.539 444.5L414.539 443L414.539 441.5L416.715 441.5L416.715 443ZM410.187 443L410.187 444.5L405.835 444.5L405.835 443L405.835 441.5L410.187 441.5L410.187 443ZM401.483 443L401.483 444.5L397.131 444.5L397.131 443L397.131 441.5L401.483 441.5L401.483 443ZM392.779 443L392.779 444.5L388.427 444.5L388.427 443L388.427 441.5L392.779 441.5L392.779 443ZM384.075 443L384.075 444.5L379.723 444.5L379.723 443L379.723 441.5L384.075 441.5L384.075 443ZM375.37 443L375.37 444.5L371.018 444.5L371.018 443L371.018 441.5L375.37 441.5L375.37 443ZM366.666 443L366.666 444.5L362.314 444.5L362.314 443L362.314 441.5L366.666 441.5L366.666 443ZM357.962 443L357.962 444.5L353.61 444.5L353.61 443L353.61 441.5L357.962 441.5L357.962 443ZM349.258 443L349.258 444.5L344.906 444.5L344.906 443L344.906 441.5L349.258 441.5L349.258 443ZM340.554 443L340.554 444.5L336.202 444.5L336.202 443L336.202 441.5L340.554 441.5L340.554 443ZM331.85 443L331.85 444.5L327.498 444.5L327.498 443L327.498 441.5L331.85 441.5L331.85 443ZM323.146 443L323.146 444.5L318.794 444.5L318.794 443L318.794 441.5L323.146 441.5L323.146 443ZM314.442 443L314.442 444.5L310.09 444.5L310.09 443L310.09 441.5L314.442 441.5L314.442 443ZM305.738 443L305.738 444.5L301.386 444.5L301.386 443L301.386 441.5L305.738 441.5L305.738 443ZM297.034 443L297.034 444.5L292.682 444.5L292.682 443L292.682 441.5L297.034 441.5L297.034 443ZM288.329 443L288.329 444.5L283.977 444.5L283.977 443L283.977 441.5L288.329 441.5L288.329 443ZM279.625 443L279.625 444.5L275.273 444.5L275.273 443L275.273 441.5L279.625 441.5L279.625 443ZM270.921 443L270.921 444.5L266.569 444.5L266.569 443L266.569 441.5L270.921 441.5L270.921 443ZM262.217 443L262.217 444.5L257.865 444.5L257.865 443L257.865 441.5L262.217 441.5L262.217 443ZM253.513 443L253.513 444.5L249.161 444.5L249.161 443L249.161 441.5L253.513 441.5L253.513 443ZM244.809 443L244.809 444.5L240.457 444.5L240.457 443L240.457 441.5L244.809 441.5L244.809 443ZM236.105 443L236.105 444.5L231.753 444.5L231.753 443L231.753 441.5L236.105 441.5L236.105 443ZM227.401 443L227.401 444.5L223.049 444.5L223.049 443L223.049 441.5L227.401 441.5L227.401 443ZM218.697 443L218.697 444.5L214.345 444.5L214.345 443L214.345 441.5L218.697 441.5L218.697 443ZM209.993 443L209.993 444.5L205.64 444.5L205.64 443L205.64 441.5L209.993 441.5L209.993 443ZM201.288 443L201.288 444.5L196.936 444.5L196.936 443L196.936 441.5L201.288 441.5L201.288 443ZM192.584 443L192.584 444.5L188.232 444.5L188.232 443L188.232 441.5L192.584 441.5L192.584 443ZM183.88 443L183.88 444.5L179.528 444.5L179.528 443L179.528 441.5L183.88 441.5L183.88 443ZM175.176 443L175.176 444.5L173 444.5L173 443L173 441.5L175.176 441.5L175.176 443Z" fill="#909395"/>
<path d="M1044.06 154.939C1043.47 154.354 1042.53 154.354 1041.94 154.939L1032.39 164.485C1031.81 165.071 1031.81 166.021 1032.39 166.607C1032.98 167.192 1033.93 167.192 1034.51 166.607L1043 158.121L1051.49 166.607C1052.07 167.192 1053.02 167.192 1053.61 166.607C1054.19 166.021 1054.19 165.071 1053.61 164.485L1044.06 154.939ZM1043 214L1041.5 214L1041.5 214L1043 214ZM1040 217L1040 218.5L1040 217ZM775 217L775 218.5L775 217ZM772 294L773.5 294L773.5 291.687L772 291.687L770.5 291.687L770.5 294L772 294ZM772 287.062L773.5 287.062L773.5 282.437L772 282.437L770.5 282.437L770.5 287.062L772 287.062ZM772 277.812L773.5 277.812L773.5 273.187L772 273.187L770.5 273.187L770.5 277.812L772 277.812ZM772 268.562L773.5 268.562L773.5 263.937L772 263.937L770.5 263.937L770.5 268.562L772 268.562ZM772 259.312L773.5 259.312L773.5 254.687L772 254.687L770.5 254.687L770.5 259.312L772 259.312ZM772 250.062L773.5 250.062L773.5 245.437L772 245.437L770.5 245.437L770.5 250.062L772 250.062ZM772 240.812L773.5 240.812L773.5 236.187L772 236.187L770.5 236.187L770.5 240.812L772 240.812ZM772 231.562L773.5 231.562L773.5 226.937L772 226.937L770.5 226.937L770.5 231.562L772 231.562ZM772 222.312L773.5 222.312L773.5 220L772 220L770.5 220L770.5 222.312L772 222.312ZM772 220L773.5 220C773.5 219.794 773.541 219.601 773.613 219.426L772.228 218.852L770.842 218.277C770.621 218.81 770.5 219.393 770.5 220L772 220ZM773.852 217.228L774.426 218.613C774.601 218.541 774.794 218.5 775 218.5L775 217L775 215.5C774.393 215.5 773.81 215.621 773.277 215.842L773.852 217.228ZM775 217L775 218.5L777.208 218.5L777.208 217L777.208 215.5L775 215.5L775 217ZM781.625 217L781.625 218.5L786.042 218.5L786.042 217L786.042 215.5L781.625 215.5L781.625 217ZM790.458 217L790.458 218.5L794.875 218.5L794.875 217L794.875 215.5L790.458 215.5L790.458 217ZM799.292 217L799.292 218.5L803.708 218.5L803.708 217L803.708 215.5L799.292 215.5L799.292 217ZM808.125 217L808.125 218.5L812.542 218.5L812.542 217L812.542 215.5L808.125 215.5L808.125 217ZM816.958 217L816.958 218.5L821.375 218.5L821.375 217L821.375 215.5L816.958 215.5L816.958 217ZM825.792 217L825.792 218.5L830.208 218.5L830.208 217L830.208 215.5L825.792 215.5L825.792 217ZM834.625 217L834.625 218.5L839.042 218.5L839.042 217L839.042 215.5L834.625 215.5L834.625 217ZM843.458 217L843.458 218.5L847.875 218.5L847.875 217L847.875 215.5L843.458 215.5L843.458 217ZM852.292 217L852.292 218.5L856.708 218.5L856.708 217L856.708 215.5L852.292 215.5L852.292 217ZM861.125 217L861.125 218.5L865.542 218.5L865.542 217L865.542 215.5L861.125 215.5L861.125 217ZM869.958 217L869.958 218.5L874.375 218.5L874.375 217L874.375 215.5L869.958 215.5L869.958 217ZM878.792 217L878.792 218.5L883.208 218.5L883.208 217L883.208 215.5L878.792 215.5L878.792 217ZM887.625 217L887.625 218.5L892.042 218.5L892.042 217L892.042 215.5L887.625 215.5L887.625 217ZM896.458 217L896.458 218.5L900.875 218.5L900.875 217L900.875 215.5L896.458 215.5L896.458 217ZM905.292 217L905.292 218.5L909.708 218.5L909.708 217L909.708 215.5L905.292 215.5L905.292 217ZM914.125 217L914.125 218.5L918.542 218.5L918.542 217L918.542 215.5L914.125 215.5L914.125 217ZM922.958 217L922.958 218.5L927.375 218.5L927.375 217L927.375 215.5L922.958 215.5L922.958 217ZM931.792 217L931.792 218.5L936.208 218.5L936.208 217L936.208 215.5L931.792 215.5L931.792 217ZM940.625 217L940.625 218.5L945.042 218.5L945.042 217L945.042 215.5L940.625 215.5L940.625 217ZM949.458 217L949.458 218.5L953.875 218.5L953.875 217L953.875 215.5L949.458 215.5L949.458 217ZM958.292 217L958.292 218.5L962.708 218.5L962.708 217L962.708 215.5L958.292 215.5L958.292 217ZM967.125 217L967.125 218.5L971.542 218.5L971.542 217L971.542 215.5L967.125 215.5L967.125 217ZM975.958 217L975.958 218.5L980.375 218.5L980.375 217L980.375 215.5L975.958 215.5L975.958 217ZM984.792 217L984.792 218.5L989.208 218.5L989.208 217L989.208 215.5L984.792 215.5L984.792 217ZM993.625 217L993.625 218.5L998.042 218.5L998.042 217L998.042 215.5L993.625 215.5L993.625 217ZM1002.46 217L1002.46 218.5L1006.88 218.5L1006.88 217L1006.88 215.5L1002.46 215.5L1002.46 217ZM1011.29 217L1011.29 218.5L1015.71 218.5L1015.71 217L1015.71 215.5L1011.29 215.5L1011.29 217ZM1020.13 217L1020.13 218.5L1024.54 218.5L1024.54 217L1024.54 215.5L1020.13 215.5L1020.13 217ZM1028.96 217L1028.96 218.5L1033.38 218.5L1033.38 217L1033.38 215.5L1028.96 215.5L1028.96 217ZM1037.79 217L1037.79 218.5L1040 218.5L1040 217L1040 215.5L1037.79 215.5L1037.79 217ZM1040 217L1040 218.5C1040.61 218.5 1041.19 218.379 1041.72 218.158L1041.15 216.772L1040.57 215.387C1040.4 215.459 1040.21 215.5 1040 215.5L1040 217ZM1042.77 215.148L1044.16 215.723C1044.38 215.19 1044.5 214.607 1044.5 214L1043 214L1041.5 214C1041.5 214.206 1041.46 214.399 1041.39 214.574L1042.77 215.148ZM1043 214L1044.5 214L1044.5 211.929L1043 211.929L1041.5 211.929L1041.5 214L1043 214ZM1043 207.786L1044.5 207.786L1044.5 203.643L1043 203.643L1041.5 203.643L1041.5 207.786L1043 207.786ZM1043 199.5L1044.5 199.5L1044.5 195.357L1043 195.357L1041.5 195.357L1041.5 199.5L1043 199.5ZM1043 191.214L1044.5 191.214L1044.5 187.071L1043 187.071L1041.5 187.071L1041.5 191.214L1043 191.214ZM1043 182.929L1044.5 182.929L1044.5 178.786L1043 178.786L1041.5 178.786L1041.5 182.929L1043 182.929ZM1043 174.643L1044.5 174.643L1044.5 170.5L1043 170.5L1041.5 170.5L1041.5 174.643L1043 174.643ZM1043 166.357L1044.5 166.357L1044.5 162.214L1043 162.214L1041.5 162.214L1041.5 166.357L1043 166.357ZM1043 158.071L1044.5 158.071L1044.5 156L1043 156L1041.5 156L1041.5 158.071L1043 158.071Z" fill="#909395"/>
<path d="M365.939 129.939C365.354 130.525 365.354 131.475 365.939 132.061L375.485 141.607C376.071 142.192 377.021 142.192 377.607 141.607C378.192 141.021 378.192 140.071 377.607 139.485L369.121 131L377.607 122.515C378.192 121.929 378.192 120.979 377.607 120.393C377.021 119.808 376.071 119.808 375.485 120.393L365.939 129.939ZM618.5 321C618.5 321.828 619.172 322.5 620 322.5C620.828 322.5 621.5 321.828 621.5 321L618.5 321ZM617 131L617 129.5L617 131ZM620 321L621.5 321L621.5 318.774L620 318.774L618.5 318.774L618.5 321L620 321ZM620 314.321L621.5 314.321L621.5 309.869L620 309.869L618.5 309.869L618.5 314.321L620 314.321ZM620 305.417L621.5 305.417L621.5 300.964L620 300.964L618.5 300.964L618.5 305.417L620 305.417ZM620 296.512L621.5 296.512L621.5 292.06L620 292.06L618.5 292.06L618.5 296.512L620 296.512ZM620 287.607L621.5 287.607L621.5 283.155L620 283.155L618.5 283.155L618.5 287.607L620 287.607ZM620 278.702L621.5 278.702L621.5 274.25L620 274.25L618.5 274.25L618.5 278.702L620 278.702ZM620 269.798L621.5 269.798L621.5 265.345L620 265.345L618.5 265.345L618.5 269.798L620 269.798ZM620 260.893L621.5 260.893L621.5 256.44L620 256.44L618.5 256.44L618.5 260.893L620 260.893ZM620 251.988L621.5 251.988L621.5 247.536L620 247.536L618.5 247.536L618.5 251.988L620 251.988ZM620 243.083L621.5 243.083L621.5 238.631L620 238.631L618.5 238.631L618.5 243.083L620 243.083ZM620 234.179L621.5 234.179L621.5 229.726L620 229.726L618.5 229.726L618.5 234.179L620 234.179ZM620 225.274L621.5 225.274L621.5 220.821L620 220.821L618.5 220.821L618.5 225.274L620 225.274ZM620 216.369L621.5 216.369L621.5 211.917L620 211.917L618.5 211.917L618.5 216.369L620 216.369ZM620 207.464L621.5 207.464L621.5 203.012L620 203.012L618.5 203.012L618.5 207.464L620 207.464ZM620 198.559L621.5 198.559L621.5 194.107L620 194.107L618.5 194.107L618.5 198.559L620 198.559ZM620 189.655L621.5 189.655L621.5 185.202L620 185.202L618.5 185.202L618.5 189.655L620 189.655ZM620 180.75L621.5 180.75L621.5 176.298L620 176.298L618.5 176.298L618.5 180.75L620 180.75ZM620 171.845L621.5 171.845L621.5 167.393L620 167.393L618.5 167.393L618.5 171.845L620 171.845ZM620 162.94L621.5 162.94L621.5 158.488L620 158.488L618.5 158.488L618.5 162.94L620 162.94ZM620 154.036L621.5 154.036L621.5 149.583L620 149.583L618.5 149.583L618.5 154.036L620 154.036ZM620 145.131L621.5 145.131L621.5 140.679L620 140.679L618.5 140.679L618.5 145.131L620 145.131ZM620 136.226L621.5 136.226L621.5 134L620 134L618.5 134L618.5 136.226L620 136.226ZM620 134L621.5 134C621.5 133.393 621.379 132.81 621.158 132.277L619.772 132.852L618.387 133.426C618.459 133.601 618.5 133.794 618.5 134L620 134ZM618.148 131.228L618.723 129.842C618.19 129.621 617.607 129.5 617 129.5L617 131L617 132.5C617.206 132.5 617.399 132.541 617.574 132.613L618.148 131.228ZM617 131L617 129.5L614.845 129.5L614.845 131L614.845 132.5L617 132.5L617 131ZM610.534 131L610.534 129.5L606.224 129.5L606.224 131L606.224 132.5L610.534 132.5L610.534 131ZM601.914 131L601.914 129.5L597.603 129.5L597.603 131L597.603 132.5L601.914 132.5L601.914 131ZM593.293 131L593.293 129.5L588.983 129.5L588.983 131L588.983 132.5L593.293 132.5L593.293 131ZM584.672 131L584.672 129.5L580.362 129.5L580.362 131L580.362 132.5L584.672 132.5L584.672 131ZM576.052 131L576.052 129.5L571.741 129.5L571.741 131L571.741 132.5L576.052 132.5L576.052 131ZM567.431 131L567.431 129.5L563.121 129.5L563.121 131L563.121 132.5L567.431 132.5L567.431 131ZM558.81 131L558.81 129.5L554.5 129.5L554.5 131L554.5 132.5L558.81 132.5L558.81 131ZM550.19 131L550.19 129.5L545.879 129.5L545.879 131L545.879 132.5L550.19 132.5L550.19 131ZM541.569 131L541.569 129.5L537.259 129.5L537.259 131L537.259 132.5L541.569 132.5L541.569 131ZM532.948 131L532.948 129.5L528.638 129.5L528.638 131L528.638 132.5L532.948 132.5L532.948 131ZM524.328 131L524.328 129.5L520.017 129.5L520.017 131L520.017 132.5L524.328 132.5L524.328 131ZM515.707 131L515.707 129.5L511.397 129.5L511.397 131L511.397 132.5L515.707 132.5L515.707 131ZM507.086 131L507.086 129.5L502.776 129.5L502.776 131L502.776 132.5L507.086 132.5L507.086 131ZM498.465 131L498.465 129.5L494.155 129.5L494.155 131L494.155 132.5L498.465 132.5L498.465 131ZM489.845 131L489.845 129.5L485.534 129.5L485.534 131L485.534 132.5L489.845 132.5L489.845 131ZM481.224 131L481.224 129.5L476.914 129.5L476.914 131L476.914 132.5L481.224 132.5L481.224 131ZM472.603 131L472.603 129.5L468.293 129.5L468.293 131L468.293 132.5L472.603 132.5L472.603 131ZM463.983 131L463.983 129.5L459.672 129.5L459.672 131L459.672 132.5L463.983 132.5L463.983 131ZM455.362 131L455.362 129.5L451.052 129.5L451.052 131L451.052 132.5L455.362 132.5L455.362 131ZM446.741 131L446.741 129.5L442.431 129.5L442.431 131L442.431 132.5L446.741 132.5L446.741 131ZM438.121 131L438.121 129.5L433.81 129.5L433.81 131L433.81 132.5L438.121 132.5L438.121 131ZM429.5 131L429.5 129.5L425.19 129.5L425.19 131L425.19 132.5L429.5 132.5L429.5 131ZM420.879 131L420.879 129.5L416.569 129.5L416.569 131L416.569 132.5L420.879 132.5L420.879 131ZM412.259 131L412.259 129.5L407.948 129.5L407.948 131L407.948 132.5L412.259 132.5L412.259 131ZM403.638 131L403.638 129.5L399.327 129.5L399.327 131L399.327 132.5L403.638 132.5L403.638 131ZM395.017 131L395.017 129.5L390.707 129.5L390.707 131L390.707 132.5L395.017 132.5L395.017 131ZM386.396 131L386.396 129.5L382.086 129.5L382.086 131L382.086 132.5L386.396 132.5L386.396 131ZM377.776 131L377.776 129.5L373.465 129.5L373.465 131L373.465 132.5L377.776 132.5L377.776 131ZM369.155 131L369.155 129.5L367 129.5L367 131L367 132.5L369.155 132.5L369.155 131Z" fill="#909395"/>
<path d="M721.061 503.061C721.646 502.475 721.646 501.525 721.061 500.939L711.515 491.393C710.929 490.808 709.979 490.808 709.393 491.393C708.808 491.979 708.808 492.929 709.393 493.515L717.879 502L709.393 510.485C708.808 511.071 708.808 512.021 709.393 512.607C709.979 513.192 710.929 513.192 711.515 512.607L721.061 503.061ZM656.5 369C656.5 368.172 655.828 367.5 655 367.5C654.172 367.5 653.5 368.172 653.5 369L656.5 369ZM658 502L658 500.5L658 502ZM655 369L653.5 369L653.5 371.167L655 371.167L656.5 371.167L656.5 369L655 369ZM655 375.5L653.5 375.5L653.5 379.833L655 379.833L656.5 379.833L656.5 375.5L655 375.5ZM655 384.167L653.5 384.167L653.5 388.5L655 388.5L656.5 388.5L656.5 384.167L655 384.167ZM655 392.833L653.5 392.833L653.5 397.167L655 397.167L656.5 397.167L656.5 392.833L655 392.833ZM655 401.5L653.5 401.5L653.5 405.833L655 405.833L656.5 405.833L656.5 401.5L655 401.5ZM655 410.167L653.5 410.167L653.5 414.5L655 414.5L656.5 414.5L656.5 410.167L655 410.167ZM655 418.833L653.5 418.833L653.5 423.167L655 423.167L656.5 423.167L656.5 418.833L655 418.833ZM655 427.5L653.5 427.5L653.5 431.833L655 431.833L656.5 431.833L656.5 427.5L655 427.5ZM655 436.167L653.5 436.167L653.5 440.5L655 440.5L656.5 440.5L656.5 436.167L655 436.167ZM655 444.833L653.5 444.833L653.5 449.167L655 449.167L656.5 449.167L656.5 444.833L655 444.833ZM655 453.5L653.5 453.5L653.5 457.833L655 457.833L656.5 457.833L656.5 453.5L655 453.5ZM655 462.167L653.5 462.167L653.5 466.5L655 466.5L656.5 466.5L656.5 462.167L655 462.167ZM655 470.833L653.5 470.833L653.5 475.167L655 475.167L656.5 475.167L656.5 470.833L655 470.833ZM655 479.5L653.5 479.5L653.5 483.833L655 483.833L656.5 483.833L656.5 479.5L655 479.5ZM655 488.167L653.5 488.167L653.5 492.5L655 492.5L656.5 492.5L656.5 488.167L655 488.167ZM655 496.833L653.5 496.833L653.5 499L655 499L656.5 499L656.5 496.833L655 496.833ZM655 499L653.5 499C653.5 499.607 653.621 500.19 653.842 500.723L655.228 500.148L656.613 499.574C656.541 499.399 656.5 499.206 656.5 499L655 499ZM656.852 501.772L656.277 503.158C656.81 503.379 657.393 503.5 658 503.5L658 502L658 500.5C657.794 500.5 657.601 500.459 657.426 500.387L656.852 501.772ZM658 502L658 503.5L660.214 503.5L660.214 502L660.214 500.5L658 500.5L658 502ZM664.643 502L664.643 503.5L669.071 503.5L669.071 502L669.071 500.5L664.643 500.5L664.643 502ZM673.5 502L673.5 503.5L677.929 503.5L677.929 502L677.929 500.5L673.5 500.5L673.5 502ZM682.357 502L682.357 503.5L686.786 503.5L686.786 502L686.786 500.5L682.357 500.5L682.357 502ZM691.214 502L691.214 503.5L695.643 503.5L695.643 502L695.643 500.5L691.214 500.5L691.214 502ZM700.071 502L700.071 503.5L704.5 503.5L704.5 502L704.5 500.5L700.071 500.5L700.071 502ZM708.929 502L708.929 503.5L713.357 503.5L713.357 502L713.357 500.5L708.929 500.5L708.929 502ZM717.786 502L717.786 503.5L720 503.5L720 502L720 500.5L717.786 500.5L717.786 502Z" fill="#909395"/>
<path d="M879 325.5C878.172 325.5 877.5 326.172 877.5 327C877.5 327.828 878.172 328.5 879 328.5L879 325.5ZM1253.06 328.061C1253.65 327.475 1253.65 326.525 1253.06 325.939L1243.51 316.393C1242.93 315.808 1241.98 315.808 1241.39 316.393C1240.81 316.979 1240.81 317.929 1241.39 318.515L1249.88 327L1241.39 335.485C1240.81 336.071 1240.81 337.021 1241.39 337.607C1241.98 338.192 1242.93 338.192 1243.51 337.607L1253.06 328.061ZM879 327L879 328.5L881.169 328.5L881.169 327L881.169 325.5L879 325.5L879 327ZM885.506 327L885.506 328.5L889.843 328.5L889.843 327L889.843 325.5L885.506 325.5L885.506 327ZM894.18 327L894.18 328.5L898.517 328.5L898.517 327L898.517 325.5L894.18 325.5L894.18 327ZM902.855 327L902.855 328.5L907.192 328.5L907.192 327L907.192 325.5L902.855 325.5L902.855 327ZM911.529 327L911.529 328.5L915.866 328.5L915.866 327L915.866 325.5L911.529 325.5L911.529 327ZM920.203 327L920.203 328.5L924.541 328.5L924.541 327L924.541 325.5L920.203 325.5L920.203 327ZM928.878 327L928.878 328.5L933.215 328.5L933.215 327L933.215 325.5L928.878 325.5L928.878 327ZM937.552 327L937.552 328.5L941.89 328.5L941.89 327L941.89 325.5L937.552 325.5L937.552 327ZM946.227 327L946.227 328.5L950.564 328.5L950.564 327L950.564 325.5L946.227 325.5L946.227 327ZM954.901 327L954.901 328.5L959.238 328.5L959.238 327L959.238 325.5L954.901 325.5L954.901 327ZM963.576 327L963.576 328.5L967.913 328.5L967.913 327L967.913 325.5L963.576 325.5L963.576 327ZM972.25 327L972.25 328.5L976.587 328.5L976.587 327L976.587 325.5L972.25 325.5L972.25 327ZM980.924 327L980.924 328.5L985.262 328.5L985.262 327L985.262 325.5L980.924 325.5L980.924 327ZM989.599 327L989.599 328.5L993.936 328.5L993.936 327L993.936 325.5L989.599 325.5L989.599 327ZM998.273 327L998.273 328.5L1002.61 328.5L1002.61 327L1002.61 325.5L998.273 325.5L998.273 327ZM1006.95 327L1006.95 328.5L1011.28 328.5L1011.28 327L1011.28 325.5L1006.95 325.5L1006.95 327ZM1015.62 327L1015.62 328.5L1019.96 328.5L1019.96 327L1019.96 325.5L1015.62 325.5L1015.62 327ZM1024.3 327L1024.3 328.5L1028.63 328.5L1028.63 327L1028.63 325.5L1024.3 325.5L1024.3 327ZM1032.97 327L1032.97 328.5L1037.31 328.5L1037.31 327L1037.31 325.5L1032.97 325.5L1032.97 327ZM1041.65 327L1041.65 328.5L1045.98 328.5L1045.98 327L1045.98 325.5L1041.65 325.5L1041.65 327ZM1050.32 327L1050.32 328.5L1054.66 328.5L1054.66 327L1054.66 325.5L1050.32 325.5L1050.32 327ZM1058.99 327L1058.99 328.5L1063.33 328.5L1063.33 327L1063.33 325.5L1058.99 325.5L1058.99 327ZM1067.67 327L1067.67 328.5L1072.01 328.5L1072.01 327L1072.01 325.5L1067.67 325.5L1067.67 327ZM1076.34 327L1076.34 328.5L1080.68 328.5L1080.68 327L1080.68 325.5L1076.34 325.5L1076.34 327ZM1085.02 327L1085.02 328.5L1089.35 328.5L1089.35 327L1089.35 325.5L1085.02 325.5L1085.02 327ZM1093.69 327L1093.69 328.5L1098.03 328.5L1098.03 327L1098.03 325.5L1093.69 325.5L1093.69 327ZM1102.37 327L1102.37 328.5L1106.7 328.5L1106.7 327L1106.7 325.5L1102.37 325.5L1102.37 327ZM1111.04 327L1111.04 328.5L1115.38 328.5L1115.38 327L1115.38 325.5L1111.04 325.5L1111.04 327ZM1119.72 327L1119.72 328.5L1124.05 328.5L1124.05 327L1124.05 325.5L1119.72 325.5L1119.72 327ZM1128.39 327L1128.39 328.5L1132.73 328.5L1132.73 327L1132.73 325.5L1128.39 325.5L1128.39 327ZM1137.06 327L1137.06 328.5L1141.4 328.5L1141.4 327L1141.4 325.5L1137.06 325.5L1137.06 327ZM1145.74 327L1145.74 328.5L1150.08 328.5L1150.08 327L1150.08 325.5L1145.74 325.5L1145.74 327ZM1154.41 327L1154.41 328.5L1158.75 328.5L1158.75 327L1158.75 325.5L1154.41 325.5L1154.41 327ZM1163.09 327L1163.09 328.5L1167.42 328.5L1167.42 327L1167.42 325.5L1163.09 325.5L1163.09 327ZM1171.76 327L1171.76 328.5L1176.1 328.5L1176.1 327L1176.1 325.5L1171.76 325.5L1171.76 327ZM1180.44 327L1180.44 328.5L1184.77 328.5L1184.77 327L1184.77 325.5L1180.44 325.5L1180.44 327ZM1189.11 327L1189.11 328.5L1193.45 328.5L1193.45 327L1193.45 325.5L1189.11 325.5L1189.11 327ZM1197.78 327L1197.78 328.5L1202.12 328.5L1202.12 327L1202.12 325.5L1197.78 325.5L1197.78 327ZM1206.46 327L1206.46 328.5L1210.8 328.5L1210.8 327L1210.8 325.5L1206.46 325.5L1206.46 327ZM1215.13 327L1215.13 328.5L1219.47 328.5L1219.47 327L1219.47 325.5L1215.13 325.5L1215.13 327ZM1223.81 327L1223.81 328.5L1228.15 328.5L1228.15 327L1228.15 325.5L1223.81 325.5L1223.81 327ZM1232.48 327L1232.48 328.5L1236.82 328.5L1236.82 327L1236.82 325.5L1232.48 325.5L1232.48 327ZM1241.16 327L1241.16 328.5L1245.49 328.5L1245.49 327L1245.49 325.5L1241.16 325.5L1241.16 327ZM1249.83 327L1249.83 328.5L1252 328.5L1252 327L1252 325.5L1249.83 325.5L1249.83 327Z" fill="#909395"/>
<path d="M251 128.52C251 99.5138 274.514 76 303.52 76C332.525 76 356.039 99.5138 356.039 128.52C356.039 157.525 332.525 181.039 303.52 181.039C274.514 181.039 251 157.525 251 128.52Z" fill="#154973"/>
<path d="M303.52 144.399C307.577 144.399 311.027 142.953 313.867 140.059C316.708 137.166 318.128 133.653 318.128 129.52C318.128 125.386 316.708 121.873 313.867 118.98C311.027 116.086 307.577 114.64 303.52 114.64C299.462 114.64 296.012 116.086 293.172 118.98C290.331 121.873 288.911 125.386 288.911 129.52C288.911 133.653 290.331 137.166 293.172 140.059C296.012 142.953 299.462 144.399 303.52 144.399ZM303.52 138.447C301.085 138.447 299.015 137.579 297.311 135.843C295.607 134.107 294.755 131.999 294.755 129.52C294.755 127.04 295.607 124.932 297.311 123.196C299.015 121.46 301.085 120.592 303.52 120.592C305.954 120.592 308.024 121.46 309.728 123.196C311.432 124.932 312.285 127.04 312.285 129.52C312.285 131.999 311.432 134.107 309.728 135.843C308.024 137.579 305.954 138.447 303.52 138.447ZM303.52 154.319C296.269 154.319 289.655 152.335 283.677 148.367C277.698 144.399 272.977 139.164 269.515 132.661C269.244 132.165 269.041 131.655 268.906 131.132C268.771 130.608 268.703 130.071 268.703 129.52C268.703 128.968 268.771 128.431 268.906 127.908C269.041 127.384 269.244 126.874 269.515 126.378C272.977 119.875 277.698 114.64 283.677 110.672C289.655 106.704 296.269 104.72 303.52 104.72C310.77 104.72 317.384 106.704 323.362 110.672C329.341 114.64 334.062 119.875 337.524 126.378C337.795 126.874 337.998 127.384 338.133 127.908C338.268 128.431 338.336 128.968 338.336 129.52C338.336 130.071 338.268 130.608 338.133 131.132C337.998 131.655 337.795 132.165 337.524 132.661C334.062 139.164 329.341 144.399 323.362 148.367C317.384 152.335 310.77 154.319 303.52 154.319ZM303.52 147.706C309.633 147.706 315.247 146.066 320.36 142.787C325.473 139.508 329.382 135.086 332.087 129.52C329.382 123.953 325.473 119.531 320.36 116.252C315.247 112.973 309.633 111.333 303.52 111.333C297.406 111.333 291.792 112.973 286.679 116.252C281.567 119.531 277.657 123.953 274.952 129.52C277.657 135.086 281.567 139.508 286.679 142.787C291.792 146.066 297.406 147.706 303.52 147.706Z" fill="white"/>
<path d="M57 441.52C57 412.514 80.5138 389 109.52 389C138.525 389 162.039 412.514 162.039 441.52C162.039 470.525 138.525 494.039 109.52 494.039C80.5138 494.039 57 470.525 57 441.52Z" fill="#081B2B"/>
<path d="M95.1665 475.5C90.3127 475.5 86.1752 473.79 82.7542 470.369C79.3331 466.948 77.6226 462.811 77.6226 457.958C77.6226 453.923 78.8799 450.327 81.3945 447.17C83.9091 444.012 87.1255 441.936 91.0436 440.942C91.9793 440.708 92.8565 440.84 93.6752 441.337C94.4939 441.834 95.0203 442.55 95.2542 443.486C95.4881 444.422 95.3565 445.299 94.8594 446.117C94.3624 446.936 93.646 447.462 92.7103 447.696C90.3127 448.281 88.3682 449.523 86.877 451.424C85.3857 453.324 84.6401 455.502 84.6401 457.958C84.6401 460.882 85.6635 463.367 87.7103 465.413C89.7571 467.46 92.2425 468.483 95.1665 468.483C97.5641 468.483 99.6986 467.752 101.57 466.29C103.441 464.829 104.699 462.958 105.342 460.677C105.634 459.741 106.19 459.025 107.009 458.528C107.827 458.031 108.705 457.929 109.64 458.221C110.576 458.514 111.292 459.069 111.789 459.888C112.286 460.706 112.389 461.583 112.096 462.519C111.044 466.378 108.953 469.507 105.824 471.904C102.696 474.301 99.1431 475.5 95.1665 475.5ZM123.237 421.12C121.307 421.12 119.655 420.433 118.281 419.059C116.906 417.685 116.219 416.033 116.219 414.103C116.219 412.174 116.906 410.522 118.281 409.148C119.655 407.773 121.307 407.086 123.237 407.086C125.167 407.086 126.819 407.773 128.193 409.148C129.567 410.522 130.254 412.174 130.254 414.103C130.254 416.033 129.567 417.685 128.193 419.059C126.819 420.433 125.167 421.12 123.237 421.12ZM105.693 454.45C103.12 454.45 101.131 453.353 99.7279 451.161C98.3244 448.968 98.1489 446.673 99.2016 444.275L105.693 429.891H97.7103L96.7454 432.347C96.453 433.165 95.8975 433.794 95.0787 434.233C94.26 434.671 93.4121 434.744 92.5349 434.452C91.5407 434.159 90.8097 433.56 90.3419 432.654C89.8741 431.747 89.8448 430.797 90.2542 429.803L91.3068 427.084C91.8331 425.739 92.6957 424.701 93.8945 423.97C95.0934 423.24 96.3945 422.874 97.798 422.874H116.044C118.675 422.874 120.678 423.941 122.053 426.076C123.427 428.21 123.588 430.476 122.535 432.873L116.745 445.679H126.745C128.675 445.679 130.327 446.366 131.702 447.74C133.076 449.114 133.763 450.766 133.763 452.695V468.483C133.763 469.477 133.427 470.311 132.754 470.983C132.082 471.655 131.248 471.992 130.254 471.992C129.26 471.992 128.427 471.655 127.754 470.983C127.082 470.311 126.745 469.477 126.745 468.483V454.45H105.693Z" fill="white"/>
<path d="M1263 328.52C1263 299.514 1286.51 276 1315.52 276C1344.53 276 1368.04 299.514 1368.04 328.52C1368.04 357.525 1344.53 381.039 1315.52 381.039C1286.51 381.039 1263 357.525 1263 328.52Z" fill="#0E324F"/>
<path d="M1339 320.718C1339 323.74 1338.51 326.607 1337.52 329.318C1336.52 332.028 1335.13 334.511 1333.34 336.766C1332.81 337.437 1332.54 338.169 1332.54 338.961C1332.54 339.752 1332.83 340.436 1333.41 341.012C1334.04 341.587 1334.77 341.839 1335.59 341.767C1336.42 341.695 1337.09 341.324 1337.63 340.652C1339.85 337.917 1341.61 334.847 1342.89 331.441C1344.17 328.034 1344.81 324.46 1344.81 320.718C1344.81 316.88 1344.17 313.258 1342.89 309.851C1341.61 306.445 1339.85 303.375 1337.63 300.64C1337.09 299.968 1336.42 299.597 1335.59 299.525C1334.77 299.453 1334.04 299.705 1333.41 300.28C1332.83 300.856 1332.54 301.54 1332.54 302.331C1332.54 303.123 1332.81 303.854 1333.34 304.526C1335.13 306.781 1336.52 309.276 1337.52 312.01C1338.51 314.745 1339 317.648 1339 320.718ZM1312.87 327.914C1314.9 327.914 1316.62 327.207 1318.02 325.791C1319.43 324.376 1320.13 322.685 1320.13 320.718C1320.13 318.703 1319.43 317 1318.02 315.609C1316.62 314.217 1314.9 313.522 1312.87 313.522C1310.83 313.522 1309.12 314.217 1307.71 315.609C1306.31 317 1305.61 318.703 1305.61 320.718C1305.61 322.685 1306.31 324.376 1307.71 325.791C1309.12 327.207 1310.83 327.914 1312.87 327.914ZM1298.35 346.625C1298.35 345.809 1298.07 345.126 1297.51 344.574C1296.95 344.022 1296.26 343.746 1295.44 343.746C1294.62 343.746 1293.93 344.022 1293.37 344.574C1292.82 345.126 1292.54 345.809 1292.54 346.625C1292.54 349.791 1293.67 352.502 1295.95 354.757C1298.22 357.012 1300.96 358.139 1304.15 358.139C1307.16 358.139 1309.61 357.395 1311.52 355.908C1313.44 354.421 1314.9 352.238 1315.92 349.359C1316.74 346.961 1317.53 345.282 1318.28 344.322C1319.03 343.362 1320.76 341.827 1323.47 339.716C1326.47 337.318 1328.84 334.607 1330.58 331.584C1332.33 328.562 1333.2 324.94 1333.2 320.718C1333.2 315.009 1331.25 310.223 1327.35 306.361C1323.46 302.499 1318.63 300.568 1312.87 300.568C1307.11 300.568 1302.28 302.499 1298.38 306.361C1294.49 310.223 1292.54 315.009 1292.54 320.718C1292.54 321.534 1292.82 322.217 1293.37 322.769C1293.93 323.321 1294.62 323.597 1295.44 323.597C1296.26 323.597 1296.95 323.321 1297.51 322.769C1298.07 322.217 1298.35 321.534 1298.35 320.718C1298.35 316.64 1299.74 313.222 1302.52 310.463C1305.3 307.705 1308.75 306.325 1312.87 306.325C1316.98 306.325 1320.43 307.705 1323.21 310.463C1326 313.222 1327.39 316.64 1327.39 320.718C1327.39 323.98 1326.73 326.763 1325.43 329.066C1324.12 331.369 1322.26 333.432 1319.84 335.255C1317.32 337.078 1315.36 338.853 1313.96 340.58C1312.55 342.307 1311.51 344.178 1310.83 346.193C1310.16 348.304 1309.35 349.863 1308.4 350.871C1307.46 351.878 1306.04 352.382 1304.15 352.382C1302.56 352.382 1301.19 351.818 1300.05 350.691C1298.91 349.563 1298.35 348.208 1298.35 346.625Z" fill="white"/>
<path d="M732 501.52C732 472.514 755.514 449 784.52 449C813.525 449 837.039 472.514 837.039 501.52C837.039 530.525 813.525 554.039 784.52 554.039C755.514 554.039 732 530.525 732 501.52Z" fill="#154973"/>
<path d="M784.126 536.5C779.852 536.5 775.838 535.533 772.085 533.6C768.332 531.666 765.257 528.972 762.859 525.517L749.019 505.408C748.654 504.892 748.511 504.338 748.589 503.745C748.667 503.152 748.915 502.65 749.332 502.237C750.374 501.154 751.665 500.535 753.202 500.381C754.74 500.226 756.134 500.587 757.385 501.464L765.986 507.342V477.719C765.986 476.843 766.286 476.108 766.886 475.515C767.485 474.922 768.228 474.625 769.114 474.625C770 474.625 770.743 474.922 771.342 475.515C771.942 476.108 772.242 476.843 772.242 477.719V513.297C772.242 514.535 771.681 515.45 770.56 516.043C769.44 516.636 768.358 516.571 767.316 515.849L760.669 511.286L768.097 521.96C769.922 524.589 772.242 526.639 775.056 528.108C777.871 529.578 780.895 530.313 784.126 530.313C789.496 530.313 794.07 528.444 797.849 524.705C801.628 520.967 803.518 516.442 803.518 511.132V480.813C803.518 479.936 803.817 479.202 804.417 478.609C805.016 478.016 805.759 477.719 806.645 477.719C807.531 477.719 808.274 478.016 808.874 478.609C809.473 479.202 809.773 479.936 809.773 480.813V511.132C809.773 518.196 807.284 524.19 802.306 529.114C797.328 534.038 791.268 536.5 784.126 536.5ZM781.624 468.438C782.511 468.438 783.253 468.734 783.853 469.327C784.452 469.92 784.752 470.655 784.752 471.532V499.375C784.752 500.252 784.452 500.987 783.853 501.58C783.253 502.173 782.511 502.469 781.624 502.469C780.738 502.469 779.995 502.173 779.396 501.58C778.797 500.987 778.497 500.252 778.497 499.375V471.532C778.497 470.655 778.797 469.92 779.396 469.327C779.995 468.734 780.738 468.438 781.624 468.438ZM794.135 471.532C795.021 471.532 795.764 471.828 796.363 472.421C796.963 473.014 797.262 473.749 797.262 474.625V499.375C797.262 500.252 796.963 500.987 796.363 501.58C795.764 502.173 795.021 502.469 794.135 502.469C793.249 502.469 792.506 502.173 791.906 501.58C791.307 500.987 791.007 500.252 791.007 499.375V474.625C791.007 473.749 791.307 473.014 791.906 472.421C792.506 471.828 793.249 471.532 794.135 471.532Z" fill="white"/>
<path d="M526.241 277.883H887.759C891.884 277.883 895.229 281.228 895.229 285.353V368.647C895.228 372.772 891.884 376.117 887.759 376.117H526.241C522.116 376.117 518.772 372.772 518.772 368.647V285.353C518.772 281.228 522.116 277.883 526.241 277.883Z" fill="white"/>
<path d="M526.241 277.883H887.759C891.884 277.883 895.229 281.228 895.229 285.353V368.647C895.228 372.772 891.884 376.117 887.759 376.117H526.241C522.116 376.117 518.772 372.772 518.772 368.647V285.353C518.772 281.228 522.116 277.883 526.241 277.883Z" stroke="#909395" stroke-width="1.061"/>
<path d="M602.686 337.599L591.141 321.194V337.599H585.986V313.175H591.286L602.504 328.994V313.175H607.659V337.599H602.686Z" fill="#1B1B1B"/>
<path d="M617.824 337.599V327.602L608.494 313.175H614.375L620.402 322.989L626.356 313.175H632.237L622.979 327.602V337.599H617.824Z" fill="#1B1B1B"/>
<path d="M633.253 330.202C634.96 331.997 637.61 333.498 640.95 333.498C643.782 333.498 645.161 332.143 645.161 330.751C645.161 328.921 643.056 328.298 640.26 327.639C636.303 326.724 631.221 325.625 631.221 320.169C631.221 316.105 634.706 312.809 640.405 312.809C644.254 312.809 647.448 313.981 649.844 316.214L646.976 320.023C645.016 318.192 642.402 317.35 640.042 317.35C637.719 317.35 636.485 318.375 636.485 319.84C636.485 321.487 638.517 322 641.313 322.659C645.306 323.574 650.389 324.783 650.389 330.202C650.389 334.669 647.23 338.038 640.696 338.038C636.049 338.038 632.709 336.464 630.422 334.157L633.253 330.202Z" fill="#1B1B1B"/>
<path d="M659.16 337.599V313.614H667.288C674.668 313.614 679.48 318.828 679.48 325.625C679.48 332.457 674.668 337.599 667.288 337.599H659.16ZM662.119 334.938H667.288C673.063 334.938 676.415 330.767 676.415 325.625C676.415 320.446 673.17 316.275 667.288 316.275H662.119V334.938Z" fill="#1B1B1B"/>
<path d="M689.605 319.799C694.81 319.799 697.877 323.898 697.877 329.112V329.796H683.937C684.151 333.068 686.433 335.801 690.14 335.801C692.101 335.801 694.098 335.01 695.453 333.608L696.736 335.369C695.025 337.095 692.707 338.031 689.891 338.031C684.793 338.031 681.12 334.327 681.12 328.897C681.12 323.862 684.686 319.799 689.605 319.799ZM683.937 327.818H695.238C695.203 325.229 693.492 322.028 689.57 322.028C685.898 322.028 684.08 325.157 683.937 327.818Z" fill="#1B1B1B"/>
<path d="M700.301 333.356C701.441 334.686 703.616 335.837 705.969 335.837C708.607 335.837 710.033 334.65 710.033 332.96C710.033 331.054 707.93 330.443 705.612 329.868C702.689 329.184 699.373 328.393 699.373 324.797C699.373 322.1 701.691 319.799 705.791 319.799C708.714 319.799 710.782 320.914 712.172 322.316L710.924 324.186C709.891 322.927 708.001 321.992 705.791 321.992C703.438 321.992 701.976 323.071 701.976 324.618C701.976 326.307 703.937 326.847 706.183 327.386C709.178 328.07 712.636 328.932 712.636 332.78C712.636 335.693 710.318 338.031 705.862 338.031C703.046 338.031 700.657 337.167 698.91 335.297L700.301 333.356Z" fill="#1B1B1B"/>
<path d="M714.989 315.484C714.989 314.477 715.809 313.686 716.771 313.686C717.77 313.686 718.59 314.477 718.59 315.484C718.59 316.491 717.77 317.318 716.771 317.318C715.809 317.318 714.989 316.491 714.989 315.484ZM715.452 337.599V320.23H718.126V337.599H715.452Z" fill="#1B1B1B"/>
<path d="M723.046 340.044C724.471 341.77 726.183 342.417 728.643 342.417C731.495 342.417 734.169 341.015 734.169 337.203V334.722C732.921 336.484 730.818 337.815 728.393 337.815C723.901 337.815 720.728 334.434 720.728 328.825C720.728 323.251 723.866 319.799 728.393 319.799C730.711 319.799 732.778 320.95 734.169 322.855V320.23H736.843V337.095C736.843 342.849 732.85 344.647 728.643 344.647C725.719 344.647 723.723 344.072 721.691 342.058L723.046 340.044ZM734.169 325.013C733.242 323.503 731.174 322.208 729.035 322.208C725.577 322.208 723.509 324.977 723.509 328.825C723.509 332.636 725.577 335.441 729.035 335.441C731.174 335.441 733.242 334.111 734.169 332.601V325.013Z" fill="#1B1B1B"/>
<path d="M751.709 337.599V326.236C751.709 323.179 750.176 322.208 747.858 322.208C745.755 322.208 743.758 323.503 742.76 324.905V337.599H740.086V320.23H742.76V322.748C743.973 321.309 746.326 319.799 748.892 319.799C752.493 319.799 754.383 321.633 754.383 325.408V337.599H751.709Z" fill="#1B1B1B"/>
<path d="M763.651 331.953C765.22 333.715 767.787 335.369 771.138 335.369C775.381 335.369 776.735 333.068 776.735 331.234C776.735 328.357 773.848 327.566 770.71 326.703C766.896 325.696 762.653 324.618 762.653 319.907C762.653 315.951 766.147 313.254 770.817 313.254C774.454 313.254 777.27 314.477 779.267 316.599L777.484 318.792C775.702 316.814 773.206 315.915 770.604 315.915C767.751 315.915 765.719 317.462 765.719 319.727C765.719 322.136 768.464 322.855 771.495 323.682C775.381 324.726 779.802 325.948 779.802 330.982C779.802 334.47 777.449 338.031 771.031 338.031C766.896 338.031 763.865 336.448 761.904 334.219L763.651 331.953Z" fill="#1B1B1B"/>
<path d="M781.299 341.95C781.691 342.13 782.333 342.238 782.761 342.238C783.937 342.238 784.721 341.842 785.327 340.404L786.468 337.779L779.267 320.23H782.154L787.894 334.47L793.599 320.23H796.522L787.894 341.123C786.861 343.64 785.114 344.611 782.832 344.647C782.261 344.647 781.37 344.539 780.871 344.395L781.299 341.95Z" fill="#1B1B1B"/>
<path d="M797.734 333.356C798.874 334.686 801.049 335.837 803.402 335.837C806.041 335.837 807.467 334.65 807.467 332.96C807.467 331.054 805.363 330.443 803.046 329.868C800.122 329.184 796.807 328.393 796.807 324.797C796.807 322.1 799.124 319.799 803.224 319.799C806.147 319.799 808.215 320.914 809.606 322.316L808.358 324.186C807.324 322.927 805.434 321.992 803.224 321.992C800.871 321.992 799.409 323.071 799.409 324.618C799.409 326.307 801.37 326.847 803.616 327.386C806.611 328.07 810.069 328.932 810.069 332.78C810.069 335.693 807.752 338.031 803.295 338.031C800.479 338.031 798.09 337.167 796.344 335.297L797.734 333.356Z" fill="#1B1B1B"/>
<path d="M813.955 333.967V322.604H811.103V320.23H813.955V315.484H816.629V320.23H820.122V322.604H816.629V333.392C816.629 334.686 817.199 335.621 818.375 335.621C819.124 335.621 819.837 335.298 820.194 334.902L820.978 336.916C820.301 337.563 819.338 338.031 817.769 338.031C815.238 338.031 813.955 336.556 813.955 333.967Z" fill="#1B1B1B"/>
<path d="M829.748 319.799C834.953 319.799 838.019 323.898 838.019 329.112V329.796H824.079C824.293 333.068 826.575 335.801 830.283 335.801C832.244 335.801 834.24 335.01 835.595 333.608L836.878 335.369C835.167 337.095 832.849 338.031 830.033 338.031C824.935 338.031 821.263 334.327 821.263 328.897C821.263 323.862 824.828 319.799 829.748 319.799ZM824.079 327.818H835.381C835.345 325.229 833.634 322.028 829.712 322.028C826.04 322.028 824.222 325.157 824.079 327.818Z" fill="#1B1B1B"/>
<path d="M861.085 337.599V325.804C861.085 323.611 860.123 322.208 857.912 322.208C856.13 322.208 854.24 323.503 853.349 324.869V337.599H850.675V325.804C850.675 323.611 849.748 322.208 847.502 322.208C845.755 322.208 843.901 323.503 842.974 324.905V337.599H840.3V320.23H842.974V322.748C843.687 321.633 846.005 319.799 848.536 319.799C851.174 319.799 852.671 321.237 853.17 323.035C854.133 321.453 856.45 319.799 858.946 319.799C862.083 319.799 863.759 321.561 863.759 325.049V337.599H861.085Z" fill="#1B1B1B"/>
<path d="M561.773 325.724L556.76 320.666V316.253H574.254L580.972 323.075C580.071 315.348 573.56 309.353 565.66 309.353C557.145 309.353 550.241 316.319 550.241 324.911C550.241 328.415 551.389 331.647 553.326 334.248" fill="#245FC2"/>
<path d="M556.76 320.654H566.786L561.773 325.712L556.76 320.654ZM574.254 316.241V333.893H569.881V323.773L556.42 337.355C558.995 339.304 562.194 340.458 565.66 340.458C574.176 340.458 581.079 333.492 581.079 324.9C581.079 324.277 581.039 323.664 580.968 323.06L574.254 316.241Z" fill="#0E324F"/>
<path d="M993 94.3975C993 66.5637 1015.56 44 1043.4 44C1071.23 44 1093.8 66.5637 1093.8 94.3975C1093.8 122.231 1071.23 144.795 1043.4 144.795C1015.56 144.795 993 122.231 993 94.3975Z" fill="#457AA5"/>
<path d="M1039.67 99.7567L1039.99 102.35C1040.04 102.782 1040.21 103.134 1040.5 103.404C1040.8 103.674 1041.15 103.809 1041.58 103.809H1045.08C1045.51 103.809 1045.87 103.674 1046.16 103.404C1046.45 103.134 1046.62 102.782 1046.68 102.35L1047 99.7567C1047.42 99.5946 1047.81 99.4055 1048.15 99.1894C1048.5 98.9733 1048.8 98.7301 1049.07 98.46L1051.46 99.5136C1051.83 99.6757 1052.2 99.7027 1052.57 99.5946C1052.94 99.4866 1053.23 99.2434 1053.45 98.8652L1055.2 95.7855C1055.41 95.4073 1055.48 95.0291 1055.4 94.6509C1055.32 94.2727 1055.12 93.9485 1054.8 93.6783L1052.73 92.1385C1052.84 91.7062 1052.89 91.274 1052.89 90.8417C1052.89 90.4095 1052.84 89.9773 1052.73 89.545L1054.8 88.0052C1055.12 87.735 1055.32 87.4108 1055.4 87.0326C1055.48 86.6544 1055.41 86.2762 1055.2 85.898L1053.45 82.8183C1053.23 82.4401 1052.94 82.1969 1052.57 82.0889C1052.2 81.9808 1051.83 82.0078 1051.46 82.1699L1049.07 83.2235C1048.8 82.9534 1048.5 82.7102 1048.15 82.4941C1047.81 82.278 1047.42 82.0889 1047 81.9268L1046.68 79.3334C1046.62 78.9011 1046.45 78.5499 1046.16 78.2798C1045.87 78.0096 1045.51 77.8745 1045.08 77.8745H1041.58C1041.15 77.8745 1040.8 78.0096 1040.5 78.2798C1040.21 78.5499 1040.04 78.9011 1039.99 79.3334L1039.67 81.9268C1039.24 82.0889 1038.86 82.278 1038.51 82.4941C1038.17 82.7102 1037.86 82.9534 1037.6 83.2235L1035.21 82.1699C1034.84 82.0078 1034.46 81.9808 1034.09 82.0889C1033.72 82.1969 1033.43 82.4401 1033.22 82.8183L1031.46 85.898C1031.25 86.2762 1031.19 86.6544 1031.27 87.0326C1031.34 87.4108 1031.54 87.735 1031.86 88.0052L1033.93 89.545C1033.83 89.9773 1033.77 90.4095 1033.77 90.8417C1033.77 91.274 1033.83 91.7062 1033.93 92.1385L1031.86 93.6783C1031.54 93.9485 1031.34 94.2727 1031.27 94.6509C1031.19 95.0291 1031.25 95.4073 1031.46 95.7855L1033.22 98.8652C1033.43 99.2434 1033.72 99.4866 1034.09 99.5946C1034.46 99.7027 1034.84 99.6757 1035.21 99.5136L1037.6 98.46C1037.86 98.7301 1038.17 98.9733 1038.51 99.1894C1038.86 99.4055 1039.24 99.5946 1039.67 99.7567ZM1043.33 95.7045C1042 95.7045 1040.88 95.2317 1039.95 94.2862C1039.02 93.3406 1038.55 92.1925 1038.55 90.8417C1038.55 89.491 1039.02 88.3429 1039.95 87.3973C1040.88 86.4518 1042 85.979 1043.33 85.979C1044.66 85.979 1045.79 86.4518 1046.72 87.3973C1047.65 88.3429 1048.11 89.491 1048.11 90.8417C1048.11 92.1925 1047.65 93.3406 1046.72 94.2862C1045.79 95.2317 1044.66 95.7045 1043.33 95.7045ZM1024.22 112.562C1021.19 109.752 1018.84 106.47 1017.17 102.715C1015.5 98.9598 1014.66 95.0021 1014.66 90.8417C1014.66 82.7372 1017.45 75.8484 1023.02 70.1753C1028.6 64.5021 1035.37 61.6655 1043.33 61.6655C1049.97 61.6655 1055.85 63.6511 1060.97 67.6223C1066.1 71.5935 1069.43 76.7669 1070.97 83.1425L1075.11 99.7567C1075.38 100.783 1075.19 101.715 1074.55 102.553C1073.92 103.39 1073.07 103.809 1072 103.809H1065.63V113.534C1065.63 115.317 1065.01 116.844 1063.76 118.113C1062.51 119.383 1061.01 120.018 1059.26 120.018H1052.89V123.26C1052.89 124.178 1052.58 124.948 1051.97 125.57C1051.36 126.191 1050.61 126.502 1049.7 126.502C1048.8 126.502 1048.04 126.191 1047.43 125.57C1046.82 124.948 1046.52 124.178 1046.52 123.26V116.776C1046.52 115.858 1046.82 115.088 1047.43 114.466C1048.04 113.845 1048.8 113.534 1049.7 113.534H1059.26V100.567C1059.26 99.6486 1059.57 98.8787 1060.18 98.2574C1060.79 97.636 1061.54 97.3254 1062.45 97.3254H1067.86L1064.84 84.7634C1063.61 79.8466 1061.01 75.8484 1057.03 72.7687C1053.05 69.689 1048.48 68.1491 1043.33 68.1491C1037.17 68.1491 1031.92 70.3373 1027.56 74.7138C1023.21 79.0902 1021.03 84.4122 1021.03 90.6797C1021.03 93.9215 1021.68 97.0012 1022.98 99.9188C1024.28 102.836 1026.13 105.43 1028.52 107.699L1030.59 109.644V123.26C1030.59 124.178 1030.28 124.948 1029.67 125.57C1029.06 126.191 1028.31 126.502 1027.4 126.502C1026.5 126.502 1025.74 126.191 1025.13 125.57C1024.52 124.948 1024.22 124.178 1024.22 123.26V112.562Z" fill="white"/>
</svg>
