<svg xmlns="http://www.w3.org/2000/svg" width="1425" height="600" fill="none" viewBox="0 0 1425 600"><path fill="#fff" d="M0 0h1425v600H0z"/><path fill="#909395" d="M171.939 444.061a1.5 1.5 0 0 1 0-2.122l9.546-9.546a1.5 1.5 0 0 1 2.122 0 1.5 1.5 0 0 1 0 2.122L175.121 443l8.486 8.485a1.5 1.5 0 0 1 0 2.122 1.5 1.5 0 0 1-2.122 0zM416.715 443v1.5zM544 322v1.5h-2.166v-3H544zm-6.497 0v1.5h-4.332v-3h4.332zm-8.664 0v1.5h-4.331v-3h4.331zm-8.663 0v1.5h-4.331v-3h4.331zm-8.663 0v1.5h-4.332v-3h4.332zm-8.663 0v1.5h-4.332v-3h4.332zm-8.663 0v1.5h-4.332v-3h4.332zm-8.664 0v1.5h-4.331v-3h4.331zm-8.663 0v1.5h-4.332v-3h4.332zm-8.663 0v1.5h-4.332v-3h4.332zm-8.663 0v1.5h-4.332v-3h4.332zm-8.664 0v1.5h-4.331v-3h4.331zm-8.663 0v1.5h-4.331v-3h4.331zm-8.663 0v1.5h-4.332v-3h4.332zm-8.663 0v1.5h-2.166v-3h2.166zm-2.166 0v1.5c-.206 0-.399.041-.574.113l-.574-1.385-.575-1.386a4.5 4.5 0 0 1 1.723-.342zm-2.772 1.852 1.385.574a1.5 1.5 0 0 0-.113.574h-3c0-.607.121-1.19.342-1.723zm-.228 1.148h1.5v2.212h-3V325zm0 6.635h1.5v4.423h-3v-4.423zm0 8.846h1.5v4.423h-3v-4.423zm0 8.846h1.5v4.423h-3v-4.423zm0 8.846h1.5v4.423h-3v-4.423zm0 8.846h1.5v4.423h-3v-4.423zm0 8.846h1.5v4.423h-3v-4.423zm0 8.847h1.5v4.423h-3v-4.423zm0 8.846h1.5v4.423h-3v-4.423zm0 8.846h1.5v4.423h-3v-4.423zm0 8.846h1.5v4.423h-3v-4.423zm0 8.846h1.5v4.423h-3v-4.423zm0 8.846h1.5v4.423h-3v-4.423zm0 8.847h1.5V440h-3v-2.211zm0 2.211h1.5c0 .607-.121 1.19-.342 1.723l-1.386-.575-1.385-.574c.072-.175.113-.368.113-.574zm-1.852 2.772.575 1.386a4.5 4.5 0 0 1-1.723.342v-3c.206 0 .399-.041.574-.113zm-1.148.228v1.5h-2.176v-3h2.176zm-6.528 0v1.5h-4.352v-3h4.352zm-8.704 0v1.5h-4.352v-3h4.352zm-8.704 0v1.5h-4.352v-3h4.352zm-8.704 0v1.5h-4.352v-3h4.352zm-8.705 0v1.5h-4.352v-3h4.352zm-8.704 0v1.5h-4.352v-3h4.352zm-8.704 0v1.5h-4.352v-3h4.352zm-8.704 0v1.5h-4.352v-3h4.352zm-8.704 0v1.5h-4.352v-3h4.352zm-8.704 0v1.5h-4.352v-3h4.352zm-8.704 0v1.5h-4.352v-3h4.352zm-8.704 0v1.5h-4.352v-3h4.352zm-8.704 0v1.5h-4.352v-3h4.352zm-8.704 0v1.5h-4.352v-3h4.352zm-8.705 0v1.5h-4.352v-3h4.352zm-8.704 0v1.5h-4.352v-3h4.352zm-8.704 0v1.5h-4.352v-3h4.352zm-8.704 0v1.5h-4.352v-3h4.352zm-8.704 0v1.5h-4.352v-3h4.352zm-8.704 0v1.5h-4.352v-3h4.352zm-8.704 0v1.5h-4.352v-3h4.352zm-8.704 0v1.5h-4.352v-3h4.352zm-8.704 0v1.5h-4.352v-3h4.352zm-8.704 0v1.5h-4.353v-3h4.353zm-8.705 0v1.5h-4.352v-3h4.352zm-8.704 0v1.5h-4.352v-3h4.352zm-8.704 0v1.5h-4.352v-3h4.352zm-8.704 0v1.5H173v-3h2.176zM1044.06 154.939a1.5 1.5 0 0 0-2.12 0l-9.55 9.546a1.51 1.51 0 0 0 0 2.122 1.5 1.5 0 0 0 2.12 0l8.49-8.486 8.49 8.486a1.5 1.5 0 0 0 2.12 0c.58-.586.58-1.536 0-2.122zM1043 214h-1.5zm-3 3v1.5zm-265 0v1.5zm-3 77h1.5v-2.313h-3V294zm0-6.938h1.5v-4.625h-3v4.625zm0-9.25h1.5v-4.625h-3v4.625zm0-9.25h1.5v-4.625h-3v4.625zm0-9.25h1.5v-4.625h-3v4.625zm0-9.25h1.5v-4.625h-3v4.625zm0-9.25h1.5v-4.625h-3v4.625zm0-9.25h1.5v-4.625h-3v4.625zm0-9.25h1.5V220h-3v2.312zm0-2.312h1.5c0-.206.041-.399.113-.574l-1.385-.574-1.386-.575A4.5 4.5 0 0 0 770.5 220zm1.852-2.772.574 1.385c.175-.072.368-.113.574-.113v-3c-.607 0-1.19.121-1.723.342zM775 217v1.5h2.208v-3H775zm6.625 0v1.5h4.417v-3h-4.417zm8.833 0v1.5h4.417v-3h-4.417zm8.834 0v1.5h4.416v-3h-4.416zm8.833 0v1.5h4.417v-3h-4.417zm8.833 0v1.5h4.417v-3h-4.417zm8.834 0v1.5h4.416v-3h-4.416zm8.833 0v1.5h4.417v-3h-4.417zm8.833 0v1.5h4.417v-3h-4.417zm8.834 0v1.5h4.416v-3h-4.416zm8.833 0v1.5h4.417v-3h-4.417zm8.833 0v1.5h4.417v-3h-4.417zm8.834 0v1.5h4.416v-3h-4.416zm8.833 0v1.5h4.417v-3h-4.417zm8.833 0v1.5h4.417v-3h-4.417zm8.834 0v1.5h4.416v-3h-4.416zm8.833 0v1.5h4.417v-3h-4.417zm8.833 0v1.5h4.417v-3h-4.417zm8.834 0v1.5h4.416v-3h-4.416zm8.833 0v1.5h4.417v-3h-4.417zm8.833 0v1.5h4.417v-3h-4.417zm8.834 0v1.5h4.416v-3h-4.416zm8.833 0v1.5h4.417v-3h-4.417zm8.833 0v1.5h4.417v-3h-4.417zm8.834 0v1.5h4.416v-3h-4.416zm8.833 0v1.5h4.417v-3h-4.417zm8.835 0v1.5h4.42v-3h-4.42zm8.83 0v1.5h4.42v-3h-4.42zm8.84 0v1.5h4.41v-3h-4.41zm8.83 0v1.5h4.42v-3h-4.42zm8.83 0v1.5h2.21v-3h-2.21zm2.21 0v1.5c.61 0 1.19-.121 1.72-.342l-.57-1.386-.58-1.385c-.17.072-.36.113-.57.113zm2.77-1.852 1.39.575a4.5 4.5 0 0 0 .34-1.723h-3c0 .206-.04.399-.11.574zM1043 214h1.5v-2.071h-3V214zm0-6.214h1.5v-4.143h-3v4.143zm0-8.286h1.5v-4.143h-3v4.143zm0-8.286h1.5v-4.143h-3v4.143zm0-8.285h1.5v-4.143h-3v4.143zm0-8.286h1.5V170.5h-3v4.143zm0-8.286h1.5v-4.143h-3v4.143zm0-8.286h1.5V156h-3v2.071zM365.939 129.939a1.5 1.5 0 0 0 0 2.122l9.546 9.546a1.5 1.5 0 0 0 2.122 0 1.5 1.5 0 0 0 0-2.122L369.121 131l8.486-8.485a1.5 1.5 0 0 0 0-2.122 1.5 1.5 0 0 0-2.122 0zM618.5 321a1.5 1.5 0 0 0 3 0zM617 131v-1.5zm3 190h1.5v-2.226h-3V321zm0-6.679h1.5v-4.452h-3v4.452zm0-8.904h1.5v-4.453h-3v4.453zm0-8.905h1.5v-4.452h-3v4.452zm0-8.905h1.5v-4.452h-3v4.452zm0-8.905h1.5v-4.452h-3v4.452zm0-8.904h1.5v-4.453h-3v4.453zm0-8.905h1.5v-4.453h-3v4.453zm0-8.905h1.5v-4.452h-3v4.452zm0-8.905h1.5v-4.452h-3v4.452zm0-8.904h1.5v-4.453h-3v4.453zm0-8.905h1.5v-4.453h-3v4.453zm0-8.905h1.5v-4.452h-3v4.452zm0-8.905h1.5v-4.452h-3v4.452zm0-8.905h1.5v-4.452h-3v4.452zm0-8.904h1.5v-4.453h-3v4.453zm0-8.905h1.5v-4.452h-3v4.452zm0-8.905h1.5v-4.452h-3v4.452zm0-8.905h1.5v-4.452h-3v4.452zm0-8.904h1.5v-4.453h-3v4.453zm0-8.905h1.5v-4.452h-3v4.452zm0-8.905h1.5V134h-3v2.226zm0-2.226h1.5c0-.607-.121-1.19-.342-1.723l-1.386.575-1.385.574c.072.175.113.368.113.574zm-1.852-2.772.575-1.386A4.5 4.5 0 0 0 617 129.5v3c.206 0 .399.041.574.113zM617 131v-1.5h-2.155v3H617zm-6.466 0v-1.5h-4.31v3h4.31zm-8.62 0v-1.5h-4.311v3h4.311zm-8.621 0v-1.5h-4.31v3h4.31zm-8.621 0v-1.5h-4.31v3h4.31zm-8.62 0v-1.5h-4.311v3h4.311zm-8.621 0v-1.5h-4.31v3h4.31zm-8.621 0v-1.5h-4.31v3h4.31zm-8.62 0v-1.5h-4.311v3h4.311zm-8.621 0v-1.5h-4.31v3h4.31zm-8.621 0v-1.5h-4.31v3h4.31zm-8.62 0v-1.5h-4.311v3h4.311zm-8.621 0v-1.5h-4.31v3h4.31zm-8.621 0v-1.5h-4.31v3h4.31zm-8.621 0v-1.5h-4.31v3h4.31zm-8.62 0v-1.5h-4.311v3h4.311zm-8.621 0v-1.5h-4.31v3h4.31zm-8.621 0v-1.5h-4.31v3h4.31zm-8.62 0v-1.5h-4.311v3h4.311zm-8.621 0v-1.5h-4.31v3h4.31zm-8.621 0v-1.5h-4.31v3h4.31zm-8.62 0v-1.5h-4.311v3h4.311zm-8.621 0v-1.5h-4.31v3h4.31zm-8.621 0v-1.5h-4.31v3h4.31zm-8.62 0v-1.5h-4.311v3h4.311zm-8.621 0v-1.5h-4.311v3h4.311zm-8.621 0v-1.5h-4.31v3h4.31zm-8.621 0v-1.5h-4.31v3h4.31zm-8.62 0v-1.5h-4.311v3h4.311zm-8.621 0v-1.5H367v3h2.155zM721.061 503.061a1.5 1.5 0 0 0 0-2.122l-9.546-9.546a1.5 1.5 0 0 0-2.122 0 1.5 1.5 0 0 0 0 2.122l8.486 8.485-8.486 8.485a1.5 1.5 0 0 0 0 2.122 1.5 1.5 0 0 0 2.122 0zM656.5 369a1.5 1.5 0 0 0-3 0zm1.5 133v-1.5zm-3-133h-1.5v2.167h3V369zm0 6.5h-1.5v4.333h3V375.5zm0 8.667h-1.5v4.333h3v-4.333zm0 8.666h-1.5v4.334h3v-4.334zm0 8.667h-1.5v4.333h3V401.5zm0 8.667h-1.5v4.333h3v-4.333zm0 8.666h-1.5v4.334h3v-4.334zm0 8.667h-1.5v4.333h3V427.5zm0 8.667h-1.5v4.333h3v-4.333zm0 8.666h-1.5v4.334h3v-4.334zm0 8.667h-1.5v4.333h3V453.5zm0 8.667h-1.5v4.333h3v-4.333zm0 8.666h-1.5v4.334h3v-4.334zm0 8.667h-1.5v4.333h3V479.5zm0 8.667h-1.5v4.333h3v-4.333zm0 8.666h-1.5V499h3v-2.167zm0 2.167h-1.5c0 .607.121 1.19.342 1.723l1.386-.575 1.385-.574a1.5 1.5 0 0 1-.113-.574zm1.852 2.772-.575 1.386a4.5 4.5 0 0 0 1.723.342v-3c-.206 0-.399-.041-.574-.113zM658 502v1.5h2.214v-3H658zm6.643 0v1.5h4.428v-3h-4.428zm8.857 0v1.5h4.429v-3H673.5zm8.857 0v1.5h4.429v-3h-4.429zm8.857 0v1.5h4.429v-3h-4.429zm8.857 0v1.5h4.429v-3h-4.429zm8.858 0v1.5h4.428v-3h-4.428zm8.857 0v1.5H720v-3h-2.214zM879 325.5a1.5 1.5 0 0 0 0 3zm374.06 2.561c.59-.586.59-1.536 0-2.122l-9.55-9.546a1.5 1.5 0 0 0-2.12 0 1.51 1.51 0 0 0 0 2.122l8.49 8.485-8.49 8.485a1.51 1.51 0 0 0 0 2.122 1.5 1.5 0 0 0 2.12 0zM879 327v1.5h2.169v-3H879zm6.506 0v1.5h4.337v-3h-4.337zm8.674 0v1.5h4.337v-3h-4.337zm8.675 0v1.5h4.337v-3h-4.337zm8.674 0v1.5h4.337v-3h-4.337zm8.674 0v1.5h4.338v-3h-4.338zm8.675 0v1.5h4.337v-3h-4.337zm8.674 0v1.5h4.338v-3h-4.338zm8.675 0v1.5h4.337v-3h-4.337zm8.674 0v1.5h4.337v-3h-4.337zm8.675 0v1.5h4.337v-3h-4.337zm8.674 0v1.5h4.337v-3h-4.337zm8.674 0v1.5h4.338v-3h-4.338zm8.675 0v1.5h4.337v-3h-4.337zm8.674 0v1.5h4.337v-3h-4.337zm8.677 0v1.5h4.33v-3h-4.33zm8.67 0v1.5h4.34v-3h-4.34zm8.68 0v1.5h4.33v-3h-4.33zm8.67 0v1.5h4.34v-3h-4.34zm8.68 0v1.5h4.33v-3h-4.33zm8.67 0v1.5h4.34v-3h-4.34zm8.67 0v1.5h4.34v-3h-4.34zm8.68 0v1.5h4.34v-3h-4.34zm8.67 0v1.5h4.34v-3h-4.34zm8.68 0v1.5h4.33v-3h-4.33zm8.67 0v1.5h4.34v-3h-4.34zm8.68 0v1.5h4.33v-3h-4.33zm8.67 0v1.5h4.34v-3h-4.34zm8.68 0v1.5h4.33v-3h-4.33zm8.67 0v1.5h4.34v-3h-4.34zm8.67 0v1.5h4.34v-3h-4.34zm8.68 0v1.5h4.34v-3h-4.34zm8.67 0v1.5h4.34v-3h-4.34zm8.68 0v1.5h4.33v-3h-4.33zm8.67 0v1.5h4.34v-3h-4.34zm8.68 0v1.5h4.33v-3h-4.33zm8.67 0v1.5h4.34v-3h-4.34zm8.67 0v1.5h4.34v-3h-4.34zm8.68 0v1.5h4.34v-3h-4.34zm8.67 0v1.5h4.34v-3h-4.34zm8.68 0v1.5h4.34v-3h-4.34zm8.67 0v1.5h4.34v-3h-4.34zm8.68 0v1.5h4.33v-3h-4.33zm8.67 0v1.5h2.17v-3h-2.17z"/><path fill="#154973" d="M251 128.52C251 99.514 274.514 76 303.52 76c29.005 0 52.519 23.514 52.519 52.52 0 29.005-23.514 52.519-52.519 52.519-29.006 0-52.52-23.514-52.52-52.519"/><path fill="#fff" d="M303.52 144.399q6.086 0 10.347-4.34t4.261-10.539q0-6.2-4.261-10.54-4.26-4.34-10.347-4.34t-10.348 4.34-4.261 10.54 4.261 10.539q4.26 4.34 10.348 4.34m0-5.952q-3.653 0-6.209-2.604t-2.556-6.323q0-3.72 2.556-6.324t6.209-2.604q3.652 0 6.208 2.604t2.557 6.324q0 3.719-2.557 6.323t-6.208 2.604m0 15.872q-10.876 0-19.843-5.952-8.969-5.952-14.162-15.706a6.434 6.434 0 0 1-.812-3.141q0-.828.203-1.612a6.6 6.6 0 0 1 .609-1.53q5.193-9.754 14.162-15.706 8.967-5.952 19.843-5.952t19.842 5.952q8.969 5.952 14.162 15.706.406.744.609 1.53.203.784.203 1.612a6.43 6.43 0 0 1-.812 3.141q-5.193 9.754-14.162 15.706-8.967 5.952-19.842 5.952m0-6.613q9.17 0 16.84-4.919t11.727-13.267q-4.058-8.35-11.727-13.268t-16.84-4.919-16.841 4.919q-7.669 4.918-11.727 13.268 4.058 8.349 11.727 13.267 7.67 4.919 16.841 4.919"/><path fill="#081b2b" d="M57 441.52C57 412.514 80.514 389 109.52 389c29.005 0 52.519 23.514 52.519 52.52 0 29.005-23.514 52.519-52.519 52.519-29.006 0-52.52-23.514-52.52-52.519"/><path fill="#fff" d="M95.167 475.5q-7.281 0-12.413-5.131-5.13-5.132-5.131-12.411 0-6.053 3.771-10.788 3.772-4.737 9.65-6.228 1.403-.35 2.631.395a3.38 3.38 0 0 1 1.58 2.149q.35 1.404-.396 2.631-.745 1.228-2.149 1.579-3.596.877-5.833 3.728t-2.237 6.534q0 4.386 3.07 7.455t7.457 3.07q3.596 0 6.403-2.193 2.807-2.191 3.772-5.613.438-1.404 1.667-2.149 1.228-.745 2.631-.307 1.404.439 2.149 1.667t.307 2.631q-1.578 5.789-6.272 9.385-4.692 3.596-10.657 3.596m28.07-54.38q-2.895 0-4.956-2.061t-2.062-4.956q0-2.894 2.062-4.955t4.956-2.062q2.895 0 4.956 2.062t2.061 4.955q0 2.895-2.061 4.956t-4.956 2.061m-17.544 33.33q-3.86 0-5.965-3.289t-.526-6.886l6.491-14.384H97.71l-.965 2.456q-.439 1.227-1.666 1.886-1.228.657-2.544.219-1.491-.44-2.193-1.798-.702-1.36-.088-2.851l1.053-2.719q.79-2.018 2.587-3.114a7.37 7.37 0 0 1 3.904-1.096h18.246q3.947 0 6.009 3.202 2.061 3.201.482 6.797l-5.79 12.806h10q2.895 0 4.957 2.061t2.061 4.955v15.788q0 1.492-1.009 2.5t-2.5 1.009q-1.49 0-2.5-1.009-1.008-1.008-1.009-2.5V454.45z"/><path fill="#0e324f" d="M1263 328.52c0-29.006 23.51-52.52 52.52-52.52s52.52 23.514 52.52 52.52c0 29.005-23.51 52.519-52.52 52.519S1263 357.525 1263 328.52"/><path fill="#fff" d="M1339 320.718c0 3.022-.49 5.889-1.48 8.6-1 2.71-2.39 5.193-4.18 7.448-.53.671-.8 1.403-.8 2.195q0 1.187.87 2.051c.63.575 1.36.827 2.18.755.83-.072 1.5-.443 2.04-1.115a32.9 32.9 0 0 0 5.26-9.211q1.92-5.11 1.92-10.723 0-5.757-1.92-10.867a32.9 32.9 0 0 0-5.26-9.211c-.54-.672-1.21-1.043-2.04-1.115-.82-.072-1.55.18-2.18.755q-.87.864-.87 2.051c0 .792.27 1.523.8 2.195a26.7 26.7 0 0 1 4.18 7.484c.99 2.735 1.48 5.638 1.48 8.708m-26.13 7.196c2.03 0 3.75-.707 5.15-2.123 1.41-1.415 2.11-3.106 2.11-5.073 0-2.015-.7-3.718-2.11-5.109-1.4-1.392-3.12-2.087-5.15-2.087-2.04 0-3.75.695-5.16 2.087q-2.1 2.087-2.1 5.109 0 2.95 2.1 5.073c1.41 1.416 3.12 2.123 5.16 2.123m-14.52 18.711q0-1.224-.84-2.051t-2.07-.828q-1.23 0-2.07.828c-.55.552-.83 1.235-.83 2.051 0 3.166 1.13 5.877 3.41 8.132 2.27 2.255 5.01 3.382 8.2 3.382 3.01 0 5.46-.744 7.37-2.231 1.92-1.487 3.38-3.67 4.4-6.549.82-2.398 1.61-4.077 2.36-5.037q1.125-1.44 5.19-4.606 4.5-3.597 7.11-8.132c1.75-3.022 2.62-6.644 2.62-10.866q0-8.564-5.85-14.357c-3.89-3.862-8.72-5.793-14.48-5.793q-8.64 0-14.49 5.793c-3.89 3.862-5.84 8.648-5.84 14.357 0 .816.28 1.499.83 2.051q.84.828 2.07.828t2.07-.828.84-2.051q0-6.117 4.17-10.255 4.17-4.137 10.35-4.138c4.11 0 7.56 1.38 10.34 4.138 2.79 2.759 4.18 6.177 4.18 10.255 0 3.262-.66 6.045-1.96 8.348-1.31 2.303-3.17 4.366-5.59 6.189q-3.78 2.735-5.88 5.325c-1.41 1.727-2.45 3.598-3.13 5.613q-1.005 3.166-2.43 4.678c-.94 1.007-2.36 1.511-4.25 1.511-1.59 0-2.96-.564-4.1-1.691s-1.7-2.483-1.7-4.066"/><path fill="#154973" d="M732 501.52c0-29.006 23.514-52.52 52.52-52.52 29.005 0 52.519 23.514 52.519 52.52 0 29.005-23.514 52.519-52.519 52.519-29.006 0-52.52-23.514-52.52-52.519"/><path fill="#fff" d="M784.126 536.5q-6.411 0-12.041-2.9t-9.226-8.083l-13.84-20.109q-.547-.774-.43-1.663a2.53 2.53 0 0 1 .743-1.508q1.564-1.625 3.87-1.856t4.183 1.083l8.601 5.878v-29.623q0-1.314.9-2.204.899-.89 2.228-.89t2.228.89q.9.89.9 2.204v35.578q0 1.857-1.682 2.746-1.68.89-3.244-.194l-6.647-4.563 7.428 10.674q2.738 3.944 6.959 6.148 4.223 2.205 9.07 2.205 8.055 0 13.723-5.608t5.669-13.573v-30.319q0-1.315.899-2.204t2.228-.89 2.229.89q.899.889.899 2.204v30.319q0 10.596-7.467 17.982t-18.18 7.386m-2.502-68.062q1.33 0 2.229.889.899.89.899 2.205v27.843q0 1.316-.899 2.205-.9.89-2.229.889-1.33 0-2.228-.889-.899-.89-.899-2.205v-27.843q0-1.316.899-2.205.899-.89 2.228-.889m12.511 3.094q1.33 0 2.228.889.9.89.899 2.204v24.75q0 1.316-.899 2.205-.899.89-2.228.889-1.329 0-2.229-.889-.899-.89-.899-2.205v-24.75q0-1.314.899-2.204.9-.89 2.229-.889M526.241 277.883h361.518a7.47 7.47 0 0 1 7.47 7.47v83.294a7.47 7.47 0 0 1-7.47 7.47H526.241a7.47 7.47 0 0 1-7.469-7.47v-83.294a7.47 7.47 0 0 1 7.469-7.47"/><path stroke="#909395" stroke-width="1.061" d="M526.241 277.883h361.518a7.47 7.47 0 0 1 7.47 7.47v83.294a7.47 7.47 0 0 1-7.47 7.47H526.241a7.47 7.47 0 0 1-7.469-7.47v-83.294a7.47 7.47 0 0 1 7.469-7.47Z"/><path fill="#1b1b1b" d="m602.686 337.599-11.545-16.405v16.405h-5.155v-24.424h5.3l11.218 15.819v-15.819h5.155v24.424zM617.824 337.599v-9.997l-9.33-14.427h5.881l6.027 9.814 5.954-9.814h5.881l-9.258 14.427v9.997zM633.253 330.202a10.57 10.57 0 0 0 7.697 3.296c2.832 0 4.211-1.355 4.211-2.747 0-1.83-2.105-2.453-4.901-3.112-3.957-.915-9.039-2.014-9.039-7.47 0-4.064 3.485-7.36 9.184-7.36 3.849 0 7.043 1.172 9.439 3.405l-2.868 3.809c-1.96-1.831-4.574-2.673-6.934-2.673-2.323 0-3.557 1.025-3.557 2.49 0 1.647 2.032 2.16 4.828 2.819 3.993.915 9.076 2.124 9.076 7.543 0 4.467-3.159 7.836-9.693 7.836-4.647 0-7.987-1.574-10.274-3.881zM659.16 337.599v-23.985h8.128c7.38 0 12.192 5.214 12.192 12.011 0 6.832-4.812 11.974-12.192 11.974zm2.959-2.661h5.169c5.775 0 9.127-4.171 9.127-9.313 0-5.179-3.245-9.35-9.127-9.35h-5.169zM689.605 319.799c5.205 0 8.272 4.099 8.272 9.313v.684h-13.94c.214 3.272 2.496 6.005 6.203 6.005 1.961 0 3.958-.791 5.313-2.193l1.283 1.761c-1.711 1.726-4.029 2.662-6.845 2.662-5.098 0-8.771-3.704-8.771-9.134 0-5.035 3.566-9.098 8.485-9.098m-5.668 8.019h11.301c-.035-2.589-1.746-5.79-5.668-5.79-3.672 0-5.49 3.129-5.633 5.79M700.301 333.356c1.14 1.33 3.315 2.481 5.668 2.481 2.638 0 4.064-1.187 4.064-2.877 0-1.906-2.103-2.517-4.421-3.092-2.923-.684-6.239-1.475-6.239-5.071 0-2.697 2.318-4.998 6.418-4.998 2.923 0 4.991 1.115 6.381 2.517l-1.248 1.87c-1.033-1.259-2.923-2.194-5.133-2.194-2.353 0-3.815 1.079-3.815 2.626 0 1.689 1.961 2.229 4.207 2.768 2.995.684 6.453 1.546 6.453 5.394 0 2.913-2.318 5.251-6.774 5.251-2.816 0-5.205-.864-6.952-2.734zM714.989 315.484c0-1.007.82-1.798 1.782-1.798.999 0 1.819.791 1.819 1.798s-.82 1.834-1.819 1.834c-.962 0-1.782-.827-1.782-1.834m.463 22.115V320.23h2.674v17.369zM723.046 340.044c1.425 1.726 3.137 2.373 5.597 2.373 2.852 0 5.526-1.402 5.526-5.214v-2.481c-1.248 1.762-3.351 3.093-5.776 3.093-4.492 0-7.665-3.381-7.665-8.99 0-5.574 3.138-9.026 7.665-9.026 2.318 0 4.385 1.151 5.776 3.056v-2.625h2.674v16.865c0 5.754-3.993 7.552-8.2 7.552-2.924 0-4.92-.575-6.952-2.589zm11.123-15.031c-.927-1.51-2.995-2.805-5.134-2.805-3.458 0-5.526 2.769-5.526 6.617 0 3.811 2.068 6.616 5.526 6.616 2.139 0 4.207-1.33 5.134-2.84zM751.709 337.599v-11.363c0-3.057-1.533-4.028-3.851-4.028-2.103 0-4.1 1.295-5.098 2.697v12.694h-2.674V320.23h2.674v2.518c1.213-1.439 3.566-2.949 6.132-2.949 3.601 0 5.491 1.834 5.491 5.609v12.191zM763.651 331.953c1.569 1.762 4.136 3.416 7.487 3.416 4.243 0 5.597-2.301 5.597-4.135 0-2.877-2.887-3.668-6.025-4.531-3.814-1.007-8.057-2.085-8.057-6.796 0-3.956 3.494-6.653 8.164-6.653 3.637 0 6.453 1.223 8.45 3.345l-1.783 2.193c-1.782-1.978-4.278-2.877-6.88-2.877-2.853 0-4.885 1.547-4.885 3.812 0 2.409 2.745 3.128 5.776 3.955 3.886 1.044 8.307 2.266 8.307 7.3 0 3.488-2.353 7.049-8.771 7.049-4.135 0-7.166-1.583-9.127-3.812z"/><path fill="#1b1b1b" d="M781.299 341.95c.392.18 1.034.288 1.462.288 1.176 0 1.96-.396 2.566-1.834l1.141-2.625-7.201-17.549h2.887l5.74 14.24 5.705-14.24h2.923l-8.628 20.893c-1.033 2.517-2.78 3.488-5.062 3.524-.571 0-1.462-.108-1.961-.252zM797.734 333.356c1.14 1.33 3.315 2.481 5.668 2.481 2.639 0 4.065-1.187 4.065-2.877 0-1.906-2.104-2.517-4.421-3.092-2.924-.684-6.239-1.475-6.239-5.071 0-2.697 2.317-4.998 6.417-4.998 2.923 0 4.991 1.115 6.382 2.517l-1.248 1.87c-1.034-1.259-2.924-2.194-5.134-2.194-2.353 0-3.815 1.079-3.815 2.626 0 1.689 1.961 2.229 4.207 2.768 2.995.684 6.453 1.546 6.453 5.394 0 2.913-2.317 5.251-6.774 5.251-2.816 0-5.205-.864-6.951-2.734zM813.955 333.967v-11.363h-2.852v-2.374h2.852v-4.746h2.674v4.746h3.493v2.374h-3.493v10.788c0 1.294.57 2.229 1.746 2.229.749 0 1.462-.323 1.819-.719l.784 2.014c-.677.647-1.64 1.115-3.209 1.115-2.531 0-3.814-1.475-3.814-4.064M829.748 319.799c5.205 0 8.271 4.099 8.271 9.313v.684h-13.94c.214 3.272 2.496 6.005 6.204 6.005 1.961 0 3.957-.791 5.312-2.193l1.283 1.761c-1.711 1.726-4.029 2.662-6.845 2.662-5.098 0-8.77-3.704-8.77-9.134 0-5.035 3.565-9.098 8.485-9.098m-5.669 8.019h11.302c-.036-2.589-1.747-5.79-5.669-5.79-3.672 0-5.49 3.129-5.633 5.79M861.085 337.599v-11.795c0-2.193-.962-3.596-3.173-3.596-1.782 0-3.672 1.295-4.563 2.661v12.73h-2.674v-11.795c0-2.193-.927-3.596-3.173-3.596-1.747 0-3.601 1.295-4.528 2.697v12.694H840.3V320.23h2.674v2.518c.713-1.115 3.031-2.949 5.562-2.949 2.638 0 4.135 1.438 4.634 3.236.963-1.582 3.28-3.236 5.776-3.236 3.137 0 4.813 1.762 4.813 5.25v12.55z"/><path fill="#245fc2" d="m561.773 325.724-5.013-5.058v-4.413h17.494l6.718 6.822c-.901-7.727-7.412-13.722-15.312-13.722-8.515 0-15.419 6.966-15.419 15.558 0 3.504 1.148 6.736 3.085 9.337"/><path fill="#0e324f" d="M556.76 320.654h10.026l-5.013 5.058zm17.494-4.413v17.652h-4.373v-10.12l-13.461 13.582a15.26 15.26 0 0 0 9.24 3.103c8.516 0 15.419-6.966 15.419-15.558 0-.623-.04-1.236-.111-1.84z"/><path fill="#457aa5" d="M993 94.398C993 66.563 1015.56 44 1043.4 44c27.83 0 50.4 22.564 50.4 50.397 0 27.834-22.57 50.398-50.4 50.398-27.84 0-50.4-22.564-50.4-50.397"/><path fill="#fff" d="m1039.67 99.757.32 2.593q.075.649.51 1.054c.3.27.65.405 1.08.405h3.5q.645 0 1.08-.405c.29-.27.46-.622.52-1.054l.32-2.593a6.6 6.6 0 0 0 1.15-.568c.35-.216.65-.459.92-.729l2.39 1.054q.555.243 1.11.08c.37-.107.66-.35.88-.729l1.75-3.08c.21-.378.28-.756.2-1.134a1.7 1.7 0 0 0-.6-.973l-2.07-1.54c.11-.432.16-.864.16-1.296s-.05-.865-.16-1.297l2.07-1.54q.48-.405.6-.972c.08-.379.01-.757-.2-1.135l-1.75-3.08c-.22-.378-.51-.621-.88-.73a1.58 1.58 0 0 0-1.11.082l-2.39 1.053c-.27-.27-.57-.513-.92-.729a6.6 6.6 0 0 0-1.15-.567l-.32-2.594c-.06-.432-.23-.783-.52-1.053q-.435-.405-1.08-.406h-3.5c-.43 0-.78.136-1.08.406q-.435.405-.51 1.053l-.32 2.594c-.43.162-.81.351-1.16.567-.34.216-.65.46-.91.73l-2.39-1.054a1.6 1.6 0 0 0-1.12-.081q-.555.162-.87.73l-1.76 3.079c-.21.378-.27.756-.19 1.135.07.378.27.702.59.972l2.07 1.54c-.1.432-.16.864-.16 1.297s.06.864.16 1.296l-2.07 1.54c-.32.27-.52.595-.59.973-.08.378-.02.756.19 1.135l1.76 3.08q.315.565.87.729c.37.108.75.08 1.12-.081l2.39-1.054c.26.27.57.513.91.73.35.216.73.405 1.16.567m3.66-4.053c-1.33 0-2.45-.472-3.38-1.418-.93-.945-1.4-2.094-1.4-3.444s.47-2.5 1.4-3.445 2.05-1.418 3.38-1.418q1.995 0 3.39 1.418c.93.946 1.39 2.094 1.39 3.445s-.46 2.499-1.39 3.444q-1.395 1.418-3.39 1.418m-19.11 16.858a29.8 29.8 0 0 1-7.05-9.847 28.9 28.9 0 0 1-2.51-11.873c0-8.105 2.79-14.994 8.36-20.667q8.37-8.51 20.31-8.51 9.96 0 17.64 5.957c5.13 3.972 8.46 9.145 10 15.52l4.14 16.615c.27 1.026.08 1.958-.56 2.796q-.945 1.256-2.55 1.256h-6.37v9.725c0 1.783-.62 3.31-1.87 4.579q-1.875 1.905-4.5 1.905h-6.37v3.242c0 .918-.31 1.688-.92 2.31-.61.621-1.36.932-2.27.932-.9 0-1.66-.311-2.27-.932-.61-.622-.91-1.392-.91-2.31v-6.484c0-.918.3-1.688.91-2.31.61-.621 1.37-.932 2.27-.932h9.56v-12.967c0-.918.31-1.688.92-2.31.61-.621 1.36-.932 2.27-.932h5.41l-3.02-12.562c-1.23-4.916-3.83-8.915-7.81-11.994s-8.55-4.62-13.7-4.62c-6.16 0-11.41 2.188-15.77 6.565-4.35 4.376-6.53 9.698-6.53 15.966q0 4.862 1.95 9.239c1.3 2.917 3.15 5.511 5.54 7.78l2.07 1.945v13.616c0 .918-.31 1.688-.92 2.31-.61.621-1.36.932-2.27.932-.9 0-1.66-.311-2.27-.932-.61-.622-.91-1.392-.91-2.31z"/></svg>