<svg xmlns="http://www.w3.org/2000/svg" fill="none" viewBox="0 0 99 100"><ellipse cx="49.5" cy="50" fill="#fff" rx="49.5" ry="50"/><path fill="#154973" d="M49.546 60.55q4.641 0 7.89-3.123t3.249-7.584-3.25-7.583-7.889-3.123-7.89 3.123-3.248 7.583 3.249 7.584 7.89 3.123m0-4.283q-2.784 0-4.733-1.873-1.95-1.874-1.95-4.55 0-2.678 1.95-4.55 1.949-1.874 4.733-1.874 2.785 0 4.734 1.873 1.95 1.875 1.95 4.55 0 2.677-1.95 4.55-1.95 1.874-4.734 1.874m0 11.42q-8.291 0-15.13-4.282-6.837-4.282-10.797-11.301a4.6 4.6 0 0 1-.464-1.1 4.4 4.4 0 0 1-.155-1.16q0-.596.155-1.16.155-.566.464-1.1 3.96-7.02 10.798-11.302Q41.254 32 49.547 32q8.29 0 15.129 4.282 6.837 4.282 10.798 11.301.309.536.464 1.1.154.566.154 1.16 0 .596-.154 1.16a4.7 4.7 0 0 1-.464 1.1q-3.96 7.02-10.798 11.301-6.838 4.283-15.13 4.283m0-4.758q6.993 0 12.84-3.54 5.849-3.538 8.942-9.546-3.094-6.007-8.942-9.546-5.847-3.54-12.84-3.539t-12.84 3.54q-5.848 3.537-8.941 9.545 3.094 6.007 8.941 9.547 5.849 3.539 12.84 3.539"/></svg>