<svg xmlns="http://www.w3.org/2000/svg" fill="none" viewBox="0 0 99 100"><ellipse cx="49.5" cy="50" fill="#fff" rx="49.5" ry="50"/><mask id="a" width="60" height="46" x="20" y="27" maskUnits="userSpaceOnUse" style="mask-type:alpha"><path fill="#d9d9d9" d="M20 27h60v46H20z"/></mask><g mask="url(#a)"><path fill="#154973" d="m30.216 64.423 10.502-10.502q.887-.887 2.07-.85 1.184.037 2.072.924.813.888.813 2.071t-.814 2.07L32.362 70.71q-.888.887-2.071.887-1.185 0-2.071-.887l-6.36-6.36q-.814-.814-.814-2.071t.813-2.071 2.071-.814 2.071.814zm0-23.666 10.502-10.502q.887-.889 2.07-.85 1.184.036 2.072.923.813.888.813 2.071 0 1.185-.814 2.071L32.362 47.043q-.888.888-2.071.888-1.185 0-2.071-.888l-6.36-6.36q-.814-.814-.814-2.071t.813-2.071q.814-.813 2.071-.813T26 36.54zm25.072 26.107q-1.258 0-2.108-.85-.85-.852-.85-2.108 0-1.258.85-2.108t2.108-.85h20.708q1.257 0 2.108.85.85.85.85 2.108 0 1.257-.85 2.107t-2.108.851zm0-23.667q-1.258 0-2.108-.85t-.85-2.108q0-1.256.85-2.108.85-.85 2.108-.85h20.708q1.257 0 2.108.85.85.85.85 2.108 0 1.256-.85 2.108-.85.85-2.108.85z"/></g></svg>