<svg xmlns="http://www.w3.org/2000/svg" fill="none" viewBox="0 0 99 100"><ellipse cx="49.5" cy="50" fill="#fff" rx="49.5" ry="50"/><mask id="a" width="41" height="56" x="29" y="22" maskUnits="userSpaceOnUse" style="mask-type:alpha"><path fill="#d9d9d9" d="M29 22h41v56H29z"/></mask><g mask="url(#a)"><path fill="#154973" d="M49.581 76q-1.204 0-2.019-.815-.814-.815-.814-2.018v-3.259q-3.187-.708-5.596-2.479-2.408-1.77-3.896-4.958-.495-.992-.035-2.09t1.664-1.593q.992-.426 2.055.035 1.061.46 1.629 1.523 1.204 2.124 3.045 3.223 1.843 1.098 4.534 1.098 2.904 0 4.923-1.31t2.019-4.074q0-2.479-1.559-3.93-1.558-1.453-7.225-3.295-6.092-1.913-8.358-4.568-2.267-2.657-2.267-6.482 0-4.604 2.975-7.154t6.092-2.904v-3.117q0-1.203.814-2.018.814-.816 2.02-.815 1.203 0 2.018.815t.814 2.018v3.117q2.692.425 4.676 1.735a11.5 11.5 0 0 1 3.258 3.223q.637.921.248 2.054-.39 1.134-1.594 1.63-.992.425-2.054.035-1.063-.39-1.983-1.381a6.3 6.3 0 0 0-2.161-1.523q-1.239-.531-3.081-.531-3.117 0-4.746 1.38-1.63 1.383-1.63 3.436.001 2.338 2.126 3.684 2.124 1.345 7.367 2.833 4.887 1.417 7.401 4.498t2.515 7.119q0 5.028-2.975 7.65-2.975 2.62-7.367 3.258v3.117q0 1.203-.814 2.018T49.58 76"/></g></svg>