<svg width="6000" height="1933" viewBox="0 0 6000 1933" fill="none" xmlns="http://www.w3.org/2000/svg">
<path d="M6000 0.209961H0V1932.21H6000V0.209961Z" fill="#B3E8FF"/>
<path d="M6000 1927.21V637.727C5437.49 637.727 5218.49 417.21 4732.49 417.21C4040.99 417.21 3916.99 898.998 2936.12 747.316C2356.5 657.679 2203.49 421.71 1750.49 421.71C979.49 421.71 931.49 675.23 0 675.23V1927.21H6000Z" fill="#6FD4FF"/>
<path d="M2812.52 739.545V208.431C2812.52 190.541 2819.69 173.901 2832.72 161.551C2845.73 149.221 2862.75 142.961 2880.67 143.921C2896.51 144.771 2911.46 151.471 2922.79 162.801C2934.11 174.131 2940.81 189.091 2941.66 204.921C2942.61 222.831 2936.34 239.851 2924.02 252.851C2911.68 265.871 2895.03 273.041 2877.14 273.041" stroke="#6FD4FF" stroke-width="30" stroke-miterlimit="10" stroke-linecap="round"/>
<path d="M2764.7 738.581V207.467" stroke="#6FD4FF" stroke-width="30" stroke-miterlimit="10" stroke-linecap="round"/>
<path d="M2716.87 738.581V161.578C2716.87 133.63 2705.67 107.635 2685.31 88.3418C2664.99 69.0797 2638.4 59.3003 2610.4 60.8C2585.66 62.1279 2562.3 72.5947 2544.6 90.2945C2526.92 107.994 2516.45 131.365 2515.13 156.095C2513.64 184.074 2523.44 210.663 2542.68 230.972C2561.96 251.311 2587.97 262.513 2615.92 262.513" stroke="#6FD4FF" stroke-width="30" stroke-miterlimit="10" stroke-linecap="round"/>
<path d="M3291.07 535.62C3508.42 535.62 3686.94 701.86 3706.46 914.15C3720.53 670.86 3869.54 535.62 4122.52 535.62C4122.52 795.07 3968.32 951.69 3708.23 952.83H3405.77C3342.94 952.83 3291.87 902.31 3291.08 839.6V838.12C3291.08 901.52 3240.29 952.84 3177.64 952.84H2570.18C2507.53 952.84 2456.75 901.45 2456.75 838.12V535.61H3291.08L3291.07 535.62Z" fill="#286AD8"/>
<path d="M2921.82 885.91H2785.1C2777.49 885.91 2772.42 881.24 2772.42 874.3C2772.42 867.36 2777.49 862.69 2785.1 862.69H2921.82C2929.43 862.69 2934.5 867.36 2934.5 874.3C2934.5 881.24 2929.43 885.91 2921.82 885.91Z" fill="#5187DF"/>
<path d="M3148.95 885.91H3012.23C3004.62 885.91 2999.55 881.24 2999.55 874.3C2999.55 867.36 3004.62 862.69 3012.23 862.69H3148.95C3156.56 862.69 3161.63 867.36 3161.63 874.3C3161.63 881.24 3156.56 885.91 3148.95 885.91Z" fill="#5187DF"/>
<path d="M2988.88 810.3H2562.51C2552.5 810.3 2545.83 803.29 2545.83 792.82C2545.83 782.35 2552.5 775.4 2562.51 775.4H2988.88C2998.89 775.4 3005.56 782.34 3005.56 792.82C3005.56 803.3 2998.89 810.3 2988.88 810.3Z" fill="#5187DF"/>
<path d="M2694.69 885.91H2557.97C2550.36 885.91 2545.29 881.24 2545.29 874.3C2545.29 867.36 2550.36 862.69 2557.97 862.69H2694.69C2702.3 862.69 2707.37 867.36 2707.37 874.3C2707.37 881.24 2702.3 885.91 2694.69 885.91Z" fill="#5187DF"/>
<path d="M2577.45 671.545C2595.66 671.545 2610.41 664.769 2610.41 656.41C2610.41 648.051 2595.65 641.275 2577.45 641.275C2559.25 641.275 2544.49 648.051 2544.49 656.41C2544.49 664.769 2559.25 671.545 2577.45 671.545Z" fill="#104970"/>
<path d="M2577.45 689.38C2595.66 689.38 2610.41 674.62 2610.41 656.41C2610.41 638.2 2595.65 623.44 2577.45 623.44C2559.25 623.44 2544.49 638.2 2544.49 656.41C2544.49 674.62 2559.25 689.38 2577.45 689.38Z" fill="#104970"/>
<path d="M0 1924.2H6000V889.688C5909.86 901.323 5803.76 908.609 5670.92 908.609C5010.75 908.609 5010.75 691.21 4350.58 691.21C3690.41 691.21 3690.41 946.092 3030.24 946.092C2597.75 946.092 2448.59 868.878 2211.53 815.613C2050.12 771.663 1885.16 728.693 1562.5 728.693C902.33 728.693 902.33 908.609 242.15 908.609C149.69 908.609 70.19 904.342 0 897.015V1924.21L0 1924.2Z" fill="#23B3FA"/>
<path d="M3599.69 1116.23C2999.62 1116.23 2999.62 936.21 2399.54 936.21C1799.46 936.21 1799.47 1116.23 1199.39 1116.23C599.31 1116.23 599.31 936.37 0 936.21V1924.21H6000V1116.23C5399.92 1116.23 5399.92 936.21 4799.85 936.21C4199.78 936.21 4199.77 1116.23 3599.7 1116.23H3599.69Z" fill="#229BF2"/>
<path d="M3360.89 1260.23C2701.12 1260.23 2701.12 1080.21 2041.34 1080.21C1381.56 1080.21 1381.57 1260.23 721.79 1260.23C350.77 1260.23 188.39 1203.31 0 1153.48V1924.21H6000V1207.74C5340.22 1207.74 5340.22 1080.22 4680.45 1080.22C4020.68 1080.22 4020.67 1260.24 3360.9 1260.24L3360.89 1260.23Z" fill="#1683E0"/>
</svg>

