<svg xmlns="http://www.w3.org/2000/svg" width="162" height="82" fill="none" viewBox="0 0 162 82"><path fill="#4a4d4f" d="M6.713 11.132a.85.85 0 0 1-.84-.84.85.85 0 0 1 .84-.84.85.85 0 0 1 .84.84.85.85 0 0 1-.84.84M14.178 11h-1.26V7.376c0-.9-.456-1.2-1.164-1.2-.648 0-1.2.384-1.488.78V11h-1.26V5.204h1.26v.792a2.74 2.74 0 0 1 2.04-.936c1.248 0 1.872.672 1.872 1.86zm1.385 2.268.192-1.128c.132.06.336.096.48.096.396 0 .66-.12.828-.504l.288-.66-2.376-5.868h1.344l1.692 4.344 1.692-4.344h1.356l-2.796 6.84c-.396.984-1.092 1.296-1.992 1.308-.18 0-.528-.036-.708-.084m8.267-2.124c-.984 0-1.884-.312-2.484-.9l.576-.912c.408.42 1.212.816 1.968.816s1.14-.324 1.14-.78c0-1.14-3.504-.324-3.504-2.544 0-.948.816-1.764 2.28-1.764.984 0 1.728.348 2.256.816l-.528.888c-.348-.396-.996-.696-1.716-.696-.66 0-1.08.3-1.08.708 0 1.032 3.504.264 3.504 2.568 0 1.02-.852 1.8-2.412 1.8m6.104-2.508h-2.88v-1.08h2.88zM32.668 11h-1.26V6.308h-.96V5.204h.96V4.88c0-1.26.732-2.004 1.836-2.004.516 0 1.032.132 1.392.504l-.492.78a.95.95 0 0 0-.672-.252c-.492 0-.804.324-.804.972v.324h1.176v1.104h-1.176zm3.391 0H34.8V2.996h1.26zm4.31.144c-1.74 0-3.035-1.212-3.035-3.048 0-1.68 1.224-3.036 2.94-3.036 1.74 0 2.856 1.332 2.856 3.156v.3h-4.476c.096.876.756 1.596 1.848 1.596.564 0 1.236-.228 1.644-.636l.576.828c-.576.552-1.428.84-2.352.84m1.537-3.516c-.024-.684-.492-1.536-1.632-1.536-1.08 0-1.572.828-1.632 1.536zM49.45 11h-1.416l-1.5-2.136L45.022 11h-1.404l2.124-2.976-2.004-2.82h1.416l1.38 1.968 1.368-1.968h1.416l-2.004 2.82zm3.3-2.364h-2.88v-1.08h2.88zm1.798-4.14a.786.786 0 0 1-.78-.78c0-.432.36-.78.78-.78.432 0 .78.348.78.78s-.348.78-.78.78m-1.284 8.856c-.672 0-.972-.132-1.368-.42l.372-.936c.216.192.444.324.804.324.492 0 .852-.3.852-.984V5.204h1.26v6.132c0 1.236-.648 2.016-1.92 2.016M61.991 11h-1.26v-.768c-.42.468-1.14.912-2.052.912-1.248 0-1.86-.648-1.86-1.836V5.204h1.26v3.648c0 .9.456 1.176 1.164 1.176.636 0 1.188-.36 1.488-.756V5.204h1.26zm3.617.144c-.984 0-1.885-.312-2.485-.9l.577-.912c.407.42 1.212.816 1.968.816.755 0 1.14-.324 1.14-.78 0-1.14-3.505-.324-3.505-2.544 0-.948.817-1.764 2.28-1.764.984 0 1.728.348 2.257.816l-.529.888c-.348-.396-.996-.696-1.716-.696-.66 0-1.08.3-1.08.708 0 1.032 3.504.264 3.504 2.568 0 1.02-.852 1.8-2.412 1.8m5.42 0c-.972 0-1.488-.528-1.488-1.488V6.308h-.96V5.204h.96V3.62h1.26v1.584h1.176v1.104H70.8v3.036c0 .396.192.684.552.684.24 0 .468-.096.564-.204l.3.948c-.228.216-.6.372-1.188.372m2.716-6.648a.786.786 0 0 1-.78-.78c0-.432.36-.78.78-.78.432 0 .78.348.78.78s-.348.78-.78.78M74.38 11h-1.26V5.204h1.26zm3.194 0h-1.26V6.308h-.96V5.204h.96V4.88c0-1.26.732-2.004 1.836-2.004.516 0 1.032.132 1.392.504l-.492.78a.95.95 0 0 0-.672-.252c-.492 0-.804.324-.804.972v.324h1.176v1.104h-1.176zm1.88 2.268.192-1.128c.132.06.336.096.48.096.396 0 .66-.12.828-.504l.288-.66-2.376-5.868h1.344l1.692 4.344 1.692-4.344h1.356l-2.796 6.84c-.396.984-1.092 1.296-1.992 1.308-.18 0-.528-.036-.708-.084m8.71-4.632h-2.88v-1.08h2.88zm3.154 2.508c-.983 0-1.883-.312-2.483-.9l.576-.912c.407.42 1.212.816 1.968.816.755 0 1.14-.324 1.14-.78 0-1.14-3.505-.324-3.505-2.544 0-.948.817-1.764 2.28-1.764.984 0 1.728.348 2.257.816l-.529.888c-.348-.396-.996-.696-1.716-.696-.66 0-1.08.3-1.08.708 0 1.032 3.505.264 3.505 2.568 0 1.02-.852 1.8-2.412 1.8m5.42 0c-.971 0-1.487-.528-1.487-1.488V6.308h-.96V5.204h.96V3.62h1.26v1.584h1.176v1.104H96.51v3.036c0 .396.192.684.552.684.24 0 .468-.096.564-.204l.3.948c-.228.216-.6.372-1.188.372m6.893-.144h-1.26v-.624c-.432.492-1.104.768-1.872.768-.948 0-2.016-.636-2.016-1.92 0-1.332 1.068-1.884 2.016-1.884.78 0 1.452.252 1.872.744V7.22c0-.672-.552-1.08-1.356-1.08-.648 0-1.212.24-1.716.732l-.516-.876c.672-.636 1.512-.936 2.436-.936 1.284 0 2.412.54 2.412 2.1zm-2.64-.72c.552 0 1.092-.204 1.38-.6v-.876c-.288-.396-.828-.6-1.38-.6-.708 0-1.236.408-1.236 1.044 0 .624.528 1.032 1.236 1.032m5.533.72h-1.26V5.204h1.26v.852c.432-.552 1.128-.984 1.884-.984V6.32a2 2 0 0 0-.396-.036c-.528 0-1.236.36-1.488.768zm4.64.144c-.972 0-1.488-.528-1.488-1.488V6.308h-.96V5.204h.96V3.62h1.26v1.584h1.176v1.104h-1.176v3.036c0 .396.192.684.552.684.24 0 .468-.096.564-.204l.3.948c-.228.216-.6.372-1.188.372"/><path fill="#7aa5e7" d="M0 17.403h38.55v38.55H0zm41.676 0H93.77v52.094H41.676zm55.219 0h64.597V82H96.895z"/></svg>