<svg xmlns="http://www.w3.org/2000/svg" width="160" height="107" fill="none" viewBox="0 0 160 107"><path fill="#1b1b1b" d="M132.644 93h-7.976v-5.849c-4.253 4.68-10.102 7.125-17.014 7.125-8.72 0-17.972-5.849-17.972-17.015 0-11.485 9.251-16.908 17.972-16.908 7.018 0 12.867 2.233 17.014 7.018V58.12c0-6.912-5.53-10.847-12.973-10.847-6.168 0-11.166 2.233-15.74 7.125l-3.721-5.53c5.53-5.743 12.123-8.507 20.524-8.507 10.847 0 19.886 4.891 19.886 17.333zm-22.119-4.466c5.636 0 11.059-2.127 14.143-6.38v-9.678c-3.084-4.254-8.507-6.38-14.143-6.38-7.444 0-12.655 4.679-12.655 11.272 0 6.487 5.211 11.166 12.655 11.166M83.598 93H73.496l-6.274-15.739H31.916L25.642 93H15.539l28.5-70.93h10.953zM64.563 69.392 49.569 31.215 34.468 69.392z"/><path fill="#457aa5" d="M4.773 101.372H0v5.207h4.773zM82.087 101.372h-4.773v5.207h4.773zM159.403 101.372h-4.773v5.207h4.773z"/><path fill="#457aa5" d="M157.756 104.786H1.645V2.548h156.111zm-154.627-1.62h153.142V4.167H3.129z"/><path fill="#457aa5" d="M4.773.753H0V5.96h4.773zM82.087.753h-4.773V5.96h4.773zM159.403.753h-4.773V5.96h4.773zM4.773 51.064H0v5.206h4.773zM159.403 51.064h-4.773v5.206h4.773z"/></svg>