<svg xmlns="http://www.w3.org/2000/svg" width="218" height="188" fill="none" viewBox="0 0 218 188"><path fill="#f6f6f6" d="M0 0h218v188H0z"/><path fill="#5187df" d="M77.295 88.036q-4.922 0-9.243-2.173t-7.083-6.056L50.347 64.739q-.42-.579-.33-1.246.09-.665.57-1.13 1.2-1.216 2.971-1.39 1.77-.174 3.211.81l6.602 4.405V44.824q0-.984.69-1.651t1.711-.667q1.02 0 1.71.667.69.666.69 1.651V70.65q0 1.391-1.29 2.058t-2.49-.145l-5.102-3.42 5.702 7.998a14.6 14.6 0 0 0 5.342 4.607q3.24 1.652 6.962 1.652 6.181 0 10.534-4.202 4.35-4.2 4.35-10.17V47.142q0-.984.691-1.651.69-.667 1.71-.667t1.711.667q.69.667.69 1.651v21.886q0 7.94-5.731 13.474-5.733 5.535-13.955 5.534m-1.92-50.166q1.02 0 1.71.667.69.666.69 1.651V60.22q0 .985-.69 1.652t-1.71.666-1.711-.666-.69-1.652V40.19q0-.986.69-1.652.69-.667 1.71-.667m9.603 2.318q1.02 0 1.71.667.69.666.69 1.651V60.22q0 .985-.69 1.652t-1.71.666-1.711-.666-.69-1.652V42.506q0-.985.69-1.651.69-.667 1.71-.667M77.893 138.228q4.854 0 8.252-3.266 3.397-3.266 3.397-7.931t-3.397-7.931-8.252-3.266-8.251 3.266-3.398 7.931 3.398 7.931 8.251 3.266m0-4.479q-2.912 0-4.95-1.959-2.04-1.96-2.039-4.759t2.039-4.759q2.038-1.959 4.95-1.959t4.951 1.959q2.04 1.96 2.039 4.759t-2.039 4.759q-2.04 1.959-4.95 1.959m0 11.943q-8.671 0-15.823-4.478-7.151-4.48-11.293-11.819a4.9 4.9 0 0 1-.485-1.151 4.6 4.6 0 0 1-.162-1.213q0-.622.162-1.213a4.9 4.9 0 0 1 .485-1.151q4.142-7.34 11.293-11.819 7.152-4.479 15.823-4.479 8.673 0 15.824 4.479 7.15 4.478 11.293 11.819.323.56.485 1.151.162.59.162 1.213 0 .622-.162 1.213-.162.59-.485 1.151-4.143 7.34-11.293 11.819-7.151 4.478-15.824 4.478m0-4.976q7.314 0 13.43-3.701t9.351-9.984q-3.237-6.283-9.352-9.984-6.115-3.702-13.429-3.701-7.312 0-13.428 3.701t-9.352 9.984q3.236 6.282 9.352 9.984 6.115 3.7 13.428 3.701M164.123 120.529q0 3.84-1.25 7.284a22.6 22.6 0 0 1-3.505 6.31q-.67.853-.67 1.859 0 1.005.731 1.737.792.732 1.829.64t1.707-.945q2.804-3.474 4.419-7.802 1.616-4.328 1.616-9.083 0-4.877-1.616-9.205t-4.419-7.803q-.67-.853-1.707-.944-1.037-.092-1.829.64-.731.73-.731 1.737 0 1.005.67 1.859a22.5 22.5 0 0 1 3.505 6.34q1.25 3.474 1.25 7.376m-21.945 6.096q2.56 0 4.328-1.799 1.768-1.797 1.768-4.297 0-2.56-1.768-4.328t-4.328-1.768-4.328 1.768-1.768 4.328q0 2.5 1.768 4.297 1.767 1.799 4.328 1.799m-12.192 15.849q0-1.036-.701-1.737-.7-.701-1.737-.701-1.036 0-1.738.701-.7.7-.701 1.737 0 4.023 2.865 6.888t6.889 2.865q3.779 0 6.187-1.889t3.688-5.548q1.036-3.048 1.981-4.267t4.359-3.901q3.779-3.048 5.974-6.888 2.194-3.841 2.194-9.205 0-7.254-4.907-12.161-4.907-4.908-12.161-4.908t-12.161 4.908q-4.908 4.907-4.908 12.161 0 1.036.701 1.737.702.701 1.738.701t1.737-.701q.7-.7.701-1.737 0-5.181 3.505-8.687 3.505-3.504 8.687-3.505t8.686 3.505 3.505 8.687q0 4.144-1.645 7.071-1.647 2.926-4.694 5.242-3.17 2.317-4.938 4.511a15.2 15.2 0 0 0-2.621 4.755q-.854 2.682-2.042 3.962-1.189 1.281-3.566 1.281-2.012 0-3.444-1.433-1.433-1.433-1.433-3.444M138.409 66.32l.243 1.996q.06.499.395.81.335.313.821.313h2.677q.486 0 .821-.312t.396-.811l.243-1.997a5 5 0 0 0 .882-.436q.396-.25.7-.562l1.824.811q.426.187.852.063t.669-.562l1.339-2.37q.243-.436.152-.874a1.32 1.32 0 0 0-.457-.748l-1.581-1.185a4.2 4.2 0 0 0 0-1.997l1.581-1.185q.366-.312.457-.748.09-.438-.152-.874l-1.339-2.37q-.243-.437-.669-.562a1.2 1.2 0 0 0-.852.063l-1.824.81a3.8 3.8 0 0 0-.7-.56 5 5 0 0 0-.882-.438l-.243-1.996a1.28 1.28 0 0 0-.396-.81 1.16 1.16 0 0 0-.821-.313h-2.677a1.16 1.16 0 0 0-.821.312 1.28 1.28 0 0 0-.395.811l-.243 1.996q-.487.187-.883.437a3.8 3.8 0 0 0-.699.562l-1.825-.811a1.2 1.2 0 0 0-.852-.063q-.426.124-.669.562l-1.338 2.37q-.243.436-.152.874.092.436.456.748l1.582 1.185a4.2 4.2 0 0 0-.122.998q0 .5.122.999l-1.582 1.185a1.33 1.33 0 0 0-.456.748q-.091.437.152.874l1.338 2.37q.243.437.669.562.426.124.852-.063l1.825-.81q.305.31.699.56.396.25.883.437m2.798-3.12q-1.521 0-2.586-1.091-1.064-1.092-1.064-2.652t1.064-2.65 2.586-1.093q1.52 0 2.585 1.092t1.065 2.651-1.065 2.652q-1.065 1.09-2.585 1.091m-14.6 12.976a23 23 0 0 1-5.383-7.58 22.35 22.35 0 0 1-1.916-9.139q0-9.357 6.387-15.907T141.207 37q7.603 0 13.474 4.585 5.87 4.586 7.634 11.946l3.163 12.788q.305 1.185-.426 2.153-.73.966-1.946.967h-4.867v7.485q0 2.059-1.429 3.525t-3.437 1.466h-4.867v2.495q0 1.06-.699 1.778-.699.717-1.734.717-1.034 0-1.733-.717-.7-.716-.7-1.778v-4.99q0-1.06.7-1.778t1.733-.718h7.3v-9.98q0-1.061.699-1.779.7-.717 1.734-.717h4.137l-2.312-9.67q-1.4-5.676-5.961-9.232-4.563-3.555-10.463-3.556-7.057 0-12.045 5.054-4.988 5.053-4.988 12.289 0 3.742 1.49 7.111t4.228 5.989l1.582 1.497v10.48q0 1.06-.7 1.778-.7.717-1.733.717-1.035 0-1.734-.717-.7-.716-.7-1.778z"/></svg>