<svg width="350" height="41" viewBox="0 0 350 41" fill="none" xmlns="http://www.w3.org/2000/svg">
<path d="M250 14.0767H251.431L256.971 20.905V14.0767H258.336V23.007H256.997L251.366 16.0449V23.007H250V14.0767Z" fill="#415D6E"/>
<path d="M259.85 19.7671C259.85 17.7988 261.332 16.3797 263.296 16.3797C265.325 16.3797 266.651 17.8389 266.651 19.9009V20.2221H261.176C261.306 21.2934 262.074 22.0831 263.517 22.0831C264.336 22.0831 265.065 21.8155 265.624 21.3468L266.17 22.2169C265.455 22.833 264.558 23.1677 263.387 23.1677C261.411 23.1677 259.85 21.9092 259.85 19.7671ZM265.429 19.2449C265.338 18.3881 264.701 17.4641 263.283 17.4641C262.035 17.4641 261.306 18.2808 261.176 19.2449H265.429Z" fill="#415D6E"/>
<path d="M272.112 18.0666L270.408 23.0071H269.12L266.896 16.5403H268.236L269.836 21.36L271.565 16.5403H272.684L274.401 21.36L276 16.5403H277.34L275.116 23.0071H273.828L272.112 18.0666Z" fill="#415D6E"/>
<path d="M283.19 19.285L279.354 14.0767H281.044L283.892 18.0132L286.688 14.0767H288.392L284.556 19.3118V23.007H283.19V19.285Z" fill="#415D6E"/>
<path d="M286.934 19.7671C286.934 17.8256 288.312 16.3797 290.432 16.3797C292.565 16.3797 293.93 17.8256 293.93 19.7671C293.93 21.7218 292.565 23.1677 290.432 23.1677C288.312 23.1677 286.934 21.7218 286.934 19.7671ZM290.432 22.043C291.811 22.043 292.643 21.0255 292.643 19.7671C292.643 18.5084 291.811 17.5042 290.432 17.5042C289.054 17.5042 288.221 18.5084 288.221 19.7671C288.221 21.0255 289.054 22.043 290.432 22.043Z" fill="#415D6E"/>
<path d="M295.332 16.5403H296.568V17.4909C297.179 16.875 298.037 16.3932 299 16.3932V17.6515C298.895 17.6382 298.765 17.6249 298.544 17.6249C297.764 17.6249 296.906 18.0398 296.568 18.5083V23.0071H295.332V16.5403Z" fill="#415D6E"/>
<path d="M300.033 14.0767H301.269V19.7134L304.689 16.5402H306.328L303.141 19.4724L306.367 23.007H304.728L302.244 20.2355L301.269 21.1192V23.007H300.033V14.0767Z" fill="#415D6E"/>
<path d="M309.474 21.6011L310.293 20.5435C311.008 21.2799 312.153 21.9092 313.596 21.9092C315.235 21.9092 315.924 21.2398 315.924 20.5435C315.924 19.5929 314.858 19.3652 313.375 19.1109C311.58 18.8165 309.759 18.4282 309.759 16.5135C309.759 14.9872 311.229 13.9296 313.388 13.9296C314.988 13.9296 316.249 14.4385 317.134 15.3354L316.301 16.3529C315.573 15.6301 314.532 15.1881 313.284 15.1881C311.983 15.1881 311.19 15.6702 311.19 16.4065C311.19 17.2366 312.153 17.4508 313.674 17.7186C315.482 18.0533 317.341 18.455 317.341 20.4095C317.341 21.8556 316.158 23.1677 313.531 23.1677C311.749 23.1677 310.267 22.4446 309.474 21.6011Z" fill="#415D6E"/>
<path d="M318.986 21.3871V17.665H317.725V16.5403H318.986V14.7732H320.222V16.5403H321.795V17.665H320.222V21.1461C320.222 21.7083 320.495 22.043 321.015 22.043C321.314 22.043 321.639 21.9358 321.782 21.8155L322.095 22.7927C321.821 22.9936 321.366 23.1677 320.716 23.1677C319.598 23.1677 318.986 22.5116 318.986 21.3871Z" fill="#415D6E"/>
<path d="M325.738 17.4909C324.893 17.4909 324.178 17.7722 323.566 18.361L322.968 17.4909C323.748 16.7412 324.685 16.3797 325.855 16.3797C327.312 16.3797 328.677 16.982 328.677 18.7228V23.0071H327.442V22.3108C326.896 22.8463 326.115 23.1677 325.14 23.1677C323.983 23.1677 322.63 22.4714 322.63 21.0255C322.63 19.5125 323.983 18.9102 325.14 18.9102C326.128 18.9102 326.922 19.2179 327.442 19.7535V18.7494C327.442 17.9596 326.778 17.4909 325.738 17.4909ZM325.569 22.2705C326.31 22.2705 327.026 22.0295 327.442 21.5745V20.5032C327.026 20.0482 326.31 19.8207 325.569 19.8207C324.542 19.8207 323.904 20.2892 323.904 21.0524C323.904 21.7885 324.542 22.2705 325.569 22.2705Z" fill="#415D6E"/>
<path d="M330.842 21.3871V17.665H329.58V16.5403H330.842V14.7732H332.077V16.5403H333.651V17.665H332.077V21.1461C332.077 21.7083 332.35 22.043 332.87 22.043C333.17 22.043 333.495 21.9358 333.638 21.8155L333.95 22.7927C333.677 22.9936 333.221 23.1677 332.571 23.1677C331.453 23.1677 330.842 22.5116 330.842 21.3871Z" fill="#415D6E"/>
<path d="M334.259 19.7671C334.259 17.7988 335.741 16.3797 337.705 16.3797C339.734 16.3797 341.061 17.8389 341.061 19.9009V20.2221H335.586C335.716 21.2934 336.483 22.0831 337.926 22.0831C338.746 22.0831 339.474 21.8155 340.033 21.3468L340.58 22.2169C339.864 22.833 338.967 23.1677 337.796 23.1677C335.82 23.1677 334.259 21.9092 334.259 19.7671ZM339.838 19.2449C339.747 18.3881 339.11 17.4641 337.692 17.4641C336.444 17.4641 335.716 18.2808 335.586 19.2449H339.838Z" fill="#415D6E"/>
<path d="M342.738 15.5764C342.699 15.5897 342.608 15.6165 342.543 15.6165C342.101 15.6165 341.802 15.2683 341.802 14.8132C341.802 14.3447 342.179 13.9429 342.634 13.9429C343.141 13.9429 343.557 14.358 343.557 15.0676C343.557 15.978 343.063 16.7946 342.387 17.3034L341.828 16.8216C342.244 16.5536 342.66 16.0181 342.738 15.5764Z" fill="#415D6E"/>
<path d="M343.609 22.1099L344.247 21.1594C344.767 21.6682 345.69 22.1099 346.666 22.1099C347.693 22.1099 348.161 21.7218 348.161 21.2263C348.161 20.5971 347.355 20.423 346.431 20.2624C345.157 20.0347 343.791 19.7671 343.791 18.3209C343.791 17.2902 344.741 16.3797 346.444 16.3797C347.654 16.3797 348.603 16.8081 349.188 17.3438L348.616 18.254C348.148 17.7855 347.355 17.4375 346.431 17.4375C345.534 17.4375 345.04 17.7722 345.04 18.2407C345.04 18.7629 345.781 18.9102 346.653 19.0708C347.901 19.285 349.409 19.5661 349.409 21.1461C349.409 22.2439 348.46 23.1677 346.614 23.1677C345.443 23.1677 344.312 22.7794 343.609 22.1099Z" fill="#415D6E"/>
<path d="M250 29.3751H253.654C256.581 29.3751 258.609 30.982 258.609 33.8472C258.609 36.712 256.581 38.3054 253.654 38.3054H250V29.3751ZM253.654 37.0467C255.93 37.0467 257.205 35.815 257.205 33.8472C257.205 31.8524 255.957 30.6207 253.654 30.6207H251.366V37.0467H253.654Z" fill="#415D6E"/>
<path d="M259.695 35.0654C259.695 33.0971 261.178 31.678 263.142 31.678C265.171 31.678 266.497 33.1372 266.497 35.1992V35.5204H261.022C261.152 36.5917 261.919 37.3815 263.363 37.3815C264.182 37.3815 264.911 37.1138 265.47 36.6453L266.016 37.5157C265.301 38.1315 264.404 38.4658 263.233 38.4658C261.256 38.4658 259.695 37.2075 259.695 35.0654ZM265.275 34.5432C265.184 33.6864 264.546 32.7624 263.129 32.7624C261.88 32.7624 261.152 33.5792 261.022 34.5432H265.275Z" fill="#415D6E"/>
<path d="M267.313 37.4084L267.951 36.4578C268.471 36.9665 269.394 37.4084 270.37 37.4084C271.397 37.4084 271.865 37.0201 271.865 36.5245C271.865 35.8952 271.059 35.7213 270.136 35.5609C268.861 35.333 267.496 35.0653 267.496 33.6192C267.496 32.5885 268.445 31.678 270.148 31.678C271.358 31.678 272.307 32.1064 272.893 32.642L272.32 33.5525C271.852 33.084 271.059 32.7358 270.136 32.7358C269.238 32.7358 268.744 33.0705 268.744 33.539C268.744 34.0612 269.485 34.2085 270.357 34.3693C271.605 34.5833 273.114 34.8644 273.114 36.4443C273.114 37.5422 272.164 38.4658 270.318 38.4658C269.147 38.4658 268.016 38.0779 267.313 37.4084Z" fill="#415D6E"/>
<path d="M275.119 29.1746C275.548 29.1746 275.912 29.5359 275.912 29.9913C275.912 30.4333 275.548 30.7946 275.119 30.7946C274.703 30.7946 274.339 30.4333 274.339 29.9913C274.339 29.5359 274.703 29.1746 275.119 29.1746ZM274.508 31.8389H275.744V38.3054H274.508V31.8389Z" fill="#415D6E"/>
<path d="M277.503 39.8853L278.127 38.9749C278.66 39.5371 279.467 39.8718 280.442 39.8718C281.509 39.8718 282.549 39.4033 282.549 37.9572V37.2211C282.042 37.8504 281.222 38.3455 280.208 38.3455C278.465 38.3455 277.139 37.1273 277.139 35.0118C277.139 32.9232 278.452 31.678 280.208 31.678C281.197 31.678 282.029 32.1601 282.549 32.7894V31.8388H283.785V37.9437C283.785 40.2737 282.055 40.9296 280.468 40.9296C279.246 40.9296 278.348 40.6616 277.503 39.8853ZM280.52 37.221C281.34 37.221 282.146 36.7926 282.549 36.284V33.74C282.146 33.2313 281.34 32.8025 280.52 32.8025C279.285 32.8025 278.426 33.6729 278.426 35.0118C278.426 36.3642 279.285 37.221 280.52 37.221Z" fill="#415D6E"/>
<path d="M288.789 32.8025C287.982 32.8025 287.228 33.2314 286.812 33.6999V38.3054H285.576V31.8389H286.812V32.7759C287.319 32.2403 288.255 31.678 289.244 31.678C290.701 31.678 291.572 32.4412 291.572 34.0211V38.3054H290.336V34.2756C290.336 33.1507 289.738 32.8025 288.789 32.8025Z" fill="#415D6E"/>
<path d="M295.68 36.8994L296.499 35.842C297.214 36.5782 298.359 37.2075 299.802 37.2075C301.441 37.2075 302.13 36.5381 302.13 35.842C302.13 34.8915 301.064 34.6635 299.581 34.4094C297.786 34.1148 295.965 33.7265 295.965 31.8123C295.965 30.2859 297.435 29.2281 299.594 29.2281C301.194 29.2281 302.455 29.7368 303.34 30.6337L302.507 31.6514C301.779 30.9284 300.738 30.4864 299.49 30.4864C298.189 30.4864 297.396 30.9685 297.396 31.705C297.396 32.5349 298.359 32.7493 299.88 33.0169C301.688 33.3516 303.547 33.7535 303.547 35.7078C303.547 37.1539 302.364 38.4658 299.737 38.4658C297.955 38.4658 296.473 37.7432 295.68 36.8994Z" fill="#415D6E"/>
<path d="M304.4 40.8359L304.595 39.6844C304.751 39.7515 304.999 39.7917 305.168 39.7917C305.636 39.7917 305.974 39.6709 306.234 39.1087L306.559 38.3991L303.672 31.8389H305.05L307.235 36.9264L309.394 31.8389H310.773L307.378 39.524C306.936 40.5413 306.13 40.9161 305.181 40.9296C304.972 40.9296 304.608 40.8895 304.4 40.8359Z" fill="#415D6E"/>
<path d="M311.048 37.4084L311.685 36.4578C312.205 36.9665 313.129 37.4084 314.104 37.4084C315.131 37.4084 315.599 37.0201 315.599 36.5245C315.599 35.8952 314.793 35.7213 313.87 35.5609C312.595 35.333 311.23 35.0653 311.23 33.6192C311.23 32.5885 312.179 31.678 313.883 31.678C315.092 31.678 316.042 32.1064 316.627 32.642L316.055 33.5525C315.587 33.084 314.793 32.7358 313.87 32.7358C312.972 32.7358 312.478 33.0705 312.478 33.539C312.478 34.0612 313.22 34.2085 314.091 34.3693C315.339 34.5833 316.848 34.8644 316.848 36.4443C316.848 37.5422 315.899 38.4658 314.052 38.4658C312.881 38.4658 311.75 38.0779 311.048 37.4084Z" fill="#415D6E"/>
<path d="M318.79 36.6854V32.9633H317.528V31.8389H318.79V30.0715H320.025V31.8389H321.599V32.9633H320.025V36.4444C320.025 37.0066 320.298 37.3414 320.819 37.3414C321.118 37.3414 321.443 37.2341 321.586 37.1138L321.898 38.091C321.625 38.2919 321.17 38.4658 320.519 38.4658C319.401 38.4658 318.79 37.8103 318.79 36.6854Z" fill="#415D6E"/>
<path d="M322.206 35.0654C322.206 33.0971 323.689 31.678 325.653 31.678C327.681 31.678 329.008 33.1372 329.008 35.1992V35.5204H323.533C323.663 36.5917 324.43 37.3815 325.874 37.3815C326.693 37.3815 327.421 37.1138 327.98 36.6453L328.527 37.5157C327.811 38.1315 326.914 38.4658 325.744 38.4658C323.767 38.4658 322.206 37.2075 322.206 35.0654ZM327.786 34.5432C327.694 33.6864 327.057 32.7624 325.64 32.7624C324.391 32.7624 323.663 33.5792 323.533 34.5432H327.786Z" fill="#415D6E"/>
<path d="M337.593 32.8025C336.917 32.8025 336.227 33.2313 335.876 33.6999V38.3054H334.641V34.1414C334.641 33.3247 334.29 32.8025 333.327 32.8025C332.677 32.8025 331.988 33.2178 331.611 33.6864V38.3054H330.375V31.8388H331.611V32.7894C331.936 32.3745 332.82 31.678 333.847 31.678C334.888 31.678 335.512 32.2137 335.746 32.8831C336.227 32.2673 337.099 31.678 338.113 31.678C339.414 31.678 340.155 32.3745 340.155 33.8337V38.3054H338.92V34.1414C338.92 33.3247 338.594 32.8025 337.593 32.8025Z" fill="#415D6E"/>
<path d="M47.2656 38.19V4.44916H70.4584V10.7724H54.243V17.905H70.1148V24.2282H54.243V31.8667H70.4584V38.19L47.2656 38.19Z" fill="#1B1B1B"/>
<path d="M90.2204 38.19L84.8155 29.9445L79.3609 38.19H72.4326L80.8351 25.6446L72.924 13.757H79.9014L84.8154 21.2943L89.6799 13.757H96.6573L88.6971 25.6446L97.1978 38.19H90.2204Z" fill="#1B1B1B"/>
<path d="M96.9658 25.9482C96.9658 18.4615 102.224 13.15 109.545 13.15C114.41 13.15 117.358 15.3251 118.93 17.5509L114.852 21.4966C113.722 19.7767 112.002 18.8662 109.84 18.8662C106.056 18.8662 103.403 21.699 103.403 25.9482C103.403 30.1973 106.056 33.0808 109.84 33.0808C112.002 33.0808 113.722 32.0691 114.852 30.4503L118.93 34.3455C117.358 36.6218 114.41 38.797 109.545 38.797C102.224 38.797 96.9658 33.4855 96.9658 25.9482Z" fill="#1B1B1B"/>
<path d="M119.863 25.9482C119.863 18.8662 124.925 13.15 132.147 13.15C139.223 13.15 144.039 18.6132 144.039 26.6058V28.0222H126.398C126.792 31.108 129.2 33.6878 133.228 33.6878C135.243 33.6878 138.044 32.7773 139.568 31.2597L142.319 35.4078C139.96 37.6336 136.226 38.797 132.541 38.797C125.317 38.797 119.863 33.789 119.863 25.9482ZM132.147 18.2591C128.266 18.2591 126.595 21.2437 126.3 23.6718H137.995C137.847 21.3449 136.275 18.2591 132.147 18.2591Z" fill="#1B1B1B"/>
<path d="M147.728 38.19V4.44916H153.968V38.19L147.728 38.19Z" fill="#1B1B1B"/>
<path d="M157.244 35.0031L159.947 30.5009C161.666 32.1703 165.204 33.8396 168.153 33.8396C170.855 33.8396 172.133 32.7267 172.133 31.2091C172.133 29.5398 169.971 29.0845 167.366 28.5787C163.288 27.7693 158.03 26.707 158.03 20.839C158.03 16.7416 161.519 13.15 167.76 13.15C171.789 13.15 174.983 14.5664 177.341 16.4886L174.836 20.8896C173.41 19.3214 170.708 18.0568 167.809 18.0568C165.548 18.0568 164.074 19.1191 164.074 20.4849C164.074 21.9013 165.942 22.306 168.595 22.8625C172.673 23.6718 178.128 24.8353 178.128 30.9562C178.128 35.4078 174.442 38.797 167.858 38.797C163.73 38.797 159.75 37.3806 157.244 35.0031Z" fill="#1B1B1B"/>
<path d="M181.1 7.28197C181.1 5.15733 182.819 3.48804 184.834 3.48804C186.898 3.48804 188.568 5.15733 188.568 7.28197C188.568 9.4066 186.898 11.1265 184.834 11.1265C182.819 11.1265 181.1 9.40655 181.1 7.28197ZM181.738 38.19V13.757H187.979V38.19L181.738 38.19Z" fill="#1B1B1B"/>
<path d="M191.53 25.9482C191.53 19.0179 196.247 13.15 204.06 13.15C211.922 13.15 216.64 19.0179 216.64 25.9482C216.64 32.9291 211.922 38.797 204.06 38.797C196.247 38.797 191.53 32.9291 191.53 25.9482ZM210.154 25.9482C210.154 22.1542 207.942 18.8662 204.06 18.8662C200.178 18.8662 198.016 22.1542 198.016 25.9482C198.016 29.7928 200.178 33.0808 204.06 33.0808C207.942 33.0808 210.154 29.7928 210.154 25.9482Z" fill="#1B1B1B"/>
<path d="M220.397 38.19V13.757H226.638V17.0956C228.309 14.9205 231.257 13.15 234.205 13.15V19.4226C233.763 19.3214 233.173 19.2709 232.485 19.2709C230.421 19.2709 227.67 20.4849 226.638 22.0531V38.19L220.397 38.19Z" fill="#1B1B1B"/>
<path d="M19.8004 0C8.86496 0 0 9.12627 0 20.3841C0 24.974 1.47437 29.2089 3.96107 32.6161L21.2464 14.8213H8.37122V9.03946H30.8365V32.1669H25.2201V18.9072L7.93404 36.7028C11.241 39.2555 15.349 40.7682 19.8004 40.7682C30.7359 40.7682 39.6009 31.6419 39.6009 20.3841C39.6009 9.12623 30.7359 0 19.8004 0Z" fill="#186DB4"/>
<path d="M8.37077 14.8213H21.2459L14.8083 21.4486L8.37077 14.8213ZM30.836 9.03943V32.1669H25.2197V18.9072L7.93359 36.7028C11.2406 39.2554 15.3486 40.7682 19.8 40.7682C30.7355 40.7682 39.6004 31.6419 39.6004 20.3841C39.6004 19.5679 39.5485 18.7647 39.4579 17.9737L30.836 9.03943Z" fill="#0D3B69"/>
</svg>
