<svg width="579" height="146" viewBox="0 0 579 146" fill="none" xmlns="http://www.w3.org/2000/svg">
<path d="M533.344 74.2496C551.362 74.2496 565.969 59.6429 565.969 41.6246C565.969 23.6063 551.362 8.99963 533.344 8.99963C515.325 8.99963 500.719 23.6063 500.719 41.6246C500.719 59.6429 515.325 74.2496 533.344 74.2496Z" fill="#296AB6"/>
<path d="M579 145H434V0L579 145Z" fill="#186DB4"/>
<path d="M105.125 145H0C0 64.9187 64.9186 0 145 0V105.125C145 127.147 127.147 145 105.125 145Z" fill="#186DB4"/>
<path d="M289.427 1V145.427H217.377C177.404 145.427 145 113.096 145 73.2134C145 33.331 177.404 1.00002 217.377 1.00002L289.427 1Z" fill="#296AB6"/>
<g clip-path="url(#clip0_211_1042)">
<path d="M361.5 145C401.541 145 434 112.541 434 72.5C434 32.4594 401.541 0 361.5 0C321.459 0 289 32.4594 289 72.5C289 112.541 321.459 145 361.5 145Z" fill="#296AB6"/>
<path style="mix-blend-mode:multiply" opacity="0.58" d="M433.517 80.8633L405.227 52.573C405.141 52.4842 405.051 52.3978 404.964 52.3093C404.877 52.2212 404.789 52.1355 404.702 52.0478C404.615 51.9585 404.526 51.8722 404.438 51.7837C404.351 51.6952 404.262 51.6088 404.175 51.5207C404.088 51.4318 403.999 51.3455 403.911 51.257C400.537 47.8029 396.78 44.7268 392.641 42.0293C383.218 35.8893 372.792 32.8192 361.364 32.8192C349.936 32.8192 339.511 35.8893 330.088 42.0293C320.664 48.1698 313.224 56.2694 307.766 66.3345C307.339 67.1018 307.019 67.8901 306.806 68.7034C306.593 69.512 306.486 70.341 306.486 71.1953C306.486 72.05 306.593 72.8789 306.806 73.6926C307.019 74.5009 307.339 75.2888 307.766 76.0564C310.887 81.8132 314.661 86.9245 319.081 91.397C319.167 91.4851 319.256 91.5711 319.342 91.6589L370.244 143.07L370.911 143.227C370.998 143.316 371.087 143.402 371.174 143.491C371.261 143.579 371.35 143.665 371.438 143.754C371.603 143.923 371.781 144.08 371.948 144.248C404.317 139.575 429.766 113.521 433.517 80.8633Z" fill="url(#paint0_linear_211_1042)"/>
<path d="M345.054 87.5077C340.576 83.0253 338.338 77.5913 338.338 71.1953C338.338 64.7992 340.577 59.3652 345.054 54.8828C349.531 50.4107 354.967 48.1696 361.363 48.1696C367.76 48.1696 373.196 50.4107 377.673 54.8828C382.151 59.3652 384.389 64.7992 384.389 71.1953C384.389 77.5913 382.151 83.0253 377.673 87.5077C373.196 91.9798 367.76 94.2209 361.363 94.2209C354.967 94.2209 349.531 91.9798 345.054 87.5077ZM371.149 80.9837C373.836 78.2974 375.179 75.0329 375.179 71.1953C375.179 67.3576 373.836 64.0983 371.149 61.4119C368.463 58.7204 365.201 57.3799 361.363 57.3799C357.526 57.3799 354.264 58.7204 351.578 61.4119C348.891 64.0983 347.548 67.3576 347.548 71.1953C347.548 75.0329 348.891 78.2974 351.578 80.9837C354.264 83.6701 357.526 85.0107 361.363 85.0107C365.201 85.0107 368.463 83.6701 371.149 80.9837Z" fill="#4387CC"/>
<mask id="mask0_211_1042" style="mask-type:luminance" maskUnits="userSpaceOnUse" x="299" y="12" width="124" height="124">
<path d="M422.766 12.3518H299.962V135.155H422.766V12.3518Z" fill="#D8D8D8"/>
</mask>
<g mask="url(#mask0_211_1042)">
<path d="M361.364 109.571C349.937 109.571 339.511 106.501 330.088 100.361C320.664 94.2209 313.223 86.1211 307.766 76.0562C307.339 75.2887 307.019 74.5007 306.806 73.6923C306.593 72.8787 306.486 72.0498 306.486 71.1952C306.486 70.3407 306.593 69.5118 306.806 68.7034C307.019 67.8898 307.339 67.1018 307.766 66.3343C313.223 56.2694 320.664 48.1696 330.088 42.0294C339.511 35.8892 349.937 32.8191 361.364 32.8191C372.792 32.8191 383.218 35.8892 392.641 42.0294C402.064 48.1696 409.505 56.2694 414.963 66.3343C415.39 67.1018 415.709 67.8898 415.922 68.7034C416.136 69.5118 416.242 70.3407 416.242 71.1952C416.242 72.0498 416.136 72.8787 415.922 73.6923C415.709 74.5007 415.39 75.2887 414.963 76.0562C409.505 86.1211 402.064 94.2209 392.641 100.361C383.218 106.501 372.792 109.571 361.364 109.571ZM361.364 99.3378C371.001 99.3378 379.849 96.7998 387.908 91.7239C395.967 86.6532 402.128 79.8069 406.392 71.1953C402.128 62.5837 395.967 55.7374 387.908 50.6615C379.849 45.5907 371.001 43.0527 361.364 43.0527C351.728 43.0527 342.88 45.5907 334.821 50.6615C326.762 55.7374 320.6 62.5837 316.336 71.1953C320.6 79.8069 326.762 86.6532 334.821 91.7239C342.88 96.7998 351.728 99.3378 361.364 99.3378Z" fill="#296AB4"/>
</g>
<mask id="mask1_211_1042" style="mask-type:luminance" maskUnits="userSpaceOnUse" x="299" y="12" width="124" height="124">
<path d="M422.766 12.3518H299.962V135.155H422.766V12.3518Z" fill="#D8D8D8"/>
</mask>
<g mask="url(#mask1_211_1042)">
<path d="M361.364 109.571C349.937 109.571 339.511 106.501 330.088 100.361C320.664 94.2209 313.223 86.1211 307.766 76.0562C307.339 75.2887 307.019 74.5007 306.806 73.6923C306.593 72.8787 306.486 72.0498 306.486 71.1952C306.486 70.3407 306.593 69.5118 306.806 68.7034C307.019 67.8898 307.339 67.1018 307.766 66.3343C313.223 56.2694 320.664 48.1696 330.088 42.0294C339.511 35.8892 349.937 32.8191 361.364 32.8191C372.792 32.8191 383.218 35.8892 392.641 42.0294C402.064 48.1696 409.505 56.2694 414.963 66.3343C415.39 67.1018 415.709 67.8898 415.922 68.7034C416.136 69.5118 416.242 70.3407 416.242 71.1952C416.242 72.0498 416.136 72.8787 415.922 73.6923C415.709 74.5007 415.39 75.2887 414.963 76.0562C409.505 86.1211 402.064 94.2209 392.641 100.361C383.218 106.501 372.792 109.571 361.364 109.571ZM361.364 99.3378C371.001 99.3378 379.849 96.7998 387.908 91.7239C395.967 86.6532 402.128 79.8069 406.392 71.1953C402.128 62.5837 395.967 55.7374 387.908 50.6615C379.849 45.5907 371.001 43.0527 361.364 43.0527C351.728 43.0527 342.88 45.5907 334.821 50.6615C326.762 55.7374 320.6 62.5837 316.336 71.1953C320.6 79.8069 326.762 86.6532 334.821 91.7239C342.88 96.7998 351.728 99.3378 361.364 99.3378Z" fill="#4387CC"/>
</g>
</g>
<defs>
<linearGradient id="paint0_linear_211_1042" x1="306.486" y1="88.5336" x2="433.517" y2="88.5336" gradientUnits="userSpaceOnUse">
<stop stop-color="#3185C7"/>
<stop offset="1" stop-color="#17296B"/>
</linearGradient>
<clipPath id="clip0_211_1042">
<rect width="145" height="145" fill="white" transform="translate(289)"/>
</clipPath>
</defs>
</svg>
