<svg xmlns="http://www.w3.org/2000/svg" width="870" height="435" fill="none" viewBox="0 0 870 435"><path fill="#cce0f6" d="M580 290.001h145v145H580z"/><path fill="#a3c2ee" d="M145 145H0C0 64.919 64.919 0 145 0z"/><path fill="url(#a)" d="M580 290v145H435zm-136 45.656c0-18.018 14.607-32.625 32.625-32.625s32.625 14.607 32.625 32.625-14.607 32.625-32.625 32.625S444 353.675 444 335.656"/><path fill="url(#b)" d="M870 290.001H725v-145zm-45.656-136c18.018 0 32.625 14.606 32.625 32.625s-14.607 32.625-32.625 32.625-32.625-14.607-32.625-32.625 14.606-32.625 32.625-32.625"/><path fill="#286ad8" d="M72.5 290c40.04 0 72.5-32.459 72.5-72.5s-32.46-72.499-72.5-72.499S0 177.46 0 217.5C0 257.541 32.46 290 72.5 290"/><path fill="#1a4690" d="m72.328 289.996.108.002.064.002c40.04 0 72.5-32.459 72.5-72.5 0-2.307-.12-4.586-.331-6.839L72.5 162.487l-13.03 40.101H17.305l34.113 24.784-13.03 40.101z" opacity=".5" style="mix-blend-mode:multiply"/><path fill="#7fa3e9" d="m72.5 162.487 13.03 40.101h42.165l-34.113 24.784 13.03 40.101L72.5 242.69l-34.112 24.783 13.03-40.101-34.113-24.784H59.47z"/><path fill="#a3c2ee" d="M435 250.126c0 22.022 17.852 39.875 39.875 39.875H580v-145H435z"/><path fill="#154973" d="M184.875 435.001H290c0-80.082-64.919-145-145-145v105.125c0 22.022 17.853 39.875 39.875 39.875"/><path fill="#a3c2ee" d="M725 39.876V145c80.081 0 145-64.92 145-145H764.875C742.853 0 725 17.853 725 39.876"/><path fill="#1b52b1" d="M184.876 290.001c-22.023 0-39.876-17.679-39.876-39.486v-66.028c0-21.807 17.853-39.486 39.876-39.486H290v145z"/><path fill="#3a65da" d="M830.124 290.001c22.023 0 39.876 17.678 39.876 39.486v66.027c0 21.808-17.853 39.487-39.876 39.487H725v-145z"/><path fill="url(#c)" d="M619.875 435.001H725c0-80.082-64.919-145-145-145v105.125c0 22.022 17.853 39.875 39.875 39.875"/><path fill="#154973" d="M580 145.001v-145h72.335C692.467 0 725 32.46 725 72.5S692.467 145 652.335 145z"/><path fill="url(#d)" d="M395.125 290H290c0-80.081 64.919-145 145-145v105.125C435 272.147 417.147 290 395.125 290"/><path fill="url(#e)" d="M0 435c91 0 145-54.5 145-145C52.5 290 0 342 0 435"/><path fill="url(#f)" d="M652.5 290c40.04 0 72.5-32.459 72.5-72.5s-32.46-72.499-72.5-72.499S580 177.46 580 217.5c0 40.041 32.459 72.5 72.5 72.5"/><mask id="h" width="145" height="145" x="580" y="145" maskUnits="userSpaceOnUse" style="mask-type:alpha"><path fill="url(#g)" d="M652.5 290c40.04 0 72.5-32.459 72.5-72.5s-32.46-72.499-72.5-72.499S580 177.46 580 217.5c0 40.041 32.459 72.5 72.5 72.5"/></mask><g mask="url(#h)"><path fill="#1a4690" d="M742.413 298.828v-.228h-.228v-.228h-.228v-.229h-.228v-.228h-.229v-.229h-.228v-.228h-.228v-.228h-.228v-.229h-.228v-.228h-.229v-.229h-.228v-.228h-.228v-.229h-.228v-.228h-.229v-.228h-.228v-.229h-.228v-.228h-.228v-.229h-.228v-.228h-.229v-.229h-.228v-.228h-.228v-.228h-.228v-.229h-.228v-.228h-.229v-.229h-.228v-.228h-.228v-.229h-.228v-.228h-.228v-.228h-.229v-.229h-.228v-.228h-.228v-.229h-.228v-.228h-.229v-.229h-.228v-.228h-.228v-.228h-.228v-.229h-.228v-.228h-.229v-.229h-.228v-.228h-.228v-.229h-.228v-.228h-.228v-.228h-.229v-.229h-.228v-.228h-.228v-.229h-.228v-.228h-.228v-.229h-.229v-.228h-.228v-.228h-.228v-.229h-.228v-.228h-.229v-.229h-.228v-.228h-.228v-.229h-.228v-.228h-.228v-.228h-.229v-.229h-.228v-.228h-.228v-.229h-.228v-.228h-.228v-.229h-.229v-.228h-.228v-.228h-.228v-.229h-.228v-.228h-.228v-.229h-.229v-.228h-.228v-.229h-.228v-.228h-.228v-.228h-.229v-.229h-.228v-.228h-.228v-.229h-.228v-.228h-.228v-.229h-.229v-.228h-.228v-.228h-.228v-.229h-.228v-.228h-.228v-.229h-.229v-.228h-.228v-.229h-.228v-.228h-.228v-.228h-.229v-.229h-.228v-.228h-.228v-.229h-.228v-.228h-.228v-.229h-.229v-.228h-.228v-.228h-.228v-.229h-.228v-.228h-.228v-.229h-.229v-.228h-.228v-.229h-.228v-.228h-.228v-.228h-.228v-.229h-.008l41.105-4.227-41.333-41.143v-.229h-.228v-.228h-.229v-.228h-.228v-.229h-.228v-.228h-.228v-.229h-.228v-.228h-.229v-.229h-.228v-.228h-.228v-.228h-.228v-.229h-.229v-.228h-.228v-.229h-.228v-.228h-.228v-.229h-.228v-.228h-.229v-.228h-.228v-.229h-.228v-.228h-.228v-.229h-.228v-.228h-.229v-.229h-.228v-.228h-.228v-.228h-.228v-.229h-.228v-.228h-.229v-.229h-.228v-.228h-.228v-.229h-.228v-.228h-.229v-.228h-.228v-.229h-.228v-.228h-.228v-.229h-.228v-.228h-.229v-.229h-.228v-.228h-.228v-.228h-.228v-.229h-.228v-.228h-.229v-.229h-.228v-.228h-.228v-.229H710v-.228h-.229v-.228h-.228v-.229h-.228v-.228h-.228v-.229h-.228v-.228h-.229v-.229h-.228v-.228h-.228v-.228h-.228v-.229h-.228v-.228h-.229v-.229h-.228v-.228h-.228v-.229h-.228v-.228h-.228v-.228h-.229v-.229h-.228v-.228h-.228v-.229h-.228v-.228h-.229v-.229h-.228v-.228h-.228v-.228h-.228v-.229h-.228v-.228h-.229v-.229h-.228v-.228h-.228v-.229h-.228v-.228h-.228v-.228h-.229v-.229h-.228v-.228h-.228v-.229h-.228v-.228h-.228v-.229h-.229v-.228h-.228v-.228h-.228v-.229h-.228v-.228h-.229v-.229h-.228v-.228h-.228v-.229h-.228v-.228h-.228v-.228h-.229v-.229h-.228v-.228h-.228v-.229h-.228v-.228h-.228v-.229h-.229v-.228h-.228v-.228h-.228v-.229h-.228v-.228h-.228v-.229h-.229v-.228h-.228v-.229h-.228v-.228h-.228v-.228h-.229v-.229h-.228v-.228h-.228v-.229h-.228v-.228h-.228v-.229h-.229v-.228h-.228v-.228h-.228v-.229h-.228v-.228h-.228v-.229h-.229v-.228h-.228v-.229h-.228v-.228h-.228v-.228h-.228v-.229h-.229v-.228h-.228v-.229h-.228v-.228h-.228v-.228h-.229v-.229h-.228v-.228h-.228v-.229h-.228v-.228h-.228v-.229h-.229v-.228h-.228v-.228h-.228v-.229h-.228v-.228h-.228v-.229h-.229v-.228h-.228v-.229h-.228v-.228h-.228v-.228h-.229v-.229h-.228v-.228h-.228v-.229h-.228v-.228h-.228v-.229h-.229v-.228h-.228v-.228h-.228v-.229h-.228v-.228h-.228v-.229h-.229v-.228h-.228v-.229h-.228v-.228h-.228v-.228h-.228v-.229h-.229v-.228h-.228v-.229h-.228v-.228h-.228v-.229h-.229v-.228h-.228v-.228h-.228v-.229h-.228v-.228h-.228v-.229h-.229v-.228h-.228v-.229h-.228v-.228h-.228v-.228h-.228v-.229h-.229v-.228h-.228v-.229h-.228v-.228h-.228v-.229h-.228v-.228h-.229v-.228h-.228v-.229h-.228v-.228h-.228v-.229h-.229v-.228h-.228v-.229h-.228v-.228h-.228v-.228h-.228v-.229h-.229v-.228h-.228v-.229h-.228v-.228h-.228v-.229h-.228v-.228h-.229v-.228h-.228v-.229h-.228v-.228h-.228v-.229h-.229v-.228h-.228v-.229h-.228v-.228h-.228v-.228h-.228v-.229h-.229v-.228h-.228v-.229h-.228v-.228h-.228v-.229h-.228v-.228h-.229v-.228h-.228v-.229h-.228v-.228h-.228v-.229h-.228v-.228h-.229v-.229h-.228v-.228h-.228v-.228h-.228v-.229h-.229v-.228h-.228v-.229h-.228v-.228h-.228v-.229h-.228v-.228h-.229v-.228h-.228v-.229h-.228v-.228h-.228v-.229h-.228v-.228h-.229v-.229h-.228v-.228h-.228v-.228h-.228v-.229h-.228v-.228h-.229v-.229h-.228v-.228h-.228v-.229h-.228v-.228h-.229v-.228h-.228v-.229h-.228v-.228h-.228v-.229h-.228v-.228h-.229v-.229h-.228v-.228h-.228v-.228h-.228v-.229h-.228v-.228h-.229v-.229h-.228v-.228h-.228v-.229h-.228v-.228h-.228v-.228h-.229v-.229h-.228v-.228h-.228v-.229h-.228v-.228h-.229v-.228h-.228v-.229h-.228v-.228h-.228v-.229h-.228v-.228h-.229v-.229h-.228v-.228h-13.871q-6.457 10.413-27.623 16.637v16.817l.229-.097v.325c.074-.03.153-.065.228-.096v.325l.228-.097v.325l.228-.096v.324c.075-.03.154-.065.229-.096v.325l.228-.097v.325c.074-.03.153-.065.228-.096v.325l.228-.097v.325c.074-.03.153-.065.228-.096v.325l.229-.097v.325l.228-.096v.324c.074-.03.153-.065.228-.096v.325l.228-.097v.325c.074-.03.153-.065.228-.096v.325l.229-.097v.325c.074-.03.153-.065.228-.096v.325l.228-.097v.325l.228-.096v.324c.074-.03.153-.065.228-.096v.325l.229-.097v.325c.074-.03.153-.065.228-.096v.325l.228-.097v.325c.074-.03.153-.065.228-.096v.325l.229-.097v.325l.228-.097v.325c.074-.03.153-.065.228-.096v.325l.228-.097v.325c.074-.03.153-.065.228-.096v.325l.229-.097v.325c.074-.03.153-.065.228-.096v.325l.228-.097v.325l.228-.097v.325c.074-.03.153-.065.228-.096v.325l.229-.097v.325c.074-.03.153-.065.228-.096v.325l.228-.097v.325l.228-.096v.325l.229-.097v.325l.228-.097v.325c.074-.03.153-.065.228-.096v.325l.228-.097v.325c.074-.03.153-.065.228-.096v.325l.229-.097v.325l.228-.096v.325l.228-.097v.325l.228-.097v.325c.074-.03.153-.065.228-.096v.325l.229-.097v.325c.074-.03.153-.065.228-.096v.325l.228-.097v.325l.228-.096v.324c.074-.03.153-.065.228-.096v.325l.229-.097v.325c.074-.03.153-.065.228-.096v.325l.228-.097v.325c.074-.03.153-.065.228-.096v.325l.229-.097v.325l.228-.096v.324c.074-.03.153-.065.228-.096v.325l.228-.097v.325c.074-.03.153-.065.228-.096v.325l.229-.097v.325c.074-.03.153-.065.228-.096v.325l.228-.097v.325l.228-.096v.324c.074-.03.153-.065.228-.096v.325l.229-.097v.325c.074-.03.153-.065.228-.096v.325l.228-.097v.325c.074-.03.153-.065.228-.096v.325l.229-.097v.325l.228-.096v.324c.074-.03.153-.065.228-.096v.325l.228-.097v.325c.074-.03.153-.065.228-.096v.325l.229-.097v.325c.074-.03.153-.065.228-.096v.325l.228-.097v.325l.228-.097v.325c.074-.03.153-.065.228-.096v.325l.229-.097v.325c.074-.03.153-.065.228-.096v.325l.228-.097v.325c.074-.03.153-.065.228-.096v.325l.228-.097v.325l.229-.097v.325c.074-.03.153-.065.228-.096v.325l.228-.097v.325c.074-.03.153-.065.228-.096v.325l.229-.097v.325l.228-.096v.325l.228-.097v.325l.228-.097v.325c.074-.03.153-.065.228-.096v.325l.229-.097v.325c.074-.03.153-.065.228-.096v.325l.228-.097v.325l.228-.096v.325l.228-.097v.325l.128-.054v11.97h-24.753v17.011h.228v.228h.228v.229h.229v.228h.228v.229h.228v.228h.228v.228h.228v.229h.229v.228h.228v.229h.228v.228h.228v.229h.228v.228h.229v.228h.228v.229h.228v.228h.228v.229h.229v.228h.228v.229h.228v.228h.228v.228h.228v.229h.229v.228h.228v.229h.228v.228h.228v.229h.228v.228h.229v.228h.228v.229h.228v.228h.228v.229h.228v.228h.229v.229h.228v.228h.228v.228h.228v.229h.228v.228h.229v.229h.228v.228h.228v.229h.228v.228h.229v.228h.228v.229h.228v.228h.228v.229h.228v.228h.229v.229h.228v.228h.228v.228h.228v.229h.228v.228h.229v.229h.228v.228h.228v.229h.228v.228h.228v.228h.229v.229h.228v.228h.228v.229h.228v.228h.229v.229h.228v.228h.228v.228h.228v.229h.228v.228h.229v.229h.228v.228h.228v.229h.228v.228h.228v.228h.229v.229h.228v.228h.228v.229h.228v.228h.229v.229h.228v.228h.228v.228h.228v.229h.228v.228h.229v.229h.228v.228h.228v.228h.228v.229h.228v.228h.229v.229h.228v.228h.228v.229h.228v.228h.228v.228h.229v.229h.228v.228h.228v.229h.228v.228h.229v.229h.228v.228h.228v.228h.228v.229h.228v.228h.229v.229h.228v.228h.228v.229h.228v.228h.228v.228h.229v.229h.228v.228h.228v.229h.228v.228h.228v.229h.229v.228h.228v.228h.228v.229h.228v.228h.229v.229h.228v.228h.228v.229h.228v.228h.228v.228h.229v.229h.228v.228h.228v.229h.228v.228h.228v.229h.229v.228h.228v.228h.228v.229h.228v.228h.229v.229h.228v.228h.228v.229h.228v.228h.228v.228h.229v.229h.228v.228h.228v.229h.228v.228h.228v.229h.229v.228h.228v.228h.228v.229h.228v.228h.228v.229h.229v.228h.228v.229h.228v.228h.228v.228h.229v.229h.228v.228h.228v.229h.228v.228h.228v.229h.229v.228h.228v.228h.228v.229h.228v.228h.228v.229h.229v.228h.228v.229h.228v.228h.228v.228h.229v.229h.228v.228h.228v.229h.228v.228h.228v.229h.229v.228h.228v.228h.228v.229h.228v.228h.228v.229h.229v.228h.228v.229h.228v.228h.228v.228h.228v.229h.229v.228h.228v.229h.228v.228h.228v.229h.228v.228h.229v.228h.228v.229h.228v.228h.228v.229h.229v.228h.228v.229h.228v.228h.228v.228h.228v.229h.229v.228h.228v.229h.228v.228h.228v.229h.228v.228h.229v.228h.228v.229h.228v.228h.228v.229h.229v.228h.228v.228h.228v.229h.228v.228h.228v.229h.229v.228h.228v.229h.228v.228h.228v.228h.228v.229h.229v.228h.228v.229h.228v.228h.228v.229h.228v.228h.229v.228h.228v.229h.228v.228h.228v.229h.229v.228h.228v.229h.228v.228h.228v.228h.228v.229h.229v.228h.228v.229h.228v.228h.228v.229h.228v.228h.229v.228h.228v.229h.228v.228h.228v.229h.228v.228h.229v.229h.228v.228h.228v.228h.228v.229h.229v.228h.228v.229h.228v.228h.228v.229h.228v.228h.229v.228h.228v.229h.228v.228h.228v.229h.228v.228h.229v.229h.228v.228h.228v.228h.228v.229h.229v.228h.228v.229h66.126v-17.011z" opacity=".5" style="mix-blend-mode:multiply"/><path fill="#7fa3e9" d="M621.495 207.191v-16.817q21.165-6.224 27.622-16.637h13.871v67.985h22.601v17.01h-66.127v-17.01h24.753v-46.739q-14.59 8.857-22.72 12.208"/></g><path fill="#3a65da" d="M329.875 290C307.853 290 290 307.852 290 329.875V435h145V290z"/><mask id="i" width="145" height="145" x="290" y="290" maskUnits="userSpaceOnUse" style="mask-type:alpha"><path fill="#2d618c" d="M329.875 290C307.853 290 290 307.852 290 329.875V435h145V290z"/></mask><g mask="url(#i)"><path fill="#1a4690" d="M515.312 453.361v-.158l-.38-.222v-.158l-.38-.222v-.158l-.379-.222v-.158l-.38-.221v-.159l-.38-.221v-.159l-.38-.221v-.158l-.38-.222v-.158l-.38-.222v-.158l-.38-.222v-.158l-.38-.222v-.158l-.379-.222v-.158l-.38-.222v-.158l-.38-.221v-.159l-.38-.221v-.158l-.38-.222v-.158l-.38-.222v-.158l-.38-.222v-.158l-.38-.222v-.158l-.379-.222v-.158l-.38-.222v-.158l-.38-.221v-.159l-.38-.221v-.159l-.38-.221v-.158l-.38-.222v-.158l-.38-.222v-.158l-.38-.222v-.158l-.379-.222v-.158l-.38-.222v-.158l-.38-.221v-.159l-.38-.221v-.159l-.38-.221v-.158l-.38-.222v-.158l-.38-.222v-.158l-.38-.222v-.158l-.38-.222v-.158l-.379-.222v-.158l-.38-.221v-.159l-.38-.221v-.159l-.38-.221v-.158l-.38-.222v-.158l-.38-.222v-.158l-.38-.222v-.158l-.38-.222v-.158l-.379-.222v-.158l-.38-.222v-.158l-.38-.221v-.159l-.38-.221v-.158l-.38-.222v-.158l-.38-.222v-.158l-.38-.222v-.158l-.38-.222v-.158l-.379-.222v-.158l-.38-.222v-.158l-.38-.221v-.159l-.38-.221v-.159l-.38-.221v-.158l-.38-.222v-.158l-.38-.222v-.158l-.38-.222v-.158l-.379-.222v-.158l-.38-.222v-.158l-.38-.221v-.159l-.38-.221v-.159l-.38-.221v-.158l-.38-.222v-.158l-.38-.222v-.158l-.38-.222v-.158l-.38-.222v-.158l-.379-.222v-.158l-.38-.221v-.159l-.38-.221v-.159l-.38-.221v-.158l-.38-.222v-.158l-.38-.222v-.158l-.38-.222v-.158l-.38-.222v-.158l-.379-.222v-.158l-.38-.222v-.158l-.38-.221v-.159l-.38-.221v-.158l-.38-.222v-.158l-.38-.222v-.158l-.38-.222v-.158l-.38-.222v-.158l-.379-.222v-.158l-.38-.221v-.159l-.38-.221v-.159l-.38-.221v-.159l-.38-.221v-.158l-.38-.222v-.158l-.38-.222v-.158l-.38-.222v-.158l-.379-.222v-.158l-.38-.222v-.158l-.38-.221v-.159l-.38-.221v-.159l-.38-.221v-.158l-.38-.222v-.158l-.38-.222v-.158l-.38-.222v-.158l-.379-.222v-.158l-.38-.222v-.158l-.38-.221v-.159l-.38-.221v-.159l-.38-.221v-.158l-.38-.222v-.158l-.38-.222v-.158l-.38-.222v-.158l-.38-.222v-.158l-.379-.222v-.158l-.38-.221v-.159l-.38-.221v-.159l-.38-.221v-.158l-.38-.222v-.158l-.38-.222v-.158l-.38-.222v-.158l-.38-.222v-.158l-.379-.222v-.158l-.38-.221v-.159l-.38-.221v-.159l-.38-.221v-.158l-.38-.222v-.158l-.38-.222v-.158l-.38-.222v-.158l-.38-.222v-.158l-.379-.222v-.158l-.38-.221v-.159l-.38-.221v-.159l-.38-.221v-.159l-.38-.221v-.158l-.38-.222v-.158l-.38-.222v-.158l-.38-.222v-.158l-.379-.222v-.158l-.38-.222v-.158l-.38-.221v-.159l-.38-.221v-.159l-.38-.221v-.158l-.38-.222v-.158l-.38-.222v-.158l-.38-.222v-.158l-.38-.222v-.158l-.379-.222v-.158l-.38-.221v-.159l-.38-.221v-.159l-.38-.221v-.158l-.38-.222v-.158l-.38-.222v-.158l-.38-.222v-.158l-.38-.222v-.158l-.379-.222v-.158l-.38-.221v-.159l-.38-.221v-.159l-.38-.221v-.158l-.38-.222v-.158l-.38-.222v-.158l-.38-.222v-.158l-.38-.222v-.158l-.379-.222v-.158l-.38-.221v-.159l-.38-.221v-.159l-.38-.221v-.159l-.38-.221v-.158l-.38-.222v-.158l-.38-.222v-.158l-.38-.222v-.158l-.379-.222v-.158l-.38-.222v-.158l-.38-.221v-.159l-.38-.221v-.159l-.38-.221v-.158l-.38-.222v-.158l-.38-.222v-.158l-.38-.222v-.158l-.38-.222v-.158l-.379-.222v-.158l-.38-.221v-.159l-.38-.221v-.159l-.38-.221v-.158l-.38-.222v-.158l-.38-.222v-.158l-.38-.222v-.158l-.38-.222v-.158l-.379-.222v-.158l-.38-.221v-.159l-.38-.221v-.159l-.38-.221v-.158l-.38-.222v-.158l-.38-.222v-.158l-.38-.222v-.158l-.38-.222v-.158l-.379-.222v-.158l-.38-.221v-.159l-.38-.221v-.159l-.38-.221v-.159l-.38-.221v-.158l-.38-.222v-.158l-.38-.222v-.158l-.38-.222v-.158l-.379-.222v-.158l-.38-.222v-.158l-.38-.221v-.159l-.38-.221v-.159l-.38-.221v-.158l-.38-.222v-.158l-.38-.222v-.158l-.38-.222v-.158l-.379-.222v-.158l-.38-.222v-.158l-.38-.221v-.159l-.38-.221v-.159l-.38-.221v-.158l-.38-.222v-.158l-.38-.222v-.158l-.38-.222v-.158l-.379-.222v-.158l-.38-.222v-.158l-.38-.221v-.159l-.38-.221v-.159l-.38-.221v-.158l-.38-.222v-.158l-.38-.222v-.158l-.38-.222v-.158l-.379-.222v-.158l-.38-.222v-.158l-.38-.221v-.159l-.38-.221v-.159l-.38-.221v-.159l-.38-.221v-.158l-.38-.222v-.158l-.38-.222v-.158l-.38-.222v-.158l-.379-.222v-.158l-.38-.221v-.159l-.38-.221v-.159l-.38-.221v-.159l-.38-.221v-.158l-.38-.222v-.158l-.38-.222v-.158l-.38-.222v-.158l-.379-.222v-.158l-.38-.222v-.158l-.38-.221v-.159l-.38-.221v-.159l-.38-.221v-.158l-.38-.222v-.158l-.38-.222v-.158l-.38-.222v-.158l-.379-.222v-.158l-.38-.222v-.158l-.38-.221v-.159l-.38-.221v-.159l-.38-.221v-.158l-.38-.222v-.158l-.38-.222v-.158l-.38-.222v-.158l-.379-.222v-.158l-.38-.222v-.158l-.38-.221v-.159l-.38-.221v-.159l-.38-.221v-.158l-.38-.222v-.158l-.38-.222v-.158l-.38-.222v-.158l-.38-.222v-.158l-.379-.222v-.158l-.38-.221v-.159l-.38-.221v-.159l-.38-.221v-.159l-.38-.221v-.158l-.38-.222v-.158l-.38-.222v-.158l-.38-.222v-.158l-.379-.222v-.158l-.38-.222v-.158l-.38-.221v-.159l-.38-.221v-.159l-.38-.221v-.158l-.38-.222v-.158l-.38-.222v-.158l-.38-.222v-.158l-.379-.222v-.158l-.38-.222v-.158l-.38-.221v-.159l-.38-.221v-.159l-.38-.221v-.158l-.38-.222v-.158l-.38-.222v-.158l-.38-.222v-.158l-.379-.222v-.158l-.38-.222v-.158l-.38-.221v-.159l-.38-.221v-.159l-.38-.221v-.158l-.38-.222v-.158l-.38-.222v-.158l-.38-.222v-.158l-.38-.222v-.158l-.379-.222v-.158L362.5 316.733l-39.229 22.886v45.752l.38.222v.158l.38.221v.159l.38.221v.158l.38.222v.158l.38.222v.158l.38.222v.158l.38.222v.158l.38.222v.158l.379.222v.158l.38.221v.159l.38.221v.159l.38.221v.158l.38.222v.158l.38.222v.158l.38.222v.158l.38.222v.158l.379.222v.158l.38.221v.159l.38.221v.159l.38.221v.158l.38.222v.158l.38.222v.158l.38.222v.158l.38.222v.158l.379.222v.158l.38.221v.159l.38.221v.159l.38.221v.158l.38.222v.158l.38.222v.158l.38.222v.158l.38.222v.158l.379.222v.158l.38.222v.158l.38.221v.159l.38.221v.158l.38.222v.158l.38.222v.158l.38.222v.158l.38.222v.158l.38.222v.158l.379.222v.158l.38.221v.159l.38.221v.159l.38.221v.158l.38.222v.158l.38.222v.158l.38.222v.158l.38.222v.158l.379.222v.158l.38.221v.159l.38.221v.159l.38.221v.158l.38.222v.158l.38.222v.158l.38.222v.158l.38.222v.158l.379.222v.158l.38.221v.159l.38.221v.159l.38.221v.158l.38.222v.158l.38.222v.158l.38.222v.158l.38.222v.158l.379.222v.158l.38.222v.158l.38.221v.159l.38.221v.158l.38.222v.158l.38.222v.158l.38.222v.158l.38.222v.158l.379.222v.158l.38.222v.158l.38.221v.159l.38.221v.159l.38.221v.158l.38.222v.158l.38.222v.158l.38.222v.158l.38.222v.158l.379.222v.158l.38.221v.159l.38.221v.159l.38.221v.158l.38.222v.158l.38.222v.158l.38.222v.158l.38.222v.158l.379.222v.158l.38.221v.159l.38.221v.159l.38.221v.158l.38.222v.158l.38.222v.158l.38.222v.158l.38.222v.158l.379.222v.158l.38.221v.159l.38.221v.159l.38.221v.158l.38.222v.158l.38.222v.158l.38.222v.158l.38.222v.158l.379.222v.158l.38.222v.158l.38.221v.159l.38.221v.159l.38.221v.158l.38.222v.158l.38.222v.158l.38.222v.158l.38.222v.158l.379.222v.158l.38.221v.159l.38.221v.158l.38.222v.158l.38.222v.158l.38.222v.158l.38.222v.158l.38.222v.158l.379.222v.158l.38.221v.159l.38.221v.159l.38.221v.158l.38.222v.158l.38.222v.158l.38.222v.158l.38.222v.158l.379.222v.158l.38.221v.159l.38.221v.159l.38.221v.158l.38.222v.158l.38.222v.158l.38.222v.158l.38.222v.158l.379.222v.158l.38.222v.158l.38.221v.159l.38.221v.158l.38.222v.158l.38.222v.158l.38.222v.158l.38.222v.158l.38.222v.158l.379.222v.158l.38.221v.159l.38.221v.158l.38.222v.158l.38.222v.158l.38.222v.158l.38.222v.158l.379.222v.158l.38.222v.158l.38.221v.159l.38.221v.158l.38.222v.158l.38.222v.158l.38.222v.158l.38.222v.158l.38.222v.158l.379.222v.158l.38.221v.159l.38.221v.159l.38.221v.158l.38.222v.158l.38.222v.158l.38.222v.158l.38.222v.158l.379.222v.158l.38.222v.158l.38.221v.159l.38.221v.158l.38.222v.158l.38.222v.158l.38.222v.158l.38.222v.158l.379.222v.158l.38.222v.158l.38.221v.159l.38.221v.158l.38.222v.158l.38.222v.158l.38.222v.158l.38.222v.158l.379.222v.158l.38.222v.158l.38.221v.159l.38.221v.158l.38.222v.158l.38.222v.158l.38.222v.158l.38.222v.158l.379.222v.158l.38.222v.158l.38.221v.159l.38.221v.159l.38.221v.158l.38.222v.158l.38.222v.158l.38.222v.158l.38.222v.158l.379.222v.158l.38.222v.158l.38.221v.159l.38.221v.158l.38.222v.158l.38.222v.158l.38.222v.158l.38.222v.158l.379.222v.158l.38.222v.158l.38.221v.159l.38.221v.158l.38.222v.158l.38.222v.158l.38.222v.158l.38.222v.158l.379.222v.158l.38.222v.158l.38.221v.159l.38.221v.158l.38.222v.158l.38.222v.158l.38.222v.158l.38.222v.158l.379.222v.158l.38.222v.158l.38.222v.158l.38.221v.159l.38.221v.158l.38.222v.158l.38.222v.158l.38.222v.158l.38.222v.158l.379.222v.158l.38.221v.159l.38.221v.159l.38.221v.158l.38.222v.158l.38.222v.158l.38.222v.158l.38.222v.158l.379.222v.158l.38.222v.158l.38.221v.159l.38.221v.158l.38.222v.158l.38.222v.158l.38.222v.158l.38.222v.158l.379.222v.158l.38.222v.158l.38.221V483l.38.221v.158l.38.222v.158l.38.222v.158l.38.222v.158l.38.222v.158l.379.222v.158l.38.222v.158l.38.221v.159l.38.221v.159l.38.221v.158l.38.222v.158l.38.222v.158l.38.222v.158l.38.222v.158l.379.222v.158l.38.221v.159l.38.221v.159l.38.221v.158l.38.222v.158l.38.222v.158l.38.222v.158l.38.222v.158l.379.222v.158l.38.221v.159l.38.221v.159l.38.221v.158l.38.222v.158l.38.222v.158l.38.222v.158l.38.222v.158l.379.222v.158l.38.221v.159l.38.221v.159l.38.221v.158l.38.222v.158l.38.222v.158l.38.222v.158l.38.222v.158l.379.222v.158l.38.222v.158l.38.221v.159l.38.221v.158l.38.222v.158l39.229 22.896 39.228-22.896v-45.751z"/><path fill="#7fa3e9" fill-rule="evenodd" d="m362.5 316.733 39.229 22.886v45.752L362.5 408.267l-39.229-22.896v-45.752zm-29.332 28.655v34.224l29.332 17.107 29.332-17.107v-34.234L362.5 328.281z" clip-rule="evenodd"/><path fill="#7fa3e9" d="M372.396 362.495c0 5.529-4.433 9.998-9.896 9.998-5.462 0-9.896-4.469-9.896-9.998 0-5.519 4.434-9.998 9.896-9.998s9.896 4.479 9.896 9.998"/></g><path fill="#457aa5" d="M145 145.001v-145h72.335C257.467 0 290 32.46 290 72.5S257.467 145 217.335 145z"/><mask id="j" width="145" height="146" x="145" y="0" maskUnits="userSpaceOnUse" style="mask-type:alpha"><path fill="#457aa5" d="M145 145.001v-145h72.335C257.467 0 290 32.46 290 72.5S257.467 145 217.335 145z"/></mask><g mask="url(#j)"><path fill="#1a4690" d="M354.938 153.543c-.061-.061-.132-.103-.196-.16-.063-.071-.112-.149-.181-.217-.062-.061-.132-.104-.196-.16-.063-.071-.112-.149-.181-.217-.062-.061-.132-.104-.196-.16-.064-.072-.113-.149-.182-.218-.061-.061-.132-.103-.196-.16-.063-.071-.112-.149-.181-.217-.062-.061-.132-.104-.196-.16-.063-.071-.112-.149-.181-.217-.062-.061-.132-.104-.196-.16-.063-.071-.112-.149-.181-.218-.062-.06-.133-.103-.196-.16-.064-.071-.113-.148-.182-.217-.061-.061-.132-.103-.196-.16-.063-.071-.112-.149-.181-.217-.062-.061-.132-.104-.196-.16-.063-.071-.112-.149-.181-.217-.062-.061-.132-.104-.196-.16-.063-.071-.112-.149-.182-.218-.061-.061-.132-.103-.195-.16-.064-.071-.113-.149-.182-.217-.061-.061-.132-.104-.196-.16-.063-.071-.112-.149-.181-.217-.062-.061-.132-.104-.196-.16-.063-.071-.112-.149-.181-.217-.062-.061-.132-.104-.196-.161-.064-.071-.113-.148-.182-.217-.061-.061-.132-.103-.195-.16-.064-.071-.113-.149-.182-.217-.062-.061-.132-.104-.196-.16-.063-.071-.112-.149-.181-.217-.062-.061-.132-.104-.196-.16-.063-.071-.112-.149-.181-.218-.062-.061-.133-.103-.196-.16-.064-.071-.113-.148-.182-.217-.061-.061-.132-.103-.196-.16-.063-.071-.112-.149-.181-.217-.062-.061-.132-.104-.196-.16-.063-.071-.112-.149-.181-.217-.062-.061-.132-.104-.196-.16-.063-.071-.112-.149-.181-.218-.062-.061-.133-.103-.197-.16-.063-.071-.112-.149-.181-.217-.061-.061-.132-.103-.196-.16-.063-.071-.112-.149-.181-.217-.062-.061-.132-.104-.196-.16-.063-.071-.112-.149-.181-.217-.062-.061-.132-.104-.196-.161-.063-.071-.112-.148-.182-.217-.061-.061-.132-.103-.195-.16-.064-.071-.113-.149-.182-.217-.061-.061-.132-.104-.196-.16-.063-.071-.112-.149-.181-.217-.062-.061-.132-.104-.196-.16-.063-.071-.112-.149-.181-.218-.062-.061-.132-.103-.196-.16-.064-.071-.113-.149-.182-.217-.061-.061-.132-.104-.196-.16-.063-.071-.112-.149-.181-.217-.062-.061-.132-.104-.196-.16-.063-.071-.112-.149-.181-.217-.062-.061-.132-.104-.196-.161-.063-.071-.112-.148-.181-.217-.062-.061-.133-.103-.196-.16-.064-.071-.113-.149-.182-.217-.061-.061-.132-.104-.196-.16-.063-.071-.112-.149-.181-.217-.062-.061-.132-.104-.196-.16-.063-.071-.112-.149-.181-.218-.062-.061-.132-.103-.196-.16-.063-.071-.112-.149-.182-.217-.061-.061-.132-.103-.195-.16-.064-.071-.113-.149-.182-.217-.061-.061-.132-.104-.196-.16-.063-.071-.112-.149-.181-.217-.062-.061-.132-.104-.196-.161-.063-.071-.112-.148-.181-.217-.062-.061-.132-.103-.196-.16-.063-.071-.112-.149-.182-.217-.061-.061-.132-.104-.196-.16-.063-.071-.112-.149-.181-.217-.062-.061-.132-.104-.196-.16-.063-.071-.112-.149-.181-.217-.062-.062-.132-.104-.196-.161-.063-.071-.112-.148-.181-.217-.062-.061-.132-.103-.196-.16-.064-.071-.113-.149-.182-.217-.061-.061-.132-.104-.196-.16-.063-.071-.112-.149-.181-.217-.062-.061-.132-.104-.196-.16-.063-.071-.112-.149-.181-.218-.062-.061-.132-.103-.196-.16-.064-.071-.113-.149-.182-.217-.061-.061-.132-.103-.195-.16-.064-.071-.113-.149-.182-.217-.061-.061-.132-.104-.196-.16-.063-.071-.112-.149-.181-.217-.062-.061-.132-.104-.196-.16-.063-.072-.112-.149-.181-.218-.062-.061-.132-.103-.196-.16-.064-.071-.112-.149-.182-.217-.061-.061-.132-.104-.196-.16-.063-.071-.112-.149-.181-.217-.062-.061-.132-.104-.196-.16-.063-.071-.112-.149-.181-.218-.062-.061-.132-.103-.196-.16-.063-.071-.112-.149-.181-.217-.062-.061-.132-.103-.196-.16-.064-.071-.113-.149-.182-.217-.061-.061-.132-.104-.196-.16-.063-.071-.112-.149-.181-.217-.062-.061-.132-.104-.196-.16-.063-.072-.112-.149-.181-.218-.062-.061-.132-.103-.196-.16-.063-.071-.112-.149-.181-.217-.062-.061-.133-.104-.196-.16-.064-.071-.113-.149-.182-.217-.061-.061-.132-.104-.196-.16-.063-.071-.112-.149-.181-.218-.062-.06-.132-.103-.196-.16-.063-.071-.112-.148-.181-.217-.062-.061-.132-.103-.196-.16-.063-.071-.112-.149-.182-.217-.061-.061-.132-.104-.195-.16-.064-.071-.113-.149-.182-.217-.061-.061-.132-.104-.196-.16-.063-.071-.112-.149-.181-.218-.062-.06-.132-.103-.196-.159-.063-.072-.112-.15-.181-.218-.062-.061-.132-.104-.196-.16-.064-.071-.113-.149-.182-.217-.061-.061-.132-.104-.196-.16-.063-.071-.112-.149-.181-.217-.062-.061-.132-.104-.196-.161-.063-.071-.112-.148-.181-.217-.062-.061-.132-.103-.196-.16-.063-.071-.112-.149-.181-.217-.062-.061-.133-.104-.196-.16-.064-.071-.113-.149-.182-.217-.061-.061-.132-.104-.196-.16-.063-.071-.112-.149-.181-.218-.062-.061-.132-.103-.196-.16-.063-.071-.112-.148-.181-.217-.062-.061-.132-.103-.196-.16-.063-.071-.112-.149-.182-.217-.061-.061-.132-.104-.195-.16-.064-.071-.113-.149-.182-.217-.061-.061-.132-.104-.196-.16-.063-.071-.112-.149-.181-.218-.062-.061-.132-.103-.196-.16-.063-.071-.112-.149-.181-.217-.062-.061-.132-.104-.196-.16-.064-.071-.113-.149-.182-.217-.061-.061-.132-.104-.196-.16-.063-.071-.112-.149-.181-.217-.062-.061-.132-.104-.196-.161-.063-.071-.112-.148-.181-.217-.062-.061-.132-.103-.196-.16-.063-.071-.112-.149-.181-.217-.062-.061-.133-.104-.196-.16-.064-.071-.113-.149-.182-.217-.061-.061-.132-.104-.196-.16-.063-.071-.112-.149-.181-.218-.062-.061-.132-.103-.196-.16-.063-.071-.112-.149-.181-.217-.062-.061-.132-.104-.196-.16-.063-.071-.112-.149-.181-.217-.062-.061-.133-.104-.196-.16-.064-.071-.113-.149-.182-.217-.061-.061-.132-.104-.196-.161-.063-.071-.112-.148-.181-.217-.062-.061-.132-.103-.196-.16-.063-.071-.112-.149-.181-.217-.062-.061-.132-.104-.196-.16-.063-.071-.112-.149-.182-.217-.061-.061-.132-.104-.196-.16-.063-.071-.112-.149-.181-.218-.061-.06-.132-.103-.196-.159-.063-.072-.112-.149-.181-.218-.062-.061-.132-.103-.196-.16-.063-.071-.112-.149-.181-.217-.062-.061-.132-.104-.196-.16-.064-.071-.113-.149-.182-.217-.061-.061-.132-.104-.196-.161-.063-.071-.112-.148-.181-.217-.062-.061-.132-.103-.196-.16-.063-.071-.112-.149-.181-.217-.062-.061-.132-.104-.196-.16-.063-.071-.112-.149-.181-.217-.062-.061-.133-.104-.196-.16-.064-.071-.113-.149-.182-.217-.061-.062-.132-.104-.196-.161-.063-.071-.112-.148-.181-.217-.062-.061-.132-.103-.196-.16-.063-.071-.112-.149-.181-.217-.062-.061-.132-.104-.196-.16-.063-.071-.112-.149-.182-.217-.061-.061-.132-.104-.195-.16-.064-.071-.113-.149-.182-.218-.061-.061-.132-.103-.196-.16-.063-.071-.112-.149-.181-.217-.062-.061-.132-.103-.196-.16-.063-.071-.112-.149-.181-.217-.062-.061-.132-.104-.196-.16-.064-.071-.113-.149-.182-.217-.061-.061-.132-.104-.196-.16-.063-.072-.112-.149-.181-.218-.062-.061-.132-.103-.196-.16-.063-.071-.112-.149-.181-.217-.062-.061-.132-.104-.196-.16-.063-.071-.112-.149-.181-.217-.062-.061-.133-.104-.196-.16-.064-.071-.113-.149-.182-.218-.061-.061-.132-.103-.196-.16-.063-.071-.112-.149-.181-.217-.062-.061-.132-.103-.196-.16-.063-.071-.112-.149-.181-.217-.062-.061-.132-.104-.196-.16-.063-.071-.112-.149-.182-.217-.061-.061-.132-.104-.195-.16-.064-.072-.113-.149-.182-.218-.061-.061-.132-.103-.196-.16-.063-.071-.112-.149-.181-.217-.062-.061-.132-.104-.196-.16-.063-.071-.112-.149-.181-.217-.062-.061-.132-.104-.196-.16-.064-.071-.113-.149-.182-.217-.061-.061-.132-.104-.195-.16-.064-.071-.113-.149-.182-.218-.062-.061-.132-.103-.196-.16-.063-.071-.112-.149-.181-.217-.062-.061-.132-.104-.196-.16-.063-.071-.112-.149-.181-.217-.062-.061-.133-.104-.196-.16-.064-.071-.113-.149-.182-.218-.061-.06-.132-.103-.196-.159-.063-.072-.112-.15-.181-.218-.062-.061-.132-.104-.196-.16-.063-.071-.112-.149-.181-.217-.062-.061-.132-.104-.196-.16-.063-.071-.112-.149-.181-.217-.062-.061-.133-.104-.197-.161-.063-.071-.112-.148-.181-.217-.061-.061-.132-.103-.196-.16-.063-.071-.112-.149-.181-.217-.062-.061-.132-.104-.196-.16-.063-.071-.112-.149-.181-.217-.062-.061-.132-.104-.196-.16-.063-.071-.113-.149-.182-.218-.061-.06-.132-.103-.195-.16-.064-.071-.113-.148-.182-.217-.061-.061-.132-.103-.196-.16-.063-.071-.112-.149-.181-.217-.062-.061-.132-.104-.196-.16-.063-.071-.112-.149-.181-.217-.062-.061-.132-.104-.196-.16-.064-.071-.113-.149-.182-.218-.061-.061-.132-.103-.196-.16-.063-.071-.112-.149-.181-.217-.062-.061-.132-.104-.196-.16-.063-.071-.112-.149-.181-.217-.062-.061-.132-.104-.196-.16-.063-.071-.112-.149-.181-.217-.062-.061-.133-.104-.196-.161-.064-.071-.113-.148-.182-.217-.061-.061-.132-.103-.196-.16-.063-.071-.112-.149-.181-.217-.062-.061-.132-.104-.196-.16-.063-.071-.112-.149-.181-.217-.062-.061-.132-.104-.196-.16-.063-.071-.112-.149-.182-.218-.061-.061-.132-.103-.195-.16-.064-.071-.113-.149-.182-.217-.061-.061-.132-.104-.196-.16-.063-.071-.112-.149-.181-.217-.062-.061-.132-.104-.196-.16-.063-.071-.112-.149-.181-.217-.062-.061-.132-.104-.196-.16-.064-.071-.113-.149-.182-.218-.061-.061-.132-.103-.196-.16-.063-.071-.112-.149-.181-.217-.062-.061-.132-.104-.196-.16-.063-.071-.112-.149-.181-.217-.062-.061-.132-.104-.196-.16-.063-.071-.112-.15-.181-.218-.062-.06-.132-.103-.196-.16-.064-.07-.113-.148-.182-.217-.061-.06-.132-.103-.196-.16-.063-.07-.112-.149-.181-.217-.062-.061-.132-.104-.196-.16-.063-.071-.112-.149-.181-.217-.062-.061-.132-.104-.196-.16-.064-.072-.113-.15-.182-.218-.061-.06-.132-.103-.195-.16-.064-.07-.113-.149-.182-.217-.061-.06-.132-.104-.196-.16-.063-.071-.112-.149-.181-.217-.062-.061-.132-.104-.196-.16-.063-.071-.112-.15-.181-.218-.062-.06-.132-.103-.196-.16-.064-.07-.113-.148-.182-.217-.061-.06-.132-.103-.196-.16-.063-.07-.112-.149-.181-.217-.062-.061-.132-.104-.196-.16-.063-.071-.112-.149-.181-.217-.062-.061-.132-.104-.196-.16-.063-.071-.112-.15-.181-.218-.062-.06-.132-.103-.196-.16-.064-.07-.113-.148-.182-.217-.061-.06-.132-.103-.196-.16-.063-.07-.112-.149-.181-.217-.062-.061-.132-.104-.196-.16-.063-.071-.112-.15-.181-.217-.062-.061-.132-.104-.196-.16-.063-.072-.112-.15-.181-.218-.062-.06-.133-.103-.196-.16-.064-.07-.113-.149-.182-.217-.061-.06-.132-.103-.196-.16-.063-.071-.112-.149-.181-.217-.062-.061-.132-.104-.196-.16-.063-.071-.112-.15-.181-.218-.062-.06-.132-.103-.196-.16-.063-.07-.112-.148-.182-.217-.061-.06-.132-.103-.195-.16-.064-.07-.113-.149-.182-.217-.061-.061-.132-.104-.196-.16-.063-.071-.112-.149-.181-.217-.062-.061-.132-.104-.196-.16-.063-.071-.112-.15-.181-.218-.062-.06-.133-.103-.196-.16-.064-.07-.113-.149-.182-.217-.061-.06-.132-.104-.196-.16-.063-.071-.112-.149-.181-.217-.062-.061-.132-.104-.196-.16-.063-.071-.112-.15-.181-.217-.062-.061-.132-.104-.196-.16-.063-.072-.112-.15-.181-.218-.062-.06-.133-.103-.196-.16-.064-.07-.113-.149-.182-.217-.061-.061-.132-.104-.196-.16-.063-.071-.112-.149-.181-.217-.062-.061-.132-.104-.196-.16-.063-.072-.112-.15-.181-.218-.062-.06-.132-.103-.196-.16-.063-.07-.112-.148-.182-.217-.061-.06-.132-.103-.196-.16-.063-.071-.112-.149-.181-.217-.062-.061-.132-.104-.196-.16-.063-.071-.112-.15-.181-.217-.062-.061-.132-.104-.196-.16-.063-.072-.112-.15-.181-.218-.062-.06-.132-.103-.196-.16-.064-.07-.113-.149-.182-.217-.061-.061-.132-.104-.196-.16-.063-.071-.112-.149-.181-.217-.062-.061-.132-.104-.196-.16-.063-.071-.112-.15-.181-.218-.062-.06-.132-.103-.196-.16-.063-.07-.112-.148-.181-.217-.062-.06-.133-.103-.196-.16-.064-.07-.113-.149-.182-.217-.061-.061-.132-.104-.196-.16-.063-.071-.112-.15-.181-.217-.062-.061-.132-.104-.196-.16-.063-.072-.112-.15-.181-.218-.062-.06-.132-.103-.196-.16-.063-.07-.112-.149-.181-.217-.062-.06-.133-.103-.196-.16-.064-.071-.113-.149-.182-.217-.061-.061-.132-.104-.196-.16-.063-.071-.112-.15-.181-.218-.062-.06-.132-.103-.196-.16-.063-.07-.112-.148-.181-.217-.062-.06-.132-.103-.196-.16-.064-.07-.113-.149-.182-.217-.061-.061-.132-.104-.196-.16-.063-.071-.112-.149-.181-.217-.061-.061-.132-.104-.196-.16-.063-.071-.112-.15-.181-.218-.062-.06-.132-.103-.196-.16-.063-.07-.112-.148-.181-.217-.062-.06-.133-.104-.196-.16-.064-.071-.113-.149-.182-.217-.061-.061-.132-.104-.196-.16-.063-.071-.112-.15-.181-.217-.062-.061-.132-.104-.196-.16-.063-.071-.112-.15-.181-.218-.062-.06-.132-.103-.196-.16-.063-.07-.112-.149-.181-.217-.062-.06-.133-.104-.196-.16-.064-.071-.113-.149-.182-.217-.061-.061-.132-.104-.196-.16-.063-.071-.112-.15-.181-.218-.062-.06-.132-.103-.196-.16-.063-.07-.112-.148-.181-.217-.062-.06-.132-.103-.196-.16-.064-.07-.113-.149-.182-.217-.061-.061-.132-.104-.196-.16-.063-.071-.112-.149-.181-.217-.062-.061-.132-.104-.196-.16-.063-.071-.112-.15-.181-.218-.062-.06-.132-.103-.196-.16-.063-.07-.112-.149-.181-.217-.062-.06-.132-.104-.196-.16-.064-.071-.113-.149-.182-.217-.061-.061-.132-.104-.196-.16-.063-.071-.112-.15-.181-.218-.062-.06-.132-.103-.196-.16-.063-.07-.112-.148-.181-.217-.062-.06-.132-.103-.196-.16-.063-.07-.112-.149-.181-.217-.062-.061-.133-.104-.196-.16-.064-.071-.113-.149-.182-.217-.061-.061-.132-.104-.196-.16-.063-.071-.112-.15-.181-.218-.062-.06-.132-.103-.196-.16-.063-.07-.112-.149-.181-.217-.062-.06-.132-.103-.196-.16-.063-.07-.112-.149-.182-.217-.061-.061-.132-.104-.195-.16-.064-.071-.113-.15-.182-.217-.061-.061-.132-.104-.196-.16-.063-.072-.112-.15-.181-.218-.062-.06-.132-.103-.196-.16-.063-.07-.112-.149-.181-.217-.062-.061-.132-.104-.196-.16-.064-.071-.113-.149-.182-.217-.061-.061-.132-.104-.195-.16-.064-.071-.113-.15-.182-.218-.062-.06-.132-.103-.196-.16-.063-.07-.112-.148-.181-.217-.062-.06-.132-.103-.196-.16-.063-.07-.112-.149-.181-.217-.062-.061-.133-.104-.196-.16-.064-.071-.113-.149-.182-.217-.061-.061-.132-.104-.196-.16-.063-.071-.112-.15-.181-.218-.062-.06-.132-.103-.196-.16-.063-.07-.112-.149-.181-.217-.062-.06-.132-.103-.196-.16-.063-.071-.112-.149-.182-.217-.061-.061-.132-.104-.196-.16-.063-.071-.112-.15-.181-.217-.061-.061-.132-.104-.196-.16-.063-.072-.112-.15-.181-.218-.062-.06-.132-.103-.196-.16-.063-.07-.112-.149-.181-.217-.062-.061-.132-.104-.196-.16-.064-.071-.113-.149-.182-.217-.061-.061-.132-.104-.196-.16-.063-.071-.112-.15-.181-.218-.062-.06-.132-.103-.196-.16-.063-.07-.112-.149-.181-.217-.062-.06-.132-.103-.196-.16-.063-.071-.112-.149-.181-.217-.062-.061-.133-.104-.196-.16-.064-.071-.113-.15-.182-.217-.061-.061-.132-.104-.196-.16-.063-.072-.112-.15-.181-.218-.062-.06-.132-.103-.196-.16-.063-.07-.112-.149-.181-.217-.062-.061-.132-.104-.196-.16-.063-.071-.112-.149-.181-.217-.062-.061-.133-.104-.196-.16-.064-.071-.113-.15-.182-.218-.061-.06-.132-.103-.196-.16-.063-.07-.112-.148-.181-.217-.062-.06-.132-.103-.196-.16-.063-.07-.112-.149-.181-.217-.062-.061-.132-.104-.196-.16-.064-.071-.113-.15-.182-.217-.061-.061-.132-.104-.196-.16-.063-.072-.112-.15-.181-.218-.061-.06-.132-.103-.196-.16-.063-.07-.112-.149-.181-.217-.062-.06-.132-.104-.196-.16-.063-.071-.112-.149-.181-.217-.062-.061-.132-.104-.196-.16-.064-.071-.113-.15-.182-.218-.061-.06-.132-.103-.196-.16-.063-.07-.112-.148-.181-.217-.062-.06-.132-.103-.196-.16-.063-.07-.112-.149-.181-.217-.062-.061-.132-.104-.196-.16-.063-.071-.112-.149-.181-.217-.062-.061-.133-.104-.196-.16-.064-.071-.113-.15-.182-.218-.061-.06-.132-.103-.196-.16-.063-.07-.112-.148-.181-.217-.062-.06-.132-.103-.196-.16-.063-.071-.112-.149-.181-.217-.062-.061-.132-.104-.196-.16-.064-.071-.113-.15-.182-.217-.061-.061-.132-.104-.195-.16-.064-.071-.113-.15-.182-.218-.062-.06-.132-.103-.196-.16-.063-.07-.112-.149-.181-.217-.062-.06-.132-.104-.196-.16-.063-.071-.112-.149-.181-.217-.062-.061-.132-.104-.196-.16-.064-.071-.113-.15-.182-.218-.061-.06-.132-.103-.196-.16-.063-.07-.112-.148-.181-.217-.062-.06-.132-.103-.196-.16-.063-.07-.112-.149-.181-.217-.062-.061-.132-.104-.196-.16-.063-.071-.112-.149-.181-.217-.062-.061-.133-.104-.196-.16-.064-.071-.113-.15-.182-.218-.061-.06-.132-.103-.196-.16-.063-.07-.112-.149-.181-.217-.062-.06-.132-.104-.196-.16-.063-.071-.112-.149-.181-.217-.062-.061-.132-.104-.196-.16-.063-.071-.112-.15-.182-.218-.061-.06-.132-.103-.195-.16-.064-.07-.113-.148-.182-.217-.061-.06-.132-.103-.196-.16-.063-.07-.112-.149-.181-.217-.062-.061-.132-.104-.196-.16-.063-.071-.112-.149-.181-.217-.062-.061-.132-.104-.196-.16-.064-.071-.113-.15-.182-.218-.061-.06-.132-.103-.196-.16-.063-.07-.112-.148-.181-.217-.062-.06-.132-.104-.196-.16-.063-.071-.112-.149-.181-.217-.062-.061-.132-.104-.196-.16-.063-.071-.112-.149-.181-.217-.062-.061-.133-.104-.196-.16-.064-.072-.113-.15-.182-.218-.061-.06-.132-.103-.196-.16-.063-.07-.112-.149-.181-.217-.062-.061-.132-.104-.196-.16-.063-.071-.112-.149-.181-.217-.062-.061-.132-.104-.196-.16-.063-.071-.112-.15-.182-.218-.061-.06-.132-.103-.195-.16-.064-.07-.113-.149-.182-.217-.061-.06-.132-.103-.196-.16-.063-.07-.112-.149-.181-.217-.062-.061-.132-.104-.196-.16-.063-.071-.112-.149-.181-.217-.062-.061-.132-.104-.196-.16-.063-.071-.112-.15-.182-.218-.061-.06-.132-.103-.196-.16-.063-.07-.112-.149-.181-.217-.062-.06-.132-.103-.196-.16-.063-.071-.112-.149-.181-.217-.062-.061-.132-.104-.196-.16-.063-.071-.112-.15-.181-.217-.062-.061-.133-.104-.196-.16-.064-.072-.113-.15-.182-.218-.061-.06-.132-.103-.196-.16-.063-.07-.112-.149-.181-.217-.062-.061-.132-.104-.196-.16-.063-.071-.112-.149-.181-.217-.062-.061-.132-.104-.196-.16-.063-.071-.112-.15-.181-.218-.062-.06-.133-.103-.196-.16-.064-.07-.113-.149-.182-.217-.061-.06-.132-.103-.196-.16-.063-.071-.112-.149-.181-.217-.062-.061-.132-.104-.196-.16-.063-.071-.112-.15-.181-.217-.062-.061-.132-.104-.196-.16-.063-.072-.112-.15-.182-.218-.061-.06-.132-.103-.195-.16-.064-.07-.113-.149-.182-.217-.061-.061-.132-.104-.196-.16-.063-.071-.112-.149-.181-.217-.062-.061-.132-.104-.196-.16-.063-.071-.112-.15-.181-.218-.062-.06-.132-.103-.196-.16-.064-.07-.113-.148-.182-.217-.061-.06-.132-.104-.196-.16-.063-.071-.112-.149-.181-.217-.062-.06-.132-.104-.196-.16-.063-.071-.112-.149-.181-.217-.062-.061-.132-.104-.196-.16-.063-.072-.112-.15-.181-.218-.062-.06-.133-.103-.196-.16-.064-.07-.113-.149-.182-.217-.061-.06-.132-.104-.196-.16-.063-.071-.112-.149-.181-.217-.062-.061-.132-.104-.196-.16-.063-.071-.112-.15-.181-.218-.062-.06-.132-.103-.196-.16-.063-.07-.112-.148-.182-.217-.061-.06-.132-.103-.195-.16-.064-.07-.113-.149-.182-.217-.061-.061-.132-.104-.196-.16-.063-.071-.112-.149-.181-.217-.062-.061-.132-.104-.196-.16-.063-.071-.112-.15-.181-.218-.062-.06-.132-.103-.196-.16-.064-.07-.113-.148-.182-.217-.061-.06-.132-.104-.196-.16-.063-.07-.112-.149-.181-.217q-1.234-1.22-3.059-1.22-1.824 0-3.058 1.22c-.47.465-.79 1-.992 1.592l-.072-.058c-.063-.071-.112-.15-.181-.218-.061-.06-.132-.103-.196-.16-.063-.07-.112-.148-.181-.217-.062-.06-.132-.103-.196-.16-.063-.07-.112-.149-.181-.217-.062-.061-.132-.104-.196-.16-.063-.071-.112-.149-.182-.217-.061-.061-.132-.104-.196-.16-.063-.072-.112-.15-.181-.218-.061-.06-.132-.103-.196-.16-.063-.07-.112-.148-.181-.217-.062-.06-.132-.103-.196-.16-.063-.07-.112-.149-.181-.217-.062-.061-.132-.104-.196-.16-.064-.071-.113-.15-.182-.217-.061-.061-.132-.104-.196-.16-.063-.072-.112-.15-.181-.218-.062-.06-.132-.103-.196-.16-.063-.07-.112-.149-.181-.217-.062-.06-.132-.103-.196-.16-.063-.071-.112-.149-.181-.217-.062-.061-.133-.104-.196-.16-.064-.071-.113-.15-.182-.218-.061-.06-.132-.103-.196-.16-.063-.07-.112-.148-.181-.217-.062-.06-.132-.104-.196-.16-.063-.071-.112-.149-.181-.217-.062-.061-.132-.104-.196-.16-.063-.071-.112-.149-.182-.217-.061-.061-.132-.104-.195-.16-.064-.072-.113-.15-.182-.218-.061-.06-.132-.103-.196-.16-.063-.07-.112-.149-.181-.217-.062-.06-.132-.104-.196-.16-.063-.071-.112-.149-.181-.217-.062-.061-.132-.104-.196-.16-.064-.071-.113-.15-.182-.218-.061-.06-.132-.103-.196-.16-.063-.07-.112-.148-.181-.217-.062-.06-.132-.103-.196-.16-.063-.07-.112-.149-.181-.217-.062-.061-.132-.104-.196-.16-.063-.071-.112-.149-.181-.217-.062-.061-.133-.104-.196-.16-.064-.071-.113-.15-.182-.218-.061-.06-.132-.103-.196-.16-.063-.07-.112-.148-.181-.217-.062-.06-.132-.104-.196-.16-.063-.071-.112-.149-.181-.217-.062-.061-.132-.104-.196-.16-.064-.071-.113-.15-.182-.217-.061-.061-.132-.104-.195-.16-.064-.071-.113-.15-.182-.218q-1.234-1.22-3.058-1.22-1.825 0-3.059 1.22-1.234 1.221-1.234 3.026v2.55l-.011-.013c-.061-.06-.132-.103-.196-.16-.063-.07-.112-.149-.181-.217-.062-.061-.132-.104-.196-.16-.063-.071-.112-.149-.181-.217-.062-.061-.132-.104-.196-.16-.063-.071-.112-.15-.182-.218-.061-.06-.132-.103-.195-.16-.064-.07-.113-.148-.182-.217-.061-.06-.132-.104-.196-.16-.063-.071-.112-.149-.181-.217-.062-.061-.132-.104-.196-.16-.063-.071-.112-.15-.181-.217-.062-.061-.132-.104-.196-.16-.063-.072-.113-.15-.182-.218-.061-.06-.132-.103-.195-.16-.064-.07-.113-.149-.182-.217-.062-.061-.132-.104-.196-.16-.063-.071-.112-.149-.181-.217-.062-.061-.132-.104-.196-.16-.063-.072-.112-.15-.181-.218-.062-.06-.132-.103-.196-.16-.064-.07-.113-.148-.182-.217-.061-.06-.132-.103-.196-.16-.063-.07-.112-.149-.181-.217-.062-.061-.132-.104-.196-.16-.063-.071-.112-.149-.181-.217-.062-.061-.132-.104-.196-.16-.063-.072-.112-.15-.181-.218-.062-.06-.133-.103-.197-.16-.063-.07-.112-.149-.181-.217-.061-.06-.132-.104-.196-.16-.063-.071-.112-.149-.181-.217-.062-.061-.132-.104-.196-.16-.063-.071-.112-.15-.181-.218-.062-.06-.132-.103-.196-.16-.063-.07-.112-.148-.182-.217-.061-.06-.132-.104-.196-.16-.063-.071-.112-.149-.181-.217-.061-.061-.132-.104-.196-.16-.063-.071-.112-.149-.181-.217-.062-.061-.132-.104-.196-.16-.063-.071-.112-.15-.181-.218-.062-.06-.133-.103-.196-.16-.064-.07-.113-.149-.182-.217-.061-.06-.132-.104-.196-.16-.063-.071-.112-.149-.181-.217-.062-.061-.132-.104-.196-.16-.063-.071-.112-.15-.181-.217-.062-.061-.132-.104-.196-.16-.063-.071-.112-.15-.182-.218-.061-.06-.132-.103-.195-.16-.064-.07-.113-.149-.182-.217q-1.234-1.22-3.058-1.22-1.825 0-3.059 1.22t-1.234 3.026v15.288l-.011-.012c-.061-.061-.132-.104-.196-.16-.063-.071-.112-.15-.181-.218-.062-.06-.132-.103-.196-.16-.063-.07-.112-.148-.181-.217-.062-.06-.132-.104-.196-.16-.063-.071-.112-.149-.181-.217-.062-.061-.133-.104-.197-.16-.063-.071-.112-.15-.181-.217-.061-.061-.132-.104-.196-.16-.063-.072-.112-.15-.181-.218-.062-.06-.132-.103-.196-.16-.063-.07-.112-.149-.181-.217-.062-.061-.132-.104-.196-.16-.064-.071-.112-.149-.182-.217-.061-.061-.132-.104-.196-.16-.063-.071-.112-.15-.181-.218-.061-.06-.132-.103-.196-.16-.063-.07-.112-.148-.181-.217-.062-.06-.132-.103-.196-.16-.063-.07-.112-.149-.181-.217-.062-.061-.132-.104-.196-.16-.064-.071-.113-.149-.182-.217-.061-.061-.132-.104-.196-.16-.063-.072-.112-.15-.181-.218-.062-.06-.132-.103-.196-.16-.063-.07-.112-.148-.181-.217-.062-.06-.132-.104-.196-.16-.063-.071-.112-.149-.181-.217-.062-.061-.133-.104-.196-.16-.064-.071-.113-.15-.182-.218-.061-.06-.132-.103-.196-.16-.063-.07-.112-.148-.181-.217-.062-.06-.132-.103-.196-.16-.063-.07-.112-.149-.181-.217-.062-.06-.132-.104-.196-.16-.064-.071-.113-.149-.182-.217-.061-.061-.132-.104-.195-.16-.064-.071-.113-.15-.182-.218-.062-.06-.132-.103-.196-.16-.063-.07-.112-.148-.181-.217-.062-.06-.132-.104-.196-.16-.063-.071-.112-.149-.181-.217-.062-.061-.133-.104-.196-.16-.064-.071-.113-.149-.182-.217-.061-.061-.132-.104-.196-.16-.063-.071-.112-.15-.181-.218-.062-.06-.132-.103-.196-.16-.063-.07-.112-.149-.181-.217-.062-.061-.132-.104-.196-.16-.064-.071-.112-.149-.182-.217-.061-.061-.132-.104-.195-.16-.064-.071-.113-.15-.182-.217q-1.234-1.221-3.058-1.221-1.825 0-3.059 1.22-1.234 1.221-1.234 3.026v40.658l-11.805-8.068q-2.576-1.804-5.742-1.486t-5.312 2.548a3.48 3.48 0 0 0-1.02 2.07q-.16 1.22.591 2.282l18.995 27.601a35 35 0 0 0 4.267 5.054l.376.377q.188.19.378.377.187.19.377.377.187.19.378.378.187.19.377.377.187.19.377.377.187.19.377.377.188.19.378.378.187.19.377.377.187.19.377.377.187.19.377.377.188.19.378.378.187.19.377.377.187.19.377.377.187.19.377.377.187.19.378.378.187.19.377.377.187.19.377.377.187.19.377.378.187.19.377.376.188.191.378.379.187.19.377.376.188.19.378.378.186.19.376.376.188.191.379.379.186.19.376.376.188.19.378.378.187.19.376.376.188.191.379.379l.376.377q.188.19.378.377.187.19.377.377.187.19.378.378.187.19.377.377.187.19.377.377.187.19.377.377.188.19.378.378.187.19.377.377.187.19.377.377.187.19.377.377.187.19.378.378.187.19.377.377.187.19.377.377.187.19.377.377.187.19.377.377.188.191.378.378.187.19.377.377.187.19.377.378.187.19.377.376.188.191.378.379.187.19.377.376.188.19.378.378.186.19.376.376.188.191.379.379.186.19.376.376.188.19.378.378.187.19.376.376.188.191.379.379l.376.377q.188.19.378.377.187.19.377.377.187.19.378.378.187.19.377.377.187.19.377.377.187.19.377.377.187.19.377.378.188.19.378.377.187.19.377.377.187.19.377.377.187.19.377.377.188.191.378.378.187.19.377.377.187.19.377.377.187.19.377.377.188.191.378.378.187.19.377.377.187.19.377.378.187.19.377.376.188.191.378.379.187.19.377.376.188.19.378.378.187.19.376.376.188.191.379.379.187.19.376.376.188.19.378.378.187.19.376.376.188.191.379.379l.376.377q.188.19.378.377.187.19.377.377.187.19.377.377.188.191.378.378.187.19.377.377.187.19.377.377.187.19.377.377.188.191.378.378.187.19.377.377.187.19.377.377.187.19.377.377.188.191.378.378.187.19.377.377.187.19.377.377.187.19.377.377.188.191.378.378.187.19.377.377.187.19.377.378.187.19.377.376.188.191.379.379.186.19.376.376.187.19.378.378.186.19.376.376.188.191.379.379.187.19.376.376.188.19.378.378.187.19.376.376.188.191.378.378.188.191.378.378.187.19.377.377.187.19.377.377.187.19.377.377.188.19.378.378.187.19.377.377.187.19.377.377.187.19.377.377.188.191.378.378.187.19.377.377.187.19.377.377.187.19.377.377.188.191.378.378.187.19.377.377.187.19.377.377.187.19.377.377.188.191.378.378.187.19.377.377.187.19.377.377.187.19.377.377.188.191.379.379.186.19.376.376.187.19.378.378.186.19.376.376.188.191.378.378.188.19.378.378.187.19.377.377.187.19.377.377.187.19.377.377.188.19.378.378.187.19.377.377.187.19.377.377.187.19.377.377.188.19.378.378.187.19.377.377.187.19.377.377.187.19.377.377.188.191.378.378.187.19.377.377.187.19.377.377.187.19.377.377.188.191.378.378.187.19.377.377.187.19.377.377.187.19.377.377.188.191.378.378.187.19.377.377.187.19.377.377.187.19.377.377.188.191.378.378.188.19.378.378.187.19.377.377.187.19.377.377.187.19.377.377.188.19.378.378.187.19.377.377.187.19.377.377.187.19.377.377.188.19.378.378.187.19.377.377.187.19.377.377.187.19.377.377.188.19.378.378.187.19.377.377.187.19.377.377.187.19.377.377.188.191.378.378.187.19.377.377.187.19.377.377.187.19.377.377.188.191.378.378.187.19.377.377.187.19.377.377.187.19.377.377.188.191.378.378.188.19.378.378.187.19.376.376.188.19.378.378.187.19.377.377.187.19.378.378.187.19.377.377.187.19.377.377.187.19.377.377.188.19.378.378.187.19.377.377.187.19.377.377.187.19.377.377.188.19.378.378.187.19.377.377.187.19.377.377.187.19.377.377.188.19.378.378.187.19.377.377.187.19.377.377.187.19.377.377.188.191.378.378.187.19.377.377.187.19.377.377.187.19.377.377.188.19.378.378.187.19.378.378.187.19.376.376.187.19.378.378l.376.377q.188.19.379.378.187.19.376.376.188.19.378.378.187.19.377.377.187.19.378.378.187.19.377.377.187.19.377.377.187.19.377.377.188.19.378.378.187.19.377.377.187.19.377.377.187.19.377.377.188.19.378.378.187.19.377.377.187.19.377.377.187.19.377.377.188.191.378.378.187.19.377.377.187.19.377.377.187.19.377.377.187.19.378.378.187.19.377.378.187.19.377.376.188.19.378.378.187.19.376.376.188.191.379.379.187.19.376.376.188.19.378.378l.376.377q.188.19.379.378.187.19.376.376.188.19.378.378.187.19.377.377.187.19.378.378.187.19.377.377.187.19.377.377.187.19.377.377.188.19.378.378.187.19.377.377.187.19.377.377.187.19.377.377.187.19.378.378.187.19.377.377.187.19.377.377.187.19.377.377.187.19.378.378.187.19.377.377.187.19.377.377.187.19.377.378.187.19.377.376.188.191.378.379.187.19.377.376.188.19.378.378.186.19.376.376.188.191.379.379.187.19.376.376.188.19.378.378.187.19.376.376.188.191.379.379l.376.377q.188.19.378.377.187.19.377.377.187.19.378.378.187.19.377.377.187.19.377.377.187.19.377.377.187.19.378.378.187.19.377.377.187.19.377.377.187.19.377.377.187.19.377.378.188.19.378.377.187.19.377.377.187.19.377.377.187.19.377.377.188.191.378.378.187.19.377.377.187.19.377.378.187.19.377.376a34.5 34.5 0 0 0 8.776 6.418q7.727 3.981 16.527 3.981 14.702 0 24.951-10.138t10.249-24.682v-41.613q0-1.805-1.234-3.025z" opacity=".6" style="mix-blend-mode:multiply"/></g><path fill="#7fa3e9" d="M207.789 119.819q-8.799 0-16.527-3.981-7.727-3.981-12.663-11.093l-18.996-27.6q-.751-1.063-.59-2.283a3.46 3.46 0 0 1 1.02-2.07q2.145-2.23 5.312-2.548 3.165-.318 5.741 1.486l11.805 8.068V39.14q0-1.804 1.235-3.025 1.234-1.221 3.058-1.221t3.059 1.22q1.234 1.222 1.234 3.026v48.832q0 2.548-2.307 3.769-2.308 1.22-4.454-.266l-9.122-6.263 10.195 14.65q3.756 5.413 9.551 8.439 5.796 3.026 12.449 3.026 11.055 0 18.835-7.697 7.78-7.695 7.78-18.63V43.386q0-1.804 1.235-3.025 1.234-1.22 3.058-1.22t3.059 1.22q1.234 1.22 1.234 3.025V85q0 14.543-10.249 24.681t-24.952 10.138m-3.434-93.418q1.824 0 3.059 1.221 1.234 1.221 1.234 3.026v38.216q0 1.805-1.234 3.025-1.235 1.221-3.059 1.221t-3.058-1.22q-1.235-1.221-1.235-3.026V30.648q0-1.805 1.235-3.026 1.233-1.22 3.058-1.22m17.171 4.247q1.824 0 3.059 1.22 1.234 1.221 1.234 3.026v33.97q0 1.805-1.234 3.025-1.235 1.221-3.059 1.221t-3.058-1.22-1.235-3.026v-33.97q0-1.805 1.235-3.026 1.234-1.22 3.058-1.22"/><path fill="#286ad8" d="M329.424 145.001c-21.773 0-39.424-17.853-39.424-39.875V.001h145v145z"/><path fill="#cce0f6" d="M435 0h145v145H435z"/><path fill="#286ad8" d="M507.5 145c40.04 0 72.5-32.459 72.5-72.5S547.54 0 507.5 0 435 32.46 435 72.5s32.459 72.5 72.5 72.5"/><mask id="k" width="145" height="145" x="435" y="0" maskUnits="userSpaceOnUse" style="mask-type:alpha"><path fill="#286ad8" d="M507.5 145c40.04 0 72.5-32.459 72.5-72.5S547.54 0 507.5 0 435 32.46 435 72.5s32.459 72.5 72.5 72.5"/></mask><g mask="url(#k)"><mask id="l" width="145" height="145" x="435" y="0" maskUnits="userSpaceOnUse" style="mask-type:alpha"><path fill="#286ad8" d="M507.5 145c40.04 0 72.5-32.459 72.5-72.5S547.54 0 507.5 0 435 32.46 435 72.5s32.459 72.5 72.5 72.5"/></mask><g mask="url(#l)"><path fill="#1a4690" d="M598.186 92.207 587.87 119.98l-15.601 20.638-21.066 15.478-16.626 6.422-7.483 2.018-53.256-53.623a33 33 0 0 1-.371-.372l-.368-.372a32 32 0 0 1-.369-.372q-.187-.185-.371-.373a33 33 0 0 1-.371-.373l-.369-.371a50.9 50.9 0 0 1-14.992-36.165c0-28.104 22.627-50.886 50.539-50.886 14.049 0 26.756 5.777 35.916 15.094q.186.186.369.374.187.185.371.372l53.995 54.367q.184.184.369.372" opacity=".5" style="mix-blend-mode:multiply"/><circle cx="507.5" cy="72.5" r="46.283" stroke="#7fa3e9" stroke-width="10.179"/><path fill="#7fa3e9" d="M527.839 88.94h-6.711V76.036l-12.099-18.622h7.656l7.799 12.62 7.798-12.62h7.609l-12.052 18.622zm-19.827 0h-6.475l-15.03-20.56v20.56h-6.711V57.414h6.9l14.605 19.803V57.415h6.711z"/></g></g><defs><linearGradient id="a" x1="461.106" x2="580" y1="313.578" y2="420.11" gradientUnits="userSpaceOnUse"><stop stop-color="#7aa5e7"/><stop offset=".997" stop-color="#003ba1"/></linearGradient><linearGradient id="b" x1="739.889" x2="846.422" y1="290.001" y2="171.106" gradientUnits="userSpaceOnUse"><stop stop-color="#7aa5e7"/><stop offset=".997" stop-color="#003ba1"/></linearGradient><linearGradient id="c" x1="652.5" x2="652.5" y1="290.001" y2="435.001" gradientUnits="userSpaceOnUse"><stop stop-color="#a3c2ee"/><stop offset="1" stop-color="#043ea3"/></linearGradient><linearGradient id="d" x1="362.5" x2="362.5" y1="145" y2="290" gradientUnits="userSpaceOnUse"><stop stop-color="#a3c2ee"/><stop offset="1" stop-color="#043ea3"/></linearGradient><linearGradient id="e" x1="72.5" x2="72.5" y1="290" y2="435" gradientUnits="userSpaceOnUse"><stop offset=".003" stop-color="#003ba1"/><stop offset="1" stop-color="#7aa5e7"/></linearGradient><linearGradient id="f" x1="465" x2="715" y1="39.162" y2="290" gradientUnits="userSpaceOnUse"><stop stop-color="#a3c2ee"/><stop offset="1" stop-color="#043ea3"/></linearGradient><linearGradient id="g" x1="588" x2="652.5" y1="145.001" y2="290" gradientUnits="userSpaceOnUse"><stop stop-color="#a3c2ee"/><stop offset="1" stop-color="#153872"/></linearGradient></defs></svg>