<svg xmlns="http://www.w3.org/2000/svg" width="870" height="436" fill="none" viewBox="0 0 870 436"><path fill="#cce0f6" d="M580 290.018h145v145H580z"/><path fill="#a3c2ee" d="M145 145.017H0c0-80.08 64.919-145 145-145z"/><path fill="url(#a)" d="M580 290.017v145H435zm-136 45.657c0-18.019 14.607-32.625 32.625-32.625s32.625 14.606 32.625 32.625-14.607 32.624-32.625 32.625S444 353.692 444 335.674"/><path fill="url(#b)" d="M870 290.018H725v-145zm-45.656-136c18.018 0 32.625 14.607 32.625 32.625s-14.607 32.625-32.625 32.625-32.625-14.607-32.625-32.625 14.606-32.625 32.625-32.625"/><path fill="#a3c2ee" d="M435 250.143c0 22.022 17.852 39.875 39.875 39.875H580v-145H435z"/><path fill="#154973" d="M184.875 435.018H290c0-80.081-64.919-145-145-145v105.125c0 22.022 17.853 39.875 39.875 39.875"/><path fill="#a3c2ee" d="M725 39.893v105.125c80.081 0 145-64.919 145-145H764.875C742.853.018 725 17.87 725 39.893"/><path fill="#1b52b1" d="M184.876 290.018c-22.023 0-39.876-17.678-39.876-39.486v-66.027c0-21.808 17.853-39.487 39.876-39.487H290v145z"/><path fill="#3a65da" d="M830.124 290.018c22.023 0 39.876 17.678 39.876 39.486v66.027c0 21.808-17.853 39.487-39.876 39.487H725v-145z"/><path fill="url(#c)" d="M619.875 435.018H725c0-80.081-64.919-145-145-145v105.125c0 22.022 17.853 39.875 39.875 39.875"/><path fill="#154973" d="M580 145.018v-145h72.335c40.132 0 72.665 32.46 72.665 72.5s-32.533 72.5-72.665 72.5z"/><path fill="url(#d)" d="M395.125 290.017H290c0-80.081 64.919-145 145-145v105.125c0 22.023-17.853 39.875-39.875 39.875"/><path fill="url(#e)" d="M0 435.017c91 0 145-54.5 145-145-92.5 0-145 52-145 145"/><path fill="#286ad8" d="M329.424 145.018c-21.773 0-39.424-17.853-39.424-39.875V.018h145v145z"/><path fill="#cce0f6" d="M435 .017h145v145H435z"/><path fill="#286ad8" d="M507.5 144.999c40.04 0 72.5-32.459 72.5-72.5S547.54 0 507.5 0 435 32.46 435 72.5s32.459 72.499 72.5 72.499"/><path fill="#286ad8" d="M507.5 144.999c40.04 0 72.5-32.459 72.5-72.5S547.54 0 507.5 0 435 32.46 435 72.5s32.459 72.499 72.5 72.499"/><path fill="url(#f)" d="m579.965 73.86-36.143-36.392-.371-.373q-.183-.188-.369-.373c-9.16-9.318-21.867-15.095-35.916-15.095-27.912 0-50.539 22.783-50.539 50.887a50.9 50.9 0 0 0 14.992 36.164l.369.371q.184.188.371.374.184.187.371.372.182.187.369.372l.368.373q.184.187.371.372l33.849 34.082c39.497-.1 71.551-31.786 72.278-71.134" opacity=".78" style="mix-blend-mode:multiply"/><circle cx="507.5" cy="72.499" r="46.283" stroke="#7fa3e9" stroke-width="10.179"/><path fill="#7fa3e9" d="M527.839 88.939h-6.711V76.036l-12.099-18.622h7.656l7.799 12.62 7.798-12.62h7.609l-12.052 18.622zM508.012 88.939h-6.475l-15.03-20.56v20.56h-6.711V57.414h6.9l14.605 19.803V57.414h6.711z"/><path fill="#286ad8" d="M72.5 290.018c40.04 0 72.5-32.459 72.5-72.499s-32.46-72.5-72.5-72.5S0 177.478 0 217.519s32.46 72.499 72.5 72.499"/><path fill="url(#g)" d="m72.328 290.014.108.003.064.001c40.04 0 72.5-32.459 72.5-72.499 0-2.308-.12-4.587-.331-6.839L72.5 162.506l-13.03 40.101H17.305l34.113 24.784-13.03 40.101z" opacity=".78" style="mix-blend-mode:multiply"/><path fill="url(#h)" d="M652.5 290.018c40.04 0 72.5-32.459 72.5-72.499s-32.46-72.5-72.5-72.5-72.5 32.459-72.5 72.5 32.459 72.499 72.5 72.499"/><path fill="url(#i)" d="M652.5 290.018c34.33 0 63.068-23.87 70.571-55.913l-3.258-3.243v-.228h-.228v-.229h-.229v-.228h-.228v-.229h-.228v-.228h-.228v-.228h-.228v-.229h-.229v-.228h-.228v-.229h-.228v-.228h-.228v-.229h-.229v-.228h-.228v-.228h-.228v-.229h-.228v-.228h-.228v-.229h-.229v-.228h-.228v-.229h-.228v-.228h-.228v-.228h-.228v-.229h-.229v-.228h-.228v-.229h-.228v-.228h-.228v-.228h-.228v-.229h-.229v-.228h-.228v-.229h-.228v-.228h-.228v-.229h-.229v-.228h-.228v-.228h-.228v-.229h-.228v-.228h-.228v-.229h-.229v-.228h-.228v-.229h-.228v-.228h-.228v-.228h-.228v-.229h-.229v-.228h-.228v-.229h-.228v-.228H710v-.229h-.229v-.228h-.228v-.228h-.228v-.229h-.228v-.228h-.228v-.229h-.229v-.228h-.228v-.229h-.228v-.228h-.228v-.228h-.228v-.229h-.229v-.228h-.228v-.229h-.228v-.228h-.228v-.229h-.228v-.228h-.229v-.228h-.228v-.229h-.228v-.228h-.228v-.229h-.228v-.228h-.229v-.229h-.228v-.228h-.228v-.228h-.228v-.229h-.229v-.228h-.228v-.229h-.228v-.228h-.228v-.229h-.228v-.228h-.229v-.228h-.228v-.229h-.228v-.228h-.228v-.229h-.228v-.228h-.229v-.229h-.228v-.228h-.228v-.228h-.228v-.229h-.229v-.228h-.228v-.229h-.228v-.228h-.228v-.229h-.228v-.228h-.229v-.228h-.228v-.229h-.228v-.228h-.228v-.229h-.228v-.228h-.229v-.229h-.228v-.228h-.228v-.228h-.228v-.229h-.228v-.228h-.229v-.229h-.228v-.228h-.228v-.229h-.228v-.228h-.229v-.228h-.228v-.229h-.228v-.228h-.228v-.229h-.228v-.228h-.229v-.229h-.228v-.228h-.228v-.228h-.228v-.229h-.228v-.228h-.229v-.229h-.228v-.228h-.228v-.229h-.228v-.228h-.228v-.228h-.229v-.229h-.228v-.228h-.228v-.229h-.228v-.228h-.229v-.229h-.228v-.228h-.228v-.228h-.228v-.229h-.228v-.228h-.229v-.229h-.228v-.228h-.228v-.229h-.228v-.228h-.228v-.228h-.229v-.229h-.228v-.228h-.228v-.229h-.228v-.228h-.229v-.229h-.228v-.228h-.228v-.228h-.228v-.229h-.228v-.228h-.229v-.229h-.228v-.228h-.228v-.229h-.228v-.228h-.228v-.228h-.229v-.229h-.228v-.228h-.228v-.229h-.228v-.228h-.228v-.229h-.229v-.228h-.228v-.228h-.228v-.229h-.228v-.228h-.229v-.229h-.228v-.228h-.228v-.228h-.228v-.229h-.228v-.228h-.229v-.229h-.228v-.228h-.228v-.229h-.228v-.228h-.228v-.228h-.229v-.229h-.228v-.228h-.228v-.229h-.228v-.228h-.228v-.229h-.229v-.228h-.228v-.228h-.228v-.229h-.228v-.228h-.229v-.229h-.228v-.228h-.228v-.229h-.228v-.228h-.228v-.228h-.229v-.229h-.228v-.228h-.228v-.229h-.228v-.228h-.228v-.229h-.229v-.228h-.228v-.228h-.228v-.229h-.228v-.228h-.229v-.229h-.228v-.228h-.228v-.229h-.228v-.228h-.228v-.228h-.229v-.229h-.228v-.228h-.228v-.229h-.228v-.228h-.228v-.229h-.229v-.228h-.228v-.228h-.228v-.229h-.228v-.228h-.228v-.229h-.229v-.228h-.228v-.229h-.228v-.228h-.228v-.228h-.229v-.229h-.228v-.228h-.228v-.229h-.228v-.228h-.228v-.229h-.229v-.228h-.228v-.228h-.228v-.229h-.228v-.228h-.228v-.229h-.229v-.228h-.228v-.229h-.228v-.228h-.228v-.228h-.228v-.229h-.229v-.228h-.228v-.229h-.228v-.228h-.228v-.229h-.229v-.228h-.228v-.228h-.228v-.229h-.228v-.228h-.228v-.229h-.229v-.228h-.228v-.229h-.228v-.228h-.228v-.228h-.228v-.229h-.229v-.228h-.228v-.229h-.228v-.228h-.228v-.229h-.228v-.228h-.229v-.228h-.228v-.229h-.228v-.228h-.228v-.229h-.229v-.228h-.228v-.229h-.228v-.228h-.229v-.228h-.227v-.229h-.229v-.228h-.229v-.229h-13.87q-6.458 10.413-27.623 16.637v16.817l.229-.096v.325c.074-.031.152-.066.228-.097v.325l.228-.096v.324l.227-.096v.325q.115-.048.229-.097v.325c.075-.03.154-.065.229-.096v.325l.227-.097v.325c.075-.03.154-.065.229-.096v.325l.228-.097v.325l.228-.097v.325c.075-.03.154-.065.229-.096v.325l.228-.097v.325c.074-.03.153-.065.228-.096v.325l.228-.097v.325c.075-.03.154-.065.229-.096v.325l.228-.097v.325l.228-.097v.325c.074-.03.153-.065.228-.096v.325l.228-.097v.325c.075-.03.154-.065.229-.096v.325l.228-.097v.325c.074-.03.153-.065.228-.096v.325l.228-.097v.325l.229-.097v.325c.074-.03.153-.065.228-.096v.325l.228-.097v.325c.074-.03.153-.065.228-.096v.325l.228-.097v.325l.229-.096v.325l.228-.097v.325l.228-.097v.325c.074-.03.153-.065.228-.096v.325l.228-.097v.325c.075-.03.154-.065.229-.096v.325l.228-.097v.325l.228-.096v.324c.074-.03.153-.065.228-.096v.325l.229-.097v.325c.074-.03.153-.065.228-.096v.325l.228-.097v.325c.074-.03.153-.065.228-.096v.325l.228-.097v.325l.229-.096v.324c.074-.03.153-.065.228-.096v.325l.228-.097v.325c.074-.03.153-.065.228-.096v.325l.228-.097v.325c.075-.03.154-.065.229-.096v.325l.228-.097v.325l.228-.096v.324c.074-.03.153-.065.228-.096v.325l.228-.097v.325c.075-.03.154-.065.229-.096v.325l.228-.097v.325c.074-.03.153-.065.228-.096v.325l.228-.097v.325l.229-.096v.324c.074-.03.153-.065.228-.096v.325l.228-.097v.325c.074-.03.153-.065.228-.096v.325l.228-.097v.325c.075-.03.154-.065.229-.096v.325l.228-.097v.325l.228-.097v.325c.074-.03.153-.065.228-.096v.325l.228-.097v.325c.075-.03.154-.065.229-.096v.325l.228-.097v.325c.074-.03.153-.065.228-.096v.325l.228-.097v.325l.229-.097v.325c.074-.03.153-.065.228-.096v.325l.228-.097v.325c.074-.03.153-.065.228-.096v.325l.228-.097v.325c.075-.03.153-.065.229-.096v.325l.228-.097v.325l.228-.097v.325c.074-.03.153-.065.228-.096v.325l.228-.097v.325c.075-.03.154-.065.229-.096v.325l.228-.097v.325l.228-.096v.325l.228-.097v.325l.228-.097v.325c.075-.03.154-.065.229-.096v.325l.228-.097v.325c.074-.03.153-.065.228-.096v.325l.228-.097v.325l.229-.096v.324c.074-.03.153-.065.228-.096v.325l.228-.097v.325c.074-.03.153-.065.228-.096v.325l.228-.097v.325c.075-.03.154-.065.229-.096v.325l.228-.097v.325l.228-.096v.324c.074-.03.153-.065.228-.096v.325l.228-.097v.325l.128-.053v11.97h-24.753v17.01h.228v.229h.228v.228h.229v.229h.228v.228h.228v.228h.228v.229h.228v.228h.229v.229h.228v.228h.228v.229h.228v.228h.228v.228h.229v.229h.228v.228h.228v.229h.228v.228h.229v.229h.228v.228h.228v.228h.228v.229h.228v.228h.229v.229h.228v.228h.228v.229h.228v.228h.228v.228h.229v.229h.228v.228h.228v.229h.228v.228h.228v.229h.229v.228h.228v.228h.228v.229h.228v.228h.228v.229h.229v.228h.228v.228h.228v.229h.228v.228h.229v.229h.228v.228h.228v.229h.228v.228h.228v.228h.229v.229h.228v.228h.228v.229h.228v.228h.228v.229h.229v.228h.228v.228h.228v.229h.228v.228h.228v.229h.229v.228h.228v.229h.228v.228h.228v.228h.229v.229h.228v.228h.228v.229h.228v.228h.228v.229h.229v.228h.228v.228h.228v.229h.228v.228h.228v.229h.229v.228h.228v.229h.228v.228h.228v.228h.229v.229h.228v.228h.228v.229h.228v.228h.228v.229h.229v.228h.228v.228h.228v.229h.228v.228h.228v.229h.229v.228h.228v.229h.228v.228h.228v.228h.228v.229h.229v.228h.228v.229h.228v.228h.228v.229h.229v.228h.228v.228h.228v.229h.228v.228h.228v.229h.229v.228h.228v.229h.228v.228h.228v.228h.228v.229h.229v.228h.228v.229h.228v.228h.228v.229h.228v.228h.229v.228h.228v.229h.228v.228h.228v.229h.229v.228h.228v.229h.228v.228h.228v.228h.228v.229h.229v.228h.228v.229h.228v.228h.228v.229h.228v.228h.229v.228h.228v.229h.228v.228h.228v.229h.229v.228h.228v.229h.228v.228h.228v.228h.228v.229h.229v.228h.228v.229h.228v.228h.228v.229h.228v.228h.229v.228h.228v.157c.591.014 1.178.045 1.773.045" opacity=".78" style="mix-blend-mode:multiply"/><path fill="#3a65da" d="M329.875 290.018c-22.022 0-39.875 17.853-39.875 39.875v105.125h145v-145z"/><path fill="url(#j)" d="M435 435.018v-62.043l-.222-.13v-.158l-.38-.222v-.158l-.38-.222v-.158l-.38-.221v-.159l-.379-.221v-.159l-.38-.221v-.158l-.38-.222v-.158l-.38-.222v-.158l-.38-.222v-.158l-.38-.222v-.158l-.38-.222v-.158l-.38-.221v-.159l-.379-.221v-.159l-.38-.221v-.158l-.38-.222v-.158l-.38-.222v-.158l-.38-.222v-.158l-.38-.222v-.158l-.38-.222v-.158l-.38-.221v-.159l-.38-.221v-.159l-.379-.221v-.158l-.38-.222v-.158l-.38-.222v-.158l-.38-.222v-.158l-.38-.222v-.158l-.38-.222v-.158l-.38-.221v-.159l-.38-.221v-.159l-.379-.221v-.159l-.38-.221v-.158l-.38-.222v-.158l-.38-.222v-.158l-.38-.222v-.158l-.38-.222v-.158l-.38-.222v-.158l-.38-.221v-.159l-.379-.221v-.159l-.38-.221v-.158l-.38-.222v-.158l-.38-.222v-.158l-.38-.222v-.158l-.38-.222v-.158l-.38-.222v-.158l-.38-.221v-.159l-.379-.221v-.159l-.38-.221v-.158l-.38-.222v-.158l-.38-.222v-.158l-.38-.222v-.158l-.38-.222v-.158l-.38-.222v-.158l-.38-.221v-.159l-.38-.221v-.159l-.379-.221v-.158l-.38-.222v-.158l-.38-.222v-.158l-.38-.222v-.158l-.38-.222v-.158l-.38-.222v-.158l-.38-.221v-.159l-.38-.221v-.159l-.379-.221v-.159l-.38-.221v-.158l-.38-.222v-.158l-.38-.222v-.158l-.38-.222v-.158l-.38-.222v-.158l-.38-.222v-.158l-.38-.221v-.159l-.379-.221v-.159l-.38-.221v-.158l-.38-.222v-.158l-.38-.222v-.158l-.38-.222v-.158l-.38-.222v-.158l-.38-.222v-.158l-.38-.221v-.159l-.379-.221v-.159l-.38-.221v-.158l-.38-.222v-.158l-.38-.222v-.158l-.38-.222v-.158l-.38-.222v-.158l-.38-.222v-.158l-.38-.221v-.159l-.38-.221v-.159l-.379-.221v-.158L362.5 316.752l-39.229 22.886v45.751l.38.222v.158l.38.222v.158l.38.222v.158l.38.222v.158l.38.221v.159l.38.221v.159l.38.221v.158l.38.222v.158l.379.222v.158l.38.222v.158l.38.222v.158l.38.222v.158l.38.221v.159l.38.221v.158l.38.222v.158l.38.222v.158l.379.222v.158l.38.222v.158l.38.222v.158l.38.222v.158l.38.221v.159l.38.221v.159l.38.221v.158l.38.222v.158l.379.222v.158l.38.222v.158l.38.222v.158l.38.222v.158l.38.222v.158l.38.221v.159l.38.221v.158l.38.222v.158l.379.222v.158l.38.222v.158l.38.222v.158l.38.222v.158l.38.222v.158l.38.221v.159l.38.221v.158l.38.222v.158l.38.222v.158l.379.222v.158l.38.222v.158l.38.222v.158l.38.222v.158l.38.221v.159l.38.221v.159l.38.221v.158l.38.222v.158l.379.222v.158l.38.222v.158l.38.222v.158l.38.222v.158l.38.221v.159l.38.221v.159l.38.221v.158l.38.222v.158l.379.222v.158l.38.222v.158l.38.222v.158l.38.222v.158l.38.222v.158l.38.221v.159l.38.221v.158l.38.222v.158l.379.222v.158l.38.222v.158l.38.222v.158l.38.222v.158l.38.222v.158l.38.221v.159l.38.221v.158l.38.222v.158l.379.222v.158l.38.222v.158l.38.222v.158l.38.222v.158l.38.222v.158l.38.221v.159l.38.221v.158l.38.222v.158l.38.222v.158l.379.222v.158l.38.222v.158l.38.222v.158l.38.222v.158l.38.221v.159l.38.221v.159l.38.221v.158l.38.222v.158l.379.222v.158l.38.222v.158l.38.222v.158l.38.222v.158l.38.222v.158l.38.221v.159l.38.221v.158l.38.222v.158l.379.222v.158l.38.222v.158l.38.222v.158l.38.222v.158l.38.222v.158l.38.221v.159l.38.221v.158l.38.222v.158l.379.222v.158l.38.222v.158l.38.222v.158l.38.222v.158l.38.222v.158l.38.221v.159l.38.221v.158l.38.222v.158l.38.222v.158l.379.222v.158l.38.222v.158l.38.222v.158l.38.222v.158l.38.221v.159l.38.221v.159l.38.221v.158l.38.222v.158l.379.222v.158l.38.222v.158l.38.222v.158l.38.222v.158l.38.222v.158l.38.221v.159l.38.221v.158l.38.222v.023z" opacity=".78" style="mix-blend-mode:multiply"/><path fill="#457aa5" d="M145 145.017v-145h72.335c40.132 0 72.665 32.46 72.665 72.5s-32.533 72.5-72.665 72.5z"/><path fill="url(#k)" d="M288.52 87.144c-.057-.053-.119-.094-.177-.145-.064-.071-.113-.149-.182-.217-.061-.061-.132-.104-.196-.16-.063-.071-.112-.15-.181-.218-.062-.06-.132-.103-.196-.16-.063-.07-.112-.149-.181-.217-.062-.06-.132-.103-.196-.16-.063-.071-.112-.149-.181-.217-.062-.061-.133-.104-.196-.16-.064-.071-.113-.15-.182-.218-.061-.06-.132-.103-.196-.16-.063-.07-.112-.148-.181-.217-.062-.06-.132-.103-.196-.16-.063-.07-.112-.149-.181-.217-.062-.06-.132-.103-.196-.16-.063-.071-.112-.149-.181-.217-.062-.061-.133-.104-.196-.16-.064-.071-.113-.15-.182-.218-.061-.06-.132-.103-.196-.16-.063-.07-.112-.148-.181-.217-.062-.06-.132-.103-.196-.16-.063-.07-.112-.149-.181-.217-.062-.061-.132-.104-.196-.16-.063-.071-.113-.15-.182-.217-.061-.061-.132-.104-.196-.16-.063-.071-.112-.15-.181-.218-.061-.06-.132-.103-.196-.16-.063-.07-.112-.148-.181-.217-.062-.06-.132-.103-.196-.16-.063-.071-.112-.149-.181-.217-.062-.061-.133-.104-.196-.16-.064-.071-.113-.15-.182-.218-.061-.06-.132-.103-.196-.16-.063-.07-.112-.148-.181-.217-.062-.06-.132-.103-.196-.16-.063-.07-.112-.149-.181-.217-.062-.06-.132-.104-.196-.16-.063-.071-.112-.149-.182-.217-.061-.061-.132-.104-.195-.16-.064-.071-.113-.15-.182-.218-.061-.06-.132-.103-.196-.16-.063-.07-.112-.148-.181-.217-.062-.06-.132-.103-.196-.16-.063-.07-.112-.149-.181-.217-.062-.061-.132-.104-.196-.16-.064-.071-.113-.149-.182-.217-.061-.061-.132-.104-.196-.16-.063-.072-.112-.15-.181-.218-.062-.06-.132-.103-.196-.16-.063-.07-.112-.148-.181-.217-.062-.06-.132-.103-.196-.16-.063-.071-.112-.149-.181-.217-.062-.061-.132-.104-.196-.16-.064-.071-.113-.15-.182-.217-.061-.061-.132-.104-.196-.16-.063-.072-.112-.15-.181-.218-.062-.06-.132-.103-.196-.16-.063-.07-.112-.149-.181-.217-.062-.061-.132-.104-.196-.16-.063-.071-.112-.149-.181-.217-.062-.061-.133-.104-.196-.16-.064-.071-.113-.15-.182-.218-.061-.06-.132-.103-.196-.16-.063-.07-.112-.148-.181-.217-.062-.06-.132-.103-.196-.16-.063-.071-.112-.149-.181-.217-.062-.061-.132-.104-.196-.16-.063-.071-.112-.149-.182-.218-.061-.06-.132-.103-.195-.16-.064-.07-.113-.148-.182-.217-.061-.06-.132-.103-.196-.16-.063-.07-.112-.149-.181-.217-.062-.06-.132-.104-.196-.16-.063-.071-.112-.149-.181-.217-.062-.061-.132-.104-.196-.16-.064-.071-.113-.15-.182-.218-.061-.06-.132-.103-.195-.16-.064-.07-.113-.148-.182-.217-.062-.06-.132-.103-.196-.16-.063-.07-.112-.149-.181-.217-.062-.061-.132-.104-.196-.16-.063-.071-.112-.149-.181-.217-.062-.061-.133-.104-.196-.16-.064-.072-.113-.15-.182-.218-.061-.06-.132-.103-.196-.16-.063-.07-.112-.149-.181-.217-.062-.06-.132-.104-.196-.16-.063-.071-.112-.149-.181-.217-.062-.061-.132-.104-.196-.16-.063-.071-.112-.15-.182-.217-.061-.061-.132-.104-.196-.16-.063-.072-.112-.15-.181-.218-.061-.06-.132-.103-.196-.16-.063-.07-.112-.149-.181-.217-.062-.061-.132-.104-.196-.16-.063-.071-.112-.149-.181-.217-.062-.061-.132-.104-.196-.16-.064-.071-.113-.15-.182-.218-.061-.06-.132-.103-.196-.16-.063-.07-.112-.148-.181-.217-.062-.06-.132-.103-.196-.16-.063-.07-.112-.149-.181-.217-.062-.061-.132-.104-.196-.16-.063-.071-.112-.15-.181-.217-.062-.061-.133-.104-.196-.16-.064-.072-.113-.15-.182-.218-.061-.06-.132-.103-.196-.16-.063-.07-.112-.149-.181-.217-.062-.06-.132-.103-.196-.16-.063-.071-.112-.149-.181-.217-.062-.061-.132-.104-.196-.16-.063-.071-.112-.15-.181-.218-.062-.06-.133-.103-.196-.16-.064-.07-.113-.148-.182-.217-.061-.06-.132-.103-.196-.16-.063-.07-.112-.149-.181-.217-.062-.061-.132-.104-.196-.16-.063-.071-.112-.149-.181-.217-.062-.061-.132-.104-.196-.16-.064-.072-.113-.15-.182-.218-.061-.06-.132-.103-.196-.16-.063-.07-.112-.149-.181-.217-.061-.06-.132-.103-.196-.16-.063-.071-.112-.149-.181-.217-.062-.061-.132-.104-.196-.16-.063-.071-.112-.15-.181-.217-.062-.061-.132-.104-.196-.16-.064-.071-.113-.15-.182-.218-.061-.06-.132-.103-.196-.16-.063-.07-.112-.149-.181-.217-.062-.061-.132-.104-.196-.16-.063-.071-.112-.149-.181-.217-.062-.061-.132-.104-.196-.16-.063-.071-.112-.15-.181-.217-.062-.061-.133-.104-.196-.16-.064-.072-.113-.15-.182-.218-.061-.06-.132-.103-.196-.16-.063-.07-.112-.149-.181-.217-.062-.061-.132-.104-.196-.16-.063-.071-.112-.149-.181-.217-.062-.061-.132-.104-.196-.16-.064-.072-.113-.15-.182-.218-.061-.06-.132-.103-.195-.16-.064-.07-.113-.149-.182-.217-.062-.06-.132-.104-.196-.16-.063-.071-.112-.149-.181-.217-.062-.061-.132-.104-.196-.16-.063-.071-.112-.15-.181-.218-.062-.06-.132-.103-.196-.16-.064-.07-.113-.148-.182-.217-.061-.06-.132-.103-.196-.16-.063-.07-.112-.149-.181-.217-.062-.061-.132-.104-.196-.16-.063-.071-.112-.149-.181-.217-.062-.061-.132-.104-.196-.16-.063-.071-.112-.15-.181-.218-.062-.06-.133-.103-.196-.16-.064-.07-.113-.148-.182-.217-.061-.06-.132-.103-.196-.16-.063-.071-.112-.149-.181-.217-.062-.061-.132-.104-.196-.16-.063-.071-.112-.15-.181-.217-.062-.061-.132-.104-.196-.16-.063-.072-.112-.15-.181-.218-.062-.06-.133-.103-.196-.16-.064-.07-.113-.149-.182-.217-.061-.06-.132-.103-.196-.16-.063-.071-.112-.149-.181-.217-.062-.061-.132-.104-.196-.16-.063-.071-.112-.15-.181-.218-.062-.06-.132-.103-.196-.16-.064-.07-.113-.148-.182-.217-.061-.06-.132-.104-.196-.16-.063-.07-.112-.149-.181-.217-.062-.061-.132-.104-.196-.16-.063-.071-.112-.149-.181-.217-.062-.061-.132-.104-.196-.16-.063-.071-.112-.15-.181-.218-.062-.06-.133-.103-.196-.16-.064-.07-.113-.149-.182-.217-.061-.06-.132-.104-.196-.16-.063-.071-.112-.149-.181-.217-.062-.061-.132-.104-.196-.16-.063-.071-.112-.15-.181-.218-.062-.06-.132-.103-.196-.16-.063-.07-.112-.148-.182-.217-.061-.06-.132-.103-.195-.16-.064-.07-.113-.149-.182-.217-.061-.061-.132-.104-.196-.16-.063-.071-.112-.149-.181-.217-.062-.061-.132-.104-.196-.16-.063-.072-.112-.15-.181-.218-.062-.06-.132-.103-.196-.16-.063-.07-.112-.148-.182-.217-.061-.06-.132-.104-.196-.16-.063-.071-.112-.149-.181-.217-.062-.061-.132-.104-.196-.16-.063-.071-.112-.15-.181-.217-.062-.061-.132-.104-.196-.16-.063-.072-.112-.15-.181-.218-.062-.06-.133-.103-.196-.16-.064-.07-.113-.149-.182-.217-.061-.061-.132-.104-.196-.16-.063-.071-.112-.149-.181-.217-.062-.061-.132-.104-.196-.16-.063-.071-.112-.15-.181-.218-.062-.06-.132-.103-.196-.16-.063-.07-.112-.149-.181-.217-.062-.06-.133-.103-.196-.16-.064-.07-.113-.149-.182-.217-.061-.061-.132-.104-.196-.16-.063-.071-.112-.15-.181-.217-.062-.061-.132-.104-.196-.16-.063-.072-.112-.15-.181-.218-.062-.06-.132-.103-.196-.16-.063-.07-.112-.149-.182-.217-.061-.06-.132-.103-.195-.16-.064-.071-.113-.149-.182-.217-.062-.061-.132-.104-.196-.16-.063-.071-.112-.15-.181-.218-.062-.06-.132-.103-.196-.16-.063-.07-.112-.148-.181-.217-.062-.06-.132-.103-.196-.16-.064-.07-.113-.149-.182-.217-.061-.061-.132-.104-.196-.16-.063-.071-.112-.149-.181-.217-.062-.061-.132-.104-.196-.16-.063-.071-.112-.15-.181-.218-.062-.06-.132-.103-.196-.16-.063-.07-.112-.149-.181-.217-.062-.06-.133-.103-.196-.16-.064-.071-.113-.149-.182-.217-.061-.061-.132-.104-.196-.16-.063-.071-.112-.15-.181-.217-.062-.061-.132-.104-.196-.16-.063-.071-.112-.15-.181-.218-.062-.06-.132-.103-.196-.16-.063-.07-.112-.149-.182-.217-.061-.06-.132-.104-.195-.16-.064-.071-.113-.149-.182-.217-.061-.061-.132-.104-.196-.16-.063-.071-.112-.15-.181-.218-.062-.06-.132-.103-.196-.16-.063-.07-.112-.148-.181-.217-.062-.06-.132-.103-.196-.16-.064-.07-.113-.149-.182-.217-.061-.061-.132-.104-.196-.16-.063-.071-.112-.149-.181-.217q-1.234-1.221-3.059-1.221-1.824 0-3.058 1.22c-.47.466-.79 1.001-.992 1.593-.023-.021-.048-.038-.072-.059-.063-.07-.112-.148-.181-.217-.061-.06-.132-.103-.196-.16-.063-.07-.112-.149-.181-.217-.062-.06-.132-.104-.196-.16-.063-.071-.112-.149-.181-.217-.062-.061-.132-.104-.196-.16-.063-.071-.112-.15-.182-.218-.061-.06-.132-.103-.196-.16-.063-.07-.112-.149-.181-.217-.061-.06-.132-.103-.196-.16-.063-.07-.112-.149-.181-.217-.062-.061-.132-.104-.196-.16-.063-.071-.112-.149-.181-.217-.062-.061-.132-.104-.196-.16-.064-.072-.113-.15-.182-.218-.061-.06-.132-.103-.196-.16-.063-.07-.112-.149-.181-.217-.062-.06-.132-.104-.196-.16-.063-.071-.112-.149-.181-.217-.062-.061-.132-.104-.196-.16-.063-.071-.112-.149-.181-.218-.062-.06-.133-.103-.196-.16-.064-.07-.113-.148-.182-.217-.061-.06-.132-.103-.196-.16-.063-.07-.112-.149-.181-.217-.062-.061-.132-.104-.196-.16-.063-.071-.112-.149-.181-.217-.062-.061-.132-.104-.196-.16-.063-.071-.112-.15-.182-.218-.061-.06-.132-.103-.195-.16-.064-.07-.113-.149-.182-.217-.061-.06-.132-.103-.196-.16-.063-.071-.112-.149-.181-.217-.062-.061-.132-.104-.196-.16-.063-.071-.112-.149-.181-.217-.062-.061-.132-.104-.196-.16-.064-.072-.113-.15-.182-.218-.061-.06-.132-.103-.196-.16-.063-.07-.112-.149-.181-.217-.062-.061-.132-.104-.196-.16-.063-.071-.112-.149-.181-.217-.062-.061-.132-.104-.196-.16-.063-.072-.112-.15-.181-.218-.062-.06-.133-.103-.196-.16-.064-.07-.113-.148-.182-.217-.061-.06-.132-.104-.196-.16-.063-.071-.112-.149-.181-.217-.062-.061-.132-.104-.196-.16-.063-.071-.112-.15-.181-.217-.062-.061-.132-.104-.196-.16-.064-.072-.113-.15-.182-.218-.061-.06-.132-.103-.195-.16-.064-.07-.113-.149-.182-.217q-1.234-1.22-3.058-1.22-1.825 0-3.059 1.22t-1.234 3.026v2.55q-.006-.007-.011-.013c-.061-.061-.132-.104-.196-.16-.063-.071-.112-.149-.181-.217-.062-.061-.132-.104-.196-.16-.063-.072-.112-.15-.181-.218-.062-.06-.132-.103-.196-.16-.063-.07-.112-.148-.182-.217-.061-.06-.132-.103-.195-.16-.064-.07-.113-.149-.182-.217-.061-.061-.132-.104-.196-.16-.063-.071-.112-.15-.181-.217-.062-.062-.132-.104-.196-.16-.063-.072-.112-.15-.181-.218-.062-.06-.132-.103-.196-.16-.063-.07-.113-.149-.182-.217-.061-.06-.132-.103-.195-.16-.064-.071-.113-.149-.182-.217-.062-.061-.132-.104-.196-.16-.063-.071-.112-.15-.181-.218-.062-.06-.132-.103-.196-.16-.063-.07-.112-.148-.181-.217-.062-.06-.132-.103-.196-.16-.064-.07-.113-.149-.182-.217-.061-.061-.132-.104-.196-.16-.063-.071-.112-.149-.181-.217-.062-.061-.132-.104-.195-.16-.064-.071-.112-.15-.182-.218-.062-.06-.132-.103-.196-.16-.062-.07-.112-.149-.181-.217-.062-.06-.133-.104-.196-.16-.064-.071-.112-.149-.182-.217-.06-.061-.132-.104-.196-.16-.063-.071-.112-.15-.181-.217-.061-.061-.131-.104-.196-.16-.063-.072-.112-.15-.18-.218-.062-.06-.133-.103-.197-.16-.063-.07-.112-.149-.182-.217-.061-.061-.131-.104-.196-.16-.063-.071-.112-.149-.18-.217-.062-.061-.133-.104-.197-.16-.063-.071-.112-.15-.18-.218-.063-.06-.133-.103-.196-.16-.064-.07-.112-.148-.182-.217-.062-.06-.133-.104-.195-.16-.065-.071-.114-.149-.183-.217-.06-.061-.132-.104-.195-.16-.064-.071-.112-.15-.182-.217-.062-.061-.132-.104-.195-.16-.063-.071-.112-.15-.182-.218-.061-.06-.131-.103-.196-.16-.062-.07-.111-.149-.182-.217-.06-.06-.131-.104-.195-.16-.063-.071-.112-.149-.182-.217q-1.234-1.22-3.058-1.22t-3.058 1.22q-1.234 1.22-1.234 3.025v15.29q-.006-.008-.012-.014c-.06-.06-.131-.103-.196-.16-.062-.07-.112-.148-.18-.217-.062-.06-.132-.103-.197-.16-.063-.07-.112-.149-.18-.217-.062-.061-.133-.104-.196-.16-.064-.071-.112-.15-.182-.217-.062-.061-.133-.104-.196-.16-.064-.072-.112-.15-.181-.218-.061-.06-.133-.103-.196-.16-.063-.07-.112-.149-.181-.217-.063-.06-.132-.103-.196-.16-.063-.071-.112-.149-.182-.217-.061-.061-.131-.104-.195-.16-.064-.071-.112-.15-.182-.218-.061-.06-.132-.103-.196-.16-.063-.07-.112-.148-.181-.217-.061-.06-.132-.103-.196-.16-.063-.07-.112-.149-.181-.217-.062-.061-.132-.104-.196-.16-.063-.071-.112-.149-.181-.217-.062-.061-.132-.104-.196-.16-.064-.071-.113-.15-.182-.218-.061-.06-.132-.103-.196-.16-.063-.07-.112-.149-.181-.217-.062-.06-.132-.103-.196-.16-.063-.07-.112-.149-.181-.217-.062-.061-.132-.104-.196-.16-.063-.071-.112-.15-.181-.217-.062-.061-.133-.104-.196-.16-.064-.071-.113-.15-.182-.218-.061-.06-.132-.104-.196-.16-.063-.07-.112-.149-.181-.217-.062-.06-.132-.104-.196-.16-.063-.071-.112-.149-.181-.217-.062-.061-.132-.104-.196-.16-.064-.071-.113-.15-.182-.218-.061-.06-.132-.103-.195-.16-.064-.07-.113-.148-.182-.217-.062-.06-.132-.104-.196-.16-.063-.071-.112-.149-.181-.217-.062-.061-.132-.104-.196-.16-.063-.071-.112-.15-.181-.217-.062-.061-.133-.104-.196-.16-.064-.071-.113-.15-.182-.218-.061-.06-.132-.103-.196-.16-.063-.07-.112-.148-.181-.217-.062-.06-.132-.104-.196-.16-.063-.071-.112-.149-.181-.217-.062-.061-.132-.104-.196-.16-.064-.071-.112-.15-.182-.217-.061-.061-.132-.104-.195-.16-.064-.072-.113-.15-.182-.218q-1.234-1.22-3.058-1.22-1.825 0-3.059 1.22-1.234 1.221-1.234 3.026v40.658l-11.805-8.068q-2.575-1.805-5.742-1.486-3.165.318-5.312 2.547a3.48 3.48 0 0 0-1.02 2.07q-.16 1.221.591 2.283l18.995 27.6a35 35 0 0 0 4.267 5.054q.187.19.376.377.188.19.378.377.187.19.377.377.187.191.378.378.187.19.377.377.187.19.377.377.187.19.377.377.188.191.378.378.187.19.377.377.187.19.377.377.187.19.377.377.188.191.378.379.187.19.377.376.187.19.377.378.187.19.377.376.187.191.378.378.187.19.377.378l.376.377q.188.19.378.377.187.19.377.377.188.19.378.378.187.19.377.377.187.19.378.377.187.19.375.377.19.19.38.378.187.19.376.377.188.19.377.377.187.19.377.377.188.191.378.378.187.19.377.377.188.19.378.377.187.19.377.377.187.191.378.378.187.19.377.377.187.19.376.377.187.19.377.377.188.191.378.378.187.19.378.377.187.19.377.377.187.19.377.377.187.191.378.378.187.19.377.378l.376.377q.187.19.377.377.187.19.377.377.188.19.378.378.187.19.377.377.187.19.378.377.187.19.376.377.188.19.378.378.187.19.377.377.188.19.378.377.186.19.376.377.188.19.379.378.186.19.376.377.188.19.378.377.187.19.376.377.19.191.379.378.187.19.376.377.19.19.378.377.187.19.377.377.187.191.378.378.187.19.377.377.187.19.377.377.187.19.377.377.187.19.377.378.188.19.378.378.187.19.377.376.187.19.377.378.187.19.377.377.188.19.378.378.187.19.377.377.187.19.377.377.187.19.377.377.188.19.378.378.187.19.377.377.187.19.377.377.187.19.377.377.188.19.378.378.187.19.377.377.188.19.378.377.187.19.376.377.188.19.379.378.187.19.376.377.188.19.378.377.187.19.376.377.188.191.379.378.187.19.376.377.188.19.378.377.187.19.377.377.187.19.377.378.188.19.378.378.187.19.377.376l.099.099c34.79-.337 63.733-25.052 70.468-57.855" opacity=".78" style="mix-blend-mode:multiply"/><path fill="#7fa3e9" d="M207.789 119.836q-8.799 0-16.527-3.981-7.727-3.98-12.663-11.093l-18.996-27.6q-.751-1.062-.59-2.283a3.46 3.46 0 0 1 1.02-2.07q2.145-2.229 5.312-2.548 3.165-.318 5.741 1.486l11.805 8.068V39.157q0-1.804 1.235-3.025 1.234-1.22 3.058-1.22t3.059 1.22q1.234 1.22 1.234 3.025V87.99q0 2.548-2.307 3.769-2.308 1.22-4.454-.265l-9.122-6.264 10.195 14.65q3.756 5.413 9.551 8.439 5.796 3.026 12.449 3.026 11.055 0 18.835-7.697 7.78-7.695 7.78-18.63V43.404q0-1.806 1.235-3.026 1.234-1.22 3.058-1.22t3.059 1.22q1.234 1.22 1.234 3.026v41.613q0 14.544-10.249 24.681t-24.952 10.138m-3.434-93.417q1.824 0 3.059 1.22 1.234 1.221 1.234 3.026V68.88q0 1.805-1.234 3.026-1.235 1.22-3.059 1.22t-3.058-1.22q-1.235-1.221-1.235-3.026V30.665q0-1.805 1.235-3.026 1.233-1.22 3.058-1.22m17.171 4.246q1.824 0 3.059 1.22 1.234 1.222 1.234 3.026v33.97q0 1.805-1.234 3.026-1.235 1.22-3.059 1.22t-3.058-1.22-1.235-3.026v-33.97q0-1.804 1.235-3.025 1.234-1.221 3.058-1.221M621.469 207.209v-16.817q21.166-6.224 27.623-16.637h13.871v67.985h22.6v17.01h-66.126v-17.01h24.752V195q-14.589 8.858-22.72 12.209M72.5 162.506l13.03 40.101h42.165l-34.113 24.784 13.03 40.101L72.5 242.708l-34.112 24.784 13.03-40.101-34.112-24.784H59.47z"/><path fill="#7fa3e9" fill-rule="evenodd" d="m362.5 316.752 39.229 22.886v45.751L362.5 408.285l-39.229-22.896v-45.751zm-29.333 28.655v34.223l29.333 17.107 29.332-17.107v-34.233L362.5 328.3z" clip-rule="evenodd"/><path fill="#7fa3e9" d="M372.396 362.513c0 5.53-4.433 9.999-9.896 9.999s-9.896-4.469-9.896-9.999c0-5.519 4.433-9.998 9.896-9.998s9.896 4.479 9.896 9.998"/><defs><linearGradient id="a" x1="461.106" x2="580" y1="313.595" y2="420.128" gradientUnits="userSpaceOnUse"><stop stop-color="#7aa5e7"/><stop offset=".997" stop-color="#003ba1"/></linearGradient><linearGradient id="b" x1="739.889" x2="846.422" y1="290.018" y2="171.123" gradientUnits="userSpaceOnUse"><stop stop-color="#7aa5e7"/><stop offset=".997" stop-color="#003ba1"/></linearGradient><linearGradient id="c" x1="652.5" x2="652.5" y1="290.018" y2="435.018" gradientUnits="userSpaceOnUse"><stop stop-color="#a3c2ee"/><stop offset="1" stop-color="#043ea3"/></linearGradient><linearGradient id="d" x1="362.5" x2="362.5" y1="145.017" y2="290.017" gradientUnits="userSpaceOnUse"><stop stop-color="#a3c2ee"/><stop offset="1" stop-color="#043ea3"/></linearGradient><linearGradient id="e" x1="72.5" x2="72.5" y1="290.017" y2="435.017" gradientUnits="userSpaceOnUse"><stop offset=".003" stop-color="#003ba1"/><stop offset="1" stop-color="#7aa5e7"/></linearGradient><linearGradient id="f" x1="579.965" x2="456.627" y1="83.311" y2="83.311" gradientUnits="userSpaceOnUse"><stop offset=".003" stop-color="#003ba1"/><stop offset="1" stop-color="#7aa5e7"/></linearGradient><linearGradient id="g" x1="145" x2="17.305" y1="226.262" y2="226.262" gradientUnits="userSpaceOnUse"><stop offset=".003" stop-color="#003ba1"/><stop offset="1" stop-color="#7aa5e7"/></linearGradient><linearGradient id="h" x1="469.895" x2="719.895" y1="34.302" y2="285.139" gradientUnits="userSpaceOnUse"><stop stop-color="#a3c2ee"/><stop offset="1" stop-color="#043ea3"/></linearGradient><linearGradient id="i" x1="723.071" x2="619.462" y1="231.886" y2="231.886" gradientUnits="userSpaceOnUse"><stop offset=".003" stop-color="#003ba1"/><stop offset="1" stop-color="#7aa5e7"/></linearGradient><linearGradient id="j" x1="435" x2="323.271" y1="375.885" y2="375.885" gradientUnits="userSpaceOnUse"><stop offset=".003" stop-color="#003ba1"/><stop offset="1" stop-color="#7aa5e7"/></linearGradient><linearGradient id="k" x1="288.521" x2="158.986" y1="85.708" y2="85.708" gradientUnits="userSpaceOnUse"><stop offset=".003" stop-color="#003ba1"/><stop offset="1" stop-color="#7aa5e7"/></linearGradient></defs></svg>