<svg width="870" height="436" viewBox="0 0 870 436" fill="none" xmlns="http://www.w3.org/2000/svg">
<rect x="580" y="290.018" width="145" height="145" fill="#CCE0F6"/>
<path d="M145 145.017H0C0 64.9363 64.919 0.0172729 145 0.0172729V145.017Z" fill="#A3C2EE"/>
<path d="M580 290.017V435.017H435L580 290.017ZM444 335.674C444 317.655 458.607 303.049 476.625 303.049C494.643 303.049 509.25 317.655 509.25 335.674C509.25 353.692 494.643 368.298 476.625 368.299C458.607 368.299 444 353.692 444 335.674Z" fill="url(#paint0_linear_3257_5208)"/>
<path d="M870 290.018H725V145.018L870 290.018ZM824.344 154.018C842.362 154.018 856.969 168.625 856.969 186.643C856.969 204.661 842.362 219.268 824.344 219.268C806.326 219.268 791.719 204.661 791.719 186.643C791.719 168.625 806.325 154.018 824.344 154.018Z" fill="url(#paint1_linear_3257_5208)"/>
<path d="M435 250.143C435 272.165 452.852 290.018 474.875 290.018H580V145.018L435 145.018V250.143Z" fill="#A3C2EE"/>
<path d="M184.875 435.018H290C290 354.937 225.081 290.018 145 290.018V395.143C145 417.165 162.853 435.018 184.875 435.018Z" fill="#154973"/>
<path d="M725 39.8929V145.018C805.081 145.018 870 80.0992 870 0.0178833L764.875 0.0178833C742.853 0.0178833 725 17.8705 725 39.8929Z" fill="#A3C2EE"/>
<path d="M184.876 290.018C162.853 290.018 145 272.34 145 250.532V184.505C145 162.697 162.853 145.018 184.876 145.018H290V290.018H184.876Z" fill="#1B52B1"/>
<path d="M830.124 290.018C852.147 290.018 870 307.696 870 329.504V395.531C870 417.339 852.147 435.018 830.124 435.018H725V290.018H830.124Z" fill="#3A65DA"/>
<path d="M619.875 435.018H725C725 354.937 660.081 290.018 580 290.018V395.143C580 417.165 597.853 435.018 619.875 435.018Z" fill="url(#paint2_linear_3257_5208)"/>
<path d="M580 145.018V0.0178528L652.335 0.0178528C692.467 0.0178528 725 32.4772 725 72.5179C725 112.559 692.467 145.018 652.335 145.018L580 145.018Z" fill="#154973"/>
<path d="M395.125 290.017H290C290 209.936 354.919 145.017 435 145.017V250.142C435 272.165 417.147 290.017 395.125 290.017Z" fill="url(#paint3_linear_3257_5208)"/>
<path d="M0 435.017C91 435.017 145 380.517 145 290.017C52.5 290.017 0 342.017 0 435.017Z" fill="url(#paint4_linear_3257_5208)"/>
<path d="M329.424 145.018C307.651 145.018 290 127.165 290 105.143V0.0178833H435V145.018H329.424Z" fill="#286AD8"/>
<rect x="435" y="0.0172729" width="145" height="145" fill="#CCE0F6"/>
<path d="M507.5 144.999C547.54 144.999 580 112.54 580 72.4998C580 32.4596 547.54 0 507.5 0C467.46 0 435 32.4593 435 72.4998C435 112.54 467.459 144.999 507.5 144.999Z" fill="#286AD8"/>
<path d="M507.5 144.999C547.54 144.999 580 112.54 580 72.4998C580 32.4596 547.54 0 507.5 0C467.46 0 435 32.4593 435 72.4998C435 112.54 467.459 144.999 507.5 144.999Z" fill="#286AD8"/>
<g opacity="0.78" style="mix-blend-mode:multiply">
<path d="M579.965 73.8602L543.822 37.4675C543.699 37.3429 543.576 37.2184 543.451 37.0952C543.329 36.9693 543.206 36.8461 543.082 36.7216C533.922 27.4044 521.215 21.6271 507.166 21.6271C479.254 21.6271 456.627 44.4097 456.627 72.5139C456.627 86.6601 462.365 99.4547 471.619 108.678C471.742 108.803 471.865 108.926 471.988 109.049C472.111 109.175 472.234 109.298 472.359 109.423C472.482 109.547 472.605 109.672 472.73 109.795C472.851 109.92 472.975 110.044 473.099 110.167C473.221 110.292 473.344 110.415 473.467 110.54C473.59 110.664 473.713 110.789 473.838 110.912L507.687 144.994C547.184 144.894 579.238 113.208 579.965 73.8602Z" fill="url(#paint5_linear_3257_5208)"/>
</g>
<circle cx="507.5" cy="72.4995" r="46.2833" stroke="#7FA3E9" stroke-width="10.1787"/>
<path d="M527.839 88.9386H521.128V76.0359L509.029 57.4143H516.685L524.484 70.0335L532.282 57.4143H539.891L527.839 76.0359V88.9386Z" fill="#7FA3E9"/>
<path d="M508.012 88.9386H501.537L486.507 68.3793V88.9386H479.796V57.4143H486.696L501.301 77.2174V57.4143H508.012V88.9386Z" fill="#7FA3E9"/>
<path d="M72.4998 290.018C112.54 290.018 145 257.559 145 217.519C145 177.479 112.54 145.019 72.4998 145.019C32.4596 145.019 0 177.478 0 217.519C0 257.56 32.4593 290.018 72.4998 290.018Z" fill="#286AD8"/>
<g opacity="0.78" style="mix-blend-mode:multiply">
<path d="M72.3276 290.014C72.3568 290.014 72.4071 290.017 72.4363 290.017C72.4503 290.017 72.4858 290.018 72.4998 290.018C112.54 290.018 145 257.559 145 217.519C145 215.211 144.88 212.932 144.669 210.68L72.5 162.506L59.4704 202.607H17.3054L51.4176 227.391L38.3879 267.492L72.3276 290.014Z" fill="url(#paint6_linear_3257_5208)"/>
</g>
<path d="M652.5 290.018C692.54 290.018 725 257.559 725 217.519C725 177.479 692.54 145.019 652.5 145.019C612.46 145.019 580 177.478 580 217.519C580 257.56 612.459 290.018 652.5 290.018Z" fill="url(#paint7_linear_3257_5208)"/>
<g opacity="0.78" style="mix-blend-mode:multiply">
<path d="M652.5 290.018C686.83 290.018 715.568 266.148 723.071 234.105L719.813 230.862V230.634H719.585V230.405H719.356V230.177H719.128V229.948H718.9V229.72H718.672V229.492H718.444V229.263H718.215V229.035H717.987V228.806H717.759V228.578H717.531V228.349H717.302V228.121H717.074V227.893H716.846V227.664H716.618V227.436H716.39V227.207H716.161V226.979H715.933V226.75H715.705V226.522H715.477V226.294H715.249V226.065H715.02V225.837H714.792V225.608H714.564V225.38H714.336V225.152H714.108V224.923H713.879V224.695H713.651V224.466H713.423V224.238H713.195V224.009H712.966V223.781H712.738V223.553H712.51V223.324H712.282V223.096H712.054V222.867H711.825V222.639H711.597V222.41H711.369V222.182H711.141V221.954H710.913V221.725H710.684V221.497H710.456V221.268H710.228V221.04H710V220.811H709.771V220.583H709.543V220.355H709.315V220.126H709.087V219.898H708.859V219.669H708.63V219.441H708.402V219.212H708.174V218.984H707.946V218.756H707.718V218.527H707.489V218.299H707.261V218.07H707.033V217.842H706.805V217.613H706.577V217.385H706.348V217.157H706.12V216.928H705.892V216.7H705.664V216.471H705.436V216.243H705.207V216.014H704.979V215.786H704.751V215.558H704.523V215.329H704.294V215.101H704.066V214.872H703.838V214.644H703.61V214.415H703.382V214.187H703.153V213.959H702.925V213.73H702.697V213.502H702.469V213.273H702.241V213.045H702.012V212.816H701.784V212.588H701.556V212.36H701.328V212.131H701.099V211.903H700.871V211.674H700.643V211.446H700.415V211.217H700.187V210.989H699.958V210.761H699.73V210.532H699.502V210.304H699.274V210.075H699.046V209.847H698.817V209.618H698.589V209.39H698.361V209.162H698.133V208.933H697.905V208.705H697.676V208.476H697.448V208.248H697.22V208.019H696.992V207.791H696.763V207.563H696.535V207.334H696.307V207.106H696.079V206.877H695.851V206.649H695.622V206.42H695.394V206.192H695.166V205.964H694.938V205.735H694.71V205.507H694.481V205.278H694.253V205.05H694.025V204.821H693.797V204.593H693.569V204.365H693.34V204.136H693.112V203.908H692.884V203.679H692.656V203.451H692.427V203.222H692.199V202.994H691.971V202.766H691.743V202.537H691.515V202.309H691.286V202.08H691.058V201.852H690.83V201.623H690.602V201.395H690.374V201.167H690.145V200.938H689.917V200.71H689.689V200.481H689.461V200.253H689.232V200.024H689.004V199.796H688.776V199.568H688.548V199.339H688.32V199.111H688.091V198.882H687.863V198.654H687.635V198.425H687.407V198.197H687.179V197.969H686.95V197.74H686.722V197.512H686.494V197.283H686.266V197.055H686.038V196.826H685.809V196.598H685.581V196.37H685.353V196.141H685.125V195.913H684.896V195.684H684.668V195.456H684.44V195.228H684.212V194.999H683.984V194.771H683.755V194.542H683.527V194.314H683.299V194.085H683.071V193.857H682.843V193.629H682.614V193.4H682.386V193.172H682.158V192.943H681.93V192.715H681.702V192.486H681.473V192.258H681.245V192.03H681.017V191.801H680.789V191.573H680.56V191.344H680.332V191.116H680.104V190.887H679.876V190.659H679.648V190.431H679.419V190.202H679.191V189.974H678.963V189.745H678.735V189.517H678.507V189.288H678.278V189.06H678.05V188.832H677.822V188.603H677.594V188.375H677.365V188.146H677.137V187.918H676.909V187.689H676.681V187.461H676.453V187.233H676.224V187.004H675.996V186.776H675.768V186.547H675.54V186.319H675.312V186.09H675.083V185.862H674.855V185.634H674.627V185.405H674.399V185.177H674.171V184.948H673.942V184.72H673.714V184.491H673.486V184.263H673.258V184.035H673.029V183.806H672.801V183.578H672.573V183.349H672.345V183.121H672.117V182.892H671.888V182.664H671.66V182.436H671.432V182.207H671.204V181.979H670.976V181.75H670.747V181.522H670.519V181.293H670.291V181.065H670.063V180.837H669.835V180.608H669.606V180.38H669.378V180.151H669.15V179.923H668.922V179.694H668.693V179.466H668.465V179.238H668.237V179.009H668.009V178.781H667.781V178.552H667.552V178.324H667.324V178.095H667.096V177.867H666.868V177.639H666.64V177.41H666.411V177.182H666.183V176.953H665.955V176.725H665.727V176.496H665.499V176.268H665.27V176.04H665.042V175.811H664.814V175.583H664.586V175.354H664.357V175.126H664.129V174.897H663.901V174.669H663.672V174.441H663.445V174.212H663.216V173.984H662.987V173.755H649.117C644.812 180.697 635.604 186.243 621.494 190.392V207.209C621.568 207.179 621.648 207.144 621.723 207.113V207.438C621.797 207.407 621.875 207.372 621.951 207.341V207.666C622.025 207.635 622.104 207.601 622.179 207.57V207.894C622.252 207.864 622.331 207.829 622.406 207.798V208.123C622.482 208.092 622.56 208.058 622.635 208.026V208.351C622.71 208.321 622.789 208.286 622.864 208.255V208.58C622.937 208.549 623.017 208.515 623.091 208.483V208.808C623.166 208.778 623.245 208.743 623.32 208.712V209.037C623.393 209.006 623.473 208.971 623.548 208.94V209.265C623.623 209.234 623.702 209.2 623.776 209.168V209.493C623.851 209.463 623.93 209.428 624.005 209.397V209.722C624.079 209.691 624.158 209.657 624.233 209.625V209.95C624.307 209.92 624.386 209.885 624.461 209.854V210.179C624.535 210.148 624.614 210.113 624.689 210.082V210.407C624.764 210.377 624.843 210.342 624.918 210.311V210.636C624.992 210.605 625.071 210.57 625.146 210.539V210.864C625.22 210.833 625.299 210.799 625.374 210.767V211.092C625.448 211.062 625.527 211.027 625.602 210.996V211.321C625.676 211.29 625.755 211.256 625.83 211.224V211.549C625.905 211.519 625.984 211.484 626.059 211.453V211.778C626.133 211.747 626.212 211.712 626.287 211.681V212.006C626.361 211.976 626.44 211.941 626.515 211.91V212.235C626.589 212.204 626.668 212.169 626.743 212.138V212.463C626.818 212.432 626.897 212.398 626.972 212.366V212.691C627.046 212.661 627.125 212.626 627.2 212.595V212.92C627.274 212.889 627.353 212.855 627.428 212.823V213.148C627.502 213.118 627.581 213.083 627.656 213.052V213.377C627.73 213.346 627.809 213.311 627.884 213.28V213.605C627.959 213.574 628.038 213.54 628.113 213.509V213.834C628.187 213.803 628.266 213.768 628.341 213.737V214.062C628.415 214.031 628.494 213.997 628.569 213.965V214.29C628.643 214.26 628.722 214.225 628.797 214.194V214.519C628.871 214.488 628.95 214.454 629.025 214.422V214.747C629.1 214.717 629.179 214.682 629.254 214.651V214.976C629.328 214.945 629.407 214.91 629.482 214.879V215.204C629.556 215.173 629.635 215.139 629.71 215.108V215.432C629.784 215.402 629.863 215.367 629.938 215.336V215.661C630.013 215.63 630.091 215.596 630.167 215.564V215.889C630.241 215.859 630.32 215.824 630.395 215.793V216.118C630.469 216.087 630.548 216.053 630.623 216.021V216.346C630.697 216.316 630.776 216.281 630.851 216.25V216.575C630.925 216.544 631.004 216.509 631.079 216.478V216.803C631.154 216.772 631.233 216.738 631.308 216.707V217.031C631.382 217.001 631.461 216.966 631.536 216.935V217.26C631.61 217.229 631.689 217.195 631.764 217.163V217.488C631.838 217.458 631.917 217.423 631.992 217.392V217.717C632.066 217.686 632.145 217.652 632.22 217.62V217.945C632.295 217.915 632.374 217.88 632.449 217.849V218.174C632.523 218.143 632.602 218.108 632.677 218.077V218.402C632.751 218.371 632.83 218.337 632.905 218.306V218.63C632.979 218.6 633.058 218.565 633.133 218.534V218.859C633.207 218.828 633.286 218.794 633.361 218.762V219.087C633.436 219.057 633.515 219.022 633.59 218.991V219.316C633.664 219.285 633.743 219.251 633.818 219.219V219.544C633.892 219.514 633.971 219.479 634.046 219.448V219.773C634.12 219.742 634.199 219.707 634.274 219.676V220.001C634.349 219.97 634.427 219.936 634.503 219.905V220.229C634.577 220.199 634.656 220.164 634.731 220.133V220.458C634.805 220.427 634.884 220.393 634.959 220.361V220.686C635.033 220.656 635.112 220.621 635.187 220.59V220.915C635.261 220.884 635.34 220.85 635.415 220.818V221.143C635.49 221.113 635.569 221.078 635.644 221.047V221.372C635.718 221.341 635.797 221.306 635.872 221.275V221.6C635.946 221.569 636.025 221.535 636.1 221.503V221.828C636.174 221.798 636.253 221.763 636.328 221.732V222.057C636.402 222.026 636.481 221.992 636.556 221.96V222.285C636.631 222.255 636.71 222.22 636.785 222.189V222.514C636.859 222.483 636.938 222.448 637.013 222.417V222.742C637.087 222.712 637.166 222.677 637.241 222.646V222.971C637.315 222.94 637.394 222.905 637.469 222.874V223.199C637.544 223.168 637.622 223.134 637.698 223.102V223.427C637.772 223.397 637.851 223.362 637.926 223.331V223.656C638 223.625 638.079 223.591 638.154 223.559V223.884C638.228 223.854 638.307 223.819 638.382 223.788V224.113C638.456 224.082 638.535 224.047 638.61 224.016V224.341C638.685 224.311 638.763 224.276 638.839 224.245V224.57C638.913 224.539 638.992 224.504 639.067 224.473V224.798C639.141 224.767 639.22 224.733 639.295 224.701V225.026C639.369 224.996 639.448 224.961 639.523 224.93V225.255C639.597 225.224 639.676 225.19 639.751 225.158V225.483C639.826 225.453 639.905 225.418 639.98 225.387V225.712C640.054 225.681 640.133 225.646 640.208 225.615V225.94C640.282 225.909 640.361 225.875 640.436 225.844V226.169C640.51 226.138 640.589 226.103 640.664 226.072V226.397C640.738 226.366 640.817 226.332 640.892 226.3V226.625C640.967 226.595 641.046 226.56 641.121 226.529V226.854C641.195 226.823 641.274 226.789 641.349 226.757V227.082C641.423 227.052 641.502 227.017 641.577 226.986V227.311C641.651 227.28 641.73 227.245 641.805 227.214V227.539C641.88 227.508 641.958 227.474 642.034 227.443V227.767C642.108 227.737 642.187 227.702 642.262 227.671V227.996C642.336 227.965 642.415 227.931 642.49 227.899V228.224C642.564 228.194 642.643 228.159 642.718 228.128V228.453C642.792 228.422 642.871 228.388 642.946 228.356V228.681C643.021 228.651 643.1 228.616 643.175 228.585V228.91C643.249 228.879 643.328 228.844 643.403 228.813V229.138C643.477 229.107 643.556 229.073 643.631 229.042V229.366C643.705 229.336 643.784 229.301 643.859 229.27V229.595C643.933 229.564 644.012 229.53 644.087 229.498V229.823C644.129 229.806 644.173 229.787 644.215 229.77V241.74H619.462V258.75H619.69V258.979H619.918V259.207H620.147V259.436H620.375V259.664H620.603V259.892H620.831V260.121H621.059V260.349H621.288V260.578H621.516V260.806H621.744V261.035H621.972V261.263H622.2V261.491H622.429V261.72H622.657V261.948H622.885V262.177H623.113V262.405H623.342V262.634H623.57V262.862H623.798V263.09H624.026V263.319H624.254V263.547H624.483V263.776H624.711V264.004H624.939V264.233H625.167V264.461H625.395V264.689H625.624V264.918H625.852V265.146H626.08V265.375H626.308V265.603H626.536V265.832H626.765V266.06H626.993V266.288H627.221V266.517H627.449V266.745H627.677V266.974H627.906V267.202H628.134V267.43H628.362V267.659H628.59V267.887H628.819V268.116H629.047V268.344H629.275V268.573H629.503V268.801H629.731V269.029H629.96V269.258H630.188V269.486H630.416V269.715H630.644V269.943H630.872V270.172H631.101V270.4H631.329V270.628H631.557V270.857H631.785V271.085H632.013V271.314H632.242V271.542H632.47V271.771H632.698V271.999H632.926V272.227H633.155V272.456H633.383V272.684H633.611V272.913H633.839V273.141H634.067V273.37H634.296V273.598H634.524V273.826H634.752V274.055H634.98V274.283H635.208V274.512H635.437V274.74H635.665V274.969H635.893V275.197H636.121V275.425H636.35V275.654H636.578V275.882H636.806V276.111H637.034V276.339H637.262V276.568H637.491V276.796H637.719V277.024H637.947V277.253H638.175V277.481H638.403V277.71H638.632V277.938H638.86V278.167H639.088V278.395H639.316V278.623H639.544V278.852H639.773V279.08H640.001V279.309H640.229V279.537H640.457V279.766H640.686V279.994H640.914V280.222H641.142V280.451H641.37V280.679H641.598V280.908H641.827V281.136H642.055V281.365H642.283V281.593H642.511V281.821H642.739V282.05H642.968V282.278H643.196V282.507H643.424V282.735H643.652V282.964H643.88V283.192H644.109V283.42H644.337V283.649H644.565V283.877H644.793V284.106H645.022V284.334H645.25V284.563H645.478V284.791H645.706V285.019H645.934V285.248H646.163V285.476H646.391V285.705H646.619V285.933H646.847V286.162H647.075V286.39H647.304V286.618H647.532V286.847H647.76V287.075H647.988V287.304H648.217V287.532H648.445V287.761H648.673V287.989H648.901V288.217H649.129V288.446H649.358V288.674H649.586V288.903H649.814V289.131H650.042V289.36H650.27V289.588H650.499V289.816H650.727V289.973C651.318 289.987 651.905 290.018 652.5 290.018Z" fill="url(#paint8_linear_3257_5208)"/>
</g>
<path d="M329.875 290.018C307.853 290.018 290 307.871 290 329.893V435.018H435V290.018H329.875Z" fill="#3A65DA"/>
<g opacity="0.78" style="mix-blend-mode:multiply">
<path d="M435 435.018V372.975L434.778 372.845V372.687L434.398 372.465V372.307L434.018 372.085V371.927L433.638 371.706V371.547L433.259 371.326V371.167L432.879 370.946V370.788L432.499 370.566V370.408L432.119 370.186V370.028L431.739 369.806V369.648L431.359 369.426V369.268L430.979 369.046V368.888L430.599 368.667V368.508L430.22 368.287V368.128L429.84 367.907V367.749L429.46 367.527V367.369L429.08 367.147V366.989L428.7 366.767V366.609L428.32 366.387V366.229L427.94 366.007V365.849L427.56 365.628V365.469L427.18 365.248V365.089L426.801 364.868V364.71L426.421 364.488V364.33L426.041 364.108V363.95L425.661 363.728V363.57L425.281 363.348V363.19L424.901 362.968V362.81L424.521 362.589V362.43L424.141 362.209V362.05L423.762 361.829V361.67L423.382 361.449V361.291L423.002 361.069V360.911L422.622 360.689V360.531L422.242 360.309V360.151L421.862 359.929V359.771L421.482 359.549V359.391L421.102 359.17V359.011L420.723 358.79V358.631L420.343 358.41V358.252L419.963 358.03V357.872L419.583 357.65V357.492L419.203 357.27V357.112L418.823 356.89V356.732L418.443 356.51V356.352L418.063 356.131V355.972L417.684 355.751V355.592L417.304 355.371V355.213L416.924 354.991V354.833L416.544 354.611V354.453L416.164 354.231V354.073L415.784 353.851V353.693L415.404 353.471V353.313L415.024 353.092V352.933L414.644 352.712V352.553L414.265 352.332V352.174L413.885 351.952V351.794L413.505 351.572V351.414L413.125 351.192V351.034L412.745 350.812V350.654L412.365 350.432V350.274L411.985 350.053V349.894L411.605 349.673V349.514L411.226 349.293V349.134L410.846 348.913V348.755L410.466 348.533V348.375L410.086 348.153V347.995L409.706 347.773V347.615L409.326 347.393V347.235L408.946 347.013V346.855L408.566 346.634V346.475L408.187 346.254V346.095L407.807 345.874V345.716L407.427 345.494V345.336L407.047 345.114V344.956L406.667 344.734V344.576L406.287 344.354V344.196L405.907 343.974V343.816L405.527 343.595V343.436L405.148 343.215V343.056L404.768 342.835V342.677L404.388 342.455V342.297L404.008 342.075V341.917L403.628 341.695V341.537L403.248 341.315V341.157L402.868 340.935V340.777L402.488 340.556V340.397L402.108 340.176V340.017L401.729 339.796V339.638L362.5 316.752L323.271 339.638V385.389L323.651 385.611V385.769L324.031 385.991V386.149L324.411 386.371V386.529L324.791 386.751V386.909L325.171 387.13V387.289L325.551 387.51V387.669L325.931 387.89V388.048L326.311 388.27V388.428L326.69 388.65V388.808L327.07 389.03V389.188L327.45 389.41V389.568L327.83 389.79V389.948L328.21 390.169V390.328L328.59 390.549V390.707L328.97 390.929V391.087L329.35 391.309V391.467L329.729 391.689V391.847L330.109 392.069V392.227L330.489 392.449V392.607L330.869 392.829V392.987L331.249 393.208V393.367L331.629 393.588V393.747L332.009 393.968V394.126L332.389 394.348V394.506L332.768 394.728V394.886L333.148 395.108V395.266L333.528 395.488V395.646L333.908 395.868V396.026L334.288 396.248V396.406L334.668 396.627V396.786L335.048 397.007V397.165L335.428 397.387V397.545L335.807 397.767V397.925L336.187 398.147V398.305L336.567 398.527V398.685L336.947 398.907V399.065L337.327 399.287V399.445L337.707 399.666V399.825L338.087 400.046V400.204L338.467 400.426V400.584L338.847 400.806V400.964L339.226 401.186V401.344L339.606 401.566V401.724L339.986 401.946V402.104L340.366 402.326V402.484L340.746 402.705V402.864L341.126 403.085V403.244L341.506 403.465V403.623L341.886 403.845V404.003L342.265 404.225V404.383L342.645 404.605V404.763L343.025 404.985V405.143L343.405 405.365V405.523L343.785 405.744V405.903L344.165 406.124V406.283L344.545 406.504V406.662L344.925 406.884V407.042L345.304 407.264V407.422L345.684 407.644V407.802L346.064 408.024V408.182L346.444 408.404V408.562L346.824 408.784V408.942L347.204 409.163V409.322L347.584 409.543V409.701L347.964 409.923V410.081L348.343 410.303V410.461L348.723 410.683V410.841L349.103 411.063V411.221L349.483 411.443V411.601L349.863 411.823V411.981L350.243 412.202V412.361L350.623 412.582V412.74L351.003 412.962V413.12L351.382 413.342V413.5L351.762 413.722V413.88L352.142 414.102V414.26L352.522 414.482V414.64L352.902 414.862V415.02L353.282 415.241V415.4L353.662 415.621V415.779L354.042 416.001V416.159L354.422 416.381V416.539L354.801 416.761V416.919L355.181 417.141V417.299L355.561 417.521V417.679L355.941 417.901V418.059L356.321 418.28V418.439L356.701 418.66V418.819L357.081 419.04V419.198L357.461 419.42V419.578L357.84 419.8V419.958L358.22 420.18V420.338L358.6 420.56V420.718L358.98 420.94V421.098L359.36 421.32V421.478L359.74 421.699V421.858L360.12 422.079V422.237L360.5 422.459V422.617L360.879 422.839V422.997L361.259 423.219V423.377L361.639 423.599V423.757L362.019 423.979V424.137L362.399 424.359V424.517L362.779 424.738V424.897L363.159 425.118V425.276L363.539 425.498V425.656L363.918 425.878V426.036L364.298 426.258V426.416L364.678 426.638V426.796L365.058 427.018V427.176L365.438 427.398V427.556L365.818 427.777V427.936L366.198 428.157V428.315L366.578 428.537V428.695L366.958 428.917V429.075L367.337 429.297V429.455L367.717 429.677V429.835L368.097 430.057V430.215L368.477 430.437V430.595L368.857 430.816V430.975L369.237 431.196V431.355L369.617 431.576V431.734L369.997 431.956V432.114L370.376 432.336V432.494L370.756 432.716V432.874L371.136 433.096V433.254L371.516 433.476V433.634L371.896 433.856V434.014L372.276 434.235V434.394L372.656 434.615V434.773L373.036 434.995V435.018H435Z" fill="url(#paint9_linear_3257_5208)"/>
</g>
<path d="M145 145.017V0.0172729H217.335C257.467 0.0172729 290 32.4766 290 72.5173C290 112.558 257.467 145.017 217.335 145.017H145Z" fill="#457AA5"/>
<g opacity="0.78" style="mix-blend-mode:multiply">
<path d="M288.52 87.1437C288.463 87.0914 288.401 87.05 288.343 86.9989C288.279 86.9279 288.23 86.8501 288.161 86.7818C288.1 86.7207 288.029 86.678 287.965 86.6216C287.902 86.5506 287.853 86.4727 287.784 86.4044C287.722 86.3434 287.652 86.3008 287.588 86.2444C287.525 86.1733 287.476 86.0954 287.407 86.0271C287.345 85.9662 287.275 85.9235 287.211 85.8671C287.148 85.796 287.099 85.7182 287.03 85.6499C286.968 85.589 286.897 85.5462 286.834 85.4898C286.77 85.4189 286.721 85.3409 286.652 85.2725C286.591 85.2116 286.52 85.1689 286.456 85.1125C286.393 85.0414 286.344 84.9637 286.275 84.8954C286.213 84.8343 286.143 84.7917 286.079 84.7353C286.016 84.6642 285.967 84.5863 285.898 84.518C285.836 84.4571 285.766 84.4145 285.702 84.3581C285.639 84.287 285.59 84.2091 285.521 84.1408C285.459 84.0799 285.388 84.0373 285.325 83.9809C285.261 83.9096 285.212 83.8318 285.143 83.7635C285.082 83.7026 285.011 83.6598 284.947 83.6034C284.884 83.5323 284.835 83.4546 284.766 83.3863C284.704 83.3252 284.634 83.2826 284.57 83.2262C284.507 83.1551 284.458 83.0772 284.389 83.0089C284.327 82.948 284.257 82.9054 284.193 82.849C284.13 82.7779 284.08 82.6999 284.011 82.6316C283.95 82.5707 283.879 82.5279 283.815 82.4715C283.752 82.4006 283.703 82.3227 283.634 82.2544C283.573 82.1935 283.502 82.1509 283.438 82.0945C283.375 82.0234 283.326 81.9455 283.257 81.8771C283.195 81.8161 283.125 81.7735 283.061 81.717C282.998 81.646 282.949 81.5682 282.88 81.4999C282.818 81.4388 282.747 81.3962 282.684 81.3398C282.62 81.2688 282.571 81.1908 282.502 81.1225C282.441 81.0616 282.37 81.0188 282.306 80.9624C282.243 80.8915 282.194 80.8136 282.125 80.7453C282.063 80.6844 281.993 80.6418 281.929 80.5854C281.866 80.5143 281.817 80.4363 281.748 80.368C281.686 80.3071 281.616 80.2643 281.552 80.2079C281.489 80.1368 281.44 80.0591 281.37 79.9908C281.309 79.9297 281.238 79.8871 281.175 79.8307C281.111 79.7596 281.062 79.6817 280.993 79.6134C280.932 79.5525 280.861 79.5098 280.797 79.4534C280.734 79.3824 280.685 79.3046 280.616 79.2363C280.554 79.1753 280.484 79.1327 280.42 79.0763C280.357 79.0052 280.308 78.9272 280.239 78.8589C280.177 78.798 280.107 78.7552 280.043 78.6988C279.979 78.6277 279.93 78.55 279.861 78.4817C279.8 78.4206 279.729 78.378 279.665 78.3216C279.602 78.2505 279.553 78.1727 279.484 78.1044C279.422 78.0434 279.352 78.0008 279.288 77.9444C279.225 77.8733 279.176 77.7955 279.107 77.727C279.045 77.6662 278.975 77.6235 278.911 77.5671C278.848 77.496 278.799 77.4181 278.73 77.3498C278.668 77.2889 278.598 77.2461 278.534 77.1898C278.47 77.1186 278.421 77.0409 278.352 76.9726C278.291 76.9116 278.22 76.8689 278.156 76.8124C278.093 76.7415 278.044 76.6636 277.975 76.5953C277.913 76.5342 277.843 76.4917 277.779 76.4352C277.716 76.3642 277.667 76.2862 277.598 76.2179C277.536 76.157 277.466 76.1144 277.402 76.058C277.339 75.9869 277.29 75.909 277.221 75.8407C277.159 75.7797 277.088 75.7371 277.025 75.6807C276.961 75.6096 276.912 75.5318 276.843 75.4634C276.782 75.4025 276.711 75.3597 276.647 75.3033C276.584 75.2322 276.535 75.1545 276.466 75.0862C276.404 75.0251 276.334 74.9825 276.27 74.9261C276.207 74.855 276.158 74.7772 276.089 74.7089C276.027 74.6479 275.957 74.6053 275.893 74.5489C275.83 74.4778 275.781 74.4 275.711 74.3315C275.65 74.2706 275.579 74.228 275.516 74.1714C275.452 74.1005 275.403 74.0226 275.334 73.9543C275.273 73.8934 275.202 73.8506 275.138 73.7943C275.075 73.7231 275.026 73.6454 274.957 73.577C274.895 73.5161 274.825 73.4734 274.761 73.417C274.698 73.346 274.649 73.2681 274.58 73.1998C274.518 73.1388 274.448 73.096 274.384 73.0396C274.32 72.9686 274.271 72.8907 274.202 72.8224C274.141 72.7616 274.07 72.719 274.007 72.6626C273.943 72.5915 273.894 72.5136 273.825 72.4452C273.763 72.3842 273.693 72.3416 273.629 72.2852C273.566 72.2141 273.517 72.1363 273.448 72.0679C273.386 72.007 273.316 71.9643 273.252 71.9079C273.189 71.8368 273.14 71.759 273.071 71.6907C273.009 71.6296 272.938 71.5869 272.875 71.5305C272.811 71.4595 272.762 71.3817 272.693 71.3134C272.632 71.2525 272.561 71.2098 272.497 71.1535C272.434 71.0824 272.385 71.0045 272.316 70.9361C272.254 70.8751 272.184 70.8325 272.12 70.7761C272.057 70.705 272.008 70.6272 271.939 70.5588C271.877 70.4979 271.807 70.4551 271.743 70.3988C271.68 70.3277 271.631 70.2499 271.561 70.1816C271.5 70.1205 271.429 70.0778 271.365 70.0214C271.302 69.9504 271.253 69.8726 271.184 69.8043C271.123 69.7434 271.052 69.7008 270.988 69.6444C270.925 69.5733 270.876 69.4954 270.807 69.427C270.745 69.366 270.675 69.3234 270.611 69.267C270.548 69.1959 270.499 69.118 270.43 69.0497C270.368 68.9888 270.298 68.9461 270.234 68.8897C270.17 68.8186 270.121 68.7408 270.052 68.6725C269.991 68.6115 269.92 68.5688 269.856 68.5124C269.793 68.4414 269.744 68.3635 269.675 68.2952C269.613 68.2342 269.543 68.1916 269.479 68.1352C269.416 68.0641 269.367 67.9862 269.298 67.9179C269.236 67.8569 269.166 67.8143 269.102 67.7578C269.039 67.6868 268.99 67.6089 268.921 67.5406C268.859 67.4797 268.788 67.437 268.725 67.3806C268.661 67.3095 268.612 67.2317 268.543 67.1633C268.482 67.1024 268.411 67.0597 268.347 67.0033C268.284 66.9322 268.235 66.8544 268.166 66.7861C268.104 66.7251 268.034 66.6825 267.97 66.626C267.907 66.555 267.858 66.4771 267.789 66.4088C267.727 66.3478 267.657 66.3051 267.593 66.2487C267.53 66.1777 267.481 66.0998 267.412 66.0315C267.35 65.9705 267.279 65.9279 267.216 65.8715C267.152 65.8004 267.103 65.7225 267.034 65.6542C266.973 65.5933 266.902 65.5506 266.838 65.4942C266.775 65.4231 266.726 65.3453 266.657 65.277C266.595 65.216 266.525 65.1734 266.461 65.117C266.398 65.0459 266.349 64.968 266.28 64.8996C266.218 64.8387 266.148 64.796 266.084 64.7396C266.02 64.6685 265.971 64.5907 265.902 64.5224C265.841 64.4614 265.77 64.4187 265.706 64.3623C265.643 64.2913 265.594 64.2134 265.525 64.1451C265.464 64.0841 265.393 64.0415 265.329 63.9851C265.266 63.914 265.217 63.8362 265.148 63.7678C265.086 63.7068 265.016 63.6641 264.952 63.6077C264.889 63.5367 264.84 63.4589 264.771 63.3906C264.709 63.3297 264.639 63.287 264.575 63.2307C264.511 63.1596 264.462 63.0816 264.393 63.0133C264.332 62.9523 264.261 62.9096 264.197 62.8532C264.134 62.7822 264.085 62.7043 264.016 62.636C263.954 62.575 263.884 62.5324 263.82 62.476C263.757 62.4049 263.708 62.3271 263.639 62.2587C263.577 62.1977 263.507 62.155 263.443 62.0986C263.38 62.0276 263.331 61.9498 263.262 61.8815C263.2 61.8206 263.129 61.7779 263.066 61.7216C263.002 61.6504 262.953 61.5725 262.884 61.5042C262.823 61.4432 262.752 61.4005 262.688 61.3441C262.625 61.2731 262.576 61.1952 262.507 61.1269C262.445 61.0659 262.375 61.0233 262.311 60.9669C262.248 60.8958 262.199 60.818 262.13 60.7496C262.068 60.6886 261.998 60.6459 261.934 60.5895C261.87 60.5185 261.821 60.4407 261.752 60.3724C261.691 60.3115 261.62 60.2688 261.557 60.2125C261.493 60.1413 261.444 60.0634 261.375 59.9951C261.313 59.9341 261.243 59.8914 261.179 59.835C261.116 59.7639 261.067 59.6861 260.998 59.6178C260.936 59.5568 260.866 59.5142 260.802 59.4577C260.739 59.3867 260.69 59.3088 260.621 59.2405C260.559 59.1796 260.489 59.1369 260.425 59.0805C260.361 59.0094 260.312 58.9316 260.243 58.8633C260.182 58.8023 260.111 58.7596 260.047 58.7032C259.984 58.6322 259.935 58.5542 259.866 58.4859C259.804 58.425 259.734 58.3823 259.67 58.3259C259.607 58.2548 259.558 58.177 259.489 58.1087C259.427 58.0477 259.357 58.005 259.293 57.9486C259.23 57.8776 259.181 57.7997 259.112 57.7314C259.05 57.6704 258.979 57.6278 258.916 57.5714C258.852 57.5003 258.803 57.4225 258.734 57.3541C258.673 57.2932 258.602 57.2505 258.538 57.1941C258.475 57.123 258.426 57.0451 258.357 56.9768C258.295 56.9159 258.225 56.8732 258.161 56.8168C258.098 56.7457 258.049 56.6679 257.98 56.5996C257.918 56.5386 257.848 56.4959 257.784 56.4395C257.721 56.3684 257.672 56.2906 257.603 56.2223C257.541 56.1613 257.47 56.1187 257.407 56.0622C257.343 55.9912 257.294 55.9133 257.225 55.845C257.164 55.7841 257.093 55.7415 257.029 55.685C256.966 55.6139 256.917 55.5361 256.848 55.4677C256.786 55.4067 256.716 55.3641 256.652 55.3077C256.589 55.2366 256.54 55.1588 256.471 55.0904C256.409 55.0295 256.339 54.9868 256.275 54.9304C256.211 54.8593 256.162 54.7815 256.093 54.7132C256.032 54.6522 255.961 54.6095 255.897 54.5531C255.834 54.4821 255.785 54.4042 255.716 54.3359C255.654 54.2749 255.584 54.2322 255.52 54.1757C255.457 54.1047 255.408 54.027 255.339 53.9587C255.277 53.8978 255.207 53.8551 255.143 53.7987C255.08 53.7276 255.031 53.6497 254.962 53.5813C254.9 53.5204 254.829 53.4777 254.766 53.4213C254.702 53.3502 254.653 53.2724 254.584 53.2041C254.523 53.1431 254.452 53.1004 254.388 53.044C254.325 52.973 254.276 52.8951 254.207 52.8268C254.145 52.7658 254.075 52.723 254.011 52.6666C253.948 52.5956 253.899 52.5179 253.83 52.4495C253.768 52.3886 253.698 52.346 253.634 52.2896C253.571 52.2185 253.522 52.1406 253.452 52.0722C253.391 52.0113 253.32 51.9686 253.257 51.9122C253.193 51.8411 253.144 51.7633 253.075 51.695C253.014 51.634 252.943 51.5913 252.879 51.5349C252.816 51.4639 252.767 51.386 252.698 51.3177C252.636 51.2567 252.566 51.2139 252.502 51.1575C252.439 51.0865 252.39 51.0087 252.321 50.9404C252.259 50.8795 252.189 50.8369 252.125 50.7805C252.062 50.7094 252.013 50.6315 251.943 50.5631C251.882 50.5021 251.811 50.4595 251.747 50.4031C251.684 50.332 251.635 50.2542 251.566 50.1858C251.504 50.1249 251.434 50.0822 251.37 50.0258C251.307 49.9547 251.258 49.8769 251.189 49.8086C251.127 49.7476 251.057 49.705 250.993 49.6485C250.93 49.5775 250.881 49.4996 250.812 49.4313C250.75 49.3704 250.679 49.3277 250.616 49.2713C250.552 49.2002 250.503 49.1223 250.434 49.054C250.373 48.993 250.302 48.9504 250.238 48.894C250.175 48.8229 250.126 48.745 250.057 48.6767C249.995 48.6158 249.925 48.5731 249.861 48.5167C249.798 48.4456 249.749 48.3678 249.68 48.2995C249.618 48.2385 249.548 48.1958 249.484 48.1394C249.421 48.0684 249.372 47.9905 249.303 47.9222C249.241 47.8612 249.17 47.8186 249.107 47.7622C249.043 47.6912 248.994 47.6132 248.925 47.5449C248.864 47.4839 248.793 47.4412 248.729 47.3848C248.666 47.3138 248.617 47.2359 248.548 47.1676C248.486 47.1066 248.416 47.064 248.352 47.0076C248.289 46.9365 248.24 46.8587 248.171 46.7903C248.109 46.7294 248.039 46.6867 247.975 46.6303C247.912 46.5592 247.863 46.4814 247.793 46.4131C247.732 46.3521 247.661 46.3095 247.598 46.2531C247.534 46.182 247.485 46.1041 247.416 46.0358C247.354 45.9748 247.284 45.9321 247.22 45.8757C247.157 45.8047 247.108 45.7268 247.039 45.6585C246.977 45.5975 246.907 45.5549 246.843 45.4985C246.78 45.4274 246.731 45.3495 246.662 45.2812C246.6 45.2203 246.53 45.1776 246.466 45.1212C246.402 45.0501 246.353 44.9723 246.284 44.904C246.223 44.8429 246.152 44.8002 246.088 44.7438C246.025 44.6728 245.976 44.595 245.907 44.5267C245.845 44.4658 245.775 44.4231 245.711 44.3668C245.648 44.2957 245.599 44.2178 245.53 44.1494C245.468 44.0884 245.398 44.0458 245.334 43.9893C245.271 43.9183 245.222 43.8404 245.153 43.7721C245.091 43.7112 245.02 43.6685 244.957 43.6121C244.893 43.541 244.844 43.4633 244.775 43.395C244.714 43.3339 244.643 43.2911 244.579 43.2347C244.516 43.1638 244.467 43.0859 244.398 43.0176C244.336 42.9567 244.266 42.9141 244.202 42.8577C244.139 42.7866 244.09 42.7087 244.021 42.6403C243.959 42.5793 243.889 42.5367 243.825 42.4802C243.762 42.4092 243.713 42.3314 243.643 42.2631C243.582 42.2021 243.511 42.1594 243.448 42.103C243.384 42.0319 243.335 41.9541 243.266 41.8858C243.205 41.8247 243.134 41.782 243.07 41.7256C243.007 41.6546 242.958 41.5768 242.889 41.5085C242.827 41.4476 242.757 41.4049 242.693 41.3486C242.63 41.2775 242.581 41.1996 242.512 41.1312C242.45 41.0703 242.38 41.0275 242.316 40.9711C242.252 40.9001 242.203 40.8222 242.134 40.7539C242.073 40.6929 242.002 40.6503 241.938 40.5939C241.875 40.5228 241.826 40.445 241.757 40.3766C240.934 39.5628 239.915 39.1558 238.698 39.1558C237.482 39.1558 236.463 39.5628 235.64 40.3766C235.17 40.8415 234.85 41.3774 234.648 41.9691C234.625 41.9479 234.6 41.931 234.576 41.9105C234.513 41.8394 234.464 41.7617 234.395 41.6934C234.334 41.6323 234.263 41.5897 234.199 41.5333C234.136 41.4622 234.087 41.3843 234.018 41.316C233.956 41.2551 233.886 41.2125 233.822 41.1561C233.759 41.085 233.71 41.0071 233.641 40.9387C233.579 40.8778 233.509 40.8351 233.445 40.7786C233.382 40.7076 233.333 40.6298 233.263 40.5615C233.202 40.5004 233.131 40.4577 233.067 40.4013C233.004 40.3303 232.955 40.2525 232.886 40.1842C232.825 40.1232 232.754 40.0805 232.69 40.0242C232.627 39.9531 232.578 39.8752 232.509 39.8069C232.447 39.7459 232.377 39.7033 232.313 39.647C232.25 39.5759 232.201 39.498 232.132 39.4296C232.07 39.3687 232 39.326 231.936 39.2695C231.872 39.1985 231.823 39.1206 231.754 39.0523C231.693 38.9915 231.622 38.9487 231.558 38.8923C231.495 38.8212 231.446 38.7434 231.377 38.6751C231.315 38.6141 231.245 38.5714 231.181 38.515C231.118 38.4439 231.069 38.3662 231 38.2979C230.938 38.2368 230.868 38.1942 230.804 38.1379C230.741 38.0668 230.692 37.989 230.623 37.9205C230.561 37.8596 230.49 37.8168 230.427 37.7604C230.363 37.6895 230.314 37.6115 230.245 37.5432C230.184 37.4822 230.113 37.4396 230.049 37.3832C229.986 37.3121 229.937 37.2343 229.868 37.166C229.806 37.1049 229.736 37.0623 229.672 37.0059C229.609 36.9348 229.56 36.8571 229.491 36.7888C229.429 36.7278 229.359 36.6851 229.295 36.6288C229.232 36.5577 229.183 36.4797 229.113 36.4114C229.052 36.3504 228.981 36.3077 228.918 36.2513C228.854 36.1804 228.805 36.1024 228.736 36.0341C228.675 35.9731 228.604 35.9305 228.54 35.8741C228.477 35.803 228.428 35.7252 228.359 35.6569C228.297 35.5958 228.227 35.5532 228.163 35.4967C228.1 35.4257 228.051 35.348 227.982 35.2796C227.92 35.2187 227.85 35.176 227.786 35.1197C227.722 35.0485 227.673 34.9706 227.604 34.9023C227.543 34.8413 227.472 34.7986 227.408 34.7422C227.345 34.6712 227.296 34.5933 227.227 34.525C227.165 34.464 227.095 34.4214 227.031 34.365C226.968 34.2939 226.919 34.216 226.85 34.1477C226.788 34.0867 226.718 34.044 226.654 33.9876C226.591 33.9165 226.542 33.8388 226.473 33.7705C226.411 33.7096 226.34 33.6669 226.277 33.6106C226.213 33.5394 226.164 33.4615 226.095 33.3931C226.034 33.3322 225.963 33.2895 225.899 33.233C225.836 33.162 225.787 33.0842 225.718 33.0159C225.656 32.9549 225.586 32.9123 225.522 32.8559C225.459 32.7848 225.41 32.7069 225.341 32.6386C225.279 32.5776 225.209 32.5349 225.145 32.4785C225.081 32.4074 225.032 32.3297 224.963 32.2614C224.902 32.2004 224.831 32.1578 224.768 32.1014C224.704 32.0303 224.655 31.9524 224.586 31.8841C223.763 31.0702 222.744 30.6633 221.528 30.6633C220.311 30.6633 219.292 31.0702 218.469 31.8841C217.646 32.6979 217.235 33.7064 217.235 34.9095V37.4596C217.231 37.4556 217.228 37.4509 217.224 37.4469C217.163 37.386 217.092 37.3433 217.028 37.2869C216.965 37.2158 216.916 37.138 216.847 37.0697C216.785 37.0086 216.715 36.9659 216.651 36.9095C216.588 36.8384 216.539 36.7607 216.47 36.6924C216.408 36.6315 216.338 36.5888 216.274 36.5324C216.211 36.4614 216.162 36.3835 216.092 36.3151C216.031 36.2542 215.96 36.2116 215.897 36.1552C215.833 36.0841 215.784 36.0062 215.715 35.9378C215.654 35.8769 215.583 35.8341 215.519 35.7777C215.456 35.7067 215.407 35.6289 215.338 35.5606C215.276 35.4995 215.206 35.4568 215.142 35.4004C215.079 35.3293 215.03 35.2516 214.961 35.1833C214.899 35.1224 214.829 35.0797 214.765 35.0233C214.702 34.9523 214.652 34.8744 214.583 34.8061C214.522 34.7451 214.451 34.7025 214.388 34.6461C214.324 34.575 214.275 34.4971 214.206 34.4287C214.144 34.3678 214.074 34.325 214.01 34.2686C213.947 34.1976 213.898 34.1198 213.829 34.0515C213.767 33.9904 213.697 33.9477 213.633 33.8913C213.57 33.8202 213.521 33.7425 213.452 33.6742C213.39 33.6133 213.32 33.5706 213.256 33.5142C213.192 33.4432 213.143 33.3653 213.074 33.297C213.013 33.236 212.942 33.1933 212.878 33.1369C212.815 33.0659 212.766 32.988 212.697 32.9197C212.635 32.8587 212.565 32.8161 212.502 32.7598C212.438 32.6887 212.39 32.6107 212.32 32.5424C212.258 32.4814 212.188 32.4387 212.124 32.3823C212.062 32.3113 212.012 32.2334 211.943 32.1651C211.881 32.1041 211.81 32.0613 211.747 32.0049C211.683 31.9339 211.635 31.8562 211.565 31.7878C211.505 31.7269 211.433 31.6842 211.369 31.6278C211.306 31.5568 211.257 31.4789 211.188 31.4106C211.127 31.3496 211.057 31.307 210.992 31.2507C210.929 31.1795 210.88 31.1016 210.812 31.0333C210.75 30.9723 210.679 30.9296 210.615 30.8732C210.552 30.8022 210.503 30.7243 210.433 30.656C210.372 30.595 210.302 30.5522 210.237 30.4958C210.174 30.4248 210.125 30.347 210.057 30.2787C209.995 30.2178 209.924 30.1751 209.86 30.1188C209.797 30.0477 209.748 29.9698 209.68 29.9015C209.617 29.8405 209.547 29.7979 209.484 29.7416C209.42 29.6704 209.372 29.5925 209.302 29.5241C209.24 29.4632 209.169 29.4205 209.107 29.3641C209.042 29.293 208.993 29.2152 208.924 29.1469C208.864 29.0859 208.792 29.0431 208.729 28.9867C208.665 28.9157 208.617 28.8379 208.547 28.7696C208.485 28.7087 208.415 28.666 208.352 28.6097C208.289 28.5386 208.24 28.4607 208.17 28.3924C208.109 28.3314 208.039 28.2888 207.974 28.2325C207.912 28.1613 207.863 28.0834 207.792 28.015C207.732 27.9542 207.661 27.9114 207.597 27.855C207.534 27.7839 207.485 27.7061 207.415 27.6378C206.592 26.8239 205.573 26.4171 204.357 26.4171C203.141 26.4171 202.122 26.8239 201.299 27.6378C200.476 28.4517 200.065 29.4601 200.065 30.6633V45.9522C200.06 45.9481 200.058 45.9435 200.053 45.9394C199.993 45.8785 199.922 45.8358 199.857 45.7795C199.795 45.7084 199.745 45.6306 199.677 45.5622C199.615 45.5012 199.545 45.4586 199.48 45.4023C199.417 45.3311 199.368 45.2532 199.3 45.1848C199.238 45.124 199.167 45.0812 199.104 45.0247C199.04 44.9537 198.992 44.8759 198.922 44.8076C198.86 44.7466 198.789 44.7038 198.726 44.6474C198.662 44.5764 198.614 44.4986 198.545 44.4303C198.484 44.3694 198.412 44.3267 198.349 44.2704C198.286 44.1993 198.237 44.1215 198.168 44.0531C198.105 43.9921 198.036 43.9495 197.972 43.8932C197.909 43.822 197.86 43.7441 197.79 43.6757C197.729 43.6148 197.659 43.5721 197.595 43.5156C197.531 43.4446 197.483 43.3668 197.413 43.2985C197.352 43.2375 197.281 43.1947 197.217 43.1383C197.154 43.0673 197.105 42.9895 197.036 42.9212C196.975 42.8603 196.904 42.8176 196.84 42.7613C196.777 42.6902 196.728 42.6124 196.659 42.544C196.597 42.483 196.527 42.4404 196.463 42.3839C196.4 42.3129 196.351 42.235 196.282 42.1667C196.22 42.1058 196.15 42.0632 196.086 42.0068C196.022 41.9357 195.973 41.8578 195.904 41.7894C195.843 41.7284 195.772 41.6856 195.708 41.6292C195.645 41.5582 195.596 41.4804 195.527 41.4121C195.465 41.3512 195.395 41.3085 195.331 41.2522C195.268 41.1811 195.219 41.1033 195.15 41.0349C195.088 40.9739 195.018 40.9312 194.954 40.8748C194.891 40.8038 194.842 40.7259 194.773 40.6576C194.711 40.5966 194.64 40.554 194.577 40.4977C194.513 40.4266 194.464 40.3487 194.395 40.2803C194.334 40.2193 194.263 40.1765 194.199 40.1201C194.136 40.0491 194.087 39.9713 194.018 39.903C193.956 39.8421 193.886 39.7994 193.822 39.7431C193.759 39.672 193.71 39.5941 193.641 39.5258C193.579 39.4648 193.509 39.4221 193.445 39.3657C193.381 39.2947 193.332 39.2168 193.263 39.1485C193.202 39.0875 193.131 39.0449 193.068 38.9886C193.004 38.9175 192.955 38.8396 192.886 38.7712C192.824 38.7102 192.754 38.6675 192.69 38.6111C192.627 38.54 192.578 38.4622 192.509 38.3939C192.447 38.3329 192.377 38.2902 192.313 38.2338C192.25 38.1628 192.201 38.0849 192.132 38.0167C192.07 37.9557 191.999 37.913 191.936 37.8566C191.872 37.7856 191.823 37.7077 191.754 37.6394C191.693 37.5784 191.622 37.5358 191.558 37.4795C191.495 37.4084 191.446 37.3305 191.377 37.2621C191.315 37.2011 191.245 37.1584 191.181 37.102C191.118 37.0309 191.069 36.9531 191 36.8848C190.938 36.8238 190.868 36.7811 190.804 36.7247C190.74 36.6537 190.692 36.5758 190.622 36.5076C190.561 36.4466 190.49 36.4039 190.427 36.3476C190.363 36.2765 190.314 36.1987 190.245 36.1303C189.422 35.3164 188.403 34.9095 187.187 34.9095C185.97 34.9095 184.951 35.3164 184.128 36.1303C183.305 36.9442 182.894 37.9526 182.894 39.1557V79.8137L171.089 71.7458C169.372 70.5427 167.458 70.0473 165.347 70.2596C163.237 70.4719 161.466 71.3211 160.035 72.8074C159.463 73.3735 159.123 74.0634 159.015 74.8774C158.908 75.6913 159.105 76.452 159.606 77.1597L178.601 104.76C179.881 106.604 181.306 108.286 182.868 109.814C182.993 109.94 183.118 110.067 183.244 110.191C183.37 110.317 183.495 110.444 183.622 110.568C183.747 110.695 183.872 110.821 183.999 110.945C184.124 111.072 184.249 111.199 184.377 111.323C184.502 111.45 184.627 111.576 184.754 111.7C184.879 111.827 185.004 111.953 185.131 112.077C185.256 112.204 185.381 112.33 185.508 112.454C185.633 112.581 185.759 112.708 185.886 112.832C186.011 112.959 186.136 113.085 186.263 113.209C186.388 113.336 186.513 113.462 186.64 113.586C186.765 113.713 186.89 113.839 187.017 113.963C187.142 114.09 187.268 114.217 187.395 114.342C187.52 114.468 187.645 114.594 187.772 114.718C187.897 114.845 188.022 114.971 188.149 115.096C188.274 115.222 188.399 115.348 188.526 115.472C188.651 115.599 188.776 115.726 188.904 115.85C189.029 115.977 189.154 116.103 189.281 116.228C189.406 116.354 189.531 116.48 189.657 116.605C189.782 116.731 189.908 116.858 190.035 116.982C190.16 117.108 190.285 117.235 190.412 117.359C190.538 117.485 190.663 117.612 190.79 117.737C190.915 117.863 191.04 117.99 191.167 118.114C191.292 118.24 191.417 118.367 191.545 118.491C191.67 118.617 191.794 118.744 191.92 118.868C192.047 118.995 192.172 119.121 192.3 119.246C192.425 119.372 192.549 119.499 192.676 119.623C192.802 119.749 192.927 119.876 193.053 120C193.178 120.126 193.303 120.253 193.43 120.377C193.556 120.504 193.681 120.631 193.808 120.755C193.933 120.881 194.058 121.008 194.185 121.132C194.311 121.258 194.436 121.385 194.563 121.509C194.688 121.636 194.813 121.762 194.94 121.886C195.065 122.013 195.19 122.14 195.318 122.264C195.443 122.391 195.568 122.517 195.695 122.641C195.82 122.768 195.945 122.894 196.071 123.018C196.196 123.145 196.321 123.271 196.448 123.395C196.573 123.522 196.7 123.649 196.826 123.773C196.951 123.9 197.076 124.026 197.204 124.15C197.329 124.277 197.454 124.403 197.581 124.527C197.706 124.654 197.831 124.78 197.958 124.904C198.083 125.031 198.208 125.158 198.336 125.282C198.461 125.409 198.586 125.535 198.713 125.66C198.838 125.786 198.963 125.912 199.089 126.037C199.214 126.163 199.339 126.29 199.466 126.414C199.591 126.54 199.716 126.666 199.843 126.791C199.969 126.917 200.094 127.044 200.221 127.169C200.346 127.295 200.471 127.421 200.598 127.546C200.723 127.672 200.848 127.799 200.976 127.923C201.101 128.049 201.226 128.176 201.352 128.3C201.478 128.427 201.603 128.553 201.73 128.678C201.855 128.804 201.98 128.931 202.107 129.055C202.232 129.181 202.358 129.308 202.485 129.432C202.61 129.558 202.734 129.685 202.861 129.809C202.987 129.936 203.112 130.062 203.24 130.187C203.365 130.313 203.489 130.44 203.616 130.564C203.742 130.69 203.867 130.817 203.994 130.941C204.119 131.067 204.244 131.194 204.37 131.318C204.497 131.445 204.622 131.572 204.749 131.696C204.874 131.822 204.999 131.949 205.125 132.073C205.252 132.199 205.377 132.326 205.503 132.45C205.628 132.577 205.753 132.703 205.88 132.827C206.005 132.954 206.13 133.081 206.258 133.205C206.383 133.332 206.508 133.458 206.635 133.582C206.76 133.709 206.885 133.835 207.012 133.959C207.137 134.086 207.262 134.212 207.389 134.336C207.514 134.463 207.639 134.589 207.766 134.714C207.892 134.841 208.017 134.967 208.144 135.092C208.269 135.218 208.394 135.344 208.521 135.468C208.646 135.595 208.771 135.721 208.898 135.846C209.023 135.972 209.148 136.098 209.275 136.223C209.4 136.349 209.526 136.476 209.653 136.601C209.778 136.727 209.903 136.853 210.03 136.978C210.155 137.104 210.28 137.231 210.407 137.355C210.532 137.481 210.657 137.607 210.784 137.732C210.91 137.858 211.035 137.985 211.162 138.11C211.287 138.236 211.412 138.362 211.539 138.487C211.664 138.613 211.789 138.74 211.916 138.864C212.041 138.99 212.166 139.117 212.293 139.241C212.419 139.368 212.544 139.494 212.671 139.619C212.796 139.745 212.921 139.872 213.048 139.996C213.173 140.122 213.299 140.249 213.426 140.373C213.551 140.499 213.675 140.626 213.802 140.75C213.928 140.877 214.053 141.003 214.181 141.128C214.306 141.254 214.431 141.381 214.557 141.505C214.682 141.631 214.808 141.758 214.935 141.882C215.06 142.008 215.185 142.135 215.311 142.259C215.437 142.386 215.562 142.513 215.69 142.637C215.815 142.763 215.94 142.89 216.066 143.014C216.192 143.14 216.317 143.267 216.444 143.391C216.569 143.518 216.694 143.644 216.821 143.768C216.946 143.895 217.071 144.021 217.198 144.146C217.324 144.272 217.449 144.399 217.576 144.524C217.701 144.65 217.826 144.776 217.953 144.9C217.986 144.933 218.019 144.966 218.052 144.999C252.842 144.662 281.785 119.947 288.52 87.1437Z" fill="url(#paint10_linear_3257_5208)"/>
</g>
<path d="M207.789 119.836C201.923 119.836 196.414 118.509 191.262 115.855C186.111 113.201 181.89 109.504 178.599 104.762L159.603 77.1614C159.102 76.4537 158.906 75.693 159.013 74.8791C159.12 74.0651 159.46 73.3751 160.033 72.809C161.463 71.3228 163.234 70.4736 165.345 70.2613C167.455 70.0489 169.369 70.5443 171.086 71.7474L182.891 79.8153V39.1574C182.891 37.9543 183.303 36.9459 184.126 36.132C184.948 35.3181 185.968 34.9112 187.184 34.9112C188.4 34.9112 189.42 35.3181 190.243 36.132C191.066 36.9459 191.477 37.9543 191.477 39.1574V87.9894C191.477 89.6879 190.708 90.9441 189.17 91.7579C187.631 92.5718 186.147 92.4834 184.716 91.4925L175.594 85.2293L185.789 99.8789C188.293 103.488 191.477 106.301 195.34 108.318C199.204 110.335 203.354 111.344 207.789 111.344C215.159 111.344 221.437 108.778 226.624 103.647C231.811 98.5166 234.404 92.3063 234.404 85.017V43.4036C234.404 42.2005 234.816 41.1921 235.639 40.3782C236.461 39.5643 237.481 39.1574 238.697 39.1574C239.913 39.1574 240.933 39.5643 241.756 40.3782C242.579 41.1921 242.99 42.2005 242.99 43.4036V85.017C242.99 94.7126 239.574 102.94 232.741 109.698C225.908 116.457 217.591 119.836 207.789 119.836ZM204.355 26.4186C205.571 26.4186 206.591 26.8256 207.414 27.6394C208.237 28.4533 208.648 29.4618 208.648 30.6649V68.8812C208.648 70.0844 208.237 71.0928 207.414 71.9067C206.591 72.7206 205.571 73.1275 204.355 73.1275C203.139 73.1275 202.119 72.7206 201.297 71.9067C200.474 71.0928 200.062 70.0844 200.062 68.8812V30.6649C200.062 29.4618 200.474 28.4533 201.297 27.6394C202.119 26.8256 203.139 26.4186 204.355 26.4186ZM221.526 30.6649C222.742 30.6649 223.762 31.0718 224.585 31.8857C225.408 32.6996 225.819 33.7081 225.819 34.9112V68.8812C225.819 70.0844 225.408 71.0928 224.585 71.9067C223.762 72.7206 222.742 73.1275 221.526 73.1275C220.31 73.1275 219.29 72.7206 218.468 71.9067C217.645 71.0928 217.233 70.0844 217.233 68.8812V34.9112C217.233 33.7081 217.645 32.6996 218.468 31.8857C219.29 31.0718 220.31 30.6649 221.526 30.6649Z" fill="#7FA3E9"/>
<path d="M621.469 207.209V190.392C635.58 186.243 644.787 180.697 649.092 173.755H662.963V241.74H685.563V258.75H619.437V241.74H644.189V195C634.463 200.905 626.89 204.975 621.469 207.209Z" fill="#7FA3E9"/>
<path d="M72.5 162.506L85.5296 202.607H127.695L93.5824 227.391L106.612 267.492L72.5 242.708L38.3879 267.492L51.4176 227.391L17.3055 202.607H59.4704L72.5 162.506Z" fill="#7FA3E9"/>
<path fill-rule="evenodd" clip-rule="evenodd" d="M362.5 316.752L401.729 339.638V385.389L362.5 408.285L323.271 385.389V339.638L362.5 316.752ZM333.167 345.407V379.63L362.5 396.737L391.832 379.63V345.397L362.5 328.3L333.167 345.407Z" fill="#7FA3E9"/>
<path d="M372.396 362.513C372.396 368.043 367.963 372.512 362.5 372.512C357.037 372.512 352.604 368.043 352.604 362.513C352.604 356.994 357.037 352.515 362.5 352.515C367.963 352.515 372.396 356.994 372.396 362.513Z" fill="#7FA3E9"/>
<defs>
<linearGradient id="paint0_linear_3257_5208" x1="461.106" y1="313.595" x2="580" y2="420.128" gradientUnits="userSpaceOnUse">
<stop stop-color="#7AA5E7"/>
<stop offset="0.99716" stop-color="#003BA1"/>
</linearGradient>
<linearGradient id="paint1_linear_3257_5208" x1="739.889" y1="290.018" x2="846.422" y2="171.123" gradientUnits="userSpaceOnUse">
<stop stop-color="#7AA5E7"/>
<stop offset="0.99716" stop-color="#003BA1"/>
</linearGradient>
<linearGradient id="paint2_linear_3257_5208" x1="652.5" y1="290.018" x2="652.5" y2="435.018" gradientUnits="userSpaceOnUse">
<stop stop-color="#A3C2EE"/>
<stop offset="1" stop-color="#043EA3"/>
</linearGradient>
<linearGradient id="paint3_linear_3257_5208" x1="362.5" y1="145.017" x2="362.5" y2="290.017" gradientUnits="userSpaceOnUse">
<stop stop-color="#A3C2EE"/>
<stop offset="1" stop-color="#043EA3"/>
</linearGradient>
<linearGradient id="paint4_linear_3257_5208" x1="72.5" y1="290.017" x2="72.5" y2="435.017" gradientUnits="userSpaceOnUse">
<stop offset="0.00283998" stop-color="#003BA1"/>
<stop offset="1" stop-color="#7AA5E7"/>
</linearGradient>
<linearGradient id="paint5_linear_3257_5208" x1="579.965" y1="83.3107" x2="456.627" y2="83.3107" gradientUnits="userSpaceOnUse">
<stop offset="0.00283998" stop-color="#003BA1"/>
<stop offset="1" stop-color="#7AA5E7"/>
</linearGradient>
<linearGradient id="paint6_linear_3257_5208" x1="145" y1="226.262" x2="17.3054" y2="226.262" gradientUnits="userSpaceOnUse">
<stop offset="0.00283998" stop-color="#003BA1"/>
<stop offset="1" stop-color="#7AA5E7"/>
</linearGradient>
<linearGradient id="paint7_linear_3257_5208" x1="469.895" y1="34.3016" x2="719.895" y2="285.139" gradientUnits="userSpaceOnUse">
<stop stop-color="#A3C2EE"/>
<stop offset="1" stop-color="#043EA3"/>
</linearGradient>
<linearGradient id="paint8_linear_3257_5208" x1="723.071" y1="231.886" x2="619.462" y2="231.886" gradientUnits="userSpaceOnUse">
<stop offset="0.00283998" stop-color="#003BA1"/>
<stop offset="1" stop-color="#7AA5E7"/>
</linearGradient>
<linearGradient id="paint9_linear_3257_5208" x1="435" y1="375.885" x2="323.271" y2="375.885" gradientUnits="userSpaceOnUse">
<stop offset="0.00283998" stop-color="#003BA1"/>
<stop offset="1" stop-color="#7AA5E7"/>
</linearGradient>
<linearGradient id="paint10_linear_3257_5208" x1="288.521" y1="85.708" x2="158.986" y2="85.708" gradientUnits="userSpaceOnUse">
<stop offset="0.00283998" stop-color="#003BA1"/>
<stop offset="1" stop-color="#7AA5E7"/>
</linearGradient>
</defs>
</svg>
