<svg xmlns="http://www.w3.org/2000/svg" width="218" height="118" fill="none" viewBox="0 0 218 118"><path fill="#f6f6f6" d="M0 0h218v118H0z"/><mask id="a" width="89" height="89" x="64" y="14" maskUnits="userSpaceOnUse" style="mask-type:alpha"><path fill="#d9d9d9" d="M64 14h89v89H64z"/></mask><g mask="url(#a)"><path fill="#154973" d="M67.708 80.75q-1.575 0-2.642-1.066-1.065-1.066-1.066-2.642v-2.133q0-3.985 4.08-6.49 4.078-2.502 10.753-2.502 1.206 0 2.318.046t2.132.232a15.4 15.4 0 0 0-1.947 4.079 15.2 15.2 0 0 0-.648 4.45v6.026zm22.25 0q-1.575 0-2.642-1.066-1.065-1.066-1.066-2.642v-2.318q0-2.967 1.622-5.424 1.623-2.456 4.59-4.31 2.966-1.855 7.092-2.782t8.946-.927q4.914 0 9.039.927 4.125.928 7.092 2.782t4.543 4.31 1.576 5.424v2.318q0 1.575-1.066 2.642t-2.642 1.066zm46.354 0v-6.026q0-2.41-.602-4.543a14.5 14.5 0 0 0-1.808-3.986q1.02-.186 2.086-.232t2.179-.046q6.674 0 10.754 2.456T153 74.91v2.133q0 1.575-1.066 2.642t-2.642 1.066zM94.13 73.333h28.833q-.928-1.853-5.146-3.245-4.218-1.39-9.317-1.39t-9.317 1.39-5.053 3.245M78.833 62.208q-3.06 0-5.238-2.178-2.178-2.18-2.178-5.238 0-3.152 2.178-5.285 2.18-2.132 5.238-2.132 3.153 0 5.285 2.132t2.132 5.285q0 3.06-2.132 5.238t-5.285 2.178m59.334 0q-3.06 0-5.238-2.178-2.18-2.18-2.179-5.238 0-3.152 2.179-5.285t5.238-2.132q3.152 0 5.284 2.132 2.133 2.132 2.132 5.285 0 3.06-2.132 5.238t-5.284 2.178M108.5 58.5q-4.635 0-7.88-3.245t-3.245-7.88q0-4.728 3.245-7.927t7.88-3.198q4.728 0 7.927 3.198 3.198 3.2 3.198 7.927 0 4.635-3.198 7.88-3.2 3.245-7.927 3.245m0-7.417q1.576 0 2.642-1.066 1.066-1.065 1.066-2.642 0-1.575-1.066-2.642t-2.642-1.066-2.642 1.066-1.066 2.642q0 1.575 1.066 2.642t2.642 1.066"/></g></svg>