<svg xmlns="http://www.w3.org/2000/svg" width="218" height="118" fill="none" viewBox="0 0 218 118"><path fill="#f6f6f6" d="M0 0h218v118H0z"/><mask id="a" width="69" height="69" x="74" y="24" maskUnits="userSpaceOnUse" style="mask-type:alpha"><path fill="#d9d9d9" d="M74 24h69v69H74z"/></mask><g mask="url(#a)"><path fill="#154973" d="M88.375 84.374q-2.372 0-4.06-1.69-1.69-1.69-1.69-4.06v-40.25q0-2.373 1.69-4.061 1.688-1.69 4.06-1.69h18.759q1.438 0 2.157.9.718.897.718 1.976 0 1.077-.754 1.976-.755.9-2.193.899H88.375v40.25h40.25v-18.76q0-1.437.898-2.156t1.977-.719q1.078 0 1.977.719.898.72.898 2.156v18.76q0 2.371-1.689 4.06-1.69 1.69-4.061 1.69zm11.5-20.125v-6.972q0-1.15.431-2.192a5.6 5.6 0 0 1 1.222-1.833l24.725-24.725a5.7 5.7 0 0 1 1.941-1.294 5.8 5.8 0 0 1 2.156-.431q1.15 0 2.192.431t1.905 1.294l4.025 4.097a6.5 6.5 0 0 1 1.222 1.904q.43 1.043.431 2.12 0 1.08-.395 2.12a5.4 5.4 0 0 1-1.258 1.906l-24.725 24.725a6.1 6.1 0 0 1-1.833 1.257 5.3 5.3 0 0 1-2.192.468h-6.972q-1.222 0-2.048-.827t-.827-2.048m5.75-2.875h4.025l16.675-16.675-2.013-2.013-2.084-2.012-16.603 16.603z"/></g></svg>