<svg xmlns="http://www.w3.org/2000/svg" width="218" height="118" fill="none" viewBox="0 0 218 118"><path fill="#f6f6f6" d="M0 0h218v118H0z"/><mask id="a" width="99" height="99" x="59" y="9" maskUnits="userSpaceOnUse" style="mask-type:alpha"><path fill="#d9d9d9" d="M59 9h99v99H59z"/></mask><g mask="url(#a)"><path fill="#154973" d="m78.902 58.605 15.984 15.984q1.135 1.135 1.135 2.887 0 1.755-1.135 2.888-1.134 1.134-2.887 1.134t-2.888-1.134L70.136 61.389q-.618-.62-.876-1.34a4.6 4.6 0 0 1-.258-1.548q0-.825.258-1.546.258-.723.876-1.341l18.975-18.975q1.238-1.238 2.94-1.238t2.939 1.238q1.237 1.238 1.237 2.939t-1.237 2.939zm59.194-.207-15.985-15.984q-1.134-1.134-1.134-2.888 0-1.752 1.134-2.887 1.135-1.135 2.888-1.135t2.887 1.135l18.975 18.975q.62.619.877 1.34.258.723.258 1.547 0 .825-.258 1.547t-.877 1.34l-18.975 18.976q-1.237 1.237-2.887 1.186t-2.888-1.29q-1.237-1.237-1.237-2.938t1.237-2.94z"/></g></svg>