<svg width="1649" height="200" viewBox="0 0 1649 200" fill="none" xmlns="http://www.w3.org/2000/svg">
<g id="Excelsior-logo-horizontal" clip-path="url(#clip0_0_28)">
<g id="Group 168">
<g id="Group">
<path id="Vector" d="M1227.92 85.6307H1233.84L1256.8 113.106V85.6307H1262.46V121.56H1256.9L1233.58 93.549V121.56H1227.92V85.6307Z" fill="#62666A"/>
<path id="Vector_2" d="M1267.69 108.52C1267.69 100.601 1273.83 94.8935 1281.96 94.8935C1290.37 94.8935 1295.86 100.766 1295.86 109.064V110.351H1273.18C1273.73 114.664 1276.9 117.84 1282.88 117.84C1286.28 117.84 1289.28 116.768 1291.61 114.879L1293.87 118.384C1290.9 120.859 1287.19 122.203 1282.34 122.203C1274.16 122.203 1267.69 117.139 1267.69 108.52ZM1290.8 106.424C1290.42 102.977 1287.78 99.2568 1281.91 99.2568C1276.75 99.2568 1273.73 102.54 1273.18 106.424H1290.8Z" fill="#62666A"/>
<path id="Vector_3" d="M1318.59 101.682L1311.54 121.56H1306.21L1297 95.5368H1302.55L1309.18 114.937L1316.34 95.5368H1320.97L1328.08 114.937L1334.71 95.5368H1340.25L1331.03 121.56H1325.7L1318.59 101.682Z" fill="#62666A"/>
<path id="Vector_4" d="M1364.25 106.581L1348.37 85.6307H1355.36L1367.17 101.467L1378.75 85.6307H1385.8L1369.91 106.688V121.56H1364.25V106.581Z" fill="#62666A"/>
<path id="Vector_5" d="M1379.49 108.52C1379.49 100.708 1385.2 94.8935 1393.98 94.8935C1402.82 94.8935 1408.48 100.708 1408.48 108.52C1408.48 116.388 1402.82 122.203 1393.98 122.203C1385.2 122.203 1379.49 116.388 1379.49 108.52ZM1393.98 117.683C1399.7 117.683 1403.15 113.584 1403.15 108.52C1403.15 103.455 1399.7 99.4217 1393.98 99.4217C1388.27 99.4217 1384.82 103.455 1384.82 108.52C1384.82 113.584 1388.27 117.683 1393.98 117.683Z" fill="#62666A"/>
<path id="Vector_6" d="M1413.92 95.5368H1419.05V99.364C1421.57 96.8895 1425.14 94.9512 1429.11 94.9512V100.007C1428.68 99.9579 1428.15 99.9001 1427.23 99.9001C1424 99.9001 1420.45 101.575 1419.05 103.455V121.56H1413.92V95.5368Z" fill="#62666A"/>
<path id="Vector_7" d="M1435.2 85.6307H1440.33V108.305L1454.5 95.5368H1461.28L1448.08 107.34L1461.44 121.56H1454.65L1444.37 110.408L1440.33 113.963V121.56H1435.2V85.6307Z" fill="#62666A"/>
<path id="Vector_8" d="M1474.39 115.902L1477.79 111.646C1480.74 114.607 1485.49 117.139 1491.46 117.139C1498.24 117.139 1501.11 114.45 1501.11 111.646C1501.11 107.827 1496.69 106.903 1490.56 105.88C1483.12 104.701 1475.58 103.133 1475.58 95.4296C1475.58 89.2929 1481.66 85.0369 1490.6 85.0369C1497.22 85.0369 1502.45 87.0824 1506.11 90.6951L1502.66 94.7863C1499.64 91.8746 1495.34 90.1013 1490.18 90.1013C1484.78 90.1013 1481.5 92.0396 1481.5 95.0007C1481.5 98.3412 1485.49 99.2073 1491.79 100.28C1499.28 101.624 1506.98 103.241 1506.98 111.109C1506.98 116.924 1502.07 122.203 1491.2 122.203C1483.81 122.203 1477.67 119.3 1474.39 115.902Z" fill="#62666A"/>
<path id="Vector_9" d="M1515.69 115.044V100.065H1510.48V95.5368H1515.69V88.4269H1520.82V95.5368H1527.34V100.065H1520.82V114.071C1520.82 116.331 1521.95 117.683 1524.11 117.683C1525.34 117.683 1526.7 117.246 1527.29 116.768L1528.58 120.694C1527.44 121.502 1525.56 122.203 1522.87 122.203C1518.23 122.203 1515.69 119.564 1515.69 115.044Z" fill="#62666A"/>
<path id="Vector_10" d="M1545.42 99.364C1541.9 99.364 1538.95 100.494 1536.41 102.87L1533.94 99.364C1537.17 96.3452 1541.05 94.8935 1545.9 94.8935C1551.93 94.8935 1557.59 97.3185 1557.59 104.321V121.56H1552.48V118.756C1550.2 120.917 1546.97 122.203 1542.93 122.203C1538.14 122.203 1532.53 119.407 1532.53 113.584C1532.53 107.497 1538.14 105.072 1542.93 105.072C1547.03 105.072 1550.32 106.317 1552.48 108.47V104.428C1552.48 101.253 1549.72 99.364 1545.42 99.364ZM1544.71 118.599C1547.78 118.599 1550.75 117.626 1552.48 115.794V111.489C1550.75 109.658 1547.78 108.742 1544.71 108.742C1540.45 108.742 1537.81 110.623 1537.81 113.691C1537.81 116.661 1540.45 118.599 1544.71 118.599Z" fill="#62666A"/>
<path id="Vector_11" d="M1568.38 115.044V100.065H1563.17V95.5368H1568.38V88.4269H1573.51V95.5368H1580.02V100.065H1573.51V114.071C1573.51 116.331 1574.63 117.683 1576.79 117.683C1578.03 117.683 1579.38 117.246 1579.97 116.768L1581.26 120.694C1580.12 121.502 1578.24 122.203 1575.55 122.203C1570.92 122.203 1568.38 119.564 1568.38 115.044Z" fill="#62666A"/>
<path id="Vector_12" d="M1584.4 108.52C1584.4 100.601 1590.53 94.8935 1598.66 94.8935C1607.08 94.8935 1612.57 100.766 1612.57 109.064V110.351H1589.89C1590.43 114.664 1593.6 117.84 1599.59 117.84C1602.99 117.84 1605.99 116.768 1608.31 114.879L1610.57 118.384C1607.6 120.859 1603.89 122.203 1599.04 122.203C1590.86 122.203 1584.4 117.139 1584.4 108.52ZM1607.5 106.424C1607.13 102.977 1604.49 99.2568 1598.61 99.2568C1593.45 99.2568 1590.43 102.54 1589.89 106.424H1607.5Z" fill="#62666A"/>
<path id="Vector_13" d="M1621.56 91.6602C1621.39 91.7179 1621.03 91.8251 1620.75 91.8251C1618.92 91.8251 1617.68 90.4229 1617.68 88.5918C1617.68 86.703 1619.25 85.0863 1621.13 85.0863C1623.24 85.0863 1624.96 86.7607 1624.96 89.6146C1624.96 93.2768 1622.91 96.5596 1620.11 98.6134L1617.8 96.6751C1619.51 95.5946 1621.24 93.4418 1621.56 91.6602Z" fill="#62666A"/>
<path id="Vector_14" d="M1624.66 117.947L1627.3 114.128C1629.44 116.174 1633.27 117.947 1637.31 117.947C1641.57 117.947 1643.51 116.388 1643.51 114.392C1643.51 111.86 1640.16 111.159 1636.34 110.516C1631.06 109.6 1625.4 108.52 1625.4 102.705C1625.4 98.5557 1629.34 94.8935 1636.4 94.8935C1641.4 94.8935 1645.34 96.6174 1647.77 98.7701L1645.39 102.432C1643.45 100.552 1640.16 99.1496 1636.34 99.1496C1632.63 99.1496 1630.58 100.494 1630.58 102.383C1630.58 104.486 1633.65 105.072 1637.26 105.723C1642.42 106.581 1648.68 107.711 1648.68 114.071C1648.68 118.492 1644.75 122.203 1637.1 122.203C1632.25 122.203 1627.56 120.644 1624.66 117.947Z" fill="#62666A"/>
<path id="Vector_15" d="M1227.92 147.303H1243.06C1255.19 147.303 1263.58 153.761 1263.58 165.292C1263.58 176.823 1255.19 183.232 1243.06 183.232H1227.92V147.303ZM1243.06 178.167C1252.48 178.167 1257.76 173.21 1257.76 165.292C1257.76 157.266 1252.6 152.309 1243.06 152.309H1233.58V178.167H1243.06Z" fill="#62666A"/>
<path id="Vector_16" d="M1267.86 170.191C1267.86 162.273 1273.99 156.565 1282.12 156.565C1290.54 156.565 1296.03 162.438 1296.03 170.736V172.031H1273.35C1273.89 176.336 1277.06 179.512 1283.05 179.512C1286.45 179.512 1289.45 178.44 1291.77 176.551L1294.03 180.056C1291.06 182.531 1287.35 183.875 1282.5 183.875C1274.32 183.875 1267.86 178.811 1267.86 170.191ZM1290.97 168.096C1290.59 164.649 1287.95 160.929 1282.07 160.929C1276.91 160.929 1273.89 164.211 1273.35 168.096H1290.97Z" fill="#62666A"/>
<path id="Vector_17" d="M1298.95 179.619L1301.59 175.8C1303.73 177.846 1307.56 179.619 1311.6 179.619C1315.86 179.619 1317.8 178.06 1317.8 176.064C1317.8 173.532 1314.45 172.831 1310.63 172.188C1305.35 171.272 1299.69 170.191 1299.69 164.376C1299.69 160.228 1303.63 156.565 1310.69 156.565C1315.69 156.565 1319.63 158.289 1322.06 160.442L1319.68 164.104C1317.74 162.224 1314.45 160.821 1310.63 160.821C1306.92 160.821 1304.87 162.166 1304.87 164.055C1304.87 166.158 1307.94 166.744 1311.55 167.395C1316.71 168.253 1322.97 169.383 1322.97 175.743C1322.97 180.164 1319.04 183.875 1311.39 183.875C1306.54 183.875 1301.85 182.316 1298.95 179.619Z" fill="#62666A"/>
<path id="Vector_18" d="M1330.77 146.494C1332.55 146.494 1334.05 147.946 1334.05 149.777C1334.05 151.559 1332.55 153.01 1330.77 153.01C1329.04 153.01 1327.54 151.559 1327.54 149.777C1327.54 147.946 1329.04 146.494 1330.77 146.494ZM1328.23 157.209H1333.36V183.232H1328.23V157.209Z" fill="#62666A"/>
<path id="Vector_19" d="M1339.89 189.591L1342.48 185.929C1344.69 188.189 1348.04 189.534 1352.06 189.534C1356.48 189.534 1360.79 187.653 1360.79 181.83V178.869C1358.69 181.401 1355.3 183.397 1351.11 183.397C1343.88 183.397 1338.39 178.489 1338.39 169.977C1338.39 161.572 1343.83 156.565 1351.11 156.565C1355.2 156.565 1358.64 158.504 1360.79 161.036V157.209H1365.92V181.78C1365.92 191.15 1358.74 193.79 1352.18 193.79C1347.11 193.79 1343.4 192.717 1339.89 189.591ZM1352.39 178.869C1355.79 178.869 1359.12 177.145 1360.79 175.099V164.863C1359.12 162.818 1355.79 161.094 1352.39 161.094C1347.28 161.094 1343.72 164.591 1343.72 169.977C1343.72 175.421 1347.28 178.869 1352.39 178.869Z" fill="#62666A"/>
<path id="Vector_20" d="M1385.63 161.094C1382.3 161.094 1379.16 162.818 1377.45 164.698V183.232H1372.32V157.209H1377.45V160.986C1379.54 158.825 1383.42 156.565 1387.51 156.565C1393.55 156.565 1397.16 159.634 1397.16 165.993V183.232H1392.05V167.016C1392.05 162.488 1389.56 161.094 1385.63 161.094Z" fill="#62666A"/>
<path id="Vector_21" d="M1413.49 177.574L1416.89 173.318C1419.84 176.279 1424.59 178.811 1430.56 178.811C1437.34 178.811 1440.21 176.122 1440.21 173.318C1440.21 169.499 1435.79 168.583 1429.66 167.552C1422.22 166.373 1414.68 164.805 1414.68 157.102C1414.68 150.965 1420.76 146.709 1429.71 146.709C1436.32 146.709 1441.55 148.754 1445.21 152.367L1441.76 156.458C1438.74 153.547 1434.44 151.773 1429.28 151.773C1423.88 151.773 1420.6 153.712 1420.6 156.673C1420.6 160.013 1424.59 160.879 1430.89 161.951C1438.38 163.296 1446.08 164.913 1446.08 172.781C1446.08 178.596 1441.17 183.875 1430.3 183.875C1422.91 183.875 1416.77 180.972 1413.49 177.574Z" fill="#62666A"/>
<path id="Vector_22" d="M1451.59 193.41L1452.4 188.783C1453.05 189.047 1454.07 189.212 1454.76 189.212C1456.71 189.212 1458.11 188.725 1459.18 186.465L1460.53 183.611L1448.58 157.209H1454.28L1463.34 177.681L1472.28 157.209H1477.99L1463.92 188.131C1462.08 192.231 1458.75 193.74 1454.83 193.79C1453.95 193.79 1452.45 193.633 1451.59 193.41Z" fill="#62666A"/>
<path id="Vector_23" d="M1478.84 179.619L1481.48 175.8C1483.63 177.846 1487.45 179.619 1491.5 179.619C1495.75 179.619 1497.7 178.06 1497.7 176.064C1497.7 173.532 1494.35 172.831 1490.52 172.188C1485.24 171.272 1479.59 170.191 1479.59 164.376C1479.59 160.228 1483.53 156.565 1490.59 156.565C1495.59 156.565 1499.53 158.289 1501.95 160.442L1499.58 164.104C1497.63 162.224 1494.35 160.821 1490.52 160.821C1486.81 160.821 1484.77 162.166 1484.77 164.055C1484.77 166.158 1487.83 166.744 1491.45 167.395C1496.61 168.253 1502.86 169.383 1502.86 175.743C1502.86 180.164 1498.93 183.875 1491.28 183.875C1486.43 183.875 1481.75 182.316 1478.84 179.619Z" fill="#62666A"/>
<path id="Vector_24" d="M1510.35 176.716V161.737H1505.14V157.209H1510.35V150.099H1515.48V157.209H1521.99V161.737H1515.48V175.743C1515.48 178.003 1516.6 179.355 1518.76 179.355C1520 179.355 1521.35 178.926 1521.95 178.44L1523.23 182.374C1522.09 183.174 1520.21 183.875 1517.52 183.875C1512.89 183.875 1510.35 181.236 1510.35 176.716Z" fill="#62666A"/>
<path id="Vector_25" d="M1526.37 170.191C1526.37 162.273 1532.5 156.565 1540.63 156.565C1549.05 156.565 1554.54 162.438 1554.54 170.736V172.031H1531.86C1532.4 176.336 1535.57 179.512 1541.56 179.512C1544.96 179.512 1547.96 178.44 1550.28 176.551L1552.54 180.056C1549.57 182.531 1545.86 183.875 1541.01 183.875C1532.83 183.875 1526.37 178.811 1526.37 170.191ZM1549.48 168.096C1549.1 164.649 1546.46 160.929 1540.58 160.929C1535.42 160.929 1532.4 164.211 1531.86 168.096H1549.48Z" fill="#62666A"/>
<path id="Vector_26" d="M1589.39 161.094C1586.59 161.094 1583.74 162.818 1582.28 164.698V183.232H1577.17V166.48C1577.17 163.189 1575.7 161.094 1571.73 161.094C1569.02 161.094 1566.17 162.76 1564.62 164.649V183.232H1559.49V157.209H1564.62V161.036C1565.95 159.37 1569.62 156.565 1573.87 156.565C1578.19 156.565 1580.77 158.718 1581.74 161.415C1583.74 158.933 1587.35 156.565 1591.54 156.565C1596.93 156.565 1600 159.37 1600 165.243V183.232H1594.89V166.48C1594.89 163.189 1593.53 161.094 1589.39 161.094Z" fill="#62666A"/>
</g>
</g>
<g id="Group_2">
<path id="Vector_27" d="M237.754 184.918V19.3925H354.877V50.4131H272.989V85.4039H353.141V116.424H272.989V153.897H354.877V184.918H237.754Z" fill="#1B1B1B"/>
<path id="Vector_28" d="M454.673 184.918L427.378 144.467L399.833 184.918H364.846L407.278 123.373L367.327 65.0547H402.563L427.378 102.031L451.944 65.0547H487.179L446.981 123.373L489.909 184.918H454.673Z" fill="#1B1B1B"/>
<path id="Vector_29" d="M488.739 124.862C488.739 88.134 515.29 62.0767 552.263 62.0767C576.829 62.0767 591.718 72.7477 599.659 83.6669L579.062 103.023C573.355 94.5861 564.671 90.1193 553.753 90.1193C534.644 90.1193 521.245 104.016 521.245 124.862C521.245 145.708 534.644 159.853 553.753 159.853C564.671 159.853 573.355 154.89 579.062 146.949L599.659 166.057C591.718 177.225 576.829 187.896 552.263 187.896C515.29 187.896 488.739 161.838 488.739 124.862Z" fill="#1B1B1B"/>
<path id="Vector_30" d="M604.367 124.862C604.367 90.1193 629.926 62.0767 666.402 62.0767C702.135 62.0767 726.453 88.8784 726.453 128.088V135.037H637.369C639.355 150.175 651.514 162.831 671.861 162.831C682.035 162.831 696.18 158.364 703.873 150.919L717.768 171.269C705.856 182.188 686.998 187.896 668.387 187.896C631.91 187.896 604.367 163.328 604.367 124.862ZM666.402 87.141C646.799 87.141 638.363 101.783 636.873 113.695H695.932C695.186 102.279 687.246 87.141 666.402 87.141Z" fill="#1B1B1B"/>
<path id="Vector_31" d="M745.081 184.918V19.3925H776.596V184.918H745.081Z" fill="#1B1B1B"/>
<path id="Vector_32" d="M793.142 169.283L806.789 147.197C815.473 155.386 833.34 163.576 848.23 163.576C861.877 163.576 868.328 158.116 868.328 150.671C868.328 142.482 857.41 140.248 844.258 137.767C823.662 133.796 797.111 128.585 797.111 99.7976C797.111 79.6962 814.73 62.0767 846.244 62.0767C866.592 62.0767 882.721 69.0253 894.631 78.4554L881.977 100.046C874.781 92.3525 861.133 86.1486 846.492 86.1486C835.078 86.1486 827.633 91.3599 827.633 98.0605C827.633 105.009 837.064 106.994 850.463 109.724C871.057 113.695 898.602 119.402 898.602 149.43C898.602 171.269 879.992 187.896 846.74 187.896C825.895 187.896 805.797 180.947 793.142 169.283Z" fill="#1B1B1B"/>
<path id="Vector_33" d="M913.609 33.2897C913.609 22.8667 922.293 14.6775 932.467 14.6775C942.889 14.6775 951.326 22.8667 951.326 33.2897C951.326 43.7124 942.889 52.1501 932.467 52.1501C922.293 52.1501 913.609 43.7124 913.609 33.2897ZM916.834 184.918V65.0547H948.348V184.918H916.834Z" fill="#1B1B1B"/>
<path id="Vector_34" d="M966.285 124.862C966.285 90.8637 990.107 62.0767 1029.56 62.0767C1069.26 62.0767 1093.09 90.8637 1093.09 124.862C1093.09 159.109 1069.26 187.896 1029.56 187.896C990.107 187.896 966.285 159.109 966.285 124.862ZM1060.33 124.862C1060.33 106.25 1049.16 90.1193 1029.56 90.1193C1009.96 90.1193 999.039 106.25 999.039 124.862C999.039 143.723 1009.96 159.853 1029.56 159.853C1049.16 159.853 1060.33 143.723 1060.33 124.862Z" fill="#1B1B1B"/>
<path id="Vector_35" d="M1112.06 184.918V65.0547H1143.57V81.4333C1152.01 70.7624 1166.9 62.0767 1181.79 62.0767V92.849C1179.55 92.3525 1176.58 92.1046 1173.1 92.1046C1162.68 92.1046 1148.78 98.0605 1143.57 105.754V184.918H1112.06Z" fill="#1B1B1B"/>
</g>
<g id="Vector_36">
<path d="M74.7902 105.262L42.278 72.7374V44.3622H155.736L199.303 88.2314C193.463 38.5474 151.235 0 100 0C44.7715 0 0 44.7883 0 100.037C0 122.563 7.4462 143.346 20.005 160.068" fill="#286AD8"/>
<path d="M74.7902 105.262L42.278 72.7374V44.3622H155.736L199.303 88.2314C193.463 38.5474 151.235 0 100 0C44.7715 0 0 44.7883 0 100.037C0 122.563 7.4462 143.346 20.005 160.068" fill="black" fill-opacity="0.1"/>
<path d="M42.278 72.6626H107.302L74.7902 105.187L42.278 72.6626ZM155.736 44.2874V157.788H127.372V92.7145L40.0701 180.049C56.7716 192.576 77.5186 200 100 200C155.229 200 200 155.212 200 99.9625C200 95.9573 199.738 92.0155 199.28 88.1333L155.736 44.2874Z" fill="#0E324F"/>
</g>
</g>
<defs>
<clipPath id="clip0_0_28">
<rect width="1648.68" height="200" fill="white"/>
</clipPath>
</defs>
</svg>
