<svg width="268" height="138" viewBox="0 0 268 138" fill="none" xmlns="http://www.w3.org/2000/svg">
<path d="M0 113.157V66.3257H33.2497V75.1023H10.0029V85.0022H32.757V93.7788H10.0029V104.381H33.2497V113.157H0Z" fill="#1B1B1B"/>
<path d="M61.5809 113.157L53.8321 101.713L46.0124 113.157H36.0798L48.1259 95.7447L36.7843 79.2448H46.7873L53.8321 89.7065L60.806 79.2448H70.8089L59.397 95.7447L71.5838 113.157H61.5809Z" fill="#1B1B1B"/>
<path d="M71.2517 96.166C71.2517 85.7746 78.7893 78.4023 89.2855 78.4023C96.2594 78.4023 100.486 81.4214 102.741 84.5107L96.8935 89.9873C95.2734 87.6001 92.808 86.3363 89.7085 86.3363C84.2838 86.3363 80.4798 90.2682 80.4798 96.166C80.4798 102.064 84.2838 106.066 89.7085 106.066C92.808 106.066 95.2734 104.662 96.8935 102.415L102.741 107.821C100.486 110.981 96.2594 114 89.2855 114C78.7893 114 71.2517 106.628 71.2517 96.166Z" fill="#1B1B1B"/>
<path d="M104.077 96.166C104.077 86.3363 111.333 78.4023 121.688 78.4023C131.832 78.4023 138.736 85.9852 138.736 97.0788V99.0447H113.446C114.01 103.328 117.462 106.909 123.238 106.909C126.126 106.909 130.142 105.645 132.326 103.538L136.271 109.296C132.889 112.385 127.535 114 122.252 114C111.896 114 104.077 107.049 104.077 96.166ZM121.688 85.4937C116.123 85.4937 113.728 89.6363 113.305 93.0065H130.072C129.86 89.7766 127.606 85.4937 121.688 85.4937Z" fill="#1B1B1B"/>
<path d="M144.024 113.157V66.3257H152.971V113.157H144.024Z" fill="#1B1B1B"/>
<path d="M157.668 108.734L161.542 102.485C164.008 104.802 169.08 107.119 173.307 107.119C177.181 107.119 179.013 105.574 179.013 103.468C179.013 101.151 175.913 100.519 172.179 99.8171C166.332 98.6937 158.795 97.2192 158.795 89.0746C158.795 83.3873 163.797 78.4023 172.743 78.4023C178.52 78.4023 183.099 80.3682 186.48 83.0362L182.888 89.1448C180.844 86.9681 176.97 85.2129 172.814 85.2129C169.573 85.2129 167.46 86.6873 167.46 88.5831C167.46 90.549 170.137 91.1107 173.941 91.8831C179.787 93.0065 187.607 94.6213 187.607 103.117C187.607 109.296 182.324 114 172.884 114C166.967 114 161.261 112.034 157.668 108.734Z" fill="#1B1B1B"/>
<path d="M191.867 70.2576C191.867 67.3086 194.333 64.9917 197.221 64.9917C200.18 64.9917 202.575 67.3086 202.575 70.2576C202.575 73.2066 200.18 75.5937 197.221 75.5937C194.333 75.5937 191.867 73.2065 191.867 70.2576ZM192.783 113.157V79.2448H201.73V113.157H192.783Z" fill="#1B1B1B"/>
<path d="M206.822 96.166C206.822 86.5469 213.584 78.4023 224.785 78.4023C236.056 78.4023 242.819 86.5469 242.819 96.166C242.819 105.855 236.056 114 224.785 114C213.584 114 206.822 105.855 206.822 96.166ZM233.52 96.166C233.52 90.9 230.35 86.3363 224.785 86.3363C219.22 86.3363 216.12 90.9 216.12 96.166C216.12 101.502 219.22 106.066 224.785 106.066C230.35 106.066 233.52 101.502 233.52 96.166Z" fill="#1B1B1B"/>
<path d="M248.205 113.157V79.2448H257.152V83.8788C259.547 80.8597 263.774 78.4023 268 78.4023V87.1086C267.366 86.9681 266.521 86.898 265.535 86.898C262.576 86.898 258.631 88.5831 257.152 90.7597V113.157H248.205Z" fill="#1B1B1B"/>
<path d="M135.391 0C117.97 0 103.847 14.0759 103.847 31.4394C103.847 38.5187 106.196 45.0504 110.157 50.3055L137.694 22.8597H117.183V13.942H152.972V49.6127H144.024V29.1615L116.487 56.6087C121.755 60.5458 128.299 62.8789 135.391 62.8789C152.811 62.8789 166.934 48.803 166.934 31.4394C166.934 14.0758 152.811 0 135.391 0Z" fill="#457AA5"/>
<path d="M117.183 22.8597H137.694L127.439 33.0813L117.183 22.8597ZM152.972 13.942V49.6127H144.024V29.1615L116.487 56.6087C121.755 60.5457 128.299 62.8789 135.391 62.8789C152.811 62.8789 166.934 48.8029 166.934 31.4394C166.934 30.1807 166.851 28.9419 166.707 27.7218L152.972 13.942Z" fill="#0E324F"/>
<path d="M0 133.849V122.51H2.193L8.993 130.721V122.51H11.084V133.849H9.044L2.108 125.434V133.849H0ZM17.4039 134.053C14.7859 134.053 12.7119 132.472 12.7119 129.735C12.7119 127.219 14.6839 125.434 17.2849 125.434C19.9199 125.434 21.7219 127.27 21.7219 129.939V130.415H14.7519C14.9389 131.588 15.8399 132.438 17.6079 132.438C18.6109 132.438 19.5629 132.132 20.2429 131.588L21.0759 132.88C20.1409 133.628 18.9169 134.053 17.4039 134.053ZM14.7519 128.987H19.8519C19.7159 128.018 18.9509 127.049 17.2679 127.049C15.7889 127.049 14.9389 127.899 14.7519 128.987ZM31.2313 133.849L29.1233 127.848L26.9983 133.849H24.9923L22.1023 125.638H24.1423L26.0973 131.418L28.2563 125.638H29.9903L32.1153 131.435L34.0703 125.638H36.1273L33.2373 133.849H31.2313ZM45.314 133.849V129.191L40.316 122.51H42.9L46.368 127.27L49.785 122.51H52.386L47.405 129.174V133.849H45.314ZM55.0247 134.053C52.2027 134.053 50.3837 132.217 50.3837 129.735C50.3837 127.253 52.2027 125.434 55.0247 125.434C57.8807 125.434 59.6827 127.253 59.6827 129.735C59.6827 132.217 57.8807 134.053 55.0247 134.053ZM52.3557 129.735C52.3557 131.231 53.3757 132.37 55.0247 132.37C56.6907 132.37 57.7107 131.231 57.7107 129.735C57.7107 128.256 56.6907 127.1 55.0247 127.1C53.3757 127.1 52.3557 128.256 52.3557 129.735ZM61.28 133.849V125.638H63.184V126.777C63.966 126.029 65.088 125.434 66.312 125.434V127.287C66.176 127.27 65.989 127.253 65.666 127.253C64.68 127.253 63.626 127.712 63.184 128.222V133.849H61.28ZM67.5312 133.849V122.51H69.4352V129.412L73.5322 125.638H76.0142L71.9342 129.361L76.0992 133.849H73.6172L70.5742 130.5L69.4352 131.52V133.849H67.5312ZM86.2704 134.053C83.8904 134.053 81.9014 133.118 80.8474 132.064L82.0714 130.5C83.0234 131.418 84.5364 132.183 86.3724 132.183C88.2764 132.183 89.1774 131.503 89.1774 130.687C89.1774 129.633 87.9364 129.378 86.0494 129.089C83.6524 128.715 81.2214 128.205 81.2214 125.689C81.2214 123.717 83.1254 122.323 86.0834 122.323C88.1744 122.323 89.8574 122.952 91.0644 124.091L89.8234 125.621C88.8884 124.754 87.5454 124.193 85.9134 124.193C84.2984 124.193 83.3974 124.703 83.3974 125.519C83.3974 126.437 84.5024 126.692 86.4914 127.015C88.8884 127.423 91.3534 127.95 91.3534 130.466C91.3534 132.421 89.6704 134.053 86.2704 134.053ZM95.5502 134.053C94.0202 134.053 93.1702 133.203 93.1702 131.724V127.304H91.5722V125.638H93.1702V123.394H95.0572V125.638H97.0632V127.304H95.0572V131.333C95.0572 131.996 95.4142 132.37 96.0262 132.37C96.4002 132.37 96.8082 132.251 96.9782 132.132L97.4202 133.577C97.0632 133.832 96.4342 134.053 95.5502 134.053ZM104.024 128.528C104.024 127.644 103.276 127.083 101.933 127.083C100.862 127.083 99.927 127.423 99.145 128.103L98.2612 126.811C99.315 125.876 100.59 125.434 102.12 125.434C104.058 125.434 105.911 126.165 105.911 128.477V133.849H104.024V132.982C103.361 133.628 102.341 134.053 101.1 134.053C99.638 134.053 97.8192 133.186 97.8192 131.333C97.8192 129.378 99.621 128.664 101.1 128.664C102.358 128.664 103.378 129.038 104.024 129.684V128.528ZM99.757 131.367C99.757 132.2 100.505 132.744 101.763 132.744C102.647 132.744 103.514 132.489 104.024 131.962V130.738C103.514 130.245 102.647 129.99 101.763 129.99C100.505 129.99 99.757 130.517 99.757 131.367ZM110.958 134.053C109.428 134.053 108.578 133.203 108.578 131.724V127.304H106.98V125.638H108.578V123.394H110.465V125.638H112.471V127.304H110.465V131.333C110.465 131.996 110.822 132.37 111.434 132.37C111.808 132.37 112.216 132.251 112.386 132.132L112.828 133.577C112.471 133.832 111.842 134.053 110.958 134.053ZM117.902 134.053C115.284 134.053 113.21 132.472 113.21 129.735C113.21 127.219 115.182 125.434 117.783 125.434C120.418 125.434 122.22 127.27 122.22 129.939V130.415H115.25C115.437 131.588 116.338 132.438 118.106 132.438C119.109 132.438 120.061 132.132 120.741 131.588L121.574 132.88C120.639 133.628 119.415 134.053 117.902 134.053ZM115.25 128.987H120.35C120.214 128.018 119.449 127.049 117.766 127.049C116.287 127.049 115.437 127.899 115.25 128.987ZM123.47 126.25C124.031 125.927 124.609 125.23 124.745 124.652C124.694 124.686 124.558 124.703 124.456 124.703C123.81 124.703 123.385 124.227 123.385 123.581C123.385 122.901 123.929 122.34 124.592 122.34C125.34 122.34 125.952 122.901 125.952 123.887C125.952 125.128 125.272 126.233 124.303 126.93L123.47 126.25ZM130.518 134.053C128.971 134.053 127.39 133.526 126.489 132.71L127.424 131.299C128.104 131.928 129.379 132.489 130.603 132.489C131.827 132.489 132.337 132.098 132.337 131.571C132.337 130.891 131.368 130.687 130.246 130.5C128.648 130.228 126.727 129.888 126.727 127.967C126.727 126.624 128.002 125.434 130.28 125.434C131.827 125.434 133.119 125.961 133.935 126.624L133.085 127.984C132.473 127.423 131.436 126.998 130.246 126.998C129.209 126.998 128.648 127.321 128.648 127.831C128.648 128.392 129.532 128.562 130.586 128.749C132.235 129.004 134.241 129.378 134.241 131.435C134.241 132.88 132.949 134.053 130.518 134.053ZM140.354 133.849V122.51H145.335C149.143 122.51 151.846 124.482 151.846 128.171C151.846 131.877 149.126 133.849 145.335 133.849H140.354ZM142.462 131.979H145.335C148.157 131.979 149.687 130.5 149.687 128.171C149.687 125.791 148.191 124.363 145.335 124.363H142.462V131.979ZM157.625 134.053C155.007 134.053 152.933 132.472 152.933 129.735C152.933 127.219 154.905 125.434 157.506 125.434C160.141 125.434 161.943 127.27 161.943 129.939V130.415H154.973C155.16 131.588 156.061 132.438 157.829 132.438C158.832 132.438 159.784 132.132 160.464 131.588L161.297 132.88C160.362 133.628 159.138 134.053 157.625 134.053ZM154.973 128.987H160.073C159.937 128.018 159.172 127.049 157.489 127.049C156.01 127.049 155.16 127.899 154.973 128.987ZM166.828 134.053C165.281 134.053 163.7 133.526 162.799 132.71L163.734 131.299C164.414 131.928 165.689 132.489 166.913 132.489C168.137 132.489 168.647 132.098 168.647 131.571C168.647 130.891 167.678 130.687 166.556 130.5C164.958 130.228 163.037 129.888 163.037 127.967C163.037 126.624 164.312 125.434 166.59 125.434C168.137 125.434 169.429 125.961 170.245 126.624L169.395 127.984C168.783 127.423 167.746 126.998 166.556 126.998C165.519 126.998 164.958 127.321 164.958 127.831C164.958 128.392 165.842 128.562 166.896 128.749C168.545 129.004 170.551 129.378 170.551 131.435C170.551 132.88 169.259 134.053 166.828 134.053ZM172.189 133.849V125.638H174.093V133.849H172.189ZM171.968 123.173C171.968 122.51 172.512 122 173.141 122C173.77 122 174.297 122.51 174.297 123.173C174.297 123.802 173.77 124.329 173.141 124.329C172.512 124.329 171.968 123.802 171.968 123.173ZM180.09 137.181C178.475 137.181 177.251 136.824 176.129 135.855L177.064 134.512C177.727 135.192 178.815 135.617 180.056 135.617C181.348 135.617 182.657 135.09 182.657 133.322V132.506C181.994 133.254 180.957 133.866 179.682 133.866C177.438 133.866 175.687 132.336 175.687 129.65C175.687 126.981 177.421 125.434 179.682 125.434C180.94 125.434 181.994 126.012 182.657 126.777V125.638H184.561V133.288C184.561 136.382 182.147 137.181 180.09 137.181ZM177.659 129.65C177.659 131.231 178.73 132.183 180.175 132.183C181.178 132.183 182.147 131.724 182.657 131.129V128.171C182.147 127.576 181.178 127.1 180.175 127.1C178.73 127.1 177.659 128.069 177.659 129.65ZM192.87 128.817C192.87 127.525 192.173 127.1 191 127.1C190.014 127.1 189.113 127.576 188.62 128.12V133.849H186.716V125.638H188.62V126.777C189.266 126.131 190.456 125.434 191.731 125.434C193.635 125.434 194.774 126.437 194.774 128.409V133.849H192.87V128.817ZM206.086 134.053C203.706 134.053 201.717 133.118 200.663 132.064L201.887 130.5C202.839 131.418 204.352 132.183 206.188 132.183C208.092 132.183 208.993 131.503 208.993 130.687C208.993 129.633 207.752 129.378 205.865 129.089C203.468 128.715 201.037 128.205 201.037 125.689C201.037 123.717 202.941 122.323 205.899 122.323C207.99 122.323 209.673 122.952 210.88 124.091L209.639 125.621C208.704 124.754 207.361 124.193 205.729 124.193C204.114 124.193 203.213 124.703 203.213 125.519C203.213 126.437 204.318 126.692 206.307 127.015C208.704 127.423 211.169 127.95 211.169 130.466C211.169 132.421 209.486 134.053 206.086 134.053ZM213.307 137.181C213.052 137.181 212.525 137.13 212.253 137.062L212.542 135.362C212.746 135.447 213.052 135.498 213.29 135.498C213.902 135.498 214.344 135.362 214.667 134.699L215.007 133.985L211.25 125.638H213.358L216.027 131.792L218.628 125.638H220.736L216.401 135.294C215.789 136.688 214.65 137.147 213.307 137.181ZM224.881 134.053C223.334 134.053 221.753 133.526 220.852 132.71L221.787 131.299C222.467 131.928 223.742 132.489 224.966 132.489C226.19 132.489 226.7 132.098 226.7 131.571C226.7 130.891 225.731 130.687 224.609 130.5C223.011 130.228 221.09 129.888 221.09 127.967C221.09 126.624 222.365 125.434 224.643 125.434C226.19 125.434 227.482 125.961 228.298 126.624L227.448 127.984C226.836 127.423 225.799 126.998 224.609 126.998C223.572 126.998 223.011 127.321 223.011 127.831C223.011 128.392 223.895 128.562 224.949 128.749C226.598 129.004 228.604 129.378 228.604 131.435C228.604 132.88 227.312 134.053 224.881 134.053ZM233.148 134.053C231.618 134.053 230.768 133.203 230.768 131.724V127.304H229.17V125.638H230.768V123.394H232.655V125.638H234.661V127.304H232.655V131.333C232.655 131.996 233.012 132.37 233.624 132.37C233.998 132.37 234.406 132.251 234.576 132.132L235.018 133.577C234.661 133.832 234.032 134.053 233.148 134.053ZM240.092 134.053C237.474 134.053 235.4 132.472 235.4 129.735C235.4 127.219 237.372 125.434 239.973 125.434C242.608 125.434 244.41 127.27 244.41 129.939V130.415H237.44C237.627 131.588 238.528 132.438 240.296 132.438C241.299 132.438 242.251 132.132 242.931 131.588L243.764 132.88C242.829 133.628 241.605 134.053 240.092 134.053ZM237.44 128.987H242.54C242.404 128.018 241.639 127.049 239.956 127.049C238.477 127.049 237.627 127.899 237.44 128.987ZM257.166 128.664C257.166 127.729 256.792 127.1 255.534 127.1C254.701 127.1 253.902 127.61 253.477 128.12V133.849H251.573V128.664C251.573 127.729 251.165 127.1 249.975 127.1C249.159 127.1 248.36 127.576 247.901 128.103V133.849H245.997V125.638H247.901V126.811C248.326 126.284 249.448 125.434 250.791 125.434C252.151 125.434 252.967 126.097 253.29 126.93C253.919 126.148 255.041 125.434 256.367 125.434C258.05 125.434 259.053 126.301 259.053 128.188V133.849H257.166V128.664Z" fill="#62666A"/>
</svg>
