<svg width="846" height="436" viewBox="0 0 846 436" fill="none" xmlns="http://www.w3.org/2000/svg">
<g id="Excelsior-logo-stacked">
<g id="Vector">
<path d="M402.708 103.939L370.604 71.8233V43.8046H482.637L525.656 87.1225C519.889 38.0629 478.192 0 427.601 0C373.066 0 328.858 44.2254 328.858 98.78C328.858 121.023 336.21 141.545 348.611 158.056" fill="#286AD8"/>
<path d="M402.708 103.939L370.604 71.8233V43.8046H482.637L525.656 87.1225C519.889 38.0629 478.192 0 427.601 0C373.066 0 328.858 44.2254 328.858 98.78C328.858 121.023 336.21 141.545 348.611 158.056" fill="black" fill-opacity="0.1"/>
<path d="M370.604 71.7494H434.812L402.708 103.865L370.604 71.7494ZM482.636 43.7308V155.805H454.628V91.5492L368.424 177.786C384.916 190.156 405.402 197.486 427.601 197.486C482.135 197.486 526.344 153.261 526.344 98.7061C526.344 94.7512 526.085 90.8591 525.633 87.0256L482.636 43.7308Z" fill="#0E324F"/>
</g>
<g id="Group 41">
<g id="Group">
<path id="Vector_2" d="M0 359.781V211.947H104.96V239.652H31.5764V270.903H103.404V298.608H31.5764V332.076H104.96V359.781H0Z" fill="#1B1B1B"/>
<path id="Vector_3" d="M194.393 359.782L169.932 323.654L145.248 359.782H113.893L151.919 304.815L116.117 252.729H147.694L169.932 285.754L191.947 252.729H223.523L187.499 304.815L225.969 359.782H194.393Z" fill="#1B1B1B"/>
<path id="Vector_4" d="M224.924 306.145C224.924 273.342 248.718 250.07 281.852 250.07C303.866 250.07 317.209 259.6 324.325 269.352L305.868 286.64C300.754 279.105 292.971 275.115 283.187 275.115C266.062 275.115 254.054 287.527 254.054 306.145C254.054 324.762 266.062 337.396 283.187 337.396C292.971 337.396 300.754 332.963 305.868 325.871L324.325 342.937C317.209 352.911 303.866 362.441 281.852 362.441C248.718 362.441 224.924 339.169 224.924 306.145Z" fill="#1B1B1B"/>
<path id="Vector_5" d="M328.546 306.145C328.546 275.115 351.451 250.07 384.138 250.07C416.161 250.07 437.953 274.007 437.953 309.026V315.232H358.121C359.9 328.752 370.797 340.056 389.03 340.056C398.148 340.056 410.825 336.066 417.718 329.417L430.171 347.592C419.496 357.344 402.596 362.441 385.918 362.441C353.228 362.441 328.546 340.499 328.546 306.145ZM384.138 272.455C366.572 272.455 359.011 285.532 357.676 296.171H410.602C409.934 285.975 402.818 272.455 384.138 272.455Z" fill="#1B1B1B"/>
<path id="Vector_6" d="M454.64 359.781V211.947H482.881V359.781H454.64Z" fill="#1B1B1B"/>
<path id="Vector_7" d="M497.712 345.818L509.942 326.092C517.725 333.407 533.736 340.721 547.079 340.721C559.31 340.721 565.091 335.845 565.091 329.195C565.091 321.881 555.306 319.886 543.52 317.67C525.063 314.124 501.269 309.469 501.269 283.759C501.269 265.806 517.058 250.07 545.3 250.07C563.535 250.07 577.989 256.276 588.662 264.698L577.323 283.981C570.873 277.11 558.643 271.569 545.522 271.569C535.294 271.569 528.622 276.223 528.622 282.208C528.622 288.413 537.073 290.186 549.081 292.625C567.537 296.171 592.221 301.269 592.221 328.087C592.221 347.592 575.543 362.441 545.744 362.441C527.065 362.441 509.054 356.236 497.712 345.818Z" fill="#1B1B1B"/>
<path id="Vector_8" d="M605.671 224.359C605.671 215.05 613.453 207.736 622.571 207.736C631.911 207.736 639.471 215.05 639.471 224.359C639.471 233.668 631.911 241.204 622.571 241.204C613.453 241.204 605.671 233.668 605.671 224.359ZM608.561 359.782V252.729H636.803V359.782H608.561Z" fill="#1B1B1B"/>
<path id="Vector_9" d="M652.88 306.145C652.88 275.78 674.228 250.07 709.586 250.07C745.166 250.07 766.513 275.78 766.513 306.145C766.513 336.731 745.166 362.441 709.586 362.441C674.228 362.441 652.88 336.731 652.88 306.145ZM737.161 306.145C737.161 289.522 727.152 275.115 709.586 275.115C692.017 275.115 682.233 289.522 682.233 306.145C682.233 322.99 692.017 337.396 709.586 337.396C727.152 337.396 737.161 322.99 737.161 306.145Z" fill="#1B1B1B"/>
<path id="Vector_10" d="M783.514 359.782V252.729H811.755V267.357C819.316 257.827 832.659 250.07 846 250.07V277.553C843.998 277.11 841.33 276.888 838.218 276.888C828.878 276.888 816.425 282.208 811.755 289.078V359.782H783.514Z" fill="#1B1B1B"/>
</g>
</g>
<path id="Vector_11" d="M3.43457 423.696V387.992H10.3399L31.7517 413.847V387.992H38.3358V423.696H31.9123L10.0722 397.199V423.696H3.43457ZM58.2359 424.339C49.9923 424.339 43.4617 419.36 43.4617 410.742C43.4617 402.82 49.6711 397.199 57.8611 397.199C66.1582 397.199 71.8323 402.98 71.8323 411.385V412.883H49.8853C50.4741 416.577 53.3111 419.253 58.8782 419.253C62.0364 419.253 65.0341 418.29 67.1753 416.577L69.7982 420.645C66.8541 423 63 424.339 58.2359 424.339ZM49.8853 408.387H65.9441C65.5159 405.336 63.107 402.285 57.8076 402.285C53.1506 402.285 50.4741 404.961 49.8853 408.387ZM101.775 423.696L95.1378 404.8L88.4466 423.696H82.1302L73.0302 397.842H79.4537L85.6096 416.042L92.4078 397.842H97.8678L104.559 416.095L110.715 397.842H117.192L108.092 423.696H101.775ZM146.119 423.696V409.029L130.381 387.992H138.518L149.438 402.98L160.197 387.992H168.387L152.703 408.976V423.696H146.119ZM176.696 424.339C167.81 424.339 162.082 418.558 162.082 410.742C162.082 402.927 167.81 397.199 176.696 397.199C185.689 397.199 191.363 402.927 191.363 410.742C191.363 418.558 185.689 424.339 176.696 424.339ZM168.292 410.742C168.292 415.453 171.504 419.039 176.696 419.039C181.942 419.039 185.154 415.453 185.154 410.742C185.154 406.085 181.942 402.445 176.696 402.445C171.504 402.445 168.292 406.085 168.292 410.742ZM196.393 423.696V397.842H202.388V401.428C204.85 399.073 208.383 397.199 212.237 397.199V403.034C211.809 402.98 211.22 402.927 210.203 402.927C207.099 402.927 203.78 404.372 202.388 405.978V423.696H196.393ZM216.076 423.696V387.992H222.072V409.725L234.972 397.842H242.788L229.94 409.565L243.055 423.696H235.24L225.658 413.151L222.072 416.363V423.696H216.076ZM275.082 424.339C267.588 424.339 261.325 421.395 258.006 418.076L261.86 413.151C264.858 416.042 269.622 418.45 275.403 418.45C281.399 418.45 284.236 416.309 284.236 413.74C284.236 410.421 280.328 409.618 274.386 408.708C266.839 407.53 259.184 405.925 259.184 398.002C259.184 391.793 265.179 387.403 274.493 387.403C281.078 387.403 286.377 389.384 290.178 392.97L286.27 397.788C283.326 395.058 279.097 393.292 273.958 393.292C268.873 393.292 266.036 394.897 266.036 397.467C266.036 400.357 269.515 401.16 275.778 402.177C283.326 403.462 291.088 405.122 291.088 413.044C291.088 419.2 285.788 424.339 275.082 424.339ZM304.302 424.339C299.485 424.339 296.808 421.662 296.808 417.005V403.087H291.776V397.842H296.808V390.776H302.75V397.842H309.067V403.087H302.75V415.774C302.75 417.862 303.874 419.039 305.801 419.039C306.979 419.039 308.264 418.665 308.799 418.29L310.191 422.84C309.067 423.643 307.086 424.339 304.302 424.339ZM330.985 406.942C330.985 404.158 328.629 402.392 324.401 402.392C321.028 402.392 318.084 403.462 315.622 405.603L312.839 401.535C316.157 398.591 320.172 397.199 324.989 397.199C331.092 397.199 336.926 399.501 336.926 406.781V423.696H330.985V420.966C328.897 423 325.685 424.339 321.778 424.339C317.174 424.339 311.447 421.609 311.447 415.774C311.447 409.618 317.121 407.37 321.778 407.37C325.739 407.37 328.951 408.547 330.985 410.582V406.942ZM317.549 415.881C317.549 418.504 319.904 420.217 323.865 420.217C326.649 420.217 329.379 419.414 330.985 417.755V413.9C329.379 412.348 326.649 411.545 323.865 411.545C319.904 411.545 317.549 413.205 317.549 415.881ZM352.818 424.339C348.001 424.339 345.324 421.662 345.324 417.005V403.087H340.292V397.842H345.324V390.776H351.266V397.842H357.583V403.087H351.266V415.774C351.266 417.862 352.39 419.039 354.317 419.039C355.495 419.039 356.78 418.665 357.315 418.29L358.707 422.84C357.582 423.643 355.602 424.339 352.818 424.339ZM374.684 424.339C366.44 424.339 359.909 419.36 359.909 410.742C359.909 402.82 366.119 397.199 374.309 397.199C382.606 397.199 388.28 402.98 388.28 411.385V412.883H366.333C366.922 416.577 369.759 419.253 375.326 419.253C378.484 419.253 381.482 418.29 383.623 416.577L386.246 420.645C383.302 423 379.448 424.339 374.684 424.339ZM366.333 408.387H382.392C381.964 405.336 379.555 402.285 374.255 402.285C369.598 402.285 366.922 404.961 366.333 408.387ZM392.216 399.769C393.983 398.752 395.803 396.557 396.231 394.737C396.07 394.844 395.642 394.897 395.321 394.897C393.287 394.897 391.948 393.399 391.948 391.365C391.948 389.223 393.661 387.457 395.749 387.457C398.104 387.457 400.031 389.223 400.031 392.328C400.031 396.236 397.89 399.715 394.839 401.91L392.216 399.769ZM414.409 424.339C409.538 424.339 404.559 422.679 401.722 420.11L404.666 415.667C406.808 417.648 410.822 419.414 414.676 419.414C418.531 419.414 420.136 418.183 420.136 416.523C420.136 414.382 417.085 413.74 413.552 413.151C408.521 412.295 402.472 411.224 402.472 405.175C402.472 400.946 406.486 397.199 413.659 397.199C418.531 397.199 422.599 398.859 425.168 400.946L422.492 405.229C420.565 403.462 417.299 402.124 413.552 402.124C410.287 402.124 408.521 403.141 408.521 404.747C408.521 406.513 411.304 407.049 414.623 407.637C419.815 408.44 426.132 409.618 426.132 416.095C426.132 420.645 422.064 424.339 414.409 424.339ZM445.38 423.696V387.992H461.065C473.055 387.992 481.566 394.202 481.566 405.817C481.566 417.487 473.002 423.696 461.065 423.696H445.38ZM452.018 417.808H461.065C469.95 417.808 474.768 413.151 474.768 405.817C474.768 398.323 470.057 393.827 461.065 393.827H452.018V417.808ZM499.763 424.339C491.52 424.339 484.989 419.36 484.989 410.742C484.989 402.82 491.198 397.199 499.388 397.199C507.686 397.199 513.36 402.98 513.36 411.385V412.883H491.413C492.001 416.577 494.838 419.253 500.406 419.253C503.564 419.253 506.561 418.29 508.703 416.577L511.326 420.645C508.381 423 504.527 424.339 499.763 424.339ZM491.413 408.387H507.471C507.043 405.336 504.634 402.285 499.335 402.285C494.678 402.285 492.001 404.961 491.413 408.387ZM528.741 424.339C523.87 424.339 518.892 422.679 516.055 420.11L518.999 415.667C521.14 417.648 525.155 419.414 529.009 419.414C532.863 419.414 534.469 418.183 534.469 416.523C534.469 414.382 531.418 413.74 527.885 413.151C522.853 412.295 516.804 411.224 516.804 405.175C516.804 400.946 520.819 397.199 527.992 397.199C532.863 397.199 536.932 398.859 539.501 400.946L536.824 405.229C534.897 403.462 531.632 402.124 527.885 402.124C524.62 402.124 522.853 403.141 522.853 404.747C522.853 406.513 525.637 407.049 528.956 407.637C534.148 408.44 540.464 409.618 540.464 416.095C540.464 420.645 536.396 424.339 528.741 424.339ZM545.622 423.696V397.842H551.617V423.696H545.622ZM544.926 390.08C544.926 387.992 546.639 386.386 548.62 386.386C550.6 386.386 552.26 387.992 552.26 390.08C552.26 392.06 550.6 393.72 548.62 393.72C546.639 393.72 544.926 392.06 544.926 390.08ZM570.501 434.188C565.415 434.188 561.561 433.064 558.028 430.013L560.973 425.784C563.06 427.925 566.486 429.263 570.394 429.263C574.462 429.263 578.584 427.604 578.584 422.037V419.468C576.496 421.823 573.231 423.75 569.216 423.75C562.15 423.75 556.637 418.932 556.637 410.475C556.637 402.07 562.097 397.199 569.216 397.199C573.177 397.199 576.496 399.019 578.584 401.428V397.842H584.579V421.93C584.579 431.672 576.978 434.188 570.501 434.188ZM562.846 410.475C562.846 415.453 566.218 418.45 570.768 418.45C573.927 418.45 576.978 417.005 578.584 415.132V405.817C576.978 403.944 573.927 402.445 570.768 402.445C566.218 402.445 562.846 405.496 562.846 410.475ZM610.742 407.852C610.742 403.783 608.548 402.445 604.854 402.445C601.749 402.445 598.912 403.944 597.36 405.657V423.696H591.365V397.842H597.36V401.428C599.394 399.394 603.141 397.199 607.156 397.199C613.151 397.199 616.738 400.357 616.738 406.567V423.696H610.742V407.852ZM652.357 424.339C644.863 424.339 638.6 421.395 635.281 418.076L639.135 413.151C642.133 416.042 646.897 418.45 652.678 418.45C658.673 418.45 661.51 416.309 661.51 413.74C661.51 410.421 657.603 409.618 651.661 408.708C644.113 407.53 636.459 405.925 636.459 398.002C636.459 391.793 642.454 387.403 651.768 387.403C658.352 387.403 663.652 389.384 667.452 392.97L663.544 397.788C660.6 395.058 656.372 393.292 651.233 393.292C646.147 393.292 643.31 394.897 643.31 397.467C643.31 400.357 646.79 401.16 653.053 402.177C660.6 403.462 668.362 405.122 668.362 413.044C668.362 419.2 663.063 424.339 652.357 424.339ZM675.094 434.188C674.291 434.188 672.632 434.028 671.775 433.813L672.685 428.46C673.328 428.728 674.291 428.889 675.041 428.889C676.968 428.889 678.36 428.46 679.377 426.373L680.447 424.125L668.617 397.842H675.255L683.659 417.219L691.849 397.842H698.487L684.837 428.246C682.91 432.636 679.323 434.081 675.094 434.188ZM711.538 424.339C706.667 424.339 701.689 422.679 698.852 420.11L701.796 415.667C703.937 417.648 707.952 419.414 711.806 419.414C715.66 419.414 717.266 418.183 717.266 416.523C717.266 414.382 714.215 413.74 710.682 413.151C705.65 412.295 699.601 411.224 699.601 405.175C699.601 400.946 703.616 397.199 710.789 397.199C715.66 397.199 719.728 398.859 722.298 400.946L719.621 405.229C717.694 403.462 714.429 402.124 710.682 402.124C707.417 402.124 705.65 403.141 705.65 404.747C705.65 406.513 708.434 407.049 711.753 407.637C716.945 408.44 723.261 409.618 723.261 416.095C723.261 420.645 719.193 424.339 711.538 424.339ZM737.569 424.339C732.752 424.339 730.075 421.662 730.075 417.005V403.087H725.044V397.842H730.075V390.776H736.017V397.842H742.334V403.087H736.017V415.774C736.017 417.862 737.141 419.039 739.068 419.039C740.246 419.039 741.531 418.665 742.066 418.29L743.458 422.84C742.334 423.643 740.353 424.339 737.569 424.339ZM759.435 424.339C751.191 424.339 744.661 419.36 744.661 410.742C744.661 402.82 750.87 397.199 759.06 397.199C767.357 397.199 773.031 402.98 773.031 411.385V412.883H751.084C751.673 416.577 754.51 419.253 760.077 419.253C763.235 419.253 766.233 418.29 768.374 416.577L770.997 420.645C768.053 423 764.199 424.339 759.435 424.339ZM751.084 408.387H767.143C766.715 405.336 764.306 402.285 759.006 402.285C754.349 402.285 751.673 404.961 751.084 408.387ZM813.197 407.37C813.197 404.426 812.02 402.445 808.058 402.445C805.435 402.445 802.92 404.051 801.581 405.657V423.696H795.586V407.37C795.586 404.426 794.301 402.445 790.554 402.445C787.985 402.445 785.469 403.944 784.024 405.603V423.696H778.028V397.842H784.024V401.535C785.362 399.876 788.895 397.199 793.124 397.199C797.406 397.199 799.975 399.287 800.992 401.91C802.973 399.447 806.506 397.199 810.681 397.199C815.981 397.199 819.139 399.929 819.139 405.871V423.696H813.197V407.37Z" fill="#62666A"/>
</g>
</svg>
