<svg xmlns="http://www.w3.org/2000/svg" width="404" height="46" fill="none" viewBox="0 0 404 46"><path fill="#1b1b1b" d="M67.58 36.085 52.704 15.128v20.957H46.06V4.883h6.83l14.455 20.21V4.882h6.643v31.202zM87.088 36.085v-12.77L75.065 4.882h7.579l7.765 12.537 7.672-12.537h7.579L93.73 23.314v12.771zM106.97 26.636a13.68 13.68 0 0 0 9.918 4.21c3.648 0 5.426-1.731 5.426-3.509 0-2.339-2.713-3.134-6.315-3.976-5.099-1.17-11.649-2.573-11.649-9.543 0-5.193 4.491-9.403 11.836-9.403 4.959 0 9.075 1.497 12.162 4.35l-3.695 4.866c-2.526-2.34-5.894-3.415-8.935-3.415-2.994 0-4.584 1.31-4.584 3.18 0 2.106 2.619 2.761 6.221 3.603 5.146 1.17 11.696 2.713 11.696 9.637 0 5.707-4.07 10.01-12.491 10.01-5.988 0-10.292-2.011-13.239-4.958zM140.353 36.085V5.443h10.474c9.51 0 15.711 6.661 15.711 15.344 0 8.73-6.201 15.298-15.711 15.298zm3.813-3.4h6.661c7.442 0 11.761-5.328 11.761-11.898 0-6.615-4.181-11.944-11.761-11.944h-6.661zM179.585 13.345c6.708 0 10.659 5.237 10.659 11.898v.873h-17.963c.276 4.18 3.216 7.672 7.994 7.672 2.526 0 5.099-1.01 6.845-2.802l1.654 2.251c-2.205 2.205-5.192 3.4-8.821 3.4-6.57 0-11.301-4.732-11.301-11.67 0-6.43 4.594-11.622 10.933-11.622m-7.304 10.245h14.563c-.046-3.308-2.251-7.397-7.304-7.397-4.732 0-7.075 3.997-7.259 7.397M193.367 30.665c1.47 1.699 4.272 3.169 7.304 3.169 3.4 0 5.237-1.516 5.237-3.675 0-2.435-2.71-3.216-5.696-3.95-3.767-.874-8.04-1.884-8.04-6.478 0-3.446 2.986-6.386 8.269-6.386 3.768 0 6.432 1.424 8.224 3.216l-1.608 2.389c-1.332-1.608-3.767-2.803-6.616-2.803-3.032 0-4.915 1.379-4.915 3.354 0 2.159 2.527 2.848 5.421 3.537 3.859.873 8.315 1.976 8.315 6.892 0 3.72-2.986 6.707-8.729 6.707-3.629 0-6.707-1.103-8.958-3.492zM212.294 7.832a2.304 2.304 0 0 1 2.297-2.297c1.287 0 2.344 1.01 2.344 2.297a2.353 2.353 0 0 1-2.344 2.343c-1.24 0-2.297-1.056-2.297-2.343m.598 28.253V13.896h3.445v22.19zM222.676 39.21c1.838 2.204 4.043 3.031 7.213 3.031 3.675 0 7.121-1.792 7.121-6.66v-3.17c-1.608 2.25-4.318 3.95-7.443 3.95-5.788 0-9.877-4.319-9.877-11.485 0-7.12 4.043-11.53 9.877-11.53 2.987 0 5.651 1.47 7.443 3.904v-3.354h3.445v21.546c0 7.35-5.145 9.648-10.566 9.648-3.767 0-6.34-.736-8.958-3.308zm14.334-19.204c-1.195-1.929-3.859-3.583-6.616-3.583-4.456 0-7.121 3.538-7.121 8.453 0 4.87 2.665 8.453 7.121 8.453 2.757 0 5.421-1.7 6.616-3.63zM259.612 36.085V21.568c0-3.905-1.976-5.145-4.962-5.145-2.71 0-5.283 1.654-6.569 3.445v16.217h-3.446V13.896h3.446v3.216c1.562-1.838 4.594-3.767 7.902-3.767 4.64 0 7.075 2.343 7.075 7.167v15.573zM275.001 28.873c2.022 2.25 5.329 4.364 9.648 4.364 5.467 0 7.212-2.94 7.212-5.283 0-3.675-3.721-4.686-7.764-5.788-4.915-1.287-10.382-2.665-10.382-8.683 0-5.054 4.502-8.5 10.52-8.5 4.686 0 8.316 1.563 10.888 4.274l-2.297 2.802c-2.297-2.527-5.513-3.676-8.866-3.676-3.675 0-6.294 1.976-6.294 4.87 0 3.078 3.537 3.997 7.442 5.053 5.008 1.333 10.704 2.895 10.704 9.326 0 4.457-3.032 9.005-11.301 9.005-5.329 0-9.234-2.022-11.761-4.87z"/><path fill="#1b1b1b" d="M297.742 41.644c.505.23 1.332.368 1.883.368 1.516 0 2.527-.506 3.308-2.343l1.47-3.354-9.28-22.419h3.721l7.397 18.193 7.35-18.193h3.767l-11.117 26.691c-1.332 3.216-3.584 4.457-6.524 4.502-.735 0-1.883-.137-2.526-.321zM318.92 30.665c1.47 1.699 4.273 3.169 7.305 3.169 3.399 0 5.237-1.516 5.237-3.675 0-2.435-2.711-3.216-5.697-3.95-3.767-.874-8.039-1.884-8.039-6.478 0-3.446 2.985-6.386 8.269-6.386 3.767 0 6.432 1.424 8.223 3.216l-1.608 2.389c-1.332-1.608-3.767-2.803-6.615-2.803-3.032 0-4.916 1.379-4.916 3.354 0 2.159 2.527 2.848 5.421 3.537 3.859.873 8.315 1.976 8.315 6.892 0 3.72-2.986 6.707-8.728 6.707-3.629 0-6.708-1.103-8.958-3.492zM339.823 31.445V16.928h-3.676v-3.032h3.676V7.832h3.445v6.064h4.502v3.032h-4.502V30.71c0 1.654.735 2.849 2.251 2.849.965 0 1.883-.414 2.343-.92l1.01 2.573c-.872.827-2.112 1.425-4.134 1.425-3.262 0-4.915-1.884-4.915-5.192M360.173 13.345c6.708 0 10.659 5.237 10.659 11.898v.873h-17.963c.276 4.18 3.216 7.672 7.994 7.672 2.527 0 5.099-1.01 6.845-2.802l1.654 2.251c-2.205 2.205-5.192 3.4-8.821 3.4-6.57 0-11.301-4.732-11.301-11.67 0-6.43 4.594-11.622 10.933-11.622m-7.304 10.245h14.563c-.046-3.308-2.251-7.397-7.304-7.397-4.732 0-7.075 3.997-7.259 7.397M400.555 36.085V21.017c0-2.802-1.241-4.594-4.089-4.594-2.297 0-4.732 1.654-5.88 3.4v16.262h-3.446V21.017c0-2.802-1.194-4.594-4.088-4.594-2.252 0-4.641 1.654-5.835 3.445v16.217h-3.446V13.896h3.446v3.216c.919-1.424 3.905-3.767 7.167-3.767 3.399 0 5.329 1.837 5.972 4.135 1.24-2.022 4.226-4.135 7.442-4.135 4.043 0 6.202 2.251 6.202 6.707v16.033z"/><path fill="#245fc2" d="M14.86 20.915 8.4 14.452V8.814h22.543l8.656 8.717C38.44 7.659 30.05 0 19.87 0 8.896 0 0 8.899 0 19.876c0 4.476 1.48 8.605 3.975 11.928"/><path fill="#0e324f" d="M8.4 14.437h12.92L14.86 20.9zM30.943 8.8v22.552h-5.635V18.42L7.962 35.774a19.78 19.78 0 0 0 11.907 3.964c10.973 0 19.869-8.899 19.869-19.876 0-.796-.052-1.58-.143-2.35z"/></svg>