<svg xmlns="http://www.w3.org/2000/svg" viewBox="0 0 40.159 42.881"><path fill="var(--fill-0, #154973)" d="M23.331 42.88q-4.206 0-7.9-1.857-3.694-1.858-6.054-5.176L.296 22.967a1.43 1.43 0 0 1-.282-1.065q.075-.57.487-.966 1.025-1.04 2.54-1.189 1.512-.148 2.744.694l5.644 3.765V5.944q0-.842.59-1.411t1.462-.57 1.462.57.59 1.411V28.02q0 1.19-1.103 1.759-1.102.57-2.13-.124l-4.36-2.923 4.874 6.836a12.46 12.46 0 0 0 4.566 3.938q2.77 1.412 5.951 1.412 5.284 0 9.004-3.591t3.72-8.694V7.926q0-.843.59-1.412.59-.57 1.462-.57t1.462.57.59 1.412v18.707q0 6.786-4.9 11.517-4.899 4.73-11.928 4.73M21.69 0q.873 0 1.463.57t.59 1.411v17.123q0 .841-.59 1.411t-1.463.57q-.871 0-1.462-.57-.59-.57-.59-1.412V1.982q0-.842.59-1.411T21.69 0m8.209 1.981q.873 0 1.462.57.59.57.59 1.412v15.14q0 .843-.59 1.412-.59.57-1.462.57t-1.462-.57-.59-1.412V3.964q0-.843.59-1.412.59-.57 1.462-.57"/></svg>