<svg xmlns="http://www.w3.org/2000/svg" viewBox="0 0 37.516 42.449"><path fill="var(--fill-0, #154973)" d="M33.348 15.354q0 3.282-1.068 6.227a19.3 19.3 0 0 1-2.996 5.393q-.574.73-.574 1.589 0 .86.626 1.485.677.626 1.563.547t1.459-.808a23.8 23.8 0 0 0 3.778-6.67q1.38-3.7 1.38-7.763 0-4.17-1.38-7.868a23.8 23.8 0 0 0-3.778-6.67q-.573-.729-1.46-.807-.884-.078-1.562.547a2.03 2.03 0 0 0-.626 1.485q0 .86.574 1.59a19.2 19.2 0 0 1 2.996 5.418q1.068 2.97 1.068 6.305m-18.758 5.21q2.188 0 3.7-1.537 1.51-1.537 1.51-3.673 0-2.188-1.51-3.7-1.512-1.51-3.7-1.51t-3.7 1.51q-1.51 1.512-1.51 3.7 0 2.137 1.51 3.673t3.7 1.537M4.168 34.113q0-.885-.599-1.485-.6-.6-1.485-.6t-1.485.6q-.6.6-.599 1.485Q0 37.551 2.449 40q2.449 2.45 5.888 2.45 3.231-.001 5.289-1.616t3.152-4.742q.885-2.606 1.694-3.647.807-1.043 3.725-3.335 3.23-2.606 5.107-5.888 1.875-3.283 1.875-7.868 0-6.201-4.194-10.395Q20.79.764 14.59.764 8.388.764 4.195 4.96 0 9.153 0 15.354q0 .885.6 1.485.599.6 1.484.6.886 0 1.485-.6t.6-1.485q0-4.43 2.996-7.425 2.996-2.997 7.425-2.996 4.428 0 7.425 2.996t2.996 7.425q0 3.543-1.407 6.044-1.407 2.502-4.012 4.481-2.71 1.98-4.22 3.856A13 13 0 0 0 13.13 33.8q-.73 2.292-1.746 3.386-1.015 1.095-3.048 1.095-1.72 0-2.944-1.225t-1.225-2.944"/></svg>