<svg xmlns="http://www.w3.org/2000/svg" viewBox="0 0 39.542 42.658"><path fill="var(--fill-0, #154973)" d="m16.327 25.062.208 1.706q.052.426.338.693a1 1 0 0 0 .702.267h2.288a1 1 0 0 0 .702-.267q.285-.267.338-.693l.208-1.706q.415-.16.754-.374a3.3 3.3 0 0 0 .598-.48l1.56.694q.364.16.727.053.364-.107.573-.48l1.143-2.026q.209-.373.13-.747a1.13 1.13 0 0 0-.39-.64l-1.351-1.013a3.6 3.6 0 0 0 0-1.706l1.351-1.013q.312-.267.39-.64a1.05 1.05 0 0 0-.13-.747l-1.143-2.026a.95.95 0 0 0-.573-.48 1.03 1.03 0 0 0-.727.054l-1.56.693a3.3 3.3 0 0 0-.598-.48 4.3 4.3 0 0 0-.754-.373l-.208-1.707a1.1 1.1 0 0 0-.338-.693 1 1 0 0 0-.702-.266h-2.288a1 1 0 0 0-.702.266q-.285.267-.338.693l-.208 1.707a4.3 4.3 0 0 0-.754.373 3.3 3.3 0 0 0-.598.48l-1.56-.693a1.03 1.03 0 0 0-.728-.054.95.95 0 0 0-.572.48l-1.144 2.026a1.05 1.05 0 0 0-.13.747q.078.373.39.64l1.352 1.013a3.6 3.6 0 0 0 0 1.706l-1.352 1.013a1.13 1.13 0 0 0-.39.64q-.077.374.13.747l1.144 2.026q.209.373.572.48.365.106.728-.053l1.56-.694q.26.267.598.48.338.214.754.374m2.392-2.667a2.97 2.97 0 0 1-2.21-.933q-.91-.933-.91-2.266t.91-2.266a2.97 2.97 0 0 1 2.21-.933q1.3 0 2.21.933t.91 2.266-.91 2.266a2.97 2.97 0 0 1-2.21.933M6.239 33.488a19.7 19.7 0 0 1-4.601-6.48A19.1 19.1 0 0 1 0 19.198q0-8 5.46-13.598Q10.92-.001 18.719 0q6.5 0 11.517 3.92 5.017 3.918 6.526 10.21l2.704 10.932q.26 1.012-.364 1.84-.623.826-1.664.826h-4.16v6.398q0 1.76-1.222 3.013t-2.938 1.253h-4.16v2.133q0 .907-.597 1.52a1.99 1.99 0 0 1-1.482.613q-.885 0-1.482-.613-.598-.614-.598-1.52V36.26q0-.905.598-1.52a1.99 1.99 0 0 1 1.482-.613h6.24v-8.531q0-.906.597-1.52a1.99 1.99 0 0 1 1.482-.613h3.536l-1.976-8.265q-1.196-4.853-5.096-7.892t-8.943-3.04q-6.032 0-10.295 4.32Q4.16 12.904 4.16 19.09q0 3.199 1.274 6.078a16 16 0 0 0 3.613 5.12l1.352 1.279v8.958q0 .907-.598 1.52a1.99 1.99 0 0 1-1.481.613q-.885 0-1.482-.613-.598-.614-.598-1.52z"/></svg>