<svg xmlns="http://www.w3.org/2000/svg" viewBox="0 0 44.699 30.395"><path fill="var(--fill-0, #154973)" d="M22.35 24.316q3.906 0 6.642-2.66 2.735-2.658 2.735-6.458t-2.735-6.46Q26.256 6.08 22.349 6.08t-6.642 2.66q-2.735 2.66-2.735 6.459t2.735 6.459 6.642 2.66m0-3.647q-2.345 0-3.986-1.596t-1.641-3.875 1.641-3.876q1.64-1.596 3.985-1.596t3.986 1.596 1.64 3.876-1.64 3.875-3.986 1.596m0 9.726q-6.982 0-12.738-3.647Q3.855 23.1.52 17.123a4 4 0 0 1-.39-.938Q0 15.705 0 15.198t.13-.988q.13-.482.391-.937 3.335-5.978 9.09-9.626Q15.37 0 22.35 0q6.981 0 12.738 3.647t9.09 9.626q.261.455.392.937.13.48.13.988 0 .506-.13.987-.131.482-.391.938-3.334 5.977-9.091 9.625t-12.738 3.647m0-4.052q5.886 0 10.81-3.015 4.922-3.015 7.527-8.13-2.604-5.117-7.528-8.131T22.35 4.053 11.54 7.067t-7.528 8.13q2.605 5.118 7.528 8.131 4.924 3.015 10.81 3.015"/></svg>