<svg xmlns="http://www.w3.org/2000/svg" width="125" height="89" fill="none" viewBox="0 0 125 89"><rect width="55.589" height="32.241" fill="#124a73" rx="16.121"/><circle cx="39.468" cy="16.121" r="13.897" fill="#fff"/><path fill="#124a73" d="m37.222 19.223-3.497-3.384q-.447-.432-1.139-.432-.691 0-1.139.432-.446.433-.447 1.102 0 .669.447 1.102l4.637 4.485q.487.472 1.138.472.652 0 1.14-.472l9.19-8.892q.448-.433.448-1.102t-.447-1.101Q47.105 11 46.413 11q-.69 0-1.138.433z"/><path fill="#457aa5" d="M65 19a3 3 0 0 1 3-3h45a3 3 0 1 1 0 6H68a3 3 0 0 1-3-3"/><rect width="55.589" height="32.241" x="55.589" y="88.307" fill="#bec0c1" rx="16.121" transform="rotate(180 55.589 88.307)"/><circle cx="17.234" cy="72.391" r="13.897" fill="#fff" transform="rotate(180 17.234 72.391)"/><rect width="61.114" height="6.116" x="63.886" y="70.409" fill="#bec0c1" rx="3.058"/><path fill="#bec0c1" stroke="#bec0c1" stroke-width="1.21" d="m17.235 73.871-5.179 5.179q-.29.29-.74.29-.449 0-.74-.29a1 1 0 0 1-.29-.74q0-.45.29-.74l5.18-5.178-5.18-5.179a1 1 0 0 1-.29-.74q0-.45.29-.74.291-.29.74-.29.45 0 .74.29l5.179 5.179 5.178-5.178q.29-.291.74-.291t.74.29.29.74-.29.74l-5.179 5.179 5.179 5.178q.29.29.29.74t-.29.74-.74.29-.74-.29z"/></svg>