<svg xmlns="http://www.w3.org/2000/svg" width="285" height="170" fill="none" viewBox="0 0 285 170"><path fill="#f6f6f6" d="M0 8a8 8 0 0 1 8-8h269a8 8 0 0 1 8 8v162H0z"/><path fill="#457aa5" d="M49.656 123.885h-3.773V128h3.773zM146.768 123.885h-3.772V128h3.772zM234.883 123.885h-3.773V128h3.773z"/><path fill="#457aa5" d="M233.581 126.584H47.183V45.77h186.398zm-185.224-1.28h184.051V47.05H48.357z"/><path fill="#457aa5" d="M49.656 44.351h-3.773v4.116h3.773zM146.768 44.351h-3.772v4.116h3.772zM234.883 44.351h-3.773v4.116h3.773zM49.656 84.119h-3.773v4.115h3.773zM234.883 84.119h-3.773v4.115h3.773z"/><path fill="#000" d="M109.238 108h-5.89l-3.658-9.176H79.106L75.448 108h-5.89l16.616-41.354h6.386zM98.14 94.236l-8.742-22.258-8.804 22.258zM136.593 108h-4.65v-3.41c-2.48 2.728-5.89 4.154-9.92 4.154-5.084 0-10.478-3.41-10.478-9.92 0-6.696 5.394-9.858 10.478-9.858 4.092 0 7.502 1.302 9.92 4.092v-5.394c0-4.03-3.224-6.324-7.564-6.324-3.596 0-6.51 1.302-9.176 4.154l-2.17-3.224c3.224-3.348 7.068-4.96 11.966-4.96 6.324 0 11.594 2.852 11.594 10.106zm-12.896-2.604c3.286 0 6.448-1.24 8.246-3.72v-5.642c-1.798-2.48-4.96-3.72-8.246-3.72-4.34 0-7.378 2.728-7.378 6.572 0 3.782 3.038 6.51 7.378 6.51M163.088 108H144.24V66.646h18.414c7.192 0 11.594 4.34 11.594 10.54 0 5.208-3.472 8.68-7.254 9.486 4.402.682 8.06 5.208 8.06 10.168 0 6.634-4.402 11.16-11.966 11.16m-1.302-23.436c4.65 0 7.13-2.852 7.13-6.634 0-3.72-2.48-6.696-7.13-6.696h-12.4v13.33zm.248 18.848c4.836 0 7.688-2.728 7.688-7.13 0-3.782-2.604-7.13-7.688-7.13h-12.648v14.26zm23.182-3.534c1.612 2.604 5.27 4.712 8.928 4.712 6.076 0 9.672-4.898 9.672-11.532s-3.596-11.594-9.672-11.594c-3.658 0-7.316 2.232-8.928 4.836zm0 8.122h-4.65V66.646h4.65V82.58c2.418-3.286 6.014-5.27 10.106-5.27 7.812 0 13.33 6.2 13.33 15.748 0 9.734-5.518 15.686-13.33 15.686-4.216 0-7.874-2.17-10.106-5.208z"/></svg>