<svg width="285" height="170" viewBox="0 0 285 170" fill="none" xmlns="http://www.w3.org/2000/svg">
<path d="M0 8C0 3.58172 3.58172 0 8 0H277C281.418 0 285 3.58172 285 8V170H0V8Z" fill="#F6F6F6"/>
<path d="M190.947 113.476H184.422V108.691C180.943 112.519 176.158 114.52 170.504 114.52C163.371 114.52 155.803 109.735 155.803 100.601C155.803 91.2064 163.371 86.7699 170.504 86.7699C176.245 86.7699 181.03 88.5967 184.422 92.5113V84.9431C184.422 79.2888 179.899 76.0701 173.81 76.0701C168.764 76.0701 164.676 77.8969 160.935 81.8985L157.89 77.375C162.414 72.6775 167.807 70.4158 174.68 70.4158C183.553 70.4158 190.947 74.4173 190.947 84.5952V113.476ZM172.853 109.822C177.463 109.822 181.9 108.083 184.422 104.603V96.6868C181.9 93.2072 177.463 91.4674 172.853 91.4674C166.763 91.4674 162.501 95.295 162.501 100.688C162.501 105.995 166.763 109.822 172.853 109.822Z" fill="#1B1B1B"/>
<path d="M150.623 113.476H142.359L137.226 100.601H108.346L103.213 113.476H94.949L118.262 55.4534H127.222L150.623 113.476ZM135.052 94.164L122.786 62.9345L110.433 94.164H135.052Z" fill="#1B1B1B"/>
<path d="M80.9046 124.308H77.0002V128.567H80.9046V124.308Z" fill="#457AA5"/>
<path d="M144.151 124.308H140.246V128.567H144.151V124.308Z" fill="#457AA5"/>
<path d="M207.395 124.308H203.491V128.567H207.395V124.308Z" fill="#457AA5"/>
<path d="M206.049 127.102H78.3469V43.4685H206.049V127.102ZM79.5613 125.777H204.835V44.7933H79.5613V125.777Z" fill="#457AA5"/>
<path d="M80.9047 42H77.0004V46.2592H80.9047V42Z" fill="#457AA5"/>
<path d="M144.151 42.0002H140.246V46.2595H144.151V42.0002Z" fill="#457AA5"/>
<path d="M207.395 42.0002H203.491V46.2595H207.395V42.0002Z" fill="#457AA5"/>
<path d="M80.9046 83.1548H77.0002V87.414H80.9046V83.1548Z" fill="#457AA5"/>
<path d="M207.395 83.1548H203.491V87.414H207.395V83.1548Z" fill="#457AA5"/>
</svg>
