<svg xmlns="http://www.w3.org/2000/svg" width="385" height="89" fill="none" viewBox="0 0 385 89"><path fill="#286ad8" d="M234.373 62.521h45.328C279.701 27.991 251.709 0 217.179 0v45.328c0 9.496 7.698 17.193 17.194 17.193m45.328 0c39.237 0 62.521-23.499 62.521-62.521-39.884 0-62.521 22.422-62.521 62.521"/><path fill="#286ad8" d="M234.373 62.521h45.328C279.701 27.991 251.709 0 217.179 0v45.328c0 9.496 7.698 17.193 17.194 17.193m45.328 0c39.237 0 62.521-23.499 62.521-62.521-39.884 0-62.521 22.422-62.521 62.521"/><path fill="#286ad8" d="M217.18 0v45.328c0 9.496-7.611 17.193-16.999 17.194h-91.045c-9.388 0-17-7.698-17-17.194V0z"/><path fill="#286ad8" d="M234.373 62.521h45.328C279.701 27.991 251.709 0 217.179 0v45.328c0 9.496 7.698 17.193 17.194 17.193"/><path fill="#286ad8" d="M279.27 62.521c39.238 0 62.521-23.499 62.521-62.521-39.884 0-62.521 22.422-62.521 62.521"/><path fill="#5187df" d="M161.841 52.495h-20.488c-1.139 0-1.899-.698-1.899-1.744s.76-1.743 1.899-1.743h20.488c1.139 0 1.899.697 1.899 1.743s-.76 1.744-1.899 1.744m34.036 0h-20.488c-1.139 0-1.899-.698-1.899-1.744s.76-1.743 1.899-1.743h20.488c1.14 0 1.899.697 1.899 1.743s-.759 1.744-1.899 1.744M171.89 41.159h-63.897c-1.503 0-2.504-1.046-2.504-2.616s1.001-2.612 2.504-2.612h63.897c1.502 0 2.504 1.043 2.504 2.612s-1.002 2.616-2.504 2.616m-44.086 11.336h-20.487c-1.14 0-1.9-.698-1.9-1.744s.76-1.743 1.9-1.743h20.487c1.14 0 1.9.697 1.9 1.743s-.76 1.744-1.9 1.744"/><circle cx="110.235" cy="18.098" r="4.936" fill="#081b2b"/><mask id="a" width="40" height="41" x="345" y="29" maskUnits="userSpaceOnUse" style="mask-type:alpha"><path fill="#d9d9d9" d="M345.513 29.615H385v39.487h-39.487z"/></mask><g mask="url(#a)"><path fill="#5187df" d="M354.274 57.586q-1.192-.001-1.728.514-.535.513-1.48.72-.947.206-1.605-.186-.658-.39-.658-1.172 0-.617.535-1.193.536-.576 1.686-1.151.206-.124 1.091-.474.884-.35 2.323-.35 2.263 0 3.044.824.781.822 2.304.822 1.521 0 2.283-.822.76-.823 3.146-.823t3.229.822 2.365.823 2.221-.822 3.044-.823q.946 0 1.831.226.884.226 1.789.679 1.028.534 1.522 1.11.493.576.493 1.152 0 .782-.658 1.172-.658.391-1.604.185t-1.501-.72-1.707-.513q-1.522 0-2.283.822-.76.823-3.147.823-2.385 0-3.229-.823-.843-.822-2.365-.822-1.521 0-2.283.822-.761.823-3.187.823-2.427 0-3.168-.823-.74-.822-2.303-.822"/></g><mask id="b" width="40" height="40" x="0" y="49" maskUnits="userSpaceOnUse" style="mask-type:alpha"><path fill="#d9d9d9" d="M0 49.359h39.487v39.487H0z"/></mask><g mask="url(#b)"><path fill="#5187df" d="M8.761 77.33q-1.192 0-1.727.513-.535.514-1.481.72t-1.604-.185-.658-1.172q0-.618.534-1.193.535-.576 1.687-1.152.205-.123 1.09-.473.884-.35 2.324-.35 2.262 0 3.044.823.78.823 2.303.823t2.283-.823 3.146-.823 3.23.823q.842.823 2.364.823t2.222-.823 3.043-.823q.947 0 1.83.227.885.226 1.79.678 1.029.535 1.522 1.111t.493 1.152q0 .78-.658 1.172-.657.39-1.604.185-.945-.205-1.501-.72-.556-.514-1.707-.514-1.522 0-2.283.823-.76.822-3.147.822-2.385 0-3.229-.822-.843-.823-2.365-.823-1.521 0-2.283.823-.761.822-3.187.822-2.427 0-3.167-.822-.741-.823-2.304-.823"/></g></svg>