<svg width="579" height="145" viewBox="0 0 579 145" fill="none" xmlns="http://www.w3.org/2000/svg">
<path d="M533.344 74.2496C551.362 74.2496 565.969 59.6429 565.969 41.6246C565.969 23.6064 551.362 8.99968 533.344 8.99968C515.325 8.99968 500.719 23.6064 500.719 41.6246C500.719 59.6429 515.325 74.2496 533.344 74.2496Z" fill="#457AA5"/>
<path d="M579 145H434V0L579 145Z" fill="#457AA5"/>
<path d="M105.125 145H0C0 64.9187 64.9186 0 145 0V105.125C145 127.147 127.147 145 105.125 145Z" fill="#457AA5"/>
<path d="M289.427 0V144.427H217.377C177.404 144.427 145 112.096 145 72.2134C145 32.331 177.404 2.22154e-05 217.377 2.22154e-05L289.427 0Z" fill="#457AA5"/>
<g clip-path="url(#clip0_298_181)">
<path d="M361.5 145C401.541 145 434 112.541 434 72.5C434 32.4594 401.541 0 361.5 0C321.459 0 289 32.4594 289 72.5C289 112.541 321.459 145 361.5 145Z" fill="#457AA5"/>
<path style="mix-blend-mode:multiply" opacity="0.58" d="M433.517 80.8632L405.227 52.573C405.14 52.4841 405.051 52.3978 404.963 52.3093C404.877 52.2211 404.788 52.1355 404.702 52.0477C404.615 51.9585 404.525 51.8721 404.438 51.7836C404.351 51.6951 404.262 51.6088 404.175 51.5206C404.088 51.4318 403.998 51.3454 403.911 51.2569C400.537 47.8029 396.78 44.7268 392.641 42.0293C383.217 35.8892 372.792 32.8192 361.364 32.8192C349.936 32.8192 339.511 35.8892 330.088 42.0293C320.664 48.1697 313.223 56.2693 307.765 66.3345C307.339 67.1017 307.019 67.89 306.806 68.7033C306.593 69.5119 306.486 70.3409 306.486 71.1952C306.486 72.0499 306.593 72.8789 306.806 73.6925C307.019 74.5008 307.339 75.2887 307.765 76.0563C310.887 81.8132 314.661 86.9244 319.08 91.3969C319.167 91.4851 319.256 91.5711 319.342 91.6588L370.243 143.07L370.911 143.227C370.997 143.316 371.087 143.402 371.174 143.491C371.261 143.579 371.35 143.665 371.437 143.754C371.603 143.923 371.78 144.08 371.948 144.248C404.317 139.575 429.765 113.521 433.517 80.8632Z" fill="#154973"/>
<path d="M345.054 87.5077C340.577 83.0254 338.338 77.5913 338.338 71.1953C338.338 64.7993 340.577 59.3652 345.054 54.8828C349.531 50.4108 354.968 48.1696 361.364 48.1696C367.76 48.1696 373.197 50.4108 377.674 54.8828C382.151 59.3652 384.39 64.7993 384.39 71.1953C384.39 77.5913 382.151 83.0254 377.674 87.5077C373.197 91.9798 367.76 94.221 361.364 94.221C354.968 94.221 349.531 91.9798 345.054 87.5077ZM371.15 80.9837C373.836 78.2974 375.179 75.0329 375.179 71.1953C375.179 67.3577 373.836 64.0983 371.15 61.4119C368.463 58.7205 365.202 57.3799 361.364 57.3799C357.526 57.3799 354.264 58.7205 351.578 61.4119C348.892 64.0983 347.549 67.3577 347.549 71.1953C347.549 75.0329 348.892 78.2974 351.578 80.9837C354.264 83.6701 357.526 85.0107 361.364 85.0107C365.202 85.0107 368.463 83.6701 371.15 80.9837Z" fill="#CDDDE9"/>
<mask id="mask0_298_181" style="mask-type:luminance" maskUnits="userSpaceOnUse" x="299" y="12" width="124" height="124">
<path d="M422.766 12.3519H299.962V135.156H422.766V12.3519Z" fill="#D8D8D8"/>
</mask>
<g mask="url(#mask0_298_181)">
<path d="M361.364 109.571C349.936 109.571 339.511 106.501 330.087 100.361C320.664 94.221 313.223 86.1211 307.765 76.0563C307.339 75.2888 307.019 74.5007 306.806 73.6923C306.593 72.8787 306.486 72.0498 306.486 71.1953C306.486 70.3407 306.593 69.5119 306.806 68.7034C307.019 67.8898 307.339 67.1018 307.765 66.3343C313.223 56.2695 320.664 48.1696 330.087 42.0294C339.511 35.8893 349.936 32.8191 361.364 32.8191C372.791 32.8191 383.217 35.8893 392.64 42.0294C402.064 48.1696 409.505 56.2695 414.963 66.3343C415.389 67.1018 415.709 67.8898 415.922 68.7034C416.135 69.5119 416.242 70.3407 416.242 71.1953C416.242 72.0498 416.135 72.8787 415.922 73.6923C415.709 74.5007 415.389 75.2888 414.963 76.0563C409.505 86.1211 402.064 94.221 392.64 100.361C383.217 106.501 372.792 109.571 361.364 109.571ZM361.364 99.3378C371.001 99.3378 379.848 96.7999 387.907 91.7239C395.966 86.6532 402.128 79.8069 406.392 71.1953C402.128 62.5837 395.966 55.7374 387.907 50.6615C379.848 45.5907 371.001 43.0528 361.364 43.0528C351.727 43.0528 342.879 45.5907 334.821 50.6615C326.762 55.7374 320.6 62.5837 316.336 71.1953C320.6 79.8069 326.762 86.6532 334.821 91.7239C342.879 96.7999 351.727 99.3378 361.364 99.3378Z" fill="#154973"/>
</g>
<mask id="mask1_298_181" style="mask-type:luminance" maskUnits="userSpaceOnUse" x="299" y="12" width="124" height="124">
<path d="M422.766 12.3519H299.962V135.156H422.766V12.3519Z" fill="#D8D8D8"/>
</mask>
<g mask="url(#mask1_298_181)">
<path d="M361.364 109.571C349.936 109.571 339.511 106.501 330.087 100.361C320.664 94.221 313.223 86.1211 307.765 76.0563C307.339 75.2888 307.019 74.5007 306.806 73.6923C306.593 72.8787 306.486 72.0498 306.486 71.1953C306.486 70.3407 306.593 69.5119 306.806 68.7034C307.019 67.8898 307.339 67.1018 307.765 66.3343C313.223 56.2695 320.664 48.1696 330.087 42.0294C339.511 35.8893 349.936 32.8191 361.364 32.8191C372.791 32.8191 383.217 35.8893 392.64 42.0294C402.064 48.1696 409.505 56.2695 414.963 66.3343C415.389 67.1018 415.709 67.8898 415.922 68.7034C416.135 69.5119 416.242 70.3407 416.242 71.1953C416.242 72.0498 416.135 72.8787 415.922 73.6923C415.709 74.5007 415.389 75.2888 414.963 76.0563C409.505 86.1211 402.064 94.221 392.64 100.361C383.217 106.501 372.792 109.571 361.364 109.571ZM361.364 99.3378C371.001 99.3378 379.848 96.7999 387.907 91.7239C395.966 86.6532 402.128 79.8069 406.392 71.1953C402.128 62.5837 395.966 55.7374 387.907 50.6615C379.848 45.5907 371.001 43.0528 361.364 43.0528C351.727 43.0528 342.879 45.5907 334.821 50.6615C326.762 55.7374 320.6 62.5837 316.336 71.1953C320.6 79.8069 326.762 86.6532 334.821 91.7239C342.879 96.7999 351.727 99.3378 361.364 99.3378Z" fill="#CDDDE9"/>
</g>
</g>
<defs>
<clipPath id="clip0_298_181">
<rect width="145" height="145" fill="white" transform="translate(289)"/>
</clipPath>
</defs>
</svg>
