<svg xmlns="http://www.w3.org/2000/svg" width="548" height="138" fill="none" viewBox="0 0 548 138"><circle cx="204.75" cy="68.75" r="68.75" fill="#1d4874"/><mask id="a" width="138" height="138" x="136" y="0" maskUnits="userSpaceOnUse" style="mask-type:alpha"><path fill="#1d4874" d="M204.75 137.499c37.969 0 68.75-30.78 68.75-68.75S242.719 0 204.75 0 136 30.78 136 68.75s30.78 68.749 68.75 68.749"/></mask><g mask="url(#a)"><path fill="#22244e" d="M313.518 123.156c-.844-1.524-2.696-2.823-3.921-4.047-1.547-1.548-59.063-59.816-64.651-64.646a3.7 3.7 0 0 0-1.06-.839L209.545 34.93a7.1 7.1 0 0 0-3.529-.93 7.13 7.13 0 0 0-3.533.932l-38.727 21.142c-.56.28-.981.673-1.288 1.205a3.4 3.4 0 0 0-.468 1.74v26.006c0 1.623 1.214 2.67 2.278 3.72 1.433 1.415 63.964 63.948 65.388 65.372 1.178 1.177 2.176 2.565 3.991 2.565.972 0 1.761-.317 2.413-.968.651-.652.968-1.441.968-2.413v-6.349q.126.13.259.253c.111.115.222.232.341.341.112.116.222.232.342.342.111.115.222.232.341.341.112.116.222.232.342.341.111.116.221.232.341.341.111.116.222.233.342.342.111.116.221.232.341.341q.165.175.341.342c.112.115.222.232.341.341.112.116.223.232.342.342.112.115.222.232.341.341.112.116.222.232.342.341.111.116.221.232.341.341.111.116.222.233.342.342.111.116.221.232.341.341q.165.175.341.342c.112.116.222.232.342.341.111.116.221.232.341.341.111.116.222.233.342.342.111.116.221.232.341.341q.165.175.341.342c.111.115.222.232.341.341.112.116.222.232.342.342.111.115.222.232.341.341.112.116.222.232.342.341.111.116.221.232.341.341.111.116.222.233.342.342.111.116.221.232.341.341q.165.175.341.342c.111.115.222.232.341.341.112.116.222.232.342.342.111.115.222.232.341.341.112.116.222.232.342.341a7.8 7.8 0 0 0 1.875 1.443l20.326 10.975a7.1 7.1 0 0 0 3.528.93 7.1 7.1 0 0 0 3.536-.934l20.313-10.969c1.24-.682 2.213-1.606 2.891-2.747s1.022-2.441 1.022-3.867v-19.505c0-.248.135-.477.353-.598l9.755-5.386c.626-.341 1.082-.764 1.355-1.255a3.4 3.4 0 0 0 .423-1.701c0-.632-.138-1.188-.422-1.7" opacity=".63"/></g><path fill="#7aa5e7" d="M205.99 103.533a7.1 7.1 0 0 1-3.526-.929L182.15 91.629c-1.235-.68-2.206-1.603-2.884-2.744-.678-1.14-1.022-2.44-1.022-3.866V65.516a.68.68 0 0 0-.353-.598l-8.122-4.47a.68.68 0 0 0-1.011.599v23.972c0 .971-.316 1.76-.967 2.412-.652.651-1.44.968-2.412.968-.971 0-1.759-.317-2.411-.968-.651-.652-.968-1.441-.968-2.412V59.015c0-.628.153-1.197.467-1.74a3 3 0 0 1 1.288-1.204l38.704-21.14a7.5 7.5 0 0 1 1.725-.7A7 7 0 0 1 205.99 34a7.1 7.1 0 0 1 3.527.93l34.321 18.692c.625.341 1.082.764 1.356 1.256.283.511.421 1.067.421 1.7 0 .632-.138 1.188-.422 1.7-.273.492-.73.914-1.355 1.255l-9.75 5.386a.68.68 0 0 0-.352.597V85.02c0 1.426-.345 2.727-1.022 3.866s-1.649 2.065-2.888 2.747L209.525 102.6a7.5 7.5 0 0 1-1.729.702 7 7 0 0 1-1.806.231M185.685 69.1a.684.684 0 0 0-.683.683V85.12a.68.68 0 0 0 .359.6l20.305 10.97a.67.67 0 0 0 .648 0l20.306-10.97a.68.68 0 0 0 .358-.6V69.783a.684.684 0 0 0-1.013-.598l-16.346 9.04a7.3 7.3 0 0 1-1.764.697 7.7 7.7 0 0 1-1.865.233 7.7 7.7 0 0 1-1.865-.233 7.3 7.3 0 0 1-1.763-.696l-16.347-9.041a.7.7 0 0 0-.33-.085m20.305-28.238a.7.7 0 0 0-.324.082l-27.819 15.033a.681.681 0 0 0 0 1.2l27.819 15.034a.68.68 0 0 0 .648 0l27.819-15.033a.681.681 0 0 0 0-1.201l-27.819-15.033a.7.7 0 0 0-.324-.082"/><path fill="#2d618c" d="M272.545 30c0-16.568 13.432-30 30-30h107.5v107.5c0 16.569-13.431 30-30 30h-107.5z"/><path fill="url(#b)" d="M0 0v137.5h68.594c38.056 0 68.906-30.78 68.906-68.75S106.65 0 68.594 0z"/><path fill="url(#c)" d="M504.205 70.409c17.087 0 30.938-13.851 30.938-30.938S521.292 8.534 504.205 8.534s-30.937 13.851-30.937 30.938 13.851 30.937 30.937 30.937"/><path fill="url(#d)" d="M547.5 137.5H410V0z"/><defs><linearGradient id="b" x1="11.202" x2="68.75" y1="15.728" y2="101.284" gradientUnits="userSpaceOnUse"><stop stop-color="#7aa5e7"/><stop offset="1" stop-color="#003ba1"/></linearGradient><linearGradient id="c" x1="473.268" x2="535.143" y1="39.471" y2="39.471" gradientUnits="userSpaceOnUse"><stop stop-color="#7aa5e7"/><stop offset=".997" stop-color="#003ba1"/></linearGradient><linearGradient id="d" x1="497.175" x2="409.548" y1="61.307" y2="137.36" gradientUnits="userSpaceOnUse"><stop stop-color="#7aa5e7"/><stop offset=".997" stop-color="#003ba1"/></linearGradient></defs></svg>