<svg xmlns="http://www.w3.org/2000/svg" width="579" height="145" fill="none"><path fill="#5187df" d="M539.025 145H433.9c0-80.081 64.919-145 145-145v105.125c0 22.022-17.853 39.875-39.875 39.875"/><path fill="url(#a)" d="M144.739 145V.155h72.164c40.036 0 72.492 32.425 72.492 72.422S256.939 145 216.903 145z"/><path fill="#154973" d="M72.328 145c39.946 0 72.328-32.425 72.328-72.423 0-39.997-32.382-72.422-72.328-72.422S0 32.58 0 72.577 32.382 145 72.328 145"/><path fill="#7aa5e7" d="m60.403 93.584 47.962-48.024q1.696-1.7 3.962-1.7t3.961 1.7q1.698 1.7 1.698 4.037c0 2.337-.566 2.904-1.698 4.038l-51.923 52.132q-1.696 1.7-3.962 1.7t-3.961-1.7L32.108 81.401q-1.7-1.7-1.625-4.037.068-2.339 1.766-4.038 1.7-1.7 4.035-1.7 2.332 0 4.03 1.7z"/><path fill="#004dd1" d="M433.956.155H289.3V145h144.656z"/><g style="mix-blend-mode:multiply"><mask id="b" width="145" height="145" x="289" y="0" maskUnits="userSpaceOnUse" style="mask-type:luminance"><path fill="#fff" d="M433.956 0H289.3v144.845h144.656z"/></mask><g mask="url(#b)"><path fill="#002971" d="M508.52 160.925c-2.457-5.676-5.868-10.719-10.136-14.989q-.067-.065-.135-.128l-.128-.135-.134-.128-.128-.134q-.067-.066-.135-.13c-.044-.043-.084-.09-.128-.133l-.134-.129c-.044-.044-.084-.09-.128-.134l-.135-.129-.128-.134-.134-.128q-.063-.068-.128-.135l-.135-.129-.128-.134-.134-.128-.128-.134-.135-.129-.127-.134q-.067-.065-.135-.128-.063-.068-.128-.135l-.135-.129-.127-.134-.135-.129c-.044-.044-.084-.09-.128-.134l-.134-.128q-.065-.067-.128-.135-.068-.063-.134-.128l-.129-.134-.134-.129-.128-.134-.135-.129-.128-.134-.134-.129-.128-.134q-.067-.065-.135-.128c-.044-.044-.084-.091-.128-.135l-.134-.128c-.044-.044-.084-.091-.128-.135l-.135-.129-.128-.133-.134-.129-.128-.134-.135-.129-.128-.134-.134-.128-.128-.135-.135-.129-.128-.134-.134-.128-.128-.134-.135-.129-.128-.134q-.066-.065-.134-.128-.063-.068-.128-.135l-.135-.129-.128-.134q-.066-.065-.134-.129l-.128-.134q-.067-.065-.135-.128l-.128-.135-.134-.128q-.063-.068-.128-.134-.067-.066-.135-.129l-.127-.134-.135-.129-.128-.134-.135-.129-.127-.134c-.044-.044-.091-.084-.135-.128l-.128-.135q-.067-.065-.135-.128l-.127-.135-.135-.129-.128-.133-.134-.129-.128-.134-.135-.128-.128-.135-.134-.129-.128-.134-.135-.129-.128-.134-.134-.128-.128-.134-.135-.129c-.044-.044-.084-.091-.128-.134l-.134-.128-.128-.135-.135-.129-.128-.134-.134-.129c-.044-.043-.084-.09-.128-.134l-.135-.128-.128-.135-.134-.128-.128-.134q-.067-.066-.135-.13c-.044-.043-.084-.09-.128-.133l-.134-.129-.128-.134-.135-.129-.128-.134-.134-.128q-.063-.068-.128-.135l-.135-.129-.128-.134-.134-.128c-.044-.044-.084-.091-.128-.134l-.135-.129-.128-.134q-.066-.065-.134-.128l-.128-.135-.135-.129-.127-.134-.135-.129-.128-.134q-.067-.065-.135-.128l-.127-.135-.135-.128-.128-.134-.135-.129-.127-.134-.135-.129c-.044-.044-.084-.09-.128-.134l-.135-.129-.127-.134c-.044-.044-.091-.084-.135-.128l-.128-.135-.134-.128-.128-.134q-.067-.066-.135-.13c-.044-.043-.084-.09-.128-.133l-.134-.129-.128-.134-.135-.129-.128-.134-.134-.128-.128-.135-.135-.129c-.044-.044-.084-.09-.128-.134l-.134-.128c-.044-.044-.084-.091-.128-.134l-.135-.129-.128-.134q-.066-.065-.134-.128l-.128-.135-.135-.129-.128-.134-.134-.129-.128-.134q-.067-.065-.135-.128-.063-.068-.128-.135l-.134-.128-.128-.134q-.067-.066-.135-.129c-.044-.044-.084-.091-.128-.134l-.134-.129c-.044-.044-.084-.09-.128-.134l-.135-.129-.128-.134-.134-.128-.128-.135-.135-.129-.127-.134-.135-.128-.128-.134-.135-.129-.127-.134q-.067-.065-.135-.128l-.128-.135-.135-.129-.127-.134-.135-.129c-.044-.044-.084-.09-.128-.134l-.135-.128-.127-.134-.135-.129-.128-.134-.134-.129-.128-.134-.135-.129-.128-.134-.134-.129-.128-.134q-.067-.065-.135-.128l-.128-.135-.134-.128-.128-.134q-.067-.066-.135-.13c-.044-.043-.084-.09-.128-.133l-.134-.129-.128-.134-.135-.129-.128-.134-.134-.128c-.044-.044-.084-.091-.128-.135l-.135-.129-.128-.134-.134-.128-.128-.134-.135-.129-.128-.134q-.066-.065-.134-.128l-.128-.135-.135-.129c-.044-.044-.084-.09-.128-.134l-.134-.129-.128-.134q-.067-.065-.135-.128l-.128-.135-.134-.128-.128-.134c-.044-.045-.091-.085-.135-.129q-.063-.068-.128-.134l-.134-.129-.128-.134-.135-.129-.127-.134-.135-.128-.128-.135q-.067-.065-.135-.128-.063-.068-.127-.134l-.136-.13-.127-.133-.135-.129-.127-.134-.135-.128-.128-.135q-.068-.064-.134-.129l-.128-.134-.135-.129-.128-.134c-.044-.044-.09-.084-.135-.128q-.063-.068-.127-.134l-.135-.129c-.044-.044-.084-.09-.128-.134l-.134-.128-.128-.135-.135-.129-.128-.134-.134-.129c-.044-.043-.084-.09-.128-.134l-.135-.128-.128-.135-.134-.128-.128-.134q-.067-.066-.135-.13l-.128-.133-.134-.129-.128-.134-.135-.129-.128-.134c-.043-.044-.09-.084-.134-.128l-.128-.135-.135-.129-.128-.134-.134-.128c-.044-.044-.084-.091-.128-.134l-.135-.129-.128-.134q-.066-.065-.134-.128l-.128-.135-.135-.129-.128-.134q-.066-.065-.134-.128l-.128-.135c-.044-.044-.091-.084-.135-.128q-.063-.068-.127-.134l-.135-.129-.128-.134-.135-.129-.127-.134-.136-.129-.127-.134-.135-.129q-.064-.066-.127-.134l-.135-.128-.128-.135-.134-.128-.128-.134q-.067-.066-.135-.13c-.044-.043-.084-.09-.128-.133l-.135-.129-.127-.134-.135-.129-.128-.134-.134-.128c-.044-.044-.084-.091-.128-.135l-.135-.129-.128-.134-.134-.128-.128-.134-.135-.129-.128-.134q-.066-.065-.134-.128l-.128-.135-.135-.129c-.044-.044-.084-.09-.128-.134l-.134-.129-.128-.134q-.067-.065-.135-.128l-.128-.135-.134-.128c-.044-.044-.084-.09-.128-.134s-.091-.085-.135-.129l-.128-.134-.134-.129-.128-.134-.135-.129-.128-.134-.134-.128q-.063-.068-.128-.135l-.135-.129c-.044-.044-.084-.09-.128-.133l-.134-.129-.128-.134-.135-.129-.127-.134q-.067-.065-.135-.128l-.128-.135-.135-.129-.127-.134-.135-.129-.128-.134-.135-.128q-.063-.068-.127-.134l-.135-.129-.128-.134-.135-.129-.127-.134-.136-.129-.127-.134-.134-.129q-.065-.066-.128-.134l-.135-.128-.128-.135-.134-.128-.128-.134q-.067-.066-.135-.129l-.128-.134-.134-.129-.128-.134-.135-.129-.128-.134-.134-.128-.128-.135-.135-.129-.128-.134-.134-.128c-.044-.044-.084-.09-.128-.134l-.135-.129-.128-.134q-.066-.065-.134-.128l-.128-.135-.135-.13q-.064-.067-.128-.133l-.134-.128-.128-.135-.135-.128-.128-.134-.134-.129-.128-.134-.135-.13q-.063-.067-.128-.133l-.134-.129c-.044-.044-.084-.09-.128-.134l-.135-.129q-.064-.066-.127-.134-.067-.064-.135-.128l-.128-.135-.135-.128-.127-.134-.135-.13q-.064-.067-.128-.133l-.135-.129-.127-.134q-.067-.065-.135-.128l-.128-.135-.134-.129q-.065-.066-.128-.134l-.135-.129c-.044-.044-.084-.09-.128-.134l-.134-.128-.128-.134-.135-.129-.128-.134-.134-.128-.128-.135-.135-.13-.128-.133-.134-.128-.128-.135-.135-.128-.128-.134-.134-.129-.128-.134-.135-.13c-.044-.043-.084-.09-.128-.133l-.134-.129c-.044-.044-.084-.09-.128-.134l-.135-.129-.128-.134q-.066-.064-.134-.128l-.128-.135-.135-.129q-.064-.067-.128-.133l-.134-.13-.128-.133-.135-.129-.128-.134q-.066-.065-.134-.128l-.128-.135-.135-.13c-.044-.043-.084-.09-.128-.133q-.066-.065-.134-.128c-.044-.044-.084-.09-.128-.135l-.135-.128-.127-.134-.135-.129-.128-.134-.135-.129-.127-.134-.136-.13-.127-.133-.135-.129-.127-.134-.135-.128-.128-.135-.134-.128-.128-.134c-.044-.045-.091-.085-.135-.13-.044-.043-.084-.09-.128-.133l-.135-.129-.127-.134-.135-.129-.128-.134q-.067-.064-.134-.128l-.128-.135-.135-.129-.128-.133-.134-.13-.128-.133-.135-.129-.128-.134q-.066-.065-.134-.128c-.044-.044-.084-.091-.128-.135l-.135-.13q-.064-.067-.128-.133l-.134-.128-.128-.135-.135-.128-.128-.134-.134-.129-.128-.134-.135-.13-.128-.133-.134-.129-.128-.134-.135-.129-.128-.134q-.066-.064-.134-.128l-.128-.135-.135-.129-.128-.133-.134-.13q-.064-.067-.128-.133l-.135-.129-.127-.134-.135-.128-.128-.135-.135-.129q-.064-.066-.127-.134l-.136-.129-.127-.134q-.068-.063-.135-.128l-.127-.134q-.067-.065-.135-.128-.063-.068-.128-.135-.068-.064-.134-.129l-.128-.134-.135-.13-.128-.133q-.067-.065-.135-.128l-.127-.135-.135-.128-.128-.134-.134-.129-.128-.134-.135-.13c-.044-.043-.084-.09-.128-.133l-.134-.129-.128-.134-.135-.129-.128-.134-.134-.128-.128-.135-.135-.129-.128-.133-.134-.13-.128-.133-.135-.129-.128-.134q-.066-.065-.134-.128l-.128-.135-.135-.13c-.044-.043-.084-.09-.128-.133l-.134-.128c-.044-.044-.084-.09-.128-.135l-.135-.128-.128-.134-.134-.129-.128-.134-.135-.13-.128-.133-.134-.129-.128-.134-.135-.129q-.064-.066-.127-.134l-.135-.128-.128-.135-.135-.128-.127-.134c-.045-.045-.091-.085-.136-.13l-.127-.133-.135-.129-.127-.134-.135-.128-.128-.135q-.067-.065-.135-.128l-.127-.135-.136-.129-.127-.133-.135-.13-.127-.133-.135-.129-.128-.134-.134-.128-.128-.135-.135-.13-.128-.133-.134-.128q-.065-.067-.128-.135l-.135-.128-.128-.134-.134-.129-.128-.134-.135-.13q-.064-.067-.128-.133l-.134-.129c-.044-.044-.084-.09-.128-.134l-.135-.129-.128-.134-.134-.128-.128-.135-.135-.129-.128-.133-.134-.13-.128-.133-.135-.129-.128-.134q-.066-.065-.134-.128l-.128-.135-.135-.129-.128-.134-.134-.128c-.044-.044-.084-.09-.128-.135q-.068-.063-.135-.128l-.128-.134q-.066-.065-.134-.128-.063-.068-.128-.135l-.135-.129-.127-.134-.136-.13q-.063-.067-.127-.133-.067-.065-.135-.128l-.127-.135-.135-.128-.128-.134-.135-.13-.127-.133-.136-.13-.127-.133-.135-.129-.127-.134-.135-.129c-.044-.043-.084-.09-.128-.134l-.134-.128c-.044-.044-.084-.09-.128-.135l-.135-.129c-.044-.043-.084-.09-.128-.133l-.135-.13-.127-.133-.135-.129-.128-.134q-.066-.065-.134-.128l-.128-.135-.135-.13q-.064-.067-.128-.133l-.134-.128q-.065-.067-.128-.135l-.135-.128-.128-.134-.134-.129c-.044-.044-.084-.09-.128-.134l-.135-.13q-.064-.067-.128-.133l-.134-.129-.128-.134-.135-.129-.128-.134-.134-.128-.128-.135-.135-.129-.128-.133-.134-.129-.128-.134-.135-.129-.128-.134-.134-.128-.128-.135q-.067-.065-.135-.128l-.127-.135-.136-.129-.127-.133-.135-.13c-.043-.043-.084-.09-.127-.133q-.067-.065-.135-.128-.063-.068-.128-.135l-.135-.129-.127-.134-.136-.13c-.043-.043-.083-.09-.127-.133q-.067-.065-.135-.128l-.127-.135-.135-.128-.128-.134-.134-.129-.128-.134-.136-.13c-.043-.043-.083-.09-.127-.133l-.134-.129-.128-.134-.135-.129-.128-.134-.134-.128-.128-.135-.135-.129c-.044-.043-.084-.09-.128-.133l-.134-.13c-.044-.043-.084-.09-.128-.133l-.135-.129-.128-.134q-.066-.065-.134-.128c-.044-.044-.084-.091-.128-.135l-.135-.129-.128-.134-.134-.128-.128-.135-.135-.128-.128-.134q-.066-.065-.134-.128-.063-.068-.128-.135l-.135-.13c-.044-.043-.084-.09-.128-.133l-.134-.129-.128-.134q-.067-.065-.135-.128l-.127-.135-.135-.128-.128-.134-.135-.13q-.064-.067-.127-.133l-.136-.13c-.043-.043-.083-.09-.127-.133l-.135-.129-.127-.134-.135-.128-.128-.135-.134-.128q-.065-.067-.128-.135-.067-.065-.136-.129l-.127-.133-.135-.13q-.064-.066-.127-.133l-.135-.129-.128-.134-.134-.128-.128-.135-.135-.13c-.044-.043-.084-.09-.128-.133l-.134-.128q-.065-.067-.128-.135l-.135-.128-.128-.134q-.066-.065-.134-.129c-.044-.044-.084-.09-.128-.134q-.068-.064-.135-.13l-.128-.133-.134-.129-.128-.134-.135-.129-.128-.134-.134-.128-.128-.135-.135-.129c-.044-.043-.084-.09-.128-.133l-.134-.129-.128-.134-.135-.129-.128-.134-.134-.128-.128-.135-.135-.129-.128-.134-.134-.128-.128-.134-.135-.13c-.043-.043-.084-.09-.128-.133q-.066-.065-.134-.128-.063-.068-.128-.135l-.135-.129-.127-.134-.136-.13-.127-.133q-.067-.065-.135-.128l-.127-.135q-.068-.063-.135-.128l-.128-.134-.135-.13c-.043-.043-.084-.09-.127-.133l-.136-.13c-.043-.043-.083-.09-.127-.133l-.135-.129-.127-.134-.135-.129-.128-.134-.134-.128-.128-.135-.135-.129-.128-.133-.135-.13q-.063-.067-.127-.133l-.135-.129-.128-.134-.134-.128-.128-.135-.135-.129c-.044-.044-.084-.09-.128-.134l-.134-.128q-.065-.067-.128-.135l-.135-.128-.128-.134q-.066-.065-.134-.128l-.128-.135-.135-.13c-.044-.043-.084-.09-.128-.133l-.134-.129-.128-.134q-.067-.065-.135-.128l-.128-.135-.134-.128-.128-.134q-.067-.066-.135-.13c-.044-.043-.084-.09-.128-.133l-.134-.129c-.044-.044-.084-.09-.128-.134l-.135-.129-.128-.134-.134-.128-.128-.135q-.067-.065-.135-.128l-.127-.135-.136-.129-.127-.133-.135-.13c-.043-.043-.084-.09-.127-.133q-.067-.065-.135-.128l-.128-.135-.135-.129-.127-.134-.136-.13-.127-.133q-.067-.065-.135-.128l-.127-.135-.135-.128c-.044-.044-.084-.09-.128-.134l-.134-.129-.128-.134-.136-.13-.127-.133-.135-.129-.127-.134q-.067-.065-.135-.128l-.128-.135-.134-.128-.128-.135-.135-.129c-.044-.043-.084-.09-.128-.133l-.134-.129-.128-.134c-4.263-4.274-9.299-7.688-14.971-10.149-5.65-2.464-11.808-3.713-18.303-3.713-6.414 0-12.554 1.25-18.25 3.715-5.706 2.46-10.761 5.873-15.025 10.148-4.268 4.269-7.678 9.312-10.135 14.989C314.247 61.454 313 67.621 313 74.124c0 6.423 1.247 12.57 3.709 18.274 2.457 5.713 5.866 10.774 10.135 15.044l.134.128.128.135.135.128.128.135q.066.064.134.127l.128.135q.068.064.134.129l.129.134q.066.065.134.128l.128.135.135.129.128.134c.043.044.09.084.133.128l.129.135.134.128.129.135.134.128.128.134.135.129.128.134q.066.065.134.128l.128.135.134.128.129.135.134.128q.063.068.128.135c.044.044.091.084.135.128q.063.068.128.134l.134.129.128.134.134.128c.044.044.084.091.129.135q.066.065.134.128l.128.135.134.128.129.135q.066.065.134.128l.128.135.134.127c.044.044.084.091.129.135l.134.129.128.134.134.128q.065.067.128.135l.135.129.128.134c.044.044.09.084.134.128l.128.135.135.128.128.135.134.128.128.134.135.129.128.134.134.128.128.135q.067.065.135.128l.128.135.134.128.128.135c.044.044.091.084.135.128q.063.068.128.134l.133.128.129.135.134.128.129.135.134.128.128.135.135.129.128.134.134.128.128.135.134.127.129.135.134.129.128.134.135.129.128.134q.066.065.134.128l.128.135c.044.044.09.084.134.128l.129.135.134.128.128.135.134.128q.064.068.129.134l.134.129.128.134.134.128.129.135q.066.065.134.128l.128.135.134.128.129.135c.043.044.09.084.134.128l.128.135.134.127.128.135.135.129.128.134.134.128q.065.067.128.135l.135.129.128.134.134.128.128.135.135.128q.063.068.128.135l.134.128.128.134.135.129.128.134.134.128.128.135c.044.044.091.084.134.128l.129.135.134.128.128.135.135.128.128.134.134.129.128.134.134.128.129.135q.066.065.134.128c.044.044.084.091.128.135l.135.129.128.134c.043.044.09.084.134.128l.128.135.134.127.129.135.134.129c.044.044.084.09.128.134l.134.128.129.135.134.129.128.134.134.128.129.135.134.128q.063.068.128.135l.134.128.129.134.134.129.128.134.134.128.129.135q.066.065.134.128l.128.135.134.128.129.135.134.128c.044.044.084.091.128.134l.134.128c.044.044.084.091.129.135q.066.065.134.128.063.068.128.135l.134.128.128.135.135.129c.044.043.084.09.128.134l.134.127c.044.045.084.092.129.136l.134.128q.063.068.128.134l.134.129.128.134.135.129.128.134.134.128.128.135c.044.044.09.084.134.128l.129.135.134.128.128.135c.044.044.091.084.135.128l.128.134.134.129.128.134.134.128.129.135q.066.065.134.128l.128.135.134.128.129.135c.044.044.09.084.134.128q.065.067.128.135l.134.127.129.135q.066.065.134.129l.128.134.134.128.129.135.134.129c.044.043.084.09.128.134l.134.128.129.135c.043.044.09.084.134.128l.128.135.134.128.129.134.134.129.128.134.134.128.129.135c.043.044.09.084.134.128l.128.135.134.128.129.135c.043.044.09.084.134.128l.128.134.134.128c.044.044.084.091.129.135q.066.065.134.128.063.068.128.135l.134.128.129.135q.066.065.134.128l.128.135c.044.044.09.084.134.128q.065.067.128.135l.134.127.129.135.134.129.128.134.135.129.128.134.134.128q.065.067.128.135l.134.128.129.135c.044.044.09.084.134.128q.065.067.128.135l.135.128.128.134.134.129.128.134.134.128.129.135.134.128c.044.044.084.091.128.135l.134.128.129.135c.044.044.09.084.134.128l.128.134.134.128.129.135q.066.065.134.128l.128.135.134.128.129.135.134.129c.044.043.084.09.128.134l.134.127q.064.069.129.136l.134.128.128.134.134.129.129.134.134.129.128.134c.044.044.09.084.134.128l.129.135.134.128q.063.068.128.135c.044.044.09.084.134.128l.129.135.134.128.128.134.134.129.129.134.133.128.129.135.134.128.129.135q.066.065.134.128l.128.135c.044.044.09.084.134.128q.065.067.128.135l.134.127.129.135.134.129.128.134q.067.065.135.128.063.068.128.135l.135.129.127.134.134.128.129.135.134.128c.044.044.084.091.128.135q.068.063.135.128l.128.134.134.129.128.134c.044.044.09.084.134.128l.129.135.134.128c.044.044.084.091.128.135s.091.084.134.128l.129.135.134.128.128.134.134.128.129.135q.066.065.134.128l.128.135.134.128.129.135.134.128.128.135.134.127q.064.069.129.136l.134.128.128.134.134.129.129.134q.066.065.134.129c.044.044.084.09.128.134l.134.128.129.135.133.128.129.135c.044.044.09.084.134.128l.129.135.134.128.128.134.134.128.129.135c.043.044.09.084.133.128l.129.135.134.128.128.135c.044.044.091.084.135.128l.128.135.135.128q.063.068.128.134.066.065.133.128l.129.135.134.128.128.135q.067.065.135.128l.128.135.134.129q.065.066.128.134l.134.127q.064.069.129.136l.134.128.128.134.134.129.129.134.134.129.128.134c.044.044.09.084.134.128l.129.135.134.128.128.135c.044.044.091.084.134.128l.129.135.134.128.128.134.134.128.129.135q.066.065.134.128l.128.135.134.128.129.135.134.128q.065.067.128.135l.134.128.129.135c.043.043.09.084.133.127l.129.135.134.128.129.135.134.129.128.134.134.128.129.135c.043.044.09.084.133.128l.129.135.134.128.129.135.134.128.128.134.135.129.128.134c.043.044.09.084.133.128l.129.135.134.128.129.135c.043.044.09.084.134.128l.128.135.135.128q.063.068.128.134.066.065.133.128l.129.135.134.128.129.135q.066.065.134.128.063.068.128.135.067.065.135.128l.127.135.134.127q.064.069.129.136l.134.128.128.134.135.129.128.134.135.129.127.134.134.128.129.135c.044.044.09.084.134.128s.084.091.128.135l.135.128q.063.068.128.135c.044.044.09.084.134.128l.128.134.134.128.129.135c.043.044.09.084.133.128l.129.135.134.128.129.135.134.128.128.135q.068.063.134.128.064.068.129.134.066.065.133.128l.129.135.134.128.129.135q.066.065.134.128.063.068.128.135l.135.129.128.134c.043.043.09.084.133.127l.129.136.134.128q.064.068.129.134.066.065.134.129l.128.134.135.129.128.134c.043.044.09.084.133.128l.129.135c.044.044.09.084.134.128l.129.135.134.128q.063.068.128.135c.044.044.091.084.135.128q.063.068.128.134l.133.128.129.135.134.128q.065.067.128.135.067.065.135.128.063.068.128.135.067.065.135.128l.127.135.134.127q.064.069.129.136l.134.128.128.134.135.129.128.134.135.129.127.134.135.128q.063.068.128.135.066.064.134.127.063.069.128.136.068.063.134.128l.129.135.134.128.128.134.134.128.129.135c.043.044.09.084.133.128l.129.135.134.128.129.135.134.128.128.135.135.128q.063.068.128.134.066.065.133.128l.129.135.134.128.129.135q.066.065.134.128l.128.135q.067.065.135.128l.128.135c.043.043.09.084.133.127l.129.136.134.128q.064.068.129.134.066.065.134.129l.128.134.135.129.128.134c.043.044.09.084.133.128l.129.135c.044.044.09.084.134.128l.129.135.134.128q.063.068.128.135c.044.044.091.084.135.128q.063.068.128.134l.133.128.129.135.134.128q.065.067.128.135.067.065.135.128.063.068.128.135.067.065.135.128l.127.135.135.128q.063.068.128.134l.134.128c.044.044.084.091.128.135l.135.128q.063.068.128.135l.134.129.128.134c.044.044.091.084.134.128l.129.135q.066.064.134.127.063.069.128.136.068.063.134.128.064.068.129.134l.134.129.128.134.135.129c.044.044.084.09.128.134l.134.128q.063.068.128.135c.044.044.091.084.134.128l.129.135.134.128.128.135c.044.044.091.084.135.128q.063.068.128.134l.133.128.129.135.134.128.129.135q.066.065.134.128l.128.135q.067.065.135.128.063.068.128.135l.133.127q.064.069.129.136l.134.128q.064.068.129.134.066.065.134.128.063.068.128.135l.135.129.128.134.133.128.129.135c.044.044.09.084.134.128l.129.135.134.128q.063.068.128.135.068.063.135.128.063.068.128.134.066.065.134.128.063.068.128.135l.134.128c.044.044.084.091.129.135.043.044.09.084.134.128l.128.135q.067.065.135.128.063.068.128.135l.134.128q.063.068.128.134l.134.128c.044.044.084.091.128.135l.135.128.128.135.134.128.128.135q.067.065.135.128l.128.135q.066.064.134.127.063.069.128.136.068.063.134.128.064.068.129.134l.134.129.128.134.135.129.128.134.134.128q.063.068.128.135c.044.044.09.084.134.128l.129.135.134.128c.044.044.084.091.128.135l.135.128q.063.068.128.134.066.065.133.128l.129.135.134.128.129.135q.066.065.134.128c.044.044.084.091.128.135q.067.065.135.128.063.068.128.135l.133.127.129.136.134.128.129.134q.066.065.134.128.063.068.128.135l.135.129.128.134c.043.044.09.084.134.128l.128.135.134.127q.064.069.129.136l.134.128q.063.068.128.134l.135.129q.063.068.128.134.066.065.134.128l.128.135.134.128c.044.044.084.091.129.135.043.044.09.084.134.128l.128.135.134.128.129.135c.043.044.09.084.134.128l.128.134.134.128c.044.044.084.091.128.135l.135.128.128.135.134.128.128.135q.067.065.135.128l.128.135q.066.064.134.127l.128.136.135.128.128.134.134.128.128.135.135.129.128.134.134.128q.063.068.128.135c.044.044.091.084.134.128l.129.135.134.128.128.135.135.128q.063.068.128.134c.043.044.09.084.133.128l.129.135.134.128.129.135c.043.044.09.084.134.128l.128.135q.067.065.135.128.063.068.128.135l.134.128.128.134.134.128.129.135q.066.065.134.128l.128.135.135.129.128.134.134.128.128.135.134.127c.044.045.084.092.129.136l.134.128q.063.068.128.134l.134.129.129.134q.066.065.134.129c.044.044.084.09.128.134l.134.128c.044.044.084.091.129.135.043.044.09.084.134.128l.128.135.134.128.128.135.135.128.128.134.134.128.128.135q.067.065.135.128.063.068.128.135l.134.128q.065.067.128.135.067.065.135.128l.128.135.134.127.128.136.135.128.128.134.134.128.128.135.135.129.128.134c.043.044.09.084.134.128l.128.135.134.128.129.135.134.128.128.134.135.129.128.134.134.128.128.135.134.128.129.135c.043.044.09.084.134.128l.128.135q.067.065.135.128.063.068.128.135l.134.128.128.134.134.128.129.135q.066.065.134.128c.044.044.084.091.128.135l.134.128.129.135q.066.065.134.128l.128.135.134.127.129.136.134.128.128.134.134.128.129.135q.066.065.134.129c.044.044.084.09.128.134s.09.084.134.128l.129.135.134.128q.063.068.128.135l.134.128.128.134.135.129.128.134.134.128.128.135q.067.065.135.128.063.068.128.135c.044.044.09.084.134.128q.065.067.128.135.067.065.135.128l.128.135q.066.064.134.127l.128.135.134.129.129.134.134.128.128.135.135.129.128.134.134.128c.044.044.084.091.128.135l.134.127q.064.069.129.136l.134.128.128.134.135.129.128.134q.066.065.134.128c.044.044.084.091.128.135l.134.128.129.135c.043.044.09.084.134.128l.128.135.134.128.129.135.134.128.128.134.134.128.129.135q.066.065.134.128l.128.135c.044.044.09.084.134.128l.129.135.134.128.128.135.134.127.129.136.134.128.128.134c4.264 4.273 9.318 7.687 15.025 10.148 5.706 2.464 11.846 3.714 18.249 3.714 6.484 0 12.642-1.249 18.306-3.713 5.669-2.461 10.705-5.876 14.969-10.149 4.268-4.269 7.677-9.33 10.134-15.044 2.461-5.714 3.71-11.862 3.71-18.274 0-6.492-1.248-12.659-3.709-18.329z" opacity=".58"/></g></g><path fill="#7aa5e7" d="M360.309 121.305c-6.403 0-12.544-1.25-18.25-3.714-5.706-2.461-10.761-5.875-15.024-10.148-4.269-4.269-7.678-9.33-10.135-15.044-2.462-5.703-3.709-11.851-3.709-18.274 0-6.503 1.247-12.67 3.707-18.328 2.458-5.677 5.868-10.72 10.136-14.99 4.264-4.273 9.319-7.687 15.025-10.147 5.696-2.465 11.836-3.715 18.25-3.715 6.494 0 12.653 1.25 18.303 3.714 5.672 2.46 10.708 5.875 14.971 10.148 4.268 4.27 7.679 9.313 10.135 14.989 2.462 5.67 3.709 11.837 3.709 18.33 0 6.411-1.248 12.559-3.709 18.272-2.458 5.714-5.867 10.776-10.135 15.044-4.263 4.274-9.299 7.689-14.968 10.149-5.664 2.465-11.822 3.714-18.306 3.714m-10.165-27.61c.979 3.59 2.257 7.019 3.802 10.191a63 63 0 0 0 5.512 9.198l.851 1.181.852-1.181a62.7 62.7 0 0 0 5.51-9.198c1.544-3.168 2.823-6.598 3.803-10.192l.362-1.328h-21.054zm-23.98.25a41.4 41.4 0 0 0 8.955 10.763c3.578 3.049 7.731 5.347 12.345 6.833l2.502.805-1.259-2.309a66 66 0 0 1-3.731-8.128 70 70 0 0 1-2.672-8.734l-.191-.809H325.25zm52.149-.77a69 69 0 0 1-2.67 8.732 66 66 0 0 1-3.732 8.13l-1.258 2.309 2.501-.805c4.613-1.486 8.766-3.784 12.344-6.832a41.3 41.3 0 0 0 8.956-10.764l.913-1.579h-16.862zm1.911-28.54c.238 1.59.419 3.168.536 4.69.116 1.507.174 3.122.174 4.8s-.058 3.293-.174 4.8a66 66 0 0 1-.536 4.69l-.182 1.208h18.417l.199-.797a43 43 0 0 0 .928-4.885c.204-1.613.308-3.3.308-5.016s-.104-3.403-.307-5.013a43 43 0 0 0-.929-4.888l-.199-.796h-18.417zm-32.273-.312a69 69 0 0 0-.553 4.84c-.12 1.561-.182 3.23-.182 4.962s.062 3.401.182 4.962c.121 1.573.308 3.201.553 4.84l.134.896h24.447l.134-.895c.247-1.64.433-3.268.554-4.841.12-1.56.181-3.23.181-4.962s-.061-3.401-.181-4.962a67 67 0 0 0-.554-4.84l-.134-.895h-24.447zm-25.992-.099a43 43 0 0 0-.927 4.885 40 40 0 0 0-.308 5.016c0 1.714.103 3.4.307 5.013.206 1.598.518 3.242.928 4.888l.199.797h18.417l-.181-1.208a66 66 0 0 1-.536-4.69 63 63 0 0 1-.175-4.8c0-1.678.059-3.293.175-4.8.117-1.522.298-3.1.536-4.69l.181-1.207h-18.417zm49.952-26.01a66 66 0 0 1 3.732 8.128 70 70 0 0 1 2.67 8.733l.192.809h16.862l-.913-1.579a41.3 41.3 0 0 0-8.956-10.763c-3.578-3.048-7.73-5.346-12.344-6.832l-2.501-.806zm-12.453-3.048a63 63 0 0 0-5.512 9.198c-1.544 3.172-2.823 6.6-3.802 10.192l-.362 1.328h21.054l-.362-1.328c-.98-3.595-2.259-7.024-3.803-10.192a63 63 0 0 0-5.51-9.198l-.852-1.18zm-11.994 1.544c-4.614 1.485-8.767 3.784-12.344 6.832a41.4 41.4 0 0 0-8.956 10.763l-.914 1.579h16.863l.191-.809a70 70 0 0 1 2.672-8.734 66 66 0 0 1 3.731-8.127l1.259-2.31z"/><defs><linearGradient id="a" x1="145" x2="306" y1="0" y2="171" gradientUnits="userSpaceOnUse"><stop stop-color="#7aa5e7"/><stop offset=".997" stop-color="#003ba1"/></linearGradient></defs></svg>