<svg width="579" height="146" viewBox="0 0 579 146" fill="none" xmlns="http://www.w3.org/2000/svg">
<g id="components-header-group">
<path id="Vector" d="M579 145H434V0L579 145Z" fill="#245FC2"/>
<g id="Group 129">
<path id="Vector_2" d="M105.125 145H0C0 64.9187 64.9186 0 145 0V105.125C145 127.147 127.147 145 105.125 145Z" fill="#245FC2"/>
</g>
<path id="Vector_3" d="M289.427 1V145.427H217.377C177.404 145.427 145 113.096 145 73.2134C145 33.331 177.404 1.00002 217.377 1.00002L289.427 1Z" fill="#245FC2"/>
<path id="Vector_4" d="M361.5 145C401.541 145 434 112.541 434 72.5C434 32.4594 401.541 0 361.5 0C321.459 0 289 32.4594 289 72.5C289 112.541 321.459 145 361.5 145Z" fill="#245FC2"/>
<path id="Vector_5" style="mix-blend-mode:multiply" opacity="0.4" d="M433.517 80.8632L405.227 52.573C405.141 52.4841 405.051 52.3978 404.964 52.3093C404.877 52.2211 404.789 52.1355 404.702 52.0477C404.615 51.9585 404.526 51.8721 404.438 51.7836C404.351 51.6951 404.262 51.6088 404.175 51.5206C404.088 51.4318 403.999 51.3454 403.911 51.2569C400.537 47.8029 396.78 44.7268 392.641 42.0293C383.218 35.8892 372.792 32.8192 361.364 32.8192C349.936 32.8192 339.511 35.8892 330.088 42.0293C320.664 48.1697 313.224 56.2693 307.766 66.3345C307.339 67.1017 307.019 67.89 306.806 68.7033C306.593 69.5119 306.486 70.3409 306.486 71.1952C306.486 72.0499 306.593 72.8789 306.806 73.6925C307.019 74.5008 307.339 75.2887 307.766 76.0563C310.887 81.8132 314.661 86.9244 319.081 91.3969C319.167 91.4851 319.256 91.5711 319.342 91.6588L370.244 143.07L370.911 143.227C370.998 143.316 371.087 143.402 371.174 143.491C371.261 143.579 371.35 143.665 371.438 143.754C371.603 143.923 371.781 144.08 371.948 144.248C404.317 139.575 429.766 113.521 433.517 80.8632Z" fill="#002971"/>
<path id="Vector_6" d="M345.054 87.5077C340.576 83.0253 338.338 77.5913 338.338 71.1953C338.338 64.7992 340.577 59.3652 345.054 54.8828C349.531 50.4107 354.967 48.1696 361.363 48.1696C367.76 48.1696 373.196 50.4107 377.673 54.8828C382.151 59.3652 384.389 64.7992 384.389 71.1953C384.389 77.5913 382.151 83.0253 377.673 87.5077C373.196 91.9798 367.76 94.2209 361.363 94.2209C354.967 94.2209 349.531 91.9798 345.054 87.5077ZM371.149 80.9837C373.836 78.2974 375.179 75.0329 375.179 71.1953C375.179 67.3576 373.836 64.0983 371.149 61.4119C368.463 58.7204 365.201 57.3799 361.363 57.3799C357.526 57.3799 354.264 58.7204 351.578 61.4119C348.891 64.0983 347.548 67.3576 347.548 71.1953C347.548 75.0329 348.891 78.2974 351.578 80.9837C354.264 83.6701 357.526 85.0107 361.363 85.0107C365.201 85.0107 368.463 83.6701 371.149 80.9837Z" fill="#5187DF"/>
<g id="Group">
<path id="Vector_7" d="M360.878 109.752C349.45 109.752 339.025 106.682 329.601 100.542C320.178 94.4019 312.737 86.302 307.279 76.2371C306.853 75.4696 306.533 74.6816 306.32 73.8732C306.107 73.0596 306 72.2307 306 71.3762C306 70.5216 306.107 69.6927 306.32 68.8843C306.533 68.0707 306.853 67.2827 307.279 66.5152C312.737 56.4503 320.178 48.3505 329.601 42.2103C339.025 36.0701 349.45 33 360.878 33C372.305 33 382.731 36.0701 392.154 42.2103C401.578 48.3505 409.019 56.4503 414.477 66.5152C414.903 67.2827 415.223 68.0707 415.436 68.8843C415.649 69.6927 415.756 70.5216 415.756 71.3762C415.756 72.2307 415.649 73.0596 415.436 73.8732C415.223 74.6816 414.903 75.4696 414.477 76.2371C409.019 86.302 401.578 94.4019 392.154 100.542C382.731 106.682 372.306 109.752 360.878 109.752ZM360.878 99.5187C370.515 99.5187 379.362 96.9807 387.421 91.9048C395.48 86.8341 401.642 79.9878 405.906 71.3762C401.642 62.7646 395.48 55.9183 387.421 50.8424C379.362 45.7716 370.515 43.2337 360.878 43.2337C351.241 43.2337 342.393 45.7716 334.334 50.8424C326.275 55.9183 320.114 62.7646 315.85 71.3762C320.114 79.9878 326.275 86.8341 334.334 91.9048C342.393 96.9807 351.241 99.5187 360.878 99.5187Z" fill="#5187DF"/>
</g>
<path id="Vector_8" d="M533.344 74.2496C551.362 74.2496 565.969 59.6429 565.969 41.6247C565.969 23.6064 551.362 8.99969 533.344 8.99969C515.325 8.99969 500.719 23.6064 500.719 41.6247C500.719 59.6429 515.325 74.2496 533.344 74.2496Z" fill="#245FC2"/>
<g id="Group_2">
<path id="Vector_9" d="M361.364 109.571C349.937 109.571 339.511 106.501 330.088 100.361C320.664 94.2209 313.223 86.1211 307.766 76.0562C307.339 75.2887 307.019 74.5007 306.806 73.6923C306.593 72.8787 306.486 72.0498 306.486 71.1952C306.486 70.3407 306.593 69.5118 306.806 68.7034C307.019 67.8898 307.339 67.1018 307.766 66.3343C313.223 56.2694 320.664 48.1696 330.088 42.0294C339.511 35.8892 349.937 32.8191 361.364 32.8191C372.792 32.8191 383.218 35.8892 392.641 42.0294C402.064 48.1696 409.505 56.2694 414.963 66.3343C415.39 67.1018 415.709 67.8898 415.922 68.7034C416.136 69.5118 416.242 70.3407 416.242 71.1952C416.242 72.0498 416.136 72.8787 415.922 73.6923C415.709 74.5007 415.39 75.2887 414.963 76.0562C409.505 86.1211 402.064 94.2209 392.641 100.361C383.218 106.501 372.792 109.571 361.364 109.571ZM361.364 99.3378C371.001 99.3378 379.849 96.7998 387.908 91.7239C395.967 86.6532 402.128 79.8069 406.392 71.1953C402.128 62.5837 395.967 55.7374 387.908 50.6615C379.849 45.5907 371.001 43.0527 361.364 43.0527C351.728 43.0527 342.88 45.5907 334.821 50.6615C326.762 55.7374 320.6 62.5837 316.336 71.1953C320.6 79.8069 326.762 86.6532 334.821 91.7239C342.88 96.7998 351.728 99.3378 361.364 99.3378Z" fill="#5187DF"/>
</g>
</g>
</svg>
