<svg xmlns="http://www.w3.org/2000/svg" width="578" height="145" fill="none" viewBox="0 0 578 145"><path fill="#286ad8" d="M288 145V0h71.84C400.245 0 433 32.46 433 72.5S400.245 145 359.84 145zM105.125 145H0C0 64.919 64.919 0 145 0v105.125C145 127.147 127.147 145 105.125 145"/><path fill="#286ad8" d="M216.5 144.188c40.04 0 72.5-32.277 72.5-72.094S256.54 0 216.5 0 144 32.278 144 72.094c0 39.817 32.459 72.094 72.5 72.094M432.189 105.125V0c80.082 0 145 64.919 145 145H472.064c-22.022 0-39.875-17.853-39.875-39.875"/><path fill="#5287df" fill-rule="evenodd" d="M216.5 32 250 52.252V92.74L216.5 113 183 92.739V52.252zm-25.049 25.357v30.286L216.5 102.78l25.049-15.138V57.348L216.5 42.22z" clip-rule="evenodd"/><path fill="#5287df" d="M224.951 72.496c0 4.892-3.786 8.847-8.451 8.847s-8.451-3.955-8.451-8.847c0-4.884 3.786-8.848 8.451-8.848s8.451 3.964 8.451 8.848"/></svg>