<svg width="547" height="138" viewBox="0 0 547 138" fill="none" xmlns="http://www.w3.org/2000/svg">
<path d="M374.152 0C394.544 0 411.075 16.929 411.075 37.8124V137.499H273.575V0H374.152Z" fill="#7AA5E7"/>
<path d="M374.152 0C394.544 0 411.075 16.929 411.075 37.8124V137.499H273.575V0H374.152Z" fill="#7AA5E7"/>
<path d="M509.083 137.5H409.396C409.396 61.5606 470.957 0 546.896 0V99.6871C546.896 120.57 529.967 137.5 509.083 137.5Z" fill="#7AA5E7"/>
<path d="M205.301 137.499C167.331 137.499 136.551 106.719 136.551 68.7496C136.551 30.7803 167.331 0 205.301 0C243.27 0 274.05 30.7803 274.05 68.7496C274.05 106.719 243.27 137.499 205.301 137.499Z" fill="#7AA5E7"/>
<path d="M37.5748 74.2314C54.661 74.2314 68.5121 60.3802 68.5121 43.294C68.5121 26.2078 54.661 12.3567 37.5748 12.3567C20.4886 12.3567 6.63745 26.2078 6.63745 43.294C6.63745 60.3802 20.4886 74.2314 37.5748 74.2314Z" fill="#7AA5E7"/>
<path d="M137.499 0.000732422V137.5H0L137.499 0.000732422Z" fill="#7AA5E7"/>
<path d="M198.068 84.3996C192.323 84.3996 187.462 82.4102 183.483 78.4314C179.504 74.4526 177.515 69.591 177.515 63.8468C177.515 58.1026 179.504 53.2411 183.483 49.2623C187.462 45.2835 192.323 43.2941 198.068 43.2941C203.812 43.2941 208.673 45.2835 212.652 49.2623C216.631 53.2411 218.62 58.1026 218.62 63.8468C218.62 66.1656 218.251 68.3526 217.514 70.4079C216.776 72.4632 215.775 74.2813 214.51 75.8623L232.217 93.5693C232.797 94.1489 233.086 94.8867 233.086 95.7826C233.086 96.6785 232.797 97.4163 232.217 97.996C231.637 98.5757 230.899 98.8655 230.003 98.8655C229.108 98.8655 228.37 98.5757 227.79 97.996L210.083 80.289C208.502 81.5538 206.684 82.5551 204.629 83.2929C202.573 84.0307 200.386 84.3996 198.068 84.3996ZM198.068 78.0756C202.02 78.0756 205.38 76.6923 208.146 73.9256C210.913 71.1589 212.296 67.7993 212.296 63.8468C212.296 59.8944 210.913 56.5348 208.146 53.7681C205.38 51.0013 202.02 49.618 198.068 49.618C194.115 49.618 190.756 51.0013 187.989 53.7681C185.222 56.5348 183.839 59.8944 183.839 63.8468C183.839 67.7993 185.222 71.1589 187.989 73.9256C190.756 76.6923 194.115 78.0756 198.068 78.0756Z" fill="#E5EFFA" stroke="#E5EFFA" stroke-width="1.5"/>
</svg>
