<svg width="579" height="145" viewBox="0 0 579 145" fill="none" xmlns="http://www.w3.org/2000/svg">
<g id="Foundations-header-group">
<g id="Group 152">
<path id="Vector" d="M539.025 145H433.9C433.9 64.9187 498.819 0 578.9 0V105.125C578.9 127.147 561.047 145 539.025 145Z" fill="#5187DF"/>
<path id="Vector_2" d="M144.739 145V0.154907H216.903C256.939 0.154907 289.395 32.5796 289.395 72.5774C289.395 112.575 256.939 145 216.903 145L144.739 145Z" fill="url(#paint0_linear_22_844)"/>
<path id="Vector_3" d="M72.3282 145C112.274 145 144.656 112.575 144.656 72.5774C144.656 32.5795 112.274 0.154846 72.3282 0.154846C32.3824 0.154846 0 32.5795 0 72.5774C0 112.575 32.3824 145 72.3282 145Z" fill="#154973"/>
<g id="Mask group">
<g id="Group">
<path id="Vector_4" d="M60.4034 93.5842L108.365 45.56C109.497 44.4266 110.815 43.86 112.327 43.86C113.838 43.86 115.156 44.4266 116.288 45.56C117.42 46.6933 117.986 48.0391 117.986 49.5974C117.986 51.1557 117.42 52.5015 116.288 53.6348L64.3648 105.767C63.233 106.901 61.9144 107.467 60.4034 107.467C58.8924 107.467 57.5738 106.901 56.442 105.767L32.1075 81.401C30.9756 80.2677 30.4323 78.9219 30.4833 77.3636C30.5285 75.8053 31.1171 74.4595 32.2489 73.3262C33.3808 72.1929 34.7276 71.6262 36.2839 71.6262C37.8402 71.6262 39.1814 72.1929 40.3133 73.3262L60.4034 93.5842Z" fill="#7AA5E7"/>
</g>
</g>
<g id="Group_2">
<path id="Vector_5" d="M433.956 0.154755H289.3V145H433.956V0.154755Z" fill="#004DD1"/>
<g id="Clip path group" style="mix-blend-mode:multiply">
<mask id="mask0_22_844" style="mask-type:luminance" maskUnits="userSpaceOnUse" x="289" y="0" width="145" height="145">
<g id="clippath-2">
<path id="Vector_6" d="M433.956 0H289.3V144.845H433.956V0Z" fill="white"/>
</g>
</mask>
<g mask="url(#mask0_22_844)">
<g id="Group_3">
<path id="Vector_7" opacity="0.58" d="M508.52 160.925C506.063 155.249 502.652 150.206 498.384 145.936C498.34 145.892 498.293 145.851 498.249 145.808C498.206 145.764 498.165 145.717 498.121 145.673C498.078 145.63 498.031 145.589 497.987 145.545C497.943 145.501 497.903 145.454 497.859 145.411C497.815 145.366 497.768 145.325 497.724 145.281C497.68 145.238 497.64 145.191 497.596 145.148C497.552 145.104 497.506 145.063 497.462 145.019C497.418 144.975 497.378 144.929 497.334 144.885C497.29 144.841 497.243 144.8 497.199 144.756C497.156 144.712 497.115 144.666 497.071 144.622C497.028 144.578 496.981 144.538 496.937 144.494C496.894 144.45 496.853 144.403 496.809 144.359C496.765 144.315 496.718 144.274 496.674 144.23C496.631 144.186 496.59 144.14 496.546 144.096C496.503 144.052 496.456 144.012 496.412 143.968C496.368 143.924 496.328 143.877 496.284 143.834C496.24 143.79 496.193 143.749 496.149 143.705C496.106 143.661 496.065 143.615 496.022 143.571C495.978 143.527 495.931 143.486 495.887 143.443C495.844 143.399 495.803 143.352 495.759 143.308C495.715 143.264 495.668 143.223 495.624 143.179C495.581 143.135 495.54 143.089 495.497 143.045C495.453 143.001 495.406 142.96 495.362 142.916C495.318 142.872 495.278 142.826 495.234 142.782C495.19 142.738 495.143 142.697 495.1 142.654C495.056 142.61 495.015 142.563 494.972 142.519C494.928 142.476 494.881 142.435 494.838 142.391C494.794 142.347 494.753 142.301 494.709 142.257C494.665 142.213 494.619 142.172 494.575 142.128C494.531 142.084 494.49 142.038 494.447 141.994C494.403 141.95 494.356 141.909 494.312 141.865C494.268 141.821 494.228 141.775 494.184 141.731C494.14 141.687 494.094 141.646 494.05 141.602C494.006 141.558 493.965 141.512 493.922 141.468C493.878 141.424 493.831 141.383 493.787 141.34C493.743 141.296 493.703 141.249 493.659 141.205C493.615 141.162 493.569 141.121 493.525 141.077C493.481 141.033 493.441 140.986 493.397 140.942C493.353 140.898 493.306 140.857 493.262 140.813C493.218 140.77 493.178 140.723 493.134 140.68C493.09 140.636 493.044 140.595 493 140.551C492.956 140.507 492.916 140.461 492.872 140.417C492.828 140.373 492.781 140.332 492.737 140.288C492.694 140.244 492.653 140.198 492.609 140.154C492.566 140.11 492.519 140.07 492.475 140.026C492.431 139.982 492.391 139.935 492.347 139.891C492.303 139.847 492.256 139.806 492.212 139.762C492.168 139.718 492.128 139.672 492.084 139.628C492.04 139.584 491.994 139.544 491.95 139.5C491.906 139.456 491.866 139.409 491.822 139.366C491.778 139.322 491.731 139.281 491.687 139.237C491.644 139.193 491.603 139.147 491.559 139.103C491.516 139.059 491.469 139.018 491.425 138.975C491.382 138.931 491.341 138.884 491.297 138.84C491.253 138.796 491.206 138.755 491.162 138.711C491.118 138.667 491.078 138.621 491.034 138.577C490.991 138.533 490.944 138.492 490.9 138.448C490.856 138.405 490.816 138.358 490.772 138.314C490.728 138.27 490.681 138.229 490.637 138.186C490.594 138.142 490.553 138.095 490.509 138.051C490.466 138.008 490.419 137.967 490.375 137.923C490.332 137.879 490.291 137.832 490.247 137.789C490.203 137.744 490.156 137.703 490.112 137.66C490.069 137.616 490.028 137.569 489.985 137.526C489.941 137.482 489.894 137.441 489.85 137.397C489.806 137.353 489.766 137.307 489.722 137.263C489.678 137.219 489.631 137.178 489.587 137.134C489.544 137.09 489.503 137.044 489.46 137C489.416 136.956 489.369 136.916 489.325 136.872C489.282 136.828 489.241 136.781 489.197 136.737C489.153 136.693 489.107 136.652 489.062 136.609C489.019 136.565 488.978 136.518 488.935 136.474C488.891 136.43 488.844 136.389 488.8 136.345C488.756 136.302 488.716 136.255 488.672 136.212C488.628 136.168 488.581 136.127 488.538 136.083C488.494 136.039 488.453 135.993 488.41 135.949C488.366 135.905 488.319 135.864 488.275 135.821C488.232 135.777 488.191 135.73 488.147 135.686C488.103 135.642 488.057 135.601 488.013 135.557C487.969 135.513 487.928 135.467 487.885 135.423C487.841 135.379 487.794 135.338 487.75 135.294C487.706 135.25 487.666 135.204 487.622 135.16C487.578 135.116 487.532 135.076 487.488 135.032C487.444 134.988 487.403 134.941 487.36 134.898C487.316 134.854 487.269 134.813 487.225 134.769C487.181 134.725 487.141 134.678 487.097 134.635C487.053 134.591 487.007 134.55 486.963 134.507C486.919 134.462 486.879 134.416 486.835 134.372C486.791 134.328 486.744 134.287 486.7 134.243C486.656 134.199 486.616 134.153 486.572 134.109C486.528 134.065 486.482 134.024 486.438 133.98C486.394 133.937 486.354 133.89 486.31 133.846C486.266 133.802 486.219 133.761 486.175 133.718C486.132 133.674 486.091 133.627 486.047 133.583C486.004 133.54 485.957 133.499 485.913 133.455C485.869 133.411 485.829 133.364 485.785 133.321C485.741 133.276 485.694 133.235 485.65 133.191C485.606 133.148 485.566 133.101 485.522 133.058C485.478 133.014 485.432 132.973 485.388 132.929C485.344 132.885 485.304 132.839 485.26 132.795C485.216 132.751 485.169 132.71 485.125 132.666C485.082 132.622 485.041 132.576 484.997 132.532C484.954 132.488 484.907 132.448 484.863 132.404C484.82 132.36 484.779 132.313 484.735 132.269C484.691 132.225 484.644 132.184 484.6 132.14C484.556 132.096 484.516 132.05 484.472 132.006C484.429 131.962 484.382 131.922 484.338 131.878C484.294 131.834 484.254 131.787 484.21 131.744C484.166 131.7 484.119 131.659 484.075 131.615C484.032 131.571 483.991 131.525 483.947 131.481C483.904 131.437 483.857 131.396 483.813 131.353C483.77 131.309 483.729 131.262 483.685 131.218C483.641 131.174 483.594 131.133 483.55 131.089C483.507 131.045 483.466 130.999 483.423 130.955C483.379 130.911 483.332 130.87 483.288 130.826C483.244 130.783 483.204 130.736 483.16 130.692C483.116 130.648 483.069 130.607 483.025 130.564C482.982 130.52 482.941 130.473 482.898 130.429C482.854 130.386 482.807 130.345 482.763 130.301C482.72 130.257 482.679 130.211 482.635 130.167C482.591 130.123 482.544 130.082 482.5 130.038C482.457 129.994 482.416 129.948 482.373 129.904C482.328 129.86 482.282 129.819 482.238 129.775C482.194 129.731 482.154 129.685 482.11 129.641C482.066 129.597 482.019 129.556 481.975 129.512C481.932 129.468 481.891 129.422 481.848 129.378C481.804 129.334 481.757 129.294 481.713 129.25C481.67 129.206 481.629 129.159 481.585 129.115C481.541 129.071 481.495 129.03 481.451 128.987C481.407 128.943 481.366 128.896 481.323 128.853C481.279 128.808 481.232 128.767 481.188 128.723C481.144 128.68 481.104 128.633 481.06 128.59C481.016 128.546 480.97 128.505 480.926 128.461C480.882 128.417 480.841 128.371 480.798 128.327C480.754 128.283 480.707 128.242 480.663 128.198C480.619 128.154 480.579 128.108 480.535 128.064C480.491 128.02 480.445 127.98 480.401 127.936C480.357 127.892 480.317 127.845 480.273 127.801C480.229 127.757 480.182 127.716 480.138 127.672C480.094 127.628 480.054 127.582 480.01 127.538C479.966 127.494 479.92 127.454 479.876 127.41C479.832 127.366 479.792 127.319 479.748 127.276C479.704 127.232 479.657 127.191 479.613 127.147C479.57 127.103 479.529 127.057 479.485 127.013C479.442 126.969 479.395 126.928 479.351 126.885C479.307 126.841 479.267 126.794 479.223 126.75C479.179 126.706 479.132 126.665 479.088 126.621C479.044 126.577 479.004 126.531 478.96 126.487C478.916 126.443 478.87 126.402 478.826 126.358C478.782 126.315 478.742 126.268 478.698 126.224C478.654 126.18 478.607 126.139 478.563 126.096C478.52 126.052 478.479 126.005 478.435 125.961C478.392 125.918 478.345 125.877 478.301 125.833C478.257 125.789 478.217 125.742 478.173 125.699C478.129 125.654 478.082 125.613 478.038 125.57C477.994 125.526 477.954 125.479 477.91 125.436C477.867 125.392 477.82 125.351 477.776 125.307C477.732 125.263 477.692 125.217 477.648 125.173C477.604 125.129 477.557 125.088 477.513 125.044C477.47 125 477.429 124.954 477.385 124.91C477.342 124.866 477.295 124.826 477.251 124.782C477.208 124.738 477.167 124.691 477.123 124.647C477.079 124.603 477.032 124.562 476.988 124.518C476.945 124.474 476.904 124.428 476.861 124.384C476.817 124.34 476.77 124.3 476.726 124.256C476.682 124.212 476.642 124.165 476.598 124.122C476.554 124.078 476.507 124.037 476.463 123.993C476.42 123.949 476.379 123.903 476.336 123.859C476.292 123.815 476.245 123.774 476.201 123.731C476.158 123.687 476.117 123.64 476.073 123.596C476.029 123.552 475.982 123.511 475.938 123.467C475.895 123.423 475.854 123.377 475.811 123.333C475.766 123.289 475.72 123.248 475.676 123.204C475.632 123.16 475.592 123.114 475.548 123.07C475.504 123.026 475.457 122.986 475.413 122.942C475.37 122.898 475.329 122.851 475.286 122.808C475.242 122.764 475.195 122.723 475.151 122.679C475.108 122.635 475.067 122.589 475.023 122.545C474.979 122.501 474.933 122.46 474.889 122.416C474.845 122.372 474.804 122.326 474.761 122.282C474.717 122.238 474.67 122.197 474.626 122.153C474.582 122.109 474.542 122.063 474.498 122.019C474.454 121.975 474.408 121.934 474.364 121.89C474.32 121.846 474.279 121.8 474.236 121.756C474.192 121.712 474.145 121.671 474.101 121.628C474.057 121.584 474.017 121.537 473.973 121.493C473.929 121.45 473.883 121.409 473.839 121.365C473.795 121.321 473.755 121.274 473.711 121.231C473.667 121.186 473.62 121.145 473.576 121.101C473.532 121.058 473.492 121.011 473.448 120.968C473.404 120.924 473.358 120.883 473.314 120.839C473.27 120.795 473.23 120.749 473.186 120.705C473.142 120.661 473.095 120.62 473.051 120.576C473.008 120.532 472.967 120.486 472.923 120.442C472.88 120.398 472.833 120.358 472.789 120.314C472.745 120.27 472.705 120.223 472.661 120.179C472.617 120.135 472.57 120.094 472.526 120.05C472.482 120.006 472.442 119.96 472.398 119.916C472.354 119.872 472.308 119.832 472.264 119.788C472.22 119.744 472.18 119.697 472.136 119.654C472.092 119.61 472.045 119.569 472.001 119.525C471.958 119.481 471.917 119.435 471.873 119.391C471.83 119.347 471.783 119.306 471.739 119.263C471.695 119.219 471.655 119.172 471.611 119.128C471.567 119.084 471.52 119.043 471.476 118.999C471.432 118.955 471.392 118.909 471.348 118.865C471.304 118.821 471.258 118.78 471.214 118.736C471.17 118.693 471.13 118.646 471.086 118.602C471.042 118.558 470.995 118.517 470.951 118.474C470.908 118.43 470.867 118.383 470.823 118.339C470.78 118.296 470.733 118.255 470.689 118.211C470.646 118.167 470.605 118.121 470.561 118.077C470.517 118.032 470.47 117.992 470.426 117.948C470.383 117.904 470.342 117.857 470.298 117.814C470.255 117.77 470.208 117.729 470.164 117.685C470.12 117.641 470.08 117.595 470.036 117.551C469.992 117.507 469.945 117.466 469.901 117.422C469.858 117.378 469.817 117.332 469.774 117.288C469.73 117.244 469.683 117.204 469.639 117.16C469.596 117.116 469.555 117.069 469.511 117.025C469.467 116.981 469.42 116.94 469.376 116.897C469.333 116.853 469.292 116.806 469.249 116.763C469.204 116.718 469.158 116.677 469.113 116.633C469.07 116.59 469.03 116.543 468.986 116.5C468.942 116.456 468.895 116.415 468.851 116.371C468.808 116.327 468.767 116.281 468.724 116.237C468.68 116.193 468.633 116.152 468.589 116.109C468.546 116.065 468.505 116.018 468.461 115.974C468.417 115.93 468.37 115.889 468.327 115.845C468.283 115.801 468.242 115.755 468.199 115.711C468.155 115.667 468.108 115.626 468.064 115.582C468.02 115.538 467.98 115.492 467.936 115.448C467.892 115.404 467.846 115.364 467.801 115.32C467.758 115.276 467.717 115.229 467.674 115.186C467.63 115.142 467.583 115.101 467.539 115.057C467.495 115.013 467.455 114.967 467.411 114.923C467.367 114.879 467.321 114.838 467.277 114.795C467.233 114.751 467.193 114.704 467.149 114.66C467.105 114.616 467.058 114.575 467.014 114.531C466.97 114.487 466.93 114.441 466.886 114.397C466.842 114.353 466.796 114.312 466.752 114.268C466.708 114.225 466.668 114.178 466.624 114.134C466.58 114.09 466.533 114.049 466.489 114.006C466.446 113.962 466.405 113.915 466.361 113.871C466.318 113.828 466.271 113.787 466.227 113.743C466.183 113.699 466.143 113.652 466.099 113.609C466.055 113.564 466.008 113.523 465.964 113.479C465.92 113.436 465.88 113.389 465.836 113.346C465.792 113.302 465.746 113.261 465.702 113.217C465.658 113.173 465.618 113.127 465.574 113.083C465.53 113.039 465.483 112.998 465.439 112.954C465.396 112.91 465.355 112.864 465.311 112.82C465.268 112.776 465.221 112.736 465.177 112.692C465.133 112.648 465.093 112.601 465.049 112.557C465.005 112.513 464.958 112.472 464.914 112.428C464.87 112.384 464.83 112.338 464.786 112.294C464.742 112.25 464.696 112.21 464.652 112.166C464.608 112.122 464.568 112.075 464.524 112.032C464.48 111.988 464.433 111.947 464.389 111.903C464.346 111.859 464.305 111.813 464.261 111.769C464.218 111.725 464.171 111.684 464.127 111.641C464.084 111.597 464.043 111.55 463.999 111.506C463.955 111.462 463.908 111.421 463.864 111.377C463.82 111.333 463.78 111.287 463.736 111.243C463.693 111.199 463.646 111.158 463.602 111.115C463.558 111.071 463.518 111.024 463.474 110.98C463.43 110.936 463.383 110.896 463.339 110.852C463.296 110.808 463.255 110.761 463.212 110.718C463.168 110.674 463.121 110.633 463.077 110.589C463.034 110.545 462.993 110.499 462.949 110.455C462.905 110.411 462.858 110.37 462.814 110.326C462.771 110.282 462.73 110.236 462.687 110.192C462.642 110.148 462.596 110.107 462.551 110.063C462.508 110.019 462.468 109.973 462.424 109.929C462.38 109.885 462.333 109.844 462.289 109.8C462.246 109.757 462.205 109.71 462.162 109.666C462.118 109.622 462.071 109.582 462.027 109.538C461.984 109.494 461.943 109.447 461.899 109.403C461.855 109.359 461.808 109.319 461.765 109.275C461.721 109.231 461.68 109.184 461.637 109.141C461.593 109.096 461.546 109.055 461.502 109.011C461.458 108.968 461.418 108.921 461.374 108.878C461.33 108.834 461.284 108.793 461.239 108.749C461.196 108.705 461.155 108.659 461.112 108.615C461.068 108.571 461.021 108.53 460.977 108.486C460.933 108.442 460.893 108.396 460.849 108.352C460.805 108.308 460.759 108.268 460.715 108.224C460.671 108.18 460.631 108.133 460.587 108.089C460.543 108.045 460.496 108.004 460.452 107.96C460.408 107.916 460.368 107.87 460.324 107.826C460.28 107.782 460.234 107.742 460.19 107.698C460.146 107.654 460.105 107.607 460.062 107.564C460.018 107.52 459.971 107.479 459.927 107.435C459.884 107.391 459.843 107.345 459.799 107.301C459.756 107.257 459.709 107.216 459.665 107.173C459.621 107.129 459.581 107.082 459.537 107.038C459.493 106.994 459.446 106.953 459.402 106.909C459.358 106.865 459.318 106.819 459.274 106.775C459.23 106.731 459.184 106.69 459.14 106.646C459.096 106.603 459.056 106.556 459.012 106.512C458.968 106.468 458.921 106.427 458.877 106.384C458.834 106.34 458.793 106.293 458.749 106.249C458.706 106.206 458.659 106.165 458.615 106.121C458.571 106.077 458.531 106.031 458.487 105.987C458.443 105.942 458.396 105.902 458.352 105.858C458.308 105.814 458.268 105.767 458.224 105.724C458.18 105.68 458.134 105.639 458.09 105.595C458.046 105.551 458.006 105.505 457.962 105.461C457.918 105.417 457.871 105.376 457.827 105.332C457.784 105.288 457.743 105.242 457.699 105.198C457.656 105.154 457.609 105.114 457.565 105.07C457.522 105.026 457.481 104.979 457.437 104.935C457.393 104.891 457.346 104.85 457.302 104.806C457.258 104.762 457.218 104.716 457.174 104.673C457.13 104.629 457.084 104.588 457.04 104.544C456.996 104.5 456.956 104.453 456.912 104.41C456.868 104.366 456.821 104.325 456.777 104.281C456.734 104.237 456.693 104.191 456.65 104.147C456.606 104.103 456.559 104.062 456.515 104.019C456.472 103.975 456.431 103.928 456.387 103.884C456.343 103.84 456.296 103.799 456.252 103.755C456.209 103.711 456.168 103.665 456.125 103.621C456.08 103.577 456.034 103.536 455.99 103.492C455.946 103.448 455.906 103.402 455.862 103.358C455.818 103.314 455.771 103.274 455.727 103.23C455.684 103.186 455.643 103.139 455.6 103.096C455.556 103.052 455.509 103.011 455.465 102.967C455.422 102.923 455.381 102.877 455.337 102.833C455.293 102.789 455.246 102.748 455.202 102.704C455.159 102.66 455.118 102.614 455.075 102.57C455.031 102.526 454.984 102.485 454.939 102.441C454.896 102.397 454.856 102.351 454.812 102.307C454.768 102.263 454.722 102.222 454.678 102.178C454.634 102.135 454.593 102.088 454.55 102.044C454.506 102 454.459 101.959 454.415 101.916C454.371 101.872 454.331 101.825 454.287 101.781C454.243 101.738 454.197 101.697 454.153 101.653C454.109 101.609 454.069 101.562 454.025 101.519C453.981 101.474 453.934 101.433 453.89 101.39C453.846 101.346 453.806 101.299 453.762 101.256C453.718 101.212 453.672 101.171 453.628 101.127C453.584 101.083 453.544 101.037 453.5 100.993C453.456 100.949 453.409 100.908 453.365 100.864C453.322 100.82 453.281 100.774 453.237 100.73C453.194 100.686 453.147 100.646 453.103 100.602C453.059 100.558 453.019 100.511 452.975 100.467C452.931 100.423 452.884 100.382 452.84 100.338C452.796 100.294 452.756 100.248 452.712 100.204C452.668 100.16 452.622 100.12 452.578 100.076C452.534 100.032 452.494 99.9854 452.45 99.9417C452.406 99.8977 452.359 99.8568 452.315 99.813C452.272 99.7691 452.231 99.7226 452.187 99.6788C452.144 99.635 452.097 99.5944 452.053 99.5507C452.009 99.5066 451.969 99.4599 451.925 99.416C451.881 99.3718 451.834 99.3309 451.79 99.2869C451.746 99.2431 451.706 99.1967 451.662 99.1532C451.618 99.1092 451.572 99.0683 451.528 99.0245C451.484 98.9806 451.444 98.9341 451.4 98.8904C451.356 98.8464 451.309 98.8055 451.265 98.7617C451.222 98.7178 451.181 98.6713 451.137 98.6275C451.094 98.5837 451.047 98.5431 451.003 98.4994C450.96 98.4553 450.919 98.4086 450.875 98.3647C450.831 98.3205 450.784 98.2796 450.74 98.2356C450.697 98.1918 450.656 98.1454 450.612 98.1019C450.569 98.0579 450.522 98.017 450.478 97.9732C450.434 97.9293 450.394 97.8828 450.35 97.839C450.306 97.7951 450.259 97.7542 450.215 97.7104C450.172 97.6665 450.131 97.62 450.088 97.5762C450.044 97.5324 449.997 97.4918 449.953 97.4481C449.91 97.404 449.869 97.3573 449.825 97.3134C449.781 97.2694 449.734 97.2285 449.69 97.1847C449.647 97.1408 449.606 97.0943 449.563 97.0506C449.518 97.0064 449.472 96.9654 449.428 96.9215C449.384 96.8777 449.344 96.8313 449.3 96.7877C449.256 96.7438 449.209 96.7029 449.165 96.6591C449.122 96.6152 449.081 96.5687 449.038 96.5249C448.994 96.4811 448.947 96.4404 448.903 96.3968C448.86 96.3527 448.819 96.306 448.775 96.2621C448.731 96.2181 448.685 96.1772 448.641 96.1334C448.597 96.0895 448.556 96.043 448.513 95.9992C448.469 95.9551 448.422 95.9141 448.378 95.8702C448.334 95.8264 448.294 95.78 448.25 95.7364C448.206 95.6925 448.16 95.6516 448.116 95.6078C448.072 95.5639 448.031 95.5174 447.988 95.4736C447.944 95.4296 447.897 95.3888 447.853 95.345C447.809 95.3011 447.769 95.2546 447.725 95.2108C447.681 95.167 447.635 95.1263 447.591 95.0826C447.547 95.0386 447.507 94.9918 447.463 94.9479C447.419 94.9038 447.372 94.8628 447.328 94.8189C447.284 94.7751 447.244 94.7287 447.2 94.6851C447.156 94.6412 447.11 94.6003 447.066 94.5565C447.022 94.5126 446.982 94.4661 446.938 94.4223C446.894 94.3783 446.847 94.3375 446.803 94.2937C446.76 94.2498 446.719 94.2033 446.675 94.1595C446.632 94.1156 446.585 94.075 446.541 94.0313C446.497 93.9873 446.457 93.9405 446.413 93.8966C446.369 93.8525 446.322 93.8115 446.278 93.7675C446.234 93.7238 446.194 93.6774 446.15 93.6338C446.106 93.5898 446.06 93.549 446.016 93.5052C445.972 93.4613 445.932 93.4148 445.888 93.371C445.844 93.327 445.797 93.2862 445.753 93.2424C445.71 93.1985 445.669 93.152 445.625 93.1082C445.582 93.0643 445.535 93.0237 445.491 92.98C445.447 92.936 445.407 92.8892 445.363 92.8453C445.319 92.8012 445.272 92.7602 445.228 92.7162C445.184 92.6725 445.144 92.6261 445.1 92.5825C445.056 92.5385 445.01 92.4977 444.966 92.4539C444.922 92.41 444.882 92.3635 444.838 92.3197C444.794 92.2757 444.747 92.2349 444.703 92.1911C444.66 92.1472 444.619 92.1006 444.575 92.0569C444.532 92.013 444.485 91.9724 444.441 91.9287C444.398 91.8847 444.357 91.8379 444.313 91.794C444.269 91.7499 444.222 91.7089 444.178 91.6649C444.134 91.6212 444.094 91.5748 444.05 91.5312C444.007 91.4872 443.96 91.4464 443.916 91.4026C443.872 91.3587 443.832 91.3122 443.788 91.2684C443.744 91.2244 443.697 91.1835 443.653 91.1397C443.61 91.0959 443.569 91.0493 443.526 91.0056C443.482 90.9617 443.435 90.9211 443.391 90.8774C443.348 90.8334 443.307 90.7866 443.263 90.7427C443.219 90.6987 443.172 90.6579 443.128 90.6141C443.085 90.5702 443.044 90.5237 443.001 90.4799C442.956 90.4357 442.91 90.3948 442.865 90.3508C442.822 90.3071 442.782 90.2607 442.738 90.2171C442.694 90.1731 442.647 90.1322 442.603 90.0884C442.56 90.0446 442.519 89.998 442.476 89.9543C442.432 89.9104 442.385 89.8698 442.341 89.8261C442.298 89.782 442.257 89.7353 442.213 89.6914C442.169 89.6474 442.122 89.6066 442.079 89.5628C442.035 89.5189 441.994 89.4724 441.951 89.4286C441.907 89.3844 441.86 89.3435 441.816 89.2995C441.772 89.2557 441.732 89.2094 441.688 89.1658C441.644 89.1218 441.598 89.0809 441.553 89.0371C441.51 88.9932 441.469 88.9467 441.426 88.903C441.382 88.859 441.335 88.8181 441.291 88.7743C441.247 88.7304 441.207 88.6839 441.163 88.6402C441.119 88.5963 441.073 88.5557 441.029 88.512C440.985 88.4679 440.945 88.4212 440.901 88.3773C440.857 88.3331 440.81 88.2922 440.766 88.2482C440.722 88.2044 440.682 88.1581 440.638 88.1145C440.594 88.0705 440.548 88.0296 440.504 87.9858C440.46 87.9419 440.42 87.8954 440.376 87.8517C440.332 87.8077 440.285 87.7668 440.241 87.723C440.198 87.6791 440.157 87.6326 440.113 87.5888C440.07 87.545 440.023 87.5044 439.979 87.4607C439.935 87.4166 439.895 87.3699 439.851 87.326C439.807 87.2818 439.76 87.2409 439.716 87.1969C439.672 87.1531 439.632 87.1068 439.588 87.0632C439.544 87.0192 439.498 86.9783 439.454 86.9345C439.41 86.8906 439.37 86.8441 439.326 86.8004C439.282 86.7564 439.235 86.7155 439.191 86.6717C439.148 86.6278 439.107 86.5813 439.063 86.5375C439.02 86.4937 438.973 86.4531 438.929 86.4094C438.885 86.3653 438.845 86.3186 438.801 86.2747C438.757 86.2305 438.71 86.1896 438.666 86.1456C438.622 86.1018 438.582 86.0554 438.538 86.0119C438.494 85.9679 438.448 85.927 438.404 85.8832C438.36 85.8393 438.32 85.7928 438.276 85.749C438.232 85.7051 438.185 85.6642 438.141 85.6204C438.098 85.5765 438.057 85.53 438.013 85.4862C437.97 85.4424 437.923 85.4017 437.879 85.3581C437.836 85.314 437.795 85.2673 437.751 85.2234C437.707 85.1792 437.66 85.1383 437.616 85.0943C437.572 85.0505 437.532 85.0041 437.488 84.9606C437.444 84.9166 437.398 84.8757 437.354 84.8319C437.31 84.788 437.27 84.7415 437.226 84.6977C437.182 84.6538 437.135 84.6129 437.091 84.5691C437.048 84.5252 437.007 84.4787 436.964 84.4349C436.92 84.3911 436.873 84.3504 436.829 84.3068C436.786 84.2627 436.745 84.216 436.701 84.1721C436.657 84.1281 436.61 84.0872 436.566 84.0434C436.523 83.9995 436.482 83.953 436.439 83.9092C436.394 83.8651 436.348 83.8241 436.303 83.7802C436.26 83.7364 436.22 83.69 436.176 83.6464C436.132 83.6025 436.085 83.5616 436.041 83.5178C435.998 83.4739 435.957 83.4274 435.914 83.3836C435.87 83.3398 435.823 83.2991 435.779 83.2555C435.736 83.2114 435.695 83.1647 435.651 83.1208C435.607 83.0768 435.56 83.0359 435.517 82.9921C435.473 82.9482 435.432 82.9017 435.389 82.8579C435.345 82.8138 435.298 82.7728 435.254 82.7289C435.21 82.6851 435.17 82.6387 435.126 82.5951C435.082 82.5512 435.036 82.5103 434.991 82.4665C434.948 82.4226 434.907 82.3761 434.864 82.3323C434.82 82.2883 434.773 82.2475 434.729 82.2037C434.685 82.1598 434.645 82.1133 434.601 82.0695C434.557 82.0257 434.511 81.985 434.467 81.9413C434.423 81.8973 434.383 81.8505 434.339 81.8066C434.295 81.7625 434.248 81.7215 434.204 81.6776C434.16 81.6338 434.12 81.5874 434.076 81.5438C434.032 81.4998 433.986 81.459 433.942 81.4152C433.898 81.3713 433.857 81.3248 433.814 81.281C433.77 81.237 433.723 81.1962 433.679 81.1524C433.636 81.1085 433.595 81.062 433.551 81.0182C433.508 80.9743 433.461 80.9337 433.417 80.89C433.373 80.846 433.333 80.7992 433.289 80.7553C433.245 80.7112 433.198 80.6702 433.154 80.6262C433.11 80.5825 433.07 80.5361 433.026 80.4925C432.982 80.4485 432.936 80.4077 432.892 80.3639C432.848 80.32 432.808 80.2735 432.764 80.2297C432.72 80.1857 432.673 80.1449 432.629 80.1011C432.586 80.0572 432.545 80.0106 432.501 79.9669C432.458 79.923 432.411 79.8824 432.367 79.8387C432.323 79.7947 432.283 79.7479 432.239 79.704C432.195 79.6599 432.148 79.6189 432.104 79.5749C432.06 79.5312 432.02 79.4848 431.976 79.4412C431.932 79.3972 431.886 79.3564 431.842 79.3126C431.798 79.2687 431.758 79.2222 431.714 79.1784C431.67 79.1344 431.623 79.0936 431.579 79.0498C431.536 79.0059 431.495 78.9593 431.451 78.9156C431.408 78.8717 431.361 78.8311 431.317 78.7874C431.274 78.7434 431.233 78.6966 431.189 78.6527C431.145 78.6086 431.098 78.5676 431.054 78.5236C431.01 78.4799 430.97 78.4335 430.926 78.3899C430.882 78.3459 430.836 78.3051 430.792 78.2613C430.748 78.2174 430.708 78.1708 430.664 78.1271C430.62 78.0831 430.573 78.0423 430.529 77.9984C430.486 77.9546 430.445 77.908 430.402 77.8643C430.358 77.8204 430.311 77.7798 430.267 77.7361C430.224 77.6921 430.183 77.6453 430.139 77.6014C430.095 77.5574 430.048 77.5166 430.004 77.4728C429.961 77.4289 429.92 77.3824 429.877 77.3386C429.832 77.2944 429.786 77.2535 429.741 77.2095C429.698 77.1657 429.658 77.1194 429.614 77.0758C429.57 77.0318 429.523 76.9909 429.479 76.9471C429.436 76.9032 429.395 76.8567 429.352 76.813C429.308 76.7691 429.261 76.7285 429.217 76.6848C429.174 76.6407 429.133 76.594 429.089 76.5501C429.045 76.5061 428.998 76.4653 428.954 76.4215C428.911 76.3776 428.87 76.3311 428.827 76.2873C428.783 76.2431 428.736 76.2022 428.691 76.1582C428.648 76.1144 428.608 76.0681 428.564 76.0245C428.52 75.9805 428.474 75.9396 428.429 75.8958C428.386 75.8519 428.345 75.8054 428.302 75.7617C428.258 75.7177 428.211 75.6768 428.167 75.633C428.123 75.5891 428.083 75.5426 428.039 75.4988C427.995 75.455 427.949 75.4144 427.905 75.3707C427.861 75.3266 427.821 75.2799 427.777 75.236C427.733 75.1918 427.686 75.1509 427.642 75.1069C427.598 75.0631 427.558 75.0168 427.514 74.9732C427.47 74.9292 427.424 74.8883 427.38 74.8445C427.336 74.8006 427.295 74.7541 427.252 74.7104C427.208 74.6664 427.161 74.6255 427.117 74.5817C427.074 74.5378 427.033 74.4913 426.989 74.4475C426.946 74.4037 426.899 74.3631 426.855 74.3194C426.811 74.2753 426.771 74.2286 426.727 74.1847C426.683 74.1405 426.636 74.0996 426.592 74.0556C426.548 74.0118 426.508 73.9655 426.464 73.9219C426.42 73.8779 426.374 73.837 426.33 73.7932C426.286 73.7493 426.246 73.7028 426.202 73.659C426.158 73.6151 426.111 73.5742 426.067 73.5304C426.024 73.4865 425.983 73.44 425.939 73.3962C425.896 73.3524 425.849 73.3118 425.805 73.2681C425.761 73.224 425.721 73.1773 425.677 73.1334C425.633 73.0892 425.586 73.0483 425.542 73.0043C425.498 72.9605 425.458 72.9141 425.414 72.8706C425.37 72.8266 425.324 72.7857 425.28 72.7419C425.236 72.698 425.196 72.6515 425.152 72.6077C425.108 72.5638 425.061 72.5229 425.017 72.4791C424.974 72.4352 424.933 72.3887 424.889 72.3449C424.846 72.3011 424.799 72.2604 424.755 72.2168C424.712 72.1727 424.671 72.126 424.627 72.0821C424.583 72.0379 424.536 71.997 424.492 71.953C424.448 71.9092 424.408 71.8628 424.364 71.8193C424.32 71.7753 424.274 71.7344 424.23 71.6906C424.186 71.6467 424.146 71.6002 424.102 71.5564C424.058 71.5125 424.011 71.4716 423.967 71.4278C423.924 71.3839 423.883 71.3374 423.839 71.2936C423.796 71.2498 423.749 71.2091 423.705 71.1655C423.662 71.1214 423.621 71.0747 423.577 71.0308C423.533 70.9868 423.486 70.9459 423.442 70.9021C423.399 70.8582 423.358 70.8117 423.315 70.7679C423.27 70.7238 423.224 70.6828 423.179 70.6389C423.136 70.5951 423.096 70.5487 423.052 70.5051C423.008 70.4612 422.961 70.4203 422.917 70.3765C422.874 70.3326 422.833 70.2861 422.79 70.2423C422.746 70.1985 422.699 70.1578 422.655 70.1142C422.612 70.0701 422.571 70.0233 422.527 69.9795C422.483 69.9355 422.436 69.8946 422.392 69.8508C422.349 69.8069 422.308 69.7604 422.265 69.7166C422.221 69.6725 422.174 69.6315 422.129 69.5876C422.086 69.5438 422.046 69.4974 422.002 69.4538C421.958 69.4098 421.912 69.369 421.867 69.3252C421.824 69.2813 421.783 69.2348 421.74 69.191C421.696 69.147 421.649 69.1062 421.605 69.0624C421.561 69.0185 421.521 68.972 421.477 68.9282C421.433 68.8843 421.387 68.8437 421.343 68.8C421.299 68.756 421.259 68.7092 421.215 68.6653C421.171 68.6212 421.124 68.5802 421.08 68.5362C421.036 68.4925 420.996 68.4461 420.952 68.4025C420.908 68.3585 420.862 68.3177 420.817 68.2739C420.774 68.23 420.733 68.1835 420.69 68.1397C420.646 68.0957 420.599 68.0549 420.555 68.0111C420.511 67.9672 420.471 67.9206 420.427 67.8769C420.384 67.833 420.337 67.7924 420.293 67.7487C420.249 67.7047 420.209 67.6579 420.165 67.614C420.121 67.5699 420.074 67.5289 420.03 67.4849C419.986 67.4412 419.946 67.3948 419.902 67.3512C419.858 67.3072 419.812 67.2664 419.768 67.2226C419.724 67.1787 419.683 67.1322 419.64 67.0884C419.596 67.0444 419.549 67.0036 419.505 66.9598C419.462 66.9159 419.421 66.8693 419.377 66.8256C419.334 66.7817 419.287 66.7411 419.243 66.6974C419.199 66.6534 419.159 66.6066 419.115 66.5627C419.071 66.5186 419.024 66.4776 418.98 66.4336C418.936 66.3899 418.896 66.3435 418.852 66.2999C418.808 66.2559 418.762 66.2151 418.718 66.1713C418.674 66.1274 418.634 66.0808 418.59 66.0371C418.546 65.9931 418.499 65.9523 418.455 65.9084C418.412 65.8646 418.371 65.818 418.327 65.7743C418.284 65.7304 418.237 65.6898 418.193 65.6461C418.15 65.6021 418.109 65.5553 418.065 65.5114C418.021 65.4673 417.974 65.4263 417.93 65.3823C417.886 65.3386 417.846 65.2922 417.802 65.2486C417.758 65.2046 417.712 65.1638 417.668 65.12C417.624 65.0761 417.584 65.0295 417.54 64.9858C417.496 64.9418 417.449 64.9009 417.405 64.8571C417.362 64.8133 417.321 64.7667 417.277 64.723C417.234 64.6791 417.187 64.6385 417.143 64.5948C417.1 64.5507 417.059 64.504 417.015 64.4601C416.971 64.4161 416.924 64.3753 416.88 64.3315C416.837 64.2876 416.796 64.2411 416.753 64.1973C416.708 64.1531 416.662 64.1122 416.617 64.0682C416.574 64.0244 416.534 63.9781 416.49 63.9345C416.446 63.8905 416.399 63.8496 416.355 63.8058C416.312 63.7619 416.271 63.7154 416.228 63.6717C416.184 63.6278 416.137 63.5872 416.093 63.5435C416.05 63.4994 416.009 63.4527 415.965 63.4088C415.921 63.3648 415.874 63.324 415.83 63.2802C415.787 63.2363 415.746 63.1898 415.703 63.146C415.659 63.1018 415.612 63.0609 415.567 63.0169C415.524 62.9731 415.484 62.9268 415.44 62.8832C415.396 62.8392 415.349 62.7983 415.305 62.7545C415.262 62.7106 415.221 62.6641 415.178 62.6204C415.134 62.5764 415.087 62.5355 415.043 62.4917C414.999 62.4478 414.959 62.4013 414.915 62.3575C414.871 62.3137 414.825 62.2731 414.781 62.2294C414.737 62.1853 414.697 62.1386 414.653 62.0947C414.609 62.0505 414.562 62.0096 414.517 61.9656C414.474 61.9218 414.434 61.8755 414.39 61.8319C414.346 61.7879 414.3 61.747 414.256 61.7032C414.212 61.6593 414.172 61.6128 414.128 61.569C414.084 61.5251 414.037 61.4842 413.993 61.4404C413.95 61.3965 413.909 61.35 413.865 61.3062C413.822 61.2624 413.775 61.2218 413.731 61.1781C413.687 61.134 413.647 61.0873 413.603 61.0434C413.559 60.9992 413.512 60.9583 413.468 60.9143C413.424 60.8705 413.384 60.8241 413.34 60.7806C413.296 60.7366 413.25 60.6957 413.206 60.6519C413.162 60.608 413.122 60.5615 413.078 60.5177C413.034 60.4738 412.987 60.4329 412.943 60.3891C412.9 60.3452 412.859 60.2987 412.815 60.2549C412.772 60.2111 412.725 60.1704 412.681 60.1268C412.637 60.0827 412.597 60.036 412.553 59.9921C412.509 59.9479 412.462 59.907 412.418 59.863C412.374 59.8192 412.334 59.7728 412.29 59.7293C412.246 59.6853 412.2 59.6444 412.156 59.6006C412.112 59.5567 412.072 59.5102 412.028 59.4664C411.984 59.4225 411.937 59.3816 411.893 59.3378C411.85 59.2939 411.809 59.2474 411.765 59.2036C411.722 59.1598 411.675 59.1191 411.631 59.0755C411.588 59.0314 411.547 58.9847 411.503 58.9408C411.459 58.8966 411.412 58.8557 411.368 58.8117C411.324 58.7679 411.284 58.7215 411.24 58.6779C411.196 58.634 411.15 58.5931 411.106 58.5493C411.062 58.5054 411.022 58.4589 410.978 58.4151C410.934 58.3712 410.887 58.3303 410.843 58.2865C410.8 58.2426 410.759 58.1961 410.716 58.1523C410.672 58.1085 410.625 58.0678 410.581 58.0242C410.538 57.9801 410.497 57.9333 410.453 57.8895C410.409 57.8455 410.362 57.8046 410.318 57.7608C410.275 57.7169 410.234 57.6704 410.191 57.6266C410.146 57.5825 410.1 57.5415 410.055 57.4976C410.012 57.4538 409.972 57.4074 409.928 57.3638C409.884 57.3198 409.837 57.279 409.793 57.2352C409.75 57.1913 409.709 57.1448 409.666 57.101C409.622 57.0572 409.575 57.0165 409.531 56.9729C409.488 56.9288 409.447 56.882 409.403 56.8382C409.359 56.7942 409.312 56.7533 409.269 56.7095C409.225 56.6656 409.184 56.6191 409.141 56.5753C409.097 56.5312 409.05 56.4902 409.005 56.4462C408.962 56.4025 408.922 56.3561 408.878 56.3125C408.834 56.2685 408.788 56.2277 408.743 56.1839C408.7 56.14 408.659 56.0935 408.616 56.0497C408.572 56.0057 408.525 55.9649 408.481 55.9211C408.437 55.8772 408.397 55.8307 408.353 55.7869C408.309 55.743 408.263 55.7024 408.219 55.6587C408.175 55.6147 408.135 55.5679 408.091 55.524C408.047 55.4799 408 55.4389 407.956 55.3949C407.912 55.3512 407.872 55.3048 407.828 55.2612C407.784 55.2172 407.738 55.1764 407.694 55.1326C407.65 55.0887 407.609 55.0422 407.566 54.9984C407.522 54.9544 407.475 54.9136 407.431 54.8698C407.388 54.8259 407.347 54.7793 407.303 54.7356C407.26 54.6917 407.213 54.6511 407.169 54.6074C407.125 54.5634 407.085 54.5166 407.041 54.4727C406.997 54.4286 406.95 54.3876 406.906 54.3436C406.862 54.2999 406.822 54.2535 406.778 54.2099C406.734 54.1659 406.688 54.1251 406.644 54.0813C406.6 54.0374 406.56 53.9909 406.516 53.9471C406.472 53.9031 406.425 53.8623 406.381 53.8184C406.338 53.7746 406.297 53.728 406.253 53.6843C406.21 53.6404 406.163 53.5998 406.119 53.5561C406.075 53.5121 406.035 53.4653 405.991 53.4214C405.947 53.3773 405.9 53.3363 405.856 53.2923C405.812 53.2486 405.772 53.2022 405.728 53.1586C405.684 53.1146 405.638 53.0738 405.594 53.03C405.55 52.9861 405.51 52.9395 405.466 52.8958C405.422 52.8518 405.375 52.8109 405.331 52.7671C405.288 52.7233 405.247 52.6767 405.203 52.633C405.16 52.5891 405.113 52.5485 405.069 52.5048C405.026 52.4607 404.985 52.414 404.941 52.3701C404.897 52.326 404.85 52.285 404.806 52.241C404.762 52.1973 404.722 52.1509 404.678 52.1073C404.634 52.0633 404.588 52.0225 404.544 51.9787C404.5 51.9348 404.46 51.8882 404.416 51.8445C404.372 51.8005 404.325 51.7596 404.281 51.7158C404.238 51.6719 404.197 51.6254 404.153 51.5817C404.11 51.5378 404.063 51.4972 404.019 51.4535C403.976 51.4094 403.935 51.3627 403.891 51.3188C403.847 51.2748 403.8 51.234 403.756 51.1902C403.713 51.1463 403.672 51.0997 403.629 51.056C403.584 51.0118 403.538 50.9709 403.493 50.9269C403.45 50.8831 403.41 50.8368 403.366 50.7932C403.322 50.7492 403.275 50.7083 403.231 50.6645C403.188 50.6206 403.147 50.5741 403.104 50.5304C403.06 50.4865 403.013 50.4459 402.969 50.4022C402.926 50.3581 402.885 50.3114 402.841 50.2675C402.797 50.2235 402.75 50.1827 402.706 50.1389C402.663 50.095 402.622 50.0484 402.579 50.0047C402.535 49.9605 402.488 49.9196 402.443 49.8756C402.4 49.8318 402.36 49.7855 402.316 49.7419C402.272 49.6979 402.226 49.657 402.181 49.6132C402.138 49.5693 402.097 49.5228 402.054 49.4791C402.01 49.4351 401.963 49.3942 401.919 49.3504C401.875 49.3065 401.835 49.26 401.791 49.2162C401.747 49.1724 401.701 49.1318 401.657 49.0881C401.613 49.044 401.573 48.9973 401.529 48.9534C401.485 48.9092 401.438 48.8683 401.394 48.8243C401.35 48.7805 401.31 48.7341 401.266 48.6906C401.222 48.6466 401.176 48.6057 401.131 48.5619C401.088 48.518 401.047 48.4715 401.004 48.4278C400.96 48.3838 400.913 48.3429 400.869 48.2991C400.826 48.2552 400.785 48.2087 400.741 48.1649C400.698 48.1211 400.651 48.0805 400.607 48.0368C400.563 47.9927 400.523 47.946 400.479 47.9021C400.435 47.8579 400.388 47.817 400.344 47.773C400.3 47.7292 400.26 47.6828 400.216 47.6393C400.172 47.5953 400.126 47.5544 400.082 47.5106C400.038 47.4667 399.997 47.4202 399.954 47.3764C399.91 47.3325 399.863 47.2916 399.819 47.2478C399.776 47.2039 399.735 47.1574 399.691 47.1136C399.648 47.0698 399.601 47.0291 399.557 46.9855C399.513 46.9414 399.473 46.8947 399.429 46.8508C399.385 46.8066 399.338 46.7657 399.294 46.7217C399.25 46.6779 399.21 46.6315 399.166 46.588C399.122 46.544 399.076 46.5031 399.032 46.4593C398.988 46.4154 398.948 46.3689 398.904 46.3251C398.86 46.2812 398.813 46.2403 398.769 46.1965C398.726 46.1526 398.685 46.1061 398.641 46.0623C398.598 46.0185 398.551 45.9778 398.507 45.9342C398.464 45.8901 398.423 45.8434 398.379 45.7995C398.335 45.7553 398.288 45.7143 398.244 45.6704C398.2 45.6266 398.16 45.5802 398.116 45.5366C398.072 45.4927 398.026 45.4518 397.982 45.408C397.938 45.3641 397.898 45.3176 397.854 45.2738C397.81 45.2299 397.763 45.189 397.719 45.1452C397.676 45.1013 397.635 45.0548 397.591 45.011C397.548 44.9672 397.501 44.9265 397.457 44.8829C397.414 44.8388 397.373 44.792 397.329 44.7482C397.285 44.7042 397.238 44.6633 397.194 44.6195C397.151 44.5756 397.11 44.5291 397.067 44.4853C397.022 44.4412 396.976 44.4002 396.931 44.3563C396.888 44.3125 396.848 44.2661 396.804 44.2225C396.76 44.1785 396.713 44.1377 396.669 44.0939C396.626 44.05 396.585 44.0035 396.542 43.9597C396.498 43.9159 396.451 43.8752 396.407 43.8316C396.364 43.7875 396.323 43.7407 396.279 43.6968C396.235 43.6529 396.188 43.612 396.144 43.5682C396.101 43.5243 396.06 43.4778 396.017 43.434C395.973 43.3899 395.926 43.3489 395.881 43.3049C395.838 43.2612 395.798 43.2148 395.754 43.1712C395.71 43.1272 395.663 43.0864 395.619 43.0426C395.576 42.9987 395.535 42.9522 395.492 42.9084C395.448 42.8644 395.401 42.8236 395.357 42.7798C395.313 42.7359 395.273 42.6893 395.229 42.6456C395.185 42.6017 395.139 42.5611 395.095 42.5174C395.051 42.4734 395.011 42.4266 394.967 42.3827C394.923 42.3386 394.876 42.2976 394.831 42.2536C394.788 42.2099 394.748 42.1635 394.704 42.1199C394.66 42.0759 394.614 42.0351 394.569 41.9913C394.526 41.9474 394.485 41.9009 394.442 41.8571C394.398 41.8131 394.351 41.7723 394.307 41.7285C394.263 41.6846 394.223 41.638 394.179 41.5943C394.135 41.5504 394.089 41.5098 394.045 41.4661C394.001 41.4221 393.961 41.3753 393.917 41.3314C393.873 41.2873 393.826 41.2463 393.782 41.2023C393.738 41.1586 393.698 41.1122 393.654 41.0686C393.61 41.0246 393.564 40.9838 393.52 40.94C393.476 40.8961 393.435 40.8496 393.392 40.8058C389.129 36.5324 384.093 33.118 378.421 30.6573C372.771 28.1933 366.613 26.9438 360.118 26.9438C353.704 26.9438 347.564 28.1937 341.868 30.659C336.162 33.1187 331.107 36.5323 326.843 40.8065C322.575 45.076 319.165 50.1187 316.708 55.796C314.247 61.4543 313 67.6207 313 74.1238C313 80.5465 314.247 86.6943 316.709 92.3979C319.166 98.1111 322.575 103.172 326.844 107.442C326.887 107.486 326.934 107.526 326.978 107.57C327.022 107.614 327.062 107.661 327.106 107.705C327.15 107.749 327.197 107.789 327.241 107.833C327.284 107.877 327.325 107.924 327.369 107.968C327.412 108.011 327.459 108.052 327.503 108.095C327.546 108.139 327.587 108.186 327.631 108.23C327.675 108.274 327.722 108.315 327.765 108.359C327.809 108.403 327.85 108.449 327.894 108.493C327.937 108.537 327.984 108.578 328.028 108.621C328.072 108.665 328.112 108.712 328.156 108.756C328.2 108.8 328.247 108.841 328.291 108.885C328.334 108.928 328.375 108.975 328.419 109.019C328.462 109.063 328.509 109.103 328.552 109.147C328.596 109.191 328.637 109.238 328.681 109.282C328.725 109.326 328.772 109.366 328.815 109.41C328.859 109.454 328.9 109.501 328.944 109.545C328.987 109.588 329.034 109.629 329.078 109.673C329.121 109.717 329.162 109.763 329.206 109.807C329.25 109.851 329.297 109.892 329.341 109.936C329.384 109.98 329.425 110.026 329.469 110.07C329.512 110.114 329.559 110.155 329.603 110.198C329.647 110.242 329.687 110.289 329.731 110.333C329.775 110.377 329.821 110.417 329.865 110.461C329.909 110.505 329.95 110.552 329.994 110.596C330.037 110.64 330.084 110.68 330.128 110.724C330.171 110.768 330.212 110.815 330.256 110.859C330.3 110.903 330.347 110.943 330.391 110.987C330.434 111.031 330.475 111.078 330.519 111.121C330.562 111.165 330.609 111.206 330.653 111.25C330.696 111.294 330.737 111.34 330.781 111.384C330.825 111.428 330.871 111.468 330.915 111.512C330.959 111.556 330.999 111.603 331.044 111.647C331.087 111.691 331.134 111.732 331.178 111.775C331.221 111.819 331.262 111.866 331.306 111.91C331.35 111.954 331.396 111.994 331.44 112.038C331.484 112.082 331.525 112.129 331.569 112.173C331.612 112.217 331.659 112.258 331.703 112.301C331.747 112.345 331.787 112.392 331.831 112.436C331.875 112.479 331.921 112.52 331.965 112.563C332.009 112.607 332.049 112.654 332.094 112.698C332.137 112.742 332.184 112.783 332.228 112.827C332.271 112.871 332.312 112.917 332.356 112.961C332.4 113.005 332.446 113.046 332.49 113.089C332.534 113.133 332.575 113.18 332.618 113.224C332.662 113.268 332.709 113.309 332.753 113.353C332.797 113.397 332.837 113.443 332.881 113.487C332.925 113.531 332.971 113.571 333.015 113.615C333.058 113.659 333.099 113.706 333.143 113.75C333.187 113.794 333.234 113.834 333.278 113.878C333.321 113.922 333.362 113.969 333.406 114.013C333.45 114.056 333.496 114.097 333.54 114.141C333.584 114.185 333.625 114.231 333.668 114.275C333.712 114.319 333.759 114.36 333.803 114.404C333.847 114.448 333.887 114.494 333.931 114.538C333.975 114.582 334.021 114.622 334.065 114.666C334.108 114.71 334.149 114.757 334.193 114.801C334.237 114.845 334.284 114.886 334.328 114.929C334.371 114.973 334.412 115.02 334.456 115.064C334.5 115.108 334.546 115.148 334.59 115.192C334.634 115.236 334.674 115.283 334.718 115.327C334.762 115.371 334.809 115.411 334.853 115.455C334.896 115.499 334.937 115.546 334.981 115.589C335.024 115.633 335.071 115.674 335.114 115.717C335.158 115.761 335.199 115.808 335.243 115.852C335.287 115.896 335.334 115.937 335.377 115.98C335.421 116.025 335.462 116.071 335.506 116.115C335.55 116.159 335.596 116.2 335.64 116.243C335.684 116.287 335.724 116.334 335.768 116.378C335.812 116.422 335.859 116.463 335.903 116.507C335.946 116.55 335.987 116.597 336.031 116.641C336.074 116.685 336.121 116.725 336.165 116.769C336.209 116.813 336.249 116.86 336.293 116.904C336.337 116.947 336.383 116.988 336.427 117.031C336.471 117.075 336.512 117.122 336.556 117.166C336.599 117.21 336.646 117.251 336.69 117.295C336.734 117.339 336.774 117.385 336.818 117.429C336.862 117.473 336.909 117.514 336.953 117.558C336.996 117.602 337.037 117.648 337.081 117.692C337.124 117.736 337.171 117.777 337.215 117.82C337.259 117.864 337.299 117.911 337.343 117.955C337.387 117.999 337.433 118.039 337.477 118.083C337.521 118.127 337.562 118.174 337.606 118.218C337.649 118.262 337.696 118.302 337.74 118.346C337.784 118.39 337.824 118.437 337.868 118.481C337.912 118.524 337.958 118.565 338.002 118.609C338.046 118.653 338.087 118.7 338.131 118.743C338.174 118.787 338.221 118.828 338.265 118.872C338.309 118.916 338.349 118.962 338.393 119.006C338.437 119.05 338.483 119.09 338.527 119.134C338.571 119.178 338.612 119.225 338.656 119.269C338.699 119.313 338.746 119.354 338.79 119.397C338.833 119.441 338.874 119.488 338.918 119.532C338.962 119.576 339.008 119.616 339.052 119.66C339.096 119.704 339.137 119.751 339.181 119.795C339.224 119.839 339.271 119.879 339.315 119.923C339.359 119.967 339.399 120.014 339.443 120.058C339.487 120.101 339.533 120.142 339.577 120.185C339.621 120.229 339.661 120.276 339.705 120.32C339.749 120.364 339.796 120.405 339.84 120.449C339.883 120.493 339.924 120.539 339.968 120.583C340.012 120.627 340.058 120.668 340.102 120.711C340.146 120.755 340.187 120.802 340.23 120.846C340.274 120.89 340.321 120.931 340.365 120.975C340.409 121.018 340.449 121.065 340.493 121.109C340.537 121.153 340.583 121.193 340.627 121.237C340.671 121.281 340.711 121.328 340.755 121.372C340.799 121.415 340.846 121.456 340.89 121.5C340.933 121.544 340.974 121.591 341.018 121.635C341.062 121.678 341.108 121.719 341.152 121.763C341.196 121.807 341.237 121.853 341.28 121.897C341.324 121.941 341.371 121.982 341.415 122.026C341.459 122.07 341.499 122.116 341.543 122.16C341.586 122.204 341.633 122.244 341.677 122.288C341.721 122.332 341.761 122.379 341.805 122.423C341.849 122.467 341.896 122.507 341.939 122.551C341.983 122.595 342.024 122.642 342.068 122.686C342.112 122.73 342.158 122.77 342.202 122.814C342.246 122.858 342.286 122.905 342.33 122.949C342.374 122.993 342.421 123.033 342.465 123.077C342.509 123.121 342.549 123.168 342.593 123.211C342.637 123.255 342.683 123.296 342.727 123.34C342.771 123.384 342.811 123.43 342.855 123.474C342.899 123.518 342.945 123.558 342.989 123.602C343.033 123.646 343.074 123.693 343.118 123.737C343.161 123.781 343.208 123.822 343.252 123.865C343.296 123.909 343.336 123.956 343.38 124C343.424 124.044 343.471 124.085 343.515 124.129C343.558 124.172 343.599 124.219 343.643 124.263C343.686 124.307 343.733 124.347 343.777 124.391C343.821 124.435 343.861 124.482 343.905 124.526C343.949 124.569 343.995 124.61 344.039 124.653C344.083 124.697 344.124 124.744 344.168 124.788C344.211 124.832 344.258 124.873 344.302 124.917C344.346 124.961 344.386 125.007 344.43 125.051C344.474 125.095 344.52 125.136 344.564 125.179C344.608 125.223 344.649 125.27 344.693 125.314C344.737 125.358 344.783 125.399 344.827 125.443C344.871 125.487 344.911 125.533 344.955 125.577C344.999 125.621 345.045 125.661 345.089 125.705C345.133 125.749 345.174 125.796 345.218 125.84C345.261 125.884 345.308 125.924 345.352 125.968C345.395 126.012 345.436 126.059 345.48 126.103C345.524 126.146 345.57 126.187 345.614 126.231C345.658 126.275 345.699 126.321 345.743 126.365C345.786 126.409 345.833 126.45 345.877 126.494C345.921 126.538 345.961 126.584 346.005 126.628C346.049 126.672 346.095 126.712 346.139 126.756C346.183 126.8 346.224 126.847 346.268 126.891C346.311 126.935 346.358 126.976 346.402 127.019C346.445 127.063 346.486 127.11 346.53 127.154C346.574 127.198 346.62 127.238 346.664 127.282C346.708 127.326 346.749 127.373 346.793 127.417C346.836 127.461 346.883 127.501 346.927 127.545C346.971 127.589 347.011 127.636 347.055 127.679C347.099 127.723 347.145 127.764 347.189 127.807C347.233 127.851 347.273 127.898 347.318 127.942C347.361 127.986 347.408 128.027 347.452 128.07C347.495 128.115 347.536 128.161 347.58 128.205C347.624 128.249 347.67 128.29 347.714 128.333C347.758 128.377 347.799 128.424 347.842 128.468C347.886 128.512 347.933 128.553 347.977 128.597C348.021 128.64 348.061 128.687 348.105 128.731C348.149 128.774 348.195 128.815 348.239 128.858C348.283 128.903 348.323 128.95 348.368 128.994C348.411 129.037 348.458 129.078 348.502 129.122C348.545 129.166 348.586 129.213 348.63 129.256C348.674 129.3 348.72 129.341 348.764 129.385C348.808 129.429 348.848 129.475 348.892 129.519C348.936 129.563 348.983 129.604 349.027 129.648C349.071 129.692 349.111 129.738 349.155 129.782C349.199 129.826 349.245 129.867 349.289 129.91C349.333 129.954 349.374 130.001 349.417 130.045C349.461 130.089 349.507 130.129 349.551 130.173C349.595 130.217 349.636 130.264 349.68 130.308C349.724 130.352 349.77 130.392 349.814 130.436C349.858 130.48 349.898 130.527 349.942 130.571C349.986 130.615 350.033 130.655 350.077 130.699C350.121 130.743 350.161 130.79 350.205 130.833C350.249 130.877 350.295 130.918 350.339 130.962C350.383 131.006 350.423 131.052 350.467 131.096C350.511 131.14 350.557 131.18 350.601 131.224C350.645 131.268 350.686 131.315 350.73 131.359C350.773 131.403 350.82 131.444 350.864 131.487C350.908 131.531 350.948 131.578 350.992 131.622C351.036 131.666 351.082 131.706 351.126 131.75C351.17 131.794 351.211 131.841 351.255 131.885C351.299 131.929 351.345 131.969 351.389 132.013C351.433 132.057 351.474 132.104 351.517 132.148C351.561 132.191 351.607 132.232 351.651 132.275C351.695 132.319 351.736 132.366 351.78 132.41C351.823 132.454 351.87 132.495 351.914 132.539C351.958 132.583 351.998 132.629 352.042 132.673C352.086 132.717 352.132 132.758 352.176 132.801C352.22 132.845 352.261 132.892 352.305 132.936C352.349 132.98 352.395 133.021 352.439 133.065C352.483 133.108 352.523 133.155 352.567 133.199C352.611 133.243 352.657 133.283 352.701 133.327C352.745 133.371 352.786 133.418 352.83 133.462C352.873 133.506 352.92 133.546 352.964 133.59C353.007 133.634 353.048 133.681 353.092 133.725C353.136 133.768 353.182 133.809 353.226 133.853C353.27 133.897 353.311 133.943 353.355 133.987C353.399 134.031 353.445 134.072 353.489 134.116C353.533 134.16 353.573 134.206 353.617 134.25C353.661 134.294 353.707 134.334 353.751 134.378C353.795 134.422 353.836 134.469 353.88 134.513C353.923 134.557 353.97 134.597 354.014 134.641C354.057 134.685 354.098 134.732 354.142 134.776C354.186 134.82 354.232 134.86 354.276 134.904C354.32 134.948 354.361 134.995 354.405 135.039C354.448 135.083 354.495 135.123 354.539 135.167C354.583 135.211 354.623 135.258 354.667 135.301C354.711 135.345 354.757 135.386 354.801 135.429C354.845 135.473 354.885 135.52 354.93 135.564C354.973 135.608 355.02 135.649 355.064 135.692C355.107 135.736 355.148 135.783 355.192 135.827C355.236 135.871 355.282 135.912 355.326 135.955C355.37 135.999 355.411 136.046 355.455 136.09C355.498 136.134 355.545 136.175 355.589 136.218C355.633 136.262 355.673 136.309 355.717 136.353C355.761 136.397 355.807 136.437 355.851 136.481C355.895 136.525 355.936 136.572 355.979 136.616C356.023 136.659 356.069 136.7 356.113 136.743C356.157 136.787 356.198 136.834 356.242 136.878C356.286 136.922 356.332 136.963 356.376 137.007C356.42 137.051 356.461 137.097 356.504 137.141C356.548 137.185 356.595 137.226 356.639 137.27C356.683 137.314 356.723 137.36 356.767 137.404C356.811 137.448 356.857 137.489 356.901 137.532C356.945 137.576 356.986 137.623 357.029 137.667C357.073 137.711 357.119 137.751 357.163 137.795C357.207 137.839 357.248 137.886 357.292 137.93C357.336 137.974 357.382 138.014 357.426 138.058C357.47 138.102 357.511 138.149 357.554 138.193C357.598 138.236 357.645 138.277 357.689 138.321C357.732 138.365 357.773 138.411 357.817 138.455C357.861 138.499 357.907 138.54 357.951 138.584C357.995 138.628 358.036 138.674 358.079 138.718C358.123 138.762 358.169 138.802 358.213 138.846C358.257 138.89 358.298 138.937 358.342 138.981C358.386 139.025 358.432 139.066 358.476 139.109C358.52 139.153 358.56 139.2 358.604 139.244C358.648 139.288 358.695 139.328 358.738 139.372C358.782 139.416 358.823 139.463 358.867 139.507C358.911 139.551 358.957 139.591 359.001 139.635C359.045 139.679 359.086 139.726 359.129 139.769C359.173 139.813 359.219 139.854 359.263 139.897C359.307 139.941 359.348 139.988 359.392 140.032C359.435 140.076 359.482 140.117 359.526 140.16C359.57 140.205 359.61 140.251 359.654 140.295C359.698 140.339 359.745 140.38 359.788 140.423C359.832 140.467 359.873 140.514 359.917 140.558C359.961 140.602 360.007 140.643 360.051 140.687C360.095 140.73 360.135 140.777 360.179 140.821C360.223 140.864 360.269 140.905 360.313 140.948C360.357 140.993 360.398 141.04 360.442 141.084C360.485 141.127 360.532 141.168 360.576 141.212C360.62 141.256 360.66 141.303 360.704 141.346C360.748 141.39 360.794 141.431 360.838 141.475C360.882 141.519 360.923 141.565 360.967 141.609C361.011 141.653 361.057 141.694 361.101 141.738C361.145 141.782 361.185 141.828 361.229 141.872C361.273 141.916 361.319 141.956 361.363 142C361.407 142.044 361.448 142.091 361.492 142.135C361.535 142.179 361.582 142.219 361.626 142.263C361.669 142.307 361.71 142.354 361.754 142.398C361.798 142.442 361.844 142.482 361.888 142.526C361.932 142.57 361.973 142.617 362.017 142.661C362.06 142.705 362.107 142.745 362.151 142.789C362.195 142.833 362.235 142.88 362.279 142.923C362.323 142.967 362.369 143.008 362.413 143.052C362.457 143.096 362.498 143.142 362.542 143.186C362.585 143.23 362.632 143.27 362.675 143.314C362.719 143.358 362.76 143.405 362.804 143.449C362.848 143.493 362.894 143.534 362.938 143.577C362.982 143.621 363.023 143.668 363.067 143.712C363.11 143.756 363.157 143.797 363.201 143.84C363.245 143.884 363.285 143.931 363.329 143.975C363.373 144.019 363.419 144.059 363.463 144.103C363.507 144.147 363.548 144.194 363.591 144.238C363.635 144.281 363.682 144.322 363.725 144.365C363.769 144.409 363.81 144.456 363.854 144.5C363.898 144.544 363.944 144.585 363.988 144.629C364.032 144.673 364.073 144.719 364.116 144.763C364.16 144.807 364.207 144.848 364.251 144.891C364.294 144.935 364.335 144.982 364.379 145.026C364.423 145.07 364.47 145.111 364.514 145.155C364.557 145.198 364.598 145.245 364.641 145.289C364.685 145.333 364.731 145.373 364.775 145.417C364.819 145.461 364.86 145.508 364.904 145.552C364.948 145.595 364.994 145.636 365.038 145.68C365.082 145.724 365.122 145.771 365.166 145.815C365.21 145.858 365.257 145.899 365.301 145.943C365.344 145.987 365.385 146.033 365.429 146.077C365.473 146.121 365.519 146.162 365.563 146.206C365.607 146.25 365.648 146.296 365.691 146.34C365.735 146.384 365.781 146.424 365.825 146.468C365.869 146.512 365.91 146.559 365.954 146.603C365.998 146.647 366.044 146.687 366.088 146.731C366.132 146.775 366.172 146.822 366.216 146.866C366.26 146.91 366.307 146.95 366.35 146.994C366.394 147.038 366.435 147.085 366.479 147.129C366.523 147.173 366.569 147.213 366.613 147.257C366.657 147.301 366.698 147.348 366.741 147.391C366.785 147.435 366.831 147.476 366.875 147.519C366.919 147.563 366.96 147.61 367.004 147.654C367.047 147.698 367.094 147.739 367.138 147.782C367.182 147.826 367.222 147.873 367.266 147.917C367.31 147.961 367.356 148.002 367.4 148.045C367.444 148.089 367.485 148.136 367.529 148.18C367.573 148.224 367.619 148.265 367.663 148.308C367.707 148.352 367.747 148.399 367.791 148.443C367.835 148.486 367.881 148.527 367.925 148.57C367.969 148.615 368.01 148.662 368.054 148.706C368.097 148.749 368.144 148.79 368.188 148.834C368.232 148.878 368.272 148.925 368.316 148.968C368.36 149.012 368.406 149.053 368.45 149.097C368.494 149.141 368.535 149.187 368.579 149.231C368.622 149.275 368.669 149.316 368.713 149.36C368.757 149.404 368.797 149.45 368.841 149.494C368.885 149.538 368.931 149.579 368.975 149.622C369.019 149.666 369.06 149.713 369.104 149.757C369.147 149.801 369.194 149.841 369.237 149.885C369.281 149.929 369.322 149.976 369.366 150.02C369.41 150.064 369.456 150.104 369.5 150.148C369.544 150.192 369.585 150.239 369.629 150.283C369.672 150.327 369.719 150.367 369.763 150.411C369.807 150.455 369.847 150.502 369.891 150.545C369.935 150.589 369.981 150.63 370.025 150.673C370.069 150.718 370.11 150.764 370.154 150.808C370.197 150.852 370.244 150.892 370.287 150.936C370.331 150.98 370.372 151.027 370.416 151.071C370.46 151.115 370.506 151.156 370.55 151.199C370.594 151.243 370.635 151.29 370.678 151.334C370.722 151.378 370.769 151.418 370.813 151.462C370.856 151.506 370.897 151.553 370.941 151.597C370.985 151.641 371.032 151.681 371.076 151.725C371.119 151.769 371.16 151.816 371.204 151.859C371.247 151.903 371.293 151.944 371.337 151.987C371.381 152.031 371.422 152.078 371.466 152.122C371.51 152.166 371.556 152.207 371.6 152.25C371.644 152.295 371.685 152.341 371.728 152.385C371.772 152.429 371.819 152.47 371.863 152.513C371.906 152.557 371.947 152.604 371.991 152.648C372.035 152.692 372.082 152.733 372.125 152.777C372.169 152.82 372.21 152.867 372.253 152.911C372.297 152.954 372.343 152.995 372.387 153.038C372.431 153.083 372.472 153.13 372.516 153.174C372.56 153.217 372.606 153.258 372.65 153.302C372.694 153.346 372.734 153.393 372.778 153.436C372.822 153.48 372.869 153.521 372.912 153.565C372.956 153.609 372.997 153.655 373.041 153.699C373.085 153.743 373.131 153.784 373.175 153.828C373.219 153.872 373.26 153.918 373.303 153.962C373.347 154.006 373.393 154.046 373.437 154.09C373.481 154.134 373.522 154.181 373.566 154.225C373.61 154.269 373.656 154.309 373.7 154.353C373.744 154.397 373.784 154.444 373.828 154.488C373.872 154.532 373.919 154.572 373.962 154.616C374.006 154.66 374.047 154.707 374.091 154.751C374.135 154.795 374.181 154.835 374.225 154.879C374.269 154.923 374.31 154.97 374.353 155.013C374.397 155.057 374.443 155.098 374.487 155.141C374.531 155.185 374.572 155.232 374.616 155.276C374.659 155.32 374.706 155.361 374.75 155.404C374.794 155.448 374.834 155.495 374.878 155.539C374.922 155.583 374.968 155.624 375.012 155.667C375.056 155.711 375.097 155.758 375.141 155.802C375.185 155.846 375.231 155.887 375.275 155.93C375.319 155.974 375.36 156.021 375.403 156.065C375.447 156.109 375.494 156.149 375.537 156.193C375.581 156.237 375.622 156.284 375.666 156.328C375.709 156.371 375.756 156.412 375.799 156.455C375.843 156.499 375.884 156.546 375.928 156.59C375.972 156.634 376.018 156.675 376.062 156.718C376.106 156.763 376.147 156.809 376.191 156.853C376.235 156.897 376.281 156.938 376.325 156.982C376.369 157.026 376.409 157.072 376.453 157.116C376.497 157.16 376.543 157.201 376.587 157.244C376.631 157.288 376.672 157.335 376.716 157.379C376.759 157.423 376.806 157.463 376.849 157.507C376.893 157.551 376.934 157.598 376.978 157.642C377.022 157.686 377.068 157.726 377.112 157.77C377.156 157.814 377.197 157.861 377.241 157.905C377.284 157.948 377.331 157.989 377.375 158.033C377.418 158.077 377.459 158.123 377.503 158.167C377.547 158.211 377.594 158.252 377.638 158.296C377.681 158.34 377.722 158.386 377.766 158.43C377.809 158.474 377.856 158.514 377.899 158.558C377.943 158.602 377.984 158.649 378.028 158.693C378.072 158.737 378.118 158.777 378.162 158.821C378.206 158.865 378.247 158.912 378.291 158.956C378.334 159 378.381 159.04 378.425 159.084C378.468 159.128 378.509 159.175 378.553 159.219C378.597 159.263 378.644 159.303 378.688 159.347C378.731 159.391 378.772 159.438 378.816 159.481C378.859 159.525 378.905 159.566 378.949 159.609C378.993 159.653 379.034 159.7 379.078 159.744C379.122 159.788 379.168 159.829 379.212 159.872C379.256 159.916 379.297 159.963 379.341 160.007C379.384 160.051 379.431 160.092 379.475 160.135C379.518 160.179 379.559 160.226 379.603 160.27C379.647 160.314 379.694 160.355 379.738 160.398C379.781 160.442 379.822 160.489 379.865 160.533C379.909 160.576 379.955 160.617 379.999 160.66C380.043 160.705 380.084 160.752 380.128 160.796C380.172 160.839 380.218 160.88 380.262 160.924C380.306 160.968 380.347 161.015 380.39 161.058C380.434 161.102 380.481 161.143 380.525 161.187C380.568 161.231 380.609 161.277 380.653 161.321C380.697 161.365 380.743 161.406 380.788 161.45C380.831 161.494 380.872 161.54 380.915 161.584C380.959 161.628 381.005 161.668 381.049 161.712C381.093 161.756 381.134 161.803 381.178 161.847C381.222 161.891 381.268 161.931 381.312 161.975C381.356 162.019 381.396 162.066 381.44 162.11C381.484 162.154 381.531 162.194 381.575 162.238C381.618 162.282 381.659 162.329 381.703 162.373C381.747 162.417 381.793 162.457 381.837 162.501C381.881 162.545 381.922 162.592 381.965 162.635C382.009 162.679 382.056 162.72 382.099 162.763C382.143 162.808 382.184 162.854 382.228 162.898C382.271 162.942 382.318 162.982 382.361 163.026C382.405 163.07 382.446 163.117 382.49 163.161C382.534 163.205 382.581 163.246 382.624 163.289C382.668 163.333 382.709 163.38 382.753 163.424C382.797 163.468 382.843 163.509 382.887 163.552C382.931 163.596 382.971 163.643 383.015 163.687C383.059 163.73 383.106 163.771 383.149 163.815C383.193 163.859 383.234 163.906 383.278 163.949C383.321 163.993 383.368 164.034 383.411 164.077C383.455 164.121 383.496 164.168 383.54 164.212C383.584 164.256 383.631 164.297 383.674 164.34C383.718 164.385 383.759 164.431 383.803 164.475C383.846 164.519 383.893 164.56 383.937 164.603C383.98 164.647 384.021 164.694 384.065 164.738C384.109 164.782 384.156 164.823 384.2 164.867C384.243 164.91 384.284 164.957 384.328 165.001C384.371 165.044 384.418 165.085 384.461 165.128C384.505 165.173 384.546 165.22 384.59 165.264C384.634 165.307 384.68 165.348 384.724 165.392C384.768 165.436 384.809 165.483 384.853 165.526C384.896 165.57 384.943 165.611 384.987 165.655C385.03 165.699 385.071 165.745 385.115 165.789C385.159 165.833 385.206 165.874 385.25 165.918C385.293 165.962 385.334 166.008 385.378 166.052C385.421 166.096 385.468 166.136 385.511 166.18C385.555 166.224 385.596 166.271 385.64 166.315C385.684 166.359 385.73 166.399 385.774 166.443C385.818 166.487 385.859 166.534 385.903 166.578C385.946 166.622 385.993 166.662 386.037 166.706C386.08 166.75 386.121 166.797 386.165 166.841C386.209 166.885 386.256 166.925 386.3 166.969C386.343 167.013 386.384 167.06 386.428 167.103C386.471 167.147 386.518 167.188 386.561 167.231C386.605 167.275 386.646 167.322 386.69 167.366C386.734 167.41 386.78 167.451 386.824 167.494C386.868 167.538 386.909 167.585 386.952 167.629C386.996 167.673 387.043 167.714 387.087 167.757C387.13 167.801 387.171 167.848 387.215 167.892C387.259 167.936 387.306 167.977 387.35 168.02C387.393 168.064 387.434 168.111 387.477 168.155C387.521 168.198 387.567 168.239 387.611 168.282C387.655 168.327 387.696 168.374 387.74 168.418C387.784 168.461 387.83 168.502 387.874 168.546C387.918 168.59 387.959 168.636 388.002 168.68C388.046 168.724 388.093 168.765 388.137 168.809C388.18 168.853 388.221 168.899 388.265 168.943C388.309 168.987 388.356 169.028 388.4 169.072C388.443 169.116 388.484 169.162 388.527 169.206C388.571 169.25 388.618 169.29 388.662 169.334C388.705 169.378 388.746 169.425 388.79 169.469C388.833 169.512 388.88 169.553 388.924 169.596C388.967 169.641 389.008 169.688 389.052 169.732C389.096 169.775 389.143 169.816 389.186 169.86C389.23 169.904 389.271 169.951 389.315 169.995C389.359 170.038 389.405 170.079 389.449 170.123C389.493 170.167 389.534 170.214 389.577 170.257C389.621 170.301 389.668 170.342 389.711 170.385C389.755 170.429 389.796 170.476 389.84 170.52C389.883 170.564 389.93 170.604 389.973 170.648C390.017 170.692 390.058 170.739 390.102 170.783C390.146 170.827 390.193 170.867 390.236 170.911C390.28 170.955 390.321 171.002 390.365 171.046C390.408 171.09 390.455 171.13 390.499 171.174C390.543 171.218 390.583 171.265 390.627 171.309C390.671 171.353 390.718 171.393 390.762 171.437C390.805 171.481 390.846 171.528 390.89 171.571C390.933 171.615 390.98 171.656 391.023 171.699C391.067 171.743 391.108 171.79 391.152 171.834C391.196 171.878 391.242 171.919 391.286 171.962C391.33 172.006 391.371 172.053 391.415 172.097C391.458 172.141 391.505 172.182 391.549 172.225C391.593 172.269 391.633 172.316 391.677 172.36C391.721 172.404 391.768 172.445 391.812 172.488C391.855 172.532 391.896 172.579 391.94 172.623C391.983 172.666 392.03 172.707 392.073 172.75C392.117 172.795 392.158 172.842 392.202 172.886C392.246 172.929 392.292 172.97 392.336 173.014C392.38 173.058 392.421 173.105 392.465 173.148C392.508 173.192 392.555 173.233 392.599 173.277C392.643 173.321 392.683 173.367 392.727 173.411C392.771 173.455 392.818 173.496 392.862 173.54C392.905 173.584 392.946 173.63 392.99 173.674C393.033 173.718 393.08 173.758 393.123 173.802C393.167 173.846 393.208 173.893 393.252 173.937C393.296 173.981 393.342 174.021 393.386 174.065C393.43 174.109 393.471 174.156 393.515 174.2C393.558 174.244 393.605 174.284 393.649 174.328C393.692 174.372 393.733 174.419 393.777 174.463C393.821 174.507 393.868 174.547 393.912 174.591C393.955 174.635 393.996 174.682 394.04 174.725C394.083 174.769 394.13 174.81 394.173 174.853C394.217 174.897 394.258 174.944 394.302 174.988C394.346 175.032 394.392 175.073 394.436 175.116C394.48 175.16 394.521 175.207 394.564 175.251C394.608 175.295 394.655 175.336 394.699 175.379C394.742 175.423 394.783 175.47 394.827 175.514C394.871 175.558 394.918 175.599 394.962 175.642C395.005 175.686 395.046 175.733 395.089 175.777C395.133 175.82 395.18 175.861 395.224 175.905C395.267 175.949 395.308 175.996 395.352 176.039C395.396 176.083 395.442 176.124 395.486 176.167C395.53 176.211 395.57 176.258 395.614 176.302C395.658 176.346 395.705 176.387 395.749 176.43C395.792 176.475 395.833 176.521 395.877 176.565C395.921 176.609 395.967 176.65 396.011 176.694C396.055 176.738 396.096 176.784 396.139 176.828C396.183 176.872 396.23 176.912 396.273 176.956C396.317 177 396.358 177.047 396.402 177.091C396.445 177.134 396.492 177.175 396.536 177.218C396.579 177.263 396.62 177.31 396.664 177.354C396.708 177.397 396.755 177.438 396.798 177.482C396.842 177.526 396.883 177.573 396.927 177.616C396.971 177.66 397.017 177.701 397.061 177.745C397.105 177.789 397.145 177.835 397.189 177.879C397.233 177.923 397.28 177.964 397.324 178.008C397.368 178.052 397.408 178.098 397.452 178.142C397.495 178.186 397.542 178.226 397.586 178.27C397.629 178.314 397.67 178.361 397.714 178.405C397.758 178.449 397.805 178.489 397.848 178.533C397.892 178.577 397.933 178.624 397.977 178.668C398.02 178.712 398.067 178.752 398.111 178.796C398.155 178.84 398.195 178.887 398.239 178.931C398.283 178.975 398.33 179.015 398.374 179.059C398.417 179.103 398.458 179.15 398.502 179.193C398.545 179.237 398.592 179.278 398.635 179.321C398.679 179.365 398.72 179.412 398.764 179.456C398.808 179.5 398.854 179.541 398.898 179.584C398.942 179.628 398.983 179.675 399.027 179.719C399.07 179.763 399.117 179.804 399.161 179.847C399.205 179.891 399.245 179.938 399.289 179.982C399.333 180.026 399.38 180.067 399.424 180.11C399.467 180.154 399.508 180.201 399.552 180.245C399.595 180.288 399.642 180.329 399.685 180.372C399.729 180.417 399.77 180.464 399.814 180.508C399.858 180.551 399.904 180.592 399.948 180.636C399.992 180.68 400.033 180.727 400.077 180.77C400.12 180.814 400.167 180.855 400.211 180.898C400.254 180.943 400.295 180.989 400.339 181.033C400.383 181.077 400.43 181.118 400.474 181.162C400.517 181.206 400.558 181.252 400.602 181.296C400.645 181.34 400.692 181.38 400.735 181.424C400.779 181.468 400.82 181.515 400.864 181.559C400.908 181.603 400.954 181.643 400.998 181.687C401.042 181.731 401.083 181.778 401.127 181.822C401.17 181.865 401.217 181.906 401.261 181.95C401.304 181.994 401.345 182.041 401.389 182.085C401.433 182.128 401.48 182.169 401.524 182.213C401.567 182.257 401.608 182.304 401.652 182.347C401.695 182.391 401.742 182.432 401.786 182.475C401.829 182.52 401.87 182.566 401.914 182.61C401.958 182.654 402.004 182.694 402.048 182.738C402.092 182.782 402.132 182.829 402.177 182.873C402.22 182.917 402.267 182.957 402.311 183.001C402.354 183.045 402.395 183.092 402.439 183.136C402.483 183.18 402.53 183.221 402.574 183.264C402.617 183.308 402.658 183.355 402.702 183.399C402.745 183.442 402.792 183.483 402.836 183.527C402.879 183.571 402.92 183.618 402.964 183.661C403.008 183.705 403.054 183.746 403.098 183.789C403.142 183.833 403.182 183.88 403.226 183.924C403.27 183.968 403.317 184.009 403.361 184.052C403.404 184.096 403.445 184.143 403.489 184.187C403.533 184.231 403.579 184.272 403.623 184.315C403.667 184.359 403.707 184.406 403.751 184.45C403.795 184.494 403.842 184.535 403.886 184.578C403.93 184.622 403.97 184.669 404.014 184.713C404.057 184.756 404.104 184.797 404.148 184.84C404.191 184.885 404.232 184.932 404.276 184.976C404.32 185.019 404.367 185.06 404.41 185.104C404.454 185.148 404.495 185.195 404.539 185.238C404.583 185.282 404.629 185.323 404.673 185.367C404.717 185.411 404.757 185.457 404.801 185.501C404.845 185.545 404.892 185.586 404.936 185.63C404.979 185.674 405.02 185.72 405.064 185.764C405.107 185.808 405.154 185.848 405.198 185.892C405.241 185.936 405.282 185.983 405.326 186.027C405.37 186.071 405.416 186.111 405.46 186.155C405.504 186.199 405.545 186.246 405.589 186.29C405.632 186.334 405.679 186.374 405.723 186.418C405.767 186.462 405.807 186.509 405.851 186.553C405.895 186.597 405.942 186.637 405.986 186.681C406.029 186.725 406.07 186.772 406.114 186.815C406.157 186.859 406.204 186.9 406.247 186.943C406.291 186.987 406.332 187.034 406.376 187.078C406.42 187.122 406.467 187.163 406.51 187.206C406.554 187.25 406.595 187.297 406.639 187.341C406.682 187.385 406.729 187.426 406.773 187.469C406.817 187.513 406.857 187.56 406.901 187.604C406.945 187.648 406.992 187.689 407.036 187.732C407.079 187.776 407.12 187.823 407.164 187.867C407.207 187.91 407.254 187.951 407.297 187.994C407.341 188.039 407.382 188.085 407.426 188.13C407.47 188.173 407.516 188.214 407.56 188.258C407.604 188.302 407.645 188.348 407.689 188.392C407.732 188.436 407.779 188.477 407.823 188.52C407.866 188.565 407.907 188.611 407.951 188.655C407.995 188.699 408.042 188.74 408.086 188.784C408.129 188.828 408.17 188.874 408.214 188.918C408.257 188.962 408.304 189.002 408.348 189.046C408.391 189.09 408.432 189.137 408.476 189.181C408.52 189.224 408.566 189.265 408.61 189.308C408.654 189.353 408.695 189.4 408.739 189.444C408.782 189.487 408.829 189.528 408.873 189.572C408.916 189.616 408.957 189.663 409.001 189.706C409.045 189.75 409.092 189.791 409.136 189.835C409.179 189.879 409.22 189.926 409.264 189.969C409.307 190.013 409.354 190.054 409.398 190.097C409.441 190.141 409.482 190.188 409.526 190.232C409.57 190.276 409.616 190.316 409.66 190.36C409.704 190.404 409.744 190.451 409.789 190.495C409.832 190.539 409.879 190.579 409.923 190.623C409.966 190.667 410.007 190.714 410.051 190.758C410.095 190.802 410.141 190.842 410.185 190.886C410.229 190.93 410.27 190.977 410.314 191.021C410.357 191.065 410.404 191.105 410.448 191.149C410.492 191.193 410.532 191.24 410.576 191.283C410.62 191.327 410.666 191.368 410.71 191.411C410.754 191.455 410.794 191.502 410.838 191.546C410.882 191.59 410.929 191.631 410.973 191.674C411.016 191.718 411.057 191.765 411.101 191.809C411.145 191.853 411.191 191.894 411.235 191.937C411.279 191.981 411.32 192.028 411.363 192.072C411.407 192.116 411.454 192.157 411.498 192.2C411.542 192.244 411.582 192.291 411.626 192.335C411.669 192.378 411.716 192.419 411.76 192.462C411.803 192.507 411.844 192.553 411.888 192.598C411.932 192.641 411.979 192.682 412.023 192.726C412.066 192.77 412.107 192.816 412.151 192.86C412.195 192.904 412.241 192.945 412.285 192.988C412.329 193.033 412.369 193.079 412.413 193.123C412.457 193.167 412.504 193.208 412.548 193.252C412.591 193.296 412.632 193.342 412.676 193.386C412.719 193.43 412.766 193.47 412.81 193.514C412.853 193.558 412.894 193.605 412.938 193.649C412.982 193.693 413.029 193.733 413.072 193.777C413.116 193.821 413.157 193.868 413.201 193.912C413.244 193.956 413.291 193.996 413.335 194.04C413.379 194.084 413.419 194.131 413.463 194.175C413.507 194.218 413.554 194.259 413.598 194.303C413.641 194.347 413.682 194.394 413.726 194.437C413.769 194.481 413.816 194.521 413.859 194.565C413.903 194.609 413.944 194.656 413.988 194.7C414.032 194.744 414.079 194.785 414.122 194.828C414.166 194.872 414.207 194.919 414.251 194.963C414.294 195.007 414.341 195.047 414.385 195.091C414.428 195.135 414.469 195.182 414.513 195.226C414.557 195.27 414.604 195.311 414.648 195.354C414.691 195.398 414.732 195.445 414.776 195.489C414.819 195.532 414.866 195.573 414.91 195.617C414.954 195.661 414.994 195.708 415.038 195.751C415.082 195.795 415.128 195.836 415.172 195.879C415.216 195.923 415.257 195.97 415.301 196.014C415.344 196.058 415.391 196.099 415.435 196.142C415.479 196.186 415.519 196.233 415.563 196.277C415.607 196.321 415.654 196.362 415.698 196.406C415.741 196.45 415.782 196.496 415.826 196.54C415.869 196.584 415.916 196.624 415.96 196.668C416.004 196.712 416.044 196.759 416.088 196.803C416.132 196.846 416.178 196.887 416.222 196.93C416.266 196.975 416.306 197.022 416.351 197.066C416.394 197.109 416.441 197.15 416.485 197.194C416.528 197.238 416.569 197.285 416.613 197.328C416.657 197.372 416.703 197.413 416.747 197.457C416.791 197.501 416.832 197.547 416.876 197.591C416.919 197.635 416.966 197.676 417.01 197.72C417.054 197.764 417.094 197.81 417.138 197.854C417.182 197.898 417.228 197.938 417.272 197.982C417.316 198.026 417.356 198.073 417.401 198.117C417.444 198.161 417.491 198.201 417.535 198.245C417.578 198.289 417.619 198.336 417.663 198.38C417.707 198.424 417.753 198.464 417.797 198.508C417.841 198.552 417.882 198.599 417.925 198.643C417.969 198.687 418.016 198.727 418.06 198.771C418.104 198.815 418.144 198.862 418.188 198.905C418.232 198.949 418.278 198.99 418.322 199.033C418.366 199.077 418.406 199.124 418.45 199.168C418.494 199.212 418.541 199.253 418.585 199.296C418.628 199.34 418.669 199.387 418.713 199.431C418.757 199.475 418.803 199.516 418.847 199.559C418.891 199.603 418.932 199.65 418.975 199.694C419.019 199.738 419.066 199.779 419.11 199.822C419.154 199.866 419.194 199.913 419.238 199.957C419.282 200 419.328 200.041 419.372 200.084C419.416 200.129 419.456 200.175 419.5 200.22C419.544 200.263 419.591 200.304 419.635 200.348C419.678 200.392 419.719 200.438 419.763 200.482C419.807 200.526 419.853 200.567 419.897 200.61C419.941 200.655 419.981 200.701 420.025 200.745C420.069 200.789 420.116 200.83 420.16 200.874C420.204 200.918 420.244 200.964 420.288 201.008C420.331 201.052 420.378 201.092 420.422 201.136C420.465 201.18 420.506 201.227 420.55 201.271C420.594 201.315 420.641 201.355 420.684 201.399C420.728 201.443 420.769 201.49 420.813 201.534C420.857 201.577 420.903 201.618 420.947 201.662C420.991 201.706 421.031 201.753 421.075 201.796C421.119 201.84 421.166 201.881 421.21 201.925C421.254 201.969 421.294 202.016 421.338 202.059C421.382 202.103 421.428 202.144 421.472 202.187C421.516 202.231 421.556 202.278 421.6 202.322C421.644 202.366 421.69 202.406 421.734 202.45C421.778 202.494 421.819 202.541 421.863 202.585C421.906 202.629 421.953 202.669 421.997 202.713C422.041 202.757 422.081 202.804 422.125 202.848C422.169 202.892 422.216 202.933 422.26 202.976C422.303 203.02 422.344 203.067 422.388 203.111C422.431 203.154 422.478 203.195 422.522 203.239C422.566 203.283 422.606 203.33 422.65 203.373C422.694 203.417 422.74 203.458 422.784 203.501C422.828 203.545 422.869 203.592 422.913 203.636C422.956 203.68 423.003 203.721 423.047 203.764C423.091 203.808 423.131 203.855 423.175 203.899C423.219 203.943 423.265 203.984 423.309 204.027C423.353 204.071 423.394 204.118 423.438 204.162C423.481 204.206 423.528 204.247 423.572 204.29C423.616 204.334 423.656 204.381 423.7 204.425C423.744 204.468 423.79 204.509 423.834 204.552C423.878 204.597 423.919 204.643 423.963 204.688C424.006 204.731 424.053 204.772 424.097 204.816C424.14 204.86 424.181 204.906 424.225 204.95C424.269 204.994 424.315 205.035 424.359 205.078C424.403 205.123 424.444 205.169 424.488 205.213C424.531 205.257 424.578 205.298 424.622 205.342C424.666 205.386 424.706 205.432 424.75 205.476C424.794 205.52 424.84 205.56 424.884 205.604C424.928 205.648 424.969 205.695 425.013 205.739C425.056 205.783 425.103 205.823 425.147 205.867C425.19 205.911 425.231 205.958 425.275 206.002C425.319 206.045 425.365 206.086 425.409 206.13C425.453 206.174 425.494 206.221 425.537 206.264C425.581 206.308 425.628 206.349 425.672 206.393C425.716 206.437 425.756 206.484 425.8 206.527C425.844 206.571 425.89 206.611 425.934 206.655C425.978 206.699 426.018 206.746 426.062 206.79C426.106 206.834 426.153 206.875 426.197 206.918C426.24 206.962 426.281 207.009 426.325 207.053C426.369 207.097 426.415 207.137 426.459 207.181C426.503 207.225 426.544 207.272 426.587 207.316C426.631 207.36 426.678 207.401 426.722 207.444C426.766 207.488 426.806 207.535 426.85 207.579C426.893 207.622 426.94 207.663 426.984 207.706C427.028 207.75 427.068 207.797 427.112 207.841C427.156 207.885 427.203 207.926 427.246 207.97C427.29 208.014 427.331 208.06 427.375 208.104C427.419 208.148 427.465 208.189 427.509 208.232C427.553 208.276 427.593 208.323 427.637 208.367C427.681 208.411 427.728 208.452 427.772 208.496C427.816 208.54 427.856 208.586 427.9 208.63C427.944 208.674 427.99 208.714 428.034 208.758C428.078 208.802 428.118 208.849 428.162 208.893C428.206 208.936 428.252 208.977 428.296 209.02C428.34 209.065 428.381 209.112 428.425 209.156C428.469 209.199 428.515 209.24 428.559 209.284C428.603 209.328 428.643 209.375 428.687 209.418C428.731 209.462 428.778 209.503 428.822 209.547C428.865 209.591 428.906 209.637 428.95 209.681C428.993 209.725 429.04 209.766 429.084 209.809C429.128 209.853 429.168 209.9 429.212 209.944C429.256 209.988 429.302 210.028 429.346 210.072C429.39 210.116 429.431 210.163 429.475 210.207C429.518 210.251 429.565 210.291 429.609 210.335C429.653 210.379 429.693 210.426 429.737 210.47C429.781 210.514 429.827 210.554 429.871 210.598C429.915 210.642 429.956 210.689 430 210.733C430.044 210.777 430.09 210.817 430.134 210.861C430.178 210.905 430.219 210.952 430.262 210.995C430.306 211.039 430.352 211.08 430.396 211.123C430.44 211.167 430.481 211.214 430.525 211.258C430.568 211.302 430.615 211.343 430.659 211.386C430.703 211.43 430.743 211.477 430.787 211.521C430.831 211.565 430.877 211.605 430.921 211.649C430.965 211.693 431.006 211.74 431.05 211.784C431.094 211.828 431.14 211.869 431.184 211.912C431.228 211.956 431.268 212.003 431.312 212.047C431.356 212.09 431.402 212.131 431.446 212.174C431.49 212.219 431.531 212.265 431.575 212.31C431.618 212.353 431.665 212.394 431.709 212.438C431.752 212.482 431.793 212.528 431.837 212.572C436.101 216.845 441.155 220.259 446.862 222.72C452.568 225.184 458.708 226.434 465.111 226.434C471.595 226.434 477.753 225.185 483.417 222.721C489.086 220.26 494.122 216.845 498.386 212.572C502.654 208.303 506.063 203.242 508.52 197.528C510.981 191.814 512.23 185.666 512.23 179.254C512.23 172.762 510.982 166.595 508.521 160.925L508.52 160.925Z" fill="#002971"/>
</g>
</g>
</g>
<path id="Vector_8" d="M360.309 121.305C353.906 121.305 347.765 120.055 342.059 117.591C336.353 115.13 331.298 111.716 327.035 107.443C322.766 103.174 319.357 98.1124 316.9 92.3992C314.438 86.6955 313.191 80.5478 313.191 74.1251C313.191 67.6219 314.438 61.4556 316.898 55.7973C319.356 50.12 322.766 45.0773 327.034 40.8078C331.298 36.5336 336.353 33.12 342.059 30.6603C347.755 28.1949 353.895 26.9451 360.309 26.9451C366.803 26.9451 372.962 28.1946 378.612 30.6585C384.284 33.1193 389.32 36.5336 393.583 40.8071C397.851 45.0773 401.262 50.12 403.718 55.7958C406.18 61.4659 407.427 67.6326 407.427 74.1251C407.427 80.5371 406.179 86.6849 403.718 92.3985C401.26 98.1124 397.851 103.174 393.583 107.442C389.32 111.716 384.284 115.131 378.615 117.591C372.951 120.056 366.793 121.305 360.309 121.305ZM350.144 93.6943C351.123 97.285 352.401 100.714 353.946 103.886C355.494 107.064 357.348 110.158 359.458 113.084L360.309 114.265L361.161 113.084C363.273 110.154 365.127 107.06 366.671 103.886C368.215 100.718 369.494 97.2882 370.474 93.6943L370.836 92.3664H349.782L350.144 93.6943ZM326.164 93.9449C328.535 98.039 331.548 101.66 335.119 104.708C338.697 107.757 342.85 110.055 347.464 111.541L349.966 112.346L348.707 110.037C347.299 107.452 346.044 104.717 344.976 101.909C343.911 99.1059 343.013 96.1675 342.304 93.1752L342.113 92.3664H325.25L326.164 93.9449ZM378.313 93.1756C377.599 96.1949 376.701 99.133 375.643 101.907C374.577 104.713 373.321 107.448 371.911 110.037L370.653 112.346L373.154 111.541C377.767 110.055 381.92 107.757 385.498 104.709C389.065 101.669 392.078 98.0475 394.454 93.9449L395.367 92.3664H378.505L378.313 93.1756ZM380.224 64.6354C380.462 66.2249 380.643 67.8027 380.76 69.3248C380.876 70.832 380.934 72.4468 380.934 74.1251C380.934 75.8034 380.876 77.4183 380.76 78.9254C380.643 80.4483 380.462 82.0257 380.224 83.6149L380.042 84.8226H398.459L398.658 84.0259C399.068 82.3801 399.38 80.7363 399.586 79.1411C399.79 77.5284 399.894 75.8416 399.894 74.1251C399.894 72.4087 399.79 70.7218 399.587 69.112C399.38 67.5143 399.068 65.8709 398.658 64.2244L398.459 63.4276H380.042L380.224 64.6354ZM347.951 64.3227C347.706 65.9625 347.519 67.5909 347.398 69.1633C347.278 70.724 347.216 72.3934 347.216 74.1251C347.216 75.8569 347.278 77.5263 347.398 79.0873C347.519 80.6601 347.706 82.2884 347.951 83.9275L348.085 84.8226H372.532L372.666 83.9279C372.913 82.2888 373.099 80.6601 373.22 79.0869C373.34 77.5266 373.401 75.8569 373.401 74.1251C373.401 72.393 373.34 70.7236 373.22 69.1633C373.099 67.5909 372.913 65.9622 372.666 64.3224L372.532 63.4276H348.085L347.951 64.3227ZM321.959 64.2243C321.549 65.8709 321.237 67.5146 321.032 69.1095C320.827 70.7243 320.724 72.4108 320.724 74.1251C320.724 75.8394 320.827 77.5259 321.031 79.1383C321.237 80.7363 321.549 82.3801 321.959 84.0259L322.158 84.8226H340.575L340.394 83.6152C340.156 82.0257 339.975 80.4479 339.858 78.9254C339.742 77.4183 339.683 75.8031 339.683 74.1251C339.683 72.4468 339.742 70.832 339.858 69.3252C339.975 67.803 340.156 66.2249 340.394 64.635L340.575 63.4276H322.158L321.959 64.2243ZM371.911 38.2141C373.321 40.8014 374.576 43.5359 375.643 46.3417C376.701 49.1176 377.599 52.0557 378.313 55.075L378.505 55.8839H395.367L394.454 54.3054C392.077 50.2023 389.064 46.5809 385.498 43.5416C381.92 40.4941 377.768 38.1955 373.154 36.7097L370.653 35.9044L371.911 38.2141ZM359.458 35.1662C357.348 38.0921 355.494 41.1864 353.946 44.3636C352.402 47.5356 351.123 50.9649 350.144 54.556L349.782 55.8839H370.836L370.474 54.556C369.494 50.9613 368.215 47.5323 366.671 44.3636C365.126 41.1906 363.272 38.0964 361.161 35.1662L360.309 33.9852L359.458 35.1662ZM347.464 36.7097C342.85 38.1952 338.697 40.4937 335.12 43.5416C331.548 46.5898 328.536 50.2109 326.164 54.305L325.25 55.8839H342.113L342.304 55.075C343.013 52.0831 343.911 49.1447 344.976 46.3414C346.044 43.5316 347.3 40.7971 348.707 38.2144L349.966 35.9044L347.464 36.7097Z" fill="#7AA5E7"/>
</g>
</g>
</g>
<defs>
<linearGradient id="paint0_linear_22_844" x1="145" y1="7.84235e-07" x2="306" y2="171" gradientUnits="userSpaceOnUse">
<stop stop-color="#7AA5E7"/>
<stop offset="0.99716" stop-color="#003BA1"/>
</linearGradient>
</defs>
</svg>
