<svg width="577" height="146" viewBox="0 0 577 146" fill="none" xmlns="http://www.w3.org/2000/svg">
<path d="M531.344 74.6763C549.362 74.6763 563.969 60.0696 563.969 42.0513C563.969 24.033 549.362 9.42633 531.344 9.42633C513.325 9.42633 498.719 24.033 498.719 42.0513C498.719 60.0696 513.325 74.6763 531.344 74.6763Z" fill="#457AA5"/>
<path d="M577 145.427H432V0.426636L577 145.427Z" fill="#457AA5"/>
<path d="M288.573 144.427V2.69634e-05H360.623C400.596 2.69634e-05 433 32.331 433 72.2134C433 112.096 400.596 144.427 360.623 144.427L288.573 144.427Z" fill="#457AA5"/>
<g clip-path="url(#clip0_308_181)">
<path d="M216.5 145.427C256.541 145.427 289 112.967 289 72.9268C289 32.8861 256.541 0.426758 216.5 0.426758C176.459 0.426758 144 32.8861 144 72.9268C144 112.967 176.459 145.427 216.5 145.427Z" fill="#457AA5"/>
<path style="mix-blend-mode:multiply" opacity="0.58" d="M288.517 81.29L260.227 52.9997C260.14 52.9109 260.051 52.8245 259.963 52.736C259.877 52.6479 259.788 52.5622 259.702 52.4745C259.615 52.3852 259.525 52.2989 259.438 52.2104C259.351 52.1219 259.262 52.0355 259.175 51.9474C259.088 51.8585 258.998 51.7722 258.911 51.6837C255.536 48.2296 251.78 45.1535 247.64 42.456C238.217 36.316 227.792 33.2459 216.364 33.2459C204.936 33.2459 194.511 36.316 185.088 42.456C175.664 48.5965 168.223 56.6961 162.765 66.7612C162.339 67.5285 162.019 68.3168 161.806 69.13C161.593 69.9387 161.486 70.7677 161.486 71.622C161.486 72.4767 161.593 73.3056 161.806 74.1193C162.019 74.9276 162.339 75.7155 162.765 76.4831C165.887 82.2399 169.661 87.3512 174.08 91.8237C174.167 91.9118 174.255 91.9978 174.342 92.0856L225.243 143.497L225.911 143.654C225.997 143.742 226.087 143.829 226.174 143.917C226.261 144.006 226.35 144.092 226.437 144.18C226.603 144.349 226.78 144.507 226.948 144.675C259.317 140.002 284.765 113.948 288.517 81.29Z" fill="url(#paint0_linear_308_181)"/>
<path d="M200.054 87.9345C195.577 83.4521 193.338 78.0181 193.338 71.6221C193.338 65.226 195.577 59.792 200.054 55.3096C204.531 50.8376 209.968 48.5964 216.364 48.5964C222.76 48.5964 228.197 50.8376 232.674 55.3096C237.151 59.792 239.39 65.226 239.39 71.6221C239.39 78.0181 237.151 83.4521 232.674 87.9345C228.197 92.4066 222.76 94.6478 216.364 94.6478C209.968 94.6478 204.531 92.4066 200.054 87.9345ZM226.15 81.4105C228.836 78.7242 230.179 75.4597 230.179 71.6221C230.179 67.7845 228.836 64.5251 226.15 61.8387C223.463 59.1472 220.202 57.8067 216.364 57.8067C212.526 57.8067 209.264 59.1472 206.578 61.8387C203.892 64.5251 202.549 67.7845 202.549 71.6221C202.549 75.4597 203.892 78.7242 206.578 81.4105C209.264 84.0969 212.526 85.4375 216.364 85.4375C220.202 85.4375 223.463 84.0969 226.15 81.4105Z" fill="#CDDDE9"/>
<mask id="mask0_308_181" style="mask-type:luminance" maskUnits="userSpaceOnUse" x="154" y="12" width="124" height="124">
<path d="M277.766 12.7786H154.962V135.582H277.766V12.7786Z" fill="#D8D8D8"/>
</mask>
<g mask="url(#mask0_308_181)">
<path d="M216.364 109.998C204.936 109.998 194.511 106.928 185.087 100.788C175.664 94.6478 168.223 86.5479 162.765 76.483C162.339 75.7155 162.019 74.9275 161.806 74.1191C161.593 73.3055 161.486 72.4766 161.486 71.6221C161.486 70.7675 161.593 69.9387 161.806 69.1302C162.019 68.3166 162.339 67.5286 162.765 66.7611C168.223 56.6963 175.664 48.5964 185.087 42.4562C194.511 36.316 204.936 33.2459 216.364 33.2459C227.791 33.2459 238.217 36.316 247.64 42.4562C257.064 48.5964 264.505 56.6963 269.963 66.7611C270.389 67.5286 270.709 68.3166 270.922 69.1302C271.135 69.9387 271.242 70.7675 271.242 71.6221C271.242 72.4766 271.135 73.3055 270.922 74.1191C270.709 74.9275 270.389 75.7155 269.963 76.483C264.505 86.5479 257.064 94.6478 247.64 100.788C238.217 106.928 227.792 109.998 216.364 109.998ZM216.364 99.7646C226.001 99.7646 234.848 97.2266 242.907 92.1507C250.966 87.08 257.128 80.2337 261.392 71.6221C257.128 63.0105 250.966 56.1642 242.907 51.0883C234.848 46.0175 226.001 43.4796 216.364 43.4796C206.727 43.4796 197.879 46.0175 189.821 51.0883C181.762 56.1642 175.6 63.0105 171.336 71.6221C175.6 80.2337 181.762 87.08 189.821 92.1507C197.879 97.2266 206.727 99.7646 216.364 99.7646Z" fill="#0E324F"/>
</g>
<mask id="mask1_308_181" style="mask-type:luminance" maskUnits="userSpaceOnUse" x="154" y="12" width="124" height="124">
<path d="M277.766 12.7786H154.962V135.582H277.766V12.7786Z" fill="#D8D8D8"/>
</mask>
<g mask="url(#mask1_308_181)">
<path d="M216.364 109.998C204.936 109.998 194.511 106.928 185.087 100.788C175.664 94.6478 168.223 86.5479 162.765 76.483C162.339 75.7155 162.019 74.9275 161.806 74.1191C161.593 73.3055 161.486 72.4766 161.486 71.6221C161.486 70.7675 161.593 69.9387 161.806 69.1302C162.019 68.3166 162.339 67.5286 162.765 66.7611C168.223 56.6963 175.664 48.5964 185.087 42.4562C194.511 36.316 204.936 33.2459 216.364 33.2459C227.791 33.2459 238.217 36.316 247.64 42.4562C257.064 48.5964 264.505 56.6963 269.963 66.7611C270.389 67.5286 270.709 68.3166 270.922 69.1302C271.135 69.9387 271.242 70.7675 271.242 71.6221C271.242 72.4766 271.135 73.3055 270.922 74.1191C270.709 74.9275 270.389 75.7155 269.963 76.483C264.505 86.5479 257.064 94.6478 247.64 100.788C238.217 106.928 227.792 109.998 216.364 109.998ZM216.364 99.7646C226.001 99.7646 234.848 97.2266 242.907 92.1507C250.966 87.08 257.128 80.2337 261.392 71.6221C257.128 63.0105 250.966 56.1642 242.907 51.0883C234.848 46.0175 226.001 43.4796 216.364 43.4796C206.727 43.4796 197.879 46.0175 189.821 51.0883C181.762 56.1642 175.6 63.0105 171.336 71.6221C175.6 80.2337 181.762 87.08 189.821 92.1507C197.879 97.2266 206.727 99.7646 216.364 99.7646Z" fill="#CDDDE9"/>
</g>
</g>
<path d="M39.822 0.426758C17.8289 0.426758 0 18.2792 0 40.3018V145.427H144.807V0.426758H39.822Z" fill="#457AA5"/>
<mask id="mask2_308_181" style="mask-type:luminance" maskUnits="userSpaceOnUse" x="0" y="0" width="146" height="146">
<path d="M40.0152 0.426758C18.0221 0.426758 0.193228 18.2792 0.193228 40.3018V145.427H145V0.426758H40.0152Z" fill="white"/>
</mask>
<g mask="url(#mask2_308_181)">
<path style="mix-blend-mode:multiply" opacity="0.58" d="M197.448 181.481C197.398 181.369 197.315 181.278 197.185 181.218C197.136 181.106 197.052 181.015 196.923 180.955C196.873 180.843 196.79 180.752 196.66 180.692C196.61 180.579 196.527 180.489 196.397 180.428C196.347 180.316 196.264 180.225 196.134 180.165C196.085 180.053 196.001 179.962 195.872 179.902C195.822 179.79 195.739 179.699 195.609 179.639C195.559 179.527 195.476 179.436 195.346 179.376C195.296 179.264 195.213 179.173 195.083 179.113C195.034 179.001 194.95 178.91 194.821 178.85C194.771 178.738 194.688 178.647 194.558 178.587C194.508 178.475 194.425 178.384 194.295 178.324C194.245 178.211 194.162 178.121 194.032 178.061C193.982 177.948 193.899 177.857 193.77 177.797C193.72 177.685 193.636 177.594 193.507 177.534C193.457 177.422 193.374 177.331 193.244 177.271C193.194 177.159 193.111 177.068 192.981 177.008C192.931 176.896 192.848 176.805 192.719 176.745C192.669 176.633 192.585 176.542 192.456 176.482C192.406 176.37 192.323 176.279 192.193 176.219C192.143 176.107 192.06 176.016 191.93 175.956C191.88 175.844 191.797 175.753 191.668 175.692C191.618 175.58 191.534 175.49 191.405 175.429C191.355 175.317 191.272 175.226 191.142 175.166C191.092 175.054 191.009 174.963 190.879 174.903C190.829 174.791 190.746 174.7 190.617 174.64C190.567 174.528 190.483 174.437 190.354 174.377C190.304 174.265 190.221 174.174 190.091 174.114C190.041 174.002 189.958 173.911 189.828 173.851C189.778 173.739 189.695 173.648 189.566 173.588C189.516 173.476 189.432 173.385 189.303 173.325C189.253 173.212 189.17 173.122 189.04 173.061C188.99 172.949 188.907 172.858 188.777 172.798C188.727 172.686 188.644 172.595 188.514 172.535C188.465 172.423 188.381 172.332 188.252 172.272C188.202 172.16 188.119 172.069 187.989 172.009C187.939 171.897 187.856 171.806 187.726 171.746C187.676 171.634 187.593 171.543 187.463 171.483C187.414 171.371 187.33 171.28 187.201 171.22C187.151 171.108 187.068 171.017 186.938 170.957C186.888 170.845 186.805 170.754 186.675 170.694C186.625 170.581 186.542 170.491 186.412 170.43C186.363 170.318 186.279 170.227 186.15 170.167C186.1 170.055 186.017 169.964 185.887 169.904C185.837 169.792 185.754 169.701 185.624 169.641C185.574 169.529 185.491 169.438 185.361 169.378C185.311 169.266 185.228 169.175 185.099 169.115C185.049 169.003 184.965 168.912 184.836 168.852C184.786 168.74 184.703 168.649 184.573 168.589C184.523 168.477 184.44 168.386 184.31 168.326C184.26 168.213 184.177 168.123 184.048 168.063C183.998 167.95 183.915 167.859 183.785 167.799C183.735 167.687 183.652 167.596 183.522 167.536C183.472 167.424 183.389 167.333 183.259 167.273C183.209 167.161 183.126 167.07 182.997 167.01C182.947 166.898 182.864 166.807 182.734 166.747C182.684 166.635 182.601 166.544 182.471 166.484C182.421 166.372 182.338 166.281 182.208 166.221C182.158 166.109 182.075 166.018 181.946 165.958C181.896 165.846 181.812 165.755 181.683 165.694C181.633 165.582 181.55 165.492 181.42 165.431C181.4 165.386 181.38 165.34 181.346 165.303C181.638 161.793 182.903 158.387 183.011 154.871C183.121 151.279 183.634 147.687 183.198 144.124C182.812 140.961 181.603 137.205 181.854 134.019C181.915 133.246 182.037 132.769 182.251 132.031C183.135 129.583 182.299 127.006 182.308 124.589C182.316 122.19 182.649 120.901 181.826 120.291C181.756 120.191 181.667 120.105 181.563 120.028C181.493 119.928 181.404 119.841 181.3 119.764C181.23 119.665 181.141 119.578 181.037 119.501C180.967 119.402 180.879 119.315 180.775 119.238C180.705 119.138 180.616 119.052 180.512 118.975C180.442 118.875 180.353 118.789 180.249 118.712C180.179 118.612 180.09 118.526 179.986 118.449C179.916 118.349 179.828 118.263 179.724 118.186C179.654 118.086 179.565 118 179.461 117.923C179.391 117.823 179.302 117.737 179.198 117.659C179.128 117.56 179.039 117.473 178.935 117.396C178.865 117.297 178.777 117.21 178.673 117.133C178.603 117.034 178.514 116.947 178.41 116.87C178.34 116.77 178.251 116.684 178.147 116.607C178.077 116.507 177.988 116.421 177.884 116.344C177.814 116.244 177.726 116.158 177.622 116.081C177.552 115.981 177.463 115.895 177.359 115.818C177.289 115.718 177.2 115.632 177.096 115.555C177.026 115.455 176.937 115.369 176.833 115.292C176.763 115.192 176.675 115.106 176.571 115.028C176.501 114.929 176.412 114.843 176.308 114.765C176.238 114.666 176.149 114.579 176.045 114.502C175.975 114.403 175.886 114.316 175.782 114.239C175.712 114.139 175.624 114.053 175.52 113.976C175.45 113.876 175.361 113.79 175.257 113.713C175.187 113.613 175.098 113.527 174.994 113.45C174.924 113.35 174.835 113.264 174.731 113.187C174.661 113.087 174.573 113.001 174.469 112.924C174.399 112.824 174.31 112.738 174.206 112.661C174.136 112.561 174.047 112.475 173.943 112.398C173.873 112.298 173.784 112.211 173.68 112.134C173.61 112.035 173.522 111.948 173.418 111.871C173.348 111.771 173.259 111.685 173.155 111.608C173.085 111.508 172.996 111.422 172.892 111.345C172.822 111.245 172.733 111.159 172.629 111.082C172.559 110.982 172.471 110.896 172.367 110.819C172.297 110.719 172.208 110.633 172.104 110.556C172.034 110.456 171.945 110.37 171.841 110.293C171.771 110.193 171.682 110.107 171.578 110.029C171.508 109.93 171.42 109.843 171.316 109.766C171.246 109.667 171.157 109.58 171.053 109.503C170.983 109.404 170.894 109.317 170.79 109.24C170.72 109.14 170.631 109.054 170.527 108.977C170.457 108.877 170.369 108.791 170.265 108.714C170.195 108.614 170.106 108.528 170.002 108.451C169.932 108.351 169.843 108.265 169.739 108.188C169.669 108.088 169.58 108.002 169.476 107.925C169.406 107.825 169.318 107.739 169.213 107.662C169.144 107.562 169.055 107.476 168.951 107.398C168.881 107.299 168.792 107.213 168.688 107.135C168.618 107.036 168.529 106.949 168.425 106.872C168.355 106.773 168.267 106.686 168.162 106.609C168.092 106.509 168.004 106.423 167.9 106.346C167.83 106.246 167.741 106.16 167.637 106.083C167.567 105.983 167.478 105.897 167.374 105.82C167.304 105.72 167.216 105.634 167.111 105.557C167.041 105.457 166.953 105.371 166.849 105.294C166.779 105.194 166.69 105.108 166.586 105.031C166.516 104.931 166.427 104.845 166.323 104.768C166.253 104.668 166.164 104.581 166.06 104.504C165.99 104.405 165.902 104.318 165.798 104.241C165.728 104.141 165.639 104.055 165.535 103.978C165.465 103.878 165.376 103.792 165.272 103.715C165.202 103.615 165.113 103.529 165.009 103.452C164.939 103.352 164.851 103.266 164.747 103.189C164.677 103.089 164.588 103.003 164.484 102.926C164.414 102.826 164.325 102.74 164.221 102.663C164.151 102.563 164.062 102.477 163.958 102.399C163.888 102.3 163.8 102.213 163.696 102.136C163.626 102.037 163.537 101.95 163.433 101.873C163.363 101.774 163.274 101.687 163.17 101.61C163.1 101.51 163.011 101.424 162.907 101.347C162.837 101.247 162.749 101.161 162.645 101.084C162.575 100.984 162.486 100.898 162.382 100.821C162.312 100.721 162.223 100.635 162.119 100.558C162.049 100.458 161.96 100.372 161.856 100.295C161.786 100.195 161.698 100.109 161.594 100.031C161.524 99.9318 161.435 99.8455 161.331 99.7685C161.261 99.6687 161.172 99.5825 161.068 99.5054C160.998 99.4057 160.909 99.3195 160.805 99.2424C160.735 99.1425 160.647 99.0562 160.543 98.9791C160.473 98.8794 160.384 98.7931 160.28 98.716C160.21 98.6163 160.121 98.5301 160.017 98.453C159.947 98.3533 159.858 98.2671 159.754 98.1899C159.684 98.0901 159.596 98.0038 159.491 97.9266C159.422 97.827 159.333 97.7407 159.229 97.6636C159.159 97.5639 159.07 97.4777 158.966 97.4005C158.896 97.3008 158.807 97.2147 158.703 97.1375C158.633 97.0377 158.545 96.9514 158.44 96.8742C158.371 96.7746 158.282 96.6883 158.178 96.6112C158.108 96.5115 158.019 96.4252 157.915 96.3481C157.845 96.2484 157.756 96.1623 157.652 96.0851C157.582 95.9853 157.494 95.899 157.389 95.8218C157.32 95.7222 157.231 95.6359 157.127 95.5588C157.057 95.4591 156.968 95.3728 156.864 95.2957C156.794 95.196 156.705 95.1098 156.601 95.0327C156.531 94.9329 156.443 94.8466 156.338 94.7694C156.268 94.6697 156.18 94.5835 156.076 94.5064C156.006 94.4066 155.917 94.3204 155.813 94.2433C155.743 94.1436 155.654 94.0573 155.55 93.9802C155.48 93.8805 155.392 93.7943 155.288 93.7172C155.218 93.6174 155.129 93.531 155.025 93.4539C154.955 93.3542 154.866 93.268 154.762 93.1909C154.692 93.0911 154.603 93.0049 154.499 92.9278C154.429 92.8281 154.341 92.7419 154.237 92.6648C154.167 92.5649 154.078 92.4786 153.974 92.4015C153.904 92.3018 153.815 92.2155 153.711 92.1385C153.641 92.0387 153.552 91.9525 153.448 91.8754C153.378 91.7757 153.29 91.6895 153.186 91.6124C153.116 91.5125 153.027 91.4262 152.923 91.349C152.853 91.2494 152.764 91.1631 152.66 91.086C152.59 90.9863 152.501 90.9001 152.397 90.8229C152.327 90.7233 152.239 90.6371 152.135 90.5599C152.065 90.4601 151.976 90.3738 151.872 90.2966C151.802 90.197 151.713 90.1107 151.609 90.0336C151.539 89.9339 151.45 89.8477 151.346 89.7705C151.276 89.6708 151.188 89.5847 151.084 89.5075C151.014 89.4077 150.925 89.3214 150.821 89.2442C150.751 89.1446 150.662 89.0583 150.558 88.9812C150.488 88.8815 150.399 88.7952 150.295 88.7181C150.225 88.6184 150.137 88.5322 150.033 88.4551C149.963 88.3553 149.874 88.269 149.77 88.1918C149.7 88.0921 149.611 88.0059 149.507 87.9288C149.437 87.8291 149.348 87.7428 149.244 87.6657C149.174 87.566 149.085 87.4797 148.981 87.4026C148.911 87.3029 148.823 87.2167 148.719 87.1396C148.649 87.0398 148.56 86.9535 148.456 86.8763C148.386 86.7766 148.297 86.6904 148.193 86.6133C148.123 86.5135 148.034 86.4273 147.93 86.3502C147.86 86.2505 147.772 86.1643 147.668 86.0872C147.598 85.9874 147.509 85.901 147.405 85.8239C147.335 85.7242 147.246 85.6379 147.142 85.5609C147.072 85.4611 146.983 85.3749 146.879 85.2978C146.809 85.1981 146.721 85.1119 146.617 85.0348C146.547 84.9349 146.458 84.8486 146.354 84.7715C146.284 84.6718 146.195 84.5855 146.091 84.5085C146.021 84.4087 145.932 84.3225 145.828 84.2454C145.758 84.1457 145.67 84.0595 145.566 83.9823C145.496 83.8825 145.407 83.7962 145.303 83.719C145.233 83.6194 145.144 83.5331 145.04 83.456C144.97 83.3563 144.881 83.2701 144.777 83.1929C144.707 83.0932 144.619 83.0071 144.515 82.9299C144.445 82.8301 144.356 82.7438 144.252 82.6666C144.182 82.567 144.093 82.4807 143.989 82.4036C143.919 82.3039 143.83 82.2176 143.726 82.1405C143.656 82.0408 143.568 81.9546 143.464 81.8775C143.394 81.7777 143.305 81.6914 143.201 81.6142C143.131 81.5146 143.042 81.4283 142.938 81.3512C142.868 81.2515 142.779 81.1652 142.675 81.0881C142.605 80.9884 142.517 80.9021 142.413 80.825C142.343 80.7253 142.254 80.6391 142.15 80.562C142.08 80.4622 141.991 80.3759 141.887 80.2987C141.817 80.199 141.728 80.1128 141.624 80.0357C141.554 79.9359 141.466 79.8497 141.362 79.7726C141.292 79.6729 141.203 79.5867 141.099 79.5096C141.029 79.4098 140.94 79.3234 140.836 79.2463C140.766 79.1466 140.677 79.0604 140.573 78.9833C140.503 78.8835 140.415 78.7973 140.311 78.7202C140.241 78.6205 140.152 78.5343 140.048 78.4572C139.978 78.3573 139.889 78.271 139.785 78.1939C139.715 78.0942 139.626 78.0079 139.522 77.9309C139.452 77.8311 139.364 77.7449 139.26 77.6678C139.19 77.5681 139.101 77.4819 138.997 77.4048C138.927 77.3049 138.838 77.2186 138.734 77.1414C138.664 77.0418 138.575 76.9555 138.471 76.8784C138.401 76.7787 138.313 76.6925 138.209 76.6153C138.139 76.5157 138.05 76.4295 137.946 76.3523C137.876 76.2525 137.787 76.1662 137.683 76.089C137.613 75.9894 137.524 75.9031 137.42 75.826C137.35 75.7263 137.262 75.6401 137.157 75.5629C137.088 75.4632 136.999 75.3771 136.895 75.2999C136.825 75.2001 136.736 75.1138 136.632 75.0366C136.562 74.937 136.473 74.8507 136.369 74.7736C136.299 74.6739 136.211 74.5876 136.106 74.5105C136.036 74.4108 135.948 74.3245 135.844 74.2474C135.774 74.1477 135.685 74.0615 135.581 73.9844C135.511 73.8846 135.422 73.7983 135.318 73.7211C135.248 73.6214 135.159 73.5352 135.055 73.4581C134.985 73.3584 134.897 73.2721 134.793 73.195C134.723 73.0953 134.634 73.0091 134.53 72.932C134.46 72.8322 134.371 72.7459 134.267 72.6687C134.197 72.569 134.108 72.4828 134.004 72.4057C133.934 72.3059 133.846 72.2197 133.742 72.1426C133.672 72.0429 133.583 71.9567 133.479 71.8796C133.409 71.7798 133.32 71.6934 133.216 71.6163C133.146 71.5166 133.057 71.4303 132.953 71.3533C132.883 71.2535 132.795 71.1673 132.691 71.0902C132.621 70.9905 132.532 70.9043 132.428 70.8272C132.358 70.7273 132.269 70.641 132.165 70.5639C132.095 70.4642 132.006 70.3779 131.902 70.3009C131.832 70.2011 131.744 70.1149 131.64 70.0378C131.57 69.9381 131.481 69.8519 131.377 69.7747C131.307 69.6749 131.218 69.5886 131.114 69.5114C131.044 69.4118 130.955 69.3255 130.851 69.2484C130.781 69.1487 130.693 69.0625 130.589 68.9853C130.519 68.8856 130.43 68.7995 130.326 68.7223C130.256 68.6225 130.167 68.5362 130.063 68.459C129.993 68.3594 129.904 68.2731 129.8 68.196C129.73 68.0963 129.642 68.01 129.538 67.9329C129.468 67.8332 129.379 67.747 129.275 67.6698C129.205 67.5701 129.116 67.4839 129.012 67.4068C128.942 67.307 128.853 67.2207 128.749 67.1435C128.679 67.0439 128.591 66.9576 128.487 66.8805C128.417 66.7808 128.328 66.6945 128.224 66.6174C128.154 66.5177 128.065 66.4315 127.961 66.3544C127.891 66.2546 127.802 66.1683 127.698 66.0911C127.628 65.9914 127.54 65.9052 127.436 65.8281C127.366 65.7283 127.277 65.6421 127.173 65.565C127.103 65.4653 127.014 65.3791 126.91 65.302C126.84 65.2022 126.751 65.1158 126.647 65.0387C126.577 64.939 126.489 64.8528 126.385 64.7757C126.315 64.6759 126.226 64.5897 126.122 64.5126C126.052 64.4129 125.963 64.3267 125.859 64.2496C125.789 64.1497 125.7 64.0634 125.596 63.9863C125.526 63.8866 125.438 63.8003 125.334 63.7233C125.264 63.6235 125.175 63.5373 125.071 63.4602C125.001 63.3605 124.912 63.2743 124.808 63.1972C124.738 63.0973 124.649 63.011 124.545 62.9338C124.475 62.8342 124.387 62.7479 124.283 62.6708C124.213 62.5711 124.124 62.4849 124.02 62.4077C123.95 62.3081 123.861 62.2219 123.757 62.1447C123.687 62.0449 123.598 61.9586 123.494 61.8814C123.424 61.7818 123.336 61.6955 123.232 61.6184C123.162 61.5187 123.073 61.4325 122.969 61.3553C122.899 61.2556 122.81 61.1694 122.706 61.0922C122.636 60.9925 122.547 60.9064 122.443 60.8292C122.373 60.7294 122.285 60.6431 122.18 60.5659C122.11 60.4663 122.022 60.38 121.918 60.3029C121.848 60.2032 121.759 60.1169 121.655 60.0398C121.585 59.9401 121.496 59.8539 121.392 59.7768C121.322 59.677 121.234 59.5907 121.129 59.5135C121.059 59.4138 120.971 59.3276 120.867 59.2505C120.797 59.1508 120.708 59.0645 120.604 58.9874C120.534 58.8877 120.445 58.8015 120.341 58.7244C120.271 58.6246 120.183 58.5383 120.078 58.4611C120.008 58.3614 119.92 58.2752 119.816 58.1981C119.746 58.0983 119.657 58.0121 119.553 57.935C119.483 57.8353 119.394 57.7491 119.29 57.672C119.22 57.5722 119.131 57.4858 119.027 57.4087C118.957 57.309 118.869 57.2227 118.765 57.1457C118.695 57.0459 118.606 56.9597 118.502 56.8826C118.432 56.7829 118.343 56.6967 118.239 56.6196C118.169 56.5197 118.08 56.4334 117.976 56.3563C117.906 56.2566 117.818 56.1703 117.714 56.0933C117.644 55.9935 117.555 55.9073 117.451 55.8302C117.381 55.7305 117.292 55.6443 117.188 55.5671C117.118 55.4673 117.029 55.381 116.925 55.3038C116.855 55.2042 116.767 55.1179 116.663 55.0408C116.593 54.9411 116.504 54.8549 116.4 54.7777C116.33 54.678 116.241 54.5918 116.137 54.5146C116.067 54.4149 115.978 54.3288 115.875 54.2516C115.805 54.1518 115.716 54.0655 115.612 53.9883C115.542 53.8887 115.453 53.8024 115.349 53.7253C115.279 53.6256 115.19 53.5394 115.086 53.4622C115.016 53.3625 114.927 53.2763 114.823 53.1992C114.754 53.0994 114.665 53.0131 114.561 52.9359C114.491 52.8363 114.402 52.75 114.298 52.6729C114.228 52.5732 114.139 52.4869 114.035 52.4098C113.965 52.3101 113.876 52.2239 113.772 52.1468C113.702 52.047 113.614 51.9607 113.51 51.8835C113.44 51.7838 113.351 51.6976 113.247 51.6205C113.177 51.5208 113.088 51.4345 112.984 51.3574C112.914 51.2577 112.825 51.1715 112.721 51.0944C112.651 50.9946 112.563 50.9082 112.458 50.8311C112.389 50.7314 112.3 50.6452 112.196 50.5681C112.126 50.4683 112.037 50.3821 111.933 50.305C111.863 50.2053 111.774 50.1191 111.67 50.042C111.6 49.9421 111.512 49.8558 111.407 49.7787C111.338 49.679 111.249 49.5927 111.145 49.5157C111.075 49.4159 110.986 49.3297 110.882 49.2526C110.812 49.1529 110.723 49.0667 110.619 48.9896C110.549 48.8897 110.461 48.8034 110.356 48.7262C110.287 48.6266 110.198 48.5403 110.094 48.4632C110.024 48.3635 109.935 48.2773 109.831 48.2001C109.761 48.1004 109.672 48.0142 109.568 47.937C109.498 47.8374 109.41 47.7512 109.306 47.674C109.236 47.5742 109.147 47.4879 109.043 47.4107C108.973 47.3111 108.884 47.2248 108.78 47.1477C108.71 47.048 108.621 46.9618 108.517 46.8846C108.447 46.7849 108.359 46.6988 108.255 46.6216C108.185 46.5218 108.096 46.4355 107.992 46.3583C107.922 46.2587 107.833 46.1724 107.729 46.0953C107.659 45.9956 107.57 45.9093 107.466 45.8322C107.396 45.7325 107.308 45.6463 107.204 45.5692C107.134 45.4694 107.045 45.3831 106.941 45.3059C106.871 45.2062 106.782 45.12 106.678 45.0429C106.608 44.9432 106.519 44.8569 106.415 44.7798C106.345 44.6801 106.257 44.5939 106.153 44.5168C106.083 44.417 105.994 44.3307 105.89 44.2535C105.82 44.1538 105.731 44.0676 105.627 43.9905C105.557 43.8907 105.468 43.8045 105.364 43.7274C105.294 43.6277 105.206 43.5415 105.102 43.4644C105.032 43.3645 104.943 43.2782 104.839 43.2011C104.769 43.1014 104.68 43.0151 104.576 42.9381C104.506 42.8383 104.417 42.7521 104.313 42.675C104.243 42.5753 104.155 42.4891 104.051 42.412C103.981 42.3121 103.892 42.2258 103.788 42.1487C103.718 42.049 103.629 41.9627 103.525 41.8856C103.455 41.7859 103.366 41.6997 103.262 41.6226C103.047 41.3164 102.688 41.1198 102.093 41.0099C100.158 40.6524 94.7369 41.1797 92.6461 41.042C89.7183 41.1209 86.7333 40.9773 84.0686 42.2314C80.7575 43.8109 78.1745 46.6705 75.9958 49.5118C74.8133 51.4086 72.4089 51.9977 71.1926 53.8479C69.9628 55.5526 70.9698 57.4503 71.0413 59.3211C71.1168 65.0903 69.1163 64.2322 65.419 67.2154C63.8225 68.5033 61.6779 68.7499 59.6981 68.7955C58.128 68.8314 55.9496 69.0877 54.4292 68.6917C52.918 68.298 51.5643 67.1877 49.9377 67.1877C47.6227 66.9214 44.1022 67.0326 41.6174 67.5261C39.8573 67.9098 38.4418 68.2356 38.3862 70.2183C38.3658 71.9682 40.5808 73.7537 40.2198 75.5481C39.4265 78.7184 35.4169 80.6699 32.8546 82.2403C32.1916 82.5931 31.1256 83.1075 30.6794 83.7395C29.9356 84.7924 30.1001 88.0063 30.6811 88.0121H30.6859C30.7584 88.174 30.8445 88.2742 30.9439 88.2752H30.9486C31.0212 88.4371 31.1072 88.5373 31.2066 88.5383H31.2114C31.284 88.7002 31.37 88.8004 31.4694 88.8014H31.4741C31.5467 88.9634 31.6327 89.0635 31.7322 89.0646H31.7369C31.8095 89.2265 31.8955 89.3266 31.9949 89.3277H31.9996C32.0722 89.4896 32.1583 89.5897 32.2577 89.5908H32.2624C32.335 89.7527 32.4211 89.8528 32.5205 89.8539H32.5251C32.5977 90.0158 32.6838 90.116 32.7832 90.117H32.7879C32.8605 90.2789 32.9466 90.3791 33.046 90.3801H33.0507C33.1232 90.542 33.2093 90.6422 33.3087 90.6432H33.3135C33.386 90.8051 33.4721 90.9053 33.5715 90.9063H33.5762C33.6487 91.0682 33.7348 91.1684 33.8342 91.1694H33.839C33.9115 91.3313 33.9976 91.4315 34.097 91.4325H34.1017C34.1743 91.5944 34.2603 91.6946 34.3597 91.6956H34.3645C34.4371 91.8575 34.5231 91.9577 34.6225 91.9587H34.6272C34.6998 92.1207 34.7858 92.2208 34.8853 92.2219H34.89C34.9626 92.3837 35.0486 92.4839 35.148 92.485H35.1527C35.2253 92.6468 35.3114 92.747 35.4108 92.7481H35.4155C35.4881 92.9099 35.5742 93.0101 35.6736 93.0112H35.6782C35.7508 93.1731 35.8369 93.2733 35.9363 93.2743H35.941C36.0136 93.4362 36.0997 93.5364 36.199 93.5374H36.2038C36.2763 93.6993 36.3624 93.7995 36.4618 93.8005H36.4666C36.5391 93.9624 36.6252 94.0626 36.7246 94.0636H36.7293C36.8018 94.2255 36.8879 94.3257 36.9873 94.3267H36.9921C37.0646 94.4886 37.1507 94.5888 37.2501 94.5898H37.2548C37.3274 94.7517 37.4134 94.8519 37.5128 94.8529H37.5175C37.5901 95.0148 37.6762 95.115 37.7756 95.116H37.7803C37.8529 95.2779 37.939 95.3781 38.0384 95.3791H38.043C38.1156 95.541 38.2017 95.6412 38.3011 95.6423H38.3058C38.3784 95.8041 38.4645 95.9043 38.5639 95.9054H38.5686C38.6412 96.0672 38.7272 96.1674 38.8266 96.1685H38.8314C38.9039 96.3303 38.99 96.4305 39.0894 96.4315H39.0941C39.1666 96.5935 39.2527 96.6937 39.3521 96.6947H39.3569C39.4294 96.8566 39.5155 96.9568 39.6149 96.9578H39.6196C39.6922 97.1197 39.7783 97.2198 39.8776 97.2209H39.8824C39.955 97.3828 40.041 97.4829 40.1404 97.484H40.1451C40.2177 97.6459 40.3037 97.7461 40.4032 97.7471H40.4079C40.4805 97.909 40.5665 98.0092 40.6659 98.0102H40.6706C40.7432 98.1721 40.8293 98.2723 40.9287 98.2733H40.9334C41.006 98.4352 41.0921 98.5354 41.1915 98.5364H41.1961C41.2687 98.6983 41.3548 98.7985 41.4542 98.7996H41.4589C41.5315 98.9614 41.6176 99.0616 41.717 99.0626H41.7217C41.7942 99.2245 41.8803 99.3247 41.9797 99.3257H41.9845C42.057 99.4876 42.1431 99.5878 42.2425 99.5888H42.2472C42.3197 99.7508 42.4058 99.8509 42.5052 99.852H42.51C42.5825 100.014 42.6686 100.114 42.768 100.115H42.7727C42.8453 100.277 42.9314 100.377 43.0307 100.378H43.0355C43.1081 100.54 43.1941 100.64 43.2935 100.641H43.2982C43.3708 100.803 43.4568 100.903 43.5563 100.904H43.561C43.6336 101.066 43.7196 101.166 43.819 101.168H43.8237C43.8963 101.329 43.9824 101.43 44.0818 101.431H44.0865C44.1591 101.592 44.2451 101.693 44.3445 101.694H44.3493C44.4219 101.856 44.5079 101.956 44.6073 101.957H44.612C44.6846 102.119 44.7706 102.219 44.8701 102.22H44.8748C44.9473 102.382 45.0334 102.482 45.1328 102.483H45.1375C45.2101 102.645 45.2962 102.745 45.3955 102.746H45.4003C45.4729 102.908 45.559 103.008 45.6583 103.009H45.663C45.7356 103.171 45.8217 103.271 45.9211 103.272H45.9258C45.9984 103.434 46.0844 103.534 46.1838 103.535H46.1886C46.2611 103.697 46.3472 103.798 46.4466 103.799H46.4513C46.5239 103.96 46.61 104.061 46.7094 104.062H46.714C46.7866 104.224 46.8727 104.324 46.9721 104.325H46.9768C47.0494 104.487 47.1355 104.587 47.2349 104.588H47.2396C47.3122 104.75 47.3982 104.85 47.4976 104.851H47.5024C47.575 105.013 47.661 105.113 47.7604 105.114H47.7651C47.8377 105.276 47.9237 105.376 48.0232 105.377H48.0279C48.1004 105.539 48.1865 105.639 48.2859 105.64H48.2906C48.3632 105.802 48.4493 105.902 48.5486 105.903H48.5534C48.626 106.065 48.712 106.165 48.8114 106.167H48.8161C48.8887 106.328 48.9748 106.429 49.0742 106.43H49.0789C49.1515 106.592 49.2375 106.692 49.3369 106.693H49.3417C49.4142 106.855 49.5003 106.955 49.5997 106.956H49.6044C49.677 107.118 49.7631 107.218 49.8625 107.219H49.8671C49.9397 107.381 50.0258 107.481 50.1252 107.482H50.1299C50.2025 107.644 50.2886 107.744 50.388 107.745H50.3927C50.4653 107.907 50.5513 108.007 50.6507 108.008H50.6554C50.728 108.17 50.8141 108.27 50.9135 108.271H50.9182C50.9908 108.433 51.0769 108.533 51.1762 108.534H51.1809C51.2535 108.696 51.3396 108.797 51.439 108.798H51.4437C51.5163 108.96 51.6024 109.06 51.7017 109.061H51.7065C51.779 109.223 51.8651 109.323 51.9645 109.324H51.9693C52.0418 109.486 52.1279 109.586 52.2273 109.587H52.232C52.3045 109.749 52.3906 109.849 52.49 109.85H52.4948C52.5673 110.012 52.6534 110.112 52.7528 110.113H52.7575C52.8301 110.275 52.9161 110.375 53.0155 110.376H53.0203C53.0929 110.538 53.1789 110.638 53.2783 110.639H53.283C53.3556 110.801 53.4416 110.901 53.5411 110.902H53.5458C53.6184 111.064 53.7044 111.165 53.8038 111.166H53.8085C53.8811 111.327 53.9672 111.428 54.0666 111.429H54.0713C54.1439 111.591 54.23 111.691 54.3293 111.692H54.334C54.4066 111.854 54.4927 111.954 54.5921 111.955H54.5968C54.6694 112.117 54.7555 112.217 54.8548 112.218H54.8596C54.9321 112.38 55.0182 112.48 55.1176 112.481H55.1224C55.1949 112.643 55.281 112.743 55.3804 112.744H55.3851C55.4576 112.906 55.5437 113.006 55.6431 113.007H55.6478C55.7204 113.169 55.8065 113.269 55.9059 113.27H55.9106C55.9832 113.432 56.0692 113.533 56.1686 113.534H56.1734C56.246 113.695 56.332 113.796 56.4314 113.797H56.4361C56.5087 113.959 56.5947 114.059 56.6942 114.06H56.6989C56.7715 114.222 56.8575 114.322 56.9569 114.323H56.9616C57.0342 114.485 57.1203 114.585 57.2197 114.586H57.2244C57.2969 114.748 57.383 114.848 57.4824 114.849H57.4872C57.5597 115.011 57.6458 115.111 57.7452 115.112H57.7499C57.8224 115.274 57.9085 115.374 58.0079 115.375H58.0127C58.0852 115.537 58.1713 115.637 58.2707 115.638H58.2754C58.348 115.8 58.434 115.9 58.5334 115.901H58.5382C58.6108 116.063 58.6968 116.164 58.7962 116.165H58.8009C58.8735 116.327 58.9595 116.427 59.059 116.428H59.0637C59.1363 116.59 59.2223 116.69 59.3217 116.691H59.3264C59.399 116.853 59.4851 116.953 59.5845 116.954H59.5892C59.6618 117.116 59.7479 117.216 59.8473 117.217H59.8519C59.9245 117.379 60.0106 117.479 60.11 117.48H60.1147C60.1873 117.642 60.2734 117.742 60.3727 117.743H60.3775C60.45 117.905 60.5361 118.005 60.6355 118.006H60.6403C60.7128 118.168 60.7989 118.268 60.8983 118.269H60.903C60.9755 118.431 61.0616 118.532 61.161 118.533H61.1658C61.2383 118.694 61.3244 118.795 61.4238 118.796H61.4285C61.5011 118.958 61.5871 119.058 61.6865 119.059H61.6913C61.7639 119.221 61.8499 119.321 61.9493 119.322H61.954C62.0266 119.484 62.1126 119.584 62.2121 119.585H62.2168C62.2894 119.747 62.3754 119.847 62.4748 119.848H62.4795C62.5521 120.01 62.6382 120.11 62.7376 120.111H62.7423C62.8149 120.273 62.901 120.373 63.0004 120.374H63.005C63.0776 120.536 63.1637 120.636 63.2631 120.637H63.2678C63.3404 120.799 63.4265 120.9 63.5258 120.901H63.5306C63.6031 121.062 63.6892 121.163 63.7886 121.164H63.7933C63.8659 121.326 63.952 121.426 64.0513 121.427H64.0561C64.1287 121.589 64.2147 121.689 64.3141 121.69H64.3188C64.3914 121.852 64.4774 121.952 64.5769 121.953H64.5816C64.6542 122.115 64.7402 122.215 64.8396 122.216H64.8443C64.9169 122.378 65.003 122.478 65.1024 122.479H65.1071C65.1797 122.641 65.2658 122.741 65.3652 122.742H65.3698C65.4424 122.904 65.5285 123.004 65.6279 123.005H65.6326C65.7052 123.167 65.7913 123.267 65.8907 123.269H65.8954C65.9679 123.43 66.054 123.531 66.1534 123.532H66.1582C66.2307 123.693 66.3168 123.794 66.4162 123.795H66.4209C66.4934 123.957 66.5795 124.057 66.6789 124.058H66.6837C66.7562 124.22 66.8423 124.32 66.9417 124.321H66.9464C67.019 124.483 67.105 124.583 67.2044 124.584H67.2092C67.2818 124.746 67.3678 124.846 67.4672 124.847H67.4719C67.5445 125.009 67.6305 125.109 67.73 125.11H67.7347C67.8073 125.272 67.8933 125.372 67.9927 125.373H67.9974C68.07 125.535 68.1561 125.635 68.2555 125.636H68.2602C68.3328 125.798 68.4189 125.899 68.5183 125.9H68.5229C68.5955 126.061 68.6816 126.162 68.781 126.163H68.7857C68.8583 126.325 68.9444 126.425 69.0438 126.426H69.0485C69.121 126.588 69.2071 126.688 69.3065 126.689H69.3113C69.3838 126.851 69.4699 126.951 69.5693 126.952H69.574C69.6465 127.114 69.7326 127.214 69.832 127.215H69.8368C69.9093 127.377 69.9954 127.477 70.0948 127.478H70.0995C70.1721 127.64 70.2581 127.74 70.3575 127.741H70.3623C70.4348 127.903 70.5209 128.003 70.6203 128.004H70.625C70.6976 128.166 70.7837 128.266 70.8831 128.268H70.8877C70.9603 128.429 71.0464 128.53 71.1458 128.531H71.1505C71.2231 128.693 71.3092 128.793 71.4086 128.794H71.4133C71.4859 128.956 71.5719 129.056 71.6713 129.057H71.6761C71.7487 129.219 71.8347 129.319 71.9341 129.32H71.9388C72.0114 129.482 72.0974 129.582 72.1969 129.583H72.2016C72.2741 129.745 72.3602 129.845 72.4596 129.846H72.4643C72.5369 130.008 72.623 130.108 72.7223 130.109H72.7271C72.7997 130.271 72.8857 130.371 72.9851 130.372H72.9898C73.0624 130.534 73.1485 130.634 73.2479 130.636H73.2526C73.3252 130.797 73.4112 130.898 73.5106 130.899H73.5154C73.5879 131.06 73.674 131.161 73.7734 131.162H73.7781C73.8507 131.324 73.9368 131.424 74.0362 131.425H74.0408C74.1134 131.587 74.1995 131.687 74.2989 131.688H74.3036C74.3762 131.85 74.4623 131.95 74.5617 131.951H74.5664C74.639 132.113 74.725 132.213 74.8244 132.214H74.8292C74.9017 132.376 74.9878 132.476 75.0872 132.477H75.0919C75.1644 132.639 75.2505 132.739 75.3499 132.74H75.3547C75.4272 132.902 75.5133 133.002 75.6127 133.003H75.6174C75.69 133.165 75.7761 133.266 75.8754 133.267H75.8802C75.9528 133.428 76.0388 133.529 76.1382 133.53H76.1429C76.2155 133.692 76.3015 133.792 76.401 133.793H76.4057C76.4783 133.955 76.5643 134.055 76.6637 134.056H76.6685C76.741 134.218 76.8271 134.318 76.9265 134.319H76.9312C77.0038 134.481 77.0898 134.581 77.1892 134.582H77.194C77.2666 134.744 77.3526 134.844 77.452 134.845H77.4567C77.5293 135.007 77.6153 135.107 77.7148 135.108H77.7195C77.7921 135.27 77.8781 135.37 77.9775 135.371H77.9822C78.0548 135.533 78.1409 135.633 78.2402 135.635H78.245C78.3176 135.796 78.4037 135.897 78.503 135.898H78.5077C78.5803 136.06 78.6664 136.16 78.7658 136.161H78.7705C78.8431 136.323 78.9291 136.423 79.0285 136.424H79.0333C79.1058 136.586 79.1919 136.686 79.2913 136.687H79.296C79.3686 136.849 79.4547 136.949 79.5541 136.95H79.5588C79.6313 137.112 79.7174 137.212 79.8168 137.213H79.8215C79.8941 137.375 79.9802 137.475 80.0796 137.476H80.0843C80.1569 137.638 80.2429 137.738 80.3423 137.739H80.3471C80.4197 137.901 80.5057 138.001 80.6051 138.002H80.6098C80.6824 138.164 80.7684 138.265 80.8679 138.266H80.8726C80.9451 138.428 81.0312 138.528 81.1306 138.529H81.1353C81.2079 138.691 81.294 138.791 81.3933 138.792H81.3981C81.4707 138.954 81.5568 139.054 81.6561 139.055H81.6608C81.7334 139.217 81.8195 139.317 81.9189 139.318H81.9236C81.9962 139.48 82.0822 139.58 82.1816 139.581H82.1864C82.2589 139.743 82.345 139.843 82.4444 139.844H82.4491C82.5217 140.006 82.6078 140.106 82.7072 140.107H82.7118C82.7844 140.269 82.8705 140.369 82.9699 140.37H82.9746C83.0472 140.532 83.1333 140.633 83.2327 140.634H83.2374C83.31 140.795 83.396 140.896 83.4954 140.897H83.5001C83.5727 141.059 83.6588 141.159 83.7582 141.16H83.7629C83.8355 141.322 83.9216 141.422 84.021 141.423H84.0256C84.0982 141.585 84.1843 141.685 84.2837 141.686H84.2884C84.361 141.848 84.4471 141.948 84.5464 141.949H84.5512C84.6237 142.111 84.7098 142.211 84.8092 142.212H84.814C84.8865 142.374 84.9726 142.474 85.072 142.475H85.0767C85.1492 142.637 85.2353 142.737 85.3347 142.738H85.3395C85.412 142.9 85.4981 143.001 85.5975 143.002H85.6022C85.6748 143.163 85.7608 143.264 85.8602 143.265H85.865C85.9376 143.427 86.0236 143.527 86.123 143.528H86.1277C86.2003 143.69 86.2863 143.79 86.3858 143.791H86.3905C86.4631 143.953 86.5491 144.053 86.6485 144.054H86.6532C86.7258 144.216 86.8119 144.316 86.9113 144.317H86.916C86.9886 144.479 87.0747 144.579 87.174 144.58H87.1787C87.2513 144.742 87.3374 144.842 87.4368 144.843H87.4415C87.5141 145.005 87.6002 145.105 87.6995 145.106H87.7043C87.7768 145.268 87.8629 145.368 87.9623 145.369H87.9671C88.0396 145.531 88.1257 145.632 88.2251 145.633H88.2298C88.3023 145.795 88.3884 145.895 88.4878 145.896H88.4926C88.5651 146.058 88.6512 146.158 88.7506 146.159H88.7553C88.8279 146.321 88.9139 146.421 89.0133 146.422H89.0181C89.0907 146.584 89.1767 146.684 89.2761 146.685H89.2808C89.3534 146.847 89.4394 146.947 89.5389 146.948H89.5436C89.6162 147.11 89.7022 147.21 89.8016 147.211H89.8063C89.8789 147.373 89.965 147.473 90.0644 147.474H90.0691C90.1416 147.636 90.2277 147.736 90.3271 147.737H90.3319C90.4044 147.899 90.4905 148 90.5899 148.001H90.5946C90.6671 148.162 90.7532 148.263 90.8526 148.264H90.8574C90.9299 148.426 91.016 148.526 91.1154 148.527H91.1201C91.1927 148.689 91.2787 148.789 91.3781 148.79H91.3829C91.4555 148.952 91.5415 149.052 91.6409 149.053H91.6456C91.7182 149.215 91.8042 149.315 91.9037 149.316H91.9084C91.981 149.478 92.067 149.578 92.1664 149.579H92.1711C92.2437 149.741 92.3298 149.841 92.4292 149.842H92.4339C92.5065 150.004 92.5926 150.104 92.692 150.105H92.6966C92.7692 150.267 92.8553 150.368 92.9547 150.369H92.9594C93.032 150.53 93.1181 150.631 93.2175 150.632H93.2222C93.2947 150.794 93.3808 150.894 93.4802 150.895H93.485C93.5575 151.057 93.6436 151.157 93.743 151.158H93.7477C93.8202 151.32 93.9063 151.42 94.0057 151.421H94.0105C94.083 151.583 94.1691 151.683 94.2685 151.684H94.2732C94.3458 151.846 94.4318 151.946 94.5312 151.947H94.536C94.6086 152.109 94.6946 152.209 94.794 152.21H94.7987C94.8713 152.372 94.9573 152.472 95.0568 152.473H95.0615C95.1341 152.635 95.2201 152.735 95.3195 152.737H95.3242C95.3968 152.898 95.4829 152.999 95.5823 153H95.587C95.6596 153.161 95.7457 153.262 95.8451 153.263H95.8497C95.9223 153.425 96.0084 153.525 96.1078 153.526H96.1125C96.1851 153.688 96.2712 153.788 96.3705 153.789H96.3753C96.4478 153.951 96.5339 154.051 96.6333 154.052H96.638C96.7106 154.214 96.7967 154.314 96.896 154.315H96.9008C96.9734 154.477 97.0594 154.577 97.1588 154.578H97.1635C97.2361 154.74 97.3222 154.84 97.4216 154.841H97.4263C97.4989 155.003 97.5849 155.103 97.6843 155.104H97.689C97.7616 155.266 97.8477 155.367 97.9471 155.368H97.9518C98.0244 155.529 98.1105 155.63 98.2099 155.631H98.2145C98.2871 155.793 98.3732 155.893 98.4726 155.894H98.4773C98.5499 156.056 98.636 156.156 98.7354 156.157H98.7401C98.8127 156.319 98.8987 156.419 98.9981 156.42H99.0029C99.0754 156.582 99.1615 156.682 99.2609 156.683H99.2656C99.3382 156.845 99.4242 156.945 99.5236 156.946H99.5284C99.6009 157.108 99.687 157.208 99.7864 157.209H99.7911C99.8637 157.371 99.9497 157.471 100.049 157.472H100.054C100.126 157.634 100.213 157.734 100.312 157.736H100.317C100.389 157.897 100.475 157.998 100.575 157.999H100.579C100.652 158.161 100.738 158.261 100.837 158.262H100.842C100.915 158.424 101.001 158.524 101.1 158.525H101.105C101.178 158.687 101.264 158.787 101.363 158.788H101.368C101.44 158.95 101.526 159.05 101.626 159.051H101.63C101.703 159.213 101.789 159.313 101.888 159.314H101.893C101.966 159.476 102.052 159.576 102.151 159.577H102.156C102.229 159.739 102.315 159.839 102.414 159.84H102.419C102.491 160.002 102.577 160.102 102.677 160.104H102.681C102.754 160.265 102.84 160.366 102.939 160.367H102.944C103.017 160.528 103.103 160.629 103.202 160.63H103.207C103.28 160.792 103.366 160.892 103.465 160.893H103.47C103.542 161.055 103.628 161.155 103.728 161.156H103.732C103.805 161.318 103.891 161.418 103.991 161.419H103.995C104.068 161.581 104.154 161.681 104.253 161.682H104.258C104.331 161.844 104.417 161.944 104.516 161.945H104.521C104.593 162.107 104.679 162.207 104.779 162.208H104.783C104.856 162.37 104.942 162.47 105.042 162.471H105.046C105.119 162.633 105.205 162.734 105.304 162.735H105.309C105.382 162.896 105.468 162.997 105.567 162.998H105.572C105.644 163.16 105.73 163.26 105.83 163.261H105.835C105.907 163.423 105.993 163.523 106.093 163.524H106.097C106.17 163.686 106.256 163.786 106.355 163.787H106.36C106.433 163.949 106.519 164.049 106.618 164.05H106.623C106.695 164.212 106.781 164.312 106.881 164.313H106.886C106.958 164.475 107.044 164.575 107.144 164.576H107.148C107.221 164.738 107.307 164.838 107.406 164.839H107.411C107.484 165.001 107.57 165.102 107.669 165.103H107.674C107.746 165.264 107.833 165.365 107.932 165.366H107.937C108.009 165.528 108.095 165.628 108.195 165.629H108.199C108.272 165.791 108.358 165.891 108.457 165.892H108.462C108.535 166.054 108.621 166.154 108.72 166.155H108.725C108.797 166.317 108.884 166.417 108.983 166.418H108.988C109.06 166.58 109.146 166.68 109.246 166.681H109.25C109.323 166.843 109.409 166.943 109.508 166.944C117.195 166.97 137.868 166.984 151.789 166.981C151.845 167.05 151.91 167.108 151.987 167.155C151.991 167.162 151.991 167.171 151.995 167.178C152.059 167.28 152.148 167.356 152.249 167.418C152.254 167.425 152.253 167.434 152.258 167.441C152.322 167.543 152.41 167.619 152.512 167.681C152.516 167.688 152.516 167.697 152.521 167.704C152.585 167.806 152.673 167.882 152.775 167.944C152.779 167.951 152.779 167.96 152.783 167.967C152.848 168.069 152.936 168.145 153.038 168.207C153.042 168.214 153.042 168.223 153.046 168.23C153.11 168.332 153.199 168.408 153.3 168.47C153.305 168.477 153.304 168.486 153.309 168.493C153.373 168.595 153.462 168.672 153.563 168.733C153.567 168.741 153.567 168.749 153.572 168.756C153.636 168.858 153.724 168.935 153.826 168.996C153.83 169.004 153.83 169.012 153.834 169.02C153.899 169.121 153.987 169.198 154.089 169.259C154.093 169.267 154.093 169.275 154.097 169.283C154.161 169.384 154.25 169.461 154.351 169.523C154.356 169.53 154.355 169.539 154.36 169.546C154.424 169.648 154.513 169.724 154.614 169.786C154.618 169.793 154.618 169.802 154.623 169.809C154.687 169.911 154.775 169.987 154.877 170.049C154.881 170.056 154.881 170.065 154.886 170.072C154.95 170.174 155.038 170.25 155.14 170.312C155.144 170.319 155.144 170.328 155.148 170.335C155.212 170.437 155.301 170.513 155.402 170.575C155.407 170.582 155.406 170.591 155.411 170.598C155.475 170.7 155.564 170.776 155.665 170.838C155.669 170.845 155.669 170.854 155.674 170.861C155.738 170.963 155.826 171.04 155.928 171.101C155.932 171.109 155.932 171.117 155.936 171.124C156.001 171.226 156.089 171.303 156.191 171.364C156.195 171.372 156.195 171.38 156.199 171.388C156.263 171.489 156.352 171.566 156.453 171.627C156.458 171.635 156.457 171.643 156.462 171.651C156.526 171.752 156.615 171.829 156.716 171.891C156.72 171.898 156.72 171.907 156.725 171.914C156.789 172.016 156.877 172.092 156.979 172.154C156.983 172.161 156.983 172.17 156.988 172.177C157.052 172.279 157.14 172.355 157.242 172.417C157.246 172.424 157.246 172.433 157.25 172.44C157.314 172.542 157.403 172.618 157.504 172.68C157.509 172.687 157.508 172.696 157.513 172.703C157.577 172.805 157.666 172.881 157.767 172.943C157.771 172.95 157.771 172.959 157.776 172.966C157.84 173.068 157.928 173.144 158.03 173.206C158.034 173.213 158.034 173.222 158.039 173.229C158.103 173.331 158.191 173.407 158.293 173.469C158.297 173.476 158.297 173.485 158.301 173.492C158.365 173.594 158.454 173.671 158.555 173.732C158.56 173.74 158.559 173.748 158.564 173.756C158.628 173.857 158.717 173.934 158.818 173.995C158.822 174.003 158.822 174.011 158.827 174.019C158.891 174.12 158.979 174.197 159.081 174.259C159.085 174.266 159.085 174.274 159.09 174.282C159.154 174.383 159.242 174.46 159.344 174.522C159.348 174.529 159.348 174.538 159.352 174.545C159.416 174.647 159.505 174.723 159.606 174.785C159.611 174.792 159.61 174.801 159.615 174.808C159.679 174.91 159.768 174.986 159.869 175.048C159.873 175.055 159.873 175.064 159.878 175.071C159.942 175.173 160.03 175.249 160.132 175.311C160.136 175.318 160.136 175.327 160.141 175.334C160.205 175.436 160.293 175.512 160.395 175.574C160.399 175.581 160.399 175.59 160.403 175.597C160.467 175.699 160.556 175.775 160.657 175.837C160.662 175.844 160.661 175.853 160.666 175.86C160.73 175.962 160.819 176.039 160.92 176.1C160.924 176.108 160.924 176.116 160.929 176.123C160.993 176.225 161.081 176.302 161.183 176.363C161.187 176.371 161.187 176.379 161.191 176.387C161.256 176.488 161.344 176.565 161.446 176.626C161.45 176.634 161.45 176.642 161.454 176.65C161.518 176.751 161.607 176.828 161.708 176.89C161.713 176.897 161.712 176.906 161.717 176.913C161.781 177.015 161.87 177.091 161.971 177.153C161.975 177.16 161.975 177.169 161.98 177.176C162.044 177.278 162.132 177.354 162.234 177.416C162.238 177.423 162.238 177.432 162.242 177.439C162.307 177.541 162.395 177.617 162.497 177.679C162.501 177.686 162.501 177.695 162.505 177.702C162.569 177.804 162.658 177.88 162.759 177.942C162.764 177.949 162.763 177.958 162.768 177.965C162.832 178.067 162.921 178.143 163.022 178.205C163.026 178.212 163.026 178.221 163.031 178.228C163.095 178.33 163.183 178.407 163.285 178.468C163.289 178.476 163.289 178.484 163.293 178.491C163.358 178.593 163.446 178.67 163.548 178.731C163.552 178.739 163.552 178.747 163.556 178.755C163.62 178.856 163.709 178.933 163.81 178.994C163.815 179.002 163.814 179.01 163.819 179.018C163.883 179.119 163.972 179.196 164.073 179.258C164.077 179.265 164.077 179.274 164.082 179.281C164.146 179.383 164.234 179.459 164.336 179.521C164.34 179.528 164.34 179.537 164.344 179.544C164.409 179.646 164.497 179.722 164.599 179.784C164.603 179.791 164.603 179.8 164.607 179.807C164.671 179.909 164.76 179.985 164.861 180.047C164.866 180.054 164.865 180.063 164.87 180.07C164.934 180.172 165.023 180.248 165.124 180.31C165.128 180.317 165.128 180.326 165.133 180.333C165.197 180.435 165.285 180.511 165.387 180.573C165.391 180.58 165.391 180.589 165.395 180.596C165.46 180.698 165.548 180.775 165.65 180.836C165.654 180.844 165.654 180.852 165.658 180.859C165.722 180.961 165.811 181.038 165.912 181.099C165.917 181.107 165.916 181.115 165.921 181.123C165.985 181.224 166.074 181.301 166.175 181.362C166.179 181.37 166.179 181.378 166.184 181.386C166.248 181.487 166.336 181.564 166.438 181.626C166.442 181.633 166.442 181.641 166.446 181.649C166.511 181.75 166.599 181.827 166.701 181.889C166.705 181.896 166.705 181.905 166.709 181.912C166.773 182.014 166.862 182.09 166.963 182.152C166.968 182.159 166.967 182.168 166.972 182.175C167.036 182.277 167.125 182.353 167.226 182.415C167.23 182.422 167.23 182.431 167.235 182.438C167.299 182.54 167.387 182.616 167.489 182.678C167.493 182.685 167.493 182.694 167.497 182.701C167.562 182.803 167.65 182.879 167.752 182.941C167.756 182.948 167.756 182.957 167.76 182.964C167.824 183.066 167.913 183.142 168.014 183.204C168.019 183.211 168.018 183.22 168.023 183.227C168.087 183.329 168.175 183.405 168.277 183.467C168.281 183.475 168.281 183.483 168.286 183.49C168.35 183.592 168.438 183.669 168.54 183.73C168.544 183.738 168.544 183.746 168.548 183.754C168.613 183.855 168.701 183.932 168.803 183.993C168.807 184.001 168.807 184.009 168.811 184.017C168.875 184.118 168.964 184.195 169.065 184.257C169.07 184.264 169.069 184.273 169.074 184.28C169.138 184.382 169.227 184.458 169.328 184.52C169.332 184.527 169.332 184.536 169.337 184.543C169.401 184.645 169.489 184.721 169.591 184.783C169.595 184.79 169.595 184.799 169.599 184.806C169.664 184.908 169.752 184.984 169.854 185.046C169.858 185.053 169.858 185.062 169.862 185.069C169.926 185.171 170.015 185.247 170.116 185.309C170.121 185.316 170.12 185.325 170.125 185.332C170.189 185.434 170.278 185.51 170.379 185.572C170.383 185.579 170.383 185.588 170.388 185.595C170.452 185.697 170.54 185.774 170.642 185.835C170.646 185.843 170.646 185.851 170.651 185.858C170.715 185.96 170.803 186.037 170.905 186.098C170.909 186.106 170.909 186.114 170.913 186.122C170.977 186.223 171.066 186.3 171.167 186.361C171.172 186.369 171.171 186.377 171.176 186.385C171.24 186.486 171.329 186.563 171.43 186.624C171.434 186.632 171.434 186.64 171.439 186.648C171.503 186.75 171.591 186.826 171.693 186.888C171.697 186.895 171.697 186.904 171.702 186.911C171.766 187.013 171.854 187.089 171.956 187.151C171.96 187.158 171.96 187.167 171.964 187.174C172.028 187.276 172.117 187.352 172.218 187.414C172.223 187.421 172.222 187.43 172.227 187.437C172.291 187.539 172.38 187.615 172.481 187.677C172.485 187.684 172.485 187.693 172.49 187.7C172.554 187.802 172.642 187.878 172.744 187.94C172.748 187.947 172.748 187.956 172.753 187.963C172.817 188.065 172.905 188.142 173.007 188.203C173.011 188.211 173.011 188.219 173.015 188.226C173.079 188.328 173.168 188.405 173.269 188.466C173.274 188.474 173.273 188.482 173.278 188.489C173.342 188.591 173.431 188.668 173.532 188.729C173.536 188.737 173.536 188.745 173.541 188.753C173.605 188.854 173.693 188.931 173.795 188.993C173.799 189 173.799 189.008 173.804 189.016C174.398 189.959 176.778 189.045 177.584 188.777C178.704 188.405 179.838 187.898 181.004 187.691C185.97 186.807 191.045 186.062 195.502 183.698C196.133 183.363 197.563 182.827 197.739 182.133C197.822 181.804 197.701 181.599 197.449 181.482L197.448 181.481Z" fill="url(#paint1_linear_308_181)"/>
</g>
<path d="M113.616 103.325C112.51 103.714 111.321 103.689 110.17 103.856C107.621 104.295 104.067 105.023 101.547 105.107C100.279 105.239 99.6694 104.267 99.9652 103.013C100.311 101.442 101.77 100.479 101.666 98.8272C101.47 95.4768 102.529 91.7518 102.468 88.367C102.29 84.14 104.056 80.1179 104.184 75.94C104.295 72.3475 104.808 68.7558 104.372 65.1927C103.986 62.0294 102.777 58.2739 103.028 55.088C103.089 54.3147 103.211 53.838 103.425 53.0997C104.309 50.6518 103.473 48.0744 103.482 45.6583C103.491 42.6316 104.028 41.3674 102.093 41.0099C100.159 40.6524 94.7371 41.1797 92.6462 41.042C89.7185 41.1208 86.7334 40.9773 84.0688 42.2314C80.7577 43.8109 78.1746 46.6705 75.9959 49.5118C74.8134 51.4086 72.409 51.9977 71.1927 53.848C69.9629 55.5526 70.97 57.4502 71.0414 59.3211C71.1169 65.0903 69.1164 64.2322 65.4192 67.2154C63.8226 68.5033 61.678 68.7499 59.6982 68.7955C58.1281 68.8314 55.9497 69.0877 54.4293 68.6917C52.9181 68.2979 51.5644 67.1877 49.9379 67.1877C47.6228 66.9214 44.1023 67.0326 41.6176 67.5261C39.8575 67.9098 38.4419 68.2355 38.3864 70.2182C38.366 71.9682 40.581 73.7537 40.22 75.5481C39.4267 78.7184 35.417 80.6699 32.8547 82.2403C32.1917 82.5931 31.1258 83.1075 30.6795 83.7396C29.9358 84.7924 30.1002 88.0063 30.6813 88.0121C39.8163 88.043 67.2949 88.0563 79.9816 88.046C81.641 88.1913 82.7323 89.3622 83.5259 90.9003C84.3302 92.3018 84.4242 94.1423 85.0936 95.5412C85.9466 97.0163 88.1348 97.6287 89.4948 98.5432C91.2627 99.5987 92.9139 100.776 94.8461 101.66C95.9087 102.146 97.2715 102.67 97.9192 103.712C98.2201 104.196 98.3131 104.683 98.2841 105.171C98.244 105.847 97.3474 106.364 96.8729 106.72C96.1273 107.279 95.4991 107.891 95.0785 108.739C94.8696 109.16 94.7259 109.686 94.9767 110.083C95.5713 111.026 97.9509 110.113 98.7574 109.845C99.8767 109.472 101.011 108.965 102.177 108.758C107.143 107.875 112.218 107.13 116.675 104.766C117.306 104.431 118.737 103.894 118.912 103.201C119.349 101.476 114.232 103.125 113.616 103.325Z" fill="#CDDDE9"/>
<defs>
<linearGradient id="paint0_linear_308_181" x1="161.486" y1="88.9602" x2="288.517" y2="88.9602" gradientUnits="userSpaceOnUse">
<stop stop-color="#457AA5"/>
<stop offset="1" stop-color="#0E324F"/>
</linearGradient>
<linearGradient id="paint1_linear_308_181" x1="197.764" y1="115.157" x2="30.1816" y2="115.157" gradientUnits="userSpaceOnUse">
<stop stop-color="#457AA5"/>
<stop offset="1" stop-color="#0E324F"/>
</linearGradient>
<clipPath id="clip0_308_181">
<rect width="145" height="145" fill="white" transform="translate(144 0.426758)"/>
</clipPath>
</defs>
</svg>
