<svg width="578" height="145" viewBox="0 0 578 145" fill="none" xmlns="http://www.w3.org/2000/svg">
<path d="M288 145V1.52588e-05L359.84 1.52588e-05C400.245 1.52588e-05 433 32.4594 433 72.5C433 112.541 400.245 145 359.84 145L288 145Z" fill="#286AD8"/>
<path d="M105.125 145H0C0 64.9187 64.9187 0 145 0V105.125C145 127.147 127.147 145 105.125 145Z" fill="#286AD8"/>
<path d="M216.5 144.188C256.54 144.188 289 111.911 289 72.0943C289 32.2778 256.54 0 216.5 0C176.459 0 144 32.2777 144 72.0943C144 111.911 176.459 144.188 216.5 144.188Z" fill="#286AD8"/>
<path d="M432.189 105.125V0C512.271 0 577.189 64.9187 577.189 145H472.064C450.042 145 432.189 127.147 432.189 105.125Z" fill="#286AD8"/>
<path fill-rule="evenodd" clip-rule="evenodd" d="M216.5 32L250 52.2522V92.7389L216.5 113L183 92.7389V52.2522L216.5 32ZM191.451 57.3573V87.6427L216.5 102.781L241.549 87.6427V57.3484L216.5 42.219L191.451 57.3573Z" fill="#5287DF"/>
<path d="M224.951 72.4956C224.951 77.3883 221.165 81.3432 216.5 81.3432C211.835 81.3432 208.049 77.3883 208.049 72.4956C208.049 67.6117 211.835 63.648 216.5 63.648C221.165 63.648 224.951 67.6117 224.951 72.4956Z" fill="#5287DF"/>
</svg>
