<svg xmlns="http://www.w3.org/2000/svg" width="547" height="138" fill="none" viewBox="0 0 547 138"><path fill="#7aa5e7" d="M374.152 0c20.392 0 36.923 16.929 36.923 37.812V137.5h-137.5V0z"/><path fill="#7aa5e7" d="M374.152 0c20.392 0 36.923 16.929 36.923 37.812V137.5h-137.5V0z"/><path fill="#7aa5e7" d="M509.083 137.5h-99.687c0-75.94 61.561-137.5 137.5-137.5v99.687c0 20.883-16.929 37.813-37.813 37.813m-303.782-.001c-37.97 0-68.75-30.78-68.75-68.75S167.331 0 205.301 0s68.749 30.78 68.749 68.75-30.78 68.749-68.749 68.749M37.575 74.231c17.086 0 30.937-13.85 30.937-30.937 0-17.086-13.851-30.937-30.937-30.937S6.637 26.207 6.637 43.294c0 17.086 13.852 30.937 30.938 30.937"/><path fill="#7aa5e7" d="M137.499 0v137.5H0z"/><path fill="#5187df" d="M198.067 42.544c5.939 0 10.993 2.065 15.116 6.187 4.122 4.123 6.187 9.177 6.187 15.116q.001 3.601-1.15 6.814-1.025 2.854-2.715 5.136l17.242 17.242c.734.734 1.089 1.669 1.089 2.743 0 1.075-.355 2.01-1.089 2.744s-1.67 1.09-2.744 1.09-2.009-.356-2.743-1.09l-17.242-17.242q-2.284 1.69-5.136 2.715-3.214 1.152-6.815 1.15c-5.938 0-10.992-2.064-15.115-6.187s-6.187-9.177-6.187-15.115 2.065-10.993 6.187-15.116c4.123-4.122 9.177-6.187 15.115-6.187m0 7.824c-3.755 0-6.924 1.305-9.548 3.93-2.625 2.624-3.93 5.793-3.93 9.549s1.305 6.924 3.93 9.548c2.624 2.625 5.793 3.93 9.548 3.93s6.925-1.305 9.549-3.93c2.625-2.624 3.93-5.792 3.93-9.548s-1.305-6.925-3.93-9.55c-2.624-2.623-5.793-3.929-9.549-3.929"/></svg>