<svg xmlns="http://www.w3.org/2000/svg" width="496" height="125" fill="none" viewBox="0 0 496 125"><path fill="#003ba1" d="M186.369 124.82c34.468 0 62.41-27.785 62.41-62.06S220.837.699 186.369.699s-62.41 27.785-62.41 62.06 27.942 62.061 62.41 62.061"/><path fill="#003ba1" d="M247.057 90.495V0c68.936 0 124.82 55.884 124.82 124.82h-90.495c-18.957 0-34.325-15.368-34.325-34.325"/><path fill="#081b2b" fill-rule="evenodd" d="m186.369 27.546 28.838 17.434v34.852l-28.838 17.441-28.838-17.44V44.98zm-21.563 21.829v26.07l21.563 13.032 21.563-13.032V49.367l-21.563-13.024z" clip-rule="evenodd"/><path fill="#081b2b" d="M193.644 62.406c0 4.212-3.259 7.616-7.275 7.616s-7.275-3.404-7.275-7.616c0-4.204 3.259-7.616 7.275-7.616s7.275 3.412 7.275 7.616"/><path fill="#003ba1" d="M124.82 0v124.82H62.978C28.196 124.82 0 96.878 0 62.41S28.196 0 62.978 0zM371.18 0H456c22.091 0 40 17.909 40 40v44.82c0 22.091-17.909 40-40 40h-84.82z"/></svg>