<svg width="579" height="145" viewBox="0 0 579 145" fill="none" xmlns="http://www.w3.org/2000/svg">
<g id="Section-Components">
<g id="Group 151">
<path id="Vector" d="M533.344 74.2496C551.362 74.2496 565.969 59.6429 565.969 41.6247C565.969 23.6064 551.362 8.99969 533.344 8.99969C515.325 8.99969 500.719 23.6064 500.719 41.6247C500.719 59.6429 515.325 74.2496 533.344 74.2496Z" fill="#286AD8"/>
<path id="Vector_2" d="M579 145H434V0L579 145Z" fill="#286AD8"/>
</g>
<path id="Vector_3" d="M105.125 145H0C0 64.9187 64.9186 0 145 0V105.125C145 127.147 127.147 145 105.125 145Z" fill="#286AD8"/>
<path id="Vector_4" d="M290 0V145H217.665C177.533 145 145 112.541 145 72.5C145 32.4594 177.533 2.23036e-05 217.665 2.23036e-05L290 0Z" fill="#286AD8"/>
<path id="Vector_5" d="M361.5 145C401.541 145 434 112.541 434 72.5C434 32.4594 401.541 0 361.5 0C321.459 0 289 32.4594 289 72.5C289 112.541 321.459 145 361.5 145Z" fill="#286AD8"/>
<path id="Vector_6" style="mix-blend-mode:multiply" opacity="0.58" d="M433.517 80.8632L405.227 52.573C405.141 52.4841 405.051 52.3978 404.964 52.3093C404.877 52.2211 404.789 52.1355 404.702 52.0477C404.615 51.9585 404.526 51.8721 404.438 51.7836C404.351 51.6951 404.262 51.6088 404.175 51.5206C404.088 51.4318 403.999 51.3454 403.911 51.2569C400.537 47.8029 396.78 44.7268 392.641 42.0293C383.218 35.8892 372.792 32.8192 361.364 32.8192C349.936 32.8192 339.511 35.8892 330.088 42.0293C320.664 48.1697 313.224 56.2693 307.766 66.3345C307.339 67.1017 307.019 67.89 306.806 68.7033C306.593 69.5119 306.486 70.3409 306.486 71.1952C306.486 72.0499 306.593 72.8789 306.806 73.6925C307.019 74.5008 307.339 75.2887 307.766 76.0563C310.887 81.8132 314.661 86.9244 319.081 91.3969C319.167 91.4851 319.256 91.5711 319.342 91.6588L370.244 143.07L370.911 143.227C370.998 143.316 371.087 143.402 371.174 143.491C371.261 143.579 371.35 143.665 371.438 143.754C371.603 143.923 371.781 144.08 371.948 144.248C404.317 139.575 429.766 113.521 433.517 80.8632Z" fill="url(#paint0_linear_349_895)"/>
<path id="Vector_7" d="M345.054 86.5077C340.576 82.0253 338.338 76.5913 338.338 70.1953C338.338 63.7992 340.577 58.3652 345.054 53.8828C349.531 49.4107 354.967 47.1696 361.363 47.1696C367.76 47.1696 373.196 49.4107 377.673 53.8828C382.151 58.3652 384.389 63.7992 384.389 70.1953C384.389 76.5913 382.151 82.0253 377.673 86.5077C373.196 90.9798 367.76 93.2209 361.363 93.2209C354.967 93.2209 349.531 90.9798 345.054 86.5077ZM371.149 79.9837C373.836 77.2974 375.179 74.0329 375.179 70.1953C375.179 66.3576 373.836 63.0983 371.149 60.4119C368.463 57.7204 365.201 56.3799 361.363 56.3799C357.526 56.3799 354.264 57.7204 351.578 60.4119C348.891 63.0983 347.548 66.3576 347.548 70.1953C347.548 74.0329 348.891 77.2974 351.578 79.9837C354.264 82.6701 357.526 84.0107 361.363 84.0107C365.201 84.0107 368.463 82.6701 371.149 79.9837Z" fill="#5187DF"/>
<path id="Vector_8" d="M360.878 108.752C349.45 108.752 339.025 105.682 329.601 99.542C320.178 93.4019 312.5 85 307.279 75.2371C306.853 74.4696 306.533 73.6816 306.32 72.8732C306.107 72.0596 306 71.2307 306 70.3762C306 69.5216 306.107 68.6927 306.32 67.8843C306.533 67.0707 306.853 66.2827 307.279 65.5152C312.737 55.4503 320.178 47.3505 329.601 41.2103C339.025 35.0701 349.45 32 360.878 32C372.305 32 382.731 35.0701 392.154 41.2103C401.578 47.3505 409.019 55.4503 414.477 65.5152C414.903 66.2827 415.223 67.0707 415.436 67.8843C415.649 68.6927 415.756 69.5216 415.756 70.3762C415.756 71.2307 415.649 72.0596 415.436 72.8732C415.223 73.6816 414.903 74.4696 414.477 75.2371C409.019 85.302 401.578 93.4019 392.154 99.542C382.731 105.682 372.306 108.752 360.878 108.752ZM360.878 98.5187C370.515 98.5187 379.362 95.9807 387.421 90.9048C395.48 85.8341 401.642 78.9878 405.906 70.3762C401.642 61.7646 395.48 54.9183 387.421 49.8424C379.362 44.7716 370.515 42.2337 360.878 42.2337C351.241 42.2337 342.393 44.7716 334.334 49.8424C326.275 54.9183 320.114 61.7646 315.85 70.3762C320.114 78.9878 326.275 85.8341 334.334 90.9048C342.393 95.9807 351.241 98.5187 360.878 98.5187Z" fill="#5187DF"/>
<path id="Vector_9" d="M361.364 108.571C349.937 108.571 339.511 105.501 330.088 99.3611C320.664 93.2209 313.223 85.1211 307.766 75.0562C307.339 74.2887 307.019 73.5007 306.806 72.6923C306.593 71.8787 306.486 71.0498 306.486 70.1952C306.486 69.3407 306.593 68.5118 306.806 67.7034C307.019 66.8898 307.339 66.1018 307.766 65.3343C313.223 55.2694 320.664 47.1696 330.088 41.0294C339.511 34.8892 349.937 31.8191 361.364 31.8191C372.792 31.8191 383.218 34.8892 392.641 41.0294C402.064 47.1696 409.5 55.5 414.963 65.3343C415.39 66.1018 415.709 66.8898 415.922 67.7034C416.136 68.5118 416.242 69.3407 416.242 70.1952C416.242 71.0498 416.136 71.8787 415.922 72.6923C415.709 73.5007 415.39 74.2887 414.963 75.0562C409.505 85.1211 402.064 93.2209 392.641 99.3611C383.218 105.501 372.792 108.571 361.364 108.571ZM361.364 98.3378C371.001 98.3378 379.849 95.7998 387.908 90.7239C395.967 85.6532 402.128 78.8069 406.392 70.1953C402.128 61.5837 395.967 54.7374 387.908 49.6615C379.849 44.5907 371.001 42.0527 361.364 42.0527C351.728 42.0527 342.88 44.5907 334.821 49.6615C326.762 54.7374 320.6 61.5837 316.336 70.1953C320.6 78.8069 326.762 85.648 334.821 90.7239C342.88 95.7998 351.728 98.3378 361.364 98.3378Z" fill="#5187DF"/>
</g>
<defs>
<linearGradient id="paint0_linear_349_895" x1="306.486" y1="88.5335" x2="433.517" y2="88.5335" gradientUnits="userSpaceOnUse">
<stop stop-color="#7AA5E7"/>
<stop offset="1" stop-color="#003BA1"/>
</linearGradient>
</defs>
</svg>
