<svg xmlns="http://www.w3.org/2000/svg" width="578" height="145" fill="none" viewBox="0 0 578 145"><path fill="#5187df" d="M537.728 145H432.603c0-80.081 64.919-145 145-145v105.125c0 22.022-17.853 39.875-39.875 39.875"/><path fill="#154973" d="M72.5 145c40.041 0 72.5-32.459 72.5-72.5S112.541 0 72.5 0 0 32.46 0 72.5 32.46 145 72.5 145"/><path fill="#7aa5e7" d="m61.153 93.584 47.962-48.024q1.696-1.7 3.962-1.7t3.961 1.7q1.698 1.7 1.698 4.037 0 2.338-1.698 4.038l-51.923 52.132q-1.696 1.7-3.962 1.7t-3.961-1.7L32.858 81.401q-1.7-1.7-1.625-4.037.069-2.338 1.766-4.038 1.7-1.7 4.035-1.7 2.332 0 4.03 1.7z"/><path fill="#004dd1" d="M288.75 20c0-11.05 8.95-20 20-20h105c11.05 0 20 8.95 20 20v125h-125c-11.05 0-20-8.95-20-20z"/><path fill="#00288e" d="m433.75 87.31-32.17-32.17c-3.66-3.87-7.82-7.26-12.47-10.19-9.19-5.77-19.36-8.66-30.51-8.66s-21.32 2.89-30.51 8.66-16.45 13.38-21.78 22.84c-.42.72-.73 1.46-.94 2.22s-.31 1.54-.31 2.34.1 1.58.31 2.34.52 1.5.94 2.22c2.9 5.15 6.39 9.73 10.43 13.78L371.05 145h62.7V87.28z"/><path fill="#7aa5e7" d="M358.6 93.98c6.24 0 11.54-2.1 15.91-6.31s6.55-9.32 6.55-15.33-2.18-11.12-6.55-15.33-9.67-6.31-15.91-6.31-11.54 2.1-15.91 6.31-6.55 9.32-6.55 15.33 2.18 11.12 6.55 15.33 9.67 6.31 15.91 6.31m0-8.66c-3.74 0-6.93-1.26-9.55-3.79-2.62-2.52-3.93-5.59-3.93-9.2s1.31-6.67 3.93-9.2c2.62-2.52 5.8-3.79 9.55-3.79s6.93 1.26 9.55 3.79c2.62 2.52 3.93 5.59 3.93 9.2s-1.31 6.67-3.93 9.2c-2.62 2.52-5.8 3.79-9.55 3.79m0 23.09c-11.15 0-21.32-2.89-30.51-8.66s-16.45-13.38-21.78-22.84c-.42-.72-.73-1.46-.94-2.22s-.31-1.54-.31-2.34.1-1.58.31-2.34.52-1.5.94-2.22c5.32-9.46 12.58-17.07 21.78-22.84 9.19-5.77 19.36-8.66 30.51-8.66s21.32 2.89 30.51 8.66 16.45 13.38 21.78 22.84c.42.72.73 1.46.94 2.22s.31 1.54.31 2.34-.1 1.58-.31 2.34-.52 1.5-.94 2.22c-5.32 9.46-12.58 17.07-21.78 22.84-9.19 5.77-19.36 8.66-30.51 8.66m0-9.62c9.4 0 18.03-2.38 25.89-7.15s13.87-11.2 18.03-19.3c-4.16-8.1-10.17-14.53-18.03-19.3S368 45.89 358.6 45.89s-18.03 2.38-25.89 7.15-13.87 11.2-18.03 19.3c4.16 8.1 10.17 14.53 18.03 19.3s16.49 7.15 25.89 7.15"/><path fill="url(#a)" d="M144.75 145V0h72.335c40.132 0 72.665 32.46 72.665 72.5S257.217 145 217.085 145z"/><defs><linearGradient id="a" x1="145.012" x2="306.171" y1="-.155" y2="171.238" gradientUnits="userSpaceOnUse"><stop stop-color="#7aa5e7"/><stop offset=".997" stop-color="#003ba1"/></linearGradient></defs></svg>