<svg xmlns="http://www.w3.org/2000/svg" width="580" height="145" fill="none"><path fill="#286ad8" d="M395.125 145H290C290 64.919 354.919 0 435 0v105.125C435 127.147 417.147 145 395.125 145"/><path fill="url(#a)" d="M39.875 0C17.853 0 0 17.853 0 39.875V145h145V0z"/><g opacity=".6" style="mix-blend-mode:multiply"><mask id="b" width="145" height="145" x="0" y="0" maskUnits="userSpaceOnUse" style="mask-type:luminance"><path fill="#fff" d="M39.875 0C17.853 0 0 17.853 0 39.875V145h145V0z"/></mask><g mask="url(#b)"><path fill="#002971" d="M197.519 181.054a.5.5 0 0 0-.263-.263.51.51 0 0 0-.263-.263.5.5 0 0 0-.264-.263.5.5 0 0 0-.263-.263.5.5 0 0 0-.263-.263.5.5 0 0 0-.263-.263.5.5 0 0 0-.263-.264.5.5 0 0 0-.263-.263.5.5 0 0 0-.263-.263.5.5 0 0 0-.263-.263.51.51 0 0 0-.263-.263.5.5 0 0 0-.264-.263.5.5 0 0 0-.263-.263.5.5 0 0 0-.263-.263.5.5 0 0 0-.263-.263.52.52 0 0 0-.263-.264.51.51 0 0 0-.263-.263.5.5 0 0 0-.263-.263.5.5 0 0 0-.263-.263.51.51 0 0 0-.263-.263.5.5 0 0 0-.264-.263.5.5 0 0 0-.263-.263.5.5 0 0 0-.263-.263.5.5 0 0 0-.263-.263.5.5 0 0 0-.263-.263.5.5 0 0 0-.263-.263.5.5 0 0 0-.263-.264.5.5 0 0 0-.263-.263.51.51 0 0 0-.263-.263.51.51 0 0 0-.263-.263.5.5 0 0 0-.264-.263.5.5 0 0 0-.263-.263.5.5 0 0 0-.263-.263.5.5 0 0 0-.263-.263.52.52 0 0 0-.263-.264.51.51 0 0 0-.263-.263.5.5 0 0 0-.263-.263.5.5 0 0 0-.263-.263.51.51 0 0 0-.263-.263.5.5 0 0 0-.264-.263.5.5 0 0 0-.263-.263.5.5 0 0 0-.263-.263.5.5 0 0 0-.263-.263.5.5 0 0 0-.263-.263.5.5 0 0 0-.263-.264.51.51 0 0 0-.263-.263.5.5 0 0 0-.263-.263.51.51 0 0 0-.263-.263.5.5 0 0 0-.264-.263.5.5 0 0 0-.263-.263.5.5 0 0 0-.263-.263.5.5 0 0 0-.263-.263.5.5 0 0 0-.263-.263.5.5 0 0 0-.263-.263.5.5 0 0 0-.263-.264.5.5 0 0 0-.263-.263.51.51 0 0 0-.263-.263.51.51 0 0 0-.263-.263.5.5 0 0 0-.264-.263.5.5 0 0 0-.263-.263.5.5 0 0 0-.263-.263c-.02-.046-.04-.092-.074-.129.293-3.51 1.559-6.916 1.667-10.431.11-3.593.624-7.185.188-10.748-.387-3.163-1.597-6.919-1.346-10.105.061-.773.183-1.25.398-1.988.884-2.448.047-5.025.056-7.441.008-2.4.342-3.689-.483-4.299q-.105-.149-.263-.263-.106-.149-.263-.263-.106-.149-.263-.263-.106-.149-.263-.263-.106-.149-.263-.263-.106-.15-.263-.264a1.2 1.2 0 0 0-.263-.263q-.106-.149-.263-.263-.106-.149-.263-.263-.106-.149-.264-.263-.106-.149-.263-.263-.106-.149-.263-.263-.106-.149-.263-.263-.106-.148-.263-.264a1.2 1.2 0 0 0-.263-.263 1.2 1.2 0 0 0-.263-.263 1.2 1.2 0 0 0-.263-.263q-.106-.149-.264-.263-.105-.149-.263-.263-.105-.149-.263-.263-.106-.149-.263-.263-.106-.149-.263-.263-.106-.149-.263-.263-.106-.149-.263-.264a1.2 1.2 0 0 0-.263-.263 1.2 1.2 0 0 0-.263-.263q-.106-.149-.263-.263a1.2 1.2 0 0 0-.263-.263 1.2 1.2 0 0 0-.264-.263q-.105-.149-.263-.263-.106-.149-.263-.263-.106-.149-.263-.263-.106-.148-.263-.264a1.2 1.2 0 0 0-.263-.263 1.2 1.2 0 0 0-.263-.263 1.2 1.2 0 0 0-.263-.263q-.106-.149-.263-.263-.106-.149-.263-.263a1.2 1.2 0 0 0-.264-.263q-.106-.149-.263-.263-.106-.149-.263-.263-.106-.149-.263-.263-.106-.149-.263-.264a1.2 1.2 0 0 0-.263-.263 1.2 1.2 0 0 0-.263-.263 1.2 1.2 0 0 0-.263-.263q-.106-.149-.264-.263-.105-.149-.263-.263-.105-.149-.263-.263-.106-.149-.263-.263-.106-.149-.263-.263-.106-.148-.263-.264a1.2 1.2 0 0 0-.263-.263 1.2 1.2 0 0 0-.263-.263 1.2 1.2 0 0 0-.263-.263q-.106-.149-.264-.263-.105-.149-.263-.263-.105-.149-.263-.263-.106-.149-.263-.263-.106-.149-.263-.263-.106-.149-.263-.263-.106-.149-.263-.264a1.2 1.2 0 0 0-.263-.263 1.2 1.2 0 0 0-.263-.263q-.106-.149-.263-.263-.106-.149-.263-.263-.106-.149-.263-.263a1.2 1.2 0 0 0-.264-.263q-.106-.149-.263-.263-.106-.149-.263-.263-.106-.149-.263-.263-.106-.148-.263-.264a1.2 1.2 0 0 0-.263-.263 1.2 1.2 0 0 0-.263-.263 1.2 1.2 0 0 0-.263-.263q-.106-.149-.263-.263-.106-.149-.264-.263-.106-.149-.263-.263-.106-.149-.263-.263a1.2 1.2 0 0 0-.263-.263 1.2 1.2 0 0 0-.263-.264q-.106-.149-.263-.263a1.2 1.2 0 0 0-.263-.263 1.2 1.2 0 0 0-.263-.263q-.106-.149-.264-.263a1.1 1.1 0 0 0-.263-.263q-.105-.149-.263-.263a1.2 1.2 0 0 0-.263-.263q-.106-.149-.263-.263a1.2 1.2 0 0 0-.263-.263q-.106-.148-.263-.264a1.2 1.2 0 0 0-.263-.263q-.106-.149-.263-.263-.106-.149-.263-.263-.106-.149-.263-.263a1.2 1.2 0 0 0-.263-.263 1.2 1.2 0 0 0-.264-.263q-.106-.149-.263-.263-.106-.149-.263-.263-.106-.148-.263-.264-.106-.148-.263-.263a1.2 1.2 0 0 0-.263-.263q-.106-.149-.263-.263-.106-.149-.263-.263a1.2 1.2 0 0 0-.263-.263q-.106-.149-.264-.263-.106-.149-.263-.263a1.2 1.2 0 0 0-.263-.263 1.2 1.2 0 0 0-.263-.263 1.2 1.2 0 0 0-.263-.264 1.2 1.2 0 0 0-.263-.263q-.106-.149-.263-.263a1.2 1.2 0 0 0-.263-.263q-.106-.149-.264-.263-.105-.149-.263-.263-.105-.149-.263-.263a1.2 1.2 0 0 0-.263-.263q-.106-.149-.263-.263a1.2 1.2 0 0 0-.263-.264 1.2 1.2 0 0 0-.263-.263 1.2 1.2 0 0 0-.263-.263q-.106-.149-.263-.263-.106-.149-.263-.263-.106-.149-.263-.263a1.2 1.2 0 0 0-.264-.263q-.105-.149-.263-.263a1.2 1.2 0 0 0-.263-.263q-.106-.149-.263-.263-.106-.148-.263-.264c-.07-.1-.159-.185-.263-.263a1.2 1.2 0 0 0-.263-.263q-.106-.149-.263-.263a1.2 1.2 0 0 0-.263-.263 1.2 1.2 0 0 0-.263-.263 1.2 1.2 0 0 0-.264-.263 1.2 1.2 0 0 0-.263-.263 1.2 1.2 0 0 0-.263-.263 1.2 1.2 0 0 0-.263-.263q-.106-.15-.263-.264a1.2 1.2 0 0 0-.263-.263 1.2 1.2 0 0 0-.263-.263 1.2 1.2 0 0 0-.263-.263q-.106-.149-.264-.263a1.1 1.1 0 0 0-.263-.263q-.105-.149-.263-.263a1.2 1.2 0 0 0-.263-.263q-.106-.149-.263-.263-.106-.149-.263-.263-.106-.148-.263-.264a1.2 1.2 0 0 0-.263-.263q-.106-.149-.263-.263-.106-.149-.263-.263a1.2 1.2 0 0 0-.263-.263 1.2 1.2 0 0 0-.264-.263q-.105-.149-.263-.263a1.2 1.2 0 0 0-.263-.263q-.106-.149-.263-.263-.106-.149-.263-.264-.106-.148-.263-.263a1.2 1.2 0 0 0-.263-.263q-.106-.149-.263-.263a1.2 1.2 0 0 0-.263-.263 1.2 1.2 0 0 0-.263-.263 1.2 1.2 0 0 0-.264-.263 1.2 1.2 0 0 0-.263-.263 1.2 1.2 0 0 0-.263-.263 1.2 1.2 0 0 0-.263-.263 1.2 1.2 0 0 0-.263-.264 1.2 1.2 0 0 0-.263-.263q-.106-.149-.263-.263a1.2 1.2 0 0 0-.263-.263q-.106-.149-.264-.263-.105-.149-.263-.263-.105-.149-.263-.263-.106-.149-.263-.263a1.2 1.2 0 0 0-.263-.263q-.106-.149-.263-.264-.106-.149-.263-.263a1.2 1.2 0 0 0-.263-.263q-.106-.149-.263-.263-.106-.149-.264-.263-.105-.149-.263-.263-.105-.149-.263-.263-.106-.149-.263-.263a1.2 1.2 0 0 0-.263-.263q-.106-.149-.263-.263a1.2 1.2 0 0 0-.263-.264 1.2 1.2 0 0 0-.263-.263 1.2 1.2 0 0 0-.263-.263 1.2 1.2 0 0 0-.263-.263 1.2 1.2 0 0 0-.263-.263 1.2 1.2 0 0 0-.263-.263 1.2 1.2 0 0 0-.264-.263 1.2 1.2 0 0 0-.263-.263q-.106-.149-.263-.263a1.2 1.2 0 0 0-.263-.263q-.106-.15-.263-.264-.106-.149-.263-.263-.106-.149-.263-.263-.106-.149-.263-.263a1.2 1.2 0 0 0-.263-.263q-.106-.149-.264-.263-.106-.149-.263-.263a1.2 1.2 0 0 0-.263-.263q-.106-.149-.263-.263a1.2 1.2 0 0 0-.263-.264q-.106-.149-.263-.263-.106-.149-.263-.263-.106-.149-.263-.263-.106-.149-.264-.263-.105-.149-.263-.263a1.1 1.1 0 0 0-.263-.263 1.2 1.2 0 0 0-.263-.263 1.2 1.2 0 0 0-.263-.263 1.2 1.2 0 0 0-.263-.263 1.2 1.2 0 0 0-.263-.264 1.2 1.2 0 0 0-.263-.263 1.2 1.2 0 0 0-.263-.263q-.106-.149-.263-.263a1.2 1.2 0 0 0-.263-.263 1.2 1.2 0 0 0-.263-.263 1.2 1.2 0 0 0-.264-.263 1.2 1.2 0 0 0-.263-.263q-.106-.149-.263-.263-.106-.149-.263-.263a1.2 1.2 0 0 0-.263-.263q-.106-.15-.263-.264-.106-.149-.263-.263-.106-.149-.263-.263a1.2 1.2 0 0 0-.263-.263q-.106-.149-.264-.263a1.2 1.2 0 0 0-.263-.263 1.2 1.2 0 0 0-.263-.263 1.2 1.2 0 0 0-.263-.263q-.106-.148-.263-.264-.106-.149-.263-.263-.106-.149-.263-.263-.106-.149-.263-.263-.106-.149-.264-.263-.105-.149-.263-.263a1.1 1.1 0 0 0-.263-.263 1.2 1.2 0 0 0-.263-.263 1.2 1.2 0 0 0-.263-.263q-.106-.149-.263-.263a1.2 1.2 0 0 0-.263-.264 1.2 1.2 0 0 0-.263-.263 1.2 1.2 0 0 0-.263-.263 1.2 1.2 0 0 0-.263-.263q-.106-.149-.263-.263a1.2 1.2 0 0 0-.264-.263 1.1 1.1 0 0 0-.263-.263q-.106-.149-.263-.263-.106-.149-.263-.263-.106-.149-.263-.263a1.2 1.2 0 0 0-.263-.263q-.106-.15-.263-.264a1.2 1.2 0 0 0-.263-.263 1.2 1.2 0 0 0-.263-.263 1.2 1.2 0 0 0-.263-.263q-.106-.149-.264-.263-.106-.149-.263-.263-.106-.149-.263-.263-.106-.149-.263-.263a1.2 1.2 0 0 0-.263-.264q-.106-.149-.263-.263a1.2 1.2 0 0 0-.263-.263 1.2 1.2 0 0 0-.263-.263q-.106-.149-.264-.263a1.1 1.1 0 0 0-.263-.263 1.1 1.1 0 0 0-.263-.263 1.2 1.2 0 0 0-.263-.263 1.2 1.2 0 0 0-.263-.263 1.2 1.2 0 0 0-.263-.263q-.106-.148-.263-.264-.106-.149-.263-.263a1.2 1.2 0 0 0-.263-.263q-.106-.149-.263-.263a1.2 1.2 0 0 0-.264-.263q-.105-.149-.263-.263a1.1 1.1 0 0 0-.263-.263q-.106-.149-.263-.263a1.2 1.2 0 0 0-.263-.263 1.2 1.2 0 0 0-.263-.263 1.2 1.2 0 0 0-.263-.263q-.106-.15-.263-.264-.106-.149-.263-.263-.106-.149-.263-.263-.106-.149-.263-.263a1.2 1.2 0 0 0-.264-.263q-.106-.149-.263-.263a1.2 1.2 0 0 0-.263-.263 1.2 1.2 0 0 0-.263-.263 1.2 1.2 0 0 0-.263-.264q-.106-.149-.263-.263a1.2 1.2 0 0 0-.263-.263 1.2 1.2 0 0 0-.263-.263q-.106-.149-.264-.263-.105-.149-.263-.263a1.1 1.1 0 0 0-.263-.263c-.215-.306-.575-.503-1.171-.613-1.937-.357-7.365.17-9.459.032-2.932.08-5.92-.064-8.589 1.19-3.315 1.58-5.902 4.439-8.083 7.28-1.185 1.897-3.592 2.486-4.81 4.336-1.232 1.705-.223 3.603-.152 5.473.076 5.77-1.927 4.912-5.63 7.895-1.598 1.288-3.745 1.534-5.728 1.58-1.572.036-3.753.292-5.276-.104-1.513-.394-2.869-1.504-4.497-1.504-2.318-.266-5.844-.155-8.332.338-1.762.384-3.18.71-3.235 2.693-.02 1.75 2.197 3.535 1.836 5.33-.794 3.17-4.81 5.121-7.375 6.692-.664.352-1.731.867-2.178 1.499-.745 1.053-.58 4.267.002 4.272h.004c.073.162.16.263.259.264h.004c.073.161.16.262.259.263h.005c.072.162.158.262.258.263h.005c.072.162.158.262.258.263h.005c.072.162.159.262.258.263h.005c.072.162.159.262.258.263h.005c.073.162.159.262.258.263h.005c.073.162.159.262.258.263h.005c.073.162.159.262.259.263h.004c.073.162.16.262.259.263h.004c.073.162.16.263.259.264h.004c.073.162.16.262.259.263h.005c.072.162.158.262.258.263h.005c.072.162.159.262.258.263h.005c.072.162.159.262.258.263h.005c.073.162.159.262.258.263h.005c.073.162.159.262.258.263h.005c.073.162.159.262.258.263h.005c.073.162.16.262.259.263h.004c.073.162.16.263.259.264h.004c.073.161.16.262.259.263h.005c.072.162.158.262.258.263h.005c.072.162.159.262.258.263h.005c.072.162.159.262.258.263h.005c.073.162.159.262.258.263h.005c.073.162.159.262.258.263h.005c.073.162.159.262.258.263h.005c.073.162.16.262.259.263h.004c.073.162.16.263.259.264h.004c.073.161.16.262.259.263h.004c.073.162.16.262.259.263h.005c.072.162.158.262.258.263h.005c.072.162.159.262.258.263h.005c.072.162.159.262.258.263h.005c.073.162.159.262.258.263h.005c.073.162.159.262.258.263h.005c.073.162.159.262.259.263h.004c.073.162.16.262.259.264h.004c.073.161.16.262.259.263h.004c.073.161.16.262.259.263h.005c.072.162.158.262.258.263h.005c.072.162.159.262.258.263h.005c.072.162.159.262.258.263h.005c.073.162.159.262.258.263h.005c.073.162.159.262.258.263h.005c.073.162.159.262.258.263h.005c.073.162.16.262.259.263h.004c.073.162.16.263.259.264h.004c.073.162.16.262.259.263h.005c.072.162.158.262.258.263h.005c.072.162.158.262.258.263h.005c.072.162.159.262.258.263h.005c.073.162.159.262.258.263h.005c.073.162.159.262.258.263h.005c.073.162.159.262.258.263h.005c.073.162.16.262.259.263h.004c.073.162.16.263.259.264h.004c.073.162.16.262.259.263h.005c.072.162.158.262.258.263h.005c.072.162.158.262.258.263h.005c.072.162.159.262.258.263h.005c.072.162.159.262.258.263h.005c.073.162.159.262.258.263h.005c.073.162.159.262.258.263h.005c.073.162.16.262.259.263h.004c.073.162.16.263.259.264h.004c.073.161.16.262.259.263h.004c.073.162.16.262.259.263h.005c.072.162.158.262.258.263h.005c.072.162.159.262.258.263h.005c.072.162.159.262.258.263h.005c.073.162.159.262.258.263h.005c.073.162.159.262.258.263h.005c.073.162.159.262.259.263h.004c.073.162.16.262.259.264h.004c.073.161.16.262.259.263h.004c.073.162.16.262.259.263h.005c.072.162.158.262.258.263h.005c.072.162.158.262.258.263h.005c.072.162.159.262.258.263h.005c.073.162.159.262.258.263h.005c.073.162.159.262.258.263h.005c.073.162.159.262.258.263h.005c.073.162.16.262.259.264h.004c.073.161.16.262.259.263h.004c.073.161.16.262.259.263h.004c.073.162.16.262.259.263h.005c.072.162.158.262.258.263h.005c.072.162.159.262.258.263h.005c.073.162.159.262.258.263h.005c.073.162.159.262.258.263h.005c.073.162.159.262.258.263h.005c.073.162.16.262.259.263h.004c.073.162.16.263.259.264h.004c.073.161.16.262.259.263h.005c.072.162.158.262.258.263h.005c.072.162.158.262.258.263h.005c.072.162.159.262.258.263h.005c.072.162.159.262.258.263h.005c.073.162.159.262.258.263h.005c.073.162.159.262.258.263h.005c.073.162.159.262.258.263h.005c.073.162.16.262.259.263h.004c.073.162.16.263.259.264h.004c.073.162.16.262.259.263h.005c.072.162.158.262.258.263h.005c.072.162.159.262.258.263h.005c.072.162.159.262.258.263h.005c.073.162.159.262.258.263h.005c.073.162.159.262.258.263h.005c.073.162.159.262.258.263h.005c.073.162.16.262.259.264h.004c.073.161.16.262.259.263h.004c.073.161.16.262.259.263h.005c.072.162.158.262.258.263h.005c.072.162.158.262.258.263h.005c.072.162.159.262.258.263h.005c.073.162.159.262.258.263h.005c.073.162.159.262.258.263h.005c.073.162.159.262.258.263h.005c.073.162.16.262.259.263h.004c.073.162.16.263.259.264h.004c.073.161.16.262.259.263h.004c.073.162.16.262.259.263h.005c.072.162.158.262.258.263h.005c.072.162.159.262.258.263h.005c.072.162.159.262.258.263h.005c.073.162.159.262.258.263h.005c.073.162.159.262.258.263h.005c.073.162.16.262.259.263h.004c.073.162.16.262.259.264H65c.073.161.16.262.259.263h.004c.073.162.16.262.259.263h.005c.072.162.158.262.258.263h.005c.072.162.159.262.258.263h.005c.072.162.159.262.258.263h.005c.073.162.159.262.258.263h.005c.073.162.159.262.258.263h.005c.073.162.159.262.258.263h.005c.073.162.16.262.259.263h.004c.073.162.16.263.259.264h.004c.073.162.16.262.259.263h.005c.072.162.158.262.258.263h.005c.072.162.159.262.258.263h.005c.072.162.159.262.258.263h.005c.073.162.159.262.258.263h.005c.073.162.159.262.258.263h.005c.073.162.159.262.258.263h.005c.073.162.16.262.259.263h.004c.073.162.16.263.259.264H70c.073.161.16.262.259.263h.005c.072.162.158.262.258.263h.005c.072.162.158.262.258.263h.005c.072.162.159.262.258.263h.005c.073.162.159.262.258.263h.005c.073.162.159.262.258.263h.005c.073.162.159.262.258.263h.005c.073.162.159.262.259.263h.004c.073.162.16.263.259.264h.004c.073.161.16.262.259.263h.005c.072.162.158.262.258.263h.005c.072.162.158.262.258.263h.005c.072.162.159.262.258.263h.005c.072.162.159.262.258.263h.005c.073.162.159.262.258.263h.005c.073.162.159.262.258.263h.005c.073.162.159.262.258.263h.005c.073.162.16.262.259.263h.004c.073.162.16.263.259.264h.004c.073.162.16.262.259.263h.005c.072.162.158.262.258.263h.005c.072.162.159.262.258.263h.005c.072.162.159.262.258.263h.005c.073.162.159.262.258.263h.005c.073.162.159.262.258.263h.005c.073.162.159.262.258.263h.005c.073.162.16.262.259.263h.004c.073.162.16.263.259.264h.004c.073.161.16.262.259.263h.005c.072.162.158.262.258.263h.005c.072.162.158.262.258.263h.005c.072.162.159.262.258.263h.005c.072.162.159.262.258.263h.005c.073.162.159.262.258.263h.005c.073.162.159.262.258.263h.005c.073.162.16.262.259.263h.004c.073.162.16.263.259.264h.004c.073.161.16.262.259.263h.004c.073.162.16.262.259.263h.005c.072.162.158.262.258.263h.005c.072.162.159.262.258.263h.005c.072.162.159.262.258.263h.005c.073.162.159.262.258.263h.005c.073.162.159.262.258.263h.005c.073.162.159.262.259.263h.004c.073.162.16.262.259.264h.004c.073.161.16.262.259.263h.004c.073.161.16.262.259.263h.005c.072.162.158.262.258.263h.005c.072.162.159.262.258.263h.005c.072.162.159.262.258.263h.005c.073.162.159.262.258.263h.005c.073.162.159.262.258.263h.005c.073.162.159.262.258.263h.005c.073.162.16.262.259.263h.004c.073.162.16.263.259.264h.004c.073.161.16.262.259.263h.005c.072.162.158.262.258.263h.005c.072.162.158.262.258.263h.005c.072.162.159.262.258.263h.005c.073.162.159.262.258.263h.005c.073.162.159.262.258.263h.005c.073.162.159.262.258.263h.005c.073.162.16.262.259.263h.004c.073.162.16.263.259.264h.004c.073.161.16.262.259.263h.005c.072.162.158.262.258.263h.005c.072.162.158.262.258.263h.005c.072.162.159.262.258.263h.005c.072.162.159.262.258.263h.005c.073.162.159.262.258.263h.005c.073.162.159.262.258.263h.005c.073.162.16.262.259.263h.004c.073.162.16.262.259.264h.004c.073.161.16.262.259.263h.004c.073.162.16.262.259.263h.005c.072.162.158.262.258.263h.005c.072.162.159.262.258.263h.005c.072.162.159.262.258.263h.005c.073.162.159.262.258.263h.005c.073.162.159.262.258.263h.005c.073.162.159.262.259.263h.004c.073.162.16.262.259.263h.004c.073.162.16.263.259.264h.004c.073.161.16.262.259.263h.005c.072.162.158.262.258.263h.005c.072.162.158.262.258.263h.005c.072.162.159.262.258.263h.005c.073.162.159.262.258.263h.005c.073.162.159.262.258.263h.005c.073.162.159.262.258.263h.005c.073.162.16.262.259.263h.004c.073.162.16.263.259.264h.004c.073.161.16.262.259.263h.004c.073.162.16.262.259.263h.005c.072.162.158.262.258.263h.005c.072.162.159.262.258.263h.005c.073.162.159.262.258.263h.005c.073.162.159.262.258.263h.005c.073.162.159.262.258.263h.005c.073.162.16.262.259.263h.004c.073.162.16.262.259.263h.004c.073.162.16.263.259.264h.004c.073.162.16.262.259.263h.005c.072.162.158.262.258.263h.005c.072.162.159.262.258.263h.005c.072.162.159.262.258.263h.005c.073.162.159.262.258.263h.005c.073.162.159.262.258.263h.005c.073.162.159.262.258.263h.005c.073.162.16.262.259.263h.004c.073.162.16.263.259.264h.004c.073.161.16.262.259.263h.005c.072.162.158.262.258.263h.005c.072.162.159.262.258.263h.005c.072.162.159.262.258.263h.005c.073.162.159.262.258.263h.005c.073.162.159.262.258.263h.005c.073.162.159.262.259.263h.004c.073.162.159.262.259.263h.004c.073.162.159.263.259.264h.004c.073.161.159.262.259.263h.005c.072.162.158.262.258.263h.005c.072.162.159.262.258.263h.005c.072.162.159.262.258.263h.005c.073.162.159.262.258.263h.005c.073.162.159.262.258.263h.005c.073.162.159.262.259.263h.004c.073.162.159.262.259.263h.004c.073.162.159.262.259.264h.004c.073.161.159.262.259.263h.005c.072.161.158.262.258.263h.005c.072.162.158.262.258.263h.005c.072.162.159.262.258.263h.005c.073.162.159.262.258.263h.005c.073.162.159.262.258.263h.005c.073.162.159.262.258.263h.005c.073.162.159.262.259.263h.004c.073.162.159.262.259.263h.004c.073.162.159.263.259.264h.004c.073.161.159.262.259.263h.005c.072.162.158.262.258.263h.005c.072.162.159.262.258.263h.005c.073.162.159.262.258.263h.005c.073.162.159.262.258.263h.005c.073.162.159.262.258.263h.005c.073.162.159.262.259.263h.004c.073.162.159.262.259.263h.004c.073.162.159.263.259.264h.004c.073.161.159.262.259.263 7.697.026 28.397.039 42.336.037a.8.8 0 0 0 .199.173q.004.012.008.023a.76.76 0 0 0 .255.24c.004.007.004.016.008.023a.75.75 0 0 0 .255.24c.004.008.004.016.008.023a.75.75 0 0 0 .255.24c.004.008.004.016.009.024a.75.75 0 0 0 .254.239c.004.008.004.016.009.024a.76.76 0 0 0 .254.24c.004.007.004.015.009.023a.75.75 0 0 0 .254.24c.004.007.004.016.009.023a.76.76 0 0 0 .254.24c.005.007.004.016.009.023a.76.76 0 0 0 .254.24c.005.007.004.016.009.023a.76.76 0 0 0 .254.24c.005.007.005.016.009.023a.75.75 0 0 0 .255.24q.004.011.008.023a.75.75 0 0 0 .255.24c.004.007.004.016.008.023a.76.76 0 0 0 .255.24c.004.008.004.016.008.023a.75.75 0 0 0 .255.24c.004.008.004.016.009.024a.75.75 0 0 0 .254.239c.004.008.004.016.009.024a.76.76 0 0 0 .254.24c.004.007.004.016.009.023a.75.75 0 0 0 .254.24c.004.007.004.016.009.023a.76.76 0 0 0 .254.24c.005.007.004.016.009.023a.76.76 0 0 0 .254.24c.005.007.004.016.009.023a.76.76 0 0 0 .254.24c.005.007.005.016.009.023a.76.76 0 0 0 .254.24c.005.007.005.016.009.023a.75.75 0 0 0 .255.24c.004.008.004.016.008.023a.75.75 0 0 0 .255.24c.004.008.004.016.008.024a.76.76 0 0 0 .255.239c.004.008.004.016.009.024a.75.75 0 0 0 .254.239c.004.008.004.016.009.024a.75.75 0 0 0 .254.24c.004.007.004.016.009.023a.75.75 0 0 0 .254.24c.004.007.004.016.009.023a.76.76 0 0 0 .254.24c.005.007.004.016.009.023a.76.76 0 0 0 .254.24c.005.007.004.016.009.023a.76.76 0 0 0 .254.24c.005.007.005.016.009.023a.75.75 0 0 0 .255.24c.004.008.004.016.008.023a.75.75 0 0 0 .255.24c.004.008.004.016.008.023a.75.75 0 0 0 .255.24c.004.008.004.016.008.024a.8.8 0 0 0 .255.24c.004.007.004.016.009.023a.75.75 0 0 0 .254.24c.004.007.004.016.009.023a.75.75 0 0 0 .254.24c.004.007.004.016.009.023a.75.75 0 0 0 .254.24c.004.007.004.016.009.023a.76.76 0 0 0 .254.24c.005.007.004.016.009.023a.76.76 0 0 0 .254.24c.005.007.004.016.009.023a.76.76 0 0 0 .254.24c.005.007.005.016.009.023a.74.74 0 0 0 .255.24c.004.008.004.016.008.023a.75.75 0 0 0 .255.24c.004.008.004.016.008.024a.76.76 0 0 0 .255.239c.004.008.004.016.008.024a.8.8 0 0 0 .255.24c.004.007.004.016.009.023a.75.75 0 0 0 .254.24c.004.007.004.016.009.023a.75.75 0 0 0 .254.24c.004.007.004.016.009.023a.75.75 0 0 0 .254.24c.004.007.004.016.009.023a.76.76 0 0 0 .254.24c.005.007.004.016.009.023a.76.76 0 0 0 .254.24c.005.007.005.016.009.023a.76.76 0 0 0 .254.24c.005.008.005.016.009.023a.74.74 0 0 0 .255.24c.004.008.004.016.008.024a.76.76 0 0 0 .255.239c.004.008.004.016.008.024a.8.8 0 0 0 .255.24c.004.007.004.015.008.023a.76.76 0 0 0 .255.24c.004.007.004.016.009.023a.75.75 0 0 0 .254.24c.004.007.004.016.009.023a.75.75 0 0 0 .254.24c.004.007.004.016.009.023a.75.75 0 0 0 .254.24c.005.007.004.016.009.023a.76.76 0 0 0 .254.24c.005.007.004.016.009.023a.75.75 0 0 0 .254.24c.005.008.004.016.009.023a.75.75 0 0 0 .254.24c.005.008.005.016.009.023a.74.74 0 0 0 .255.24c.004.008.004.016.008.024a.8.8 0 0 0 .255.24c.004.007.004.015.008.023a.8.8 0 0 0 .255.24c.004.007.004.016.008.023a.76.76 0 0 0 .255.24c.004.007.004.016.009.023a.75.75 0 0 0 .254.24c.004.007.004.016.009.023a.75.75 0 0 0 .254.24c.004.007.004.016.009.023a.75.75 0 0 0 .254.24c.004.007.004.016.009.023a.76.76 0 0 0 .254.24c.005.007.004.016.009.023a.75.75 0 0 0 .254.24c.005.008.004.016.009.023a.75.75 0 0 0 .254.24c.005.008.005.016.009.024a.75.75 0 0 0 .255.239c.004.008.004.016.008.024a.8.8 0 0 0 .255.24c.004.007.004.016.008.023a.76.76 0 0 0 .255.24q.004.011.008.023a.76.76 0 0 0 .255.24c.004.007.004.016.009.023a.75.75 0 0 0 .254.24c.004.007.004.016.009.023a.75.75 0 0 0 .254.24c.004.007.004.016.009.023a.75.75 0 0 0 .254.24c.004.007.004.016.009.023a.75.75 0 0 0 .254.24c.005.008.004.016.009.023a.75.75 0 0 0 .254.24c.005.008.004.016.009.024a.75.75 0 0 0 .254.239c.005.008.005.016.009.024a.76.76 0 0 0 .255.24c.004.007.004.016.008.023a.76.76 0 0 0 .255.24c.004.007.004.016.008.023a.76.76 0 0 0 .255.24q.004.011.008.023a.76.76 0 0 0 .255.24c.004.007.004.016.009.023.595.943 2.978.03 3.785-.239 1.121-.372 2.257-.879 3.425-1.086 4.972-.884 10.054-1.629 14.517-3.993.632-.335 2.064-.871 2.24-1.564.083-.33-.038-.535-.291-.652z" opacity=".58" style="mix-blend-mode:multiply"/></g></g><path fill="#7aa5e7" d="M113.575 102.898c-1.107.389-2.298.365-3.451.531-2.552.439-6.111 1.167-8.634 1.251-1.27.132-1.88-.84-1.584-2.093.346-1.572 1.807-2.535 1.703-4.186-.197-3.35.864-7.076.803-10.46-.179-4.228 1.59-8.25 1.719-12.428.11-3.592.624-7.184.188-10.747-.388-3.163-1.598-6.919-1.346-10.105.061-.773.183-1.25.397-1.988.885-2.448.048-5.025.057-7.441.01-3.027.547-4.291-1.391-4.649-1.937-.357-7.365.17-9.459.032-2.932.08-5.92-.064-8.589 1.19-3.315 1.58-5.902 4.439-8.083 7.28-1.184 1.897-3.592 2.486-4.81 4.336-1.231 1.705-.223 3.603-.152 5.473.076 5.77-1.927 4.912-5.63 7.895-1.598 1.288-3.745 1.534-5.728 1.58-1.572.036-3.753.292-5.276-.104-1.513-.394-2.868-1.504-4.497-1.504-2.318-.266-5.843-.155-8.331.338-1.763.384-3.18.71-3.236 2.693-.02 1.75 2.198 3.535 1.836 5.33-.794 3.17-4.81 5.121-7.375 6.692-.664.352-1.731.867-2.178 1.499-.745 1.053-.58 4.267.002 4.272 9.147.031 36.662.045 49.366.034 1.661.146 2.754 1.316 3.549 2.855.805 1.401.9 3.242 1.57 4.64.854 1.476 3.045 2.088 4.407 3.002 1.77 1.056 3.423 2.234 5.358 3.117 1.064.486 2.429 1.01 3.077 2.052.301.484.395.971.366 1.46-.04.675-.938 1.192-1.414 1.548-.746.559-1.375 1.171-1.796 2.019-.21.422-.353.947-.102 1.345.595.943 2.978.029 3.785-.239 1.121-.373 2.257-.879 3.425-1.086 4.972-.884 10.054-1.629 14.517-3.993.632-.335 2.064-.871 2.24-1.565.437-1.724-4.686-.076-5.303.124"/><path fill="#a3c2ee" d="M474.875 145C452.853 145 435 127.148 435 105.125V0h145v145z"/><path fill="#003ba1" d="M290 0v145h-72.335C177.533 145 145 112.541 145 72.5S177.533 0 217.665 0z"/><path fill="url(#c)" d="M580 145c-91 0-145-54.5-145-145 92.5 0 145 52 145 145"/><defs><linearGradient id="a" x1="-50" x2="140" y1="-46" y2="138" gradientUnits="userSpaceOnUse"><stop stop-color="#7aa5e7"/><stop offset=".997" stop-color="#003ba1"/></linearGradient><linearGradient id="c" x1="507.5" x2="507.5" y1="0" y2="145" gradientUnits="userSpaceOnUse"><stop stop-color="#7aa5e7"/><stop offset="1" stop-color="#002971"/></linearGradient></defs></svg>