<svg width="577" height="145" viewBox="0 0 577 145" fill="none" xmlns="http://www.w3.org/2000/svg">
<path d="M105.125 145H0C0 64.9187 64.9186 0 145 0V105.125C145 127.147 127.147 145 105.125 145Z" fill="#286AD8"/>
<path d="M289 0V145H216.665C176.533 145 144 112.541 144 72.5C144 32.4594 176.533 2.23036e-05 216.665 2.23036e-05L289 0Z" fill="#286AD8"/>
<path d="M531.344 74.2496C549.362 74.2496 563.969 59.6429 563.969 41.6247C563.969 23.6064 549.362 8.99969 531.344 8.99969C513.325 8.99969 498.719 23.6064 498.719 41.6247C498.719 59.6429 513.325 74.2496 531.344 74.2496Z" fill="#286AD8"/>
<path d="M577 145H432V0L577 145Z" fill="#286AD8"/>
<path d="M360.5 145C400.54 145 433 112.541 433 72.5007C433 32.4602 400.54 0.000976562 360.5 0.000976562C320.459 0.000976562 288 32.4602 288 72.5007C288 112.541 320.459 145 360.5 145Z" fill="#286AD8"/>
<g style="mix-blend-mode:multiply" opacity="0.65">
<path d="M417.5 117.273L409.485 72.5005L387.619 50.6341L383.965 54.2874L382.366 45.3563L360.5 23.4899L338.634 45.3562L340.965 58.3805L333.219 50.6341L311.352 72.5004L322.394 134.176C333.468 141.032 346.518 145 360.5 145C383.636 145 404.226 134.149 417.5 117.273Z" fill="url(#paint0_linear_1150_5430)"/>
</g>
<path d="M333.219 50.6342L311.353 72.5004L333.219 94.3666L355.085 72.5004L333.219 50.6342Z" fill="#5187DF"/>
<path d="M360.5 23.49L338.634 45.3562L360.5 67.2225L382.366 45.3562L360.5 23.49Z" fill="#5187DF"/>
<path d="M360.5 77.7785L338.634 99.6447L360.5 121.511L382.366 99.6447L360.5 77.7785Z" fill="#5187DF"/>
<path d="M387.644 50.6342L365.778 72.5004L387.644 94.3666L409.51 72.5004L387.644 50.6342Z" fill="#5187DF"/>
<defs>
<linearGradient id="paint0_linear_1150_5430" x1="346" y1="74.5" x2="434" y2="145" gradientUnits="userSpaceOnUse">
<stop stop-color="#7AA5E7"/>
<stop offset="1" stop-color="#0049A1"/>
</linearGradient>
</defs>
</svg>
