<svg width="496" height="125" viewBox="0 0 496 125" fill="none" xmlns="http://www.w3.org/2000/svg">
<path d="M186.369 124.82C220.837 124.82 248.779 97.0345 248.779 62.7595C248.779 28.4844 220.837 0.69873 186.369 0.69873C151.901 0.69873 123.959 28.4843 123.959 62.7595C123.959 97.0346 151.901 124.82 186.369 124.82Z" fill="#003BA1"/>
<path d="M247.057 90.4945V0C315.993 0 371.877 55.8838 371.877 124.82H281.382C262.425 124.82 247.057 109.452 247.057 90.4945Z" fill="#003BA1"/>
<path fill-rule="evenodd" clip-rule="evenodd" d="M186.369 27.5464L215.207 44.98V79.8321L186.369 97.2734L157.531 79.8321V44.98L186.369 27.5464ZM164.806 49.3746V75.4452L186.369 88.4766L207.932 75.4452V49.367L186.369 36.3432L164.806 49.3746Z" fill="#081B2B"/>
<path d="M193.644 62.4061C193.644 66.6179 190.385 70.0224 186.369 70.0224C182.353 70.0224 179.094 66.6179 179.094 62.4061C179.094 58.2019 182.353 54.7898 186.369 54.7898C190.385 54.7898 193.644 58.2019 193.644 62.4061Z" fill="#081B2B"/>
<path d="M124.82 0V124.82H62.9781C28.1963 124.82 0 96.8781 0 62.41C0 27.9419 28.1963 1.91995e-05 62.9781 1.91995e-05L124.82 0Z" fill="#003BA1"/>
<path d="M371.18 0H456C478.091 0 496 17.9086 496 40V84.82C496 106.911 478.091 124.82 456 124.82H371.18V0Z" fill="#003BA1"/>
</svg>
