<svg xmlns="http://www.w3.org/2000/svg" width="581" height="146" fill="none" viewBox="0 0 581 146"><path fill="url(#a)" d="M435.299 145.501h-145v-145zm-45.656-136c18.018 0 32.625 14.607 32.625 32.625s-14.607 32.625-32.625 32.625-32.625-14.607-32.625-32.625 14.607-32.625 32.625-32.625"/><path fill="#244783" d="M475.174.501c-22.022 0-39.875 17.853-39.875 39.875v105.125h145v-145z"/><path fill="url(#b)" d="M105.423 145.501H.298c0-80.081 64.92-145 145-145v105.125c0 22.023-17.852 39.875-39.875 39.875"/><path fill="#1d4874" d="M217.798 145.501c40.04 0 72.5-32.459 72.5-72.5s-32.46-72.5-72.5-72.5-72.5 32.46-72.5 72.5 32.46 72.5 72.5 72.5"/><path fill="#000" d="m217.626 145.497.109.003.063.001c40.04 0 72.5-32.459 72.5-72.5 0-2.307-.119-4.586-.33-6.839l-72.17-48.174-13.029 40.102h-42.165l34.112 24.784-13.03 40.101z" opacity=".27" style="mix-blend-mode:multiply"/><path fill="#7fa3e9" d="m217.798 17.988 13.03 40.102h42.165l-34.112 24.784 13.029 40.101-34.112-24.784-34.112 24.784 13.03-40.101-34.112-24.784h42.165z"/><defs><linearGradient id="a" x1="305.189" x2="411.721" y1="145.501" y2="26.607" gradientUnits="userSpaceOnUse"><stop stop-color="#7aa5e7"/><stop offset=".997" stop-color="#003ba1"/></linearGradient><linearGradient id="b" x1="46" x2="135" y1="38" y2="139" gradientUnits="userSpaceOnUse"><stop stop-color="#7fa3e9"/><stop offset="1" stop-color="#183059"/></linearGradient></defs></svg>