<svg width="550" height="139" viewBox="0 0 550 139" fill="none" xmlns="http://www.w3.org/2000/svg">
<g clip-path="url(#clip0_1337_2841)">
<path d="M275 30.475C275 13.9065 288.431 0.475037 305 0.475037H412.5V107.975C412.5 124.544 399.069 137.975 382.5 137.975H275V30.475Z" fill="#2D618C"/>
<path d="M0.739681 0.475037V138.69H69.6902C107.944 138.69 138.955 107.749 138.955 69.5825C138.955 31.4155 107.944 0.475058 69.6902 0.475058L0.739681 0.475037Z" fill="url(#paint0_linear_1337_2841)"/>
<path d="M206.705 137.975C244.674 137.975 275.456 107.195 275.456 69.2252C275.456 31.2557 244.674 0.475037 206.705 0.475037C168.735 0.475037 137.955 31.2556 137.955 69.2252C137.955 107.195 168.735 137.975 206.705 137.975Z" fill="#1D4874"/>
<mask id="mask0_1337_2841" style="mask-type:alpha" maskUnits="userSpaceOnUse" x="138" y="0" width="138" height="138">
<path d="M206.75 137.975C244.72 137.975 275.501 107.195 275.501 69.2252C275.501 31.2557 244.72 0.475037 206.75 0.475037C168.781 0.475037 138 31.2556 138 69.2252C138 107.195 168.781 137.975 206.75 137.975Z" fill="#1D4874"/>
</mask>
<g mask="url(#mask0_1337_2841)">
<path opacity="0.63" d="M315.8 123.304C314.955 121.78 313.103 120.481 311.879 119.256C310.332 117.709 252.816 59.44 247.227 54.6104C246.959 54.2939 246.608 54.0114 246.167 53.7714L211.826 35.0766C211.271 34.7673 210.691 34.5326 210.104 34.3779C209.52 34.2247 208.913 34.1469 208.297 34.1469C207.682 34.1469 207.075 34.2247 206.49 34.3779C205.904 34.5321 205.325 34.7673 204.764 35.079L166.037 56.2208C165.477 56.5005 165.056 56.8941 164.748 57.4256C164.434 57.9678 164.281 58.5369 164.281 59.1657V85.1724C164.281 86.7957 165.495 87.8418 166.559 88.8921C167.992 90.3069 230.523 152.841 231.948 154.265C233.125 155.442 234.123 156.829 235.938 156.829C236.91 156.829 237.699 156.513 238.351 155.862C239.002 155.21 239.319 154.421 239.319 153.449V147.1C239.404 147.186 239.489 147.271 239.578 147.352C239.69 147.468 239.8 147.584 239.92 147.694C240.031 147.81 240.142 147.926 240.261 148.035C240.373 148.151 240.483 148.267 240.603 148.376C240.714 148.492 240.824 148.609 240.944 148.718C241.055 148.834 241.166 148.95 241.285 149.059C241.397 149.175 241.507 149.292 241.627 149.401C241.738 149.517 241.849 149.633 241.968 149.742C242.08 149.858 242.19 149.974 242.31 150.083C242.421 150.199 242.531 150.316 242.651 150.425C242.762 150.541 242.873 150.657 242.993 150.766C243.104 150.882 243.214 150.998 243.334 151.108C243.445 151.223 243.556 151.34 243.675 151.449C243.786 151.565 243.897 151.681 244.016 151.79C244.128 151.906 244.238 152.023 244.358 152.132C244.469 152.248 244.58 152.364 244.699 152.473C244.811 152.589 244.921 152.705 245.041 152.814C245.152 152.93 245.262 153.047 245.382 153.156C245.493 153.272 245.604 153.388 245.723 153.497C245.835 153.613 245.945 153.729 246.065 153.839C246.176 153.955 246.287 154.071 246.406 154.18C246.518 154.296 246.628 154.412 246.747 154.521C246.859 154.637 246.969 154.753 247.089 154.862C247.2 154.979 247.311 155.095 247.43 155.204C247.542 155.32 247.652 155.436 247.772 155.545C247.883 155.661 247.993 155.778 248.113 155.887C248.224 156.003 248.335 156.119 248.454 156.228C248.566 156.344 248.676 156.461 248.796 156.57C248.907 156.686 249.018 156.802 249.137 156.911C249.248 157.027 249.359 157.143 249.479 157.252C249.59 157.368 249.7 157.485 249.82 157.594C249.931 157.71 250.042 157.826 250.162 157.935C250.273 158.051 250.383 158.167 250.503 158.276C250.614 158.392 250.724 158.509 250.844 158.618C251.379 159.175 251.999 159.664 252.719 160.06L273.045 171.036C273.602 171.345 274.18 171.581 274.767 171.735C275.349 171.888 275.957 171.966 276.573 171.966C277.19 171.966 277.799 171.888 278.38 171.735C278.967 171.58 279.547 171.345 280.11 171.032L300.423 160.063C301.663 159.381 302.635 158.456 303.313 157.316C303.991 156.176 304.336 154.875 304.336 153.449V133.944C304.336 133.695 304.471 133.466 304.688 133.346L314.443 127.96C315.069 127.618 315.526 127.196 315.799 126.704C316.084 126.193 316.222 125.636 316.222 125.004C316.222 124.371 316.084 123.815 315.8 123.304Z" fill="#22244E"/>
</g>
<path d="M208.252 103.69C207.635 103.69 207.027 103.612 206.445 103.458C205.859 103.304 205.28 103.069 204.723 102.76L184.397 91.7842C183.162 91.1044 182.19 90.1802 181.512 89.0398C180.833 87.8998 180.489 86.5987 180.489 85.1726V65.6675C180.489 65.4184 180.354 65.1892 180.136 65.0693L172.009 60.5992C171.907 60.5427 171.793 60.5145 171.68 60.5145C171.56 60.5145 171.439 60.5464 171.333 60.6099C171.124 60.7326 170.997 60.9562 170.997 61.1974V85.1726C170.997 86.1445 170.681 86.9335 170.03 87.5854C169.378 88.2364 168.589 88.5531 167.616 88.5531C166.645 88.5531 165.856 88.2364 165.204 87.5849C164.552 86.933 164.235 86.1435 164.235 85.1726V59.1657C164.235 58.5369 164.388 57.9678 164.703 57.4256C165.01 56.8941 165.432 56.5005 165.991 56.2208L204.719 35.079C205.28 34.7673 205.859 34.5321 206.445 34.3779C207.029 34.2247 207.637 34.1469 208.252 34.1469C208.868 34.1469 209.475 34.2247 210.058 34.3779C210.646 34.5326 211.225 34.7673 211.781 35.0766L246.122 53.7714C246.748 54.1127 247.204 54.5354 247.479 55.0276C247.762 55.5388 247.9 56.0949 247.9 56.7274C247.9 57.3599 247.762 57.9164 247.478 58.4281C247.204 58.9198 246.748 59.3421 246.122 59.6833L236.367 65.0698C236.149 65.1901 236.014 65.4189 236.014 65.6675V85.1726C236.014 86.5987 235.669 87.8998 234.992 89.0393C234.314 90.1802 233.341 91.1044 232.101 91.7869L211.788 102.756C211.225 103.069 210.646 103.304 210.058 103.458C209.477 103.612 208.868 103.69 208.252 103.69ZM187.934 69.2514C187.814 69.2514 187.694 69.2833 187.587 69.3463C187.379 69.469 187.252 69.6926 187.252 69.9343V85.274C187.252 85.5249 187.389 85.7555 187.61 85.8745L207.928 96.846C208.029 96.9011 208.14 96.9284 208.252 96.9284C208.363 96.9284 208.475 96.9011 208.576 96.846L228.894 85.8745C229.115 85.7555 229.252 85.5249 229.252 85.274V69.9343C229.252 69.6926 229.124 69.469 228.917 69.3463C228.809 69.2833 228.69 69.2514 228.569 69.2514C228.455 69.2514 228.342 69.2801 228.239 69.3365L211.883 78.3776C211.327 78.6865 210.734 78.9212 210.118 79.0754C209.498 79.2301 208.869 79.3083 208.252 79.3083C207.634 79.3083 207.005 79.2301 206.386 79.075C205.77 78.9212 205.176 78.6865 204.622 78.3786L188.265 69.3365C188.162 69.2801 188.048 69.2514 187.934 69.2514ZM208.252 41.0094C208.14 41.0094 208.029 41.0368 207.928 41.0918L180.092 56.1268C179.871 56.2458 179.734 56.4764 179.734 56.7274C179.734 56.9783 179.871 57.2089 180.092 57.3279L207.928 72.3634C208.029 72.418 208.14 72.4458 208.252 72.4458C208.364 72.4458 208.475 72.418 208.576 72.3634L236.411 57.3279C236.633 57.2089 236.77 56.9783 236.77 56.7274C236.77 56.4764 236.633 56.2458 236.411 56.1268L208.576 41.0918C208.475 41.0367 208.364 41.0094 208.252 41.0094Z" fill="#7AA5E7"/>
<path d="M506.705 70.884C523.792 70.884 537.643 57.0328 537.643 39.9465C537.643 22.8602 523.792 9.00906 506.705 9.00906C489.619 9.00906 475.768 22.8602 475.768 39.9465C475.768 57.0328 489.619 70.884 506.705 70.884Z" fill="url(#paint1_linear_1337_2841)"/>
<path d="M550 137.975H412.5V0.475037L550 137.975Z" fill="url(#paint2_linear_1337_2841)"/>
</g>
<defs>
<linearGradient id="paint0_linear_1337_2841" x1="12" y1="16.2852" x2="69.8471" y2="102.285" gradientUnits="userSpaceOnUse">
<stop stop-color="#7AA5E7"/>
<stop offset="1" stop-color="#003BA1"/>
</linearGradient>
<linearGradient id="paint1_linear_1337_2841" x1="475.768" y1="39.9465" x2="537.643" y2="39.9465" gradientUnits="userSpaceOnUse">
<stop stop-color="#7AA5E7"/>
<stop offset="0.99716" stop-color="#003BA1"/>
</linearGradient>
<linearGradient id="paint2_linear_1337_2841" x1="499.675" y1="61.7819" x2="412.048" y2="137.835" gradientUnits="userSpaceOnUse">
<stop stop-color="#7AA5E7"/>
<stop offset="0.99716" stop-color="#003BA1"/>
</linearGradient>
<clipPath id="clip0_1337_2841">
<rect width="550" height="138.215" fill="white" transform="translate(0 0.475037)"/>
</clipPath>
</defs>
</svg>
