<svg xmlns="http://www.w3.org/2000/svg" width="580" height="145" fill="none" viewBox="0 0 580 145"><path fill="#286ad8" d="M72.5 0C32.46 0 0 32.46 0 72.5c0 16.325 5.399 31.387 14.504 43.506l63.29-63.291H30.652V32.15h82.257v82.257H92.344v-47.16L29.051 130.54C41.159 139.62 56.2 145 72.5 145c40.041 0 72.5-32.459 72.5-72.5S112.541 0 72.5 0"/><path fill="#457aa5" d="M72.5 0C32.46 0 0 32.46 0 72.5c0 16.325 5.399 31.387 14.504 43.506l63.29-63.291H30.652V32.15h82.257v82.257H92.344v-47.16L29.051 130.54C41.159 139.62 56.2 145 72.5 145c40.041 0 72.5-32.459 72.5-72.5S112.541 0 72.5 0" opacity=".3" style="mix-blend-mode:multiply"/><path fill="#002971" d="M30.652 52.715h47.142L54.223 76.286zm82.257-20.564v82.257H92.344v-47.16L29.051 130.54C41.159 139.62 56.2 145 72.5 145c40.041 0 72.5-32.459 72.5-72.5 0-2.903-.19-5.76-.522-8.573z"/><path fill="url(#a)" d="M244.344 74.25c18.018 0 32.625-14.607 32.625-32.625S262.362 9 244.344 9s-32.625 14.606-32.625 32.625 14.606 32.625 32.625 32.625"/><path fill="url(#b)" d="M290 145H145V0z"/><path fill="#2d618c" d="M329.875 0C307.853 0 290 17.853 290 39.875V145h145V0z"/><path fill="url(#c)" d="M435 105.125V0c80.081 0 145 64.919 145 145H474.875C452.853 145 435 127.147 435 105.125"/><defs><linearGradient id="a" x1="211.719" x2="276.969" y1="41.625" y2="41.625" gradientUnits="userSpaceOnUse"><stop stop-color="#7aa5e7"/><stop offset=".997" stop-color="#003ba1"/></linearGradient><linearGradient id="b" x1="217.813" x2="144.524" y1="77.084" y2="144.852" gradientUnits="userSpaceOnUse"><stop stop-color="#7aa5e7"/><stop offset=".997" stop-color="#003ba1"/></linearGradient><linearGradient id="c" x1="549" x2="445" y1="19" y2="130" gradientUnits="userSpaceOnUse"><stop stop-color="#7aa5e7"/><stop offset=".997" stop-color="#003ba1"/></linearGradient></defs></svg>