<svg xmlns="http://www.w3.org/2000/svg" width="272" height="143" fill="none" viewBox="0 0 272 143"><rect width="272" height="143" fill="#eff6fb" rx="8"/><rect width="230" height="26" x="21" y="22" fill="#d0d0ce" rx="5"/><path fill="#154973" d="M35 35a3 3 0 0 1 3-3h165a3 3 0 1 1 0 6H38a3 3 0 0 1-3-3"/><rect width="230" height="26" x="21" y="95" fill="#d0d0ce" rx="5"/><path fill="#154973" d="m233.5 34.798-4.547 4.547q-.321.32-.816.32-.497 0-.816-.32a1.1 1.1 0 0 1-.321-.816q0-.495.321-.816l5.363-5.363q.35-.35.816-.35t.816.35l5.363 5.363q.321.321.321.816t-.321.816q-.32.32-.816.32t-.816-.32z"/><path fill="#a7a9ab" d="M35 108a3 3 0 0 1 3-3h165a3 3 0 1 1 0 6H38a3 3 0 0 1-3-3"/><path fill="#457aa5" d="M35 60a3 3 0 0 1 3-3h115.5a3 3 0 1 1 0 6H38a3 3 0 0 1-3-3M35 74a3 3 0 0 1 3-3h88a3 3 0 1 1 0 6H38a3 3 0 0 1-3-3"/><path fill="#a7a9ab" d="m233.5 108.868 4.547-4.547q.321-.321.816-.321.497 0 .816.321.321.32.321.816t-.321.816l-5.363 5.363q-.35.35-.816.35t-.816-.35l-5.363-5.363a1.1 1.1 0 0 1-.321-.816q0-.496.321-.816.32-.321.816-.321t.816.321z"/></svg>