<svg xmlns="http://www.w3.org/2000/svg" width="579" height="145" fill="none" viewBox="0 0 579 145"><path fill="#286ad8" d="M538.206 145H433.081c0-80.081 64.919-145 145-145v105.125c0 22.022-17.853 39.875-39.875 39.875"/><path fill="#286ad8" d="M183.505 145c-21.773 0-39.424-17.852-39.424-39.875V0h290v145z"/><path fill="#286ad8" d="M145 0C64.98 0 .11 64.906.11 144.972L0 145h145z"/><g opacity=".45" style="mix-blend-mode:multiply"><mask id="a" width="291" height="145" x="144" y="0" maskUnits="userSpaceOnUse" style="mask-type:alpha"><path fill="#286ad8" d="M183.505 145c-21.773 0-39.424-17.852-39.424-39.875V0h290v145z"/></mask><g mask="url(#a)"><path fill="#1745b4" d="M450.06 161.658H234.394l-.005-.005-37.066-37.132a3.5 3.5 0 0 1-1.263-2.7v-11.129c0-1.921 1.501-3.479 3.353-3.479h16.224a2 2 0 0 1-.104-.126l-9.266-9.283a2.29 2.29 0 0 1-.914-1.826c0-1.27 1.027-2.3 2.295-2.3h4.739l-6.12-6.14a2.29 2.29 0 0 1-.914-1.827c0-.201.034-.393.082-.579l-8.112-8.166a3.5 3.5 0 0 1-1.263-2.7v-11.13c0-1.92 1.501-3.478 3.353-3.478h147.515c1.017 0 1.916.48 2.531 1.22z"/></g></g><path fill="#5187df" d="M346.107 107H199.375c-1.841 0-3.334 1.546-3.334 3.453v11.052c0 1.907 1.493 3.453 3.334 3.453h146.732c1.842 0 3.335-1.546 3.335-3.453v-11.052c0-1.907-1.493-3.453-3.335-3.453"/><path fill="#1545bb" d="m338.062 114.759-4.217 4.317a.87.87 0 0 1-1.283 0l-4.217-4.317a.9.9 0 0 1-.252-.657q0-.399.252-.657a.86.86 0 0 1 .642-.258q.388 0 .642.258l3.575 3.66 3.575-3.66a.86.86 0 0 1 .641-.258q.39 0 .642.258a.9.9 0 0 1 .252.657.9.9 0 0 1-.252.657m-132.778 1.22a2.284 2.284 0 0 1 2.283-2.284h104.588a2.284 2.284 0 0 1 0 4.568H207.567a2.284 2.284 0 0 1-2.283-2.284"/><path fill="#5187df" d="M345.067 59.373H198.335c-1.842 0-3.335 1.546-3.335 3.454v11.05c0 1.908 1.493 3.454 3.335 3.454h146.732c1.841 0 3.334-1.546 3.334-3.453V62.827c0-1.908-1.493-3.454-3.334-3.454"/><path fill="#1545bb" d="m327.304 70.16 4.217-4.318a.87.87 0 0 1 1.283 0l4.217 4.317a.9.9 0 0 1 .252.657.9.9 0 0 1-.252.657.86.86 0 0 1-.642.258.86.86 0 0 1-.641-.258l-3.576-3.66-3.575 3.66a.86.86 0 0 1-.641.258.86.86 0 0 1-.642-.258.9.9 0 0 1-.252-.657q0-.399.252-.657m-123.061-1.807a2.283 2.283 0 0 1 2.284-2.284h104.587a2.284 2.284 0 0 1 0 4.568H206.527a2.283 2.283 0 0 1-2.284-2.284"/><path fill="#5187df" d="M204.243 85.242a2.283 2.283 0 0 1 2.284-2.284h59.853a2.283 2.283 0 0 1 0 4.567h-59.853a2.283 2.283 0 0 1-2.284-2.283m0 10.194a2.284 2.284 0 0 1 2.284-2.284h42.789a2.284 2.284 0 0 1 0 4.568h-42.789a2.283 2.283 0 0 1-2.284-2.284"/></svg>