<svg xmlns="http://www.w3.org/2000/svg" width="272" height="144" fill="none" viewBox="0 0 272 144"><rect width="272" height="143" y=".35" fill="#ededed" rx="8"/><path fill="#fff" d="M21 12.35h235v50H21zM21 76.35h235v50H21z"/><mask id="a" width="18" height="19" x="26" y="24" maskUnits="userSpaceOnUse" style="mask-type:alpha"><path fill="#d9d9d9" d="M43.658 24.45H26.1v17.558h17.558z"/></mask><g mask="url(#a)"><path fill="#154973" d="M34.88 36.887q.31 0 .52-.21t.21-.522V33.23a.7.7 0 0 0-.21-.521.7.7 0 0 0-.52-.21.7.7 0 0 0-.522.21.7.7 0 0 0-.21.521v2.926q0 .31.21.521.21.21.521.21m0-5.853q.31 0 .52-.21t.21-.521a.7.7 0 0 0-.21-.521.7.7 0 0 0-.52-.21.7.7 0 0 0-.522.21.7.7 0 0 0-.21.52q0 .312.21.522t.521.21m0 9.51a7.1 7.1 0 0 1-2.854-.575 7.4 7.4 0 0 1-2.323-1.564 7.4 7.4 0 0 1-1.563-2.323 7.1 7.1 0 0 1-.576-2.853q0-1.518.576-2.853a7.4 7.4 0 0 1 1.563-2.323 7.4 7.4 0 0 1 2.323-1.564 7.1 7.1 0 0 1 2.853-.576q1.518 0 2.853.576t2.323 1.564a7.4 7.4 0 0 1 1.564 2.323q.576 1.335.576 2.853a7.1 7.1 0 0 1-.576 2.853 7.4 7.4 0 0 1-1.564 2.323 7.4 7.4 0 0 1-2.323 1.564 7.1 7.1 0 0 1-2.853.576m0-1.462q2.45 0 4.15-1.701 1.702-1.701 1.702-4.152t-1.701-4.152q-1.701-1.7-4.152-1.7t-4.151 1.7-1.701 4.152q0 2.451 1.7 4.152 1.701 1.7 4.152 1.7"/></g><rect width="112" height="6" x="51" y="30.375" fill="#5c8ab0" rx="3"/><path fill="#154973" d="M20.84 62.35c-2.673 0-4.84-2.035-4.84-4.545v-40.91c0-2.51 2.167-4.545 4.84-4.545v50"/><rect width="36" height="4" x="51" y="48.513" fill="#bec0c1" rx="2"/><path fill="#457aa5" d="M20.84 126.35c-2.673 0-4.84-2.035-4.84-4.545v-40.91c0-2.51 2.167-4.545 4.84-4.545v50"/><rect width="166" height="6" x="51" y="96.35" fill="#5c8ab0" rx="3"/><rect width="62" height="4" x="51" y="111.35" fill="#bec0c1" rx="2"/><path fill="#1b1b1b" d="M28.044 106.1a.728.728 0 0 1-.638-.375.8.8 0 0 1-.103-.366.67.67 0 0 1 .103-.384l6.938-12a.74.74 0 0 1 .29-.281A.8.8 0 0 1 35 92.6q.188 0 .365.094a.74.74 0 0 1 .291.281l6.938 12q.112.188.103.384a.8.8 0 0 1-.103.366.73.73 0 0 1-.638.375zm1.293-1.5h11.325L35 94.85zm5.663-.75q.318 0 .534-.216a.72.72 0 0 0 .216-.534.72.72 0 0 0-.216-.534.73.73 0 0 0-.534-.216.73.73 0 0 0-.535.216.72.72 0 0 0-.215.534q0 .32.215.534a.73.73 0 0 0 .535.216m0-2.25q.318 0 .534-.216a.72.72 0 0 0 .216-.534V98.6a.73.73 0 0 0-.216-.534.73.73 0 0 0-.534-.216.73.73 0 0 0-.535.216.73.73 0 0 0-.215.534v2.25q0 .32.215.534a.73.73 0 0 0 .535.216"/></svg>