<svg xmlns="http://www.w3.org/2000/svg" width="578" height="145" fill="none" viewBox="0 0 578 145"><path fill="#286ad8" d="M250.125 0c18.368 0 33.832 12.42 38.46 29.318V0c80.081 0 145 64.919 145 145H0L145 0zM45.656 9c18.019 0 32.625 14.607 32.625 32.625S63.674 74.25 45.656 74.25 13.031 59.643 13.031 41.625 27.638 9 45.656 9"/><path fill="#286ad8" d="M504.92 0c40.131 0 72.665 32.46 72.665 72.5S545.051 145 504.92 145h-72.335V0z"/><path fill="#1545bb" d="M332.912 144.963H158.953l-26.037-29.037s2.5 1.293 6 1.293h131.73c2.227 0 3.959-1.818 3.934-4.045l-.492-43.924-.166-.766z" opacity=".4" style="mix-blend-mode:multiply"/><path fill="#5187df" d="M271.686 67.5H135.594c-1.872 0-3.389 1.728-3.389 3.86v42.457c0 2.131 1.517 3.86 3.389 3.86h136.092c1.872 0 3.389-1.729 3.389-3.86V71.36c0-2.132-1.517-3.86-3.389-3.86"/><rect width="70" height="5" x="179.006" y="85.463" fill="#3360c7" opacity=".4" rx="2.5" style="mix-blend-mode:multiply"/><path fill="#3360c7" d="M179.006 97.713a2 2 0 0 1 2-2h45a2 2 0 0 1 0 4h-45a2 2 0 0 1-2-2" opacity=".4" style="mix-blend-mode:multiply"/><path fill="#004dd1" d="M136.205 67.5v50.177h-.611c-1.872 0-3.389-1.729-3.389-3.861V71.359c0-2.131 1.517-3.859 3.389-3.859z"/><path fill="#3360c7" d="M148.547 102.518q.252.155.561.155h20.784q.309 0 .561-.155a1.1 1.1 0 0 0 .392-.406 1.2 1.2 0 0 0 .154-.546 1 1 0 0 0-.154-.574L160.48 83.064a1.1 1.1 0 0 0-.434-.42 1.16 1.16 0 0 0-.546-.14q-.28 0-.546.14a1.1 1.1 0 0 0-.434.42l-10.365 17.928a1 1 0 0 0-.154.574q.014.294.154.546t.392.406"/></svg>