<svg width="577" height="145" viewBox="0 0 577 145" fill="none" xmlns="http://www.w3.org/2000/svg">
<path d="M145 0V145H72.6646C32.5331 145 0 112.541 0 72.5C0 32.4594 32.5331 2.23036e-05 72.6646 2.23036e-05L145 0Z" fill="#286AD8"/>
<path d="M577 0C496.979 0 432.11 64.9062 432.11 144.972L432 145H577V0Z" fill="#286AD8"/>
<path d="M327.875 145H433C433 64.9188 368.081 0 288 0V105.125C288 127.148 305.853 145 327.875 145Z" fill="#286AD8"/>
<path d="M216.5 145C256.541 145 289 112.541 289 72.5C289 32.4594 256.541 0 216.5 0C176.459 0 144 32.4594 144 72.5C144 112.541 176.459 145 216.5 145Z" fill="#286AD8"/>
<g style="mix-blend-mode:multiply" opacity="0.4">
<path d="M216.562 43C220.637 43 224.502 43.7832 228.047 45.3271C231.605 46.869 234.765 49.0079 237.439 51.6855C237.467 51.7129 237.492 51.7421 237.52 51.7695C237.547 51.7969 237.576 51.8231 237.604 51.8506C237.631 51.8779 237.656 51.9072 237.684 51.9346C237.711 51.9621 237.741 51.988 237.769 52.0156C237.796 52.043 237.821 52.0721 237.849 52.0996C237.876 52.127 237.906 52.1522 237.934 52.1797C237.961 52.2071 237.986 52.2362 238.014 52.2637C238.041 52.2911 238.07 52.3172 238.098 52.3447C238.125 52.3721 238.15 52.4012 238.178 52.4287C238.205 52.4561 238.235 52.4813 238.263 52.5088C238.29 52.5361 238.316 52.5654 238.343 52.5928C238.37 52.6202 238.399 52.6463 238.427 52.6738C238.454 52.7013 238.48 52.7312 238.508 52.7588C238.535 52.7861 238.564 52.8115 238.592 52.8389C238.619 52.8663 238.645 52.8954 238.672 52.9229C238.699 52.9503 238.729 52.9754 238.757 53.0029C238.784 53.0303 238.81 53.0604 238.837 53.0879C238.864 53.1152 238.893 53.1406 238.921 53.168C238.948 53.1953 238.974 53.2245 239.001 53.252C239.029 53.2795 239.058 53.3053 239.086 53.333C239.113 53.3604 239.139 53.3895 239.166 53.417C239.194 53.4444 239.223 53.4695 239.251 53.4971C239.279 53.5246 239.304 53.5544 239.331 53.582C239.359 53.6093 239.388 53.6347 239.415 53.6621C239.442 53.6894 239.468 53.7187 239.495 53.7461C239.523 53.7735 239.553 53.7996 239.58 53.8271C239.607 53.8544 239.633 53.8828 239.66 53.9102C239.688 53.9377 239.717 53.9635 239.745 53.9912C239.772 54.0186 239.798 54.0477 239.825 54.0752C239.853 54.1026 239.882 54.1287 239.909 54.1562C239.937 54.1838 239.963 54.2126 239.99 54.2402C240.018 54.2676 240.047 54.2938 240.074 54.3213C240.102 54.3486 240.127 54.3779 240.154 54.4053C240.182 54.4326 240.211 54.458 240.238 54.4854C240.266 54.5128 240.292 54.5418 240.319 54.5693C240.347 54.5968 240.376 54.6229 240.403 54.6504C240.431 54.6777 240.456 54.707 240.483 54.7344C240.511 54.7618 240.541 54.7869 240.568 54.8145C240.596 54.8419 240.621 54.8718 240.648 54.8994C240.676 54.9267 240.705 54.9521 240.732 54.9795C240.76 55.0069 240.786 55.036 240.813 55.0635C240.841 55.0909 240.87 55.117 240.897 55.1445C240.925 55.1719 240.95 55.2011 240.978 55.2285C241.005 55.256 241.035 55.281 241.062 55.3086C241.09 55.3359 241.115 55.3652 241.143 55.3926C241.17 55.42 241.199 55.4461 241.227 55.4736C241.254 55.5011 241.28 55.53 241.308 55.5576C241.335 55.585 241.364 55.6112 241.392 55.6387C241.419 55.666 241.444 55.6952 241.472 55.7227C241.499 55.7501 241.529 55.7752 241.557 55.8027C241.584 55.8301 241.609 55.8592 241.637 55.8867C241.664 55.9142 241.693 55.9402 241.721 55.9678C241.748 55.9951 241.774 56.0243 241.801 56.0518C241.828 56.0793 241.858 56.1052 241.886 56.1328C241.913 56.1602 241.939 56.1893 241.966 56.2168C241.993 56.2442 242.023 56.2694 242.051 56.2969C242.078 56.3243 242.104 56.3534 242.131 56.3809C242.158 56.4083 242.187 56.4344 242.215 56.4619C242.242 56.4893 242.268 56.5184 242.295 56.5459C242.323 56.5733 242.352 56.5985 242.38 56.626C242.407 56.6533 242.433 56.6825 242.46 56.71C242.488 56.7374 242.516 56.7635 242.544 56.791C242.572 56.8185 242.598 56.8484 242.625 56.876C242.652 56.9032 242.682 56.9287 242.709 56.9561C242.736 56.9834 242.762 57.0126 242.789 57.04C242.817 57.0675 242.847 57.0926 242.874 57.1201C242.901 57.1475 242.927 57.1766 242.954 57.2041C242.982 57.2315 243.011 57.2577 243.038 57.2852C243.065 57.3125 243.091 57.3417 243.118 57.3691C243.146 57.3967 243.175 57.4225 243.203 57.4502C243.23 57.4776 243.256 57.5067 243.283 57.5342C243.311 57.5616 243.341 57.5867 243.368 57.6143C243.396 57.6417 243.421 57.6716 243.448 57.6992C243.476 57.7265 243.505 57.7519 243.532 57.7793C243.56 57.8066 243.585 57.8358 243.612 57.8633C243.64 57.8907 243.67 57.9168 243.697 57.9443C243.724 57.9715 243.75 58 243.777 58.0273C243.805 58.0549 243.835 58.0807 243.862 58.1084C243.89 58.1358 243.915 58.1649 243.942 58.1924C243.97 58.2198 243.999 58.2459 244.026 58.2734C244.054 58.3009 244.08 58.3298 244.107 58.3574C244.135 58.3847 244.164 58.4101 244.191 58.4375C244.219 58.4649 244.244 58.495 244.271 58.5225C244.299 58.5497 244.328 58.5752 244.355 58.6025C244.383 58.63 244.409 58.659 244.437 58.6865C244.464 58.7139 244.493 58.7401 244.521 58.7676C244.548 58.7949 244.573 58.8242 244.601 58.8516C244.628 58.879 244.658 58.9041 244.686 58.9316C244.713 58.9591 244.738 58.989 244.766 59.0166C244.793 59.0439 244.822 59.0693 244.85 59.0967C244.877 59.124 244.902 59.1532 244.93 59.1807C244.957 59.2081 244.987 59.2342 245.015 59.2617C245.042 59.2891 245.067 59.3183 245.095 59.3457C245.122 59.3731 245.152 59.3982 245.18 59.4258C245.207 59.453 245.232 59.4824 245.259 59.5098C245.286 59.5373 245.316 59.5632 245.344 59.5908C245.371 59.6183 245.397 59.6472 245.425 59.6748C245.452 59.7022 245.481 59.7284 245.509 59.7559C245.536 59.7832 245.562 59.8124 245.589 59.8398C245.616 59.8672 245.646 59.8924 245.674 59.9199C245.701 59.9473 245.727 59.9764 245.754 60.0039C245.782 60.0313 245.81 60.0574 245.838 60.085C245.865 60.1123 245.891 60.1415 245.918 60.1689C245.946 60.1964 245.975 60.2215 246.003 60.249C246.03 60.2765 246.056 60.3064 246.083 60.334C246.11 60.3613 246.14 60.3867 246.167 60.4141C246.194 60.4415 246.221 60.4705 246.248 60.498C246.276 60.5255 246.305 60.5516 246.332 60.5791C246.359 60.6065 246.385 60.6356 246.412 60.6631C246.44 60.6905 246.47 60.7156 246.497 60.7432C246.524 60.7705 246.55 60.7997 246.577 60.8271C246.605 60.8546 246.634 60.8806 246.661 60.9082C246.689 60.9357 246.715 60.9646 246.742 60.9922C246.77 61.0196 246.799 61.0458 246.826 61.0732C246.854 61.1006 246.879 61.1298 246.906 61.1572C246.934 61.1847 246.964 61.2098 246.991 61.2373C247.019 61.2647 247.044 61.2938 247.071 61.3213C247.099 61.3487 247.128 61.3748 247.155 61.4023C247.183 61.4297 247.208 61.4589 247.235 61.4863C247.263 61.5139 247.293 61.5397 247.32 61.5674C247.348 61.5947 247.373 61.6239 247.4 61.6514C247.428 61.6788 247.458 61.7039 247.485 61.7314C247.513 61.7589 247.538 61.7888 247.565 61.8164C247.593 61.8437 247.622 61.8691 247.649 61.8965C247.677 61.9239 247.702 61.953 247.729 61.9805C247.757 62.0079 247.787 62.034 247.814 62.0615C247.842 62.0887 247.867 62.1172 247.895 62.1445C247.922 62.172 247.951 62.198 247.979 62.2256C248.006 62.253 248.032 62.2821 248.06 62.3096C248.087 62.337 248.116 62.3631 248.144 62.3906C248.171 62.4181 248.197 62.447 248.225 62.4746C248.252 62.5019 248.281 62.5273 248.309 62.5547C248.336 62.5821 248.361 62.6121 248.389 62.6396C248.416 62.6669 248.445 62.6923 248.473 62.7197C248.5 62.747 248.526 62.7763 248.553 62.8037C248.58 62.8312 248.61 62.8572 248.638 62.8848C248.665 62.912 248.691 62.9414 248.718 62.9688C248.745 62.9962 248.775 63.0213 248.803 63.0488C248.83 63.0763 248.855 63.1062 248.883 63.1338C248.91 63.1611 248.939 63.1865 248.967 63.2139C248.994 63.2412 249.02 63.2704 249.047 63.2979C249.075 63.3253 249.104 63.3513 249.132 63.3789C249.159 63.4063 249.185 63.4355 249.212 63.4629C249.239 63.4903 249.269 63.5154 249.297 63.543C249.324 63.5702 249.349 63.5996 249.376 63.627C249.404 63.6545 249.433 63.6804 249.461 63.708C249.488 63.7355 249.515 63.7644 249.542 63.792C249.569 63.8194 249.599 63.8456 249.626 63.873C249.653 63.9004 249.679 63.9296 249.706 63.957C249.734 63.9843 249.763 64.0097 249.79 64.0371C249.817 64.0645 249.844 64.0936 249.871 64.1211C249.899 64.1485 249.928 64.1746 249.955 64.2021C249.982 64.2294 250.008 64.2587 250.035 64.2861C250.063 64.3136 250.093 64.3386 250.12 64.3662C250.148 64.3937 250.173 64.4236 250.2 64.4512C250.228 64.4785 250.257 64.5039 250.284 64.5312C250.312 64.5587 250.338 64.5877 250.365 64.6152C250.393 64.6426 250.422 64.6688 250.449 64.6963C250.477 64.7237 250.502 64.7528 250.529 64.7803C250.557 64.8077 250.587 64.8328 250.614 64.8604C250.641 64.8876 250.666 64.917 250.693 64.9443C250.721 64.9719 250.751 64.9978 250.778 65.0254C250.806 65.0529 250.832 65.0818 250.859 65.1094C250.887 65.1367 250.916 65.163 250.943 65.1904C250.971 65.2178 250.996 65.247 251.023 65.2744C251.051 65.3017 251.08 65.3271 251.107 65.3545C251.135 65.3819 251.161 65.411 251.188 65.4385C251.216 65.4659 251.245 65.492 251.272 65.5195C251.3 65.5468 251.325 65.5761 251.353 65.6035C251.38 65.631 251.41 65.6569 251.438 65.6846C251.465 65.7119 251.49 65.7412 251.518 65.7686C251.545 65.7958 251.574 65.8213 251.602 65.8486C251.629 65.8761 251.655 65.906 251.683 65.9336C251.71 65.9609 251.739 65.9863 251.767 66.0137C251.794 66.041 251.819 66.0702 251.847 66.0977C251.874 66.1251 251.904 66.1502 251.932 66.1777C251.959 66.205 251.984 66.2343 252.012 66.2617C252.039 66.2892 252.068 66.3152 252.096 66.3428C252.123 66.3701 252.149 66.3994 252.176 66.4268C252.203 66.4542 252.233 66.4803 252.261 66.5078C252.288 66.5352 252.314 66.5643 252.341 66.5918C252.368 66.6192 252.398 66.6444 252.426 66.6719C252.453 66.6993 252.479 66.7284 252.506 66.7559C252.533 66.7833 252.562 66.8094 252.59 66.8369C252.617 66.8643 252.643 66.8935 252.67 66.9209C252.698 66.9483 252.727 66.9744 252.755 67.002C252.782 67.0292 252.808 67.0576 252.835 67.085C252.863 67.1125 252.892 67.1383 252.92 67.166C252.947 67.1935 252.973 67.2234 253 67.251C253.027 67.2783 253.057 67.3036 253.084 67.3311C253.111 67.3584 253.137 67.3876 253.164 67.415C253.192 67.4425 253.221 67.4685 253.249 67.4961C253.276 67.5234 253.302 67.5527 253.329 67.5801C253.357 67.6074 253.386 67.6328 253.413 67.6602C253.44 67.6874 253.466 67.7168 253.493 67.7441C253.521 67.7717 253.55 67.7975 253.578 67.8252C253.606 67.8527 253.632 67.8816 253.659 67.9092C253.687 67.9365 253.716 67.9628 253.743 67.9902C253.77 68.0175 253.796 68.0468 253.823 68.0742C253.851 68.1015 253.88 68.1269 253.907 68.1543C253.935 68.1816 253.96 68.2109 253.987 68.2383C254.015 68.2657 254.045 68.2918 254.072 68.3193C254.1 68.3466 254.125 68.3759 254.152 68.4033C254.18 68.4308 254.21 68.4558 254.237 68.4834C254.265 68.5109 254.29 68.5407 254.317 68.5684C254.345 68.5957 254.374 68.621 254.401 68.6484C254.429 68.6758 254.454 68.705 254.481 68.7324C254.509 68.7599 254.539 68.7859 254.566 68.8135C254.594 68.8408 254.619 68.87 254.646 68.8975C254.674 68.9249 254.704 68.95 254.731 68.9775C254.759 69.0047 254.783 69.0342 254.811 69.0615C254.838 69.0891 254.868 69.1149 254.896 69.1426C254.923 69.1701 254.949 69.199 254.977 69.2266C255.004 69.2539 255.033 69.2801 255.061 69.3076C255.088 69.335 255.113 69.3642 255.141 69.3916C255.168 69.4189 255.197 69.4443 255.225 69.4717C255.252 69.4991 255.278 69.5282 255.306 69.5557C255.333 69.5831 255.362 69.6092 255.39 69.6367C255.417 69.664 255.443 69.6933 255.47 69.7207C255.497 69.7482 255.527 69.7741 255.555 69.8018C255.582 69.8291 255.608 69.8584 255.635 69.8857C255.662 69.913 255.691 69.9384 255.719 69.9658C255.746 69.9933 255.772 70.0232 255.8 70.0508C255.827 70.078 255.856 70.1035 255.884 70.1309C255.911 70.1582 255.937 70.1874 255.964 70.2148C255.991 70.2423 256.021 70.2674 256.049 70.2949C256.076 70.3222 256.102 70.3515 256.129 70.3789C256.157 70.4064 256.185 70.4324 256.213 70.46C256.24 70.4873 256.266 70.5165 256.293 70.5439C256.321 70.5714 256.35 70.5974 256.378 70.625C256.405 70.6524 256.431 70.6815 256.458 70.709C256.486 70.7363 256.515 70.7616 256.543 70.7891C256.57 70.8165 256.596 70.8456 256.623 70.873C256.651 70.9005 256.68 70.9266 256.707 70.9541C256.734 70.9815 256.76 71.0106 256.787 71.0381C256.815 71.0655 256.844 71.0916 256.872 71.1191C256.899 71.1464 256.925 71.1748 256.952 71.2021C256.98 71.2296 257.009 71.2557 257.036 71.2832C257.064 71.3107 257.09 71.3406 257.117 71.3682C257.145 71.3955 257.174 71.4208 257.201 71.4482C257.229 71.4756 257.254 71.5048 257.281 71.5322C257.309 71.5597 257.339 71.5857 257.366 71.6133C257.393 71.6406 257.419 71.6699 257.446 71.6973C257.474 71.7245 257.503 71.75 257.53 71.7773C257.558 71.8046 257.583 71.8339 257.61 71.8613C257.638 71.8889 257.668 71.9147 257.695 71.9424C257.723 71.9699 257.749 71.9988 257.776 72.0264C257.804 72.0537 257.833 72.079 257.86 72.1064C257.888 72.1339 257.913 72.1639 257.94 72.1914C257.968 72.2187 257.997 72.2441 258.024 72.2715C258.052 72.2988 258.077 72.3281 258.104 72.3555C258.132 72.3829 258.162 72.409 258.189 72.4365C258.217 72.4638 258.242 72.4932 258.27 72.5205C258.297 72.5479 258.327 72.573 258.354 72.6006C258.382 72.6281 258.407 72.6579 258.435 72.6855C258.462 72.7128 258.491 72.7382 258.519 72.7656C258.546 72.793 258.571 72.8222 258.599 72.8496C258.626 72.8771 258.656 72.9031 258.684 72.9307C258.711 72.958 258.736 72.9872 258.764 73.0146C258.791 73.0419 258.82 73.0674 258.848 73.0947C258.875 73.122 258.901 73.1513 258.928 73.1787C258.955 73.2063 258.985 73.2321 259.013 73.2598C259.04 73.2873 259.066 73.3161 259.094 73.3438C259.121 73.3711 259.15 73.3973 259.178 73.4248C259.205 73.4521 259.231 73.4814 259.258 73.5088C259.285 73.5361 259.314 73.5615 259.342 73.5889C259.369 73.6163 259.396 73.6453 259.423 73.6729C259.45 73.7003 259.479 73.7264 259.507 73.7539C259.534 73.7812 259.56 73.8105 259.587 73.8379C259.615 73.8653 259.644 73.8904 259.672 73.918C259.699 73.9454 259.725 73.9754 259.752 74.0029C259.779 74.0302 259.809 74.0556 259.836 74.083C259.863 74.1105 259.89 74.1404 259.917 74.168C259.944 74.1952 259.974 74.2207 260.001 74.248C260.028 74.2754 260.054 74.3046 260.081 74.332C260.109 74.3595 260.138 74.3846 260.166 74.4121C260.193 74.4393 260.218 74.4688 260.245 74.4961C260.273 74.5236 260.302 74.5495 260.33 74.5771C260.357 74.6045 260.383 74.6337 260.41 74.6611C260.438 74.6886 260.468 74.7146 260.495 74.7422C260.523 74.7696 260.548 74.7987 260.575 74.8262C260.603 74.8534 260.632 74.8789 260.659 74.9062C260.687 74.9337 260.713 74.9627 260.74 74.9902C260.768 75.0177 260.797 75.0437 260.824 75.0713C260.852 75.0987 260.877 75.1278 260.904 75.1553C260.932 75.1827 260.962 75.2088 260.989 75.2363C261.016 75.2635 261.042 75.292 261.069 75.3193C261.097 75.3468 261.126 75.3728 261.153 75.4004C261.181 75.4279 261.207 75.4577 261.234 75.4854C261.262 75.5126 261.291 75.538 261.318 75.5654C261.346 75.5928 261.371 75.6219 261.398 75.6494C261.426 75.6769 261.456 75.7029 261.483 75.7305C261.511 75.7578 261.536 75.7871 261.563 75.8145C261.591 75.8417 261.62 75.8671 261.647 75.8945C261.675 75.9218 261.7 75.9511 261.728 75.9785C261.755 76.0061 261.785 76.0319 261.812 76.0596C261.84 76.0869 261.865 76.1161 261.893 76.1436C261.92 76.1709 261.95 76.1962 261.978 76.2236C262.005 76.251 262.03 76.2811 262.058 76.3086C262.085 76.3358 262.114 76.3613 262.142 76.3887C262.169 76.416 262.194 76.4452 262.222 76.4727C262.249 76.5001 262.279 76.5262 262.307 76.5537C262.334 76.5809 262.36 76.6094 262.387 76.6367C262.414 76.6641 262.443 76.6903 262.471 76.7178C262.498 76.7453 262.524 76.7751 262.552 76.8027C262.579 76.83 262.608 76.8554 262.636 76.8828C262.663 76.9102 262.689 76.9393 262.716 76.9668C262.743 76.9942 262.773 77.0203 262.801 77.0479C262.828 77.0752 262.854 77.1044 262.881 77.1318C262.908 77.1591 262.937 77.1845 262.965 77.2119C262.992 77.2392 263.018 77.2685 263.045 77.2959C263.073 77.3235 263.102 77.3493 263.13 77.377C263.157 77.4043 263.183 77.4335 263.21 77.4609C263.238 77.4883 263.267 77.5145 263.295 77.542C263.322 77.5693 263.348 77.5986 263.375 77.626C263.402 77.6532 263.432 77.6787 263.459 77.7061C263.486 77.7334 263.512 77.7626 263.539 77.79C263.567 77.8175 263.596 77.8435 263.624 77.8711C263.651 77.8984 263.677 77.9277 263.704 77.9551C263.732 77.9825 263.762 78.0076 263.789 78.0352C263.816 78.0626 263.842 78.0926 263.869 78.1201C263.897 78.1474 263.926 78.1728 263.953 78.2002C263.981 78.2277 264.007 78.2566 264.034 78.2842C264.062 78.3115 264.091 78.3378 264.118 78.3652C264.146 78.3926 264.171 78.4218 264.198 78.4492C264.226 78.4765 264.255 78.5019 264.282 78.5293C264.31 78.5565 264.335 78.5859 264.362 78.6133C264.39 78.6408 264.42 78.6667 264.447 78.6943C264.475 78.7217 264.5 78.7509 264.527 78.7783C264.555 78.8058 264.585 78.8318 264.612 78.8594C264.64 78.8867 264.665 78.9159 264.692 78.9434C264.72 78.9706 264.749 78.9961 264.776 79.0234C264.804 79.0509 264.83 79.0799 264.857 79.1074C264.885 79.1348 264.914 79.1609 264.941 79.1885C264.969 79.2159 264.994 79.245 265.021 79.2725C265.049 79.2999 265.079 79.326 265.106 79.3535C265.134 79.3807 265.159 79.4092 265.187 79.4365C265.214 79.464 265.243 79.49 265.271 79.5176C265.298 79.5451 265.324 79.5749 265.352 79.6025C265.379 79.6298 265.408 79.6552 265.436 79.6826C265.463 79.71 265.488 79.7391 265.516 79.7666C265.543 79.794 265.573 79.8191 265.601 79.8467C265.628 79.8741 265.653 79.9041 265.681 79.9316C265.708 79.9589 265.737 79.9843 265.765 80.0117C265.792 80.039 265.817 80.0683 265.845 80.0957C265.872 80.1233 265.902 80.1491 265.93 80.1768C265.957 80.2041 265.982 80.2333 266.01 80.2607C266.037 80.288 266.066 80.3135 266.094 80.3408C266.121 80.3682 266.148 80.3973 266.175 80.4248C266.202 80.4522 266.231 80.4783 266.259 80.5059C266.286 80.5332 266.312 80.5624 266.339 80.5898C266.367 80.6173 266.396 80.6433 266.424 80.6709C266.451 80.6981 266.477 80.7266 266.504 80.7539C266.531 80.7813 266.56 80.8074 266.588 80.835C266.615 80.8625 266.642 80.8923 266.669 80.9199C266.696 80.9472 266.726 80.9726 266.753 81C266.78 81.0274 266.806 81.0565 266.833 81.084C266.861 81.1114 266.89 81.1375 266.918 81.165C266.945 81.1924 266.971 81.2216 266.998 81.249C267.026 81.2763 267.055 81.3017 267.082 81.3291C267.109 81.3564 267.135 81.3857 267.162 81.4131C267.19 81.4406 267.219 81.4665 267.247 81.4941C267.275 81.5215 267.3 81.5506 267.327 81.5781C267.355 81.6055 267.385 81.6307 267.412 81.6582C267.44 81.6856 267.465 81.7157 267.492 81.7432C267.52 81.7704 267.549 81.7959 267.576 81.8232C267.604 81.8506 267.629 81.8798 267.656 81.9072C267.684 81.9347 267.714 81.9607 267.741 81.9883C267.768 82.0155 267.794 82.0449 267.821 82.0723C267.849 82.0997 267.879 82.1248 267.906 82.1523C267.934 82.1797 267.959 82.2089 267.986 82.2363C268.014 82.2637 268.043 82.2899 268.07 82.3174C268.098 82.3449 268.124 82.3738 268.151 82.4014C268.179 82.4287 268.208 82.4549 268.235 82.4824C268.263 82.5098 268.288 82.539 268.315 82.5664C268.343 82.5937 268.372 82.6191 268.399 82.6465C268.427 82.6737 268.452 82.7031 268.479 82.7305C268.507 82.758 268.537 82.7839 268.564 82.8115C268.592 82.8389 268.617 82.868 268.645 82.8955C268.672 82.923 268.702 82.949 268.729 82.9766C268.757 83.0039 268.782 83.0331 268.81 83.0605C268.837 83.0878 268.866 83.1133 268.894 83.1406C268.921 83.1679 268.946 83.1972 268.974 83.2246C269.001 83.2521 269.031 83.2781 269.059 83.3057C269.086 83.333 269.111 83.3622 269.139 83.3896C269.166 83.4171 269.196 83.4422 269.224 83.4697C269.251 83.4969 269.276 83.5264 269.303 83.5537C269.33 83.5812 269.36 83.6072 269.388 83.6348C269.415 83.6623 269.441 83.6921 269.469 83.7197C269.496 83.747 269.525 83.7724 269.553 83.7998C269.58 83.8272 269.606 83.8563 269.633 83.8838C269.66 83.9112 269.69 83.9363 269.718 83.9639C269.745 83.9913 269.771 84.0213 269.798 84.0488C269.825 84.0761 269.854 84.1015 269.882 84.1289C269.909 84.1562 269.935 84.1855 269.962 84.2129C269.99 84.2404 270.019 84.2663 270.047 84.2939C270.074 84.3213 270.1 84.3505 270.127 84.3779C270.154 84.4052 270.184 84.4307 270.211 84.458C270.238 84.4854 270.265 84.5145 270.292 84.542C270.32 84.5694 270.348 84.5955 270.376 84.623C270.403 84.6504 270.429 84.6796 270.456 84.707C270.484 84.7345 270.514 84.7605 270.541 84.7881C270.568 84.8153 270.594 84.8438 270.621 84.8711C270.649 84.8985 270.678 84.9246 270.705 84.9521C270.733 84.9797 270.759 85.0095 270.786 85.0371C270.814 85.0644 270.843 85.0898 270.87 85.1172C270.897 85.1446 270.923 85.1737 270.95 85.2012C270.978 85.2286 271.008 85.2547 271.035 85.2822C271.062 85.3095 271.088 85.3389 271.115 85.3662C271.143 85.3935 271.172 85.4189 271.199 85.4463C271.227 85.4736 271.252 85.5029 271.279 85.5303C271.307 85.5578 271.337 85.5837 271.364 85.6113C271.392 85.6387 271.417 85.6678 271.444 85.6953C271.472 85.7227 271.502 85.7479 271.529 85.7754C271.557 85.8028 271.582 85.8328 271.609 85.8604C271.637 85.8876 271.666 85.913 271.693 85.9404C271.721 85.9678 271.746 85.997 271.773 86.0244C271.801 86.0519 271.831 86.0779 271.858 86.1055C271.886 86.1327 271.911 86.1621 271.938 86.1895C271.966 86.2167 271.995 86.2421 272.022 86.2695C272.05 86.2969 272.076 86.326 272.104 86.3535C272.131 86.381 272.16 86.407 272.188 86.4346C272.215 86.4621 272.241 86.4909 272.269 86.5186C272.296 86.5459 272.325 86.5721 272.353 86.5996C272.38 86.6269 272.405 86.6562 272.433 86.6836C272.46 86.7109 272.489 86.7363 272.517 86.7637C272.544 86.7909 272.569 86.8203 272.597 86.8477C272.624 86.8752 272.654 86.901 272.682 86.9287C272.709 86.9561 272.734 86.9852 272.762 87.0127C272.789 87.0401 272.819 87.0662 272.847 87.0938C272.874 87.1211 272.9 87.1503 272.927 87.1777C272.954 87.205 272.983 87.2304 273.011 87.2578C273.038 87.2851 273.064 87.3144 273.091 87.3418C273.118 87.3692 273.148 87.3953 273.176 87.4229C273.203 87.4502 273.229 87.4794 273.256 87.5068C273.283 87.5343 273.313 87.5594 273.341 87.5869C273.368 87.6141 273.393 87.6436 273.42 87.6709C273.448 87.6984 273.477 87.7243 273.505 87.752C273.532 87.7795 273.559 87.8093 273.586 87.8369C273.613 87.8641 273.643 87.8897 273.67 87.917C273.697 87.9443 273.723 87.9735 273.75 88.001C273.778 88.0282 273.807 88.0537 273.834 88.0811C273.861 88.1085 273.888 88.1375 273.915 88.165C273.943 88.1925 273.972 88.2185 273.999 88.2461C274.026 88.2734 274.052 88.3027 274.079 88.3301C274.107 88.3576 274.136 88.3835 274.164 88.4111C274.191 88.4385 274.217 88.4676 274.244 88.4951C274.272 88.5224 274.301 88.5478 274.328 88.5752C274.355 88.6025 274.381 88.6318 274.408 88.6592C274.436 88.6866 274.466 88.7127 274.493 88.7402C274.521 88.7676 274.546 88.7967 274.573 88.8242C274.601 88.8517 274.631 88.8777 274.658 88.9053C274.685 88.9323 274.71 88.9611 274.737 88.9883C274.765 89.0158 274.795 89.0417 274.822 89.0693C274.85 89.0968 274.876 89.1267 274.903 89.1543C274.931 89.1815 274.96 89.207 274.987 89.2344C275.015 89.2618 275.04 89.2909 275.067 89.3184C275.095 89.3458 275.125 89.3709 275.152 89.3984C275.18 89.4259 275.205 89.4559 275.232 89.4834C275.26 89.5107 275.289 89.5361 275.316 89.5635C275.344 89.5908 275.369 89.62 275.396 89.6475C275.424 89.675 275.454 89.7009 275.481 89.7285C275.509 89.7559 275.534 89.785 275.562 89.8125C275.589 89.8397 275.618 89.8653 275.646 89.8926C275.673 89.92 275.699 89.9491 275.727 89.9766C275.754 90.004 275.783 90.0301 275.811 90.0576C275.838 90.085 275.863 90.1142 275.891 90.1416C275.918 90.169 275.948 90.1951 275.976 90.2227C276.003 90.2499 276.029 90.2783 276.056 90.3057C276.083 90.3331 276.112 90.3592 276.14 90.3867C276.167 90.4141 276.193 90.4432 276.221 90.4707C276.248 90.4981 276.277 90.5242 276.305 90.5518C276.332 90.5791 276.358 90.6083 276.385 90.6357C276.412 90.6631 276.442 90.6893 276.47 90.7168C276.497 90.7441 276.523 90.7734 276.55 90.8008C276.577 90.8281 276.606 90.8535 276.634 90.8809C276.661 90.9081 276.687 90.9375 276.714 90.9648C276.742 90.9924 276.771 91.0182 276.799 91.0459C276.826 91.0733 276.852 91.1024 276.879 91.1299C276.906 91.1572 276.936 91.1826 276.963 91.21C276.99 91.2375 277.017 91.2673 277.044 91.2949C277.071 91.3222 277.101 91.3476 277.128 91.375C277.155 91.4023 277.181 91.4316 277.208 91.459C277.236 91.4864 277.265 91.5125 277.293 91.54C277.32 91.5674 277.346 91.5966 277.373 91.624C277.401 91.6513 277.43 91.6767 277.457 91.7041C277.484 91.7313 277.51 91.7607 277.537 91.7881C277.565 91.8156 277.594 91.8415 277.622 91.8691C277.65 91.8966 277.676 91.9255 277.703 91.9531C277.731 91.9805 277.76 92.0067 277.787 92.0342C277.814 92.0615 277.84 92.0908 277.867 92.1182C277.895 92.1454 277.924 92.1709 277.951 92.1982C277.979 92.2257 278.005 92.2547 278.032 92.2822C278.06 92.3097 278.089 92.3357 278.116 92.3633C278.144 92.3906 278.169 92.4199 278.196 92.4473C278.224 92.4748 278.254 92.5007 278.281 92.5283C278.309 92.5557 278.334 92.5848 278.361 92.6123C278.389 92.6396 278.418 92.665 278.445 92.6924C278.473 92.7197 278.498 92.749 278.525 92.7764C278.553 92.8038 278.583 92.8299 278.61 92.8574C278.638 92.8848 278.663 92.9139 278.69 92.9414C278.718 92.9689 278.747 92.9949 278.774 93.0225C278.802 93.0497 278.827 93.0781 278.854 93.1055C278.882 93.133 278.912 93.1589 278.939 93.1865C278.967 93.214 278.993 93.2439 279.021 93.2715C279.048 93.2987 279.077 93.3242 279.104 93.3516C279.132 93.3789 279.157 93.4081 279.185 93.4355C279.212 93.4628 279.241 93.4883 279.269 93.5156C279.296 93.543 279.322 93.5731 279.35 93.6006C279.377 93.6278 279.406 93.6533 279.434 93.6807C279.461 93.708 279.486 93.7372 279.514 93.7646C279.541 93.7922 279.571 93.8181 279.599 93.8457C279.626 93.8731 279.652 93.9022 279.679 93.9297C279.706 93.9569 279.735 93.9824 279.763 94.0098C279.79 94.037 279.816 94.0664 279.843 94.0938C279.87 94.1212 279.9 94.1472 279.928 94.1748C279.955 94.2022 279.981 94.2313 280.008 94.2588C280.035 94.2862 280.065 94.3123 280.093 94.3398C280.12 94.3669 280.145 94.3957 280.172 94.4229C280.2 94.4503 280.229 94.4763 280.257 94.5039C280.284 94.5312 280.31 94.5605 280.337 94.5879C280.365 94.6153 280.394 94.6414 280.422 94.6689C280.449 94.6963 280.475 94.7254 280.502 94.7529C280.529 94.7803 280.559 94.8065 280.587 94.834C280.614 94.8613 280.64 94.8906 280.667 94.918C280.694 94.9452 280.724 94.9707 280.751 94.998C280.778 95.0254 280.804 95.0546 280.831 95.082C280.859 95.1096 280.888 95.1354 280.916 95.1631C280.943 95.1905 280.969 95.2196 280.996 95.2471C281.024 95.2744 281.053 95.2998 281.08 95.3271C281.108 95.3547 281.134 95.3845 281.161 95.4121C281.189 95.4394 281.218 95.4648 281.245 95.4922C281.272 95.5195 281.298 95.5487 281.325 95.5762C281.353 95.6036 281.383 95.6297 281.41 95.6572C281.438 95.6846 281.463 95.7138 281.49 95.7412C281.518 95.7685 281.547 95.7939 281.574 95.8213C281.601 95.8485 281.627 95.8779 281.654 95.9053C281.682 95.9328 281.712 95.9587 281.739 95.9863C281.767 96.0137 281.792 96.0428 281.819 96.0703C281.847 96.0977 281.877 96.1239 281.904 96.1514C281.932 96.1787 281.957 96.208 281.984 96.2354C282.012 96.2626 282.041 96.2881 282.068 96.3154C282.096 96.3427 282.121 96.372 282.148 96.3994C282.176 96.4269 282.206 96.4529 282.233 96.4805C282.261 96.5078 282.286 96.5371 282.313 96.5645C282.341 96.5919 282.371 96.6179 282.398 96.6455C282.426 96.6729 282.451 96.702 282.479 96.7295C282.506 96.7568 282.535 96.7822 282.562 96.8096C282.59 96.8369 282.615 96.8661 282.643 96.8936C282.67 96.921 282.7 96.9471 282.728 96.9746C282.755 97.002 282.78 97.0311 282.808 97.0586C282.835 97.0859 282.864 97.1113 282.892 97.1387C282.919 97.1659 282.945 97.1953 282.972 97.2227C282.999 97.2502 283.029 97.2761 283.057 97.3037C283.084 97.3312 283.11 97.3611 283.138 97.3887C283.165 97.4159 283.194 97.4414 283.222 97.4688C283.249 97.4961 283.274 97.5253 283.302 97.5527C283.329 97.58 283.358 97.6054 283.386 97.6328C283.413 97.6601 283.439 97.6894 283.466 97.7168C283.494 97.7442 283.523 97.7703 283.551 97.7979C283.578 97.8252 283.604 97.8544 283.631 97.8818C283.659 97.9093 283.688 97.9353 283.716 97.9629C283.743 97.9903 283.769 98.0194 283.796 98.0469C283.823 98.0741 283.853 98.0996 283.88 98.127C283.907 98.1542 283.933 98.1836 283.96 98.2109C283.988 98.2384 284.017 98.2644 284.045 98.292C284.072 98.3194 284.098 98.3485 284.125 98.376C284.153 98.4034 284.182 98.4295 284.21 98.457C284.211 98.4578 284.211 98.4591 284.212 98.46C276.862 117.618 261.617 132.864 242.459 140.213L242.457 140.211C242.429 140.183 242.403 140.154 242.376 140.126C242.348 140.099 242.319 140.073 242.292 140.046C242.265 140.019 242.239 139.989 242.212 139.962C242.184 139.935 242.154 139.908 242.127 139.881C242.1 139.853 242.074 139.824 242.047 139.797C242.02 139.77 241.99 139.744 241.963 139.717C241.936 139.689 241.91 139.66 241.883 139.633C241.855 139.605 241.825 139.579 241.798 139.552C241.77 139.524 241.745 139.495 241.718 139.468C241.69 139.44 241.661 139.414 241.634 139.387C241.606 139.359 241.58 139.33 241.553 139.303C241.525 139.275 241.496 139.25 241.469 139.223C241.441 139.195 241.415 139.165 241.388 139.138C241.36 139.11 241.331 139.085 241.304 139.058C241.276 139.03 241.251 139.001 241.224 138.974C241.196 138.946 241.167 138.921 241.14 138.894C241.112 138.866 241.086 138.836 241.059 138.809C241.031 138.781 241.002 138.756 240.975 138.729C240.947 138.701 240.922 138.671 240.895 138.644C240.867 138.616 240.837 138.591 240.81 138.563C240.782 138.536 240.757 138.507 240.729 138.479C240.702 138.452 240.673 138.427 240.646 138.399C240.618 138.372 240.593 138.342 240.565 138.314C240.538 138.287 240.508 138.262 240.48 138.234C240.453 138.207 240.428 138.178 240.4 138.15C240.373 138.123 240.343 138.097 240.315 138.069C240.288 138.042 240.263 138.013 240.235 137.985C240.208 137.958 240.179 137.933 240.151 137.905C240.124 137.878 240.098 137.848 240.07 137.82C240.043 137.793 240.014 137.768 239.986 137.74C239.959 137.713 239.934 137.684 239.906 137.656C239.879 137.629 239.85 137.603 239.822 137.575C239.795 137.548 239.769 137.519 239.741 137.491C239.714 137.464 239.685 137.438 239.657 137.411C239.63 137.384 239.604 137.354 239.576 137.326C239.549 137.299 239.519 137.273 239.492 137.246C239.465 137.219 239.439 137.189 239.411 137.161C239.384 137.134 239.355 137.109 239.328 137.082C239.301 137.055 239.275 137.025 239.247 136.997C239.22 136.97 239.19 136.944 239.163 136.917C239.136 136.89 239.11 136.86 239.083 136.833C239.055 136.806 239.026 136.78 238.998 136.752C238.971 136.725 238.945 136.695 238.918 136.668C238.891 136.641 238.861 136.615 238.834 136.588C238.806 136.56 238.78 136.531 238.753 136.503C238.726 136.476 238.696 136.45 238.669 136.423C238.642 136.395 238.616 136.366 238.589 136.339C238.561 136.312 238.531 136.285 238.504 136.258C238.477 136.23 238.451 136.201 238.424 136.174C238.396 136.147 238.367 136.121 238.34 136.094C238.312 136.066 238.286 136.036 238.259 136.009C238.231 135.982 238.202 135.956 238.175 135.929C238.147 135.901 238.122 135.872 238.095 135.845C238.067 135.817 238.038 135.791 238.011 135.764C237.983 135.736 237.957 135.707 237.93 135.68C237.902 135.653 237.873 135.627 237.846 135.6C237.818 135.572 237.793 135.543 237.766 135.516C237.738 135.488 237.708 135.462 237.681 135.435C237.653 135.407 237.628 135.378 237.601 135.351C237.573 135.323 237.544 135.297 237.517 135.27C237.489 135.242 237.463 135.213 237.436 135.186C237.408 135.158 237.379 135.133 237.352 135.105C237.324 135.078 237.298 135.048 237.271 135.021C237.243 134.993 237.214 134.968 237.187 134.94C237.159 134.913 237.134 134.884 237.106 134.856C237.079 134.829 237.05 134.804 237.022 134.776C236.995 134.749 236.969 134.719 236.941 134.691C236.914 134.664 236.885 134.639 236.857 134.611C236.83 134.584 236.805 134.555 236.777 134.527C236.75 134.5 236.72 134.474 236.692 134.446C236.665 134.419 236.64 134.39 236.612 134.362C236.585 134.335 236.556 134.309 236.528 134.282C236.501 134.255 236.475 134.226 236.448 134.198C236.421 134.171 236.391 134.145 236.363 134.117C236.336 134.09 236.31 134.061 236.283 134.033C236.256 134.006 236.226 133.98 236.198 133.952C236.171 133.925 236.145 133.896 236.118 133.868C236.091 133.841 236.062 133.815 236.034 133.788C236.007 133.76 235.981 133.731 235.953 133.703C235.926 133.676 235.896 133.65 235.869 133.623C235.842 133.596 235.816 133.567 235.789 133.539C235.761 133.512 235.733 133.486 235.705 133.458C235.677 133.431 235.651 133.402 235.624 133.374C235.597 133.347 235.567 133.321 235.54 133.294C235.513 133.266 235.486 133.237 235.459 133.209C235.432 133.182 235.402 133.156 235.375 133.129C235.347 133.101 235.321 133.072 235.294 133.044C235.267 133.017 235.238 132.992 235.211 132.965C235.183 132.937 235.157 132.907 235.13 132.88C235.102 132.853 235.073 132.827 235.046 132.8C235.018 132.772 234.993 132.743 234.966 132.716C234.938 132.688 234.908 132.662 234.881 132.635C234.853 132.607 234.828 132.578 234.801 132.551C234.773 132.524 234.744 132.498 234.717 132.471C234.689 132.443 234.663 132.413 234.636 132.386C234.608 132.358 234.579 132.333 234.552 132.306C234.524 132.278 234.499 132.249 234.472 132.222C234.444 132.194 234.414 132.168 234.387 132.141C234.359 132.113 234.334 132.084 234.307 132.057C234.279 132.029 234.25 132.004 234.223 131.977C234.195 131.949 234.169 131.919 234.142 131.892C234.114 131.864 234.085 131.839 234.058 131.812C234.03 131.784 234.005 131.755 233.978 131.728C233.95 131.7 233.921 131.674 233.894 131.646C233.866 131.619 233.84 131.59 233.812 131.562C233.785 131.535 233.756 131.51 233.729 131.482C233.701 131.455 233.676 131.426 233.648 131.398C233.621 131.371 233.591 131.345 233.563 131.317C233.536 131.29 233.511 131.261 233.483 131.233C233.456 131.206 233.427 131.181 233.399 131.153C233.372 131.126 233.346 131.096 233.318 131.068C233.291 131.041 233.262 131.016 233.234 130.988C233.207 130.961 233.181 130.931 233.153 130.903C233.126 130.876 233.097 130.851 233.069 130.823C233.042 130.796 233.016 130.767 232.989 130.739C232.962 130.712 232.933 130.687 232.905 130.659C232.878 130.632 232.852 130.602 232.824 130.574C232.797 130.547 232.768 130.522 232.74 130.494C232.713 130.467 232.687 130.438 232.66 130.41C232.633 130.383 232.603 130.357 232.575 130.329C232.548 130.302 232.522 130.273 232.495 130.245C232.468 130.218 232.438 130.192 232.411 130.165C232.384 130.138 232.358 130.108 232.331 130.081C232.303 130.054 232.274 130.028 232.246 130C232.219 129.973 232.193 129.943 232.166 129.916C232.138 129.889 232.108 129.862 232.081 129.835C232.054 129.808 232.028 129.778 232.001 129.751C231.974 129.724 231.944 129.698 231.917 129.671C231.889 129.643 231.863 129.614 231.836 129.586C231.809 129.559 231.779 129.533 231.752 129.506C231.725 129.478 231.699 129.449 231.672 129.422C231.644 129.395 231.615 129.369 231.588 129.342C231.56 129.314 231.534 129.284 231.507 129.257C231.479 129.23 231.45 129.204 231.423 129.177C231.395 129.149 231.369 129.119 231.342 129.092C231.314 129.065 231.285 129.039 231.258 129.012C231.23 128.984 231.205 128.954 231.178 128.927C231.151 128.9 231.121 128.875 231.094 128.848C231.066 128.82 231.04 128.79 231.013 128.763C230.985 128.735 230.956 128.71 230.929 128.683C230.901 128.655 230.876 128.626 230.849 128.599C230.821 128.571 230.791 128.545 230.764 128.518C230.736 128.49 230.711 128.461 230.684 128.434C230.656 128.406 230.627 128.381 230.6 128.354C230.572 128.326 230.546 128.296 230.519 128.269C230.491 128.241 230.462 128.216 230.435 128.188C230.407 128.161 230.382 128.132 230.354 128.104C230.327 128.077 230.297 128.051 230.27 128.023C230.242 127.996 230.217 127.967 230.189 127.939C230.162 127.912 230.133 127.887 230.105 127.859C230.078 127.832 230.052 127.802 230.024 127.774C229.997 127.747 229.968 127.722 229.94 127.694C229.913 127.667 229.888 127.638 229.86 127.61C229.833 127.583 229.804 127.558 229.776 127.53C229.749 127.503 229.723 127.473 229.695 127.445C229.668 127.418 229.639 127.393 229.611 127.365C229.584 127.338 229.558 127.309 229.531 127.281C229.504 127.254 229.474 127.228 229.446 127.2C229.419 127.173 229.393 127.144 229.366 127.116C229.339 127.089 229.31 127.063 229.282 127.036C229.255 127.009 229.229 126.979 229.201 126.951C229.174 126.924 229.145 126.898 229.117 126.871C229.09 126.843 229.064 126.814 229.036 126.786C229.009 126.759 228.979 126.733 228.952 126.706C228.925 126.679 228.899 126.649 228.872 126.622C228.845 126.595 228.816 126.569 228.788 126.542C228.761 126.514 228.735 126.485 228.707 126.457C228.68 126.43 228.65 126.404 228.623 126.377C228.596 126.35 228.57 126.32 228.543 126.293C228.515 126.266 228.485 126.239 228.458 126.212C228.431 126.185 228.405 126.155 228.378 126.128C228.351 126.101 228.321 126.075 228.294 126.048C228.267 126.021 228.241 125.991 228.214 125.964C228.186 125.936 228.156 125.91 228.129 125.883C228.102 125.855 228.076 125.826 228.049 125.799C228.021 125.771 227.992 125.745 227.965 125.718C227.937 125.69 227.911 125.661 227.884 125.634C227.856 125.607 227.827 125.581 227.8 125.554C227.772 125.526 227.746 125.496 227.719 125.469C227.691 125.442 227.662 125.416 227.635 125.389C227.607 125.361 227.582 125.332 227.555 125.305C227.527 125.277 227.498 125.252 227.471 125.225C227.443 125.197 227.417 125.167 227.39 125.14C227.362 125.112 227.333 125.087 227.306 125.06C227.278 125.032 227.252 125.002 227.225 124.975C227.197 124.947 227.168 124.922 227.141 124.895C227.113 124.867 227.088 124.838 227.061 124.811C227.033 124.783 227.004 124.758 226.977 124.73C226.949 124.703 226.923 124.673 226.896 124.646C226.868 124.618 226.839 124.593 226.812 124.565C226.784 124.538 226.759 124.509 226.731 124.481C226.704 124.454 226.674 124.428 226.646 124.4C226.619 124.373 226.594 124.344 226.566 124.316C226.539 124.289 226.51 124.264 226.482 124.236C226.455 124.209 226.429 124.179 226.401 124.151C226.374 124.124 226.345 124.099 226.317 124.071C226.29 124.044 226.265 124.015 226.237 123.987C226.21 123.96 226.181 123.934 226.153 123.906C226.126 123.879 226.1 123.85 226.072 123.822C226.045 123.795 226.016 123.77 225.988 123.742C225.961 123.715 225.935 123.685 225.907 123.657C225.88 123.63 225.851 123.604 225.823 123.577C225.796 123.55 225.77 123.521 225.743 123.493C225.716 123.466 225.686 123.44 225.659 123.413C225.632 123.386 225.606 123.356 225.578 123.328C225.551 123.301 225.521 123.275 225.494 123.248C225.467 123.221 225.441 123.191 225.414 123.164C225.386 123.137 225.357 123.111 225.329 123.083C225.302 123.056 225.276 123.026 225.249 122.999C225.222 122.972 225.192 122.946 225.165 122.919C225.138 122.891 225.111 122.862 225.084 122.834C225.057 122.807 225.027 122.781 225 122.754C224.972 122.726 224.946 122.697 224.919 122.669C224.892 122.642 224.862 122.616 224.835 122.589C224.808 122.562 224.782 122.532 224.755 122.505C224.727 122.478 224.698 122.452 224.671 122.425C224.643 122.397 224.617 122.367 224.59 122.34C224.562 122.313 224.533 122.287 224.506 122.26C224.478 122.232 224.453 122.203 224.426 122.176C224.398 122.148 224.368 122.122 224.341 122.095C224.313 122.067 224.288 122.038 224.261 122.011C224.233 121.984 224.204 121.958 224.177 121.931C224.149 121.903 224.124 121.874 224.097 121.847C224.069 121.819 224.039 121.793 224.012 121.766C223.984 121.738 223.959 121.709 223.932 121.682C223.904 121.654 223.875 121.629 223.848 121.602C223.82 121.574 223.794 121.544 223.767 121.517C223.739 121.489 223.71 121.464 223.683 121.437C223.655 121.409 223.629 121.379 223.602 121.352C223.574 121.324 223.545 121.299 223.518 121.271C223.49 121.244 223.465 121.215 223.438 121.188C223.41 121.16 223.381 121.135 223.354 121.107C223.326 121.08 223.3 121.05 223.272 121.022C223.245 120.995 223.216 120.97 223.188 120.942C223.161 120.915 223.135 120.886 223.107 120.858C223.08 120.831 223.051 120.805 223.023 120.777C222.996 120.75 222.971 120.721 222.943 120.693C222.916 120.666 222.887 120.641 222.859 120.613C222.832 120.586 222.806 120.556 222.778 120.528C222.751 120.501 222.722 120.476 222.694 120.448C222.667 120.421 222.642 120.392 222.614 120.364C222.587 120.337 222.557 120.311 222.529 120.283C222.502 120.256 222.476 120.227 222.449 120.199C222.422 120.172 222.393 120.147 222.365 120.119C222.338 120.092 222.312 120.062 222.284 120.034C222.257 120.007 222.228 119.981 222.2 119.954C222.173 119.927 222.147 119.898 222.12 119.87C222.093 119.843 222.064 119.817 222.036 119.789C222.009 119.762 221.982 119.733 221.955 119.705C221.928 119.678 221.898 119.652 221.871 119.625C221.844 119.597 221.817 119.568 221.79 119.54C221.763 119.513 221.733 119.487 221.706 119.46C221.679 119.433 221.653 119.403 221.626 119.376C221.599 119.349 221.569 119.323 221.542 119.296C221.514 119.268 221.488 119.239 221.461 119.211C221.434 119.184 221.404 119.158 221.377 119.131C221.35 119.104 221.324 119.074 221.297 119.047C221.269 119.019 221.239 118.993 221.212 118.966C221.185 118.938 221.159 118.909 221.132 118.882C221.104 118.855 221.075 118.829 221.048 118.802C221.02 118.774 220.994 118.744 220.967 118.717C220.939 118.69 220.91 118.664 220.883 118.637C220.855 118.609 220.829 118.579 220.802 118.552C220.774 118.525 220.745 118.499 220.718 118.472C220.69 118.444 220.665 118.415 220.638 118.388C220.61 118.36 220.581 118.335 220.554 118.308C220.526 118.28 220.5 118.25 220.473 118.223C220.445 118.195 220.416 118.17 220.389 118.143C220.361 118.115 220.336 118.086 220.309 118.059C220.281 118.031 220.251 118.005 220.224 117.978C220.196 117.95 220.171 117.921 220.144 117.894C220.116 117.866 220.087 117.841 220.06 117.813C220.032 117.786 220.007 117.757 219.979 117.729C219.952 117.702 219.922 117.676 219.895 117.648C219.867 117.621 219.842 117.592 219.814 117.564C219.787 117.537 219.758 117.512 219.73 117.484C219.703 117.457 219.677 117.427 219.649 117.399C219.622 117.372 219.593 117.347 219.565 117.319C219.538 117.292 219.512 117.262 219.484 117.234C219.457 117.207 219.428 117.182 219.4 117.154C219.373 117.127 219.348 117.098 219.32 117.07C219.293 117.043 219.264 117.018 219.236 116.99C219.209 116.963 219.183 116.933 219.155 116.905C219.128 116.878 219.099 116.853 219.071 116.825C219.044 116.798 219.019 116.769 218.991 116.741C218.964 116.714 218.934 116.688 218.906 116.66C218.879 116.633 218.853 116.604 218.826 116.576C218.799 116.549 218.769 116.523 218.742 116.496C218.715 116.469 218.689 116.439 218.661 116.411C218.634 116.384 218.604 116.358 218.577 116.331C218.55 116.304 218.524 116.275 218.497 116.247C218.469 116.22 218.44 116.194 218.412 116.166C218.385 116.139 218.359 116.109 218.332 116.082C218.305 116.055 218.275 116.029 218.248 116.002C218.22 115.974 218.195 115.945 218.167 115.917C218.14 115.89 218.11 115.864 218.083 115.837C218.056 115.81 218.03 115.78 218.003 115.753C217.976 115.726 217.946 115.7 217.919 115.673C217.892 115.645 217.865 115.615 217.838 115.588C217.81 115.561 217.781 115.535 217.754 115.508C217.726 115.48 217.7 115.45 217.673 115.423C217.645 115.396 217.616 115.37 217.589 115.343C217.562 115.315 217.536 115.286 217.509 115.259C217.481 115.232 217.452 115.206 217.425 115.179C217.397 115.151 217.371 115.121 217.344 115.094C217.316 115.067 217.287 115.041 217.26 115.014C217.232 114.986 217.207 114.957 217.18 114.93C217.152 114.902 217.122 114.876 217.095 114.849C217.067 114.821 217.042 114.792 217.015 114.765C216.987 114.737 216.958 114.712 216.931 114.685C216.903 114.657 216.877 114.627 216.85 114.6C216.822 114.572 216.793 114.547 216.766 114.52C216.738 114.492 216.712 114.462 216.685 114.435C216.657 114.407 216.628 114.382 216.601 114.354C216.573 114.327 216.548 114.298 216.521 114.271C216.493 114.243 216.464 114.218 216.437 114.19C216.409 114.163 216.383 114.133 216.355 114.105C216.328 114.078 216.299 114.053 216.271 114.025C216.244 113.998 216.219 113.969 216.191 113.941C216.164 113.914 216.134 113.889 216.106 113.861C216.079 113.834 216.054 113.804 216.026 113.776C215.999 113.749 215.97 113.724 215.942 113.696C215.915 113.669 215.89 113.64 215.862 113.612C215.835 113.585 215.805 113.559 215.777 113.531C215.75 113.504 215.725 113.475 215.697 113.447C215.67 113.42 215.641 113.394 215.613 113.367C215.586 113.34 215.56 113.31 215.532 113.282C215.505 113.255 215.476 113.23 215.448 113.202C215.421 113.175 215.395 113.145 215.367 113.117C215.34 113.09 215.31 113.064 215.283 113.037C215.256 113.01 215.23 112.981 215.203 112.953C215.176 112.926 215.146 112.9 215.119 112.873C215.092 112.846 215.065 112.816 215.038 112.788C215.011 112.761 214.981 112.735 214.954 112.708C214.927 112.681 214.901 112.652 214.874 112.624C214.847 112.597 214.816 112.57 214.789 112.543C214.762 112.516 214.736 112.486 214.709 112.459C214.682 112.432 214.652 112.406 214.625 112.379C214.598 112.351 214.571 112.322 214.544 112.294C214.517 112.267 214.487 112.241 214.46 112.214C214.433 112.187 214.407 112.157 214.38 112.13C214.352 112.102 214.322 112.076 214.295 112.049C214.268 112.021 214.242 111.992 214.215 111.965C214.187 111.938 214.158 111.912 214.131 111.885C214.103 111.857 214.077 111.828 214.05 111.8C214.022 111.773 213.993 111.747 213.966 111.72C213.938 111.692 213.913 111.663 213.886 111.636C213.858 111.609 213.829 111.583 213.802 111.556C213.774 111.528 213.748 111.498 213.721 111.471C213.693 111.443 213.664 111.418 213.637 111.391C213.609 111.363 213.583 111.334 213.556 111.307C213.528 111.279 213.499 111.253 213.472 111.226C213.444 111.198 213.419 111.169 213.392 111.142C213.364 111.114 213.335 111.089 213.308 111.062C213.28 111.034 213.254 111.004 213.227 110.977C213.199 110.949 213.17 110.924 213.143 110.896C213.115 110.869 213.09 110.84 213.062 110.812C213.035 110.785 213.005 110.759 212.978 110.731C212.95 110.704 212.925 110.675 212.897 110.647C212.87 110.62 212.841 110.595 212.813 110.567C212.786 110.54 212.76 110.51 212.732 110.482C212.705 110.455 212.676 110.43 212.648 110.402C212.621 110.375 212.595 110.345 212.567 110.317C212.54 110.29 212.511 110.265 212.483 110.237C212.456 110.21 212.43 110.181 212.403 110.153C212.376 110.126 212.347 110.101 212.319 110.073C212.292 110.046 212.266 110.016 212.238 109.988C212.211 109.961 212.182 109.936 212.154 109.908C212.127 109.881 212.101 109.852 212.074 109.824C212.047 109.797 212.018 109.771 211.99 109.744C211.963 109.717 211.937 109.687 211.909 109.659C211.882 109.632 211.852 109.606 211.825 109.579C211.798 109.552 211.772 109.523 211.745 109.495C211.718 109.468 211.688 109.442 211.66 109.414C211.633 109.387 211.607 109.358 211.58 109.33C211.553 109.303 211.523 109.277 211.496 109.25C211.469 109.222 211.442 109.193 211.415 109.165C211.388 109.138 211.358 109.112 211.331 109.085C211.303 109.057 211.278 109.028 211.25 109C211.223 108.973 211.193 108.947 211.166 108.92C211.139 108.893 211.113 108.863 211.086 108.836C211.058 108.809 211.029 108.783 211.002 108.756C210.974 108.728 210.948 108.699 210.921 108.671C210.893 108.644 210.864 108.618 210.837 108.591C210.81 108.563 210.784 108.534 210.757 108.507C210.729 108.479 210.699 108.453 210.672 108.426C210.644 108.398 210.619 108.369 210.592 108.342C210.565 108.315 210.535 108.289 210.508 108.262C210.48 108.234 210.454 108.204 210.427 108.177C210.399 108.15 210.37 108.124 210.343 108.097C210.315 108.069 210.29 108.04 210.263 108.013C210.235 107.985 210.206 107.96 210.179 107.933C210.151 107.905 210.125 107.875 210.098 107.848C210.07 107.82 210.041 107.795 210.014 107.768C209.986 107.74 209.96 107.71 209.933 107.683C209.905 107.655 209.876 107.63 209.849 107.603C209.821 107.575 209.796 107.546 209.769 107.519C209.741 107.491 209.712 107.466 209.685 107.438C209.657 107.411 209.631 107.381 209.604 107.354C209.576 107.326 209.547 107.301 209.52 107.273C209.492 107.246 209.467 107.217 209.439 107.189C209.412 107.162 209.382 107.136 209.354 107.108C209.327 107.081 209.302 107.052 209.274 107.024C209.247 106.997 209.218 106.972 209.19 106.944C209.163 106.917 209.137 106.887 209.109 106.859C209.082 106.832 209.053 106.807 209.025 106.779C208.998 106.752 208.973 106.723 208.945 106.695C208.918 106.668 208.888 106.642 208.86 106.614C208.833 106.587 208.808 106.558 208.78 106.53C208.753 106.503 208.724 106.478 208.696 106.45C208.669 106.423 208.643 106.393 208.615 106.365C208.588 106.338 208.559 106.312 208.531 106.285C208.504 106.258 208.478 106.228 208.45 106.2C208.423 106.173 208.394 106.147 208.367 106.12C208.34 106.093 208.313 106.064 208.286 106.036C208.259 106.009 208.23 105.983 208.202 105.956C208.175 105.929 208.149 105.899 208.121 105.871C208.094 105.844 208.064 105.818 208.037 105.791C208.01 105.764 207.984 105.735 207.957 105.707C207.93 105.68 207.9 105.654 207.873 105.627C207.846 105.599 207.819 105.57 207.792 105.542C207.765 105.515 207.735 105.489 207.708 105.462C207.681 105.435 207.655 105.405 207.628 105.378C207.6 105.35 207.57 105.324 207.543 105.297C207.516 105.27 207.49 105.24 207.463 105.213C207.435 105.186 207.406 105.16 207.379 105.133C207.351 105.105 207.325 105.075 207.298 105.048C207.27 105.021 207.241 104.995 207.214 104.968C207.186 104.94 207.16 104.91 207.133 104.883C207.105 104.856 207.076 104.83 207.049 104.803C207.022 104.775 206.996 104.746 206.969 104.719C206.941 104.691 206.912 104.666 206.885 104.639C206.857 104.611 206.831 104.581 206.804 104.554C206.776 104.526 206.747 104.501 206.72 104.474C206.692 104.446 206.667 104.417 206.64 104.39C206.612 104.362 206.582 104.336 206.555 104.309C206.527 104.281 206.502 104.252 206.475 104.225C206.447 104.197 206.418 104.172 206.391 104.145C206.363 104.117 206.337 104.087 206.31 104.06C206.282 104.032 206.253 104.007 206.226 103.979C206.198 103.952 206.173 103.923 206.146 103.896C206.118 103.868 206.089 103.843 206.062 103.815C206.034 103.788 206.008 103.758 205.98 103.73C205.953 103.703 205.924 103.678 205.896 103.65C205.869 103.623 205.843 103.593 205.815 103.565C205.788 103.538 205.759 103.513 205.731 103.485C205.704 103.458 205.679 103.429 205.651 103.401C205.624 103.374 205.595 103.349 205.567 103.321C205.54 103.294 205.514 103.264 205.486 103.236C205.459 103.209 205.43 103.184 205.402 103.156C205.375 103.129 205.349 103.1 205.322 103.072C205.295 103.045 205.265 103.019 205.237 102.991C205.21 102.964 205.185 102.935 205.157 102.907C205.13 102.88 205.101 102.855 205.073 102.827C205.046 102.8 205.02 102.77 204.992 102.742C204.965 102.715 204.936 102.689 204.908 102.662C204.881 102.635 204.855 102.606 204.828 102.578C204.8 102.551 204.771 102.525 204.743 102.497C204.716 102.47 204.69 102.441 204.663 102.413C204.636 102.386 204.606 102.36 204.579 102.333C204.552 102.306 204.525 102.276 204.498 102.248C204.471 102.221 204.441 102.195 204.414 102.168C204.386 102.14 204.36 102.111 204.333 102.083C204.306 102.056 204.277 102.031 204.25 102.004C204.223 101.976 204.196 101.946 204.169 101.919C204.141 101.892 204.112 101.866 204.085 101.839C204.057 101.811 204.031 101.782 204.004 101.754C203.977 101.727 203.947 101.701 203.92 101.674C203.892 101.646 203.867 101.617 203.84 101.59C203.812 101.563 203.783 101.537 203.756 101.51C203.728 101.482 203.702 101.452 203.675 101.425C203.647 101.398 203.618 101.372 203.591 101.345C203.563 101.317 203.538 101.288 203.511 101.261C203.483 101.233 203.453 101.207 203.426 101.18C203.398 101.152 203.373 101.123 203.346 101.096C203.318 101.068 203.289 101.043 203.262 101.016C203.234 100.988 203.208 100.958 203.181 100.931C203.153 100.903 203.124 100.878 203.097 100.851C203.069 100.823 203.043 100.793 203.016 100.766C202.988 100.738 202.959 100.713 202.932 100.686C202.904 100.658 202.879 100.629 202.852 100.602C202.824 100.574 202.795 100.549 202.768 100.521C202.74 100.494 202.714 100.464 202.687 100.437C202.659 100.409 202.63 100.384 202.603 100.356C202.575 100.329 202.55 100.3 202.522 100.272C202.495 100.245 202.466 100.22 202.438 100.192C202.411 100.165 202.385 100.135 202.357 100.107C202.33 100.08 202.301 100.055 202.273 100.027C202.246 99.9998 202.22 99.97 202.192 99.9424C202.165 99.9152 202.136 99.8896 202.108 99.8623C202.081 99.835 202.056 99.8057 202.028 99.7783C202.001 99.751 201.972 99.7256 201.944 99.6982C201.917 99.6707 201.891 99.6409 201.863 99.6133C201.836 99.586 201.807 99.5606 201.779 99.5332C201.752 99.5056 201.726 99.4759 201.698 99.4482C201.671 99.4211 201.642 99.3955 201.614 99.3682C201.587 99.3408 201.561 99.3116 201.534 99.2842C201.507 99.2569 201.478 99.2314 201.45 99.2041C201.423 99.1768 201.397 99.1475 201.37 99.1201C201.343 99.0927 201.313 99.0666 201.285 99.0391C201.258 99.0117 201.232 98.9826 201.205 98.9551C201.177 98.9277 201.148 98.9015 201.12 98.874C201.093 98.8466 201.067 98.8175 201.04 98.79C201.013 98.7628 200.983 98.7373 200.956 98.71C200.928 98.6824 200.903 98.6527 200.875 98.625C200.848 98.5978 200.818 98.5723 200.791 98.5449C200.764 98.5175 200.738 98.4884 200.711 98.4609C200.683 98.4335 200.654 98.4074 200.626 98.3799C200.599 98.3525 200.573 98.3234 200.546 98.2959C200.518 98.2686 200.489 98.2432 200.462 98.2158C200.434 98.1883 200.408 98.1585 200.381 98.1309C200.353 98.1037 200.324 98.0781 200.297 98.0508C200.269 98.0232 200.243 97.9934 200.216 97.9658C200.189 97.9389 200.16 97.9138 200.133 97.8867C200.105 97.8593 200.079 97.8293 200.052 97.8018C200.024 97.7745 199.995 97.7491 199.968 97.7217C199.94 97.6942 199.914 97.6653 199.887 97.6377C199.859 97.6104 199.83 97.5841 199.803 97.5566C199.775 97.5293 199.75 97.5001 199.723 97.4727C199.695 97.4454 199.666 97.4199 199.639 97.3926C199.611 97.365 199.585 97.3353 199.558 97.3076C199.53 97.2804 199.501 97.2549 199.474 97.2275C199.446 97.2002 199.421 97.171 199.394 97.1436C199.366 97.1161 199.336 97.0901 199.309 97.0625C199.281 97.0351 199.256 97.006 199.229 96.9785C199.201 96.9513 199.172 96.9258 199.145 96.8984C199.117 96.8709 199.091 96.8411 199.063 96.8135C199.036 96.7862 199.007 96.7607 198.979 96.7334C198.952 96.7058 198.926 96.6761 198.898 96.6484C198.871 96.6213 198.842 96.5956 198.814 96.5684C198.787 96.5411 198.762 96.5117 198.734 96.4844C198.707 96.4571 198.678 96.4317 198.65 96.4043C198.623 96.3768 198.597 96.3469 198.569 96.3193C198.542 96.2921 198.513 96.2666 198.485 96.2393C198.458 96.2119 198.433 96.1828 198.405 96.1553C198.378 96.1281 198.349 96.1025 198.321 96.0752C198.294 96.0476 198.268 96.0179 198.24 95.9902C198.213 95.963 198.184 95.9375 198.156 95.9102C198.129 95.8827 198.103 95.8528 198.075 95.8252C198.048 95.798 198.018 95.7724 197.991 95.7451C197.964 95.7178 197.938 95.6885 197.911 95.6611C197.884 95.6338 197.855 95.6084 197.827 95.5811C197.8 95.5536 197.774 95.5237 197.746 95.4961C197.719 95.4688 197.689 95.4434 197.662 95.416C197.634 95.3884 197.609 95.3588 197.581 95.3311C197.554 95.3039 197.524 95.2783 197.497 95.251C197.47 95.2236 197.444 95.1945 197.417 95.167C197.39 95.1397 197.36 95.1143 197.333 95.0869C197.306 95.0596 197.28 95.0303 197.253 95.0029C197.225 94.9755 197.195 94.9494 197.168 94.9219C197.141 94.8945 197.115 94.8654 197.088 94.8379C197.06 94.8106 197.03 94.7843 197.003 94.7568C196.976 94.7295 196.95 94.7003 196.923 94.6729C196.895 94.6456 196.866 94.6202 196.839 94.5928C196.811 94.5652 196.785 94.5355 196.758 94.5078C196.73 94.4806 196.701 94.4551 196.674 94.4277C196.646 94.4004 196.621 94.3712 196.594 94.3438C196.566 94.3163 196.536 94.2912 196.509 94.2637C196.481 94.2362 196.456 94.2063 196.429 94.1787C196.401 94.1514 196.372 94.126 196.345 94.0986C196.317 94.0711 196.291 94.0413 196.264 94.0137C196.236 93.9865 196.207 93.9609 196.18 93.9336C196.152 93.9061 196.126 93.8772 196.099 93.8496C196.071 93.8225 196.043 93.7967 196.016 93.7695C195.988 93.7421 195.962 93.7121 195.935 93.6846C195.907 93.6573 195.878 93.6319 195.851 93.6045C195.823 93.577 195.797 93.5481 195.77 93.5205C195.742 93.4932 195.713 93.4669 195.686 93.4395C193.008 90.7644 190.869 87.5933 189.327 84.0137C187.783 80.4398 187 76.5869 187 72.5625C187 68.4879 187.783 64.6244 189.326 61.0791C190.868 57.5218 193.008 54.3618 195.686 51.6865C198.361 49.0084 201.533 46.8694 205.112 45.3281C208.686 43.7834 212.538 43 216.562 43Z" fill="#1545BB"/>
</g>
<path d="M198.304 87.545C200.799 85.6275 203.589 84.1171 206.671 83.0079C209.754 81.9046 212.984 81.35 216.36 81.35C219.737 81.35 222.966 81.9046 226.049 83.0079C229.132 84.1171 231.921 85.6275 234.417 87.545C236.129 85.5302 237.465 83.2439 238.419 80.6862C239.373 78.1286 239.849 75.3999 239.849 72.5C239.849 65.9599 237.561 60.3932 232.987 55.7971C228.41 51.1981 222.869 48.9 216.36 48.9C209.851 48.9 204.311 51.1981 199.737 55.7971C195.159 60.3932 192.872 65.9599 192.872 72.5C192.872 75.3998 193.348 78.1286 194.302 80.6862C195.256 83.2439 196.592 85.5302 198.304 87.545ZM216.36 75.45C213.474 75.45 211.04 74.4558 209.058 72.4646C207.077 70.4704 206.084 68.0249 206.084 65.125C206.084 62.2251 207.077 59.7796 209.058 57.7884C211.04 55.7971 213.474 54.8 216.36 54.8C219.246 54.8 221.68 55.7971 223.665 57.7884C225.647 59.7796 226.636 62.2251 226.636 65.125C226.636 68.0249 225.647 70.4704 223.665 72.4646C221.68 74.4558 219.246 75.45 216.36 75.45ZM216.36 102C212.3 102 208.483 101.224 204.91 99.6754C201.337 98.1296 198.23 96.0263 195.588 93.3712C192.945 90.7163 190.852 87.5952 189.314 84.005C187.769 80.4148 187 76.5798 187 72.5C187 68.4202 187.769 64.5852 189.314 60.995C190.852 57.4048 192.945 54.2837 195.588 51.6288C198.23 48.9737 201.337 46.8704 204.91 45.3246C208.483 43.7729 212.3 43 216.36 43C220.421 43 224.238 43.7729 227.811 45.3246C231.384 46.8704 234.49 48.9737 237.133 51.6288C239.775 54.2837 241.869 57.4048 243.407 60.995C244.948 64.5852 245.721 68.4202 245.721 72.5C245.721 76.5798 244.948 80.4148 243.407 84.005C241.869 87.5952 239.775 90.7163 237.133 93.3712C234.49 96.0263 231.384 98.1296 227.811 99.6754C224.238 101.224 220.421 102 216.36 102Z" fill="#5187DF"/>
</svg>
