<svg xmlns="http://www.w3.org/2000/svg" width="577" height="145" fill="none" viewBox="0 0 577 145"><path fill="#286ad8" d="M145 0v145H72.665C32.533 145 0 112.541 0 72.5S32.533 0 72.665 0zM577 0c-80.021 0-144.89 64.906-144.89 144.972L432 145h145z"/><path fill="#286ad8" d="M327.875 145H433C433 64.919 368.081 0 288 0v105.125C288 127.148 305.853 145 327.875 145"/><path fill="#286ad8" d="M216.5 145c40.041 0 72.5-32.459 72.5-72.5S256.541 0 216.5 0 144 32.46 144 72.5s32.459 72.5 72.5 72.5"/><path fill="#1545bb" d="M216.562 43c4.075 0 7.94.783 11.485 2.327 3.558 1.542 6.718 3.68 9.392 6.358q.04.043.081.084t.084.082l.08.084q.042.04.085.08.04.042.08.085.042.04.085.08l.08.084.084.08q.04.043.08.085.042.04.085.08l.08.084.084.08q.04.043.081.086l.084.08.08.084q.042.04.085.08.04.042.08.085l.084.08.08.084.085.081.08.084q.043.04.085.08.04.043.08.085l.084.08.08.084.085.081.08.083.085.081.08.084.084.081.081.084.084.081.08.084.084.08.081.084.084.081.08.084q.043.04.085.08.04.043.08.085l.084.08.081.084.084.081q.04.043.081.084.042.04.084.08l.081.085.084.08.081.085.084.08q.04.043.08.085.042.04.085.08l.08.084.084.08.08.085q.042.04.085.08l.08.085q.042.04.085.08l.08.084.084.08.08.085.085.08.08.084.084.081.081.085.084.08.08.084q.043.04.085.08l.08.084.084.081.08.084.085.081.08.084q.043.04.085.08.04.043.08.085l.084.08.08.084.085.081.08.083.085.081.08.084.084.081.081.084.084.08q.04.043.08.086.043.04.084.08.041.041.082.084l.084.08q.04.043.08.085.042.04.085.08.04.042.08.085l.084.08.08.084q.042.04.085.08.04.043.08.085.042.04.085.08.04.041.079.084.042.04.085.08l.081.085.084.08.08.085q.042.04.085.08l.08.084.084.081.08.084.085.08q.04.042.08.085l.084.08.081.084.084.081.08.084q.043.04.085.08l.08.084.084.081.081.084.084.081.08.084q.043.04.085.08l.08.084.084.081.08.084.085.081.08.084q.043.04.085.08.04.043.08.085l.084.08.08.084q.043.041.085.082.04.04.081.083l.084.08.081.085.084.08.081.085.084.08q.04.042.08.085l.084.08.08.084q.042.04.085.08l.08.085q.042.04.085.08.04.042.08.085l.084.08.08.084.085.08.08.085q.042.04.085.08.04.042.079.084l.085.081.081.084.084.081.08.084.084.08.081.084.084.081.08.084q.043.04.085.08.04.043.08.085l.084.08.081.084.084.081.08.084q.043.04.085.08.04.043.079.084l.085.081.081.084.084.081.08.084.084.08.081.085.084.08q.04.043.081.084.042.041.085.082l.08.084.084.08.081.085.084.08.08.084q.042.04.085.08l.08.084.084.08.08.085q.042.04.085.08l.08.085q.042.04.085.08l.08.084.084.08q.04.043.08.085l.085.081.08.083.085.081.08.085.084.08.08.084.085.081.08.084.084.08.08.084.085.081.081.084.084.081.08.084.084.08.08.084.085.081.08.084q.043.04.085.08.04.043.08.085l.084.08.08.084q.043.041.085.082.04.041.08.084.043.04.085.08c.028.027.052.056.08.084q.042.04.085.08l.081.085.084.08q.04.043.08.085l.084.08.081.084.084.08.08.085q.042.04.085.08l.08.085.084.08.081.085.084.08.08.084q.042.04.085.08l.08.084.084.081.08.084.085.081.08.084.085.08.08.084.084.081.08.084.085.081.08.083.084.081.081.085.084.08.08.084.085.081.08.084.084.08.08.084.085.081.081.084.084.08q.04.043.08.085l.084.08q.04.043.08.085.043.04.085.08.04.043.081.084.042.04.084.08.04.043.081.086l.084.08.08.084q.042.04.085.08.04.043.08.085l.084.08.08.084q.042.04.085.08l.081.085.084.08.08.085.084.08.081.084.084.08q.04.043.08.085.043.04.085.08.04.042.08.085l.084.08.081.085.084.08.08.084q.043.04.085.08.04.042.079.084l.085.081.08.084.085.081.08.084.084.08.081.084.084.081.08.084.085.081.08.083.084.081.081.085.084.08.08.084q.043.041.085.082.04.041.08.084.043.04.084.08.04.041.081.084l.084.08.081.085q.042.04.085.08.04.042.08.085l.084.08.08.084q.042.04.085.08l.08.084.084.08q.04.043.081.086l.084.08.08.084q.042.04.085.08l.08.085.084.08.08.084.085.081.08.084.085.081.08.084.084.08.08.084.085.081.08.084q.043.04.085.08.04.043.08.085l.084.08.081.084.084.081.08.084.084.08.08.084.085.081.08.084.085.081.08.084.084.08.081.084q.043.041.084.082.04.041.08.084.043.04.085.08l.081.084.084.08q.04.043.081.086l.084.08.08.084q.042.04.085.08.04.042.08.085l.084.08.08.084q.042.04.085.08.04.043.08.085l.084.08.081.084.084.08.08.085.085.08.08.084.084.081.081.085.084.08.08.084.085.081.08.084.084.08.08.084.085.081.08.084q.043.04.085.08.04.043.08.085l.084.08.08.084.085.081.08.084q.043.04.085.08l.08.084.084.081.081.084.084.081.08.084.084.08q.04.043.08.085.043.04.085.08.04.043.081.084.042.041.084.082.04.041.081.084l.084.08.08.084q.042.04.085.08.04.043.08.085.042.04.085.08.04.041.079.084.042.04.085.08.04.043.081.086l.084.08.08.084q.042.04.085.08.04.042.08.085l.084.08.08.084.085.08.08.085.084.08.081.084.084.081.08.084q.043.04.085.081l.08.083.084.081.081.085.084.08.08.084.085.081.08.084.084.08.08.084.085.081.08.084q.043.04.085.08.04.043.08.085l.084.08.08.084q.043.041.085.082.04.041.08.084.043.04.084.08.041.041.082.084l.084.08.081.085.084.08q.04.042.08.085l.084.08.08.084q.042.04.085.08.04.043.08.085.042.04.085.08l.08.085.084.08.08.084q.042.04.085.08l.08.085q.042.04.085.08.04.042.079.084l.085.081.081.085.084.08.08.084.084.08.081.084q.043.04.084.081l.08.084.085.081.08.084.084.08.08.084.085.081.08.084.085.081.079.083.085.081.081.085.084.08.08.084q.043.04.085.08.04.043.08.085l.084.08.08.084.085.081.081.085.084.08.081.084.084.08q.04.043.08.085.042.04.085.08l.08.084.084.08.081.085.084.08.08.085q.042.04.085.08l.08.085.084.08.08.084.085.08.08.085.084.08.081.085.084.08.08.084.085.081.08.084.084.08.08.084.085.081.081.084.084.081.08.084.084.08.081.084.084.081.08.084.085.081.08.084.084.08.08.084.085.081.08.084.084.081.08.084q.043.04.085.08.041.043.082.085.041.04.083.08l.081.085.084.08.081.085.084.08.08.084q.042.04.085.08l.08.085.084.08.08.084q.042.04.085.08l.08.085q.042.04.085.08.04.043.079.084l.085.08q.04.043.08.085l.085.08.08.085.085.081.08.084.084.08.08.084.085.081.08.084.084.08.081.085.084.08.08.084.085.081.08.084.084.08.08.084.085.081.08.084.085.081.08.084.084.08.08.084q.043.041.085.082.04.041.08.084.043.04.085.08l.081.085q.041.04.083.08.04.041.081.084.042.04.085.08.04.042.08.085l.084.08.08.084q.042.04.085.08.04.043.081.086l.084.08.08.084.084.08.08.084.085.08.08.085.085.08.08.085.084.08.08.084.085.081.08.084.085.081.002.003c-7.35 19.158-22.595 34.404-41.753 41.753l-.002-.002-.081-.085-.084-.08-.08-.084-.085-.081-.08-.084-.084-.08-.08-.084-.085-.081-.08-.084-.084-.081-.081-.084-.084-.08-.081-.085-.084-.08-.08-.084-.084-.08-.081-.085-.084-.08q-.04-.043-.08-.085-.043-.04-.085-.081-.04-.041-.081-.084-.042-.04-.083-.08-.04-.042-.081-.085-.042-.04-.085-.08l-.08-.084-.085-.081-.08-.084-.084-.08-.081-.085-.084-.08-.08-.084-.084-.081-.081-.084-.084-.08-.081-.085-.084-.08-.081-.085-.083-.079-.081-.085-.084-.08-.08-.084-.085-.081-.08-.084-.084-.08-.081-.085-.084-.08-.08-.084-.085-.081-.08-.084-.084-.08-.081-.085-.084-.08-.08-.084-.084-.081-.081-.084-.084-.08-.08-.084-.085-.081-.08-.084-.084-.081-.081-.084q-.043-.04-.084-.081-.041-.042-.081-.084-.043-.04-.084-.081-.04-.041-.081-.084l-.084-.08-.081-.085-.084-.08-.08-.084-.085-.081-.08-.084-.084-.08-.08-.084-.085-.081-.08-.084-.085-.081-.08-.084-.084-.08-.081-.085-.084-.08-.08-.084-.084-.081q-.041-.041-.081-.084l-.084-.08-.081-.085-.084-.08-.081-.085-.083-.079-.081-.085-.084-.08-.08-.084-.085-.081-.08-.084-.084-.08-.081-.085-.084-.08-.08-.084-.085-.081-.08-.084-.084-.08-.081-.085-.084-.08-.08-.084q-.043-.041-.084-.082t-.082-.084q-.042-.04-.083-.08-.04-.041-.081-.084l-.085-.081-.08-.084-.084-.08-.081-.085-.084-.08-.081-.085-.084-.08-.08-.084-.084-.08-.081-.085-.084-.08-.08-.084-.085-.081-.08-.084-.084-.08-.08-.084-.085-.081-.08-.084-.085-.081-.08-.084-.084-.08-.081-.085-.084-.08-.08-.084-.084-.08-.081-.085-.084-.08-.081-.085-.084-.08q-.04-.043-.08-.085-.042-.04-.084-.079l-.081-.085-.084-.08-.08-.084-.085-.081-.08-.084-.084-.08-.081-.085q-.043-.04-.084-.081-.04-.041-.081-.084-.042-.04-.084-.081-.04-.041-.081-.084l-.084-.08-.081-.085-.084-.08-.08-.084-.084-.08-.081-.085-.084-.08-.08-.084-.085-.081-.08-.084-.084-.08-.081-.085-.084-.08-.081-.085-.084-.08-.08-.084-.084-.08-.081-.085-.084-.08-.08-.084-.085-.081-.08-.084-.084-.08-.08-.084-.085-.081-.08-.084-.084-.081-.081-.084-.084-.08-.081-.085-.084-.08-.08-.084-.084-.08-.081-.085-.084-.08-.081-.085-.084-.08-.08-.084q-.043-.04-.084-.081-.041-.042-.081-.084-.043-.04-.084-.081-.04-.041-.081-.084l-.085-.081-.08-.084-.084-.08-.081-.085-.084-.08-.08-.084-.084-.081-.081-.084-.084-.08-.081-.085-.084-.08-.08-.084-.084-.08-.081-.085-.084-.08-.08-.084-.085-.081-.08-.084-.084-.08-.081-.085-.084-.08-.081-.085-.084-.08-.08-.084-.084-.08-.081-.085-.084-.08-.08-.084-.085-.081-.08-.084-.084-.08-.08-.084-.085-.081-.08-.084-.084-.08-.081-.085-.084-.08-.081-.085q-.043-.04-.084-.081-.04-.042-.08-.083-.043-.04-.084-.081-.041-.042-.082-.085l-.084-.08-.081-.084-.084-.081-.08-.084-.084-.08-.081-.085-.084-.08-.08-.084-.085-.081-.08-.084-.084-.08-.081-.085-.084-.08-.08-.084-.084-.081-.081-.084-.084-.08-.081-.085-.084-.08-.08-.084-.084-.08-.081-.085-.084-.08-.08-.084-.085-.081-.08-.084-.084-.08-.081-.085-.084-.08-.081-.085-.084-.08-.08-.084-.084-.08-.081-.085-.084-.08-.08-.084-.085-.081-.08-.084q-.043-.04-.084-.081-.04-.041-.081-.084-.042-.04-.084-.081-.04-.041-.081-.084l-.084-.08-.081-.085-.084-.08-.081-.085-.084-.08-.08-.084-.084-.08-.081-.085-.084-.08-.08-.084-.085-.081-.08-.084-.084-.08-.081-.085-.084-.08-.08-.084-.085-.081-.08-.084-.084-.08-.081-.085-.084-.08-.08-.084-.084-.08-.081-.085-.084-.08-.081-.085-.084-.08-.08-.084-.084-.08-.081-.085-.084-.08-.08-.084-.085-.081-.08-.084-.084-.08-.081-.085-.084-.08-.081-.085q-.043-.04-.084-.081-.04-.041-.08-.083-.043-.04-.084-.081-.041-.042-.082-.085l-.084-.08-.08-.084q-.042-.04-.085-.08-.04-.042-.08-.085l-.084-.08-.08-.084-.085-.081-.08-.084-.084-.08-.081-.085-.084-.08-.081-.085-.084-.08-.08-.084-.084-.08-.081-.085-.084-.08-.08-.084-.085-.081-.08-.084-.084-.08-.081-.085-.084-.08-.08-.084-.085-.081-.08-.084-.084-.08-.081-.085-.084-.08-.08-.084-.084-.08-.081-.085-.084-.08-.081-.084-.084-.081-.08-.084-.084-.08-.081-.085q-.043-.04-.084-.081-.04-.041-.081-.084-.042-.04-.084-.081-.04-.041-.081-.084l-.084-.08-.081-.085-.084-.08-.081-.085-.084-.08-.08-.084-.084-.08-.081-.085-.084-.08-.08-.084-.084-.08-.081-.085-.084-.08-.08-.084-.085-.081-.08-.084-.084-.08-.081-.085-.084-.08-.081-.085-.084-.08-.08-.084-.084-.08-.081-.085-.084-.08-.08-.084-.085-.081-.08-.084-.084-.08-.081-.085-.084-.08-.08-.084-.084-.08-.081-.085-.084-.08-.081-.085-.084-.08-.08-.084q-.043-.04-.084-.081-.041-.042-.081-.084-.043-.04-.084-.081-.04-.041-.081-.084l-.085-.081-.08-.084-.084-.08-.081-.085-.084-.08-.08-.084-.085-.081-.08-.084-.084-.08-.081-.085-.084-.08-.081-.085-.083-.08-.081-.084-.084-.08-.081-.085-.084-.08-.08-.084-.084-.08-.081-.085-.084-.08-.08-.084-.085-.081-.08-.084-.084-.08-.081-.085-.084-.08-.081-.085-.084-.08-.08-.084-.084-.08-.081-.085-.084-.08-.08-.084-.085-.081-.08-.084-.084-.08-.081-.085q-.043-.04-.084-.081-.04-.041-.08-.083-.043-.04-.084-.081-.041-.042-.082-.085l-.084-.08-.081-.085-.084-.08-.08-.084-.084-.08-.081-.085-.084-.08-.08-.084-.085-.081-.08-.084-.084-.08-.081-.085-.084-.08-.08-.084-.085-.081-.08-.084-.084-.08-.081-.085-.084-.08-.081-.085-.083-.079-.081-.085-.084-.08-.081-.085-.084-.08-.08-.084-.084-.08-.081-.085-.084-.08-.08-.084-.085-.081-.08-.084-.084-.08-.081-.085-.084-.08-.081-.085-.084-.08-.08-.084q-.043-.04-.084-.081-.041-.042-.081-.084-.043-.04-.084-.081-.04-.041-.081-.084l-.084-.08-.081-.085-.084-.08-.081-.085-.084-.08-.08-.084-.084-.08-.081-.085-.084-.08-.081-.085-.084-.08-.08-.084-.084-.08-.08-.084q-.042-.04-.085-.08l-.08-.085-.085-.081-.08-.084-.084-.08-.081-.085-.084-.08-.08-.084-.085-.081-.08-.084-.084-.08-.081-.085-.084-.08-.081-.085q-.042-.04-.083-.08-.041-.042-.081-.084l-.084-.08-.081-.084-.084-.081-.08-.084-.084-.08-.081-.085-.084-.08-.08-.084q-.043-.041-.085-.082-.04-.041-.08-.084-.043-.04-.084-.08-.041-.042-.082-.084-.041-.04-.084-.08-.04-.043-.081-.086l-.084-.08-.08-.084-.084-.08-.081-.085-.084-.08-.08-.084-.084-.08-.081-.085-.084-.08-.081-.085-.084-.08-.08-.084-.084-.08-.081-.085-.084-.08-.081-.085-.084-.08-.08-.084-.084-.08-.08-.084-.085-.081-.08-.084-.085-.081-.08-.084-.084-.08-.081-.085-.084-.08-.08-.084q-.043-.04-.085-.08-.04-.043-.08-.085l-.084-.08-.081-.085-.084-.08-.081-.084-.083-.08-.081-.085-.084-.08-.081-.085-.084-.08c-2.678-2.676-4.817-5.847-6.359-9.426C187.783 80.44 187 76.587 187 72.563c0-4.075.783-7.939 2.326-11.484 1.542-3.557 3.682-6.717 6.36-9.392 2.675-2.679 5.847-4.818 9.426-6.359 3.574-1.545 7.426-2.328 11.45-2.328" opacity=".4" style="mix-blend-mode:multiply"/><path fill="#5187df" d="M198.304 87.545q3.743-2.875 8.367-4.537 4.625-1.656 9.689-1.658 5.065.002 9.689 1.658 4.624 1.663 8.368 4.537a22.8 22.8 0 0 0 4.002-6.859q1.43-3.836 1.43-8.186 0-9.81-6.862-16.703-6.864-6.898-16.627-6.897t-16.623 6.897q-6.866 6.893-6.865 16.703 0 4.35 1.43 8.186a22.8 22.8 0 0 0 4.002 6.859M216.36 75.45q-4.329 0-7.302-2.985-2.973-2.991-2.974-7.34.001-4.35 2.974-7.337t7.302-2.988q4.328 0 7.305 2.988 2.972 2.988 2.971 7.337.001 4.349-2.971 7.34-2.977 2.985-7.305 2.985m0 26.55q-6.09 0-11.45-2.325-5.36-2.32-9.322-6.304-3.966-3.982-6.274-9.366Q186.998 78.62 187 72.5q-.002-6.12 2.314-11.505 2.308-5.384 6.274-9.366c2.642-2.655 5.749-4.759 9.322-6.304q5.36-2.327 11.45-2.325 6.091-.001 11.451 2.325 5.358 2.32 9.322 6.304 3.965 3.982 6.274 9.366 2.313 5.385 2.314 11.505-.001 6.12-2.314 11.505-2.309 5.384-6.274 9.366-3.964 3.984-9.322 6.304Q222.451 102 216.36 102"/></svg>