<svg xmlns="http://www.w3.org/2000/svg" width="273" height="144" fill="none" viewBox="0 0 273 144"><rect width="272" height="143" x=".132" y=".35" fill="#ededed" rx="8"/><path fill="#457aa5" d="M64.132 47.35c13.807 0 25 11.193 25 25s-11.193 25-25 25-25-11.193-25-25 11.193-25 25-25m0 4.953c-11.072 0-20.047 8.976-20.047 20.047a19.96 19.96 0 0 0 4.263 12.36l7.521-8.97 5.763 6.61 8.697-9.364 9.992 11.185a19.95 19.95 0 0 0 3.858-11.82c0-11.072-8.976-20.048-20.047-20.048m-6.927 6.49q1.722 0 2.927 1.205 1.205 1.204 1.205 2.925 0 1.722-1.205 2.927t-2.927 1.205q-1.72 0-2.926-1.205-1.205-1.206-1.205-2.927 0-1.72 1.205-2.925t2.926-1.206"/><circle cx="209.132" cy="72.35" r="22.523" stroke="#457aa5" stroke-width="4.953"/><path fill="#457aa5" d="M209.381 80.35h-3.151l-7.314-10.005V80.35h-3.266V65.01h3.358l7.107 9.636V65.01h3.266zm9.649 0h-3.266v-6.279l-5.888-9.062h3.726l3.795 6.141 3.795-6.14h3.703l-5.865 9.061zM120.711 85.1q3.172-2.436 7.092-3.845a24.2 24.2 0 0 1 8.21-1.405q4.293.001 8.211 1.405 3.92 1.409 7.092 3.845a19.4 19.4 0 0 0 3.391-5.812q1.213-3.252 1.212-6.938 0-8.313-5.815-14.155-5.817-5.845-14.091-5.845t-14.088 5.845q-5.818 5.842-5.817 14.155 0 3.686 1.212 6.938a19.4 19.4 0 0 0 3.391 5.812m15.302-10.25q-3.668.001-6.188-2.53-2.52-2.534-2.52-6.22t2.52-6.217 6.188-2.533 6.191 2.533q2.519 2.531 2.518 6.217.001 3.686-2.518 6.22-2.522 2.531-6.191 2.53m0 22.5q-5.161 0-9.703-1.97-4.542-1.966-7.9-5.342-3.361-3.374-5.318-7.938-1.961-4.563-1.96-9.75-.001-5.185 1.96-9.75 1.957-4.562 5.318-7.937 3.358-3.376 7.9-5.343 4.542-1.971 9.703-1.97 5.162-.001 9.704 1.97 4.542 1.967 7.9 5.343 3.361 3.374 5.317 7.937 1.96 4.565 1.961 9.75 0 5.187-1.961 9.75-1.956 4.564-5.317 7.938-3.358 3.376-7.9 5.342-4.542 1.97-9.704 1.97"/></svg>