<svg width="583" height="145" viewBox="0 0 583 145" fill="none" xmlns="http://www.w3.org/2000/svg">
<path d="M583 145C583 64.9792 518.094 0.109528 438.028 0.109528L438 0V145L583 145Z" fill="#286AD8"/>
<path d="M398.879 -7.62939e-05C420.652 -7.62939e-05 438.303 17.8524 438.303 39.875V145L285 145V0L398.879 -7.62939e-05Z" fill="#286AD8"/>
<path d="M0 145L0 -0.000152588L72.3354 -0.000152588C112.467 -0.000152588 145 32.4592 145 72.4999C145 112.541 112.467 145 72.3354 145L0 145Z" fill="#286AD8"/>
<path d="M182.424 145C160.651 145 143 127.148 143 105.125V0H288V145H182.424Z" fill="#286AD8"/>
<path d="M173.242 115.517C177.668 115.532 190.98 115.539 197.127 115.534C197.931 115.605 198.459 116.176 198.844 116.928C199.233 117.612 199.279 118.511 199.603 119.194C200.016 119.915 201.077 120.214 201.735 120.66C202.592 121.176 203.392 121.751 204.328 122.183C204.843 122.42 205.503 122.676 205.817 123.184C205.963 123.421 206.008 123.659 205.994 123.897C205.974 124.227 205.54 124.48 205.31 124.653C204.949 124.927 204.644 125.225 204.441 125.64C204.339 125.845 204.27 126.102 204.391 126.296C204.679 126.757 205.832 126.311 206.223 126.18C206.765 125.998 207.315 125.75 207.88 125.649C210.285 125.218 212.744 124.854 214.903 123.699C215.209 123.536 215.902 123.274 215.987 122.935C216.199 122.093 213.72 122.898 213.421 122.996C212.886 123.185 212.31 123.174 211.752 123.255C210.517 123.469 208.795 123.825 207.575 123.866C206.96 123.93 206.665 123.456 206.808 122.843C206.976 122.076 207.682 121.605 207.632 120.799C207.537 119.163 208.05 117.343 208.021 115.69C207.934 113.626 208.79 111.662 208.852 109.621C208.906 107.867 209.154 106.113 208.943 104.372C208.756 102.827 208.17 100.993 208.292 99.4374C208.321 99.0597 208.381 98.8269 208.484 98.4663C208.912 97.2708 208.507 96.0121 208.512 94.8321C208.516 93.3539 208.776 92.7365 207.839 92.5619C206.902 92.3872 204.275 92.6448 203.262 92.5776C201.844 92.6161 200.398 92.5459 199.107 93.1584C197.503 93.9298 196.251 95.3264 195.196 96.7141C194.623 97.6404 193.458 97.9281 192.869 98.8318C192.273 99.6643 192.761 100.591 192.795 101.505C192.832 104.322 191.863 103.903 190.072 105.36C189.298 105.989 188.259 106.11 187.3 106.132C186.539 106.15 185.484 106.275 184.747 106.081C184.015 105.889 183.359 105.347 182.571 105.347C181.45 105.217 179.744 105.271 178.54 105.512C177.688 105.699 177.002 105.858 176.975 106.827C176.965 107.681 178.038 108.553 177.863 109.43C177.479 110.978 175.536 111.931 174.295 112.698C173.974 112.871 173.457 113.122 173.241 113.43C172.881 113.945 172.961 115.514 173.242 115.517Z" fill="#5187DF" fill-opacity="0.7"/>
<path d="M357.041 105.5H311.275C308.729 105.5 307.032 107.058 307.032 109.395C307.032 111.732 308.729 113.29 311.275 113.29H357.041C359.586 113.29 361.284 111.732 361.284 109.395C361.284 107.058 359.586 105.5 357.041 105.5Z" fill="#5187DF" fill-opacity="0.7"/>
<path d="M281.009 105.5H235.242C232.697 105.5 231 107.058 231 109.395C231 111.732 232.697 113.29 235.242 113.29H281.009C283.555 113.29 285.252 111.732 285.252 109.395C285.252 107.058 283.555 105.5 281.009 105.5Z" fill="#5187DF" fill-opacity="0.7"/>
<g style="mix-blend-mode:multiply" opacity="0.65">
<mask id="mask0_974_722" style="mask-type:alpha" maskUnits="userSpaceOnUse" x="370" y="95" width="166" height="50">
<rect x="370.034" y="95" width="165" height="50" fill="#D9D9D9"/>
</mask>
<g mask="url(#mask0_974_722)">
<path d="M513.708 145.169C513.478 144.919 513.238 144.68 512.988 144.449C512.758 144.199 512.518 143.959 512.268 143.729C512.038 143.479 511.798 143.24 511.548 143.009C511.318 142.759 511.078 142.519 510.828 142.289C510.598 142.039 510.357 141.799 510.108 141.569C509.878 141.319 509.638 141.08 509.388 140.849C509.158 140.599 508.917 140.359 508.668 140.129C508.438 139.879 508.198 139.64 507.948 139.409C507.718 139.159 507.478 138.919 507.228 138.689C506.998 138.439 506.758 138.2 506.508 137.969C506.278 137.719 506.037 137.479 505.788 137.249C505.558 136.999 505.318 136.76 505.068 136.529C504.838 136.279 504.597 136.039 504.348 135.809C504.118 135.559 503.878 135.32 503.628 135.089C503.398 134.839 503.158 134.6 502.908 134.369C502.678 134.119 502.438 133.879 502.188 133.649C501.958 133.399 501.718 133.159 501.468 132.929C501.238 132.679 500.998 132.439 500.748 132.209C500.518 131.959 500.278 131.719 500.028 131.489C499.798 131.239 499.558 130.999 499.308 130.769C499.078 130.519 498.838 130.279 498.588 130.049C498.358 129.799 498.117 129.559 497.868 129.329C497.638 129.079 497.397 128.839 497.148 128.609C496.918 128.359 496.677 128.119 496.428 127.889C496.198 127.639 495.958 127.399 495.708 127.169C495.478 126.919 495.238 126.679 494.988 126.449C494.758 126.199 494.518 125.959 494.268 125.729C494.038 125.479 493.798 125.239 493.548 125.009C493.318 124.759 493.078 124.519 492.828 124.289C492.598 124.039 492.357 123.799 492.108 123.569C491.878 123.319 491.638 123.079 491.388 122.849C491.158 122.599 490.917 122.359 490.668 122.129C490.438 121.879 490.198 121.639 489.948 121.409C489.718 121.159 489.478 120.919 489.228 120.689C488.998 120.439 488.758 120.199 488.508 119.969C488.278 119.719 488.037 119.479 487.788 119.249C487.558 118.999 487.318 118.759 487.068 118.529C486.838 118.279 486.597 118.039 486.348 117.809C486.118 117.559 485.878 117.319 485.628 117.089C485.398 116.839 485.158 116.6 484.908 116.369C484.678 116.119 484.438 115.879 484.188 115.649C483.958 115.399 483.718 115.159 483.468 114.929C483.238 114.679 482.998 114.439 482.748 114.209C482.518 113.959 482.278 113.719 482.028 113.489C481.798 113.239 481.558 112.999 481.308 112.769C481.078 112.519 480.838 112.279 480.588 112.049C480.358 111.799 480.117 111.559 479.868 111.329C479.638 111.079 479.397 110.839 479.148 110.609C478.918 110.359 478.678 110.119 478.428 109.889C478.198 109.639 477.958 109.399 477.708 109.169C477.478 108.919 477.238 108.679 476.988 108.449C476.758 108.199 476.518 107.959 476.268 107.729C476.038 107.479 475.798 107.239 475.548 107.009C475.318 106.759 475.078 106.519 474.828 106.289C474.598 106.039 474.357 105.799 474.108 105.569C473.878 105.319 473.638 105.079 473.388 104.849C473.158 104.599 472.918 104.359 472.668 104.129C472.438 103.879 472.198 103.639 471.948 103.409C471.718 103.159 471.478 102.919 471.228 102.689C470.998 102.439 470.758 102.199 470.508 101.969C470.278 101.719 470.037 101.479 469.788 101.248C469.558 100.999 469.318 100.759 469.068 100.529C468.838 100.279 468.597 100.039 468.348 99.8085C468.118 99.5586 467.878 99.3194 467.628 99.0888C465.314 96.579 462.024 95 458.361 95H393.707C386.708 95.0001 381.034 100.73 381.034 107.798C381.034 111.536 382.63 114.888 385.16 117.228C385.39 117.478 385.63 117.717 385.88 117.948C386.11 118.198 386.35 118.437 386.6 118.668C386.83 118.918 387.07 119.157 387.32 119.388C387.55 119.638 387.79 119.877 388.04 120.108C388.27 120.358 388.51 120.597 388.76 120.828C388.99 121.078 389.23 121.317 389.48 121.548C389.71 121.798 389.95 122.037 390.2 122.268C390.43 122.518 390.67 122.757 390.92 122.988C391.15 123.238 391.39 123.477 391.64 123.708C391.87 123.958 392.11 124.197 392.36 124.428C392.59 124.678 392.83 124.917 393.08 125.148C393.31 125.398 393.55 125.637 393.8 125.868C394.03 126.118 394.27 126.357 394.52 126.588C394.75 126.838 394.99 127.077 395.239 127.308C395.47 127.558 395.71 127.797 395.96 128.028C396.19 128.278 396.43 128.517 396.68 128.748C396.91 128.998 397.15 129.237 397.4 129.468C397.63 129.718 397.87 129.957 398.12 130.188C398.35 130.438 398.59 130.677 398.84 130.908C399.07 131.158 399.31 131.397 399.56 131.628C399.79 131.878 400.03 132.117 400.28 132.348C400.51 132.598 400.75 132.837 400.999 133.068C401.23 133.318 401.47 133.557 401.72 133.788C401.95 134.038 402.19 134.277 402.44 134.508C402.67 134.758 402.91 134.997 403.16 135.228C403.39 135.478 403.63 135.717 403.88 135.948C404.11 136.198 404.35 136.437 404.6 136.668C404.83 136.918 405.07 137.157 405.32 137.388C405.55 137.638 405.79 137.877 406.04 138.108C406.27 138.358 406.51 138.597 406.76 138.828C406.99 139.078 407.23 139.317 407.48 139.548C407.71 139.798 407.95 140.037 408.2 140.268C408.43 140.518 408.67 140.757 408.92 140.988C409.15 141.238 409.39 141.477 409.64 141.708C409.87 141.958 410.11 142.197 410.36 142.428C410.59 142.678 410.83 142.917 411.08 143.148C411.31 143.398 411.55 143.637 411.8 143.868C412.03 144.118 412.27 144.357 412.52 144.588C412.75 144.838 412.99 145.077 413.239 145.308C413.47 145.558 413.71 145.797 413.96 146.028C414.19 146.278 414.43 146.517 414.68 146.748C414.91 146.998 415.15 147.237 415.4 147.468C415.63 147.718 415.87 147.957 416.12 148.188C416.35 148.438 416.59 148.677 416.84 148.908C417.07 149.158 417.31 149.397 417.56 149.628C417.79 149.878 418.03 150.117 418.28 150.348C418.51 150.598 418.75 150.837 418.999 151.068C419.23 151.318 419.47 151.557 419.72 151.788C419.95 152.038 420.19 152.277 420.44 152.508C420.67 152.758 420.91 152.997 421.16 153.228C421.39 153.478 421.63 153.717 421.88 153.948C422.11 154.198 422.35 154.437 422.6 154.668C422.83 154.918 423.07 155.157 423.32 155.388C423.55 155.638 423.79 155.877 424.04 156.108C424.27 156.358 424.51 156.597 424.76 156.828C424.99 157.078 425.23 157.317 425.48 157.548C425.71 157.798 425.95 158.037 426.2 158.268C426.43 158.518 426.67 158.757 426.92 158.988C427.15 159.238 427.39 159.477 427.64 159.708C427.87 159.958 428.11 160.197 428.36 160.428C428.59 160.678 428.83 160.917 429.08 161.148C429.31 161.398 429.55 161.637 429.8 161.868C430.03 162.118 430.27 162.357 430.52 162.588C430.75 162.838 430.99 163.077 431.239 163.308C433.553 165.817 436.844 167.397 440.507 167.397H505.16C512.16 167.397 517.834 161.667 517.834 154.598C517.834 150.861 516.238 147.509 513.708 145.169Z" fill="url(#paint0_linear_974_722)"/>
</g>
</g>
<path d="M458.327 95H393.673C386.674 95 381 100.73 381 107.798C381 114.866 386.674 120.596 393.673 120.596H458.327C465.326 120.596 471 114.866 471 107.798C471 100.73 465.326 95 458.327 95Z" fill="#5187DF"/>
<path d="M452.843 104.908H415.054C412.952 104.908 411.55 106.195 411.55 108.124C411.55 110.054 412.952 111.34 415.054 111.34H452.843C454.944 111.34 456.346 110.054 456.346 108.124C456.346 106.195 454.944 104.908 452.843 104.908Z" fill="#1545BB"/>
<path d="M398.752 107.097L393.843 111.995C393.612 112.225 393.318 112.34 392.961 112.34C392.605 112.34 392.311 112.225 392.08 111.995C391.849 111.764 391.734 111.471 391.734 111.115C391.734 110.76 391.849 110.467 392.08 110.236L397.871 104.46C398.123 104.209 398.417 104.083 398.752 104.083C399.088 104.083 399.382 104.209 399.633 104.46L405.424 110.236C405.655 110.467 405.771 110.76 405.771 111.115C405.771 111.471 405.655 111.764 405.424 111.995C405.194 112.225 404.9 112.34 404.543 112.34C404.186 112.34 403.893 112.225 403.662 111.995L398.752 107.097Z" fill="#1545BB"/>
<defs>
<linearGradient id="paint0_linear_974_722" x1="533.034" y1="150" x2="402.534" y2="103.5" gradientUnits="userSpaceOnUse">
<stop stop-color="#003BA1"/>
<stop offset="1" stop-color="#7AA5E7"/>
</linearGradient>
</defs>
</svg>
