<svg xmlns="http://www.w3.org/2000/svg" width="272" height="144" fill="none" viewBox="0 0 272 144"><g clip-path="url(#a)"><path fill="#eff6fb" d="M.527 8.175a8 8 0 0 1 8-8h256a8 8 0 0 1 8 8v57h-272z"/><path fill="#d0d0ce" d="M.527 112.175h272v24a8 8 0 0 1-8 8h-256a8 8 0 0 1-8-8z"/><path fill="#a7a9ab" d="M21.898 126.915c-.272-.071-.516-.271-.81-.271a5.6 5.6 0 0 0-1.499.061c-.318.069-.573.127-.583.484-.003.316.396.637.33.96-.143.571-.865.922-1.327 1.205-.119.063-.312.157-.392.27-.134.189-.105.768 0 .77 1.647.005 6.6.007 8.887.006.3.025.497.237.64.513.145.252.162.584.282.836.154.265.548.375.793.539.32.191.617.404.965.562.192.087.437.182.553.37l.067.262c-.007.122-.168.215-.255.279a1 1 0 0 0-.323.364l-.018.242c.107.17.536.005.681-.043.202-.068.406-.159.616-.195.895-.159 1.811-.294 2.614-.719.114-.061.372-.157.403-.282.08-.311-.843-.014-.954.022-.2.07-.413.065-.621.096-.46.079-1.1.21-1.555.224-.228.025-.339-.15-.285-.376.063-.283.325-.457.307-.753-.036-.604.156-1.274.145-1.884-.033-.761.285-1.485.308-2.238.02-.646.113-1.292.034-1.934-.07-.569-.287-1.245-.242-1.819.011-.139.033-.226.072-.358.16-.441.009-.905.01-1.34.001-.544.098-.772-.25-.837-.349-.064-1.327.031-1.703.006-.529.015-1.067-.012-1.547.214-.596.284-1.062.799-1.455 1.311-.213.341-.647.448-.866.781-.222.307-.04.648-.028.985.015 1.038-.346.884-1.013 1.421-.288.232-.674.277-1.03.284-.284.007-.676.054-.95-.018m53.444 3.26H47.712c-1.311 0-2.185-.8-2.185-2.001s.874-1.999 2.185-1.999h27.63c1.311 0 2.185.798 2.185 1.999s-.874 2.001-2.184 2.001m40 0H87.712c-1.311 0-2.185-.8-2.185-2.001s.874-1.999 2.185-1.999h27.631c1.31 0 2.184.798 2.184 1.999s-.874 2.001-2.184 2.001m40 0h-27.631c-1.311 0-2.185-.8-2.185-2.001s.874-1.999 2.185-1.999h27.631c1.31 0 2.184.798 2.184 1.999s-.874 2.001-2.184 2.001"/><path fill="#ededed" d="M.264 67.175h272v43h-272z"/><path fill="#d0d0ce" d="M96.393 85.175h-73.26c-1.721 0-2.87-1.2-2.87-3.002 0-1.8 1.149-2.998 2.87-2.998h73.26c1.722 0 2.87 1.197 2.87 2.998s-1.148 3.002-2.87 3.002m-28.429 13h-45.4c-1.38 0-2.3-.8-2.3-2s.92-2 2.3-2h45.4c1.38 0 2.3.8 2.3 2s-.92 2-2.3 2m57 0h-45.4c-1.38 0-2.3-.8-2.3-2s.92-2 2.3-2h45.4c1.38 0 2.3.8 2.3 2s-.92 2-2.3 2m57 0h-45.401c-1.379 0-2.299-.8-2.299-2s.92-2 2.299-2h45.401c1.38 0 2.3.8 2.3 2s-.92 2-2.3 2"/><path fill="#eff6fb" d="M0 8a8 8 0 0 1 8-8h256.264a8 8 0 0 1 8 8v17.363H0z"/></g><path fill="#f7fafd" stroke="#0e324f" d="M206.572 121.972h42.384c4.301 0 7.807 3.574 7.808 8.008s-3.507 8.009-7.808 8.009h-42.384c-4.301 0-7.808-3.575-7.808-8.009s3.507-8.008 7.808-8.008Z"/><path fill="#154973" stroke="#0e324f" stroke-width=".541" d="M220.588 128.33h24.772c.633 0 1.137.196 1.481.515.341.318.545.778.545 1.352s-.204 1.034-.545 1.352c-.344.32-.848.516-1.481.516h-24.772c-.633 0-1.137-.196-1.481-.516-.341-.318-.546-.778-.546-1.352s.205-1.034.546-1.352c.344-.319.848-.515 1.481-.515Z"/><path fill="#154973" stroke="#0e324f" stroke-width=".014" d="M209.901 127.517q.327 0 .573.248l3.796 3.841q.225.227.225.579a.8.8 0 0 1-.225.58.77.77 0 0 1-.572.228.77.77 0 0 1-.574-.228l-3.218-3.255-.005.004-.417.413-2.806 2.838a.77.77 0 0 1-.573.228.77.77 0 0 1-.574-.228.8.8 0 0 1-.224-.58q0-.351.224-.579l3.797-3.841a.78.78 0 0 1 .573-.248Z"/><defs><clipPath id="a"><path fill="#fff" d="M0 0h272v136a8 8 0 0 1-8 8H8a8 8 0 0 1-8-8z"/></clipPath></defs></svg>