<svg xmlns="http://www.w3.org/2000/svg" width="579" height="145" fill="none" viewBox="0 0 579 145"><path fill="#286ad8" d="M579 145C579 64.98 514.094.11 434.028.11L434 0v145z"/><path fill="#286ad8" d="M394.879 0c21.773 0 39.424 17.852 39.424 39.875V145H285V0zM0 145V0h72.335C112.467 0 145 32.46 145 72.5S112.467 145 72.335 145z"/><path fill="#286ad8" d="M182.424 145C160.651 145 143 127.148 143 105.125V0h145v145z"/><path fill="#5187df" fill-opacity=".7" d="M173.242 115.517c4.426.015 17.738.022 23.885.017.804.071 1.332.642 1.717 1.394.389.684.435 1.583.759 2.266.413.721 1.474 1.02 2.132 1.466.857.516 1.657 1.091 2.593 1.523.515.237 1.175.493 1.489 1.001.146.237.191.475.177.713-.02.33-.454.583-.684.756-.361.274-.666.572-.869.987-.102.205-.171.462-.05.656.288.461 1.441.015 1.832-.116.542-.182 1.092-.43 1.657-.531 2.405-.431 4.864-.795 7.023-1.95.306-.163.999-.425 1.084-.764.212-.842-2.267-.037-2.566.061-.535.189-1.111.178-1.669.259-1.235.214-2.957.57-4.177.611-.615.064-.91-.41-.767-1.023.168-.767.874-1.238.824-2.044-.095-1.636.418-3.456.389-5.109-.087-2.064.769-4.028.831-6.069.054-1.754.302-3.508.091-5.249-.187-1.545-.773-3.379-.651-4.935.029-.377.089-.61.192-.97.428-1.196.023-2.455.028-3.635.004-1.478.264-2.095-.673-2.27s-3.564.083-4.577.016c-1.418.038-2.864-.032-4.155.58-1.604.772-2.856 2.168-3.911 3.556-.573.926-1.738 1.214-2.327 2.118-.596.832-.108 1.759-.074 2.673.037 2.817-.932 2.398-2.723 3.855-.774.629-1.813.75-2.772.772-.761.018-1.816.143-2.553-.051-.732-.192-1.388-.734-2.176-.734-1.121-.13-2.827-.076-4.031.165-.852.187-1.538.346-1.565 1.315-.01.854 1.063 1.726.888 2.603-.384 1.548-2.327 2.501-3.568 3.268-.321.173-.838.424-1.054.732-.36.515-.28 2.084.001 2.087M334.873 106h-35.43c-1.971 0-3.285 1.2-3.285 3s1.314 3 3.285 3h35.43c1.971 0 3.285-1.2 3.285-3s-1.314-3-3.285-3M269.874 106h-35.431c-1.971 0-3.285 1.2-3.285 3s1.314 3 3.285 3h35.431c1.97 0 3.284-1.2 3.284-3s-1.314-3-3.284-3"/><path fill="#1545bb" d="M444.36 95c3.664 0 6.954 1.58 9.268 4.089q.374.345.72.72.374.345.72.72.374.345.72.719.374.346.72.721.373.345.72.719.374.346.72.721.374.346.72.72.374.345.72.72.374.345.719.719.376.346.721.721.374.346.72.72.373.345.72.72.374.345.72.719.375.346.72.721.373.346.72.72.374.344.72.719.375.346.72.72.374.346.72.721.374.345.72.72.374.345.72.72.374.346.72.72.373.346.72.72.373.345.72.719.374.346.72.721.375.346.72.72.374.345.72.72.374.345.72.72.375.346.72.72.373.346.72.72.373.345.72.719.374.346.72.721.374.346.72.72.374.345.72.72.374.345.719.719.376.346.721.721.374.346.72.72.373.345.72.72.374.345.72.72.375.346.72.72.373.346.72.72.374.344.72.719.375.346.72.72.374.346.72.721.374.345.72.72.374.345.72.72.374.346.72.72.373.346.72.72.373.345.72.719.374.346.72.721.375.346.72.72.374.345.72.72.374.345.72.72.375.346.72.72.373.346.72.72.373.345.72.719.374.346.72.721.374.346.72.72.374.345.72.72.374.345.719.719.376.346.721.721.374.346.72.72.373.345.72.72.374.345.72.72.287.267.558.551H398.919a11 11 0 0 1-.399-.412q-.375-.346-.721-.72a13 13 0 0 1-.719-.72q-.375-.345-.721-.72a13 13 0 0 1-.719-.72q-.375-.346-.721-.721-.374-.345-.72-.719-.374-.346-.72-.72a13 13 0 0 1-.719-.72q-.375-.346-.721-.721-.373-.345-.72-.719a13 13 0 0 1-.719-.72q-.375-.346-.72-.72-.375-.345-.721-.72-.373-.346-.72-.72a13 13 0 0 1-.719-.72q-.375-.346-.721-.721-.374-.345-.72-.719a13 13 0 0 1-.719-.72q-.375-.346-.72-.72-.375-.346-.721-.72-.373-.346-.72-.72a13 13 0 0 1-.719-.72q-.374-.345-.72-.72-.375-.345-.721-.72a13 13 0 0 1-.719-.72q-.375-.346-.721-.721-.374-.345-.719-.719-.375-.345-.721-.72a13 13 0 0 1-.719-.72q-.375-.346-.721-.721-.374-.345-.72-.719-.374-.346-.72-.72a13 13 0 0 1-.719-.72q-.375-.346-.721-.721-.373-.345-.72-.719a13 13 0 0 1-.719-.72q-.375-.346-.72-.72-.375-.345-.721-.72a12.8 12.8 0 0 1-4.126-9.429c0-7.068 5.675-12.799 12.674-12.799z" opacity=".4" style="mix-blend-mode:multiply"/><path fill="#5187df" d="M444.327 95h-64.654C372.674 95 367 100.73 367 107.798s5.674 12.798 12.673 12.798h64.654c6.999 0 12.673-5.73 12.673-12.798S451.326 95 444.327 95"/><path fill="#1545bb" d="M438.843 104.908h-37.789c-2.101 0-3.503 1.287-3.503 3.216s1.402 3.216 3.503 3.216h37.789c2.102 0 3.503-1.286 3.503-3.216 0-1.929-1.401-3.216-3.503-3.216M384.753 107.097l-4.91 4.898q-.347.345-.881.345-.536 0-.881-.345a1.2 1.2 0 0 1-.347-.88q0-.532.347-.879l5.79-5.776q.378-.377.882-.377.503 0 .881.377l5.791 5.776q.346.347.346.879 0 .534-.346.88-.347.345-.881.345-.536 0-.882-.345z"/></svg>