<svg width="272" height="143" viewBox="0 0 272 143" fill="none" xmlns="http://www.w3.org/2000/svg">
<path d="M0 8C0 3.58172 3.58172 0 8 0H264C268.418 0 272 3.58172 272 8V85H0V8Z" fill="#EFF6FB"/>
<path d="M272 88H0V106.072H272V88Z" fill="#EDEDED"/>
<path d="M117.573 99H17.5515C16.2444 99 15.373 98.2 15.373 97C15.373 95.8 16.2444 95 17.5515 95H117.573C118.88 95 119.752 95.8 119.752 97C119.752 98.2 118.88 99 117.573 99Z" fill="#ABC4D8"/>
<path d="M154.187 99.0969H130.686C129.379 99.0969 128.508 98.2969 128.508 97.0969C128.508 95.8969 129.379 95.0969 130.686 95.0969H154.187C155.494 95.0969 156.365 95.8969 156.365 97.0969C156.365 98.2969 155.494 99.0969 154.187 99.0969Z" fill="#ABC4D8"/>
<path d="M0 107H272V135C272 139.418 268.418 143 264 143H8.00001C3.58173 143 0 139.418 0 135V107Z" fill="#124A73"/>
<path d="M22.6809 124.507C22.3273 124.415 22.01 124.155 21.628 124.155C21.0866 124.093 20.261 124.118 19.6801 124.234C19.2665 124.323 18.935 124.399 18.9223 124.863C18.9176 125.274 19.437 125.691 19.3517 126.11C19.1654 126.852 18.2262 127.309 17.6263 127.676C17.4716 127.758 17.2206 127.88 17.1165 128.027C16.9428 128.273 16.9807 129.026 17.1165 129.028C19.257 129.034 25.6944 129.037 28.6669 129.036C29.0568 129.069 29.3125 129.343 29.4972 129.703C29.6866 130.03 29.7088 130.461 29.865 130.789C30.0655 131.133 30.577 131.277 30.8958 131.49C31.311 131.738 31.6978 132.014 32.1492 132.219C32.3986 132.333 32.7175 132.456 32.8691 132.701L32.9559 133.042C32.9464 133.2 32.7365 133.321 32.6244 133.403C32.4507 133.534 32.3023 133.678 32.2045 133.877L32.1808 134.191C32.3197 134.412 32.877 134.197 33.0664 134.136C33.3284 134.048 33.5936 133.929 33.8667 133.882C35.0301 133.675 36.2204 133.5 37.2638 132.947C37.4122 132.868 37.7469 132.744 37.7879 132.581C37.8905 132.177 36.6924 132.564 36.5471 132.609C36.2883 132.701 36.0104 132.695 35.7405 132.734C35.1422 132.837 34.3103 133.007 33.7199 133.026C33.4231 133.058 33.2795 132.83 33.3489 132.537C33.431 132.169 33.772 131.943 33.7483 131.558C33.701 130.774 33.9504 129.902 33.9362 129.11C33.8936 128.122 34.3071 127.181 34.3371 126.202C34.364 125.362 34.4839 124.522 34.3813 123.687C34.2914 122.949 34.0088 122.069 34.0672 121.324C34.0814 121.143 34.1098 121.031 34.1603 120.858C34.3671 120.285 34.1714 119.682 34.173 119.117C34.1745 118.41 34.3008 118.113 33.8478 118.03C33.3947 117.946 32.124 118.069 31.6346 118.038C30.9479 118.056 30.2486 118.022 29.6251 118.315C28.85 118.685 28.2438 119.354 27.734 120.019C27.4561 120.462 26.8926 120.601 26.6084 121.034C26.3195 121.433 26.5563 121.877 26.5721 122.314C26.5911 123.664 26.1222 123.463 25.2556 124.161C24.8815 124.462 24.3795 124.521 23.9154 124.53C23.5476 124.54 23.0377 124.6 22.6809 124.507Z" fill="#467AA5"/>
<path d="M83.4847 129.012H53.3801C51.952 129.012 51 128.009 51 126.505C51 125 51.952 124 53.3801 124H83.4847C84.9127 124 85.8647 125 85.8647 126.505C85.8647 128.009 84.9127 129.012 83.4847 129.012Z" fill="#467AA5"/>
<path d="M127.485 129.012H97.3801C95.952 129.012 95 128.009 95 126.505C95 125 95.952 124 97.3801 124H127.485C128.913 124 129.865 125 129.865 126.505C129.865 128.009 128.913 129.012 127.485 129.012Z" fill="#467AA5"/>
<path d="M171.485 129.012H141.38C139.952 129.012 139 128.009 139 126.505C139 125 139.952 124 141.38 124H171.485C172.913 124 173.865 125 173.865 126.505C173.865 128.009 172.913 129.012 171.485 129.012Z" fill="#467AA5"/>
<path d="M248.692 118H206.308C201.72 118 198 121.756 198 126.39C198 131.024 201.72 134.78 206.308 134.78H248.692C253.28 134.78 257 131.024 257 126.39C257 121.756 253.28 118 248.692 118Z" fill="white"/>
<path d="M245.097 124.495H220.324C218.946 124.495 218.027 125.338 218.027 126.603C218.027 127.868 218.946 128.712 220.324 128.712H245.097C246.475 128.712 247.393 127.868 247.393 126.603C247.393 125.338 246.475 124.495 245.097 124.495Z" fill="#124A73"/>
<path d="M209.638 125.93L206.419 129.141C206.268 129.292 206.075 129.367 205.841 129.367C205.607 129.367 205.415 129.292 205.264 129.141C205.112 128.99 205.037 128.798 205.037 128.565C205.037 128.331 205.112 128.139 205.264 127.988L209.06 124.201C209.225 124.037 209.417 123.954 209.638 123.954C209.858 123.954 210.05 124.037 210.215 124.201L214.012 127.988C214.163 128.139 214.238 128.331 214.238 128.565C214.238 128.798 214.163 128.99 214.012 129.141C213.86 129.292 213.668 129.367 213.434 129.367C213.2 129.367 213.007 129.292 212.856 129.141L209.638 125.93Z" fill="#124A73"/>
</svg>
