<svg xmlns="http://www.w3.org/2000/svg" width="272" height="143" fill="none" viewBox="0 0 272 143"><rect width="272" height="143" fill="#ededed" rx="8"/><path fill="#154973" d="M37.92 76.266a3.5 3.5 0 0 1 3.5-3.5h69.268a3.5 3.5 0 1 1 0 7H41.42a3.5 3.5 0 0 1-3.5-3.5"/><path fill="#457aa5" d="M157.812 76.266a3.5 3.5 0 0 1 3.5-3.5h69.268a3.5 3.5 0 1 1 0 7h-69.268a3.5 3.5 0 0 1-3.5-3.5"/><path fill="#154973" d="m137.777 76.163-5.71-5.71q-.403-.403-.403-1.025 0-.623.403-1.025.402-.403 1.025-.403t1.025.403l6.735 6.735q.44.439.439 1.025 0 .585-.439 1.025l-6.735 6.735q-.403.402-1.025.402-.623 0-1.025-.402-.403-.403-.403-1.025 0-.623.403-1.025z"/></svg>