<svg xmlns="http://www.w3.org/2000/svg" width="582" height="145" fill="none" viewBox="0 0 582 145"><path fill="#286ad8" d="M290 145.001H184.424c-21.773 0-39.424-17.853-39.424-39.875V.001h145zM145 105.125V0C64.919 0 0 64.919 0 145h105.125C127.148 145 145 127.147 145 105.125"/><path fill="#286ad8" d="M397.879 0c21.773 0 39.424 17.853 39.424 39.876v105.125H288v-145z"/><path fill="#5287df" d="M196 108.267a3.5 3.5 0 0 1 3.5-3.5h69.268a3.5 3.5 0 1 1 0 7H199.5a3.5 3.5 0 0 1-3.5-3.5M315.893 108.267a3.5 3.5 0 0 1 3.5-3.5h69.268a3.5 3.5 0 1 1 0 7h-69.268a3.5 3.5 0 0 1-3.5-3.5M295.857 108.164l-5.71-5.711q-.403-.403-.403-1.024 0-.623.403-1.025.402-.403 1.025-.403t1.025.403l6.735 6.735q.44.439.439 1.025 0 .585-.439 1.025l-6.735 6.735q-.403.402-1.025.402-.623 0-1.025-.402-.403-.403-.403-1.025 0-.623.403-1.025z"/><path fill="#286ad8" d="M437 105.126V.001c80.081 0 145 64.919 145 145H476.875c-22.022 0-39.875-17.853-39.875-39.875"/></svg>