<svg xmlns="http://www.w3.org/2000/svg" width="272" height="143" fill="none" viewBox="0 0 272 143"><rect width="272" height="143" fill="#eff6fb" rx="8"/><path fill="#154973" d="M80.6 35H27.4c-4.64 0-8.4 3.816-8.4 8.523v7.954C19 56.184 22.76 60 27.4 60h53.2c4.64 0 8.4-3.816 8.4-8.523v-7.954C89 38.816 85.24 35 80.6 35"/><path fill="#0e324f" d="M162.48 35h-53.96a8.52 8.52 0 0 0-8.52 8.523v7.954A8.52 8.52 0 0 0 108.52 60h53.96a8.52 8.52 0 0 0 8.52-8.523v-7.954A8.52 8.52 0 0 0 162.48 35"/><path fill="#081b2b" d="M243.6 35h-53.2c-4.639 0-8.4 3.816-8.4 8.523v7.954c0 4.707 3.761 8.523 8.4 8.523h53.2c4.639 0 8.4-3.816 8.4-8.523v-7.954c0-4.707-3.761-8.523-8.4-8.523"/><g fill="#fff"><mask id="a"><path d="M80.6 81H27.4c-4.64 0-8.4 3.816-8.4 8.523v7.954c0 4.707 3.76 8.523 8.4 8.523h53.2c4.64 0 8.4-3.816 8.4-8.523v-7.954C89 84.816 85.24 81 80.6 81"/></mask><path stroke="#154973" stroke-width="2" d="M80.6 81H27.4c-4.64 0-8.4 3.816-8.4 8.523v7.954c0 4.707 3.76 8.523 8.4 8.523h53.2c4.64 0 8.4-3.816 8.4-8.523v-7.954C89 84.816 85.24 81 80.6 81Z" mask="url(#a)"/></g><mask id="b" fill="#fff"><path d="M162.48 81h-53.96a8.52 8.52 0 0 0-8.52 8.523v7.954a8.52 8.52 0 0 0 8.52 8.523h53.96a8.52 8.52 0 0 0 8.52-8.523v-7.954A8.52 8.52 0 0 0 162.48 81"/></mask><path fill="#eff6fb" stroke="#0e324f" stroke-width="2" d="M162.48 81h-53.96a8.52 8.52 0 0 0-8.52 8.523v7.954a8.52 8.52 0 0 0 8.52 8.523h53.96a8.52 8.52 0 0 0 8.52-8.523v-7.954A8.52 8.52 0 0 0 162.48 81Z" mask="url(#b)"/><mask id="c" fill="#fff"><path d="M243.6 81h-53.2c-4.639 0-8.4 3.816-8.4 8.523v7.954c0 4.707 3.761 8.523 8.4 8.523h53.2c4.639 0 8.4-3.816 8.4-8.523v-7.954c0-4.707-3.761-8.523-8.4-8.523"/></mask><path fill="#ededed" stroke="#a7a9ab" stroke-width="2" d="M243.6 81h-53.2c-4.639 0-8.4 3.816-8.4 8.523v7.954c0 4.707 3.761 8.523 8.4 8.523h53.2c4.639 0 8.4-3.816 8.4-8.523v-7.954c0-4.707-3.761-8.523-8.4-8.523Z" mask="url(#c)"/><path fill="#fff" d="M35 47.5a2.5 2.5 0 0 1 2.5-2.5h32a2.5 2.5 0 0 1 0 5h-32a2.5 2.5 0 0 1-2.5-2.5m82 0a2.5 2.5 0 0 1 2.5-2.5h32a2.5 2.5 0 1 1 0 5h-32a2.5 2.5 0 0 1-2.5-2.5m82 0a2.5 2.5 0 0 1 2.5-2.5h32a2.5 2.5 0 1 1 0 5h-32a2.5 2.5 0 0 1-2.5-2.5"/><path fill="#154973" d="M35 93.5a2.5 2.5 0 0 1 2.5-2.5h32a2.5 2.5 0 0 1 0 5h-32a2.5 2.5 0 0 1-2.5-2.5"/><path fill="#0e324f" d="M117 93.5a2.5 2.5 0 0 1 2.5-2.5h32a2.5 2.5 0 1 1 0 5h-32a2.5 2.5 0 0 1-2.5-2.5"/><path fill="#a7a9ab" d="M199 93.5a2.5 2.5 0 0 1 2.5-2.5h32a2.5 2.5 0 1 1 0 5h-32a2.5 2.5 0 0 1-2.5-2.5"/></svg>