<svg xmlns="http://www.w3.org/2000/svg" width="575" height="145" fill="none" viewBox="0 0 575 145"><path fill="#286ad8" d="M215.565 0c40.132 0 72.665 32.46 72.665 72.5S255.697 145 215.565 145H0V39.875C0 17.852 17.433 0 38.937 0zM469.875 145H575C575 64.919 510.081 0 430 0v105.125C430 127.148 447.853 145 469.875 145"/><path fill="#286ad8" d="M358.73 145c40.041 0 72.5-32.459 72.5-72.5S398.771 0 358.73 0s-72.5 32.46-72.5 72.5 32.46 72.5 72.5 72.5"/><path fill="#1545bb" d="M172.096 95a8.13 8.13 0 0 1 5.902 2.541l46.87 46.87a73 73 0 0 1-9.303.589H65.362l-27.819-27.819a8.28 8.28 0 0 1-2.543-5.98v-7.72c0-4.567 3.67-8.27 8.195-8.27h51.9c2.176 0 4.15.859 5.616 2.255L112 108.755v-5.484c0-4.568 3.67-8.271 8.195-8.271z" opacity=".4" style="mix-blend-mode:multiply"/><path fill="#5187df" d="M95.096 95.21H43.195c-4.526 0-8.195 3.704-8.195 8.272v7.719c0 4.568 3.669 8.271 8.195 8.271h51.9c4.527 0 8.196-3.703 8.196-8.271v-7.719c0-4.568-3.67-8.271-8.195-8.271m-44.487 12.131a2.433 2.433 0 0 1 2.44-2.426h31.218a2.433 2.433 0 0 1 2.439 2.426 2.433 2.433 0 0 1-2.44 2.427H53.049a2.433 2.433 0 0 1-2.439-2.427M172.096 96c3.967 0 7.195 3.262 7.195 7.271v7.719c0 4.01-3.228 7.271-7.195 7.271h-51.901c-3.967 0-7.195-3.261-7.195-7.271v-7.719c0-4.01 3.228-7.271 7.195-7.271zm0-1h-51.901c-4.526 0-8.195 3.703-8.195 8.271v7.719c0 4.568 3.669 8.271 8.195 8.271h51.901c4.526 0 8.195-3.703 8.195-8.271v-7.719c0-4.568-3.669-8.271-8.195-8.271"/><path fill="#5187df" d="M128.303 107.342a2.43 2.43 0 0 1 2.439-2.426h31.218a2.43 2.43 0 0 1 2.439 2.426 2.43 2.43 0 0 1-2.439 2.426h-31.218a2.43 2.43 0 0 1-2.439-2.426"/></svg>