<svg width="578" height="145" viewBox="0 0 578 145" fill="none" xmlns="http://www.w3.org/2000/svg">
<path d="M72.3359 0C108.354 4.06142e-05 138.25 26.1457 144.001 60.4521V0H289.001C365.009 0.000250469 427.355 58.4839 433.5 132.906C439.645 58.4837 501.992 0 578.001 0V105.125C578.001 127.147 560.148 145 538.126 145H144.001V84.5469C138.25 118.854 108.354 145 72.3359 145H0L0.000976562 0H72.3359Z" fill="#286AD8"/>
<g style="mix-blend-mode:multiply" opacity="0.4">
<path d="M223.197 46C225.053 46.0002 226.738 46.7356 227.985 47.9258L240.979 60.9199C241.038 60.9759 241.098 61.0308 241.155 61.0889C241.421 61.1589 241.75 61.0889 242.097 61.0889H266.857C267.789 61.089 268.669 61.3319 269.248 61.9795C269.336 62.0584 269.419 62.1413 269.498 62.2295C269.586 62.3084 269.669 62.3913 269.748 62.4795C269.836 62.5584 269.919 62.6413 269.998 62.7295C270.086 62.8084 270.169 62.8913 270.248 62.9795C270.336 63.0584 270.419 63.1413 270.498 63.2295C270.586 63.3084 270.669 63.3913 270.748 63.4795C270.836 63.5584 270.919 63.6413 270.998 63.7295C271.086 63.8084 271.169 63.8913 271.248 63.9795C271.336 64.0584 271.419 64.1413 271.498 64.2295C271.586 64.3084 271.669 64.3913 271.748 64.4795C271.836 64.5584 271.919 64.6413 271.998 64.7295C272.086 64.8084 272.169 64.8913 272.248 64.9795C272.336 65.0584 272.419 65.1413 272.498 65.2295C272.586 65.3084 272.669 65.3913 272.748 65.4795C272.836 65.5584 272.919 65.6413 272.998 65.7295C273.086 65.8084 273.169 65.8913 273.248 65.9795C273.336 66.0584 273.419 66.1413 273.498 66.2295C273.586 66.3084 273.669 66.3913 273.748 66.4795C273.836 66.5584 273.919 66.6413 273.998 66.7295C274.086 66.8084 274.169 66.8913 274.248 66.9795C274.336 67.0584 274.419 67.1413 274.498 67.2295C274.586 67.3084 274.669 67.3913 274.748 67.4795C274.836 67.5584 274.919 67.6413 274.998 67.7295C275.086 67.8084 275.169 67.8913 275.248 67.9795C275.336 68.0584 275.419 68.1413 275.498 68.2295C275.586 68.3084 275.669 68.3913 275.748 68.4795C275.836 68.5584 275.919 68.6413 275.998 68.7295C276.086 68.8084 276.169 68.8913 276.248 68.9795C276.336 69.0584 276.419 69.1413 276.498 69.2295C276.586 69.3084 276.669 69.3913 276.748 69.4795C276.836 69.5584 276.919 69.6413 276.998 69.7295C277.086 69.8084 277.169 69.8913 277.248 69.9795C277.336 70.0584 277.419 70.1413 277.498 70.2295C277.586 70.3084 277.669 70.3913 277.748 70.4795C277.836 70.5584 277.919 70.6413 277.998 70.7295C278.086 70.8084 278.169 70.8913 278.248 70.9795C278.336 71.0584 278.419 71.1413 278.498 71.2295C278.586 71.3084 278.669 71.3913 278.748 71.4795C278.836 71.5584 278.919 71.6413 278.998 71.7295C279.086 71.8084 279.169 71.8913 279.248 71.9795C279.336 72.0584 279.419 72.1413 279.498 72.2295C279.586 72.3084 279.669 72.3913 279.748 72.4795C279.836 72.5584 279.919 72.6413 279.998 72.7295C280.086 72.8084 280.169 72.8913 280.248 72.9795C280.336 73.0584 280.419 73.1413 280.498 73.2295C280.586 73.3084 280.669 73.3913 280.748 73.4795C280.836 73.5584 280.919 73.6413 280.998 73.7295C281.086 73.8084 281.169 73.8913 281.248 73.9795C281.336 74.0584 281.419 74.1413 281.498 74.2295C281.586 74.3084 281.669 74.3913 281.748 74.4795C281.836 74.5584 281.919 74.6413 281.998 74.7295C282.086 74.8084 282.169 74.8913 282.248 74.9795C282.336 75.0584 282.419 75.1413 282.498 75.2295C282.586 75.3084 282.669 75.3913 282.748 75.4795C282.836 75.5584 282.919 75.6413 282.998 75.7295C283.086 75.8084 283.169 75.8913 283.248 75.9795C283.336 76.0584 283.419 76.1413 283.498 76.2295C283.586 76.3084 283.669 76.3913 283.748 76.4795C283.836 76.5584 283.919 76.6413 283.998 76.7295C284.086 76.8084 284.169 76.8913 284.248 76.9795C284.336 77.0584 284.419 77.1413 284.498 77.2295C284.586 77.3084 284.669 77.3913 284.748 77.4795C284.836 77.5584 284.919 77.6413 284.998 77.7295C285.086 77.8084 285.169 77.8913 285.248 77.9795C285.336 78.0584 285.419 78.1413 285.498 78.2295C285.586 78.3084 285.669 78.3913 285.748 78.4795C285.836 78.5584 285.919 78.6413 285.998 78.7295C286.086 78.8084 286.169 78.8913 286.248 78.9795C286.336 79.0584 286.419 79.1413 286.498 79.2295C286.586 79.3084 286.669 79.3913 286.748 79.4795C286.836 79.5584 286.919 79.6413 286.998 79.7295C287.086 79.8084 287.169 79.8913 287.248 79.9795C287.336 80.0584 287.419 80.1413 287.498 80.2295C287.586 80.3084 287.669 80.3913 287.748 80.4795C287.836 80.5584 287.919 80.6413 287.998 80.7295C288.086 80.8084 288.169 80.8913 288.248 80.9795C288.336 81.0584 288.419 81.1413 288.498 81.2295C288.586 81.3084 288.669 81.3913 288.748 81.4795C288.836 81.5584 288.919 81.6413 288.998 81.7295C289.086 81.8084 289.169 81.8913 289.248 81.9795C289.336 82.0584 289.419 82.1413 289.498 82.2295C289.586 82.3084 289.669 82.3913 289.748 82.4795C289.836 82.5584 289.919 82.6413 289.998 82.7295C290.086 82.8084 290.169 82.8913 290.248 82.9795C290.336 83.0584 290.419 83.1413 290.498 83.2295C290.586 83.3084 290.669 83.3913 290.748 83.4795C290.836 83.5584 290.919 83.6413 290.998 83.7295C291.086 83.8084 291.169 83.8913 291.248 83.9795C291.336 84.0584 291.419 84.1413 291.498 84.2295C291.586 84.3084 291.669 84.3913 291.748 84.4795C291.836 84.5584 291.919 84.6413 291.998 84.7295C292.086 84.8084 292.169 84.8913 292.248 84.9795C292.336 85.0584 292.419 85.1413 292.498 85.2295C292.586 85.3084 292.669 85.3913 292.748 85.4795C292.836 85.5584 292.919 85.6413 292.998 85.7295C293.086 85.8084 293.169 85.8913 293.248 85.9795C293.336 86.0584 293.419 86.1413 293.498 86.2295C293.586 86.3084 293.669 86.3913 293.748 86.4795C293.836 86.5584 293.919 86.6413 293.998 86.7295C294.086 86.8084 294.169 86.8913 294.248 86.9795C294.336 87.0584 294.419 87.1413 294.498 87.2295C294.586 87.3084 294.669 87.3913 294.748 87.4795C294.836 87.5584 294.919 87.6413 294.998 87.7295C295.086 87.8084 295.169 87.8913 295.248 87.9795C295.336 88.0584 295.419 88.1413 295.498 88.2295C295.586 88.3084 295.669 88.3913 295.748 88.4795C295.836 88.5584 295.919 88.6413 295.998 88.7295C296.086 88.8084 296.169 88.8913 296.248 88.9795C296.336 89.0584 296.419 89.1413 296.498 89.2295C296.586 89.3084 296.669 89.3913 296.748 89.4795C296.836 89.5584 296.919 89.6413 296.998 89.7295C297.086 89.8084 297.169 89.8913 297.248 89.9795C297.336 90.0584 297.419 90.1413 297.498 90.2295C297.586 90.3084 297.669 90.3913 297.748 90.4795C297.836 90.5584 297.919 90.6413 297.998 90.7295C298.086 90.8084 298.169 90.8913 298.248 90.9795C298.336 91.0584 298.419 91.1413 298.498 91.2295C298.586 91.3084 298.669 91.3913 298.748 91.4795C298.836 91.5584 298.919 91.6413 298.998 91.7295C299.086 91.8084 299.169 91.8913 299.248 91.9795C299.336 92.0584 299.419 92.1413 299.498 92.2295C299.586 92.3084 299.669 92.3913 299.748 92.4795C299.836 92.5584 299.919 92.6413 299.998 92.7295C300.086 92.8084 300.169 92.8913 300.248 92.9795C300.336 93.0584 300.419 93.1413 300.498 93.2295C300.586 93.3084 300.669 93.3913 300.748 93.4795C300.836 93.5584 300.919 93.6413 300.998 93.7295C301.086 93.8084 301.169 93.8913 301.248 93.9795C301.336 94.0584 301.419 94.1413 301.498 94.2295C301.586 94.3084 301.669 94.3913 301.748 94.4795C301.836 94.5584 301.919 94.6413 301.998 94.7295C302.086 94.8084 302.169 94.8913 302.248 94.9795C302.336 95.0584 302.419 95.1413 302.498 95.2295C302.586 95.3084 302.669 95.3913 302.748 95.4795C302.836 95.5584 302.919 95.6413 302.998 95.7295C303.086 95.8084 303.169 95.8913 303.248 95.9795C303.336 96.0584 303.419 96.1413 303.498 96.2295C303.586 96.3084 303.669 96.3913 303.748 96.4795C303.836 96.5584 303.919 96.6413 303.998 96.7295C304.086 96.8084 304.169 96.8913 304.248 96.9795C304.336 97.0584 304.419 97.1413 304.498 97.2295C304.586 97.3084 304.669 97.3913 304.748 97.4795C304.836 97.5584 304.919 97.6413 304.998 97.7295C305.086 97.8084 305.169 97.8913 305.248 97.9795C305.336 98.0584 305.419 98.1413 305.498 98.2295C305.586 98.3084 305.669 98.3913 305.748 98.4795C305.836 98.5584 305.919 98.6413 305.998 98.7295C306.086 98.8084 306.169 98.8913 306.248 98.9795C306.336 99.0584 306.419 99.1413 306.498 99.2295C306.586 99.3084 306.669 99.3913 306.748 99.4795C306.836 99.5584 306.919 99.6413 306.998 99.7295C307.086 99.8084 307.169 99.8913 307.248 99.9795C307.336 100.058 307.419 100.141 307.498 100.229C307.586 100.308 307.669 100.391 307.748 100.479C307.836 100.558 307.919 100.641 307.998 100.729C308.086 100.808 308.169 100.891 308.248 100.979C308.336 101.058 308.419 101.141 308.498 101.229C308.586 101.308 308.669 101.391 308.748 101.479C308.836 101.558 308.919 101.641 308.998 101.729C309.086 101.808 309.169 101.891 309.248 101.979C309.336 102.058 309.419 102.141 309.498 102.229C309.586 102.308 309.669 102.391 309.748 102.479C309.836 102.558 309.919 102.641 309.998 102.729C310.086 102.808 310.169 102.891 310.248 102.979C310.336 103.058 310.419 103.141 310.498 103.229C310.586 103.308 310.669 103.391 310.748 103.479C310.836 103.558 310.919 103.641 310.998 103.729C311.086 103.808 311.169 103.891 311.248 103.979C311.336 104.058 311.419 104.141 311.498 104.229C311.586 104.308 311.669 104.391 311.748 104.479C311.836 104.558 311.919 104.641 311.998 104.729C312.086 104.808 312.169 104.891 312.248 104.979C312.336 105.058 312.419 105.141 312.498 105.229C312.586 105.308 312.669 105.391 312.748 105.479C312.836 105.558 312.919 105.641 312.998 105.729C313.086 105.808 313.169 105.891 313.248 105.979C313.336 106.058 313.419 106.141 313.498 106.229C313.586 106.308 313.669 106.391 313.748 106.479C313.836 106.558 313.919 106.641 313.998 106.729C314.086 106.808 314.169 106.891 314.248 106.979C314.336 107.058 314.419 107.141 314.498 107.229C314.586 107.308 314.669 107.391 314.748 107.479C314.836 107.558 314.919 107.641 314.998 107.729C315.086 107.808 315.169 107.891 315.248 107.979C315.336 108.058 315.419 108.141 315.498 108.229C315.586 108.308 315.669 108.391 315.748 108.479C315.836 108.558 315.919 108.641 315.998 108.729C316.086 108.808 316.169 108.891 316.248 108.979C316.336 109.058 316.419 109.141 316.498 109.229C316.586 109.308 316.669 109.391 316.748 109.479C316.836 109.558 316.919 109.641 316.998 109.729C317.086 109.808 317.169 109.891 317.248 109.979C317.336 110.058 317.419 110.141 317.498 110.229C317.586 110.308 317.669 110.391 317.748 110.479C317.836 110.558 317.919 110.641 317.998 110.729C318.086 110.808 318.169 110.891 318.248 110.979C318.336 111.058 318.419 111.141 318.498 111.229C318.586 111.308 318.669 111.391 318.748 111.479C318.836 111.558 318.919 111.641 318.998 111.729C319.086 111.808 319.169 111.891 319.248 111.979C319.336 112.058 319.419 112.141 319.498 112.229C319.586 112.308 319.669 112.391 319.748 112.479C319.836 112.558 319.919 112.641 319.998 112.729C320.086 112.808 320.169 112.891 320.248 112.979C320.336 113.058 320.419 113.141 320.498 113.229C320.586 113.308 320.669 113.391 320.748 113.479C320.836 113.558 320.919 113.641 320.998 113.729C321.086 113.808 321.169 113.891 321.248 113.979C321.336 114.058 321.419 114.141 321.498 114.229C321.586 114.308 321.669 114.391 321.748 114.479C321.836 114.558 321.919 114.641 321.998 114.729C322.086 114.808 322.169 114.891 322.248 114.979C322.336 115.058 322.419 115.141 322.498 115.229C322.586 115.308 322.669 115.391 322.748 115.479C322.836 115.558 322.919 115.641 322.998 115.729C323.086 115.808 323.169 115.891 323.248 115.979C323.336 116.058 323.419 116.141 323.498 116.229C323.586 116.308 323.669 116.391 323.748 116.479C323.836 116.558 323.919 116.641 323.998 116.729C324.086 116.808 324.169 116.891 324.248 116.979C324.336 117.058 324.419 117.141 324.498 117.229C324.586 117.308 324.669 117.391 324.748 117.479C324.836 117.558 324.919 117.641 324.998 117.729C325.086 117.808 325.169 117.891 325.248 117.979C325.336 118.058 325.419 118.141 325.498 118.229C325.586 118.308 325.669 118.391 325.748 118.479C325.836 118.558 325.919 118.641 325.998 118.729C326.086 118.808 326.169 118.891 326.248 118.979C326.336 119.058 326.419 119.141 326.498 119.229C326.586 119.308 326.669 119.391 326.748 119.479C326.836 119.558 326.919 119.641 326.998 119.729C327.086 119.808 327.169 119.891 327.248 119.979C327.336 120.058 327.419 120.141 327.498 120.229C327.586 120.308 327.669 120.391 327.748 120.479C327.836 120.558 327.919 120.641 327.998 120.729C328.086 120.808 328.169 120.891 328.248 120.979C328.336 121.058 328.419 121.141 328.498 121.229C328.586 121.308 328.669 121.391 328.748 121.479C328.836 121.558 328.919 121.641 328.998 121.729C329.086 121.808 329.169 121.891 329.248 121.979C329.336 122.058 329.419 122.141 329.498 122.229C329.586 122.308 329.669 122.391 329.748 122.479C329.836 122.558 329.919 122.641 329.998 122.729C330.086 122.808 330.169 122.891 330.248 122.979C330.336 123.058 330.419 123.141 330.498 123.229C330.586 123.308 330.669 123.391 330.748 123.479C330.836 123.558 330.919 123.641 330.998 123.729C331.086 123.808 331.169 123.891 331.248 123.979C331.336 124.058 331.419 124.141 331.498 124.229C331.586 124.308 331.669 124.391 331.748 124.479C331.836 124.558 331.919 124.641 331.998 124.729C332.086 124.808 332.169 124.891 332.248 124.979C332.336 125.058 332.419 125.141 332.498 125.229C332.586 125.308 332.669 125.391 332.748 125.479C332.836 125.558 332.919 125.641 332.998 125.729C333.086 125.808 333.169 125.891 333.248 125.979C333.336 126.058 333.419 126.141 333.498 126.229C333.586 126.308 333.669 126.391 333.748 126.479C333.836 126.558 333.919 126.641 333.998 126.729C334.086 126.808 334.169 126.891 334.248 126.979C334.336 127.058 334.419 127.141 334.498 127.229C334.586 127.308 334.669 127.391 334.748 127.479C334.836 127.558 334.919 127.641 334.998 127.729C335.086 127.808 335.169 127.891 335.248 127.979C335.336 128.058 335.419 128.141 335.498 128.229C335.586 128.308 335.669 128.391 335.748 128.479C335.836 128.558 335.919 128.641 335.998 128.729C336.086 128.808 336.169 128.891 336.248 128.979C336.336 129.058 336.419 129.141 336.498 129.229C336.586 129.308 336.669 129.391 336.748 129.479C336.836 129.558 336.919 129.641 336.998 129.729C337.086 129.808 337.169 129.891 337.248 129.979C337.336 130.058 337.419 130.141 337.498 130.229C337.586 130.308 337.669 130.391 337.748 130.479C337.836 130.558 337.919 130.641 337.998 130.729C338.086 130.808 338.169 130.891 338.248 130.979C338.336 131.058 338.419 131.141 338.498 131.229C338.586 131.308 338.669 131.391 338.748 131.479C338.836 131.558 338.919 131.641 338.998 131.729C339.086 131.808 339.169 131.891 339.248 131.979C339.336 132.058 339.419 132.141 339.498 132.229C339.586 132.308 339.669 132.391 339.748 132.479C339.836 132.558 339.919 132.641 339.998 132.729C340.086 132.808 340.169 132.891 340.248 132.979C340.336 133.058 340.419 133.141 340.498 133.229C340.586 133.308 340.669 133.391 340.748 133.479C340.836 133.558 340.919 133.641 340.998 133.729C341.086 133.808 341.169 133.891 341.248 133.979C341.336 134.058 341.419 134.141 341.498 134.229C341.586 134.308 341.669 134.391 341.748 134.479C341.836 134.558 341.919 134.641 341.998 134.729C342.086 134.808 342.169 134.891 342.248 134.979C342.336 135.058 342.419 135.141 342.498 135.229C342.586 135.308 342.669 135.391 342.748 135.479C342.836 135.558 342.919 135.641 342.998 135.729C343.086 135.808 343.169 135.891 343.248 135.979C343.336 136.058 343.419 136.141 343.498 136.229C343.586 136.308 343.669 136.391 343.748 136.479C343.836 136.558 343.919 136.641 343.998 136.729C344.086 136.808 344.169 136.891 344.248 136.979C344.336 137.058 344.419 137.141 344.498 137.229C344.586 137.308 344.669 137.391 344.748 137.479C344.836 137.558 344.919 137.641 344.998 137.729C345.086 137.808 345.169 137.891 345.248 137.979C345.336 138.058 345.419 138.141 345.498 138.229C345.586 138.308 345.669 138.391 345.748 138.479C345.836 138.558 345.919 138.641 345.998 138.729C346.086 138.808 346.169 138.891 346.248 138.979C346.336 139.058 346.419 139.141 346.498 139.229C346.586 139.308 346.669 139.391 346.748 139.479C346.836 139.558 346.919 139.641 346.998 139.729C347.086 139.808 347.169 139.891 347.248 139.979C347.336 140.058 347.419 140.141 347.498 140.229C347.586 140.308 347.669 140.391 347.748 140.479C347.836 140.558 347.919 140.641 347.998 140.729C348.086 140.808 348.169 140.891 348.248 140.979C348.336 141.058 348.419 141.141 348.498 141.229C348.586 141.308 348.669 141.391 348.748 141.479C348.836 141.558 348.919 141.641 348.998 141.729C349.086 141.808 349.169 141.891 349.248 141.979C349.336 142.058 349.419 142.141 349.498 142.229C349.586 142.308 349.669 142.391 349.748 142.479C349.836 142.558 349.919 142.641 349.998 142.729C350.086 142.808 350.169 142.891 350.248 142.979C350.336 143.058 350.419 143.141 350.498 143.229C350.586 143.308 350.669 143.391 350.748 143.479C350.836 143.558 350.919 143.641 350.998 143.729C351.086 143.808 351.169 143.891 351.248 143.979C351.336 144.058 351.419 144.141 351.498 144.229C351.586 144.308 351.669 144.391 351.748 144.479C351.836 144.558 351.919 144.641 351.998 144.729C352.086 144.808 352.169 144.891 352.248 144.979C352.255 144.986 352.262 144.993 352.27 145H216.392L195.927 124.535C194.737 123.288 194.002 121.602 194.002 119.746V97.5029C194.002 93.6699 197.12 90.5508 200.953 90.5508H206.488C206.465 90.5271 206.444 90.5016 206.421 90.4775L195.927 79.9834C194.737 78.736 194.002 77.0514 194.002 75.1953V52.9521C194.002 49.1191 197.12 46 200.953 46H223.197Z" fill="#1545BB"/>
</g>
<path d="M267.046 61H241.954C240.329 61 239 62.35 239 64C239 65.65 240.329 67 241.954 67H267.046C268.671 67 270 65.65 270 64C270 62.35 268.671 61 267.046 61Z" fill="#5187DF"/>
<path d="M290.013 105H241.987C240.344 105 239 106.35 239 108C239 109.65 240.344 111 241.987 111H290.013C291.656 111 293 109.65 293 108C293 106.35 291.656 105 290.013 105Z" fill="#5187DF"/>
<path d="M223.195 126.698H200.951C197.118 126.698 194 123.58 194 119.746V97.5029C194 93.6698 197.118 90.5513 200.951 90.5513H223.195C227.028 90.5513 230.147 93.6698 230.147 97.5029V119.746C230.147 123.58 227.028 126.698 223.195 126.698ZM200.951 94.7224C199.418 94.7224 198.17 95.9696 198.17 97.5029V119.746C198.17 121.28 199.418 122.527 200.951 122.527H223.195C224.728 122.527 225.976 121.28 225.976 119.746V97.5029C225.976 95.9695 224.728 94.7224 223.195 94.7224H200.951Z" fill="#5187DF"/>
<path d="M223.195 46C227.028 46.0002 230.147 49.1192 230.147 52.9521V75.1953C230.147 79.0283 227.028 82.1463 223.195 82.1465H200.951C197.118 82.1465 194 79.0284 194 75.1953V52.9521C194 49.119 197.118 46 200.951 46H223.195ZM220.331 57.9668C219.823 57.9668 219.402 58.1319 219.073 58.4629L210.18 67.4014L206.316 63.5186C205.988 63.1877 205.567 63.0225 205.059 63.0225C204.55 63.0225 204.13 63.1875 203.801 63.5186C203.634 63.6863 203.509 63.8775 203.427 64.0918C203.274 64.3564 203.196 64.6624 203.196 65.0107C203.196 65.5222 203.362 65.9435 203.69 66.2744L208.812 71.4209C209.171 71.7818 209.589 71.9628 210.068 71.9629C210.548 71.9629 210.967 71.782 211.326 71.4209L221.478 61.2188C221.645 61.0507 221.769 60.8592 221.852 60.6445C222.004 60.38 222.083 60.0746 222.083 59.7266C222.083 59.2152 221.918 58.7938 221.589 58.4629C221.26 58.1319 220.84 57.9669 220.331 57.9668Z" fill="#5187DF"/>
</svg>
