<svg xmlns="http://www.w3.org/2000/svg" width="578" height="145" fill="none" viewBox="0 0 578 145"><path fill="#286ad8" d="M72.336 0C108.354 0 138.25 26.146 144 60.452V0h145C365.009 0 427.355 58.484 433.5 132.906 439.645 58.484 501.992 0 578.001 0v105.125c0 22.022-17.853 39.875-39.875 39.875H144.001V84.547C138.25 118.854 108.354 145 72.336 145H0L.001 0z"/><path fill="#1545bb" d="M223.197 46c1.856 0 3.541.736 4.788 1.926l12.994 12.994q.09.082.176.169c.266.07.595 0 .942 0h24.76c.932 0 1.812.243 2.391.89q.132.119.25.25.132.119.25.25.132.119.25.25.132.119.25.25.132.119.25.25.132.119.25.25.132.119.25.25.132.119.25.25.132.119.25.25.132.119.25.25.132.119.25.25.132.119.25.25.132.119.25.25.132.119.25.25.132.119.25.25.132.119.25.25.132.119.25.25.132.119.25.25.132.119.25.25.132.119.25.25.132.119.25.25.132.119.25.25.132.119.25.25.132.119.25.25.132.119.25.25.132.119.25.25.132.119.25.25.132.119.25.25.132.119.25.25.132.119.25.25.132.119.25.25.132.119.25.25.132.119.25.25.132.119.25.25.132.119.25.25.132.119.25.25.132.119.25.25.132.119.25.25.132.119.25.25.132.119.25.25.132.119.25.25.132.119.25.25.132.119.25.25.132.119.25.25.132.119.25.25.132.119.25.25.132.119.25.25.132.119.25.25.132.119.25.25.132.119.25.25.132.119.25.25.132.119.25.25.132.119.25.25.132.119.25.25.132.119.25.25.132.119.25.25.132.119.25.25.132.119.25.25.132.119.25.25.132.119.25.25.132.119.25.25.132.119.25.25.132.119.25.25.132.119.25.25.132.119.25.25.132.119.25.25.132.119.25.25.132.119.25.25.132.119.25.25.132.119.25.25.132.119.25.25.132.119.25.25.132.119.25.25.132.119.25.25.132.119.25.25.132.119.25.25.132.119.25.25.132.119.25.25.132.119.25.25.132.119.25.25.132.119.25.25.132.119.25.25.132.119.25.25.132.119.25.25.132.119.25.25.132.119.25.25.132.119.25.25.132.119.25.25.132.119.25.25.132.119.25.25.132.119.25.25.132.119.25.25.132.119.25.25.132.119.25.25.132.119.25.25.132.119.25.25.132.119.25.25.132.119.25.25.132.119.25.25.132.119.25.25.132.119.25.25.132.119.25.25.132.119.25.25.132.119.25.25.132.119.25.25.132.119.25.25.132.119.25.25.132.119.25.25.132.119.25.25.132.119.25.25.132.119.25.25.132.119.25.25.132.119.25.25.132.119.25.25.132.119.25.25.132.119.25.25.132.119.25.25.132.119.25.25.132.119.25.25.132.119.25.25.132.119.25.25.132.119.25.25.132.119.25.25.132.119.25.25.132.119.25.25.132.119.25.25.132.119.25.25.132.119.25.25.132.119.25.25.132.119.25.25.132.119.25.25.132.119.25.25.132.119.25.25.132.119.25.25.132.119.25.25.132.119.25.25.132.119.25.25.132.119.25.25.132.119.25.25.132.119.25.25.132.119.25.25.132.119.25.25.132.119.25.25.132.119.25.25.132.119.25.25.132.119.25.25.132.119.25.25.132.119.25.25.132.119.25.25.132.119.25.25.132.119.25.25.132.119.25.25.132.118.25.25.132.118.25.25.132.118.25.25.132.118.25.25.132.118.25.25.132.118.25.25.132.118.25.25.132.118.25.25.132.118.25.25.132.118.25.25.132.118.25.25.132.118.25.25.132.118.25.25.132.118.25.25.132.118.25.25.132.118.25.25.132.118.25.25.132.118.25.25.132.118.25.25.132.118.25.25.132.118.25.25.132.118.25.25.132.118.25.25.132.118.25.25.132.118.25.25.132.118.25.25.132.118.25.25.132.118.25.25.132.118.25.25.132.118.25.25.132.118.25.25.132.118.25.25.132.118.25.25.132.118.25.25.132.118.25.25.132.118.25.25.132.118.25.25.132.118.25.25.132.118.25.25.132.118.25.25.132.118.25.25.132.118.25.25.132.118.25.25.132.118.25.25.132.118.25.25.132.118.25.25.132.118.25.25.132.118.25.25.132.118.25.25.132.118.25.25.132.118.25.25.132.118.25.25.132.118.25.25.132.118.25.25.132.118.25.25.132.118.25.25.132.118.25.25.132.118.25.25.132.118.25.25.132.118.25.25.132.118.25.25.132.118.25.25.132.118.25.25.132.118.25.25.132.118.25.25.132.118.25.25.132.118.25.25.132.118.25.25.132.118.25.25.132.118.25.25.132.118.25.25.132.118.25.25.132.118.25.25.132.118.25.25.132.118.25.25.132.118.25.25.132.118.25.25.132.118.25.25.132.118.25.25.132.118.25.25.132.118.25.25.132.118.25.25.132.118.25.25.132.118.25.25.132.118.25.25.132.118.25.25.132.118.25.25.132.118.25.25.132.118.25.25.132.118.25.25.132.118.25.25.132.118.25.25.132.118.25.25.132.118.25.25.132.118.25.25.132.118.25.25.132.118.25.25.132.118.25.25.132.118.25.25.132.118.25.25.132.118.25.25.132.118.25.25.132.118.25.25.132.118.25.25.132.118.25.25.132.118.25.25.132.118.25.25.132.118.25.25.132.118.25.25.132.118.25.25.132.118.25.25.132.118.25.25.132.118.25.25.132.118.25.25.132.118.25.25.132.118.25.25.132.118.25.25.132.118.25.25.132.118.25.25.132.118.25.25.132.118.25.25.132.118.25.25.132.118.25.25.132.118.25.25.132.118.25.25.132.118.25.25.132.118.25.25.132.118.25.25.132.118.25.25.132.118.25.25.132.118.25.25.132.118.25.25.132.118.25.25.132.118.25.25.132.118.25.25.132.118.25.25.132.118.25.25.132.118.25.25.132.118.25.25.132.118.25.25.132.118.25.25.132.118.25.25.132.118.25.25.132.118.25.25.132.118.25.25.132.118.25.25.132.118.25.25.132.118.25.25.132.118.25.25.132.118.25.25.132.118.25.25.132.118.25.25.132.118.25.25.132.118.25.25.132.118.25.25.132.118.25.25.132.118.25.25.132.118.25.25.132.118.25.25.132.118.25.25.132.118.25.25.132.118.25.25.132.118.25.25.132.118.25.25.132.118.25.25.132.118.25.25.132.118.25.25.132.118.25.25.132.118.25.25.132.118.25.25.132.118.25.25.132.118.25.25.132.118.25.25.132.118.25.25.132.118.25.25.132.118.25.25.132.118.25.25.132.118.25.25.132.118.25.25.132.118.25.25l.022.021H216.392l-20.465-20.465a6.92 6.92 0 0 1-1.925-4.789V97.503c0-3.833 3.118-6.952 6.951-6.952h5.535q-.034-.037-.067-.073l-10.494-10.495a6.92 6.92 0 0 1-1.925-4.788V52.952c0-3.833 3.118-6.952 6.951-6.952z" opacity=".4" style="mix-blend-mode:multiply"/><path fill="#5187df" d="M267.046 61h-25.092c-1.625 0-2.954 1.35-2.954 3s1.329 3 2.954 3h25.092c1.625 0 2.954-1.35 2.954-3s-1.329-3-2.954-3M290.013 105h-48.026c-1.643 0-2.987 1.35-2.987 3s1.344 3 2.987 3h48.026c1.643 0 2.987-1.35 2.987-3s-1.344-3-2.987-3M223.195 126.698h-22.244a6.96 6.96 0 0 1-6.951-6.952V97.503a6.96 6.96 0 0 1 6.951-6.952h22.244a6.96 6.96 0 0 1 6.952 6.952v22.243a6.96 6.96 0 0 1-6.952 6.952m-22.244-31.976a2.784 2.784 0 0 0-2.781 2.78v22.244a2.784 2.784 0 0 0 2.781 2.781h22.244a2.784 2.784 0 0 0 2.781-2.781V97.503a2.784 2.784 0 0 0-2.781-2.78zM223.195 46a6.96 6.96 0 0 1 6.952 6.952v22.243c0 3.833-3.119 6.951-6.952 6.952h-22.244A6.96 6.96 0 0 1 194 75.195V52.952c0-3.833 3.118-6.952 6.951-6.952zm-2.864 11.967q-.763 0-1.258.496L210.18 67.4l-3.864-3.882q-.494-.496-1.257-.496-.764-.001-1.258.496a1.6 1.6 0 0 0-.374.573q-.23.396-.231.919.001.767.494 1.263l5.122 5.147q.538.541 1.256.542.72 0 1.258-.542l10.152-10.202q.25-.252.374-.575a1.8 1.8 0 0 0 .231-.917q0-.768-.494-1.264t-1.258-.496"/></svg>