<svg width="584" height="145" viewBox="0 0 584 145" fill="none" xmlns="http://www.w3.org/2000/svg">
<path d="M438.124 145V0.000244141L510.459 0.000244141C550.591 0.000244141 583.124 32.4596 583.124 72.5002C583.124 112.541 550.591 145 510.459 145L438.124 145Z" fill="#286AD8"/>
<path d="M333.731 145H438.856C438.856 64.9191 373.938 0.000244141 293.856 0.000244141V105.125C293.856 127.148 311.709 145 333.731 145Z" fill="#286AD8"/>
<path d="M254.433 0C276.206 9.17459e-05 293.856 17.8526 293.856 39.875V145H0V39.875C0.000171133 17.8525 17.4326 0 38.9365 0H254.433Z" fill="#286AD8"/>
<mask id="mask0_140_648" style="mask-type:alpha" maskUnits="userSpaceOnUse" x="0" y="0" width="294" height="145">
<path d="M254.433 0C276.206 9.17459e-05 293.856 17.8526 293.856 39.875V145H0V39.875C0.000171133 17.8525 17.4326 0 38.9365 0H254.433Z" fill="#286AD8"/>
</mask>
<g mask="url(#mask0_140_648)">
<g opacity="0.8" style="mix-blend-mode:multiply">
<path d="M264.676 147.529C298.397 181.25 261.326 144.177 228.171 111.022C228.131 110.979 228.09 110.94 228.049 110.899C228.009 110.857 227.968 110.817 227.926 110.777C227.886 110.735 227.845 110.695 227.804 110.654C227.764 110.612 227.723 110.573 227.681 110.532C227.642 110.49 227.6 110.45 227.559 110.41C227.519 110.367 227.478 110.328 227.437 110.287C227.397 110.245 227.356 110.205 227.314 110.165C227.274 110.123 227.233 110.083 227.192 110.042C227.152 110 227.111 109.961 227.069 109.92C227.03 109.878 226.988 109.838 226.947 109.798C226.907 109.755 226.866 109.716 226.825 109.675C226.785 109.633 226.744 109.593 226.702 109.553C226.662 109.511 226.621 109.471 226.58 109.43C226.54 109.388 226.499 109.349 226.457 109.308C226.418 109.266 226.376 109.226 226.335 109.186C226.295 109.143 226.254 109.104 226.213 109.063C226.173 109.021 226.132 108.981 226.09 108.941C226.05 108.899 226.009 108.859 225.968 108.818C225.928 108.776 225.887 108.737 225.845 108.696C225.806 108.654 225.764 108.614 225.723 108.574C225.683 108.531 225.642 108.492 225.601 108.451C225.561 108.409 225.52 108.369 225.478 108.329C225.438 108.287 225.397 108.247 225.356 108.206C225.316 108.164 225.275 108.125 225.233 108.084C225.194 108.042 225.152 108.002 225.111 107.962C225.071 107.919 225.03 107.88 224.989 107.839C224.949 107.797 224.908 107.757 224.866 107.717C224.826 107.675 224.785 107.635 224.744 107.594C224.704 107.552 224.663 107.513 224.621 107.472C224.582 107.43 224.54 107.39 224.499 107.35C224.459 107.307 224.418 107.268 224.377 107.227C224.337 107.185 224.296 107.145 224.254 107.105C224.214 107.063 224.173 107.023 224.132 106.982C224.092 106.94 224.051 106.901 224.009 106.86C223.97 106.818 223.928 106.778 223.887 106.738C223.847 106.695 223.806 106.656 223.765 106.615C223.725 106.573 223.684 106.533 223.642 106.493C223.602 106.451 223.561 106.411 223.52 106.37C223.48 106.328 223.439 106.289 223.397 106.248C223.358 106.206 223.316 106.166 223.275 106.126C223.235 106.083 223.194 106.044 223.153 106.003C223.113 105.961 223.072 105.921 223.03 105.881C222.99 105.839 222.949 105.799 222.908 105.758C222.868 105.716 222.827 105.677 222.785 105.636C222.746 105.594 222.704 105.554 222.663 105.514C222.623 105.471 222.582 105.432 222.541 105.391C222.501 105.349 222.46 105.309 222.418 105.269C222.378 105.227 222.337 105.187 222.296 105.146C222.256 105.104 222.215 105.065 222.173 105.024C222.134 104.982 222.092 104.942 222.051 104.902C222.011 104.859 221.97 104.82 221.929 104.779C221.889 104.737 221.848 104.697 221.806 104.657C221.766 104.615 221.725 104.575 221.684 104.534C221.644 104.492 221.603 104.453 221.561 104.412C221.522 104.37 221.48 104.33 221.439 104.29C221.399 104.247 221.358 104.208 221.317 104.167C221.277 104.125 221.236 104.085 221.194 104.045C221.154 104.003 221.113 103.963 221.072 103.922C221.032 103.88 220.991 103.841 220.949 103.8C220.91 103.758 220.868 103.718 220.827 103.678C220.787 103.635 220.746 103.596 220.705 103.555C220.665 103.513 220.624 103.473 220.582 103.433C220.542 103.391 220.501 103.351 220.46 103.31C220.42 103.268 220.379 103.229 220.337 103.188C220.298 103.146 220.256 103.106 220.215 103.066C220.175 103.023 220.134 102.984 220.093 102.943C220.053 102.901 220.012 102.861 219.97 102.821C219.93 102.779 219.889 102.739 219.848 102.698C219.808 102.656 219.767 102.617 219.725 102.576C219.686 102.534 219.644 102.494 219.603 102.454C219.563 102.411 219.522 102.372 219.481 102.331C219.441 102.289 219.4 102.249 219.358 102.209C219.318 102.167 219.277 102.127 219.236 102.086C219.196 102.044 219.155 102.005 219.113 101.964C219.074 101.922 219.032 101.882 218.991 101.842C218.951 101.799 218.91 101.76 218.869 101.719C218.829 101.677 218.788 101.637 218.746 101.597C218.706 101.555 218.665 101.515 218.624 101.474C218.584 101.432 218.543 101.393 218.501 101.352C218.462 101.31 218.42 101.27 218.379 101.23C218.339 101.187 218.298 101.148 218.257 101.107C218.217 101.065 218.176 101.025 218.134 100.985C218.094 100.943 218.053 100.903 218.012 100.862C217.972 100.82 217.931 100.781 217.889 100.74C217.85 100.698 217.808 100.658 217.767 100.618C217.727 100.575 217.686 100.536 217.645 100.495C217.605 100.453 217.564 100.413 217.522 100.373C217.482 100.331 217.441 100.291 217.4 100.25C217.36 100.208 217.319 100.169 217.277 100.128C217.238 100.086 217.196 100.046 217.155 100.006C217.115 99.9634 217.074 99.9238 217.033 99.8832C216.993 99.841 216.952 99.8014 216.91 99.7608C216.87 99.7186 216.829 99.679 216.788 99.6383C216.748 99.5962 216.707 99.5566 216.665 99.516C216.626 99.4739 216.584 99.4342 216.543 99.3936C216.503 99.3514 216.462 99.3118 216.421 99.2712C216.381 99.229 216.34 99.1894 216.298 99.1488C216.258 99.1066 216.217 99.067 216.176 99.0263C216.136 98.9842 216.095 98.9446 216.053 98.904C216.014 98.8619 215.972 98.8222 215.931 98.7816C215.891 98.7394 215.85 98.6998 215.809 98.6592C215.769 98.617 215.728 98.5774 215.686 98.5368C215.646 98.4946 215.605 98.455 215.564 98.4143C215.524 98.3722 215.483 98.3326 215.441 98.292C215.402 98.2499 215.36 98.2102 215.319 98.1696C215.279 98.1274 215.238 98.0878 215.197 98.0472C215.157 98.005 215.116 97.9654 215.074 97.9248C215.034 97.8826 214.993 97.843 214.952 97.8023C214.912 97.7602 214.871 97.7206 214.829 97.68C214.79 97.6379 214.748 97.5982 214.707 97.5576C214.667 97.5154 214.626 97.4758 214.585 97.4352C214.545 97.393 214.504 97.3534 214.462 97.3128C214.422 97.2706 214.381 97.231 214.34 97.1903C214.3 97.1482 214.259 97.1086 214.217 97.068C214.178 97.0258 214.136 96.9862 214.095 96.9455C214.055 96.9034 214.014 96.8638 213.973 96.8232C213.933 96.781 213.892 96.7414 213.85 96.7008C213.81 96.6586 213.769 96.619 213.728 96.5783C213.688 96.5362 213.647 96.4966 213.605 96.456C213.566 96.4138 213.524 96.3742 213.483 96.3335C213.443 96.2914 213.402 96.2518 213.361 96.2112C213.321 96.169 213.28 96.1294 213.238 96.0888C213.198 96.0466 213.157 96.007 213.116 95.9663C213.076 95.9242 213.035 95.8846 212.993 95.844C212.954 95.8018 212.912 95.7622 212.871 95.7215C212.831 95.6794 212.79 95.6398 212.749 95.5992C212.709 95.557 212.668 95.5174 212.626 95.4768C212.586 95.4346 212.545 95.395 212.504 95.3543C212.464 95.3122 212.423 95.2726 212.381 95.232C212.342 95.1898 212.3 95.1502 212.259 95.1095C212.219 95.0674 212.178 95.0278 212.137 94.9872C212.097 94.945 212.056 94.9054 212.014 94.8648C211.974 94.8226 211.933 94.783 211.892 94.7423C211.852 94.7002 211.811 94.6606 211.769 94.62C211.73 94.5778 211.688 94.5382 211.647 94.4975C211.607 94.4554 211.566 94.4158 211.525 94.3752C211.485 94.333 211.444 94.2934 211.402 94.2528C211.362 94.2106 211.321 94.171 211.28 94.1303C211.24 94.0882 211.199 94.0486 211.157 94.008C211.118 93.9658 211.076 93.9262 211.035 93.8855C210.995 93.8434 210.954 93.8038 210.913 93.7632C210.873 93.721 210.832 93.6814 210.79 93.6408C210.75 93.5986 210.709 93.559 210.668 93.5183C210.628 93.4762 210.587 93.4366 210.545 93.396C210.506 93.3538 210.464 93.3142 210.423 93.2735C210.383 93.2314 210.342 93.1918 210.301 93.1512C210.261 93.109 210.22 93.0694 210.178 93.0288C210.138 92.9866 210.097 92.947 210.056 92.9063C210.016 92.8642 209.975 92.8246 209.933 92.784C209.894 92.7418 209.852 92.7022 209.811 92.6615C209.771 92.6194 209.73 92.5798 209.689 92.5392C209.649 92.497 209.608 92.4574 209.566 92.4168C209.526 92.3746 209.485 92.335 209.444 92.2943C209.404 92.2522 209.363 92.2126 209.321 92.172C209.282 92.1298 209.24 92.0902 209.199 92.0495C209.159 92.0074 209.118 91.9678 209.077 91.9272C209.037 91.885 208.996 91.8454 208.954 91.8048C208.914 91.7626 208.873 91.723 208.832 91.6824C208.792 91.6402 208.751 91.6006 208.709 91.56C208.67 91.5178 208.628 91.4782 208.587 91.4375C208.547 91.3954 208.506 91.3558 208.465 91.3152C208.425 91.273 208.384 91.2334 208.342 91.1928C208.302 91.1506 208.261 91.111 208.22 91.0704C208.18 91.0282 208.139 90.9886 208.097 90.948C208.058 90.9058 208.016 90.8662 207.975 90.8255C207.935 90.7834 207.894 90.7438 207.853 90.7032C207.813 90.661 207.772 90.6214 207.73 90.5808C207.69 90.5386 207.649 90.499 207.608 90.4584C207.568 90.4162 207.527 90.3766 207.485 90.336C207.446 90.2938 207.404 90.2542 207.363 90.2135C207.323 90.1714 207.282 90.1318 207.241 90.0912C207.201 90.049 207.16 90.0094 207.118 89.9688C207.078 89.9266 207.037 89.887 206.996 89.8464C206.956 89.8042 206.915 89.7646 206.873 89.724C206.834 89.6818 206.792 89.6422 206.751 89.6015C206.711 89.5594 206.67 89.5198 206.629 89.4792C206.589 89.437 206.548 89.3974 206.506 89.3568C206.466 89.3146 206.425 89.275 206.384 89.2344C206.344 89.1922 206.303 89.1526 206.261 89.112C206.222 89.0698 206.18 89.0302 206.139 88.9895C206.099 88.9474 206.058 88.9078 206.017 88.8672C205.977 88.8251 205.936 88.7854 205.894 88.7448C205.854 88.7026 205.813 88.663 205.772 88.6224C205.732 88.5802 205.691 88.5406 205.649 88.5C205.61 88.4578 205.568 88.4182 205.527 88.3775C205.487 88.3354 205.446 88.2958 205.405 88.2552C205.365 88.2131 205.324 88.1734 205.282 88.1328C205.242 88.0906 205.201 88.051 205.16 88.0104C205.12 87.9682 205.079 87.9286 205.037 87.888C204.998 87.8458 204.956 87.8062 204.915 87.7655C204.875 87.7234 204.834 87.6838 204.793 87.6432C204.753 87.6011 204.712 87.5614 204.67 87.5208C204.63 87.4786 204.589 87.439 204.548 87.3984C204.508 87.3562 204.467 87.3166 204.425 87.276C204.386 87.2338 204.344 87.1942 204.303 87.1535C204.263 87.1114 204.222 87.0718 204.181 87.0312C204.141 86.9891 204.1 86.9494 204.058 86.9088C204.018 86.8666 203.977 86.827 203.936 86.7864C203.896 86.7442 203.855 86.7046 203.813 86.664C203.774 86.6218 203.732 86.5822 203.691 86.5415C203.651 86.4994 203.61 86.4598 203.569 86.4192C203.529 86.3771 203.488 86.3374 203.446 86.2968C203.406 86.2546 203.365 86.215 203.324 86.1744C203.284 86.1322 203.243 86.0926 203.201 86.052C203.162 86.0098 203.12 85.9702 203.079 85.9295C203.039 85.8874 202.998 85.8478 202.957 85.8072C202.917 85.7651 202.876 85.7254 202.834 85.6848C202.794 85.6426 202.753 85.603 202.712 85.5624C202.672 85.5202 202.631 85.4806 202.589 85.44C202.55 85.3978 202.508 85.3582 202.467 85.3175C202.427 85.2754 202.386 85.2358 202.345 85.1952C202.305 85.1531 202.264 85.1134 202.222 85.0728C202.182 85.0306 202.141 84.991 202.1 84.9504C202.06 84.9082 202.019 84.8686 201.977 84.828C201.938 84.7858 201.896 84.7462 201.855 84.7055C201.815 84.6634 201.774 84.6238 201.733 84.5832C201.693 84.5411 201.652 84.5014 201.61 84.4608C201.57 84.4186 201.529 84.379 201.488 84.3384C201.448 84.2962 201.407 84.2566 201.365 84.216C201.326 84.1738 201.284 84.1342 201.243 84.0935C201.203 84.0514 201.162 84.0118 201.121 83.9712C201.081 83.9291 201.04 83.8894 200.998 83.8488C200.958 83.8066 200.917 83.767 200.876 83.7264C200.836 83.6842 200.795 83.6446 200.753 83.604C200.714 83.5618 200.672 83.5222 200.631 83.4815C200.591 83.4394 200.55 83.3998 200.509 83.3592C200.469 83.3171 200.428 83.2774 200.386 83.2368C200.346 83.1946 200.305 83.155 200.264 83.1144C200.224 83.0722 200.183 83.0326 200.141 82.992C200.102 82.9498 200.06 82.9102 200.019 82.8695C199.979 82.8274 199.938 82.7878 199.897 82.7472C199.857 82.7051 199.816 82.6654 199.774 82.6248C199.734 82.5826 199.693 82.543 199.652 82.5024C199.612 82.4602 199.571 82.4206 199.529 82.38C199.49 82.3378 199.448 82.2982 199.407 82.2575C199.367 82.2154 199.326 82.1758 199.285 82.1352C199.245 82.093 199.204 82.0534 199.162 82.0127C199.122 81.9706 199.081 81.931 199.04 81.8904C199 81.8482 198.959 81.8086 198.917 81.768C198.878 81.7258 198.836 81.6862 198.795 81.6455C198.755 81.6034 198.714 81.5638 198.673 81.5232C198.633 81.481 198.592 81.4414 198.55 81.4007C198.51 81.3586 198.469 81.319 198.428 81.2784C198.388 81.2362 198.347 81.1966 198.305 81.156C198.266 81.1138 198.224 81.0742 198.183 81.0335C198.143 80.9914 198.102 80.9518 198.061 80.9112C198.021 80.869 197.98 80.8294 197.938 80.7887C197.898 80.7466 197.857 80.707 197.816 80.6664C197.776 80.6242 197.735 80.5846 197.693 80.544C197.654 80.5018 197.612 80.4622 197.571 80.4215C197.531 80.3794 197.49 80.3398 197.449 80.2992C197.409 80.257 197.368 80.2174 197.326 80.1767C197.286 80.1346 197.245 80.095 197.204 80.0544C197.164 80.0122 197.123 79.9726 197.081 79.932C197.042 79.8898 197 79.8502 196.959 79.8095C196.919 79.7674 196.878 79.7278 196.837 79.6872C196.797 79.645 196.756 79.6054 196.714 79.5647C196.674 79.5226 196.633 79.483 196.592 79.4424C196.552 79.4002 196.511 79.3606 196.469 79.32C196.43 79.2778 196.388 79.2382 196.347 79.1975C196.307 79.1554 196.266 79.1158 196.225 79.0752C196.185 79.033 196.144 78.9934 196.102 78.9527C196.062 78.9106 196.021 78.871 195.98 78.8304C195.94 78.7882 195.899 78.7486 195.857 78.708C195.818 78.6658 195.776 78.6262 195.735 78.5855C195.695 78.5434 195.654 78.5038 195.613 78.4632C195.573 78.421 195.532 78.3814 195.49 78.3407C195.45 78.2986 195.409 78.259 195.368 78.2184C195.328 78.1762 195.287 78.1366 195.245 78.096C195.206 78.0538 195.164 78.0142 195.123 77.9735C195.083 77.9314 195.042 77.8918 195.001 77.8512C194.961 77.809 194.92 77.7694 194.878 77.7287C194.838 77.6866 194.797 77.647 194.756 77.6064C194.716 77.5642 194.675 77.5246 194.633 77.484C194.594 77.4418 194.552 77.4022 194.511 77.3615C194.471 77.3194 194.43 77.2798 194.389 77.2392C194.349 77.197 194.308 77.1574 194.266 77.1167C194.226 77.0746 194.185 77.035 194.144 76.9944C194.104 76.9522 194.063 76.9126 194.021 76.872C193.982 76.8298 193.94 76.7902 193.899 76.7495C193.859 76.7074 193.818 76.6678 193.777 76.6272C193.737 76.585 193.696 76.5454 193.654 76.5047C193.614 76.4626 193.573 76.423 193.532 76.3824C193.492 76.3402 193.451 76.3006 193.409 76.26C193.37 76.2178 193.328 76.1782 193.287 76.1375C193.247 76.0954 193.206 76.0558 193.165 76.0152C193.125 75.973 193.084 75.9334 193.042 75.8927C193.002 75.8506 192.961 75.811 192.92 75.7704C192.88 75.7282 192.839 75.6886 192.797 75.648C192.758 75.6058 192.716 75.5662 192.675 75.5255C192.635 75.4834 192.594 75.4438 192.553 75.4032C192.513 75.361 192.472 75.3214 192.43 75.2807C192.39 75.2386 192.349 75.199 192.308 75.1584C192.268 75.1162 192.227 75.0766 192.185 75.036C192.146 74.9938 192.104 74.9542 192.063 74.9135C192.023 74.8714 191.982 74.8318 191.941 74.7912C191.901 74.749 191.86 74.7094 191.818 74.6687C191.778 74.6266 191.737 74.587 191.696 74.5464C190.842 73.644 189.651 73.0786 188.327 73.0786L164.508 72.9737C164.475 72.9353 164.434 72.9066 164.399 72.8701C164.361 72.8257 164.317 72.7896 164.277 72.7477C164.239 72.7032 164.194 72.6673 164.154 72.6253C164.116 72.5808 164.072 72.5449 164.032 72.5029C163.994 72.4585 163.95 72.4225 163.909 72.3805C163.871 72.336 163.827 72.3001 163.787 72.2581C163.749 72.2137 163.705 72.1776 163.665 72.1357C163.627 72.0912 163.582 72.0553 163.542 72.0133C163.504 71.9688 163.46 71.9329 163.42 71.8909C163.382 71.8465 163.338 71.8105 163.297 71.7685C163.259 71.724 163.215 71.6881 163.175 71.6461C163.137 71.6017 163.093 71.5656 163.053 71.5237C163.015 71.4792 162.97 71.4433 162.93 71.4013C162.892 71.3568 162.848 71.3209 162.808 71.2789C162.77 71.2345 162.726 71.1985 162.685 71.1565C162.647 71.112 162.603 71.0761 162.563 71.0341C162.525 70.9897 162.481 70.9536 162.441 70.9117C162.403 70.8672 162.358 70.8313 162.318 70.7893C162.28 70.7448 162.236 70.7089 162.196 70.6669C162.158 70.6225 162.114 70.5865 162.073 70.5445C162.035 70.5 161.991 70.4641 161.951 70.4221C161.913 70.3777 161.869 70.3417 161.829 70.2997C161.791 70.2552 161.746 70.2193 161.706 70.1773C161.668 70.1328 161.624 70.0968 161.584 70.0548C161.546 70.0104 161.502 69.9745 161.461 69.9325C161.423 69.888 161.379 69.8521 161.339 69.8101C161.301 69.7657 161.257 69.7297 161.217 69.6877C161.179 69.6432 161.134 69.6073 161.094 69.5653C161.056 69.5208 161.012 69.4848 160.972 69.4428C160.934 69.3984 160.89 69.3625 160.849 69.3205C160.811 69.276 160.767 69.2401 160.727 69.1981C160.689 69.1537 160.645 69.1177 160.605 69.0757C160.567 69.0312 160.522 68.9953 160.482 68.9533C160.444 68.9088 160.4 68.8728 160.36 68.8308C160.322 68.7864 160.278 68.7505 160.237 68.7085C160.199 68.664 160.155 68.6281 160.115 68.5861C160.077 68.5417 160.033 68.5057 159.993 68.4637C159.955 68.4192 159.91 68.3833 159.87 68.3413C159.832 68.2969 159.788 68.2608 159.748 68.2188C159.71 68.1744 159.666 68.1385 159.625 68.0965C159.587 68.052 159.543 68.0161 159.503 67.9741C159.465 67.9297 159.421 67.8937 159.381 67.8517C159.343 67.8072 159.298 67.7713 159.258 67.7293C159.22 67.6849 159.176 67.6488 159.136 67.6068C159.098 67.5624 159.054 67.5265 159.013 67.4845C158.975 67.44 158.931 67.4041 158.891 67.3621C158.853 67.3177 158.809 67.2817 158.769 67.2397C158.731 67.1952 158.686 67.1593 158.646 67.1173C158.608 67.0729 158.564 67.0368 158.524 66.9948C158.486 66.9504 158.442 66.9145 158.401 66.8725C158.363 66.828 158.319 66.7921 158.279 66.7501C158.241 66.7057 158.197 66.6697 158.157 66.6277C158.119 66.5832 158.074 66.5473 158.034 66.5053C157.996 66.4609 157.952 66.4248 157.912 66.3828C157.874 66.3384 157.83 66.3025 157.789 66.2605C157.751 66.216 157.707 66.1801 157.667 66.1381C157.629 66.0937 157.585 66.0577 157.545 66.0157C157.507 65.9712 157.462 65.9353 157.422 65.8933C157.384 65.8489 157.34 65.8128 157.3 65.7708C157.262 65.7264 157.218 65.6905 157.177 65.6485C157.139 65.604 157.095 65.5681 157.055 65.5261C157.017 65.4817 156.973 65.4457 156.933 65.4037C156.895 65.3592 156.85 65.3233 156.81 65.2813C156.772 65.2369 156.728 65.2008 156.688 65.1588C156.65 65.1144 156.606 65.0785 156.565 65.0365C156.527 64.992 156.483 64.9561 156.443 64.9141C156.405 64.8697 156.361 64.8337 156.321 64.7917C156.283 64.7472 156.238 64.7113 156.198 64.6693C156.16 64.6249 156.116 64.5888 156.076 64.5469C156.038 64.5024 155.994 64.4665 155.953 64.4245C155.915 64.38 155.871 64.3441 155.831 64.3021C155.793 64.2577 155.749 64.2217 155.709 64.1797C155.671 64.1352 155.626 64.0993 155.586 64.0573C155.548 64.0129 155.504 63.9768 155.464 63.9349C155.426 63.8904 155.382 63.8545 155.341 63.8125C155.303 63.768 155.259 63.7321 155.219 63.6901C155.181 63.6457 155.137 63.6097 155.097 63.5677C155.059 63.5232 155.014 63.4873 154.974 63.4453C154.936 63.4009 154.892 63.3648 154.852 63.3229C154.814 63.2784 154.77 63.2425 154.729 63.2005C154.691 63.156 154.647 63.1201 154.607 63.0781C154.569 63.0337 154.525 62.9977 154.485 62.9557C154.447 62.9112 154.402 62.8753 154.362 62.8333C154.324 62.7889 154.28 62.7528 154.24 62.7109C154.202 62.6664 154.158 62.6305 154.117 62.5885C154.079 62.544 154.035 62.5081 153.995 62.4661C153.957 62.4217 153.913 62.3857 153.873 62.3437C153.835 62.2992 153.79 62.2633 153.75 62.2213C153.712 62.1769 153.668 62.1408 153.628 62.0989C153.59 62.0544 153.546 62.0185 153.505 61.9765C153.467 61.932 153.423 61.8961 153.383 61.8541C153.345 61.8097 153.301 61.7737 153.261 61.7317C153.223 61.6872 153.178 61.6513 153.138 61.6093C153.1 61.5649 153.056 61.5288 153.016 61.4869C152.978 61.4424 152.934 61.4065 152.893 61.3645C152.855 61.32 152.811 61.2841 152.771 61.2421C152.733 61.1977 152.689 61.1617 152.649 61.1197C152.611 61.0752 152.566 61.0393 152.526 60.9973C152.488 60.9529 152.444 60.9168 152.404 60.8749C152.366 60.8304 152.322 60.7945 152.281 60.7525C152.243 60.708 152.199 60.6721 152.159 60.6301C152.121 60.5857 152.077 60.5497 152.037 60.5077C151.999 60.4632 151.954 60.4273 151.914 60.3853C151.876 60.3409 151.832 60.3048 151.792 60.2629C151.754 60.2184 151.71 60.1825 151.669 60.1405C151.631 60.096 151.587 60.0601 151.547 60.0181C151.509 59.9737 151.465 59.9377 151.425 59.8957C151.387 59.8512 151.342 59.8153 151.302 59.7733C151.264 59.7289 151.22 59.6928 151.18 59.6509C151.142 59.6064 151.098 59.5705 151.057 59.5285C151.019 59.484 150.975 59.4481 150.935 59.4061C150.897 59.3617 150.853 59.3257 150.813 59.2837C150.775 59.2392 150.73 59.2033 150.69 59.1613C150.652 59.1169 150.608 59.0808 150.568 59.0389C150.53 58.9944 150.486 58.9585 150.445 58.9165C150.407 58.872 150.363 58.8361 150.323 58.7941C150.285 58.7497 150.241 58.7137 150.201 58.6717C150.163 58.6272 150.118 58.5913 150.078 58.5493C150.04 58.5049 149.996 58.4688 149.956 58.4269C149.918 58.3824 149.874 58.3465 149.833 58.3045C149.795 58.26 149.751 58.2241 149.711 58.1821C149.673 58.1377 149.629 58.1017 149.589 58.0597C149.551 58.0152 149.506 57.9793 149.466 57.9373C149.428 57.8929 149.384 57.8568 149.344 57.8149C149.306 57.7704 149.262 57.7345 149.221 57.6925C149.183 57.648 149.139 57.6121 149.099 57.5701C149.061 57.5257 149.017 57.4897 148.977 57.4477C148.939 57.4032 148.894 57.3673 148.854 57.3253C148.816 57.2809 148.772 57.2448 148.732 57.2029C148.694 57.1584 148.65 57.1225 148.609 57.0805C148.571 57.036 148.527 57.0001 148.487 56.9581C148.449 56.9137 148.405 56.8777 148.365 56.8357C148.327 56.7912 148.282 56.7553 148.242 56.7133C148.204 56.6689 148.16 56.6328 148.12 56.5909C148.082 56.5464 148.038 56.5105 147.997 56.4685C147.959 56.424 147.915 56.3881 147.875 56.3461C147.837 56.3017 147.793 56.2657 147.753 56.2237C147.715 56.1792 147.67 56.1433 147.63 56.1013C147.592 56.0569 147.548 56.0208 147.508 55.9789C147.47 55.9344 147.426 55.8985 147.385 55.8565C147.347 55.812 147.303 55.7761 147.263 55.7341C147.225 55.6897 147.181 55.6537 147.141 55.6117C147.103 55.5672 147.058 55.5313 147.018 55.4893C146.98 55.4449 146.936 55.4088 146.896 55.3669C146.858 55.3224 146.814 55.2865 146.773 55.2445C146.735 55.2 146.691 55.164 146.651 55.122C146.613 55.0776 146.569 55.0417 146.529 54.9997C146.491 54.9552 146.446 54.9193 146.406 54.8773C146.368 54.8329 146.324 54.7969 146.284 54.7549C146.246 54.7104 146.202 54.6745 146.161 54.6325C146.123 54.588 146.079 54.552 146.039 54.51C146.001 54.4656 145.957 54.4297 145.917 54.3877C145.879 54.3432 145.834 54.3073 145.794 54.2653C145.756 54.2209 145.712 54.1849 145.672 54.1429C145.634 54.0984 145.59 54.0625 145.549 54.0205C145.511 53.976 145.467 53.94 145.427 53.898C145.389 53.8536 145.345 53.8177 145.305 53.7757C145.267 53.7312 145.222 53.6953 145.182 53.6533C145.144 53.6089 145.1 53.5729 145.06 53.5309C145.022 53.4864 144.978 53.4505 144.938 53.4085C144.899 53.364 144.855 53.328 144.815 53.286C144.777 53.2416 144.733 53.2057 144.693 53.1637C144.655 53.1192 144.61 53.0833 144.57 53.0413C144.532 52.9969 144.488 52.9609 144.448 52.9189C144.41 52.8744 144.366 52.8385 144.326 52.7965C144.287 52.7521 144.243 52.716 144.203 52.674C144.165 52.6296 144.121 52.5937 144.081 52.5517C144.043 52.5072 143.998 52.4713 143.958 52.4293C143.92 52.3849 143.876 52.3489 143.836 52.3069C143.798 52.2624 143.754 52.2265 143.714 52.1845C143.675 52.1401 143.631 52.104 143.591 52.062C143.553 52.0176 143.509 51.9817 143.469 51.9397C143.431 51.8952 143.386 51.8593 143.346 51.8173C143.308 51.7729 143.264 51.7369 143.224 51.6949C143.186 51.6504 143.142 51.6145 143.102 51.5725C143.063 51.5281 143.019 51.492 142.979 51.45C142.941 51.4056 142.897 51.3697 142.857 51.3277C142.819 51.2832 142.774 51.2473 142.734 51.2053C142.696 51.1609 142.652 51.1249 142.612 51.0829C142.574 51.0384 142.53 51.0025 142.49 50.9605C142.451 50.9161 142.407 50.88 142.367 50.838C142.329 50.7936 142.285 50.7577 142.245 50.7157C142.207 50.6712 142.162 50.6353 142.122 50.5933C142.084 50.5489 142.04 50.5129 142 50.4709C141.962 50.4264 141.918 50.3905 141.878 50.3485C141.839 50.3041 141.795 50.268 141.755 50.2261C141.717 50.1816 141.673 50.1457 141.633 50.1037C141.595 50.0592 141.55 50.0233 141.51 49.9813C141.472 49.9369 141.428 49.9009 141.388 49.8589C141.35 49.8144 141.306 49.7785 141.266 49.7365C141.227 49.6921 141.183 49.656 141.143 49.6141C141.105 49.5696 141.061 49.5337 141.021 49.4917C140.983 49.4472 140.938 49.4113 140.898 49.3693C140.86 49.3249 140.816 49.2889 140.776 49.2469C140.738 49.2024 140.694 49.1665 140.654 49.1245C140.615 49.0801 140.571 49.044 140.531 49.0021C140.493 48.9576 140.449 48.9217 140.409 48.8797C140.371 48.8352 140.326 48.7993 140.286 48.7573C140.248 48.7129 140.204 48.6769 140.164 48.6349C140.126 48.5904 140.082 48.5545 140.042 48.5125C140.003 48.4681 139.959 48.432 139.919 48.3901C139.881 48.3456 139.837 48.3097 139.797 48.2677C139.759 48.2232 139.714 48.1873 139.674 48.1453C139.636 48.1009 139.592 48.0649 139.552 48.0229C139.514 47.9784 139.47 47.9425 139.43 47.9005C139.392 47.8561 139.347 47.8202 139.307 47.7782C139.269 47.7337 139.225 47.6975 139.185 47.6555C138.64 47.0202 137.615 46.625 136.778 46.625L40.0245 46.7298C38.3671 46.7298 37.0234 48.2759 37.0234 50.1833V61.2344C37.0234 62.2463 37.4084 63.1478 38.0111 63.7795C38.0491 63.8238 38.0933 63.8597 38.1332 63.9015C38.1713 63.946 38.2156 63.982 38.2557 64.0241C38.2938 64.0685 38.3381 64.1045 38.3782 64.1465C38.4162 64.191 38.4605 64.2269 38.5005 64.2689C38.5386 64.3134 38.5829 64.3494 38.6231 64.3915C38.6611 64.4358 38.7053 64.4717 38.7452 64.5135C38.7833 64.558 38.8276 64.594 38.8677 64.6361C38.9058 64.6805 38.9501 64.7165 38.9902 64.7585C39.0282 64.803 39.0725 64.8389 39.1125 64.8809C39.1506 64.9254 39.1949 64.9614 39.2351 65.0035C39.2731 65.0478 39.3173 65.0837 39.3572 65.1255C39.3953 65.17 39.4396 65.206 39.4797 65.2481C39.5178 65.2925 39.5621 65.3285 39.6022 65.3705C39.6402 65.415 39.6845 65.4509 39.7245 65.4929C39.7626 65.5374 39.8069 65.5734 39.8471 65.6155C39.8851 65.6598 39.9293 65.6957 39.9692 65.7375C40.0073 65.782 40.0516 65.818 40.0917 65.8601C40.1298 65.9045 40.1741 65.9405 40.2142 65.9825C40.2522 66.027 40.2965 66.0629 40.3365 66.1049C40.3746 66.1494 40.4189 66.1854 40.4591 66.2275C40.4971 66.2718 40.5413 66.3077 40.5812 66.3495C40.6193 66.394 40.6636 66.43 40.7037 66.4721C40.7418 66.5165 40.7861 66.5525 40.8262 66.5945C40.8642 66.639 40.9085 66.6749 40.9485 66.7169C40.9866 66.7614 41.0309 66.7974 41.0711 66.8395C41.1091 66.8838 41.1533 66.9197 41.1932 66.9615C41.2313 67.006 41.2756 67.042 41.3157 67.0841C41.3538 67.1285 41.3981 67.1645 41.4382 67.2065C41.4762 67.251 41.5205 67.2869 41.5605 67.3289C41.5986 67.3734 41.6429 67.4094 41.6831 67.4515C41.7211 67.4958 41.7653 67.5317 41.8052 67.5735C41.8433 67.6181 41.8878 67.6542 41.9279 67.6963C41.9659 67.7406 42.0101 67.7765 42.05 67.8183C42.0881 67.8628 42.1324 67.8988 42.1725 67.9409C42.2106 67.9854 42.2549 68.0214 42.2951 68.0635C42.3331 68.1078 42.3773 68.1437 42.4172 68.1855C42.4553 68.2301 42.4998 68.2661 42.5399 68.3083C42.5779 68.3526 42.6221 68.3885 42.662 68.4303C42.7001 68.4748 42.7444 68.5108 42.7845 68.5529C42.8226 68.5974 42.8669 68.6334 42.9071 68.6755C42.9451 68.7198 42.9893 68.7557 43.0292 68.7975C43.0673 68.8421 43.1118 68.8781 43.1519 68.9203C43.1899 68.9646 43.2341 69.0005 43.274 69.0423C43.3121 69.0868 43.3564 69.1228 43.3965 69.1649C43.4346 69.2094 43.4789 69.2454 43.5191 69.2875C43.5571 69.3318 43.6013 69.3677 43.6412 69.4095C43.6793 69.4541 43.7238 69.4901 43.7639 69.5323C43.8019 69.5766 43.8461 69.6125 43.886 69.6543C43.9241 69.6988 43.9684 69.7348 44.0085 69.7769C44.0466 69.8214 44.0909 69.8574 44.1311 69.8995C44.1691 69.9438 44.2133 69.9797 44.2532 70.0215C44.2913 70.0661 44.3358 70.1021 44.3759 70.1443C44.4139 70.1886 44.4581 70.2245 44.498 70.2663C44.5361 70.3108 44.5804 70.3468 44.6205 70.3889C44.6586 70.4334 44.7029 70.4694 44.7431 70.5114C44.7811 70.5558 44.8253 70.5917 44.8652 70.6335C44.9033 70.6781 44.9478 70.7141 44.9879 70.7563C45.0259 70.8006 45.0701 70.8365 45.11 70.8783C45.1481 70.9228 45.1924 70.9588 45.2325 71.0009C45.2706 71.0454 45.3149 71.0814 45.3551 71.1234C45.3931 71.1678 45.4373 71.2036 45.4772 71.2455C45.5153 71.2901 45.5598 71.3261 45.5999 71.3683C45.6379 71.4126 45.6821 71.4485 45.722 71.4903C45.7601 71.5348 45.8044 71.5708 45.8445 71.6129C45.8826 71.6573 45.9269 71.6933 45.967 71.7353C46.005 71.7798 46.0493 71.8157 46.0894 71.8577C46.1274 71.9022 46.1718 71.9382 46.2119 71.9803C46.2499 72.0246 46.2941 72.0605 46.334 72.1023C46.3721 72.1468 46.4164 72.1828 46.4565 72.2249C46.4946 72.2693 46.5389 72.3053 46.579 72.3473C46.617 72.3918 46.6613 72.4277 46.7014 72.4697C46.7394 72.5142 46.7838 72.5502 46.8239 72.5923C46.8619 72.6366 46.9061 72.6725 46.946 72.7143C46.9841 72.7588 47.0284 72.7948 47.0685 72.8369C47.1066 72.8813 47.1509 72.9173 47.191 72.9593C47.228 73.0026 47.2712 73.0377 47.3101 73.0786H41.7191C39.1258 73.0786 37.0234 75.2312 37.0234 77.8864V122.771C37.0234 124.134 37.5831 125.359 38.4734 126.234C38.5132 126.276 38.5543 126.315 38.5955 126.356C38.6354 126.398 38.6766 126.438 38.718 126.478C38.7579 126.52 38.7991 126.56 38.8405 126.601C38.8803 126.643 38.9215 126.682 38.9628 126.723C39.0027 126.765 39.044 126.805 39.0854 126.846C39.1252 126.888 39.1663 126.927 39.2075 126.968C39.2474 127.01 39.2886 127.05 39.33 127.09C39.3699 127.132 39.4111 127.172 39.4525 127.213C39.4923 127.255 39.5335 127.294 39.5748 127.335C39.6147 127.377 39.656 127.417 39.6974 127.458C39.7372 127.5 39.7783 127.539 39.8195 127.58C39.8594 127.622 39.9006 127.662 39.942 127.702C39.9819 127.744 40.0231 127.784 40.0645 127.825C40.1043 127.867 40.1455 127.906 40.1868 127.947C40.2267 127.989 40.268 128.029 40.3094 128.07C40.3492 128.112 40.3903 128.151 40.4315 128.192C40.4714 128.234 40.5126 128.274 40.554 128.314C40.5939 128.356 40.6351 128.396 40.6765 128.437C40.7163 128.479 40.7575 128.518 40.7988 128.559C40.8387 128.601 40.88 128.641 40.9214 128.682C40.9612 128.724 41.0023 128.763 41.0435 128.804C41.0834 128.846 41.1246 128.886 41.166 128.926C41.2059 128.968 41.2471 129.008 41.2885 129.049C41.3283 129.091 41.3695 129.13 41.4108 129.171C41.4507 129.213 41.492 129.253 41.5334 129.294C41.5732 129.336 41.6143 129.375 41.6555 129.416C41.6954 129.458 41.7366 129.498 41.778 129.538C41.8179 129.58 41.8591 129.62 41.9005 129.661C41.9403 129.703 41.9815 129.742 42.0228 129.783C42.0627 129.825 42.104 129.865 42.1454 129.906C42.1852 129.948 42.2263 129.987 42.2675 130.028C42.3075 130.07 42.3488 130.11 42.3902 130.15C42.43 130.192 42.4711 130.232 42.5123 130.272C42.5522 130.315 42.5934 130.354 42.6348 130.395C42.6747 130.437 42.716 130.477 42.7574 130.518C42.7972 130.56 42.8383 130.599 42.8795 130.64C42.9195 130.682 42.9608 130.722 43.0022 130.762C43.042 130.804 43.0831 130.844 43.1243 130.884C43.1642 130.927 43.2054 130.966 43.2468 131.007C43.2867 131.049 43.328 131.089 43.3694 131.13C43.4092 131.172 43.4503 131.211 43.4915 131.252C43.5315 131.294 43.5728 131.334 43.6142 131.374C43.654 131.416 43.6951 131.456 43.7363 131.496C43.7762 131.539 43.8174 131.578 43.8588 131.619C43.8987 131.661 43.94 131.701 43.9814 131.742C44.0212 131.784 44.0623 131.823 44.1035 131.864C44.1435 131.906 44.1848 131.946 44.2262 131.986C44.266 132.028 44.3071 132.068 44.3483 132.108C44.3882 132.151 44.4294 132.19 44.4708 132.231C44.5107 132.273 44.552 132.313 44.5934 132.354C44.6332 132.396 44.6743 132.435 44.7155 132.476C44.7555 132.518 44.7968 132.558 44.8382 132.598C44.878 132.64 44.9191 132.68 44.9603 132.72C45.0002 132.763 45.0414 132.802 45.0828 132.843C45.1227 132.885 45.164 132.925 45.2054 132.966C45.2452 133.008 45.2863 133.047 45.3275 133.088C45.3675 133.13 45.4088 133.17 45.4502 133.21C45.49 133.252 45.5311 133.292 45.5723 133.332C45.6122 133.375 45.6534 133.414 45.6948 133.455C45.7347 133.497 45.776 133.537 45.8174 133.578C45.8572 133.62 45.8983 133.659 45.9395 133.7C45.9795 133.742 46.0208 133.782 46.0622 133.822C46.102 133.864 46.1431 133.904 46.1843 133.944C46.2242 133.987 46.2654 134.026 46.3068 134.067C46.3467 134.109 46.3879 134.149 46.4293 134.189C46.4691 134.231 46.5103 134.271 46.5516 134.312C46.5916 134.354 46.6328 134.394 46.6742 134.434C46.714 134.476 46.7551 134.516 46.7963 134.556C46.8362 134.599 46.8774 134.638 46.9188 134.679C46.9587 134.721 46.9999 134.761 47.0413 134.801C47.0811 134.843 47.1223 134.883 47.1636 134.924C47.2036 134.966 47.2448 135.006 47.2862 135.046C47.326 135.088 47.3671 135.128 47.4083 135.168C47.4482 135.211 47.4894 135.25 47.5308 135.291C47.5707 135.333 47.6119 135.373 47.6533 135.413C47.6931 135.455 47.7343 135.495 47.7756 135.536C47.8156 135.578 47.8568 135.618 47.8982 135.658C47.938 135.7 47.9791 135.74 48.0203 135.78C48.0602 135.823 48.1014 135.862 48.1428 135.903C48.1827 135.945 48.2239 135.985 48.2653 136.025C48.3051 136.067 48.3463 136.107 48.3876 136.148C48.4276 136.19 48.4688 136.23 48.5102 136.27C48.55 136.312 48.5911 136.352 48.6323 136.392C48.6722 136.435 48.7134 136.474 48.7548 136.515C48.7947 136.557 48.8359 136.597 48.8773 136.637C48.9171 136.679 48.9583 136.719 48.9996 136.76C49.0396 136.802 49.0808 136.842 49.1222 136.882C49.162 136.924 49.2031 136.964 49.2443 137.004C49.2842 137.047 49.3254 137.086 49.3668 137.127C49.4067 137.169 49.4479 137.209 49.4893 137.249C49.5291 137.291 49.5703 137.331 49.6116 137.372C49.6516 137.414 49.6928 137.454 49.7342 137.494C49.774 137.536 49.8151 137.576 49.8563 137.616C49.8962 137.659 49.9374 137.698 49.9788 137.739C50.0187 137.781 50.0599 137.821 50.1013 137.861C50.1411 137.903 50.1823 137.943 50.2236 137.984C50.2635 138.026 50.3048 138.066 50.3462 138.106C50.386 138.148 50.4271 138.188 50.4683 138.228C50.5082 138.271 50.5494 138.31 50.5908 138.351C50.6307 138.393 50.6719 138.433 50.7133 138.473C50.7531 138.515 50.7943 138.555 50.8356 138.596C50.8755 138.638 50.9168 138.678 50.9582 138.718C50.998 138.76 51.0391 138.8 51.0803 138.84C51.1202 138.883 51.1614 138.922 51.2028 138.963C51.2427 139.005 51.2839 139.045 51.3253 139.085C51.3651 139.127 51.4063 139.167 51.4476 139.208C51.4875 139.25 51.5288 139.29 51.5702 139.33C51.61 139.372 51.6511 139.412 51.6923 139.452C51.7322 139.495 51.7734 139.534 51.8148 139.575C51.8547 139.617 51.8959 139.657 51.9373 139.697C51.9771 139.739 52.0183 139.779 52.0596 139.82C52.0995 139.862 52.1408 139.902 52.1822 139.942C52.222 139.984 52.2631 140.024 52.3043 140.064C52.3442 140.107 52.3854 140.146 52.4268 140.187C52.4667 140.229 52.5079 140.269 52.5493 140.309C52.5891 140.351 52.6303 140.391 52.6716 140.432C52.7115 140.474 52.7528 140.514 52.7942 140.554C52.834 140.596 52.8751 140.636 52.9163 140.676C52.9562 140.719 52.9974 140.758 53.0388 140.799C53.0787 140.841 53.1199 140.881 53.1613 140.921C53.2011 140.963 53.2423 141.003 53.2836 141.044C53.3235 141.086 53.3648 141.126 53.4062 141.166C53.446 141.208 53.4871 141.248 53.5283 141.288C53.5682 141.331 53.6094 141.37 53.6508 141.411C53.6907 141.453 53.7319 141.493 53.7733 141.533C53.8131 141.575 53.8543 141.615 53.8956 141.656C53.9355 141.698 53.9768 141.738 54.0182 141.778C54.058 141.82 54.0991 141.86 54.1403 141.9C54.1802 141.943 54.2214 141.982 54.2628 142.023C54.3027 142.065 54.3439 142.105 54.3853 142.145C54.4251 142.187 54.4663 142.227 54.5076 142.268C54.5475 142.31 54.5888 142.35 54.6302 142.39C54.67 142.432 54.7111 142.472 54.7523 142.512C54.7922 142.555 54.8334 142.594 54.8748 142.635C54.9147 142.677 54.9559 142.717 54.9973 142.757C55.0371 142.799 55.0783 142.839 55.1196 142.88C55.1595 142.922 55.2008 142.962 55.2422 143.002C55.282 143.044 55.3231 143.084 55.3643 143.124C55.4042 143.167 55.4454 143.206 55.4868 143.247C55.5267 143.289 55.5679 143.329 55.6093 143.369C55.6491 143.411 55.6903 143.451 55.7316 143.492C55.7715 143.534 55.8128 143.574 55.8542 143.614C55.894 143.656 55.9351 143.696 55.9763 143.736C56.0162 143.779 56.0574 143.818 56.0988 143.859C56.1387 143.901 56.1799 143.941 56.2213 143.981C56.2611 144.023 56.3023 144.063 56.3436 144.104C56.3835 144.146 56.4248 144.186 56.4662 144.226C56.506 144.268 56.5471 144.308 56.5883 144.348C56.6282 144.391 56.6694 144.43 56.7108 144.471C56.7507 144.513 56.7919 144.553 56.8333 144.593C56.8731 144.635 56.9143 144.675 56.9556 144.716C56.9955 144.758 57.0368 144.798 57.0782 144.838C57.118 144.88 57.1591 144.92 57.2003 144.96C57.2402 145.003 57.2814 145.042 57.3228 145.083C57.3627 145.125 57.4039 145.165 57.4453 145.205C57.4851 145.247 57.5263 145.287 57.5676 145.328C57.6075 145.37 57.6488 145.41 57.6902 145.45C57.73 145.492 57.7711 145.532 57.8123 145.572C57.8523 145.615 57.8936 145.654 57.935 145.695C57.9748 145.737 58.0159 145.777 58.0571 145.817C58.097 145.859 58.1382 145.899 58.1796 145.94C58.2195 145.982 58.2608 146.022 58.3022 146.062C58.342 146.104 58.3831 146.144 58.4243 146.184C58.4643 146.227 58.5056 146.266 58.547 146.307C58.5868 146.349 58.6279 146.389 58.6691 146.429C58.709 146.471 58.7502 146.511 58.7916 146.552C58.8315 146.594 58.8728 146.634 58.9142 146.674C58.954 146.716 58.9951 146.756 59.0363 146.796C59.0763 146.839 59.1176 146.878 59.159 146.919C59.1988 146.961 59.2399 147.001 59.2811 147.041C59.321 147.083 59.3622 147.123 59.4036 147.164C59.4435 147.206 59.4848 147.246 59.5262 147.286C59.566 147.328 59.6071 147.368 59.6483 147.408C59.6883 147.451 59.7296 147.49 59.771 147.531C59.8108 147.573 59.8519 147.613 59.8931 147.653C59.933 147.695 59.9742 147.735 60.0156 147.776C60.0555 147.818 60.0968 147.858 60.1382 147.898C60.178 147.94 60.2191 147.98 60.2603 148.02C60.3003 148.063 60.3416 148.102 60.383 148.143C60.4228 148.185 60.4639 148.225 60.5051 148.265C60.545 148.307 60.5862 148.347 60.6276 148.388C60.6675 148.43 60.7088 148.47 60.7502 148.51C60.79 148.552 60.8311 148.592 60.8723 148.632C60.9123 148.675 60.9536 148.714 60.995 148.755C61.0348 148.797 61.0759 148.837 61.1171 148.877C61.157 148.919 61.1982 148.959 61.2396 149C61.2795 149.042 61.3207 149.082 61.3621 149.122C61.4019 149.164 61.4431 149.204 61.4844 149.245C61.5244 149.287 61.5656 149.326 61.607 149.367C61.6468 149.409 61.6879 149.449 61.7291 149.489C61.769 149.531 61.8102 149.571 61.8516 149.612C61.8915 149.654 61.9327 149.694 61.9741 149.734C62.0139 149.776 62.0551 149.816 62.0964 149.857C62.1364 149.899 62.1776 149.938 62.219 149.979C62.2588 150.021 62.2999 150.061 62.3411 150.101C62.381 150.143 62.4222 150.183 62.4636 150.224C62.5035 150.266 62.5447 150.306 62.5861 150.346C62.6259 150.388 62.6671 150.428 62.7084 150.469C62.7484 150.511 62.7896 150.55 62.831 150.591C62.8708 150.633 62.9119 150.673 62.9531 150.713C62.993 150.755 63.0342 150.795 63.0756 150.836C63.1155 150.878 63.1567 150.918 63.1981 150.958C63.2379 151 63.2791 151.04 63.3204 151.081C63.3604 151.123 63.4016 151.162 63.443 151.203C63.4828 151.245 63.5239 151.285 63.5651 151.325C63.605 151.367 63.6462 151.407 63.6876 151.448C63.7275 151.49 63.7687 151.53 63.8101 151.57C63.8499 151.612 63.8911 151.652 63.9324 151.693C63.9724 151.735 64.0136 151.774 64.055 151.815C64.0948 151.857 64.1359 151.897 64.1771 151.937C64.217 151.979 64.2582 152.019 64.2996 152.06C64.3395 152.102 64.3807 152.142 64.4221 152.182C64.4619 152.224 64.5031 152.264 64.5444 152.305C64.5844 152.347 64.6256 152.386 64.667 152.427C64.7068 152.469 64.7479 152.509 64.7891 152.549C64.829 152.591 64.8702 152.631 64.9116 152.672C64.9515 152.714 64.9927 152.754 65.0341 152.794C65.0739 152.836 65.1151 152.876 65.1564 152.917C65.1964 152.959 65.2376 152.998 65.279 153.039C65.3188 153.081 65.3599 153.121 65.4011 153.161C65.441 153.203 65.4822 153.243 65.5236 153.284C65.5635 153.326 65.6047 153.366 65.6461 153.406C65.6859 153.448 65.7271 153.488 65.7684 153.529C65.8083 153.571 65.8496 153.61 65.891 153.651C65.9308 153.693 65.9719 153.733 66.0131 153.773C66.053 153.815 66.0942 153.855 66.1356 153.896C66.1755 153.938 66.2167 153.978 66.2581 154.018C66.2979 154.06 66.3391 154.1 66.3804 154.141C66.4203 154.183 66.4616 154.222 66.503 154.263C66.5428 154.305 66.5839 154.345 66.6251 154.385C66.665 154.427 66.7062 154.467 66.7476 154.508C66.7875 154.55 66.8287 154.59 66.8701 154.63C66.9099 154.672 66.9511 154.712 66.9924 154.753C67.0323 154.795 67.0736 154.834 67.115 154.875C67.1548 154.917 67.1959 154.957 67.2371 154.997C67.277 155.039 67.3182 155.079 67.3596 155.12C67.3995 155.162 67.4407 155.202 67.4821 155.242C67.5219 155.284 67.5631 155.324 67.6044 155.365C67.6443 155.407 67.6856 155.446 67.727 155.487C67.7668 155.529 67.8079 155.569 67.8491 155.609C67.889 155.651 67.9302 155.691 67.9716 155.732C68.0115 155.774 68.0527 155.814 68.0941 155.854C68.1339 155.896 68.1751 155.936 68.2164 155.977C68.2563 156.019 68.2976 156.058 68.339 156.099C68.3788 156.141 68.4199 156.181 68.4611 156.221C68.501 156.263 68.5422 156.303 68.5836 156.344C68.6235 156.386 68.6647 156.426 68.7061 156.466C68.7459 156.508 68.7871 156.548 68.8284 156.589C68.8683 156.631 68.9096 156.67 68.951 156.711C68.9908 156.753 69.0319 156.793 69.0731 156.833C69.113 156.875 69.1542 156.915 69.1956 156.956C69.2355 156.998 69.2767 157.038 69.3181 157.078C69.3579 157.12 69.3991 157.16 69.4404 157.201C69.4803 157.243 69.5216 157.282 69.563 157.323C69.6028 157.365 69.6439 157.405 69.6851 157.445C69.725 157.487 69.7662 157.527 69.8076 157.568C69.8475 157.61 69.8887 157.65 69.9301 157.69C69.9699 157.732 70.0111 157.772 70.0524 157.813C70.0923 157.855 70.1336 157.894 70.175 157.935C70.2148 157.977 70.2559 158.017 70.2971 158.057C70.337 158.099 70.3782 158.139 70.4196 158.18C70.4595 158.222 70.5007 158.262 70.5421 158.302C70.5819 158.344 70.6231 158.384 70.6644 158.425C70.7043 158.467 70.7456 158.506 70.787 158.547C70.8268 158.589 70.8679 158.629 70.9091 158.669C70.949 158.711 70.9902 158.751 71.0316 158.792C71.0715 158.834 71.1127 158.874 71.1541 158.914C71.1939 158.956 71.2351 158.996 71.2764 159.037C71.3163 159.079 71.3576 159.118 71.399 159.159C71.4388 159.201 71.4799 159.241 71.5211 159.281C71.561 159.323 71.6022 159.363 71.6436 159.404C71.6835 159.446 71.7247 159.486 71.7661 159.526C71.8059 159.568 71.8471 159.608 71.8884 159.649C71.9283 159.691 71.9696 159.73 72.011 159.771C72.0508 159.813 72.0919 159.853 72.1331 159.893C72.173 159.935 72.2142 159.975 72.2556 160.016C72.2955 160.058 72.3367 160.098 72.3781 160.138C72.4179 160.18 72.4591 160.22 72.5004 160.261C72.5403 160.303 72.5816 160.342 72.623 160.383C72.6628 160.425 72.7039 160.465 72.7451 160.505C72.7851 160.547 72.8264 160.587 72.8678 160.628C72.9076 160.67 72.9487 160.71 72.9899 160.75C73.0298 160.792 73.071 160.832 73.1124 160.873C73.1523 160.915 73.1936 160.954 73.235 160.995C73.2748 161.037 73.3159 161.077 73.3571 161.117C73.3971 161.159 73.4384 161.199 73.4798 161.24C73.5196 161.282 73.5607 161.322 73.6019 161.362C73.6418 161.404 73.683 161.444 73.7244 161.485C73.7643 161.527 73.8056 161.566 73.847 161.607C73.8868 161.649 73.9279 161.689 73.9691 161.729C74.0091 161.771 74.0504 161.811 74.0918 161.852C74.1316 161.894 74.1727 161.934 74.2139 161.974C74.2538 162.016 74.295 162.056 74.3364 162.097C74.3763 162.139 74.4176 162.178 74.459 162.219C74.4988 162.261 74.5399 162.301 74.5811 162.341C74.6211 162.383 74.6624 162.423 74.7038 162.464C74.7436 162.506 74.7847 162.546 74.8259 162.586C74.8658 162.628 74.907 162.668 74.9484 162.709C74.9883 162.751 75.0296 162.79 75.071 162.831C75.9246 163.733 77.1154 164.299 78.4391 164.299H225.047C227.64 164.299 229.743 162.146 229.743 159.491V154.829C229.743 153.466 265.566 148.404 264.676 147.529Z" fill="#1545BB"/>
</g>
</g>
<path d="M136.751 46.625H40.3527C38.3959 46.625 36.8096 48.1712 36.8096 50.0785V61.1296C36.8096 63.0368 38.3959 64.583 40.3527 64.583H136.751C138.707 64.583 140.294 63.0368 140.294 61.1296V50.0785C140.294 48.1712 138.707 46.625 136.751 46.625Z" fill="#5187DF"/>
<path d="M43.7666 55.6042C43.7666 54.343 44.789 53.3206 46.0502 53.3206H97.1378C98.399 53.3206 99.4214 54.343 99.4214 55.6042C99.4214 56.8654 98.399 57.8878 97.1378 57.8878H46.0502C44.789 57.8878 43.7666 56.8654 43.7666 55.6042Z" fill="#1545BB"/>
<path d="M188.321 72.9739H41.5117C38.9148 72.9739 36.8096 75.1264 36.8096 77.7816V122.666C36.8096 125.321 38.9148 127.474 41.5117 127.474H188.321C190.918 127.474 193.023 125.321 193.023 122.666V77.7816C193.023 75.1264 190.918 72.9739 188.321 72.9739Z" fill="#5187DF"/>
<path d="M119.545 49.366C119.821 49.366 120.045 49.5898 120.045 49.866V61.3425C120.045 61.6186 119.821 61.8425 119.545 61.8425C119.269 61.8425 119.045 61.6186 119.045 61.3425V49.866C119.045 49.5898 119.269 49.366 119.545 49.366Z" fill="#1545BB"/>
<path d="M128.953 52.0574C129.181 52.0574 129.381 52.1431 129.552 52.3142L133.488 56.2498C133.645 56.4066 133.724 56.6069 133.724 56.8494C133.724 57.0916 133.645 57.2912 133.488 57.448C133.331 57.6049 133.131 57.6833 132.889 57.6833C132.646 57.6833 132.447 57.6048 132.29 57.448L128.953 54.1111L125.616 57.448C125.459 57.6049 125.259 57.6833 125.017 57.6833C124.774 57.6833 124.575 57.6048 124.418 57.448C124.261 57.2912 124.183 57.0916 124.183 56.8494C124.183 56.6069 124.261 56.4066 124.418 56.2498L128.354 52.3142C128.526 52.1431 128.725 52.0574 128.953 52.0574Z" fill="#1545BB"/>
<path fill-rule="evenodd" clip-rule="evenodd" d="M113.431 51.9373C113.676 51.9373 113.909 52.0217 114.091 52.2039C114.273 52.3861 114.357 52.6185 114.357 52.864C114.357 53.1097 114.273 53.3429 114.091 53.5251L112.012 55.6042L114.091 57.6833C114.273 57.8657 114.357 58.0988 114.357 58.3445C114.357 58.5901 114.273 58.8224 114.091 59.0046C113.909 59.1868 113.676 59.2712 113.431 59.2712C113.185 59.2712 112.952 59.1869 112.77 59.0046L110.69 56.9255L108.611 59.0046C108.429 59.1869 108.196 59.2712 107.95 59.2712C107.705 59.2711 107.472 59.1868 107.29 59.0046C107.108 58.8224 107.024 58.59 107.023 58.3445C107.023 58.0988 107.108 57.8657 107.29 57.6833L109.369 55.6042L107.29 53.5251C107.108 53.3429 107.023 53.1097 107.023 52.864C107.024 52.6185 107.108 52.3861 107.29 52.2039C107.472 52.0216 107.705 51.9374 107.95 51.9373C108.196 51.9373 108.429 52.0215 108.611 52.2039L110.69 54.283L112.77 52.2039C112.952 52.0215 113.185 51.9373 113.431 51.9373Z" fill="#1545BB"/>
<rect opacity="0.33" x="36.8096" y="94.3418" width="156.214" height="14.3438" fill="#97BEFF"/>
<path opacity="0.6" d="M47.0234 87.7239C47.0234 86.4812 47.9748 85.4739 49.1484 85.4739H117.648C118.822 85.4739 119.773 86.4812 119.773 87.7239C119.773 88.9666 118.822 89.9739 117.648 89.9739H49.1484C47.9748 89.9739 47.0234 88.9666 47.0234 87.7239Z" fill="#1545BB"/>
<path opacity="0.6" d="M47.0234 101.474C47.0234 100.231 47.9748 99.2239 49.1484 99.2239H138.898C140.072 99.2239 141.023 100.231 141.023 101.474C141.023 102.717 140.072 103.724 138.898 103.724H49.1484C47.9748 103.724 47.0234 102.717 47.0234 101.474Z" fill="#1545BB"/>
<path opacity="0.6" d="M47.0234 116.224C47.0234 114.981 47.9748 113.974 49.1484 113.974H128.898C130.072 113.974 131.023 114.981 131.023 116.224C131.023 117.467 130.072 118.474 128.898 118.474H49.1484C47.9748 118.474 47.0234 117.467 47.0234 116.224Z" fill="#1545BB"/>
</svg>
