<svg xmlns="http://www.w3.org/2000/svg" width="584" height="145" fill="none" viewBox="0 0 584 145"><path fill="#286ad8" d="M438.124 145V0h72.335c40.132 0 72.665 32.46 72.665 72.5S550.591 145 510.459 145z"/><path fill="#286ad8" d="M333.731 145h105.125c0-80.08-64.918-145-145-145v105.125c0 22.023 17.853 39.875 39.875 39.875M254.433 0c21.773 0 39.423 17.853 39.423 39.875V145H0V39.875C0 17.853 17.433 0 38.937 0z"/><mask id="a" width="294" height="145" x="0" y="0" maskUnits="userSpaceOnUse" style="mask-type:alpha"><path fill="#286ad8" d="M254.433 0c21.773 0 39.423 17.853 39.423 39.875V145H0V39.875C0 17.853 17.433 0 38.937 0z"/></mask><g mask="url(#a)"><path fill="#1545bb" d="M264.676 147.529c33.721 33.721-3.35-3.352-36.505-36.507q-.06-.063-.122-.123l-.123-.122q-.06-.062-.122-.123-.06-.062-.123-.122-.06-.062-.122-.122-.06-.063-.122-.123l-.123-.122q-.06-.062-.122-.123-.06-.062-.123-.122-.06-.062-.122-.122-.06-.063-.122-.123l-.123-.122q-.06-.062-.122-.123-.06-.062-.123-.122-.06-.062-.122-.122-.06-.063-.122-.123l-.123-.122q-.06-.062-.122-.123-.06-.062-.123-.122-.06-.062-.122-.122-.06-.063-.122-.123l-.123-.122q-.06-.062-.122-.123-.06-.062-.123-.122-.06-.062-.122-.122-.06-.063-.122-.123l-.123-.122q-.06-.062-.122-.123-.06-.062-.123-.122-.06-.062-.122-.122-.06-.063-.122-.123l-.123-.122q-.06-.062-.122-.123-.06-.062-.123-.122-.06-.062-.122-.122-.06-.063-.122-.123l-.123-.122q-.06-.062-.122-.123-.06-.062-.123-.122-.06-.062-.122-.122-.06-.063-.122-.123l-.123-.122q-.06-.062-.122-.123-.06-.062-.123-.122-.06-.062-.122-.122-.06-.063-.122-.123l-.123-.122q-.06-.062-.122-.123-.06-.062-.123-.122-.06-.062-.122-.122-.06-.063-.122-.123l-.123-.122q-.06-.062-.122-.123-.06-.062-.123-.122-.06-.062-.122-.122-.06-.063-.122-.123l-.123-.122q-.06-.062-.122-.123-.06-.062-.123-.122-.06-.062-.122-.122-.06-.063-.122-.123l-.123-.122q-.06-.062-.122-.123-.06-.062-.123-.122-.06-.062-.122-.122-.06-.063-.122-.123l-.123-.122q-.06-.062-.122-.123-.06-.062-.123-.122-.06-.062-.122-.122-.06-.063-.122-.123l-.123-.122q-.06-.062-.122-.123-.06-.062-.123-.122-.06-.062-.122-.122-.06-.063-.122-.123l-.123-.122q-.06-.062-.122-.123-.06-.062-.123-.122-.06-.062-.122-.122-.06-.063-.122-.123l-.123-.122q-.06-.062-.122-.123-.06-.062-.123-.122-.06-.062-.122-.122-.06-.063-.122-.123l-.123-.122q-.06-.062-.122-.123-.06-.062-.123-.122-.06-.062-.122-.122-.06-.063-.122-.123-.06-.062-.123-.122-.06-.062-.122-.123-.06-.062-.123-.122-.06-.062-.122-.122-.06-.063-.122-.123-.06-.062-.123-.122-.06-.062-.122-.123-.06-.062-.123-.122-.06-.062-.122-.122-.06-.063-.122-.123-.06-.062-.123-.122-.06-.062-.122-.123-.06-.062-.123-.122-.06-.062-.122-.122-.06-.063-.122-.123-.06-.062-.123-.122-.06-.062-.122-.123-.06-.062-.123-.122-.06-.062-.122-.122-.06-.063-.122-.123-.06-.062-.123-.122-.06-.062-.122-.123-.06-.062-.123-.122-.06-.062-.122-.123-.06-.062-.122-.122-.06-.062-.123-.122-.06-.062-.122-.123-.06-.062-.123-.122-.06-.062-.122-.123-.06-.062-.122-.122-.06-.062-.123-.122-.06-.062-.122-.123-.06-.062-.123-.122-.06-.062-.122-.122-.06-.063-.122-.123-.06-.062-.123-.122-.06-.062-.122-.123-.06-.062-.123-.122-.06-.062-.122-.123-.06-.062-.122-.122-.06-.062-.123-.122-.06-.062-.122-.123-.06-.062-.123-.122-.06-.062-.122-.123-.06-.062-.122-.122-.06-.062-.123-.122-.06-.062-.122-.123-.06-.062-.123-.122-.06-.062-.122-.123-.06-.062-.122-.122-.06-.062-.123-.122-.06-.062-.122-.123-.06-.062-.123-.122-.06-.062-.122-.123-.06-.062-.122-.122-.06-.062-.123-.122-.06-.062-.122-.123-.06-.062-.123-.122-.06-.062-.122-.123-.06-.062-.122-.122-.06-.062-.123-.122-.06-.062-.122-.123-.06-.062-.123-.122-.06-.062-.122-.123-.06-.062-.122-.122-.06-.062-.123-.122-.06-.062-.122-.123-.06-.062-.123-.122-.06-.062-.122-.123-.06-.062-.122-.122-.06-.062-.123-.122-.06-.062-.122-.123-.06-.062-.123-.122-.06-.062-.122-.122-.06-.063-.122-.123-.06-.062-.123-.122-.06-.062-.122-.123-.06-.062-.123-.122-.06-.062-.122-.123-.06-.062-.122-.122-.06-.062-.123-.122-.06-.062-.122-.123-.06-.062-.123-.122-.06-.062-.122-.123-.06-.062-.122-.122-.06-.062-.123-.122-.06-.062-.122-.123-.06-.062-.123-.122-.06-.062-.122-.122-.06-.063-.122-.123l-.123-.122q-.06-.062-.122-.123-.06-.062-.123-.122-.06-.062-.122-.123-.06-.062-.122-.122l-.123-.122q-.06-.062-.122-.123-.06-.062-.123-.122-.06-.062-.122-.123-.06-.062-.122-.122l-.123-.122q-.06-.062-.122-.123-.06-.062-.123-.122-.06-.062-.122-.123-.06-.062-.122-.122l-.123-.122q-.06-.062-.122-.123-.06-.062-.123-.122-.06-.062-.122-.123-.06-.062-.122-.122l-.123-.122q-.06-.062-.122-.123-.06-.062-.123-.122-.06-.062-.122-.123-.06-.062-.122-.122l-.123-.122q-.06-.062-.122-.123-.06-.062-.123-.122-.06-.062-.122-.123-.06-.062-.122-.122l-.123-.122q-.06-.062-.122-.123-.06-.062-.123-.122-.06-.062-.122-.123-.06-.062-.122-.122l-.123-.122q-.06-.062-.122-.123-.06-.062-.123-.122-.06-.062-.122-.122-.06-.063-.122-.123l-.123-.122q-.06-.062-.122-.123-.06-.062-.123-.122-.06-.062-.122-.123-.06-.062-.122-.122l-.123-.122q-.06-.062-.122-.123-.06-.062-.123-.122-.06-.062-.122-.123-.06-.062-.122-.122l-.123-.122q-.06-.062-.122-.123-.06-.062-.123-.122-.06-.062-.122-.123-.06-.062-.122-.122-.06-.062-.123-.122-.06-.062-.122-.123-.06-.062-.123-.122-.06-.062-.122-.123-.06-.062-.122-.122-.06-.062-.123-.122-.06-.062-.122-.123-.06-.062-.123-.122-.06-.062-.122-.123-.06-.062-.122-.122-.06-.062-.123-.122-.06-.062-.122-.123-.06-.062-.123-.122-.06-.062-.122-.123-.06-.062-.122-.122-.06-.062-.123-.122-.06-.062-.122-.123-.06-.062-.123-.122-.06-.062-.122-.123-.06-.062-.122-.122-.06-.062-.123-.122-.06-.062-.122-.123-.06-.062-.123-.122-.06-.062-.122-.122-.06-.063-.122-.123-.06-.062-.123-.122-.06-.062-.122-.123-.06-.062-.123-.122-.06-.062-.122-.123-.06-.062-.122-.122-.06-.062-.123-.122-.06-.062-.122-.123-.06-.062-.123-.122-.06-.062-.122-.123-.06-.062-.122-.122-.06-.062-.123-.122-.06-.062-.122-.123-.06-.062-.123-.122-.06-.062-.122-.122-.06-.063-.122-.123-.06-.062-.123-.122-.06-.062-.122-.123-.06-.062-.123-.122-.06-.062-.122-.123-.06-.062-.122-.122-.06-.062-.123-.122-.06-.062-.122-.123-.06-.062-.123-.122-.06-.062-.122-.123-.06-.062-.122-.122-.06-.062-.123-.122-.06-.062-.122-.123-.06-.062-.123-.122-.06-.062-.122-.123-.06-.062-.122-.122-.06-.062-.123-.122-.06-.062-.122-.123-.06-.062-.123-.122-.06-.062-.122-.123-.06-.062-.122-.122-.06-.062-.123-.122-.06-.062-.122-.123a4.62 4.62 0 0 0-3.369-1.467l-23.819-.105c-.033-.039-.074-.067-.109-.104-.038-.044-.082-.08-.122-.122-.038-.045-.083-.08-.123-.123-.038-.044-.082-.08-.122-.122-.038-.044-.082-.08-.123-.123-.038-.044-.082-.08-.122-.122-.038-.044-.082-.08-.122-.122-.038-.045-.083-.08-.123-.123-.038-.044-.082-.08-.122-.122-.038-.044-.082-.08-.123-.123-.038-.044-.082-.08-.122-.122-.038-.044-.082-.08-.122-.122-.038-.045-.083-.08-.123-.123-.038-.044-.082-.08-.122-.122-.038-.044-.082-.08-.123-.123-.038-.044-.082-.08-.122-.122-.038-.044-.082-.08-.122-.122-.038-.045-.083-.08-.123-.123-.038-.044-.082-.08-.122-.122-.038-.044-.082-.08-.123-.123-.038-.044-.082-.08-.122-.122-.038-.044-.082-.08-.122-.122-.038-.045-.083-.08-.123-.123-.038-.044-.082-.08-.122-.122-.038-.045-.082-.08-.123-.123-.038-.044-.082-.08-.122-.122-.038-.044-.082-.08-.122-.122-.038-.045-.083-.08-.123-.123-.038-.044-.082-.08-.122-.122-.038-.045-.082-.08-.123-.123-.038-.044-.082-.08-.122-.122-.038-.044-.082-.08-.122-.122-.038-.045-.083-.08-.123-.123-.038-.044-.082-.08-.122-.122-.038-.045-.082-.08-.123-.123-.038-.044-.082-.08-.122-.122-.038-.044-.082-.08-.122-.122-.038-.045-.083-.08-.123-.123-.038-.044-.082-.08-.122-.122-.038-.045-.082-.08-.123-.122-.038-.045-.082-.08-.122-.123-.038-.044-.082-.08-.122-.122-.038-.045-.083-.08-.123-.123-.038-.044-.082-.08-.122-.122-.038-.045-.082-.08-.123-.123-.038-.044-.082-.08-.122-.122-.038-.044-.082-.08-.122-.122-.038-.045-.083-.08-.123-.123-.038-.044-.082-.08-.122-.122-.038-.045-.082-.08-.123-.123-.038-.044-.082-.08-.122-.122-.038-.044-.082-.08-.122-.122-.038-.045-.083-.08-.123-.123-.038-.044-.082-.08-.122-.122-.038-.045-.082-.08-.123-.123-.038-.044-.082-.08-.122-.122-.038-.044-.082-.08-.122-.122-.038-.045-.083-.08-.123-.123-.038-.044-.082-.08-.122-.122-.038-.045-.082-.08-.123-.123-.038-.044-.082-.08-.122-.122-.038-.044-.082-.08-.122-.122-.038-.045-.083-.08-.123-.123-.038-.044-.082-.08-.122-.122-.038-.045-.082-.08-.123-.123-.038-.044-.082-.08-.122-.122-.038-.044-.082-.08-.122-.122-.038-.045-.083-.08-.123-.123-.038-.044-.082-.08-.122-.122-.038-.045-.082-.08-.123-.123-.038-.044-.082-.08-.122-.122-.038-.044-.082-.08-.122-.122-.038-.045-.083-.08-.123-.123-.038-.044-.082-.08-.122-.122-.038-.045-.082-.08-.123-.123-.038-.044-.082-.08-.122-.122-.038-.044-.082-.08-.122-.122-.038-.045-.083-.08-.123-.123-.038-.044-.082-.08-.122-.122-.038-.045-.082-.08-.123-.123-.038-.044-.082-.08-.122-.122-.038-.044-.082-.08-.122-.122-.038-.045-.083-.08-.123-.123-.038-.044-.082-.08-.122-.122-.038-.045-.082-.08-.123-.122-.038-.045-.082-.08-.122-.123-.038-.044-.082-.08-.122-.122-.038-.045-.083-.08-.123-.123-.038-.044-.082-.08-.122-.122-.038-.045-.082-.08-.123-.122-.038-.045-.082-.08-.122-.123-.038-.044-.082-.08-.122-.122-.038-.045-.083-.08-.123-.123-.038-.044-.082-.08-.122-.122-.038-.045-.082-.08-.123-.123-.038-.044-.082-.08-.122-.122-.038-.044-.082-.08-.122-.122-.038-.045-.083-.08-.123-.123-.038-.044-.082-.08-.122-.122-.038-.045-.082-.08-.123-.123-.038-.044-.082-.08-.122-.122-.038-.044-.082-.08-.122-.122-.038-.045-.083-.08-.123-.123-.038-.044-.082-.08-.122-.122-.038-.045-.082-.08-.123-.122-.038-.045-.082-.08-.122-.123-.038-.044-.082-.08-.122-.122-.038-.045-.083-.08-.123-.123-.038-.044-.082-.08-.122-.122-.038-.045-.082-.08-.123-.123-.038-.044-.082-.08-.122-.122-.038-.044-.082-.08-.122-.122-.038-.045-.083-.08-.123-.123-.038-.044-.082-.08-.122-.122-.038-.045-.082-.08-.123-.123-.038-.044-.082-.08-.122-.122-.038-.044-.082-.08-.122-.122-.038-.045-.083-.08-.123-.123-.038-.044-.082-.08-.122-.122-.038-.045-.082-.08-.123-.123-.038-.044-.082-.08-.122-.122-.038-.044-.082-.08-.122-.122-.038-.045-.083-.08-.123-.123-.038-.044-.082-.08-.122-.122-.038-.045-.082-.08-.123-.122-.038-.045-.082-.08-.122-.123-.038-.044-.082-.08-.122-.122-.038-.045-.083-.08-.123-.123-.038-.044-.082-.08-.122-.122-.038-.045-.082-.08-.123-.123-.038-.044-.082-.08-.122-.122-.038-.044-.082-.08-.122-.122-.038-.045-.083-.08-.123-.123-.038-.044-.082-.08-.122-.122-.038-.045-.082-.08-.123-.123-.038-.044-.082-.08-.122-.122-.038-.044-.082-.08-.122-.122-.038-.045-.083-.08-.123-.123-.038-.044-.082-.08-.122-.122-.038-.045-.082-.08-.123-.123-.038-.044-.082-.08-.122-.122-.038-.044-.082-.08-.122-.122-.038-.045-.083-.08-.123-.123-.038-.044-.082-.08-.122-.122-.038-.045-.082-.08-.123-.122-.038-.045-.082-.081-.122-.123-.038-.044-.082-.08-.122-.122-.038-.045-.083-.08-.123-.123-.038-.044-.082-.08-.122-.122-.038-.045-.082-.08-.123-.123-.038-.044-.082-.08-.122-.122-.038-.044-.082-.08-.122-.122-.038-.045-.083-.08-.123-.123-.038-.044-.082-.08-.122-.122-.038-.045-.082-.08-.123-.123-.038-.044-.082-.08-.122-.122-.038-.044-.082-.08-.122-.122-.038-.045-.083-.08-.123-.123-.038-.044-.082-.08-.122-.122-.038-.045-.082-.08-.122-.123-.039-.044-.083-.08-.123-.122-.038-.044-.082-.08-.122-.122-.038-.045-.083-.08-.123-.123-.038-.044-.082-.08-.122-.122-.038-.045-.082-.08-.122-.122-.039-.045-.083-.081-.123-.123-.038-.044-.082-.08-.122-.122-.038-.045-.083-.08-.123-.123-.038-.044-.082-.08-.122-.122-.038-.045-.082-.08-.122-.123-.039-.044-.083-.08-.123-.122-.038-.044-.082-.08-.122-.122-.038-.045-.083-.08-.123-.123-.038-.044-.082-.08-.122-.122-.038-.045-.082-.08-.122-.123-.039-.044-.083-.08-.123-.122-.038-.044-.082-.08-.122-.122-.038-.045-.083-.08-.123-.123-.038-.044-.082-.08-.122-.122-.038-.045-.082-.08-.122-.122-.039-.045-.083-.081-.123-.123-.038-.044-.082-.08-.122-.122-.038-.045-.083-.08-.123-.123-.038-.044-.082-.08-.122-.122-.038-.045-.082-.08-.122-.122-.039-.045-.083-.081-.123-.123-.038-.044-.082-.08-.122-.122-.038-.045-.083-.08-.123-.123-.038-.044-.082-.08-.122-.122-.038-.045-.082-.08-.122-.123-.039-.044-.083-.08-.123-.122-.038-.044-.082-.08-.122-.122-.038-.045-.083-.08-.123-.123-.038-.044-.082-.08-.122-.122-.038-.045-.082-.08-.122-.123-.039-.044-.083-.08-.123-.122-.038-.044-.082-.08-.122-.122-.038-.045-.083-.08-.123-.123-.038-.044-.082-.08-.122-.122-.038-.045-.082-.08-.122-.122-.039-.045-.083-.081-.123-.123-.038-.044-.082-.08-.122-.122-.038-.045-.083-.08-.123-.123-.038-.044-.082-.08-.122-.122-.038-.045-.082-.08-.122-.123-.038-.044-.083-.08-.123-.122-.038-.044-.082-.08-.122-.122-.545-.636-1.57-1.031-2.407-1.031l-96.753.105c-1.658 0-3.002 1.546-3.002 3.453v11.051c0 1.012.385 1.914.988 2.545.038.045.082.08.122.122.038.045.083.081.123.123.038.044.082.08.122.123.038.044.083.08.123.122.038.044.082.08.122.122.038.045.082.08.122.122.038.045.083.081.123.123.038.044.082.08.122.123.038.044.082.08.122.122.039.044.083.08.123.123.038.044.082.08.122.121.038.045.083.081.123.123.038.044.082.08.122.123.038.044.083.08.123.122.038.044.082.08.122.123.038.044.082.08.122.121.038.045.083.081.123.123.038.044.082.08.122.123.038.044.083.08.123.122.038.044.082.08.122.123.038.044.082.08.122.122.038.044.083.08.123.122.038.044.082.08.122.123.038.044.082.08.123.122.038.044.082.08.122.123.038.044.082.08.122.121.038.045.083.081.123.123.038.044.082.08.122.123.038.044.082.08.122.122.039.044.083.08.123.123.038.044.082.08.122.121.038.045.083.081.123.123.038.045.082.08.122.122.038.045.082.08.123.123.038.044.082.08.122.123.038.044.082.08.122.122.038.044.083.08.123.122.038.045.082.08.122.122.038.045.082.08.123.123.038.044.082.08.122.123.038.044.082.08.122.121.038.045.083.081.123.123.038.045.082.08.122.122.038.045.082.08.123.123.038.044.082.08.122.122.038.045.082.08.122.122.038.045.083.081.123.123.038.045.082.08.122.122.038.045.082.08.122.123.039.044.083.08.123.123.038.044.082.08.122.121.038.045.083.081.123.123.038.045.082.08.122.122.038.045.082.08.123.123.038.044.082.08.122.122.038.045.082.08.122.123.038.044.083.08.123.122.038.045.082.08.122.122.038.045.082.08.123.123.038.044.082.08.122.122.038.045.082.08.122.123.038.044.083.08.123.122.038.045.082.08.122.122.038.045.082.08.122.123.039.044.083.08.123.122.038.045.082.08.122.123.038.044.083.08.123.122.038.045.082.08.122.122.038.045.082.08.122.123.039.044.083.08.123.122.038.045.082.08.122.123.038.044.083.08.123.122.038.045.082.08.122.122.038.045.082.08.123.123.038.044.082.08.122.122.037.044.08.079.12.12h-5.592c-2.593 0-4.696 2.152-4.696 4.807v44.885a4.84 4.84 0 0 0 1.45 3.463q.06.062.123.122.06.062.122.122.06.062.122.123.06.062.123.122.06.062.122.123.06.062.123.122.06.062.122.122.06.062.123.123.06.062.122.122.06.062.122.123.06.062.122.122.06.063.123.122.06.062.123.123.06.062.122.122.06.062.122.123.06.062.123.122.06.063.122.122.06.062.122.123.06.062.123.122.06.062.122.123.06.062.123.122.06.063.122.122.06.062.123.123.06.062.122.122.06.062.122.123.06.062.123.122.06.063.122.122.06.062.123.123.06.062.122.122.06.062.122.123.06.062.122.122.06.063.123.122.06.063.122.122.06.063.123.123.06.062.122.123.06.062.123.122.06.063.122.122.06.063.122.122.06.063.123.123.06.062.122.123.06.062.123.122.06.063.122.122.06.063.122.122.06.063.123.123.06.062.122.123.06.062.122.122.06.063.123.122.06.063.122.122.06.063.123.123.06.062.122.123.06.062.122.122.06.063.123.122.06.063.122.122.06.063.123.123.06.062.122.123.06.062.123.122.06.063.122.122.06.063.122.122.06.063.123.123.06.062.122.123.06.062.123.122.06.063.122.122.06.063.122.122.06.063.123.123.06.063.122.122.06.062.123.123.06.063.122.122.06.063.122.122.06.063.123.123.06.063.122.122.06.062.123.123.06.063.122.122.06.063.122.122.06.063.123.123.06.063.122.122.06.062.123.123.06.063.122.122.06.063.122.122.06.063.123.123.06.063.122.122.06.062.123.123.06.063.122.122.06.063.122.122.06.063.123.123.06.063.122.122.06.062.123.123.06.063.122.122.06.063.122.122.06.063.123.123.06.063.122.122.06.062.123.123.06.063.122.122.06.063.122.122.06.063.123.123.06.063.122.122.06.062.123.123.06.063.122.122.06.063.122.122.06.063.123.123.06.063.122.122.06.062.123.123.06.063.122.122.06.063.122.122.06.063.123.123.06.063.122.122.06.062.123.123.06.063.122.122.06.063.122.122.06.063.123.123.06.063.122.122.06.062.123.123.06.063.122.122.06.063.122.122.06.063.123.123.06.063.122.122.06.062.123.123.06.063.122.122.06.063.122.122.06.063.123.123.06.063.122.122.06.062.123.123.06.063.122.122.06.063.122.122.06.063.123.123.06.063.122.122.06.062.123.123.06.063.122.122.06.063.122.122.06.063.123.123.06.063.122.122.06.062.123.123.06.063.122.122.06.063.122.122.06.063.123.123.06.063.122.122.06.062.123.123.06.063.122.122.06.063.122.122.06.063.123.123.06.063.122.122.06.062.123.123.06.063.122.122.06.063.122.122.06.063.123.123.06.063.122.122.06.062.123.123.06.063.122.122.06.063.122.122.06.063.123.123.06.063.122.122.06.062.123.123.06.063.122.122.06.063.122.122.06.063.123.123.06.063.122.122.06.062.123.123.06.063.122.122.06.063.122.122.06.063.123.123.06.063.122.122.06.062.123.123.06.063.122.122.06.063.122.122.06.063.123.123.06.063.122.122.06.062.123.123.06.063.122.122.06.063.122.122.06.063.123.123.06.063.122.122.06.062.123.123.06.063.122.122.06.063.122.122.06.063.123.123.06.063.122.122.06.062.123.123.06.063.122.122.06.063.122.122.06.063.123.123.06.063.122.122.06.062.123.123.06.063.122.122.06.063.122.122.06.063.123.123.06.063.122.122.06.062.123.123.06.063.122.122.06.062.122.123.06.062.123.122.06.063.122.122.06.062.123.123.06.063.122.122.06.062.122.123.06.062.123.122.06.063.122.122.06.062.123.123.06.063.122.122.06.062.122.123.06.062.123.122.06.063.122.122.06.062.123.123.06.063.122.122.06.062.122.123.06.062.123.122.06.063.122.122.06.062.123.123.06.063.122.122.06.062.122.123.06.062.123.122.06.063.122.122.06.062.123.123.06.063.122.122.06.062.122.123.06.062.123.122.06.063.122.122.06.062.123.123.06.063.122.122.06.062.122.123.06.062.123.122.06.063.122.122.06.062.123.123.06.063.122.122.06.062.122.123.06.062.123.122.06.063.122.122.06.062.123.123.06.063.122.122.06.062.122.123.06.062.123.122.06.063.122.122.06.062.123.123.06.063.122.122.06.062.122.123.06.062.123.122.06.063.122.122.06.062.123.123.06.063.122.122.06.062.122.123.06.062.123.122.06.063.122.122.06.062.123.123.06.063.122.122.06.062.122.123.06.062.123.122.06.063.122.122.06.062.123.123.06.063.122.122.06.062.122.123.06.062.123.122.06.063.122.122.06.062.123.123.06.063.122.122.06.062.122.123.06.062.123.122.06.063.122.122.06.062.123.123.06.063.122.122.06.062.122.123.06.062.123.122.06.063.122.122.06.062.123.123.06.063.122.122.06.062.122.123.06.062.123.122.06.063.122.122.06.062.123.123.06.063.122.122.06.062.122.123.06.062.123.122.06.063.122.122.06.062.123.123.06.063.122.122.06.062.122.123.06.062.123.122.06.063.122.122.06.062.123.123.06.063.122.122.06.062.122.123.06.062.123.122.06.063.122.122.06.062.123.123.06.063.122.122.06.062.122.123.06.062.123.122.06.063.122.122.06.062.123.123.06.063.122.122.06.062.122.123.06.062.123.122.06.063.122.122.06.062.123.123.06.063.122.122.06.062.122.123.06.062.123.122.06.063.122.122.06.062.123.123.06.063.122.122.06.062.122.123.06.062.123.122a4.62 4.62 0 0 0 3.368 1.468h146.608c2.593 0 4.696-2.153 4.696-4.808v-4.662c0-1.363 35.823-6.425 34.933-7.3" opacity=".8" style="mix-blend-mode:multiply"/></g><path fill="#5187df" d="M136.751 46.625H40.353c-1.957 0-3.543 1.546-3.543 3.453V61.13c0 1.907 1.586 3.453 3.543 3.453h96.398c1.956 0 3.543-1.546 3.543-3.453V50.078c0-1.907-1.587-3.453-3.543-3.453"/><path fill="#1545bb" d="M43.767 55.604a2.284 2.284 0 0 1 2.283-2.283h51.088a2.284 2.284 0 1 1 0 4.567H46.05a2.284 2.284 0 0 1-2.283-2.284"/><path fill="#5187df" d="M188.321 72.974H41.511c-2.596 0-4.701 2.152-4.701 4.808v44.884c0 2.655 2.105 4.808 4.702 4.808H188.32c2.597 0 4.702-2.153 4.702-4.808V77.782c0-2.656-2.105-4.808-4.702-4.808"/><path fill="#1545bb" d="M119.545 49.366a.5.5 0 0 1 .5.5v11.477a.5.5 0 0 1-1 0V49.866a.5.5 0 0 1 .5-.5m9.408 2.691q.342 0 .599.257l3.936 3.936a.8.8 0 0 1 .236.6.8.8 0 0 1-.236.598.8.8 0 0 1-.599.235.8.8 0 0 1-.599-.235l-3.337-3.337-3.337 3.337a.8.8 0 0 1-.599.235.8.8 0 0 1-.599-.235.8.8 0 0 1-.235-.599q0-.363.235-.6l3.936-3.935a.82.82 0 0 1 .599-.257"/><path fill="#1545bb" fill-rule="evenodd" d="M113.431 51.937a.913.913 0 0 1 .926.927.92.92 0 0 1-.266.661l-2.079 2.08 2.079 2.078a.92.92 0 0 1 .266.661.9.9 0 0 1-.266.66.9.9 0 0 1-.66.267.9.9 0 0 1-.661-.266l-2.08-2.08-2.079 2.08a.9.9 0 0 1-.661.266.914.914 0 0 1-.927-.927c0-.245.085-.478.267-.66l2.079-2.08-2.079-2.079a.92.92 0 0 1-.267-.661.913.913 0 0 1 .927-.927c.246 0 .479.085.661.267l2.079 2.079 2.08-2.08a.9.9 0 0 1 .661-.266" clip-rule="evenodd"/><path fill="#97beff" d="M36.81 94.342h156.214v14.344H36.81z" opacity=".33"/><path fill="#1545bb" d="M47.023 87.724c0-1.243.952-2.25 2.125-2.25h68.5c1.174 0 2.125 1.007 2.125 2.25s-.951 2.25-2.125 2.25h-68.5c-1.173 0-2.125-1.007-2.125-2.25m0 13.75c0-1.243.952-2.25 2.125-2.25h89.75c1.174 0 2.125 1.007 2.125 2.25s-.951 2.25-2.125 2.25h-89.75c-1.173 0-2.125-1.007-2.125-2.25m0 14.75c0-1.243.952-2.25 2.125-2.25h79.75c1.174 0 2.125 1.007 2.125 2.25s-.951 2.25-2.125 2.25h-79.75c-1.173 0-2.125-1.007-2.125-2.25" opacity=".6"/></svg>