<svg xmlns="http://www.w3.org/2000/svg" width="272" height="143" fill="none" viewBox="0 0 272 143"><rect width="272" height="143" fill="#eff6fb" rx="8"/><g filter="url(#a)"><rect width="227" height="73.239" x="22.986" y="49.761" fill="#fff" rx="5"/></g><path fill="#fff" d="m183.849 17-150.698.575c-5.606 0-10.151 4.186-10.151 9.35v8.726C23 40.814 27.545 45 33.151 45l150.698-.575c5.606 0 10.151-4.186 10.151-9.35V26.35c0-5.163-4.545-9.349-10.151-9.349"/><path stroke="#457" stroke-opacity=".667" d="M183.849 17.5c5.369 0 9.651 4 9.651 8.85v8.725c0 4.85-4.282 8.85-9.651 8.85h-.002l-150.697.574c-5.369 0-9.65-4-9.65-8.849v-8.725c0-4.85 4.282-8.85 9.651-8.85h.002z"/><path fill="#457aa5" d="M33 31a3 3 0 0 1 3-3h81a3 3 0 1 1 0 6H36a3 3 0 0 1-3-3"/><path fill="#ebebe9" d="M23 76h227v24H23z"/><path fill="#a7a9ab" d="M33 88a3 3 0 0 1 3-3h134.5a3 3 0 1 1 0 6H36a3 3 0 0 1-3-3m0 23a3 3 0 0 1 3-3h110a3 3 0 1 1 0 6H36a3 3 0 0 1-3-3m0-48a3 3 0 0 1 3-3h81a3 3 0 1 1 0 6H36a3 3 0 0 1-3-3"/><path fill="#457aa5" stroke="#457aa5" stroke-width=".45" d="M157.116 26.892a.855.855 0 0 1 .875.875c0 .242-.08.457-.249.625l-3.108 3.108 3.108 3.108a.85.85 0 0 1 .249.625c0 .242-.08.457-.249.626a.86.86 0 0 1-.626.249.86.86 0 0 1-.625-.25l-3.108-3.107-3.108 3.108a.85.85 0 0 1-.625.249.86.86 0 0 1-.626-.25.86.86 0 0 1-.249-.625c0-.242.081-.457.249-.625l3.108-3.108-3.108-3.108a.86.86 0 0 1-.249-.625.86.86 0 0 1 .249-.626.86.86 0 0 1 .626-.249c.243 0 .457.08.625.25l3.108 3.107 3.108-3.108a.86.86 0 0 1 .625-.249Z"/><path stroke="#a7a9ab" stroke-linecap="round" d="M165.267 23.5v16"/><path fill="#457aa5" d="m178.268 29.465-4.548 4.547q-.32.32-.816.32t-.816-.32-.32-.816.32-.816l5.363-5.363q.35-.35.817-.35t.816.35l5.363 5.363q.321.321.321.816t-.321.816-.816.32q-.496 0-.816-.32z"/><defs><filter id="a" width="237" height="83.239" x="17.986" y="48.761" color-interpolation-filters="sRGB" filterUnits="userSpaceOnUse"><feFlood flood-opacity="0" result="BackgroundImageFix"/><feColorMatrix in="SourceAlpha" result="hardAlpha" values="0 0 0 0 0 0 0 0 0 0 0 0 0 0 0 0 0 0 127 0"/><feMorphology in="SourceAlpha" radius="1" result="effect1_dropShadow_141_674"/><feOffset dy="4"/><feGaussianBlur stdDeviation="3"/><feComposite in2="hardAlpha" operator="out"/><feColorMatrix values="0 0 0 0 0.105882 0 0 0 0 0.105882 0 0 0 0 0.105882 0 0 0 0.01 0"/><feBlend in2="BackgroundImageFix" result="effect1_dropShadow_141_674"/><feColorMatrix in="SourceAlpha" result="hardAlpha" values="0 0 0 0 0 0 0 0 0 0 0 0 0 0 0 0 0 0 127 0"/><feMorphology in="SourceAlpha" radius="1" result="effect2_dropShadow_141_674"/><feOffset dy="4"/><feGaussianBlur stdDeviation="3"/><feComposite in2="hardAlpha" operator="out"/><feColorMatrix values="0 0 0 0 0.105882 0 0 0 0 0.105882 0 0 0 0 0.105882 0 0 0 0.1 0"/><feBlend in2="effect1_dropShadow_141_674" result="effect2_dropShadow_141_674"/><feBlend in="SourceGraphic" in2="effect2_dropShadow_141_674" result="shape"/></filter></defs></svg>