<svg xmlns="http://www.w3.org/2000/svg" width="577" height="145" fill="none" viewBox="0 0 577 145"><path fill="#286ad8" d="M105.125 145H0C0 64.919 64.919 0 145 0v105.125C145 127.147 127.147 145 105.125 145"/><path fill="#286ad8" d="M289 0v145h-71.84C176.755 145 144 112.541 144 72.5S176.755 0 217.16 0zM530.835 74.25c18.018 0 32.625-14.607 32.625-32.626S548.853 9 530.835 9 498.21 23.606 498.21 41.624s14.607 32.625 32.625 32.625M576.491 145h-145V0z"/><path fill="#286ad8" d="M360.046 145c40.04 0 72.5-32.459 72.5-72.5S400.086.002 360.046.002s-72.5 32.46-72.5 72.5S320.005 145 360.046 145"/><path fill="#1545bb" d="M427.579 98.922c-7.367 18.815-22.369 33.799-41.195 41.143l-67.565-67.564 41.169-41.17z" opacity=".4" style="mix-blend-mode:multiply"/><path fill="#5187df" d="m355.555 72.5-18.368 18.367L318.819 72.5l18.368-18.368zm22.916-22.801L360.103 31.33 341.735 49.7l18.368 18.367zM341.735 95.3l18.368 18.368 18.368-18.368-18.368-18.368zm41.169-41.169L364.537 72.5l18.367 18.367L401.272 72.5z"/></svg>