<svg xmlns="http://www.w3.org/2000/svg" width="272" height="143" fill="none" viewBox="0 0 272 143"><rect width="272" height="143" fill="#eff6fb" rx="8"/><rect width="205.5" height="38.25" x="33.25" y="70.75" fill="#fff" stroke="#d0d0ce" rx="4.5"/><path fill="#457aa5" d="M212.25 99.875q-.825 0-1.412-.588a1.93 1.93 0 0 1-.588-1.412v-14q0-.825.588-1.412a1.92 1.92 0 0 1 1.412-.588h1v-1q0-.424.288-.713a.97.97 0 0 1 .712-.287.97.97 0 0 1 .713.287.97.97 0 0 1 .287.713v1h8v-1q0-.424.288-.713a.97.97 0 0 1 .712-.287.97.97 0 0 1 .713.287.97.97 0 0 1 .287.713v1h1q.825 0 1.413.588.587.587.587 1.412v14q0 .825-.587 1.412a1.93 1.93 0 0 1-1.413.588zm0-2h14v-10h-14zm0-12h14v-2h-14zm7 6a.97.97 0 0 1-.712-.287.97.97 0 0 1-.288-.713q0-.424.288-.713a.97.97 0 0 1 .712-.287.97.97 0 0 1 .713.287.97.97 0 0 1 .287.713.97.97 0 0 1-.287.713.97.97 0 0 1-.713.287m-4 0a.97.97 0 0 1-.712-.287.97.97 0 0 1-.288-.713q0-.424.288-.713a.97.97 0 0 1 .712-.287.97.97 0 0 1 .713.287.97.97 0 0 1 .287.713.97.97 0 0 1-.287.713.97.97 0 0 1-.713.287m8 0a.97.97 0 0 1-.712-.287.97.97 0 0 1-.288-.713q0-.424.288-.713a.97.97 0 0 1 .712-.287.97.97 0 0 1 .713.287.97.97 0 0 1 .287.713.97.97 0 0 1-.287.713.97.97 0 0 1-.713.287m-4 4a.97.97 0 0 1-.712-.287.97.97 0 0 1-.288-.713q0-.424.288-.713a.97.97 0 0 1 .712-.287.97.97 0 0 1 .713.287.97.97 0 0 1 .287.713.97.97 0 0 1-.287.713.97.97 0 0 1-.713.287m-4 0a.97.97 0 0 1-.712-.287.97.97 0 0 1-.288-.713q0-.424.288-.713a.97.97 0 0 1 .712-.287.97.97 0 0 1 .713.287.97.97 0 0 1 .287.713.97.97 0 0 1-.287.713.97.97 0 0 1-.713.287m8 0a.97.97 0 0 1-.712-.287.97.97 0 0 1-.288-.713q0-.424.288-.713a.97.97 0 0 1 .712-.287.97.97 0 0 1 .713.287.97.97 0 0 1 .287.713.97.97 0 0 1-.287.713.97.97 0 0 1-.713.287M38.145 39.991a3 3 0 0 1 3-3h61.3a3 3 0 1 1 0 6h-61.3a3 3 0 0 1-3-3"/><path fill="#bec0c1" d="M38.145 57a2.5 2.5 0 0 1 2.5-2.5h99a2.5 2.5 0 1 1 0 5h-99a2.5 2.5 0 0 1-2.5-2.5m2.738 41.144c0-.553.449-1.002 1.002-1.002H59.05a1.003 1.003 0 1 1 0 2.005H41.886a1.003 1.003 0 0 1-1.003-1.003m29.073 0c0-.553.449-1.002 1.003-1.002h17.163a1.003 1.003 0 0 1 0 2.005H70.96a1.003 1.003 0 0 1-1.003-1.003m-.987-11.421a1 1 0 0 1 .633 1.294L65.69 98.814a1.002 1.002 0 1 1-1.884-.683l3.913-10.797a1 1 0 0 1 1.252-.611m28.965.011a1 1 0 0 1 .633 1.294l-3.913 10.797a1.002 1.002 0 1 1-1.884-.683l3.912-10.797a1 1 0 0 1 1.252-.611m1.379 11.41c0-.553.448-1.002 1.002-1.002h34.68a1.003 1.003 0 1 1 0 2.005h-34.68a1.003 1.003 0 0 1-1.002-1.003"/></svg>