<svg width="272" height="144" viewBox="0 0 272 144" fill="none" xmlns="http://www.w3.org/2000/svg">
<rect y="0.525146" width="272" height="143" rx="8" fill="#EFF6FB"/>
<path d="M30 73.5251H239" stroke="#154973" stroke-width="2"/>
<path d="M52.0498 31.5251C52.0498 29.8683 53.393 28.5251 55.0498 28.5251H139.089C140.746 28.5251 142.089 29.8683 142.089 31.5251V31.5251C142.089 33.182 140.746 34.5251 139.089 34.5251H55.0498C53.3929 34.5251 52.0498 33.182 52.0498 31.5251V31.5251Z" fill="#CDDDE9"/>
<path d="M150.129 31.5251C150.129 29.8683 151.472 28.5251 153.129 28.5251H209.835C211.492 28.5251 212.835 29.8683 212.835 31.5251V31.5251C212.835 33.182 211.492 34.5251 209.835 34.5251H153.129C151.472 34.5251 150.129 33.182 150.129 31.5251V31.5251Z" fill="#CDDDE9"/>
<rect x="51" y="45.5251" width="136.458" height="6" rx="3" fill="#CDDDE9"/>
<path d="M52.0498 98.5251C52.0498 96.8683 53.393 95.5251 55.0498 95.5251H104.089C105.746 95.5251 107.089 96.8683 107.089 98.5251V98.5251C107.089 100.182 105.746 101.525 104.089 101.525H55.0498C53.393 101.525 52.0498 100.182 52.0498 98.5251V98.5251Z" fill="#CDDDE9"/>
<path d="M115.129 98.5251C115.129 96.8683 116.472 95.5251 118.129 95.5251H190.5C192.157 95.5251 193.5 96.8683 193.5 98.5251V98.5251C193.5 100.182 192.157 101.525 190.5 101.525H118.129C116.472 101.525 115.129 100.182 115.129 98.5251V98.5251Z" fill="#CDDDE9"/>
<path d="M51 115.525C51 113.868 52.3431 112.525 54 112.525H131C132.657 112.525 134 113.868 134 115.525V115.525C134 117.182 132.657 118.525 131 118.525H54C52.3431 118.525 51 117.182 51 115.525V115.525Z" fill="#CDDDE9"/>
</svg>
