<svg xmlns="http://www.w3.org/2000/svg" width="272" height="143" fill="none" viewBox="0 0 272 143"><rect width="272" height="143" fill="#eff6fb" rx="8"/><path stroke="#154973" stroke-width="2" d="M36 73h196"/><path fill="#cddde9" d="M37.05 31a3 3 0 0 1 3-3h84.039a3 3 0 1 1 0 6h-84.04a3 3 0 0 1-3-3m98.08 0a3 3 0 0 1 3-3h56.706a3 3 0 1 1 0 6h-56.706a3 3 0 0 1-3-3"/><rect width="136.458" height="6" x="36" y="45" fill="#cddde9" rx="3"/><path fill="#cddde9" d="M37.05 98a3 3 0 0 1 3-3h49.039a3 3 0 1 1 0 6h-49.04a3 3 0 0 1-3-3m63.08 0a3 3 0 0 1 3-3H175.5a3 3 0 1 1 0 6h-72.371a3 3 0 0 1-3-3M36 115a3 3 0 0 1 3-3h77a3 3 0 1 1 0 6H39a3 3 0 0 1-3-3"/></svg>