<svg width="580" height="145" viewBox="0 0 580 145" fill="none" xmlns="http://www.w3.org/2000/svg">
<g clip-path="url(#clip0_1348_5916)">
<path d="M13.03 41.62C13.03 23.6 27.64 9 45.65 9C63.66 9 78.27 23.61 78.27 41.62C78.27 59.64 63.66 74.24 45.65 74.24C27.64 74.24 13.03 59.64 13.03 41.62ZM507.34 0H435V37.35C433.71 16.51 416.59 0 395.66 0H145.08L144.08 0.92L0 145H507.34C547.47 145 580 112.54 580 72.5C580 32.46 547.47 0 507.34 0Z" fill="#286AD8"/>
</g>
<mask id="mask0_1348_5916" style="mask-type:alpha" maskUnits="userSpaceOnUse" x="145" y="42" width="210" height="103">
<rect x="145" y="42" width="210" height="103" fill="#D9D9D9"/>
</mask>
<g mask="url(#mask0_1348_5916)">
<g style="mix-blend-mode:multiply" opacity="0.45">
<path d="M402.48 203.74C402.3 203.45 402.05 203.2 401.76 203.02C401.58 202.73 401.33 202.48 401.04 202.3C400.86 202.01 400.61 201.76 400.32 201.58C400.14 201.29 399.89 201.04 399.6 200.86C399.42 200.57 399.17 200.32 398.88 200.14C398.7 199.85 398.45 199.6 398.16 199.42C397.98 199.13 397.73 198.88 397.44 198.7C397.26 198.41 397.01 198.16 396.72 197.98C396.54 197.69 396.29 197.44 396 197.26C395.82 196.97 395.57 196.72 395.28 196.54C395.1 196.25 394.85 196 394.56 195.82C394.38 195.53 394.13 195.28 393.84 195.1C393.66 194.81 393.41 194.56 393.12 194.38C392.94 194.09 392.69 193.84 392.4 193.66C392.22 193.37 391.97 193.12 391.68 192.94C391.5 192.65 391.25 192.4 390.96 192.22C390.78 191.93 390.53 191.68 390.24 191.5C390.06 191.21 389.81 190.96 389.52 190.78C389.34 190.49 389.09 190.24 388.8 190.06C388.62 189.77 388.37 189.52 388.08 189.34C387.9 189.05 387.65 188.8 387.36 188.62C387.18 188.33 386.93 188.08 386.64 187.9C386.46 187.61 386.21 187.36 385.92 187.18C385.74 186.89 385.49 186.64 385.2 186.46C385.02 186.17 384.77 185.92 384.48 185.74C384.3 185.45 384.05 185.2 383.76 185.02C383.58 184.73 383.33 184.48 383.04 184.3C382.86 184.01 382.61 183.76 382.32 183.58C382.14 183.29 381.89 183.04 381.6 182.86C381.42 182.57 381.17 182.32 380.88 182.14C380.7 181.85 380.45 181.6 380.16 181.42C379.98 181.13 379.73 180.88 379.44 180.7C379.26 180.41 379.01 180.16 378.72 179.98C378.54 179.69 378.29 179.44 378 179.26C377.82 178.97 377.57 178.72 377.28 178.54C377.1 178.25 376.85 178 376.56 177.82C376.38 177.53 376.13 177.28 375.84 177.1C375.66 176.81 375.41 176.56 375.12 176.38C374.94 176.09 374.69 175.84 374.4 175.66C374.22 175.37 373.97 175.12 373.68 174.94C373.5 174.65 373.25 174.4 372.96 174.22C372.78 173.93 372.53 173.68 372.24 173.5C372.06 173.21 371.81 172.96 371.52 172.78C371.34 172.49 371.09 172.24 370.8 172.06C370.62 171.77 370.37 171.52 370.08 171.34C369.9 171.05 369.65 170.8 369.36 170.62C369.18 170.33 368.93 170.08 368.64 169.9C368.46 169.61 368.21 169.36 367.92 169.18C367.74 168.89 367.49 168.64 367.2 168.46C367.02 168.17 366.77 167.92 366.48 167.74C366.3 167.45 366.05 167.2 365.76 167.02C365.58 166.73 365.33 166.48 365.04 166.3C364.86 166.01 364.61 165.76 364.32 165.58C364.14 165.29 363.89 165.04 363.6 164.86C363.42 164.57 363.17 164.32 362.88 164.14C362.7 163.85 362.45 163.6 362.16 163.42C361.98 163.13 361.73 162.88 361.44 162.7C361.26 162.41 361.01 162.16 360.72 161.98C360.54 161.69 360.29 161.44 360 161.26C359.82 160.97 359.57 160.72 359.28 160.54C359.1 160.25 358.85 160 358.56 159.82C358.38 159.53 358.13 159.28 357.84 159.1C357.66 158.81 357.41 158.56 357.12 158.38C356.94 158.09 356.69 157.84 356.4 157.66C356.22 157.37 355.97 157.12 355.68 156.94C355.5 156.65 355.25 156.4 354.96 156.22C354.78 155.93 354.53 155.68 354.24 155.5C354.06 155.21 353.81 154.96 353.52 154.78C353.34 154.49 353.09 154.24 352.8 154.06C352.62 153.77 352.37 153.52 352.08 153.34C351.9 153.05 351.65 152.8 351.36 152.62C351.18 152.33 350.93 152.08 350.64 151.9C350.46 151.61 350.21 151.36 349.92 151.18C349.74 150.89 349.49 150.64 349.2 150.46C349.02 150.17 348.77 149.92 348.48 149.74C348.3 149.45 348.05 149.2 347.76 149.02C347.58 148.73 347.33 148.48 347.04 148.3C346.86 148.01 346.61 147.76 346.32 147.58C346.14 147.29 345.89 147.04 345.6 146.86C345.42 146.57 345.17 146.32 344.88 146.14C344.7 145.85 344.45 145.6 344.16 145.42C343.98 145.13 343.73 144.88 343.44 144.7C343.26 144.41 343.01 144.16 342.72 143.98C342.54 143.69 342.29 143.44 342 143.26C341.82 142.97 341.57 142.72 341.28 142.54C341.1 142.25 340.85 142 340.56 141.82C340.38 141.53 340.13 141.28 339.84 141.1C339.66 140.81 339.41 140.56 339.12 140.38C338.94 140.09 338.69 139.84 338.4 139.66C338.22 139.37 337.97 139.12 337.68 138.94C337.5 138.65 337.25 138.4 336.96 138.22C336.78 137.93 336.53 137.68 336.24 137.5C336.06 137.21 335.81 136.96 335.52 136.78C335.34 136.49 335.09 136.24 334.8 136.06C334.62 135.77 334.37 135.52 334.08 135.34C333.9 135.05 333.65 134.8 333.36 134.62C333.18 134.33 332.93 134.08 332.64 133.9C332.46 133.61 332.21 133.36 331.92 133.18C331.74 132.89 331.49 132.64 331.2 132.46C331.02 132.17 330.77 131.92 330.48 131.74C330.3 131.45 330.05 131.2 329.76 131.02C329.58 130.73 329.33 130.48 329.04 130.3C328.86 130.01 328.61 129.76 328.32 129.58C328.14 129.29 327.89 129.04 327.6 128.86C327.42 128.57 327.17 128.32 326.88 128.14C326.7 127.85 326.45 127.6 326.16 127.42C325.98 127.13 325.73 126.88 325.44 126.7C325.26 126.41 325.01 126.16 324.72 125.98C324.54 125.69 324.29 125.44 324 125.26C323.82 124.97 323.57 124.72 323.28 124.54C323.1 124.25 322.85 124 322.56 123.82C322.38 123.53 322.13 123.28 321.84 123.1C321.66 122.81 321.41 122.56 321.12 122.38C320.94 122.09 320.69 121.84 320.4 121.66C320.22 121.37 319.97 121.12 319.68 120.94C319.5 120.65 319.25 120.4 318.96 120.22C318.78 119.93 318.53 119.68 318.24 119.5C318.06 119.21 317.81 118.96 317.52 118.78C317.34 118.49 317.09 118.24 316.8 118.06C316.62 117.77 316.37 117.52 316.08 117.34C315.9 117.05 315.65 116.8 315.36 116.62C315.18 116.33 314.93 116.08 314.64 115.9C314.46 115.61 314.21 115.36 313.92 115.18C313.74 114.89 313.49 114.64 313.2 114.46C313.02 114.17 312.77 113.92 312.48 113.74C312.3 113.45 312.05 113.2 311.76 113.02C311.58 112.73 311.33 112.48 311.04 112.3C310.86 112.01 310.61 111.76 310.32 111.58C310.14 111.29 309.89 111.04 309.6 110.86C309.42 110.57 309.17 110.32 308.88 110.14C308.7 109.85 308.45 109.6 308.16 109.42C307.98 109.13 307.73 108.88 307.44 108.7C307.26 108.41 307.01 108.16 306.72 107.98C306.54 107.69 306.29 107.44 306 107.26C305.82 106.97 305.57 106.72 305.28 106.54C305.1 106.25 304.85 106 304.56 105.82C304.38 105.53 304.13 105.28 303.84 105.1C303.66 104.81 303.41 104.56 303.12 104.38C302.94 104.09 302.69 103.84 302.4 103.66C302.22 103.37 301.97 103.12 301.68 102.94C301.5 102.65 301.25 102.4 300.96 102.22C300.78 101.93 300.53 101.68 300.24 101.5C300.06 101.21 299.81 100.96 299.52 100.78C299.34 100.49 299.09 100.24 298.8 100.06C298.62 99.77 298.37 99.52 298.08 99.34C297.9 99.05 297.65 98.8 297.36 98.62C297.18 98.33 296.93 98.08 296.64 97.9C296.46 97.61 296.21 97.36 295.92 97.18C295.74 96.89 295.49 96.64 295.2 96.46C295.02 96.17 294.77 95.92 294.48 95.74C294.3 95.45 294.05 95.2 293.76 95.02C293.58 94.73 293.33 94.48 293.04 94.3C292.86 94.01 292.61 93.76 292.32 93.58C292.14 93.29 291.89 93.04 291.6 92.86C291.42 92.57 291.17 92.32 290.88 92.14C290.7 91.85 290.45 91.6 290.16 91.42C289.98 91.13 289.73 90.88 289.44 90.7C289.26 90.41 289.01 90.16 288.72 89.98C288.54 89.69 288.29 89.44 288 89.26C287.82 88.97 287.57 88.72 287.28 88.54C287.1 88.25 286.85 88 286.56 87.82C286.38 87.53 286.13 87.28 285.84 87.1C285.66 86.81 285.41 86.56 285.12 86.38C284.94 86.09 284.69 85.84 284.4 85.66C284.22 85.37 283.97 85.12 283.68 84.94C283.5 84.65 283.25 84.4 282.96 84.22C282.78 83.93 282.53 83.68 282.24 83.5C282.06 83.21 281.81 82.96 281.52 82.78C281.34 82.49 281.09 82.24 280.8 82.06C280.4 81.42 279.69 80.99 278.87 80.99H268C268 80.99 268 80.99 267.99 80.99C267.81 80.7 267.56 80.45 267.27 80.27C267.09 79.98 266.84 79.73 266.55 79.55C266.37 79.26 266.12 79.01 265.83 78.83C265.65 78.54 265.4 78.29 265.11 78.11C264.93 77.82 264.68 77.57 264.39 77.39C264.21 77.1 263.96 76.85 263.67 76.67C263.49 76.38 263.24 76.13 262.95 75.95C262.77 75.66 262.52 75.41 262.23 75.23C262.05 74.94 261.8 74.69 261.51 74.51C261.33 74.22 261.08 73.97 260.79 73.79C260.61 73.5 260.36 73.25 260.07 73.07C259.89 72.78 259.64 72.53 259.35 72.35C259.17 72.06 258.92 71.81 258.63 71.63C258.45 71.34 258.2 71.09 257.91 70.91C257.73 70.62 257.48 70.37 257.19 70.19C257.01 69.9 256.76 69.65 256.47 69.47C256.29 69.18 256.04 68.93 255.75 68.75C255.57 68.46 255.32 68.21 255.03 68.03C254.85 67.74 254.6 67.49 254.31 67.31C254.13 67.02 253.88 66.77 253.59 66.59C253.41 66.3 253.16 66.05 252.87 65.87C252.69 65.58 252.44 65.33 252.15 65.15C251.97 64.86 251.72 64.61 251.43 64.43C251.25 64.14 251 63.89 250.71 63.71C250.53 63.42 250.28 63.17 249.99 62.99C249.81 62.7 249.56 62.45 249.27 62.27C249.09 61.98 248.84 61.73 248.55 61.55C248.37 61.26 248.12 61.01 247.83 60.83C247.65 60.54 247.4 60.29 247.11 60.11C246.93 59.82 246.68 59.57 246.39 59.39C246.21 59.1 245.96 58.85 245.67 58.67C245.49 58.38 245.24 58.13 244.95 57.95C244.77 57.66 244.52 57.41 244.23 57.23C244.05 56.94 243.8 56.69 243.51 56.51C243.33 56.22 243.08 55.97 242.79 55.79C242.61 55.5 242.36 55.25 242.07 55.07C241.67 54.43 240.96 54 240.14 54H197.28C196.02 54 195 55.02 195 56.28C195 57.1 195.43 57.81 196.07 58.21C196.25 58.5 196.5 58.75 196.79 58.93C196.97 59.22 197.22 59.47 197.51 59.65C197.69 59.94 197.94 60.19 198.23 60.37C198.41 60.66 198.66 60.91 198.95 61.09C199.13 61.38 199.38 61.63 199.67 61.81C199.85 62.1 200.1 62.35 200.39 62.53C200.57 62.82 200.82 63.07 201.11 63.25C201.29 63.54 201.54 63.79 201.83 63.97C201.88 64.05 201.94 64.12 201.99 64.19H197.28C196.02 64.19 195 65.21 195 66.47C195 67.29 195.43 68 196.07 68.4C196.25 68.69 196.5 68.94 196.79 69.12C196.97 69.41 197.22 69.66 197.51 69.84C197.69 70.13 197.94 70.38 198.23 70.56C198.41 70.85 198.66 71.1 198.95 71.28C199.13 71.57 199.38 71.82 199.67 72C199.85 72.29 200.1 72.54 200.39 72.72C200.57 73.01 200.82 73.26 201.11 73.44C201.29 73.73 201.54 73.98 201.83 74.16C202.01 74.45 202.26 74.7 202.55 74.88C202.73 75.17 202.98 75.42 203.27 75.6C203.45 75.89 203.7 76.14 203.99 76.32C204.17 76.61 204.42 76.86 204.71 77.04C204.89 77.33 205.14 77.58 205.43 77.76C205.61 78.05 205.86 78.3 206.15 78.48C206.33 78.77 206.58 79.02 206.87 79.2C207.05 79.49 207.3 79.74 207.59 79.92C207.77 80.21 208.02 80.46 208.31 80.64C208.39 80.77 208.48 80.88 208.58 80.99H174.28C173.02 80.99 172 82.01 172 83.27C172 84.09 172.43 84.8 173.07 85.2C173.25 85.49 173.5 85.74 173.79 85.92C173.97 86.21 174.22 86.46 174.51 86.64C174.69 86.93 174.94 87.18 175.23 87.36C175.41 87.65 175.66 87.9 175.95 88.08C176.13 88.37 176.38 88.62 176.67 88.8C176.85 89.09 177.1 89.34 177.39 89.52C177.57 89.81 177.82 90.06 178.11 90.24C178.29 90.53 178.54 90.78 178.83 90.96C179.01 91.25 179.26 91.5 179.55 91.68C179.73 91.97 179.98 92.22 180.27 92.4C180.45 92.69 180.7 92.94 180.99 93.12C181.17 93.41 181.42 93.66 181.71 93.84C181.89 94.13 182.14 94.38 182.43 94.56C182.61 94.85 182.86 95.1 183.15 95.28C183.33 95.57 183.58 95.82 183.87 96C184.05 96.29 184.3 96.54 184.59 96.72C184.77 97.01 185.02 97.26 185.31 97.44C185.49 97.73 185.74 97.98 186.03 98.16C186.21 98.45 186.46 98.7 186.75 98.88C186.93 99.17 187.18 99.42 187.47 99.6C187.65 99.89 187.9 100.14 188.19 100.32C188.37 100.61 188.62 100.86 188.91 101.04C189.09 101.33 189.34 101.58 189.63 101.76C189.81 102.05 190.06 102.3 190.35 102.48C190.53 102.77 190.78 103.02 191.07 103.2C191.25 103.49 191.5 103.74 191.79 103.92C191.97 104.21 192.22 104.46 192.51 104.64C192.69 104.93 192.94 105.18 193.23 105.36C193.41 105.65 193.66 105.9 193.95 106.08C194.13 106.37 194.38 106.62 194.67 106.8C194.85 107.09 195.1 107.34 195.39 107.52C195.57 107.81 195.82 108.06 196.11 108.24C196.14 108.28 196.16 108.32 196.19 108.36C195.48 108.75 195 109.49 195 110.35C195 111.17 195.43 111.88 196.07 112.28C196.25 112.57 196.5 112.82 196.79 113C196.97 113.29 197.22 113.54 197.51 113.72C197.69 114.01 197.94 114.26 198.23 114.44C198.41 114.73 198.66 114.98 198.95 115.16C199.13 115.45 199.38 115.7 199.67 115.88C199.85 116.17 200.1 116.42 200.39 116.6C200.57 116.89 200.82 117.14 201.11 117.32C201.29 117.61 201.54 117.86 201.83 118.04C202.01 118.33 202.26 118.58 202.55 118.76C202.73 119.05 202.98 119.3 203.27 119.48C203.45 119.77 203.7 120.02 203.99 120.2C204.17 120.49 204.42 120.74 204.71 120.92C204.89 121.21 205.14 121.46 205.43 121.64C205.61 121.93 205.86 122.18 206.15 122.36C206.33 122.65 206.58 122.9 206.87 123.08C207.05 123.37 207.3 123.62 207.59 123.8C207.77 124.09 208.02 124.34 208.31 124.52C208.49 124.81 208.74 125.06 209.03 125.24C209.21 125.53 209.46 125.78 209.75 125.96C209.93 126.25 210.18 126.5 210.47 126.68C210.65 126.97 210.9 127.22 211.19 127.4C211.37 127.69 211.62 127.94 211.91 128.12C212.09 128.41 212.34 128.66 212.63 128.84C212.81 129.13 213.06 129.38 213.35 129.56C213.53 129.85 213.78 130.1 214.07 130.28C214.25 130.57 214.5 130.82 214.79 131C214.97 131.29 215.22 131.54 215.51 131.72C215.69 132.01 215.94 132.26 216.23 132.44C216.41 132.73 216.66 132.98 216.95 133.16C217.13 133.45 217.38 133.7 217.67 133.88C217.85 134.17 218.1 134.42 218.39 134.6C218.57 134.89 218.82 135.14 219.11 135.32C219.29 135.61 219.54 135.86 219.83 136.04C220.01 136.33 220.26 136.58 220.55 136.76C220.73 137.05 220.98 137.3 221.27 137.48C221.45 137.77 221.7 138.02 221.99 138.2C222.17 138.49 222.42 138.74 222.71 138.92C222.89 139.21 223.14 139.46 223.43 139.64C223.61 139.93 223.86 140.18 224.15 140.36C224.33 140.65 224.58 140.9 224.87 141.08C225.05 141.37 225.3 141.62 225.59 141.8C225.77 142.09 226.02 142.34 226.31 142.52C226.49 142.81 226.74 143.06 227.03 143.24C227.21 143.53 227.46 143.78 227.75 143.96C227.93 144.25 228.18 144.5 228.47 144.68C228.65 144.97 228.9 145.22 229.19 145.4C229.37 145.69 229.62 145.94 229.91 146.12C230.09 146.41 230.34 146.66 230.63 146.84C230.81 147.13 231.06 147.38 231.35 147.56C231.53 147.85 231.78 148.1 232.07 148.28C232.25 148.57 232.5 148.82 232.79 149C232.97 149.29 233.22 149.54 233.51 149.72C233.69 150.01 233.94 150.26 234.23 150.44C234.41 150.73 234.66 150.98 234.95 151.16C235.13 151.45 235.38 151.7 235.67 151.88C235.85 152.17 236.1 152.42 236.39 152.6C236.57 152.89 236.82 153.14 237.11 153.32C237.29 153.61 237.54 153.86 237.83 154.04C238.01 154.33 238.26 154.58 238.55 154.76C238.73 155.05 238.98 155.3 239.27 155.48C239.45 155.77 239.7 156.02 239.99 156.2C240.17 156.49 240.42 156.74 240.71 156.92C240.89 157.21 241.14 157.46 241.43 157.64C241.61 157.93 241.86 158.18 242.15 158.36C242.33 158.65 242.58 158.9 242.87 159.08C243.05 159.37 243.3 159.62 243.59 159.8C243.77 160.09 244.02 160.34 244.31 160.52C244.49 160.81 244.74 161.06 245.03 161.24C245.21 161.53 245.46 161.78 245.75 161.96C245.93 162.25 246.18 162.5 246.47 162.68C246.65 162.97 246.9 163.22 247.19 163.4C247.37 163.69 247.62 163.94 247.91 164.12C248.09 164.41 248.34 164.66 248.63 164.84C248.81 165.13 249.06 165.38 249.35 165.56C249.53 165.85 249.78 166.1 250.07 166.28C250.25 166.57 250.5 166.82 250.79 167C250.97 167.29 251.22 167.54 251.51 167.72C251.69 168.01 251.94 168.26 252.23 168.44C252.41 168.73 252.66 168.98 252.95 169.16C253.13 169.45 253.38 169.7 253.67 169.88C253.85 170.17 254.1 170.42 254.39 170.6C254.57 170.89 254.82 171.14 255.11 171.32C255.29 171.61 255.54 171.86 255.83 172.04C256.01 172.33 256.26 172.58 256.55 172.76C256.73 173.05 256.98 173.3 257.27 173.48C257.45 173.77 257.7 174.02 257.99 174.2C258.17 174.49 258.42 174.74 258.71 174.92C258.89 175.21 259.14 175.46 259.43 175.64C259.61 175.93 259.86 176.18 260.15 176.36C260.33 176.65 260.58 176.9 260.87 177.08C261.05 177.37 261.3 177.62 261.59 177.8C261.77 178.09 262.02 178.34 262.31 178.52C262.49 178.81 262.74 179.06 263.03 179.24C263.21 179.53 263.46 179.78 263.75 179.96C263.93 180.25 264.18 180.5 264.47 180.68C264.65 180.97 264.9 181.22 265.19 181.4C265.37 181.69 265.62 181.94 265.91 182.12C266.09 182.41 266.34 182.66 266.63 182.84C266.81 183.13 267.06 183.38 267.35 183.56C267.53 183.85 267.78 184.1 268.07 184.28C268.25 184.57 268.5 184.82 268.79 185C268.97 185.29 269.22 185.54 269.51 185.72C269.69 186.01 269.94 186.26 270.23 186.44C270.41 186.73 270.66 186.98 270.95 187.16C271.13 187.45 271.38 187.7 271.67 187.88C271.85 188.17 272.1 188.42 272.39 188.6C272.57 188.89 272.82 189.14 273.11 189.32C273.29 189.61 273.54 189.86 273.83 190.04C274.01 190.33 274.26 190.58 274.55 190.76C274.73 191.05 274.98 191.3 275.27 191.48C275.45 191.77 275.7 192.02 275.99 192.2C276.17 192.49 276.42 192.74 276.71 192.92C276.89 193.21 277.14 193.46 277.43 193.64C277.61 193.93 277.86 194.18 278.15 194.36C278.33 194.65 278.58 194.9 278.87 195.08C279.05 195.37 279.3 195.62 279.59 195.8C279.77 196.09 280.02 196.34 280.31 196.52C280.49 196.81 280.74 197.06 281.03 197.24C281.21 197.53 281.46 197.78 281.75 197.96C281.93 198.25 282.18 198.5 282.47 198.68C282.65 198.97 282.9 199.22 283.19 199.4C283.37 199.69 283.62 199.94 283.91 200.12C284.09 200.41 284.34 200.66 284.63 200.84C284.81 201.13 285.06 201.38 285.35 201.56C285.53 201.85 285.78 202.1 286.07 202.28C286.25 202.57 286.5 202.82 286.79 203C286.97 203.29 287.22 203.54 287.51 203.72C287.69 204.01 287.94 204.26 288.23 204.44C288.41 204.73 288.66 204.98 288.95 205.16C289.13 205.45 289.38 205.7 289.67 205.88C289.85 206.17 290.1 206.42 290.39 206.6C290.57 206.89 290.82 207.14 291.11 207.32C291.29 207.61 291.54 207.86 291.83 208.04C292.01 208.33 292.26 208.58 292.55 208.76C292.73 209.05 292.98 209.3 293.27 209.48C293.45 209.77 293.7 210.02 293.99 210.2C294.17 210.49 294.42 210.74 294.71 210.92C294.89 211.21 295.14 211.46 295.43 211.64C295.61 211.93 295.86 212.18 296.15 212.36C296.33 212.65 296.58 212.9 296.87 213.08C297.05 213.37 297.3 213.62 297.59 213.8C297.77 214.09 298.02 214.34 298.31 214.52C298.49 214.81 298.74 215.06 299.03 215.24C299.21 215.53 299.46 215.78 299.75 215.96C299.93 216.25 300.18 216.5 300.47 216.68C300.65 216.97 300.9 217.22 301.19 217.4C301.37 217.69 301.62 217.94 301.91 218.12C302.09 218.41 302.34 218.66 302.63 218.84C302.81 219.13 303.06 219.38 303.35 219.56C303.53 219.85 303.78 220.1 304.07 220.28C304.25 220.57 304.5 220.82 304.79 221C304.97 221.29 305.22 221.54 305.51 221.72C305.69 222.01 305.94 222.26 306.23 222.44C306.41 222.73 306.66 222.98 306.95 223.16C307.13 223.45 307.38 223.7 307.67 223.88C307.85 224.17 308.1 224.42 308.39 224.6C308.57 224.89 308.82 225.14 309.11 225.32C309.29 225.61 309.54 225.86 309.83 226.04C310.01 226.33 310.26 226.58 310.55 226.76C310.73 227.05 310.98 227.3 311.27 227.48C311.45 227.77 311.7 228.02 311.99 228.2C312.17 228.49 312.42 228.74 312.71 228.92C312.89 229.21 313.14 229.46 313.43 229.64C313.61 229.93 313.86 230.18 314.15 230.36C314.33 230.65 314.58 230.9 314.87 231.08C315.05 231.37 315.3 231.62 315.59 231.8C315.77 232.09 316.02 232.34 316.31 232.52C316.49 232.81 316.74 233.06 317.03 233.24C317.21 233.53 317.46 233.78 317.75 233.96C318.15 234.6 318.86 235.03 319.68 235.03H362.47C363.73 235.03 364.75 234.01 364.75 232.75C364.75 231.93 364.32 231.22 363.68 230.82C363.5 230.53 363.25 230.28 362.96 230.1C362.78 229.81 362.53 229.56 362.24 229.38C362.06 229.09 361.81 228.84 361.52 228.66C361.34 228.37 361.09 228.12 360.8 227.94C360.62 227.65 360.37 227.4 360.08 227.22C359.9 226.93 359.65 226.68 359.36 226.5C359.18 226.21 358.93 225.96 358.64 225.78C358.46 225.49 358.21 225.24 357.92 225.06C357.87 224.98 357.81 224.91 357.76 224.84H379.54C380.8 224.84 381.82 223.82 381.82 222.56C381.82 221.74 381.39 221.03 380.75 220.63C380.57 220.34 380.32 220.09 380.03 219.91C379.85 219.62 379.6 219.37 379.31 219.19C379.13 218.9 378.88 218.65 378.59 218.47C378.41 218.18 378.16 217.93 377.87 217.75C377.69 217.46 377.44 217.21 377.15 217.03C376.97 216.74 376.72 216.49 376.43 216.31C376.25 216.02 376 215.77 375.71 215.59C375.53 215.3 375.28 215.05 374.99 214.87C374.81 214.58 374.56 214.33 374.27 214.15C374.09 213.86 373.84 213.61 373.55 213.43C373.37 213.14 373.12 212.89 372.83 212.71C372.65 212.42 372.4 212.17 372.11 211.99C371.93 211.7 371.68 211.45 371.39 211.27C371.21 210.98 370.96 210.73 370.67 210.55C370.49 210.26 370.24 210.01 369.95 209.83C369.77 209.54 369.52 209.29 369.23 209.11C369.05 208.82 368.8 208.57 368.51 208.39C368.41 208.23 368.29 208.08 368.16 207.95H401.28C402.54 207.95 403.56 206.93 403.56 205.67C403.56 204.85 403.13 204.14 402.49 203.74H402.48Z" fill="#0F3AA0"/>
</g>
</g>
<path d="M172 83.2836C172 82.0224 173.022 81 174.284 81H278.871C280.132 81 281.155 82.0224 281.155 83.2836C281.155 84.5448 280.132 85.5672 278.871 85.5672H174.284C173.022 85.5672 172 84.5448 172 83.2836Z" fill="#7AA5E7"/>
<path d="M195 100.173C195 98.9121 196.022 97.8896 197.284 97.8896H257.137C258.398 97.8896 259.42 98.9121 259.42 100.173C259.42 101.434 258.398 102.457 257.137 102.457H197.284C196.022 102.457 195 101.434 195 100.173Z" fill="#5187DF"/>
<path d="M195 110.368C195 109.106 196.022 108.084 197.284 108.084H240.073C241.334 108.084 242.357 109.106 242.357 110.368C242.357 111.629 241.334 112.651 240.073 112.651H197.284C196.022 112.651 195 111.629 195 110.368Z" fill="#5187DF"/>
<path d="M195 56.2836C195 55.0224 196.022 54 197.284 54H240.137C241.398 54 242.42 55.0224 242.42 56.2836C242.42 57.5448 241.398 58.5672 240.137 58.5672H197.284C196.022 58.5672 195 57.5448 195 56.2836Z" fill="#5187DF"/>
<path d="M195 66.4779C195 65.2167 196.022 64.1943 197.284 64.1943H248.073C249.334 64.1943 250.357 65.2167 250.357 66.4779C250.357 67.7391 249.334 68.7616 248.073 68.7616H197.284C196.022 68.7616 195 67.7391 195 66.4779Z" fill="#5187DF"/>
<defs>
<clipPath id="clip0_1348_5916">
<rect width="580" height="145" fill="white"/>
</clipPath>
</defs>
</svg>
