<svg width="580" height="145" viewBox="0 0 580 145" fill="none" xmlns="http://www.w3.org/2000/svg">
<path d="M13.03 41.62C13.03 23.6 27.64 9 45.65 9C63.66 9 78.27 23.61 78.27 41.62C78.27 59.64 63.66 74.24 45.65 74.24C27.64 74.24 13.03 59.64 13.03 41.62ZM507.34 0H435V37.35C433.71 16.51 416.59 0 395.66 0H145.08L144.08 0.92L0 145H507.34C547.47 145 580 112.54 580 72.5C580 32.46 547.47 0 507.34 0Z" fill="#286AD8"/>
<mask id="mask0_48_721" style="mask-type:alpha" maskUnits="userSpaceOnUse" x="0" y="0" width="580" height="145">
<path d="M13.03 41.62C13.03 23.6 27.64 9 45.65 9C63.66 9 78.27 23.61 78.27 41.62C78.27 59.64 63.66 74.24 45.65 74.24C27.64 74.24 13.03 59.64 13.03 41.62ZM507.34 0H435V37.35C433.71 16.51 416.59 0 395.66 0H145.08L144.08 0.92L0 145H507.34C547.47 145 580 112.54 580 72.5C580 32.46 547.47 0 507.34 0Z" fill="#286AD8"/>
</mask>
<g mask="url(#mask0_48_721)">
<g style="mix-blend-mode:multiply" opacity="0.4">
<path d="M229.06 54C229.88 54 230.59 54.4303 230.99 55.0703C231.28 55.2503 231.53 55.5002 231.71 55.79C232 55.97 232.25 56.2199 232.43 56.5098C232.72 56.6898 232.97 56.9405 233.15 57.2305C233.44 57.4104 233.69 57.6604 233.87 57.9502C234.16 58.1302 234.41 58.38 234.59 58.6699C234.88 58.8498 235.13 59.0998 235.31 59.3896C235.6 59.5696 235.85 59.8204 236.03 60.1104C236.32 60.2903 236.57 60.5402 236.75 60.8301C237.04 61.01 237.29 61.2599 237.47 61.5498C237.76 61.7297 238.009 61.9798 238.189 62.2695C238.479 62.4495 238.73 62.7002 238.91 62.9902C239.2 63.1702 239.45 63.4201 239.63 63.71C239.92 63.8899 240.17 64.1398 240.35 64.4297C240.64 64.6097 240.89 64.8604 241.07 65.1504C241.36 65.3304 241.61 65.5803 241.79 65.8701C242.08 66.0501 242.33 66.3 242.51 66.5898C242.8 66.7697 243.05 67.0198 243.229 67.3096C243.519 67.4896 243.77 67.7403 243.95 68.0303C244.24 68.2103 244.49 68.4601 244.67 68.75C244.96 68.9299 245.21 69.1799 245.39 69.4697C245.68 69.6497 245.93 69.9004 246.11 70.1904C246.4 70.3704 246.65 70.6203 246.83 70.9102C247.12 71.0901 247.37 71.34 247.55 71.6299C247.84 71.8098 248.09 72.0598 248.27 72.3496C248.56 72.5296 248.81 72.7803 248.99 73.0703C249.28 73.2503 249.53 73.5002 249.71 73.79C250 73.97 250.25 74.2199 250.43 74.5098C250.72 74.6898 250.97 74.9405 251.15 75.2305C251.44 75.4104 251.69 75.6604 251.87 75.9502C252.16 76.1302 252.41 76.38 252.59 76.6699C252.88 76.8498 253.13 77.0998 253.31 77.3896C253.6 77.5696 253.85 77.8204 254.03 78.1104C254.32 78.2903 254.57 78.5402 254.75 78.8301C255.04 79.01 255.29 79.2599 255.47 79.5498C255.76 79.7297 256.009 79.9798 256.189 80.2695C256.479 80.4495 256.73 80.7002 256.91 80.9902H293.79C294.61 80.9903 295.32 81.4198 295.72 82.0596C296.01 82.2396 296.259 82.4903 296.439 82.7803C296.729 82.9603 296.98 83.21 297.16 83.5C297.45 83.6799 297.7 83.9299 297.88 84.2197C298.17 84.3997 298.42 84.6504 298.6 84.9404C298.89 85.1204 299.14 85.3702 299.32 85.6602C299.61 85.8401 299.86 86.09 300.04 86.3799C300.33 86.5598 300.58 86.8098 300.76 87.0996C301.05 87.2796 301.299 87.5303 301.479 87.8203C301.769 88.0003 302.02 88.25 302.2 88.54C302.49 88.72 302.74 88.9699 302.92 89.2598C303.21 89.4398 303.46 89.6905 303.64 89.9805C303.93 90.1605 304.18 90.4102 304.36 90.7002C304.65 90.8802 304.9 91.1301 305.08 91.4199C305.37 91.5999 305.62 91.8498 305.8 92.1396C306.09 92.3196 306.34 92.5704 306.52 92.8604C306.81 93.0404 307.06 93.2901 307.24 93.5801C307.53 93.76 307.78 94.0099 307.96 94.2998C308.25 94.4797 308.5 94.7297 308.68 95.0195C308.97 95.1995 309.22 95.4502 309.4 95.7402C309.69 95.9202 309.94 96.1701 310.12 96.46C310.41 96.6399 310.66 96.8898 310.84 97.1797C311.13 97.3597 311.38 97.6104 311.56 97.9004C311.85 98.0804 312.1 98.3301 312.28 98.6201C312.57 98.8001 312.82 99.05 313 99.3398C313.29 99.5198 313.54 99.7697 313.72 100.06C314.01 100.24 314.259 100.49 314.439 100.78C314.729 100.96 314.98 101.21 315.16 101.5C315.45 101.68 315.7 101.93 315.88 102.22C316.17 102.4 316.42 102.65 316.6 102.94C316.89 103.12 317.14 103.37 317.32 103.66C317.61 103.84 317.86 104.09 318.04 104.38C318.33 104.56 318.58 104.81 318.76 105.1C319.05 105.28 319.299 105.53 319.479 105.82C319.769 106 320.02 106.25 320.2 106.54C320.49 106.72 320.74 106.97 320.92 107.26C321.21 107.44 321.46 107.69 321.64 107.98C321.93 108.16 322.18 108.41 322.36 108.7C322.65 108.88 322.9 109.13 323.08 109.42C323.37 109.6 323.62 109.85 323.8 110.14C324.09 110.32 324.34 110.57 324.52 110.86C324.81 111.04 325.06 111.29 325.24 111.58C325.53 111.76 325.78 112.01 325.96 112.3C326.25 112.48 326.5 112.73 326.68 113.02C326.97 113.2 327.22 113.45 327.4 113.74C327.69 113.92 327.94 114.17 328.12 114.46C328.41 114.64 328.66 114.89 328.84 115.18C329.13 115.36 329.38 115.61 329.56 115.9C329.85 116.08 330.1 116.33 330.28 116.62C330.57 116.8 330.82 117.05 331 117.34C331.29 117.52 331.54 117.77 331.72 118.06C332.01 118.24 332.259 118.49 332.439 118.78C332.729 118.96 332.98 119.21 333.16 119.5C333.45 119.68 333.7 119.93 333.88 120.22C334.17 120.4 334.42 120.65 334.6 120.94C334.89 121.12 335.14 121.37 335.32 121.66C335.61 121.84 335.86 122.09 336.04 122.38C336.33 122.56 336.58 122.81 336.76 123.1C337.05 123.28 337.299 123.53 337.479 123.82C337.769 124 338.02 124.25 338.2 124.54C338.49 124.72 338.74 124.97 338.92 125.26C339.21 125.44 339.46 125.69 339.64 125.98C339.93 126.16 340.18 126.41 340.36 126.7C340.65 126.88 340.9 127.13 341.08 127.42C341.37 127.6 341.62 127.85 341.8 128.14C342.09 128.32 342.34 128.57 342.52 128.86C342.81 129.04 343.06 129.29 343.24 129.58C343.53 129.76 343.78 130.01 343.96 130.3C344.25 130.48 344.5 130.73 344.68 131.02C344.97 131.2 345.22 131.45 345.4 131.74C345.69 131.92 345.94 132.17 346.12 132.46C346.41 132.64 346.66 132.89 346.84 133.18C347.13 133.36 347.38 133.61 347.56 133.9C347.85 134.08 348.1 134.33 348.28 134.62C348.57 134.8 348.82 135.05 349 135.34C349.29 135.52 349.54 135.77 349.72 136.06C350.01 136.24 350.259 136.49 350.439 136.78C350.729 136.96 350.98 137.21 351.16 137.5C351.45 137.68 351.7 137.93 351.88 138.22C352.17 138.4 352.42 138.65 352.6 138.94C352.89 139.12 353.14 139.37 353.32 139.66C353.61 139.84 353.86 140.09 354.04 140.38C354.33 140.56 354.58 140.81 354.76 141.1C355.05 141.28 355.299 141.53 355.479 141.82C355.769 142 356.02 142.25 356.2 142.54C356.49 142.72 356.74 142.97 356.92 143.26C357.21 143.44 357.46 143.69 357.64 143.98C357.93 144.16 358.18 144.41 358.36 144.7C358.497 144.785 358.624 144.887 358.74 145H299.964C300.035 145.084 300.102 145.171 300.16 145.265C300.45 145.445 300.7 145.695 300.88 145.984C301.17 146.164 301.42 146.415 301.6 146.705C301.89 146.885 302.14 147.135 302.32 147.425C302.61 147.605 302.86 147.855 303.04 148.145C303.33 148.324 303.58 148.574 303.76 148.864C304.05 149.044 304.299 149.295 304.479 149.585C304.769 149.765 305.02 150.015 305.2 150.305C305.49 150.485 305.74 150.735 305.92 151.024C306.21 151.204 306.46 151.455 306.64 151.745C306.93 151.925 307.18 152.175 307.36 152.465C307.65 152.645 307.9 152.895 308.08 153.185C308.37 153.365 308.62 153.614 308.8 153.904C309.09 154.084 309.34 154.335 309.52 154.625C309.81 154.805 310.06 155.055 310.24 155.345C310.53 155.525 310.78 155.775 310.96 156.064C311.25 156.244 311.5 156.494 311.68 156.784C311.97 156.964 312.22 157.215 312.4 157.505C312.69 157.685 312.94 157.935 313.12 158.225C313.41 158.405 313.66 158.654 313.84 158.944C314.13 159.124 314.38 159.375 314.56 159.665C314.85 159.845 315.1 160.095 315.28 160.385C315.57 160.565 315.82 160.815 316 161.104C316.29 161.284 316.54 161.534 316.72 161.824C317.01 162.004 317.259 162.255 317.439 162.545C317.729 162.725 317.98 162.975 318.16 163.265C318.45 163.445 318.7 163.695 318.88 163.984C319.17 164.164 319.42 164.415 319.6 164.705C319.89 164.885 320.14 165.135 320.32 165.425C320.61 165.605 320.86 165.855 321.04 166.145C321.33 166.324 321.58 166.574 321.76 166.864C322.05 167.044 322.299 167.295 322.479 167.585C322.769 167.765 323.02 168.015 323.2 168.305C323.49 168.485 323.74 168.735 323.92 169.024C324.21 169.204 324.46 169.455 324.64 169.745C324.93 169.925 325.18 170.175 325.36 170.465C325.65 170.645 325.9 170.895 326.08 171.185C326.37 171.365 326.62 171.614 326.8 171.904C327.09 172.084 327.34 172.335 327.52 172.625C327.81 172.805 328.06 173.055 328.24 173.345C328.53 173.525 328.78 173.775 328.96 174.064C329.25 174.244 329.5 174.494 329.68 174.784C329.97 174.964 330.22 175.215 330.4 175.505C330.69 175.685 330.94 175.935 331.12 176.225C331.41 176.405 331.66 176.654 331.84 176.944C332.13 177.124 332.38 177.375 332.56 177.665C332.85 177.845 333.1 178.095 333.28 178.385C333.57 178.565 333.82 178.815 334 179.104C334.29 179.284 334.54 179.534 334.72 179.824C335.01 180.004 335.259 180.255 335.439 180.545C335.729 180.725 335.98 180.975 336.16 181.265C336.45 181.445 336.7 181.695 336.88 181.984C337.17 182.164 337.42 182.415 337.6 182.705C337.89 182.885 338.14 183.135 338.32 183.425C338.61 183.605 338.86 183.855 339.04 184.145C339.33 184.324 339.58 184.574 339.76 184.864C340.05 185.044 340.299 185.295 340.479 185.585C340.769 185.765 341.02 186.015 341.2 186.305C341.49 186.485 341.74 186.735 341.92 187.024C342.21 187.204 342.46 187.455 342.64 187.745C342.93 187.925 343.18 188.175 343.36 188.465C343.497 188.55 343.624 188.652 343.74 188.765H246.636C246.545 188.665 246.461 188.559 246.39 188.444C246.1 188.264 245.85 188.014 245.67 187.725L185.5 124.755C185.4 124.645 185.309 124.534 185.229 124.404C184.94 124.224 184.69 123.974 184.51 123.685C184.22 123.505 183.97 123.255 183.79 122.965C183.5 122.785 183.25 122.535 183.07 122.245C182.78 122.065 182.53 121.814 182.35 121.524C182.06 121.344 181.81 121.095 181.63 120.805C181.34 120.625 181.09 120.375 180.91 120.085C180.62 119.905 180.369 119.654 180.189 119.364C179.9 119.184 179.65 118.934 179.47 118.645C179.18 118.465 178.93 118.215 178.75 117.925C178.46 117.745 178.21 117.495 178.03 117.205C177.74 117.025 177.49 116.774 177.31 116.484C177.02 116.304 176.77 116.055 176.59 115.765C176.3 115.585 176.05 115.335 175.87 115.045C175.58 114.865 175.33 114.614 175.15 114.324C174.86 114.144 174.61 113.894 174.43 113.604C174.14 113.425 173.89 113.175 173.71 112.885C173.42 112.705 173.17 112.455 172.99 112.165C172.35 111.765 171.92 111.054 171.92 110.234C171.92 108.975 172.94 107.955 174.2 107.955H178.91C178.86 107.885 178.8 107.814 178.75 107.734C178.46 107.554 178.21 107.305 178.03 107.015C177.74 106.835 177.49 106.585 177.31 106.295C177.02 106.115 176.77 105.864 176.59 105.574C176.3 105.394 176.05 105.144 175.87 104.854C175.58 104.675 175.33 104.425 175.15 104.135C174.86 103.955 174.61 103.705 174.43 103.415C174.14 103.235 173.89 102.984 173.71 102.694C173.42 102.514 173.17 102.265 172.99 101.975C172.35 101.575 171.92 100.865 171.92 100.045C171.92 98.7849 172.94 97.7646 174.2 97.7646H185.479C185.387 97.6635 185.301 97.5563 185.229 97.4404C184.94 97.2604 184.69 97.0097 184.51 96.7197C184.22 96.5397 183.97 96.2899 183.79 96C183.5 95.8201 183.25 95.5701 183.07 95.2803C182.78 95.1003 182.53 94.8496 182.35 94.5596C182.06 94.3796 181.81 94.1297 181.63 93.8398C181.34 93.6599 181.09 93.41 180.91 93.1201C180.62 92.9401 180.369 92.6904 180.189 92.4004C179.9 92.2204 179.65 91.9696 179.47 91.6797C179.18 91.4997 178.93 91.2499 178.75 90.96C178.46 90.78 178.21 90.5301 178.03 90.2402C177.74 90.0602 177.49 89.8095 177.31 89.5195C177.02 89.3396 176.77 89.0896 176.59 88.7998C176.3 88.6198 176.05 88.37 175.87 88.0801C175.58 87.9002 175.33 87.6502 175.15 87.3604C174.86 87.1804 174.61 86.9296 174.43 86.6396C174.14 86.4597 173.89 86.2098 173.71 85.9199C173.42 85.74 173.17 85.4901 172.99 85.2002C172.35 84.8002 171.92 84.0895 171.92 83.2695C171.92 82.0097 172.94 80.9902 174.2 80.9902H185.5C185.4 80.8802 185.309 80.7696 185.229 80.6396C184.94 80.4597 184.69 80.2098 184.51 79.9199C184.22 79.74 183.97 79.4901 183.79 79.2002C183.5 79.0203 183.25 78.7703 183.07 78.4805C182.78 78.3005 182.53 78.0498 182.35 77.7598C182.06 77.5798 181.81 77.3299 181.63 77.04C181.34 76.8601 181.09 76.6102 180.91 76.3203C180.62 76.1403 180.369 75.8896 180.189 75.5996C179.9 75.4196 179.65 75.1697 179.47 74.8799C179.18 74.6999 178.93 74.45 178.75 74.1602C178.46 73.9803 178.21 73.7302 178.03 73.4404C177.74 73.2604 177.49 73.0097 177.31 72.7197C177.02 72.5397 176.77 72.2899 176.59 72C176.3 71.8201 176.05 71.5701 175.87 71.2803C175.58 71.1003 175.33 70.8496 175.15 70.5596C174.86 70.3796 174.61 70.1298 174.43 69.8398C174.14 69.6599 173.89 69.41 173.71 69.1201C173.42 68.9402 173.17 68.6902 172.99 68.4004C172.35 68.0004 171.92 67.2897 171.92 66.4697C171.92 65.2099 172.94 64.1904 174.2 64.1904H178.91C178.86 64.1204 178.8 64.0497 178.75 63.9697C178.46 63.7898 178.21 63.5399 178.03 63.25C177.74 63.07 177.49 62.8203 177.31 62.5303C177.02 62.3503 176.77 62.0995 176.59 61.8096C176.3 61.6296 176.05 61.3798 175.87 61.0898C175.58 60.9099 175.33 60.66 175.15 60.3701C174.86 60.1902 174.61 59.9403 174.43 59.6504C174.14 59.4704 173.89 59.2197 173.71 58.9297C173.42 58.7497 173.17 58.4999 172.99 58.21C172.35 57.81 171.92 57.1002 171.92 56.2803C171.92 55.0203 172.94 54 174.2 54H229.06Z" fill="#1545BB"/>
</g>
</g>
<path d="M171.875 83.1586C171.875 81.8974 172.897 80.875 174.159 80.875H293.746C295.007 80.875 296.03 81.8974 296.03 83.1586C296.03 84.4198 295.007 85.4422 293.746 85.4422H174.159C172.897 85.4422 171.875 84.4198 171.875 83.1586Z" fill="#7AA5E7"/>
<path d="M171.92 100.048C171.92 98.7871 172.942 97.7646 174.204 97.7646H249.556C250.818 97.7646 251.84 98.7871 251.84 100.048C251.84 101.309 250.818 102.332 249.556 102.332H174.204C172.942 102.332 171.92 101.309 171.92 100.048Z" fill="#5187DF" fill-opacity="0.75"/>
<path d="M171.92 110.243C171.92 108.981 172.942 107.959 174.204 107.959H232.493C233.754 107.959 234.776 108.981 234.776 110.243C234.776 111.504 233.754 112.526 232.493 112.526H174.204C172.942 112.526 171.92 111.504 171.92 110.243Z" fill="#5187DF" fill-opacity="0.75"/>
<path d="M171.92 56.1586C171.92 54.8974 172.942 53.875 174.204 53.875H229.056C230.318 53.875 231.34 54.8974 231.34 56.1586C231.34 57.4198 230.318 58.4422 229.056 58.4422H174.204C172.942 58.4422 171.92 57.4198 171.92 56.1586Z" fill="#5187DF" fill-opacity="0.75"/>
<path d="M171.92 66.3529C171.92 65.0917 172.942 64.0693 174.204 64.0693H224.993C226.254 64.0693 227.276 65.0917 227.276 66.3529C227.276 67.6141 226.254 68.6366 224.993 68.6366H174.204C172.942 68.6366 171.92 67.6141 171.92 66.3529Z" fill="#5187DF" fill-opacity="0.75"/>
</svg>
