<svg width="578" height="145" viewBox="0 0 578 145" fill="none" xmlns="http://www.w3.org/2000/svg">
<path d="M361.87 0C402.002 0 434.535 32.4594 434.535 72.5C434.535 112.541 402.002 145 361.87 145H184.424C162.651 145 145 127.147 145 105.125V0H361.87Z" fill="#286AD8"/>
<path d="M145 105.125V0.000244141C64.9188 0.000244141 0 64.919 0 145H105.125C127.148 145 145 127.148 145 105.125Z" fill="#286AD8"/>
<path d="M531.647 74.2497C549.665 74.2497 564.272 59.643 564.272 41.6247C564.272 23.6065 549.665 8.99976 531.647 8.99976C513.628 8.99976 499.021 23.6065 499.021 41.6247C499.021 59.643 513.628 74.2497 531.647 74.2497Z" fill="#286AD8"/>
<path d="M577.303 145H432.303V0.000244141L577.303 145Z" fill="#286AD8"/>
<mask id="mask0_141_673" style="mask-type:alpha" maskUnits="userSpaceOnUse" x="145" y="0" width="290" height="145">
<path d="M361.87 0C402.002 0 434.535 32.4594 434.535 72.5C434.535 112.541 402.002 145 361.87 145H184.424C162.651 145 145 127.147 145 105.125V0H361.87Z" fill="#286AD8"/>
</mask>
<g mask="url(#mask0_141_673)">
<g opacity="0.4" style="mix-blend-mode:multiply">
<path d="M414.787 142.424C448.507 176.145 411.437 139.072 378.281 105.917C378.242 105.874 378.2 105.835 378.159 105.794C378.119 105.752 378.078 105.712 378.037 105.672C377.997 105.63 377.956 105.59 377.914 105.549C377.874 105.507 377.833 105.468 377.792 105.427C377.752 105.385 377.711 105.345 377.669 105.305C377.63 105.262 377.588 105.223 377.547 105.182C377.507 105.14 377.466 105.1 377.425 105.06C377.385 105.018 377.344 104.978 377.302 104.937C377.262 104.895 377.221 104.856 377.18 104.815C377.14 104.773 377.099 104.733 377.057 104.693C377.018 104.65 376.976 104.611 376.935 104.57C376.895 104.528 376.854 104.488 376.813 104.448C376.773 104.406 376.732 104.366 376.69 104.325C376.65 104.283 376.609 104.244 376.568 104.203C376.528 104.161 376.487 104.121 376.445 104.081C376.406 104.038 376.364 103.999 376.323 103.958C376.283 103.916 376.242 103.876 376.201 103.836C376.161 103.794 376.12 103.754 376.078 103.713C376.038 103.671 375.997 103.632 375.956 103.591C375.916 103.549 375.875 103.509 375.833 103.469C375.794 103.426 375.752 103.387 375.711 103.346C375.671 103.304 375.63 103.264 375.589 103.224C375.549 103.182 375.508 103.142 375.466 103.101C375.426 103.059 375.385 103.02 375.344 102.979C375.304 102.937 375.263 102.897 375.221 102.857C375.182 102.814 375.14 102.775 375.099 102.734C375.059 102.692 375.018 102.652 374.977 102.612C374.937 102.57 374.896 102.53 374.854 102.489C374.814 102.447 374.773 102.408 374.732 102.367C374.692 102.325 374.651 102.285 374.609 102.245C374.57 102.202 374.528 102.163 374.487 102.122C374.447 102.08 374.406 102.04 374.365 102C374.325 101.958 374.284 101.918 374.242 101.877C374.202 101.835 374.161 101.796 374.12 101.755C374.08 101.713 374.039 101.673 373.997 101.633C373.958 101.59 373.916 101.551 373.875 101.51C373.835 101.468 373.794 101.428 373.753 101.388C373.713 101.346 373.672 101.306 373.63 101.265C373.59 101.223 373.549 101.184 373.508 101.143C373.468 101.101 373.427 101.061 373.385 101.021C373.346 100.978 373.304 100.939 373.263 100.898C373.223 100.856 373.182 100.816 373.141 100.776C373.101 100.734 373.06 100.694 373.018 100.653C372.978 100.611 372.937 100.572 372.896 100.531C372.856 100.489 372.815 100.449 372.773 100.409C372.734 100.366 372.692 100.327 372.651 100.286C372.611 100.244 372.57 100.204 372.529 100.164C372.489 100.122 372.448 100.082 372.406 100.041C372.366 99.9992 372.325 99.9596 372.284 99.9189C372.244 99.8768 372.203 99.8372 372.161 99.7966C372.122 99.7544 372.08 99.7148 372.039 99.6741C371.999 99.632 371.958 99.5924 371.917 99.5518C371.877 99.5096 371.836 99.47 371.794 99.4293C371.754 99.3872 371.713 99.3476 371.672 99.3069C371.632 99.2648 371.591 99.2252 371.549 99.1846C371.51 99.1424 371.468 99.1028 371.427 99.0621C371.387 99.02 371.346 98.9804 371.305 98.9398C371.265 98.8976 371.224 98.858 371.182 98.8173C371.142 98.7752 371.101 98.7356 371.06 98.6949C371.02 98.6528 370.979 98.6132 370.937 98.5726C370.898 98.5304 370.856 98.4908 370.815 98.4501C370.775 98.408 370.734 98.3684 370.693 98.3278C370.653 98.2856 370.612 98.246 370.57 98.2053C370.53 98.1632 370.489 98.1236 370.448 98.0829C370.408 98.0408 370.367 98.0012 370.325 97.9606C370.286 97.9184 370.244 97.8788 370.203 97.8381C370.163 97.796 370.122 97.7564 370.081 97.7158C370.041 97.6736 370 97.634 369.958 97.5933C369.918 97.5512 369.877 97.5116 369.836 97.4709C369.796 97.4288 369.755 97.3892 369.713 97.3486C369.674 97.3064 369.632 97.2668 369.591 97.2261C369.551 97.184 369.51 97.1444 369.469 97.1038C369.429 97.0616 369.388 97.022 369.346 96.9813C369.306 96.9392 369.265 96.8996 369.224 96.8589C369.184 96.8168 369.143 96.7772 369.101 96.7366C369.062 96.6944 369.02 96.6548 368.979 96.6141C368.939 96.572 368.898 96.5324 368.857 96.4918C368.817 96.4496 368.776 96.41 368.734 96.3693C368.694 96.3272 368.653 96.2876 368.612 96.2469C368.572 96.2048 368.531 96.1652 368.489 96.1246C368.45 96.0824 368.408 96.0428 368.367 96.0021C368.327 95.96 368.286 95.9204 368.245 95.8798C368.205 95.8376 368.164 95.798 368.122 95.7573C368.082 95.7152 368.041 95.6756 368 95.6349C367.96 95.5928 367.919 95.5532 367.877 95.5126C367.838 95.4704 367.796 95.4308 367.755 95.3901C367.715 95.348 367.674 95.3084 367.633 95.2678C367.593 95.2256 367.552 95.186 367.51 95.1453C367.47 95.1032 367.429 95.0636 367.388 95.0229C367.348 94.9808 367.307 94.9412 367.265 94.9006C367.226 94.8584 367.184 94.8188 367.143 94.7781C367.103 94.736 367.062 94.6964 367.021 94.6558C366.981 94.6136 366.94 94.574 366.898 94.5333C366.858 94.4912 366.817 94.4516 366.776 94.4109C366.736 94.3688 366.695 94.3292 366.653 94.2886C366.614 94.2464 366.572 94.2068 366.531 94.1661C366.491 94.124 366.45 94.0844 366.409 94.0438C366.369 94.0016 366.328 93.962 366.286 93.9213C366.246 93.8792 366.205 93.8396 366.164 93.799C366.124 93.7568 366.083 93.7172 366.041 93.6766C366.002 93.6344 365.96 93.5948 365.919 93.5541C365.879 93.512 365.838 93.4724 365.797 93.4318C365.757 93.3896 365.716 93.35 365.674 93.3093C365.634 93.2672 365.593 93.2276 365.552 93.187C365.512 93.1448 365.471 93.1052 365.429 93.0646C365.39 93.0224 365.348 92.9828 365.307 92.9421C365.267 92.9 365.226 92.8604 365.185 92.8198C365.145 92.7776 365.104 92.738 365.062 92.6973C365.022 92.6552 364.981 92.6156 364.94 92.575C364.9 92.5328 364.859 92.4932 364.817 92.4526C364.778 92.4104 364.736 92.3708 364.695 92.3301C364.655 92.288 364.614 92.2484 364.573 92.2078C364.533 92.1656 364.492 92.126 364.45 92.0853C364.41 92.0432 364.369 92.0036 364.328 91.963C364.288 91.9208 364.247 91.8812 364.205 91.8405C364.166 91.7984 364.124 91.7588 364.083 91.7181C364.043 91.676 364.002 91.6364 363.961 91.5958C363.921 91.5536 363.88 91.514 363.838 91.4733C363.798 91.4312 363.757 91.3916 363.716 91.351C363.676 91.3088 363.635 91.2692 363.593 91.2285C363.554 91.1864 363.512 91.1468 363.471 91.1061C363.431 91.064 363.39 91.0244 363.349 90.9838C363.309 90.9416 363.268 90.902 363.226 90.8613C363.186 90.8192 363.145 90.7796 363.104 90.739C363.064 90.6968 363.023 90.6572 362.981 90.6165C362.942 90.5744 362.9 90.5348 362.859 90.4941C362.819 90.452 362.778 90.4124 362.737 90.3718C362.697 90.3296 362.656 90.29 362.614 90.2493C362.574 90.2072 362.533 90.1676 362.492 90.127C362.452 90.0848 362.411 90.0452 362.369 90.0045C362.33 89.9624 362.288 89.9228 362.247 89.8821C362.207 89.84 362.166 89.8004 362.125 89.7598C362.085 89.7176 362.044 89.678 362.002 89.6373C361.962 89.5952 361.921 89.5556 361.88 89.515C361.84 89.4728 361.799 89.4332 361.757 89.3925C361.718 89.3504 361.676 89.3108 361.635 89.2701C361.595 89.228 361.554 89.1884 361.513 89.1478C361.473 89.1056 361.432 89.066 361.39 89.0253C361.35 88.9832 361.309 88.9436 361.268 88.903C361.228 88.8608 361.187 88.8212 361.145 88.7805C361.106 88.7384 361.064 88.6988 361.023 88.6581C360.983 88.616 360.942 88.5764 360.901 88.5358C360.861 88.4936 360.82 88.454 360.778 88.4133C360.738 88.3712 360.697 88.3316 360.656 88.291C360.616 88.2488 360.575 88.2092 360.533 88.1685C360.494 88.1264 360.452 88.0868 360.411 88.0461C360.371 88.004 360.33 87.9644 360.289 87.9238C360.249 87.8816 360.208 87.842 360.166 87.8013C360.126 87.7592 360.085 87.7196 360.044 87.679C360.004 87.6368 359.963 87.5972 359.921 87.5565C359.882 87.5144 359.84 87.4748 359.799 87.4341C359.759 87.392 359.718 87.3524 359.677 87.3118C359.637 87.2696 359.596 87.23 359.554 87.1893C359.514 87.1472 359.473 87.1076 359.432 87.067C359.392 87.0248 359.351 86.9852 359.309 86.9445C359.27 86.9024 359.228 86.8628 359.187 86.8221C359.147 86.78 359.106 86.7404 359.065 86.6998C359.025 86.6576 358.984 86.618 358.942 86.5773C358.902 86.5352 358.861 86.4956 358.82 86.455C358.78 86.4128 358.739 86.3732 358.697 86.3325C358.658 86.2904 358.616 86.2508 358.575 86.2101C358.535 86.168 358.494 86.1284 358.453 86.0878C358.413 86.0456 358.372 86.006 358.33 85.9653C358.29 85.9232 358.249 85.8836 358.208 85.843C358.168 85.8008 358.127 85.7612 358.085 85.7205C358.046 85.6784 358.004 85.6388 357.963 85.5981C357.923 85.556 357.882 85.5164 357.841 85.4758C357.801 85.4336 357.76 85.394 357.718 85.3533C357.678 85.3112 357.637 85.2716 357.596 85.231C357.556 85.1888 357.515 85.1492 357.473 85.1085C357.434 85.0664 357.392 85.0268 357.351 84.9861C357.311 84.944 357.27 84.9044 357.229 84.8638C357.189 84.8216 357.148 84.782 357.106 84.7413C357.066 84.6992 357.025 84.6596 356.984 84.619C356.944 84.5768 356.903 84.5372 356.861 84.4965C356.822 84.4544 356.78 84.4148 356.739 84.3741C356.699 84.332 356.658 84.2924 356.617 84.2518C356.577 84.2096 356.536 84.17 356.494 84.1293C356.454 84.0872 356.413 84.0476 356.372 84.007C356.332 83.9648 356.291 83.9252 356.249 83.8845C356.21 83.8424 356.168 83.8028 356.127 83.7621C356.087 83.72 356.046 83.6804 356.005 83.6398C355.965 83.5976 355.924 83.558 355.882 83.5173C355.842 83.4752 355.801 83.4356 355.76 83.395C355.72 83.3528 355.679 83.3132 355.637 83.2725C355.598 83.2304 355.556 83.1908 355.515 83.1501C355.475 83.108 355.434 83.0684 355.393 83.0278C355.353 82.9856 355.312 82.946 355.27 82.9053C355.23 82.8632 355.189 82.8236 355.148 82.783C355.108 82.7408 355.067 82.7012 355.025 82.6605C354.986 82.6184 354.944 82.5788 354.903 82.5381C354.863 82.496 354.822 82.4564 354.781 82.4158C354.741 82.3736 354.7 82.334 354.658 82.2933C354.618 82.2512 354.577 82.2116 354.536 82.171C354.496 82.1288 354.455 82.0892 354.413 82.0485C354.374 82.0064 354.332 81.9668 354.291 81.9261C354.251 81.884 354.21 81.8444 354.169 81.8038C354.129 81.7616 354.088 81.722 354.046 81.6813C354.006 81.6392 353.965 81.5996 353.924 81.559C353.884 81.5168 353.843 81.4772 353.801 81.4365C353.762 81.3944 353.72 81.3548 353.679 81.3141C353.639 81.272 353.598 81.2324 353.557 81.1918C353.517 81.1496 353.476 81.11 353.434 81.0693C353.394 81.0272 353.353 80.9876 353.312 80.947C353.272 80.9048 353.231 80.8652 353.189 80.8245C353.15 80.7824 353.108 80.7428 353.067 80.7021C353.027 80.66 352.986 80.6204 352.945 80.5798C352.905 80.5376 352.864 80.498 352.822 80.4573C352.782 80.4152 352.741 80.3756 352.7 80.335C352.66 80.2928 352.619 80.2532 352.577 80.2125C352.538 80.1704 352.496 80.1308 352.455 80.0901C352.415 80.048 352.374 80.0084 352.333 79.9678C352.293 79.9256 352.252 79.886 352.21 79.8453C352.17 79.8032 352.129 79.7636 352.088 79.723C352.048 79.6808 352.007 79.6412 351.965 79.6005C351.926 79.5584 351.884 79.5188 351.843 79.4781C351.803 79.436 351.762 79.3964 351.721 79.3558C351.681 79.3136 351.64 79.274 351.598 79.2333C351.558 79.1912 351.517 79.1516 351.476 79.111C351.436 79.0688 351.395 79.0292 351.353 78.9885C351.314 78.9464 351.272 78.9068 351.231 78.8661C351.191 78.824 351.15 78.7844 351.109 78.7438C351.069 78.7016 351.028 78.662 350.986 78.6213C350.946 78.5792 350.905 78.5396 350.864 78.499C350.824 78.4568 350.783 78.4172 350.741 78.3765C350.702 78.3344 350.66 78.2948 350.619 78.2542C350.579 78.212 350.538 78.1724 350.497 78.1318C350.457 78.0896 350.416 78.05 350.374 78.0093C350.334 77.9672 350.293 77.9276 350.252 77.887C350.212 77.8448 350.171 77.8052 350.129 77.7645C350.09 77.7224 350.048 77.6828 350.007 77.6422C349.967 77.6 349.926 77.5604 349.885 77.5198C349.845 77.4776 349.804 77.438 349.762 77.3973C349.722 77.3552 349.681 77.3156 349.64 77.275C349.6 77.2328 349.559 77.1932 349.517 77.1525C349.478 77.1104 349.436 77.0708 349.395 77.0302C349.355 76.988 349.314 76.9484 349.273 76.9077C349.233 76.8656 349.192 76.826 349.15 76.7853C349.11 76.7432 349.069 76.7036 349.028 76.663C348.988 76.6208 348.947 76.5812 348.905 76.5405C348.866 76.4984 348.824 76.4588 348.783 76.4182C348.743 76.376 348.702 76.3364 348.661 76.2957C348.621 76.2536 348.58 76.214 348.538 76.1733C348.498 76.1312 348.457 76.0916 348.416 76.051C348.376 76.0088 348.335 75.9692 348.293 75.9285C348.254 75.8864 348.212 75.8468 348.171 75.8062C348.131 75.764 348.09 75.7244 348.049 75.6837C348.009 75.6416 347.968 75.602 347.926 75.5613C347.886 75.5192 347.845 75.4796 347.804 75.439C347.764 75.3968 347.723 75.3572 347.681 75.3165C347.642 75.2744 347.6 75.2348 347.559 75.1942C347.519 75.152 347.478 75.1124 347.437 75.0717C347.397 75.0296 347.356 74.99 347.314 74.9493C347.274 74.9072 347.233 74.8676 347.192 74.827C347.152 74.7848 347.111 74.7452 347.069 74.7045C347.03 74.6624 346.988 74.6228 346.947 74.5822C346.907 74.54 346.866 74.5004 346.825 74.4597C346.785 74.4176 346.744 74.378 346.702 74.3373C346.662 74.2952 346.621 74.2556 346.58 74.215C346.54 74.1728 346.499 74.1332 346.457 74.0925C346.418 74.0504 346.376 74.0108 346.335 73.9702C346.295 73.928 346.254 73.8884 346.213 73.8477C346.173 73.8056 346.132 73.766 346.09 73.7253C346.05 73.6832 346.009 73.6436 345.968 73.603C345.928 73.5608 345.887 73.5212 345.845 73.4805C345.806 73.4384 345.764 73.3988 345.723 73.3582C345.683 73.316 345.642 73.2764 345.601 73.2357C345.561 73.1936 345.52 73.154 345.478 73.1133C345.438 73.0712 345.397 73.0316 345.356 72.991C345.316 72.9488 345.275 72.9092 345.233 72.8685C345.194 72.8264 345.152 72.7868 345.111 72.7462C345.071 72.704 345.03 72.6644 344.989 72.6237C344.949 72.5816 344.908 72.542 344.866 72.5013C344.826 72.4592 344.785 72.4196 344.744 72.379C344.704 72.3368 344.663 72.2972 344.621 72.2565C344.582 72.2144 344.54 72.1748 344.499 72.1342C344.459 72.092 344.418 72.0524 344.377 72.0117C344.337 71.9696 344.296 71.93 344.254 71.8893C344.214 71.8472 344.173 71.8076 344.132 71.767C344.092 71.7248 344.051 71.6852 344.009 71.6445C343.97 71.6024 343.928 71.5628 343.887 71.5222C343.847 71.48 343.806 71.4404 343.765 71.3997C343.725 71.3576 343.684 71.318 343.642 71.2773C343.602 71.2352 343.561 71.1956 343.52 71.155C343.48 71.1128 343.439 71.0732 343.397 71.0325C343.358 70.9904 343.316 70.9508 343.275 70.9102C343.235 70.868 343.194 70.8284 343.153 70.7877C343.113 70.7456 343.072 70.706 343.03 70.6653C342.99 70.6232 342.949 70.5836 342.908 70.543C342.868 70.5008 342.827 70.4612 342.785 70.4205C342.746 70.3784 342.704 70.3388 342.663 70.2982C342.623 70.256 342.582 70.2164 342.541 70.1757C342.501 70.1336 342.46 70.094 342.418 70.0533C342.378 70.0112 342.337 69.9716 342.296 69.931C342.256 69.8888 342.215 69.8492 342.173 69.8085C342.134 69.7664 342.092 69.7268 342.051 69.6862C342.011 69.644 341.97 69.6044 341.929 69.5637C341.889 69.5216 341.848 69.482 341.806 69.4413C340.953 68.539 339.761 67.9736 338.438 67.9736H299.243C299.21 67.9352 299.169 67.9066 299.134 67.8701C299.096 67.8256 299.052 67.7896 299.012 67.7476C298.974 67.7032 298.93 67.6672 298.89 67.6252C298.852 67.5808 298.807 67.5449 298.767 67.5029C298.729 67.4584 298.685 67.4224 298.645 67.3804C298.607 67.336 298.563 67.3 298.522 67.2581C298.484 67.2136 298.44 67.1776 298.4 67.1356C298.362 67.0912 298.318 67.0552 298.278 67.0132C298.24 66.9688 298.195 66.9329 298.155 66.8909C298.117 66.8464 298.073 66.8104 298.033 66.7684C297.995 66.724 297.951 66.688 297.91 66.6461C297.872 66.6016 297.828 66.5656 297.788 66.5236C297.75 66.4792 297.706 66.4432 297.666 66.4012C297.628 66.3568 297.583 66.3209 297.543 66.2789C297.505 66.2344 297.461 66.1984 297.421 66.1564C297.383 66.112 297.339 66.076 297.298 66.0341C297.26 65.9896 297.216 65.9536 297.176 65.9116C297.138 65.8672 297.094 65.8312 297.054 65.7892C297.016 65.7448 296.971 65.7089 296.931 65.6669C296.893 65.6224 296.849 65.5864 296.809 65.5444C296.771 65.5 296.727 65.4641 296.686 65.4221C296.648 65.3776 296.604 65.3416 296.564 65.2996C296.526 65.2552 296.482 65.2192 296.442 65.1772C296.404 65.1328 296.359 65.0968 296.319 65.0548C296.281 65.0104 296.237 64.9744 296.197 64.9324C296.159 64.888 296.115 64.8521 296.074 64.8101C296.036 64.7656 295.992 64.7296 295.952 64.6876C295.914 64.6432 295.87 64.6072 295.83 64.5652C295.792 64.5208 295.747 64.4848 295.707 64.4428C295.669 64.3984 295.625 64.3624 295.585 64.3204C295.547 64.276 295.503 64.2401 295.462 64.1981C295.424 64.1536 295.38 64.1176 295.34 64.0756C295.302 64.0312 295.258 63.9952 295.218 63.9532C295.18 63.9088 295.135 63.8728 295.095 63.8308C295.057 63.7864 295.013 63.7504 294.973 63.7084C294.935 63.664 294.891 63.6281 294.85 63.5861C294.812 63.5416 294.768 63.5056 294.728 63.4636C294.69 63.4192 294.646 63.3832 294.606 63.3412C294.568 63.2968 294.523 63.2608 294.483 63.2188C294.445 63.1744 294.401 63.1384 294.361 63.0964C294.323 63.052 294.279 63.0161 294.238 62.9741C294.2 62.9296 294.156 62.8936 294.116 62.8516C294.078 62.8072 294.034 62.7712 293.994 62.7292C293.956 62.6848 293.911 62.6488 293.871 62.6068C293.833 62.5624 293.789 62.5264 293.749 62.4844C293.711 62.44 293.667 62.4041 293.626 62.3621C293.588 62.3176 293.544 62.2816 293.504 62.2396C293.466 62.1952 293.422 62.1592 293.382 62.1172C293.344 62.0728 293.299 62.0368 293.259 61.9948C293.221 61.9504 293.177 61.9144 293.137 61.8724C293.099 61.828 293.055 61.7921 293.014 61.7501C292.976 61.7056 292.932 61.6696 292.892 61.6276C292.854 61.5832 292.81 61.5472 292.77 61.5052C292.732 61.4608 292.687 61.4248 292.647 61.3828C292.609 61.3384 292.565 61.3024 292.525 61.2604C292.487 61.216 292.443 61.1801 292.402 61.1381C292.364 61.0936 292.32 61.0576 292.28 61.0156C292.242 60.9712 292.198 60.9352 292.158 60.8932C292.12 60.8488 292.075 60.8128 292.035 60.7708C291.997 60.7264 291.953 60.6904 291.913 60.6484C291.875 60.604 291.831 60.5681 291.79 60.5261C291.752 60.4816 291.708 60.4456 291.668 60.4036C291.63 60.3592 291.586 60.3232 291.546 60.2812C291.508 60.2368 291.463 60.2008 291.423 60.1588C291.385 60.1144 291.341 60.0784 291.301 60.0364C291.263 59.992 291.219 59.9561 291.178 59.9141C291.14 59.8696 291.096 59.8336 291.056 59.7916C291.018 59.7472 290.974 59.7112 290.934 59.6693C290.896 59.6248 290.851 59.5888 290.811 59.5468C290.773 59.5024 290.729 59.4664 290.689 59.4244C290.651 59.38 290.607 59.3441 290.566 59.3021C290.528 59.2576 290.484 59.2216 290.444 59.1796C290.406 59.1352 290.362 59.0992 290.322 59.0573C290.284 59.0128 290.239 58.9768 290.199 58.9348C290.161 58.8904 290.117 58.8544 290.077 58.8124C290.039 58.768 289.995 58.7321 289.954 58.6901C289.916 58.6456 289.872 58.6096 289.832 58.5676C289.794 58.5232 289.75 58.4872 289.71 58.4453C289.672 58.4008 289.627 58.3648 289.587 58.3228C289.549 58.2784 289.505 58.2424 289.465 58.2004C289.427 58.156 289.383 58.1201 289.342 58.0781C289.304 58.0336 289.26 57.9976 289.22 57.9556C289.182 57.9112 289.138 57.8752 289.098 57.8333C289.06 57.7888 289.015 57.7528 288.975 57.7108C288.937 57.6664 288.893 57.6304 288.853 57.5884C288.815 57.544 288.771 57.5081 288.73 57.4661C288.692 57.4216 288.648 57.3856 288.608 57.3436C288.57 57.2992 288.526 57.2632 288.486 57.2213C288.448 57.1768 288.403 57.1408 288.363 57.0988C288.325 57.0544 288.281 57.0184 288.241 56.9764C288.203 56.932 288.159 56.8961 288.118 56.8541C288.08 56.8096 288.036 56.7736 287.996 56.7316C287.958 56.6872 287.914 56.6512 287.874 56.6093C287.836 56.5648 287.791 56.5288 287.751 56.4868C287.713 56.4424 287.669 56.4064 287.629 56.3644C287.591 56.32 287.547 56.2841 287.506 56.2421C287.468 56.1976 287.424 56.1616 287.384 56.1196C287.346 56.0752 287.302 56.0392 287.262 55.9973C287.224 55.9528 287.179 55.9168 287.139 55.8748C287.101 55.8304 287.057 55.7944 287.017 55.7524C286.979 55.708 286.935 55.6721 286.894 55.6301C286.856 55.5856 286.812 55.5496 286.772 55.5076C286.734 55.4632 286.69 55.4272 286.65 55.3853C286.612 55.3408 286.567 55.3048 286.527 55.2628C286.489 55.2184 286.445 55.1824 286.405 55.1404C286.367 55.096 286.323 55.0601 286.282 55.0181C286.244 54.9736 286.2 54.9376 286.16 54.8956C286.122 54.8512 286.078 54.8152 286.038 54.7733C286 54.7288 285.955 54.6928 285.915 54.6508C285.877 54.6064 285.833 54.5704 285.793 54.5284C285.755 54.484 285.711 54.4481 285.67 54.4061C285.632 54.3616 285.588 54.3256 285.548 54.2836C285.51 54.2392 285.466 54.2032 285.426 54.1613C285.388 54.1168 285.343 54.0808 285.303 54.0388C285.265 53.9944 285.221 53.9584 285.181 53.9164C285.143 53.872 285.099 53.8361 285.058 53.7941C285.02 53.7496 284.976 53.7136 284.936 53.6716C284.898 53.6272 284.854 53.5912 284.814 53.5493C284.776 53.5048 284.731 53.4688 284.691 53.4268C284.653 53.3824 284.609 53.3464 284.569 53.3044C284.531 53.26 284.487 53.2241 284.446 53.1821C284.408 53.1376 284.364 53.1016 284.324 53.0596C284.286 53.0152 284.242 52.9792 284.202 52.9373C284.164 52.8928 284.119 52.8568 284.079 52.8148C284.041 52.7704 283.997 52.7344 283.957 52.6924C283.919 52.648 283.875 52.6121 283.834 52.5701C283.796 52.5256 283.752 52.4896 283.712 52.4476C283.674 52.4032 283.63 52.3672 283.59 52.3253C283.552 52.2808 283.507 52.2448 283.467 52.2028C283.429 52.1584 283.385 52.1224 283.345 52.0804C283.307 52.036 283.263 52.0001 283.222 51.9581C283.184 51.9136 283.14 51.8776 283.1 51.8356C283.062 51.7912 283.018 51.7552 282.978 51.7133C282.94 51.6688 282.895 51.6328 282.855 51.5908C282.817 51.5464 282.773 51.5104 282.733 51.4684C282.695 51.424 282.651 51.3881 282.61 51.3461C282.572 51.3016 282.528 51.2656 282.488 51.2236C282.45 51.1792 282.406 51.1432 282.366 51.1013C282.328 51.0568 282.283 51.0208 282.243 50.9788C282.205 50.9344 282.161 50.8984 282.121 50.8564C282.083 50.812 282.039 50.7761 281.998 50.7341C281.96 50.6896 281.916 50.6536 281.876 50.6116C281.838 50.5672 281.794 50.5312 281.754 50.4893C281.716 50.4448 281.671 50.4088 281.631 50.3668C281.593 50.3224 281.549 50.2864 281.509 50.2444C281.471 50.2 281.427 50.164 281.386 50.122C281.348 50.0776 281.304 50.0416 281.264 49.9996C281.226 49.9552 281.182 49.9193 281.142 49.8773C281.104 49.8328 281.059 49.7968 281.019 49.7548C280.981 49.7104 280.937 49.6744 280.897 49.6324C280.859 49.588 280.815 49.552 280.774 49.51C280.736 49.4656 280.692 49.4296 280.652 49.3876C280.614 49.3432 280.57 49.3073 280.53 49.2653C280.492 49.2208 280.447 49.1848 280.407 49.1428C280.369 49.0984 280.325 49.0624 280.285 49.0204C280.247 48.976 280.203 48.94 280.162 48.898C280.124 48.8536 280.08 48.8176 280.04 48.7756C280.002 48.7312 279.958 48.6953 279.918 48.6533C279.88 48.6088 279.835 48.5728 279.795 48.5308C279.757 48.4864 279.713 48.4504 279.673 48.4084C279.635 48.364 279.591 48.328 279.55 48.286C279.512 48.2416 279.468 48.2056 279.428 48.1636C279.39 48.1192 279.346 48.0833 279.306 48.0413C279.268 47.9968 279.223 47.9608 279.183 47.9188C279.145 47.8744 279.101 47.8384 279.061 47.7964C279.023 47.752 278.979 47.716 278.938 47.674C278.9 47.6296 278.856 47.5936 278.816 47.5516C278.778 47.5072 278.734 47.4713 278.694 47.4293C278.656 47.3848 278.611 47.3488 278.571 47.3068C278.533 47.2624 278.489 47.2264 278.449 47.1844C278.411 47.14 278.367 47.104 278.326 47.062C278.288 47.0176 278.244 46.9816 278.204 46.9396C278.166 46.8952 278.122 46.8593 278.082 46.8173C278.044 46.7728 277.999 46.7368 277.959 46.6948C277.921 46.6504 277.877 46.6144 277.837 46.5724C277.799 46.528 277.755 46.492 277.714 46.45C277.676 46.4056 277.632 46.3696 277.592 46.3276C277.554 46.2832 277.51 46.2473 277.47 46.2053C277.432 46.1608 277.387 46.1248 277.347 46.0828C277.309 46.0384 277.265 46.0024 277.225 45.9604C277.187 45.916 277.143 45.88 277.102 45.838C277.064 45.7936 277.02 45.7576 276.98 45.7156C276.942 45.6712 276.898 45.6353 276.858 45.5933C276.82 45.5488 276.775 45.5128 276.735 45.4708C276.697 45.4264 276.653 45.3904 276.613 45.3484C276.575 45.304 276.531 45.268 276.49 45.226C276.452 45.1816 276.408 45.1456 276.368 45.1036C276.33 45.0592 276.286 45.0233 276.246 44.9813C276.208 44.9368 276.163 44.9008 276.123 44.8588C276.085 44.8144 276.041 44.7784 276.001 44.7365C275.963 44.692 275.919 44.656 275.878 44.614C275.84 44.5696 275.796 44.5336 275.756 44.4916C275.718 44.4472 275.674 44.4113 275.634 44.3693C275.596 44.3248 275.551 44.2888 275.511 44.2468C275.473 44.2024 275.429 44.1664 275.389 44.1245C275.351 44.08 275.307 44.044 275.266 44.002C275.228 43.9576 275.184 43.9216 275.144 43.8796C275.106 43.8352 275.062 43.7993 275.022 43.7573C274.984 43.7128 274.939 43.6768 274.899 43.6348C274.861 43.5904 274.817 43.5544 274.777 43.5125C274.739 43.468 274.695 43.432 274.654 43.39C274.616 43.3456 274.572 43.3096 274.532 43.2676C274.494 43.2232 274.45 43.1873 274.41 43.1453C274.372 43.1008 274.327 43.0648 274.287 43.0228C274.249 42.9784 274.205 42.9424 274.165 42.9005C274.127 42.8561 274.083 42.8201 274.043 42.7782C274.004 42.7336 273.96 42.6975 273.92 42.6555C273.376 42.0201 272.621 41.6248 271.784 41.6248H190.135C188.477 41.6248 187.134 43.1709 187.134 45.0782V56.1293C187.134 57.1413 187.519 58.0428 188.121 58.6744C188.159 58.7188 188.204 58.7546 188.244 58.7965C188.282 58.8409 188.326 58.877 188.366 58.9191C188.404 58.9635 188.448 58.9995 188.489 59.0415C188.527 59.0859 188.571 59.1219 188.611 59.1639C188.649 59.2084 188.693 59.2444 188.733 59.2864C188.771 59.3307 188.816 59.3666 188.856 59.4085C188.894 59.4529 188.938 59.489 188.978 59.5311C189.016 59.5755 189.06 59.6115 189.101 59.6535C189.139 59.6979 189.183 59.7339 189.223 59.7759C189.261 59.8204 189.305 59.8564 189.345 59.8984C189.383 59.9427 189.428 59.9786 189.468 60.0205C189.506 60.0649 189.55 60.101 189.59 60.1431C189.628 60.1875 189.672 60.2235 189.713 60.2655C189.751 60.3099 189.795 60.3459 189.835 60.3879C189.873 60.4324 189.917 60.4684 189.957 60.5104C189.995 60.5547 190.04 60.5906 190.08 60.6325C190.118 60.6769 190.162 60.713 190.202 60.7551C190.24 60.7995 190.284 60.8355 190.325 60.8775C190.363 60.9219 190.407 60.9579 190.447 60.9999C190.485 61.0444 190.529 61.0804 190.569 61.1224C190.607 61.1667 190.652 61.2026 190.692 61.2445C190.73 61.2889 190.774 61.325 190.814 61.3671C190.852 61.4115 190.896 61.4475 190.937 61.4895C190.975 61.5339 191.019 61.5699 191.059 61.6119C191.097 61.6564 191.141 61.6924 191.181 61.7344C191.219 61.7787 191.264 61.8146 191.304 61.8565C191.342 61.9009 191.386 61.937 191.426 61.9791C191.464 62.0235 191.508 62.0595 191.549 62.1015C191.587 62.1459 191.631 62.1819 191.671 62.2239C191.709 62.2684 191.753 62.3044 191.793 62.3464C191.831 62.3907 191.876 62.4266 191.916 62.4685C191.954 62.5131 191.998 62.5491 192.038 62.5912C192.076 62.6356 192.12 62.6714 192.16 62.7133C192.198 62.7578 192.243 62.7938 192.283 62.8359C192.321 62.8804 192.365 62.9164 192.405 62.9584C192.443 63.0027 192.488 63.0386 192.528 63.0805C192.566 63.1251 192.61 63.1611 192.65 63.2032C192.688 63.2476 192.732 63.2834 192.772 63.3253C192.81 63.3698 192.855 63.4058 192.895 63.4479C192.933 63.4924 192.977 63.5284 193.017 63.5704C193.055 63.6147 193.1 63.6506 193.14 63.6925C193.178 63.7371 193.222 63.7731 193.262 63.8152C193.3 63.8596 193.344 63.8954 193.384 63.9373C193.422 63.9818 193.467 64.0178 193.507 64.0599C193.545 64.1044 193.589 64.1404 193.629 64.1824C193.667 64.2267 193.712 64.2626 193.752 64.3045C193.79 64.3491 193.834 64.3851 193.874 64.4272C193.912 64.4716 193.956 64.5074 193.996 64.5493C194.034 64.5938 194.079 64.6298 194.119 64.6719C194.157 64.7164 194.201 64.7524 194.241 64.7944C194.279 64.8387 194.324 64.8746 194.364 64.9165C194.402 64.9611 194.446 64.9971 194.486 65.0392C194.524 65.0836 194.568 65.1194 194.608 65.1613C194.646 65.2057 194.691 65.2418 194.731 65.2839C194.769 65.3284 194.813 65.3644 194.853 65.4064C194.891 65.4507 194.936 65.4866 194.976 65.5285C195.014 65.5731 195.058 65.6091 195.098 65.6512C195.136 65.6956 195.18 65.7314 195.22 65.7733C195.258 65.8177 195.303 65.8538 195.343 65.8959C195.381 65.9404 195.425 65.9764 195.465 66.0184C195.503 66.0627 195.548 66.0986 195.588 66.1405C195.626 66.1851 195.67 66.2211 195.71 66.2632C195.748 66.3076 195.792 66.3434 195.832 66.3853C195.87 66.4297 195.915 66.4658 195.955 66.5079C195.993 66.5523 196.037 66.5883 196.077 66.6303C196.115 66.6747 196.16 66.7107 196.2 66.7527C196.238 66.7972 196.282 66.8332 196.322 66.8752C196.36 66.9196 196.404 66.9554 196.444 66.9973C196.482 67.0417 196.527 67.0778 196.567 67.1199C196.605 67.1643 196.649 67.2003 196.689 67.2423C196.727 67.2867 196.772 67.3227 196.812 67.3647C196.85 67.4092 196.894 67.4452 196.934 67.4872C196.972 67.5316 197.016 67.5674 197.056 67.6093C197.094 67.6537 197.139 67.6898 197.179 67.7319C197.217 67.7763 197.261 67.8123 197.301 67.8543C197.338 67.8976 197.382 67.9327 197.42 67.9736H191.829C189.236 67.9736 187.134 70.1262 187.134 72.7814V117.666C187.134 119.029 187.693 120.254 188.584 121.129C188.624 121.171 188.665 121.21 188.706 121.251C188.746 121.293 188.787 121.333 188.828 121.373C188.868 121.415 188.909 121.455 188.951 121.496C188.991 121.538 189.032 121.577 189.073 121.618C189.113 121.66 189.154 121.7 189.196 121.741C189.236 121.783 189.277 121.822 189.318 121.863C189.358 121.905 189.399 121.945 189.44 121.985C189.48 122.027 189.521 122.067 189.563 122.108C189.603 122.15 189.644 122.189 189.685 122.23C189.725 122.272 189.766 122.312 189.808 122.353C189.848 122.395 189.889 122.434 189.93 122.475C189.97 122.517 190.011 122.557 190.052 122.597C190.092 122.639 190.133 122.679 190.175 122.72C190.215 122.762 190.256 122.801 190.297 122.842C190.337 122.884 190.378 122.924 190.42 122.965C190.46 123.007 190.501 123.046 190.542 123.087C190.582 123.129 190.623 123.169 190.664 123.209C190.704 123.251 190.745 123.291 190.787 123.332C190.827 123.374 190.868 123.413 190.909 123.454C190.949 123.496 190.99 123.536 191.032 123.577C191.072 123.619 191.113 123.658 191.154 123.699C191.194 123.741 191.235 123.781 191.276 123.821C191.316 123.863 191.357 123.903 191.399 123.944C191.439 123.986 191.48 124.025 191.521 124.066C191.561 124.108 191.602 124.148 191.644 124.189C191.684 124.231 191.725 124.27 191.766 124.311C191.806 124.353 191.847 124.393 191.888 124.433C191.928 124.475 191.969 124.515 192.011 124.556C192.051 124.598 192.092 124.637 192.133 124.678C192.173 124.72 192.214 124.76 192.256 124.801C192.296 124.843 192.337 124.882 192.378 124.923C192.418 124.965 192.459 125.005 192.501 125.045C192.54 125.087 192.581 125.127 192.623 125.167C192.663 125.21 192.704 125.249 192.745 125.29C192.785 125.332 192.826 125.372 192.868 125.413C192.908 125.455 192.949 125.494 192.99 125.535C193.03 125.577 193.071 125.617 193.113 125.657C193.152 125.699 193.193 125.739 193.235 125.779C193.275 125.822 193.316 125.861 193.357 125.902C193.397 125.944 193.438 125.984 193.48 126.025C193.52 126.067 193.561 126.106 193.602 126.147C193.642 126.189 193.683 126.229 193.725 126.269C193.764 126.311 193.805 126.351 193.847 126.391C193.887 126.434 193.928 126.473 193.969 126.514C194.009 126.556 194.05 126.596 194.092 126.637C194.132 126.679 194.173 126.718 194.214 126.759C194.254 126.801 194.295 126.841 194.337 126.881C194.376 126.923 194.417 126.963 194.459 127.003C194.499 127.046 194.54 127.085 194.581 127.126C194.621 127.168 194.662 127.208 194.704 127.249C194.744 127.291 194.785 127.33 194.826 127.371C194.866 127.413 194.907 127.453 194.949 127.493C194.988 127.535 195.029 127.575 195.071 127.615C195.111 127.658 195.152 127.697 195.193 127.738C195.233 127.78 195.274 127.82 195.316 127.861C195.356 127.903 195.397 127.942 195.438 127.983C195.478 128.025 195.519 128.065 195.561 128.105C195.6 128.147 195.641 128.187 195.683 128.227C195.723 128.27 195.764 128.309 195.805 128.35C195.845 128.392 195.886 128.432 195.928 128.473C195.968 128.515 196.009 128.554 196.05 128.595C196.09 128.637 196.131 128.677 196.173 128.717C196.212 128.759 196.253 128.799 196.295 128.839C196.335 128.882 196.376 128.921 196.417 128.962C196.457 129.004 196.498 129.044 196.54 129.084C196.579 129.126 196.621 129.166 196.662 129.207C196.702 129.249 196.743 129.289 196.785 129.329C196.824 129.371 196.865 129.411 196.907 129.451C196.947 129.494 196.988 129.533 197.029 129.574C197.069 129.616 197.11 129.656 197.152 129.696C197.191 129.738 197.233 129.778 197.274 129.819C197.314 129.861 197.355 129.901 197.397 129.941C197.436 129.983 197.477 130.023 197.519 130.063C197.559 130.106 197.6 130.145 197.641 130.186C197.681 130.228 197.722 130.268 197.764 130.308C197.803 130.35 197.845 130.39 197.886 130.431C197.926 130.473 197.967 130.513 198.009 130.553C198.048 130.595 198.089 130.635 198.131 130.675C198.171 130.718 198.212 130.757 198.253 130.798C198.293 130.84 198.334 130.88 198.376 130.92C198.415 130.962 198.457 131.002 198.498 131.043C198.538 131.085 198.579 131.125 198.621 131.165C198.66 131.207 198.701 131.247 198.743 131.287C198.783 131.33 198.824 131.369 198.865 131.41C198.905 131.452 198.946 131.492 198.988 131.532C199.027 131.574 199.069 131.614 199.11 131.655C199.15 131.697 199.191 131.737 199.233 131.777C199.272 131.819 199.313 131.859 199.355 131.899C199.395 131.942 199.436 131.981 199.477 132.022C199.517 132.064 199.558 132.104 199.6 132.144C199.639 132.186 199.681 132.226 199.722 132.267C199.762 132.309 199.803 132.349 199.845 132.389C199.884 132.431 199.925 132.471 199.967 132.511C200.007 132.554 200.048 132.593 200.089 132.634C200.129 132.676 200.17 132.716 200.212 132.756C200.251 132.798 200.293 132.838 200.334 132.879C200.374 132.921 200.415 132.961 200.457 133.001C200.496 133.043 200.537 133.083 200.579 133.123C200.619 133.166 200.66 133.205 200.701 133.246C200.741 133.288 200.782 133.328 200.824 133.368C200.863 133.41 200.905 133.45 200.946 133.491C200.986 133.533 201.027 133.573 201.069 133.613C201.108 133.655 201.149 133.695 201.191 133.735C201.231 133.778 201.272 133.817 201.313 133.858C201.353 133.9 201.394 133.94 201.436 133.98C201.475 134.022 201.517 134.062 201.558 134.103C201.598 134.145 201.639 134.185 201.681 134.225C201.72 134.267 201.761 134.307 201.803 134.347C201.843 134.39 201.884 134.429 201.925 134.47C201.965 134.512 202.006 134.552 202.048 134.592C202.087 134.634 202.129 134.674 202.17 134.715C202.21 134.757 202.251 134.797 202.293 134.837C202.332 134.879 202.373 134.919 202.415 134.959C202.455 135.002 202.496 135.041 202.537 135.082C202.577 135.124 202.618 135.164 202.66 135.204C202.699 135.246 202.741 135.286 202.782 135.327C202.822 135.369 202.863 135.409 202.905 135.449C202.944 135.491 202.985 135.531 203.027 135.571C203.067 135.614 203.108 135.653 203.149 135.694C203.189 135.736 203.23 135.776 203.272 135.816C203.311 135.858 203.353 135.898 203.394 135.939C203.434 135.981 203.475 136.021 203.517 136.061C203.556 136.103 203.597 136.143 203.639 136.183C203.679 136.226 203.72 136.265 203.761 136.306C203.801 136.348 203.842 136.388 203.884 136.428C203.923 136.47 203.965 136.51 204.006 136.551C204.046 136.593 204.087 136.633 204.129 136.673C204.168 136.715 204.209 136.755 204.251 136.795C204.291 136.838 204.332 136.877 204.373 136.918C204.413 136.96 204.454 137 204.496 137.04C204.535 137.082 204.577 137.122 204.618 137.163C204.658 137.205 204.699 137.245 204.741 137.285C204.78 137.327 204.821 137.367 204.863 137.407C204.903 137.45 204.944 137.489 204.985 137.53C205.025 137.572 205.066 137.612 205.108 137.652C205.147 137.694 205.189 137.734 205.23 137.775C205.27 137.817 205.311 137.857 205.353 137.897C205.392 137.939 205.433 137.979 205.475 138.019C205.515 138.062 205.556 138.101 205.597 138.142C205.637 138.184 205.678 138.224 205.72 138.264C205.759 138.306 205.801 138.346 205.842 138.387C205.882 138.429 205.923 138.469 205.965 138.509C206.004 138.551 206.045 138.591 206.087 138.631C206.127 138.674 206.168 138.713 206.209 138.754C206.249 138.796 206.29 138.836 206.332 138.876C206.371 138.918 206.413 138.958 206.454 138.999C206.494 139.041 206.535 139.081 206.577 139.121C206.616 139.163 206.657 139.203 206.699 139.243C206.739 139.286 206.78 139.325 206.821 139.366C206.861 139.408 206.902 139.448 206.944 139.488C206.983 139.53 207.025 139.57 207.066 139.611C207.106 139.653 207.147 139.693 207.189 139.733C207.228 139.775 207.269 139.815 207.311 139.855C207.351 139.898 207.392 139.937 207.433 139.978C207.473 140.02 207.514 140.06 207.556 140.1C207.595 140.142 207.637 140.182 207.678 140.223C207.718 140.265 207.759 140.305 207.801 140.345C207.84 140.387 207.881 140.427 207.923 140.467C207.963 140.51 208.004 140.549 208.045 140.59C208.085 140.632 208.126 140.672 208.167 140.712C208.207 140.754 208.249 140.794 208.29 140.835C208.33 140.877 208.371 140.917 208.413 140.957C208.452 140.999 208.493 141.039 208.535 141.079C208.575 141.122 208.616 141.161 208.657 141.202C208.697 141.244 208.738 141.284 208.779 141.324C208.819 141.366 208.861 141.406 208.902 141.447C208.942 141.489 208.983 141.529 209.025 141.569C209.064 141.611 209.105 141.651 209.147 141.691C209.187 141.734 209.228 141.773 209.269 141.814C209.309 141.856 209.35 141.896 209.391 141.936C209.431 141.978 209.473 142.018 209.514 142.059C209.554 142.101 209.595 142.141 209.637 142.181C209.676 142.223 209.717 142.263 209.759 142.303C209.799 142.346 209.84 142.385 209.881 142.426C209.921 142.468 209.962 142.508 210.003 142.548C210.043 142.59 210.085 142.63 210.126 142.671C210.166 142.713 210.207 142.753 210.249 142.793C210.288 142.835 210.329 142.875 210.371 142.915C210.411 142.958 210.452 142.997 210.493 143.038C210.533 143.08 210.574 143.12 210.615 143.16C210.655 143.202 210.697 143.242 210.738 143.283C210.778 143.325 210.819 143.365 210.861 143.405C210.9 143.447 210.941 143.487 210.983 143.527C211.023 143.57 211.064 143.609 211.105 143.65C211.145 143.692 211.186 143.732 211.227 143.772C211.267 143.814 211.309 143.854 211.35 143.895C211.39 143.937 211.431 143.977 211.472 144.017C211.512 144.059 211.553 144.099 211.595 144.14C211.635 144.182 211.676 144.221 211.717 144.262C211.757 144.304 211.798 144.344 211.839 144.384C211.879 144.426 211.921 144.466 211.962 144.507C212.002 144.549 212.043 144.589 212.084 144.629C212.124 144.671 212.165 144.711 212.207 144.752C212.247 144.794 212.288 144.833 212.329 144.874C212.369 144.916 212.41 144.956 212.451 144.996C212.491 145.038 212.533 145.078 212.574 145.119C212.614 145.161 212.655 145.201 212.696 145.241C212.736 145.283 212.777 145.323 212.819 145.364C212.859 145.406 212.9 145.445 212.941 145.486C212.981 145.528 213.022 145.568 213.063 145.608C213.103 145.65 213.145 145.69 213.186 145.731C213.226 145.773 213.267 145.813 213.308 145.853C213.348 145.895 213.389 145.935 213.431 145.976C213.471 146.018 213.512 146.057 213.553 146.098C213.593 146.14 213.634 146.18 213.675 146.22C213.715 146.262 213.757 146.302 213.798 146.343C213.838 146.385 213.879 146.425 213.92 146.465C213.96 146.507 214.001 146.547 214.043 146.588C214.083 146.63 214.124 146.669 214.165 146.71C214.205 146.752 214.246 146.792 214.287 146.832C214.327 146.874 214.369 146.914 214.41 146.955C214.45 146.997 214.491 147.037 214.532 147.077C214.572 147.119 214.613 147.159 214.655 147.2C214.695 147.242 214.736 147.281 214.777 147.322C214.817 147.364 214.858 147.404 214.899 147.444C214.939 147.486 214.981 147.526 215.022 147.567C215.062 147.609 215.103 147.649 215.144 147.689C215.184 147.731 215.225 147.771 215.267 147.812C215.307 147.854 215.348 147.893 215.389 147.934C215.429 147.976 215.47 148.016 215.511 148.056C215.551 148.098 215.593 148.138 215.634 148.179C215.674 148.221 215.715 148.261 215.756 148.301C215.796 148.343 215.837 148.383 215.879 148.424C215.919 148.466 215.96 148.505 216.001 148.546C216.041 148.588 216.082 148.628 216.123 148.668C216.163 148.71 216.205 148.75 216.246 148.791C216.286 148.833 216.327 148.873 216.368 148.913C216.408 148.955 216.449 148.995 216.491 149.036C216.531 149.078 216.572 149.117 216.613 149.158C216.653 149.2 216.694 149.24 216.735 149.28C216.775 149.322 216.817 149.362 216.858 149.403C216.898 149.445 216.939 149.485 216.98 149.525C217.02 149.567 217.061 149.607 217.103 149.648C217.143 149.69 217.184 149.729 217.225 149.77C217.265 149.812 217.306 149.852 217.347 149.892C217.387 149.934 217.429 149.974 217.47 150.015C217.51 150.057 217.551 150.097 217.592 150.137C217.632 150.179 217.673 150.219 217.715 150.26C217.755 150.302 217.796 150.341 217.837 150.382C217.877 150.424 217.918 150.464 217.959 150.504C217.999 150.546 218.041 150.586 218.082 150.627C218.122 150.669 218.163 150.709 218.204 150.749C218.244 150.791 218.285 150.831 218.327 150.872C218.367 150.914 218.408 150.953 218.449 150.994C218.489 151.036 218.53 151.076 218.571 151.116C218.611 151.158 218.653 151.198 218.694 151.239C218.734 151.281 218.775 151.321 218.816 151.361C218.856 151.403 218.897 151.443 218.939 151.484C218.979 151.526 219.02 151.565 219.061 151.606C219.101 151.648 219.142 151.688 219.183 151.728C219.223 151.77 219.265 151.81 219.306 151.851C219.346 151.893 219.387 151.933 219.428 151.973C219.468 152.015 219.509 152.055 219.551 152.096C219.591 152.138 219.632 152.177 219.673 152.218C219.713 152.26 219.754 152.3 219.795 152.34C219.835 152.382 219.877 152.422 219.918 152.463C219.958 152.505 219.999 152.545 220.04 152.585C220.08 152.627 220.121 152.667 220.163 152.708C220.203 152.75 220.244 152.789 220.285 152.83C220.325 152.872 220.366 152.912 220.407 152.952C220.447 152.994 220.489 153.034 220.53 153.075C220.57 153.117 220.611 153.157 220.652 153.197C220.692 153.239 220.733 153.279 220.775 153.32C220.815 153.362 220.856 153.401 220.897 153.442C220.937 153.484 220.978 153.524 221.019 153.564C221.059 153.606 221.101 153.646 221.142 153.687C221.182 153.729 221.223 153.769 221.264 153.809C221.304 153.851 221.345 153.891 221.387 153.932C221.427 153.974 221.468 154.013 221.509 154.054C221.549 154.096 221.59 154.136 221.631 154.176C221.671 154.218 221.713 154.258 221.754 154.299C221.794 154.341 221.835 154.381 221.876 154.421C221.916 154.463 221.957 154.503 221.999 154.544C222.039 154.586 222.08 154.625 222.121 154.666C222.161 154.708 222.202 154.748 222.243 154.788C222.283 154.83 222.325 154.87 222.366 154.911C222.406 154.953 222.447 154.993 222.488 155.033C222.528 155.075 222.569 155.115 222.611 155.156C222.651 155.198 222.692 155.237 222.733 155.278C222.773 155.32 222.814 155.36 222.855 155.4C222.895 155.442 222.937 155.482 222.978 155.523C223.018 155.565 223.059 155.604 223.1 155.645C223.14 155.687 223.181 155.727 223.223 155.768C223.263 155.81 223.304 155.849 223.345 155.89C223.385 155.932 223.426 155.972 223.467 156.012C223.507 156.054 223.549 156.094 223.59 156.135C223.63 156.177 223.671 156.216 223.712 156.257C223.752 156.299 223.793 156.339 223.835 156.38C223.875 156.422 223.916 156.461 223.957 156.502C223.997 156.544 224.038 156.584 224.079 156.624C224.119 156.666 224.161 156.706 224.202 156.747C224.242 156.789 224.283 156.828 224.324 156.869C224.364 156.911 224.405 156.951 224.447 156.992C224.487 157.034 224.528 157.073 224.569 157.114C224.609 157.156 224.65 157.196 224.691 157.236C224.731 157.278 224.773 157.318 224.814 157.359C224.854 157.401 224.895 157.44 224.936 157.481C224.976 157.523 225.017 157.563 225.059 157.604C225.099 157.646 225.14 157.685 225.181 157.726C226.035 158.628 227.226 159.194 228.549 159.194H375.158C377.751 159.194 379.854 157.041 379.854 154.386V149.724C379.854 148.361 415.677 143.299 414.787 142.424Z" fill="#1545BB"/>
</g>
</g>
<path d="M271.784 41.6248H190.135C188.477 41.6248 187.134 43.1709 187.134 45.0782V56.1293C187.134 58.0366 188.477 59.5828 190.135 59.5828H271.784C273.441 59.5828 274.785 58.0366 274.785 56.1293V45.0782C274.785 43.1709 273.441 41.6248 271.784 41.6248Z" fill="#5187DF"/>
<path d="M257.438 52.4111L261.655 48.0936C261.838 47.9059 262.052 47.812 262.297 47.812C262.541 47.812 262.755 47.9059 262.938 48.0936L267.155 52.4111C267.323 52.5831 267.407 52.8021 267.407 53.068C267.407 53.334 267.323 53.553 267.155 53.7251C266.987 53.8971 266.773 53.9832 266.513 53.9832C266.254 53.9832 266.04 53.8971 265.872 53.7251L262.297 50.0646L258.721 53.7251C258.553 53.8971 258.339 53.9832 258.08 53.9832C257.82 53.9832 257.606 53.8971 257.438 53.7251C257.27 53.553 257.186 53.334 257.186 53.068C257.186 52.8021 257.27 52.5831 257.438 52.4111Z" fill="#1545BB"/>
<path d="M193.877 50.6039C193.877 49.3427 194.899 48.3203 196.161 48.3203H247.248C248.509 48.3203 249.532 49.3427 249.532 50.6039C249.532 51.8651 248.509 52.8875 247.248 52.8875H196.161C194.899 52.8875 193.877 51.8651 193.877 50.6039Z" fill="#1545BB"/>
<path d="M338.438 67.9736H191.829C189.236 67.9736 187.134 70.1261 187.134 72.7813V117.666C187.134 120.321 189.236 122.474 191.829 122.474H338.438C341.031 122.474 343.134 120.321 343.134 117.666V72.7813C343.134 70.1261 341.031 67.9736 338.438 67.9736Z" fill="#5187DF"/>
<path opacity="0.6" d="M197.134 82.7236C197.134 81.481 198.085 80.4736 199.259 80.4736H255.009C256.182 80.4736 257.134 81.481 257.134 82.7236C257.134 83.9663 256.182 84.9736 255.009 84.9736H199.259C198.085 84.9736 197.134 83.9663 197.134 82.7236Z" fill="#1545BB"/>
<path opacity="0.6" d="M197.134 96.4736C197.134 95.231 198.085 94.2236 199.259 94.2236H288.009C289.182 94.2236 290.134 95.231 290.134 96.4736C290.134 97.7163 289.182 98.7236 288.009 98.7236H199.259C198.085 98.7236 197.134 97.7163 197.134 96.4736Z" fill="#1545BB"/>
<path opacity="0.6" d="M197.134 111.224C197.134 109.981 198.085 108.974 199.259 108.974H279.009C280.182 108.974 281.134 109.981 281.134 111.224C281.134 112.466 280.182 113.474 279.009 113.474H199.259C198.085 113.474 197.134 112.466 197.134 111.224Z" fill="#1545BB"/>
</svg>
