<svg xmlns="http://www.w3.org/2000/svg" width="578" height="145" fill="none" viewBox="0 0 578 145"><path fill="#286ad8" d="M361.87 0c40.132 0 72.665 32.46 72.665 72.5S402.002 145 361.87 145H184.424C162.651 145 145 127.147 145 105.125V0zM145 105.125V0C64.919 0 0 64.92 0 145h105.125C127.148 145 145 127.148 145 105.125M531.647 74.25c18.018 0 32.625-14.607 32.625-32.625S549.665 9 531.647 9s-32.626 14.607-32.626 32.625 14.607 32.625 32.626 32.625"/><path fill="#286ad8" d="M577.303 145h-145V0z"/><mask id="a" width="290" height="145" x="145" y="0" maskUnits="userSpaceOnUse" style="mask-type:alpha"><path fill="#286ad8" d="M361.87 0c40.132 0 72.665 32.46 72.665 72.5S402.002 145 361.87 145H184.424C162.651 145 145 127.147 145 105.125V0z"/></mask><g mask="url(#a)"><path fill="#1545bb" d="M414.787 142.424c33.72 33.721-3.35-3.352-36.506-36.507q-.06-.063-.122-.123-.06-.062-.122-.122-.06-.062-.123-.123-.06-.062-.122-.122l-.123-.122q-.06-.063-.122-.123l-.122-.122q-.06-.062-.123-.123-.06-.062-.122-.122l-.123-.122q-.06-.063-.122-.123-.06-.062-.122-.122-.06-.062-.123-.123-.06-.062-.122-.122l-.123-.122q-.06-.063-.122-.123-.06-.062-.122-.122-.06-.062-.123-.123-.06-.062-.122-.122l-.123-.122q-.06-.063-.122-.123l-.122-.122q-.06-.062-.123-.123-.06-.062-.122-.122l-.123-.122q-.06-.063-.122-.123-.06-.062-.122-.122-.06-.062-.123-.123-.06-.062-.122-.122l-.123-.122q-.06-.063-.122-.123-.06-.062-.122-.122-.06-.062-.123-.123-.06-.062-.122-.122l-.123-.122q-.06-.063-.122-.123l-.122-.122q-.06-.062-.123-.123-.06-.062-.122-.122l-.123-.122q-.06-.063-.122-.123-.06-.062-.122-.122-.06-.062-.123-.123-.06-.062-.122-.122l-.123-.122q-.06-.063-.122-.123l-.122-.122q-.06-.062-.123-.123-.06-.062-.122-.122-.06-.062-.123-.122-.06-.063-.122-.123-.06-.062-.122-.122-.06-.062-.123-.123-.06-.062-.122-.122-.06-.062-.123-.122-.06-.063-.122-.123-.06-.062-.122-.122-.06-.062-.123-.123-.06-.062-.122-.122-.06-.062-.123-.122-.06-.063-.122-.123-.06-.062-.122-.122-.06-.062-.123-.123-.06-.062-.122-.122-.06-.062-.123-.122-.06-.063-.122-.123-.06-.062-.122-.122-.06-.062-.123-.123-.06-.062-.122-.122-.06-.062-.123-.122-.06-.063-.122-.123-.06-.062-.122-.122-.06-.062-.123-.123-.06-.062-.122-.122-.06-.062-.123-.122-.06-.063-.122-.123-.06-.062-.122-.122-.06-.062-.123-.123-.06-.062-.122-.122-.06-.062-.123-.122-.06-.063-.122-.123-.06-.062-.122-.122-.06-.062-.123-.123-.06-.062-.122-.122-.06-.062-.123-.122-.06-.063-.122-.123-.06-.062-.122-.122-.06-.062-.123-.123-.06-.062-.122-.122-.06-.062-.123-.122-.06-.063-.122-.123-.06-.062-.122-.122-.06-.062-.123-.123-.06-.062-.122-.122-.06-.062-.123-.122-.06-.063-.122-.123-.06-.062-.122-.122-.06-.062-.123-.123-.06-.062-.122-.122-.06-.062-.123-.122-.06-.063-.122-.123-.06-.062-.122-.122-.06-.062-.123-.123-.06-.062-.122-.122-.06-.062-.123-.122-.06-.063-.122-.123-.06-.062-.122-.122-.06-.062-.123-.123-.06-.062-.122-.122-.06-.062-.123-.122-.06-.063-.122-.123-.06-.062-.122-.122-.06-.062-.123-.123-.06-.062-.122-.122-.06-.062-.123-.122-.06-.063-.122-.123-.06-.062-.122-.122-.06-.062-.123-.123-.06-.062-.122-.122-.06-.062-.123-.123-.06-.062-.122-.122-.06-.062-.122-.122-.06-.062-.123-.123-.06-.062-.122-.122-.06-.062-.123-.123-.06-.062-.122-.122-.06-.062-.122-.122-.06-.062-.123-.123-.06-.062-.122-.122-.06-.062-.123-.123-.06-.062-.122-.122-.06-.062-.122-.122-.06-.062-.123-.123-.06-.062-.122-.122-.06-.062-.123-.123-.06-.062-.122-.122-.06-.062-.122-.122-.06-.062-.123-.123-.06-.062-.122-.122-.06-.062-.123-.123-.06-.062-.122-.122-.06-.062-.122-.122-.06-.062-.123-.123-.06-.062-.122-.122-.06-.062-.123-.123-.06-.062-.122-.122-.06-.062-.122-.122-.06-.062-.123-.123-.06-.062-.122-.122-.06-.062-.123-.123-.06-.062-.122-.122-.06-.062-.122-.122-.06-.062-.123-.123-.06-.062-.122-.122-.06-.062-.123-.122-.06-.063-.122-.123-.06-.062-.122-.122-.06-.062-.123-.123-.06-.062-.122-.122-.06-.062-.123-.123-.06-.062-.122-.122-.06-.062-.122-.122-.06-.062-.123-.123-.06-.062-.122-.122-.06-.062-.123-.123-.06-.062-.122-.122-.06-.062-.122-.122-.06-.062-.123-.123-.06-.062-.122-.122-.06-.062-.123-.122-.06-.063-.122-.123-.06-.062-.122-.122-.06-.062-.123-.123-.06-.062-.122-.122-.06-.062-.123-.123-.06-.062-.122-.122-.06-.062-.122-.122-.06-.062-.123-.123-.06-.062-.122-.122-.06-.062-.123-.123-.06-.062-.122-.122-.06-.062-.122-.122-.06-.062-.123-.123-.06-.062-.122-.122-.06-.062-.123-.123-.06-.062-.122-.122-.06-.062-.122-.122-.06-.062-.123-.123-.06-.062-.122-.122-.06-.062-.123-.123-.06-.062-.122-.122-.06-.062-.122-.122-.06-.062-.123-.123-.06-.062-.122-.122-.06-.062-.123-.123-.06-.062-.122-.122-.06-.062-.122-.122-.06-.062-.123-.123-.06-.062-.122-.122-.06-.062-.123-.123-.06-.062-.122-.122-.06-.062-.122-.122-.06-.062-.123-.123-.06-.062-.122-.122-.06-.062-.123-.123-.06-.062-.122-.122-.06-.062-.122-.122-.06-.062-.123-.123-.06-.062-.122-.122-.06-.062-.123-.122-.06-.063-.122-.123-.06-.062-.122-.122-.06-.062-.123-.123-.06-.062-.122-.122-.06-.062-.123-.123-.06-.062-.122-.122-.06-.062-.122-.122-.06-.062-.123-.123-.06-.062-.122-.122-.06-.062-.123-.123-.06-.062-.122-.122-.06-.062-.122-.122-.06-.062-.123-.123-.06-.062-.122-.122-.06-.062-.123-.123-.06-.062-.122-.122-.06-.062-.122-.122-.06-.062-.123-.123-.06-.062-.122-.122-.06-.062-.123-.123-.06-.062-.122-.122-.06-.062-.122-.122-.06-.062-.123-.123-.06-.062-.122-.122-.06-.062-.123-.123-.06-.062-.122-.122-.06-.062-.122-.122-.06-.062-.123-.123-.06-.062-.122-.122-.06-.062-.123-.123-.06-.062-.122-.122-.06-.062-.122-.122-.06-.062-.123-.123-.06-.062-.122-.122-.06-.062-.123-.123-.06-.062-.122-.122-.06-.062-.122-.122-.06-.062-.123-.123-.06-.062-.122-.122-.06-.062-.123-.122-.06-.063-.122-.123-.06-.062-.122-.122-.06-.062-.123-.123-.06-.062-.122-.122-.06-.062-.123-.123-.06-.062-.122-.122-.06-.062-.122-.122-.06-.062-.123-.123-.06-.062-.122-.122-.06-.062-.123-.123-.06-.062-.122-.122-.06-.062-.122-.122-.06-.062-.123-.123-.06-.062-.122-.122-.06-.062-.123-.122-.06-.063-.122-.123-.06-.062-.122-.122-.06-.062-.123-.123-.06-.062-.122-.122-.06-.062-.123-.123-.06-.062-.122-.122-.06-.062-.122-.122-.06-.062-.123-.123-.06-.062-.122-.122-.06-.062-.123-.123-.06-.062-.122-.122-.06-.062-.122-.122-.06-.062-.123-.123-.06-.062-.122-.122-.06-.062-.123-.123-.06-.062-.122-.122-.06-.062-.122-.122-.06-.062-.123-.123-.06-.062-.122-.122-.06-.062-.123-.123-.06-.062-.122-.122-.06-.062-.122-.122-.06-.062-.123-.123-.06-.062-.122-.122-.06-.062-.123-.123-.06-.062-.122-.122-.06-.062-.122-.122-.06-.062-.123-.123-.06-.062-.122-.122-.06-.062-.123-.123-.06-.062-.122-.122-.06-.062-.122-.122-.06-.062-.123-.123a4.62 4.62 0 0 0-3.368-1.467h-39.195c-.033-.039-.074-.067-.109-.104-.038-.044-.082-.08-.122-.122-.038-.045-.082-.08-.122-.123-.038-.044-.083-.08-.123-.122-.038-.045-.082-.08-.122-.123-.038-.044-.082-.08-.123-.122-.038-.044-.082-.08-.122-.122-.038-.045-.082-.08-.122-.123-.038-.044-.083-.08-.123-.122-.038-.045-.082-.08-.122-.123-.038-.044-.082-.08-.123-.122-.038-.044-.082-.08-.122-.122-.038-.045-.082-.08-.122-.123-.038-.044-.083-.08-.123-.122-.038-.045-.082-.08-.122-.123-.038-.044-.082-.08-.123-.122-.038-.044-.082-.08-.122-.122-.038-.045-.082-.08-.122-.123-.038-.044-.083-.08-.123-.122-.038-.045-.082-.08-.122-.123-.038-.044-.082-.08-.123-.122-.038-.044-.082-.08-.122-.122-.038-.045-.082-.08-.122-.123-.038-.044-.083-.08-.123-.122-.038-.045-.082-.08-.122-.123-.038-.044-.082-.08-.123-.122-.038-.044-.082-.08-.122-.122-.038-.045-.082-.08-.122-.123-.038-.044-.083-.08-.123-.122-.038-.045-.082-.08-.122-.123-.038-.044-.082-.08-.123-.122-.038-.044-.082-.08-.122-.122-.038-.045-.082-.08-.122-.123-.038-.044-.083-.08-.123-.122-.038-.045-.082-.08-.122-.123-.038-.044-.082-.08-.123-.122-.038-.044-.082-.08-.122-.122-.038-.045-.082-.08-.122-.123-.038-.044-.083-.08-.123-.122-.038-.045-.082-.08-.122-.123-.038-.044-.082-.08-.123-.122-.038-.044-.082-.08-.122-.122-.038-.045-.082-.08-.122-.123-.038-.044-.083-.08-.123-.122-.038-.045-.082-.08-.122-.123-.038-.044-.082-.08-.123-.122-.038-.044-.082-.08-.122-.122-.038-.045-.082-.08-.122-.123-.038-.044-.083-.08-.123-.122-.038-.045-.082-.08-.122-.123-.038-.044-.082-.08-.123-.122-.038-.044-.082-.08-.122-.122-.038-.045-.082-.08-.122-.123-.038-.044-.083-.08-.123-.122-.038-.045-.082-.08-.122-.123-.038-.044-.082-.08-.123-.122-.038-.044-.082-.08-.122-.122-.038-.045-.082-.08-.122-.123-.038-.044-.083-.08-.123-.122-.038-.045-.082-.08-.122-.123-.038-.044-.082-.08-.123-.122-.038-.044-.082-.08-.122-.122-.038-.045-.082-.08-.122-.123-.038-.044-.083-.08-.123-.122-.038-.045-.082-.08-.122-.123-.038-.044-.082-.08-.123-.122-.038-.044-.082-.08-.122-.122-.038-.045-.082-.08-.122-.123-.038-.044-.083-.08-.123-.122-.038-.045-.082-.08-.122-.123-.038-.044-.082-.08-.123-.122-.038-.044-.082-.08-.122-.122-.038-.045-.082-.08-.122-.123-.038-.044-.083-.08-.123-.122-.038-.045-.082-.08-.122-.123-.038-.044-.082-.08-.123-.122-.038-.044-.082-.08-.122-.122-.038-.045-.082-.08-.122-.123-.038-.044-.083-.08-.123-.122-.038-.045-.082-.08-.122-.123-.038-.044-.082-.08-.123-.122-.038-.044-.082-.08-.122-.122-.038-.045-.082-.08-.122-.123-.038-.044-.083-.08-.123-.122-.038-.045-.082-.08-.122-.123-.038-.044-.082-.08-.123-.122-.038-.044-.082-.08-.122-.122-.038-.045-.082-.08-.122-.123-.038-.044-.083-.08-.123-.122-.038-.045-.082-.08-.122-.123-.038-.044-.082-.08-.123-.122-.038-.044-.082-.08-.122-.122-.038-.045-.082-.08-.122-.123-.038-.044-.083-.08-.123-.122-.038-.045-.082-.08-.122-.123-.038-.044-.082-.08-.123-.122-.038-.044-.082-.08-.122-.122-.038-.045-.082-.08-.122-.123-.038-.044-.083-.08-.123-.122-.038-.045-.082-.08-.122-.123-.038-.044-.082-.08-.123-.122-.038-.044-.082-.08-.122-.122-.038-.045-.082-.08-.122-.123-.038-.044-.083-.08-.123-.122-.038-.045-.082-.08-.122-.123-.038-.044-.082-.08-.123-.122-.038-.044-.082-.08-.122-.122-.038-.045-.082-.08-.122-.123-.038-.044-.083-.08-.123-.122-.038-.045-.082-.08-.122-.123-.038-.044-.082-.08-.123-.122-.038-.044-.082-.08-.122-.122-.038-.045-.082-.08-.122-.123-.038-.044-.083-.08-.123-.122-.038-.045-.082-.08-.122-.123-.038-.044-.082-.08-.123-.122-.038-.044-.082-.08-.122-.122-.038-.045-.082-.08-.122-.123-.038-.044-.083-.08-.123-.122-.038-.045-.082-.08-.122-.123-.038-.044-.082-.08-.123-.122-.038-.044-.082-.08-.122-.122-.038-.045-.082-.08-.122-.123-.038-.044-.083-.08-.123-.122-.038-.045-.082-.08-.122-.123-.038-.044-.082-.08-.123-.122-.038-.044-.082-.08-.122-.122-.038-.045-.082-.08-.122-.123-.038-.044-.083-.08-.123-.122-.038-.045-.082-.08-.122-.123-.038-.044-.082-.08-.123-.122-.038-.044-.082-.08-.122-.122-.038-.045-.082-.08-.122-.123-.038-.044-.083-.08-.123-.122-.038-.045-.082-.08-.122-.123-.038-.044-.082-.08-.123-.122-.038-.044-.082-.08-.122-.122-.038-.045-.082-.08-.122-.123-.038-.044-.083-.08-.123-.122-.038-.045-.082-.08-.122-.123-.038-.044-.082-.08-.123-.122-.038-.044-.082-.08-.122-.122-.038-.045-.082-.08-.122-.123-.038-.044-.083-.08-.123-.122-.038-.045-.082-.08-.122-.123-.038-.044-.082-.08-.123-.122-.038-.044-.082-.08-.122-.122-.038-.045-.082-.08-.122-.123-.038-.044-.083-.08-.123-.122-.038-.045-.082-.08-.122-.123-.038-.044-.082-.08-.123-.122-.038-.044-.082-.08-.122-.122-.038-.045-.082-.08-.122-.123-.038-.044-.083-.08-.123-.122-.038-.045-.082-.08-.122-.123-.038-.044-.082-.08-.123-.122-.038-.044-.082-.08-.122-.122-.038-.045-.082-.08-.122-.123-.038-.044-.083-.08-.123-.122-.038-.045-.082-.08-.122-.123-.038-.044-.082-.08-.123-.122-.038-.044-.082-.08-.122-.122-.038-.045-.082-.08-.122-.123-.038-.044-.083-.08-.123-.122-.038-.045-.082-.08-.122-.123-.038-.044-.082-.08-.123-.122-.038-.044-.082-.08-.122-.122-.038-.045-.082-.08-.122-.123-.038-.044-.083-.08-.123-.122-.038-.045-.082-.08-.122-.123-.038-.044-.082-.08-.123-.122-.038-.044-.082-.08-.122-.122-.038-.045-.082-.08-.122-.123-.038-.044-.083-.08-.123-.122-.038-.045-.082-.08-.122-.123-.038-.044-.082-.08-.123-.122-.038-.044-.082-.08-.122-.122-.038-.045-.082-.08-.122-.123-.038-.044-.083-.08-.123-.122-.038-.045-.082-.08-.122-.123-.038-.044-.082-.08-.123-.122-.038-.044-.082-.08-.122-.122-.038-.045-.082-.08-.122-.123-.038-.044-.083-.08-.123-.122-.038-.045-.082-.08-.122-.123-.038-.044-.082-.08-.123-.122-.038-.044-.082-.08-.122-.122-.038-.045-.082-.08-.122-.123-.038-.044-.083-.08-.123-.122-.038-.045-.082-.08-.122-.123-.038-.044-.082-.08-.123-.122-.038-.044-.082-.08-.122-.122-.038-.045-.082-.08-.122-.123-.038-.044-.083-.08-.123-.122-.038-.045-.082-.08-.122-.123-.038-.044-.082-.08-.123-.122-.038-.044-.082-.08-.122-.122-.038-.045-.082-.08-.122-.123-.038-.044-.083-.08-.123-.122-.038-.045-.082-.08-.122-.122-.038-.045-.082-.081-.123-.123-.038-.044-.082-.08-.122-.122-.038-.045-.082-.08-.122-.123-.038-.044-.083-.08-.123-.122-.038-.045-.082-.08-.122-.123-.038-.044-.082-.08-.122-.122-.039-.044-.083-.08-.123-.122-.544-.636-1.299-1.031-2.136-1.031h-81.649c-1.658 0-3.001 1.546-3.001 3.453V56.13c0 1.012.385 1.914.987 2.545.038.045.083.08.123.123.038.044.082.08.122.122.038.045.082.08.123.123.038.044.082.08.122.122.038.044.082.08.122.122.038.045.083.08.123.122.038.045.082.081.122.123.038.044.082.08.123.123.038.044.082.08.122.122.038.044.082.08.122.122.038.045.083.08.123.122.038.045.082.081.122.123.038.044.082.08.123.123.038.044.082.08.122.122.038.044.082.08.122.122.038.045.083.08.123.123.038.044.082.08.122.122.038.044.082.08.123.122.038.045.082.08.122.123.038.044.082.08.122.122.038.045.083.08.123.123.038.044.082.08.122.122.038.044.082.08.123.123.038.044.082.08.122.122.038.044.082.08.122.122.038.045.083.08.123.122.038.045.082.081.122.123.038.044.082.08.123.123.038.044.082.08.122.122.038.044.082.08.122.122.038.045.083.08.123.123.038.044.082.08.122.122.038.045.082.08.122.122.038.045.083.08.123.123.038.044.082.08.122.122.038.045.083.08.123.123.038.044.082.08.122.122.038.045.082.08.122.122.038.045.083.08.123.123.038.044.082.08.122.122.038.045.083.08.123.123.038.044.082.08.122.122.038.045.082.08.122.122.038.045.083.08.123.123.038.044.082.08.122.122.038.045.083.08.123.123.038.044.082.08.122.122.038.045.082.08.122.122.038.045.083.08.123.123.038.044.082.08.122.122.038.045.083.08.123.123.038.044.082.08.122.122.038.045.082.08.122.122.038.045.083.08.123.123.038.044.082.08.122.122.038.045.083.08.123.122.038.045.082.081.122.123.038.045.082.08.122.122.038.045.083.08.123.123.038.044.082.08.122.122.038.045.083.08.123.123.038.044.082.08.122.122.038.045.082.08.122.122.038.045.083.08.123.123.038.044.082.08.122.122.038.045.083.08.123.123.038.044.082.08.122.122.038.045.082.08.122.122.038.045.083.08.123.123.038.044.082.08.122.122.038.045.083.08.123.123.038.044.082.08.122.122.038.045.082.08.122.122.038.045.083.08.123.123.038.044.082.08.122.122.037.044.081.079.119.12h-5.591c-2.593 0-4.695 2.152-4.695 4.807v44.885c0 1.363.559 2.588 1.45 3.463q.06.062.122.122.06.063.122.122.06.062.123.123.06.062.122.122.06.062.123.123.06.062.122.122.06.063.122.122.06.062.123.123.06.062.122.122.06.062.123.123.06.062.122.122.06.063.122.122.06.062.123.123.06.062.122.122.06.062.123.123.06.062.122.122.06.063.122.122.06.062.123.123.06.062.122.122.06.062.123.123.06.062.122.122.06.062.122.122.06.062.123.123.06.062.122.122.06.062.123.123.06.062.122.122.06.063.122.122.06.062.123.123.06.062.122.122.06.062.123.123.06.062.122.122.06.062.123.122.059.062.122.122.06.063.122.123.06.062.123.123.06.062.122.122.06.063.123.122.059.063.122.122.06.063.122.123.06.062.123.123.06.062.122.122.06.063.123.122.059.062.122.122.06.063.122.123.06.062.123.123.06.062.122.122.06.062.123.122.059.063.122.122.06.063.122.123.06.062.123.123.06.062.122.122.06.063.123.122.059.063.122.122.06.063.122.123.06.062.123.123.06.062.122.122.06.063.123.122.059.063.122.122.06.063.122.123.06.062.123.123.06.062.122.122.06.063.123.122.059.063.122.122.06.063.122.123.06.063.123.122.06.062.122.123.06.063.123.122.059.063.122.122.06.063.122.123.06.063.123.122.06.062.122.123.06.063.123.122.059.063.122.122.06.063.122.123.06.063.123.122.06.062.122.123.06.063.123.122.059.063.122.122.06.063.122.123.06.063.123.122.06.062.122.123.06.063.123.122.059.063.122.122.06.063.122.123.06.063.123.122.06.062.122.123.06.063.123.122.059.063.122.122.06.063.122.123.06.063.123.122.06.062.122.123.06.063.123.122.059.063.122.122.06.063.122.123.06.063.123.122.06.062.122.123.06.063.123.122.059.063.122.122.06.063.122.123.06.063.123.122.06.062.122.123.06.063.123.122.059.063.122.122.06.063.122.123.06.063.123.122.06.062.122.123.06.063.123.122.059.063.122.122.06.063.122.123.06.063.123.122.06.062.122.123.06.063.123.122.059.063.122.122.06.063.122.123.06.063.123.122.06.062.122.123.06.063.123.122.059.063.122.122.06.063.122.123.06.063.123.122.06.062.122.123.06.063.123.122.059.063.122.122.06.063.122.123.06.063.123.122.06.062.122.123.06.063.123.122.059.063.122.122.06.063.122.123.06.063.123.122.06.062.122.123.06.063.123.122.059.063.122.122.06.063.122.123.06.063.123.122.06.062.122.123.06.063.123.122.059.063.122.122.06.063.122.123.06.063.123.122.06.062.122.123.06.063.123.122.059.063.122.122.06.063.122.123.06.063.123.122.06.062.122.123.06.063.123.122.059.063.122.122.06.063.122.123.06.063.123.122.06.062.122.123.06.063.123.122.059.063.122.122.06.063.122.123.06.063.123.122.06.062.122.123.06.063.123.122.059.063.122.122.06.063.122.123.06.063.122.122.06.062.123.123.06.063.123.122.059.063.122.122.06.063.122.123.06.063.122.122.06.062.123.123.06.063.123.122.059.063.122.122.06.063.122.123.06.063.122.122.06.062.123.123.06.063.123.122.059.063.122.122.06.063.122.123.06.063.122.122.06.062.123.123.06.063.123.122.059.063.122.122.06.063.122.123.06.063.122.122.06.062.123.123.06.063.123.122.059.063.122.122.06.063.122.123.06.063.122.122.06.062.123.123.06.063.122.122.06.062.123.123.06.062.122.122.06.063.122.122.06.062.123.123.06.063.122.122.06.062.123.123.06.062.122.122.06.063.122.122.06.062.123.123.06.063.122.122.06.062.123.123.06.062.122.122.06.063.122.122.06.062.123.123.06.063.122.122.06.062.123.123.06.062.122.122.06.063.122.122.06.062.123.123.06.063.122.122.06.062.123.123.06.062.122.122.06.063.122.122.06.062.123.123.06.063.122.122.06.062.123.123.06.062.122.122.06.063.122.122.06.062.123.123.06.063.122.122.06.062.123.123.06.062.122.122.06.063.122.122.06.062.123.123.06.063.122.122.06.062.123.123.06.062.122.122.06.063.122.122.06.062.123.123.06.063.122.122.06.062.123.123.06.062.122.122.06.063.122.122.06.062.123.123.06.063.122.122.06.062.123.123.06.062.122.122.06.063.122.122.06.062.123.123.06.063.122.122.06.062.123.123.06.062.122.122.06.063.122.122.06.062.123.123.06.063.122.122.06.062.123.123.06.062.122.122.06.063.122.122.06.062.123.123.06.063.122.122.06.062.123.123.06.062.122.122.06.063.122.122.06.062.123.123.06.063.122.122.06.062.123.123.06.062.122.122.06.063.122.122.06.062.123.123.06.063.122.122.06.062.123.123.06.062.122.122.06.063.122.122.06.062.123.123.06.063.122.122.06.062.123.123.06.062.122.122.06.063.122.122.06.062.123.123.06.063.122.122.06.062.123.123.06.062.122.122.06.063.122.122.06.062.123.123.06.063.122.122.06.062.123.123.06.062.122.122.06.063.122.122.06.062.123.123.06.063.122.122.06.062.123.123.06.062.122.122.06.063.122.122.06.062.123.123.06.062.122.122.06.062.123.123.06.062.122.122.06.063.122.122.06.062.123.123.06.062.122.122.06.062.123.123.06.062.122.122.06.063.122.122.06.062.123.123.06.062.122.122.06.062.123.123.06.062.122.122.06.063.122.122.06.062.123.123.06.062.122.122.06.062.123.123.06.062.122.122a4.63 4.63 0 0 0 3.368 1.468h146.609c2.593 0 4.696-2.153 4.696-4.808v-4.662c0-1.363 35.823-6.425 34.933-7.3" opacity=".8" style="mix-blend-mode:multiply"/></g><path fill="#5187df" d="M271.784 41.625h-81.649c-1.658 0-3.001 1.546-3.001 3.453V56.13c0 1.908 1.343 3.454 3.001 3.454h81.649c1.657 0 3.001-1.546 3.001-3.454V45.08c0-1.908-1.344-3.454-3.001-3.454"/><path fill="#1545bb" d="m257.438 52.411 4.217-4.317a.87.87 0 0 1 1.283 0l4.217 4.317a.9.9 0 0 1 .252.657.9.9 0 0 1-.252.657.86.86 0 0 1-.642.258.86.86 0 0 1-.641-.258l-3.575-3.66-3.576 3.66a.86.86 0 0 1-.641.258.86.86 0 0 1-.642-.258.9.9 0 0 1-.252-.657q0-.399.252-.657m-63.561-1.807a2.283 2.283 0 0 1 2.284-2.284h51.087a2.284 2.284 0 0 1 0 4.568h-51.087a2.283 2.283 0 0 1-2.284-2.284"/><path fill="#5187df" d="M338.438 67.974H191.829c-2.593 0-4.695 2.152-4.695 4.807v44.885c0 2.655 2.102 4.808 4.695 4.808h146.609c2.593 0 4.696-2.153 4.696-4.808V72.781c0-2.655-2.103-4.807-4.696-4.807"/><path fill="#1545bb" d="M197.134 82.724c0-1.243.951-2.25 2.125-2.25h55.75c1.173 0 2.125 1.007 2.125 2.25 0 1.242-.952 2.25-2.125 2.25h-55.75c-1.174 0-2.125-1.008-2.125-2.25m0 13.75c0-1.243.951-2.25 2.125-2.25h88.75c1.173 0 2.125 1.007 2.125 2.25 0 1.242-.952 2.25-2.125 2.25h-88.75c-1.174 0-2.125-1.008-2.125-2.25m0 14.75c0-1.243.951-2.25 2.125-2.25h79.75c1.173 0 2.125 1.007 2.125 2.25 0 1.242-.952 2.25-2.125 2.25h-79.75c-1.174 0-2.125-1.008-2.125-2.25" opacity=".6"/></svg>