<svg xmlns="http://www.w3.org/2000/svg" width="272" height="143" fill="none" viewBox="0 0 272 143"><rect width="272" height="143" fill="#ededed" rx="8"/><rect width="214.5" height="67.09" x="28.75" y="51.723" fill="#fff" rx="4.725"/><path fill="#a7a9ab" d="M38.2 102.75a2.835 2.835 0 0 1 2.834-2.835H143a2.835 2.835 0 1 1 0 5.67H41.034a2.835 2.835 0 0 1-2.835-2.835m.001-17.481a2.835 2.835 0 0 1 2.834-2.835h127.094a2.835 2.835 0 0 1 0 5.67H41.034a2.835 2.835 0 0 1-2.835-2.835m.001-17.482a2.835 2.835 0 0 1 2.834-2.834h79.138a2.835 2.835 0 1 1 0 5.67H41.034a2.835 2.835 0 0 1-2.835-2.836"/><g filter="url(#a)"><rect width="214.5" height="75.82" x="28.75" y="50.193" fill="#fff" rx="4.725"/><path fill="#a7a9ab" d="M38.2 69.318a2.835 2.835 0 0 1 2.834-2.835h79.374a2.835 2.835 0 1 1 0 5.67H41.034a2.835 2.835 0 0 1-2.835-2.836m.001 19.844a2.835 2.835 0 0 1 2.834-2.835H168.6a2.835 2.835 0 1 1 0 5.67H41.034a2.835 2.835 0 0 1-2.835-2.835m.001 19.843a2.835 2.835 0 0 1 2.834-2.834h102.053a2.834 2.834 0 1 1 0 5.669H41.034a2.835 2.835 0 0 1-2.835-2.835"/></g><path fill="#154973" d="M28.75 26.56A7.56 7.56 0 0 1 36.31 19h78.881a7.56 7.56 0 0 1 7.559 7.56v10.88a7.56 7.56 0 0 1-7.559 7.56H36.31a7.56 7.56 0 0 1-7.56-7.56z"/><path fill="#fff" d="M39.143 32.619a2.39 2.39 0 0 1 2.39-2.39h51.92a2.39 2.39 0 0 1 0 4.78h-51.92a2.39 2.39 0 0 1-2.39-2.39m69.037-1.411-4.274 3.482q-.302.245-.767.245-.466 0-.767-.245a.77.77 0 0 1-.302-.625q0-.38.302-.625l5.041-4.108q.329-.268.767-.268.439 0 .767.268l5.042 4.108a.77.77 0 0 1 .301.625q0 .38-.301.625-.302.245-.767.245-.467 0-.767-.245z"/><defs><filter id="a" width="223.949" height="85.27" x="24.025" y="49.248" color-interpolation-filters="sRGB" filterUnits="userSpaceOnUse"><feFlood flood-opacity="0" result="BackgroundImageFix"/><feColorMatrix in="SourceAlpha" result="hardAlpha" values="0 0 0 0 0 0 0 0 0 0 0 0 0 0 0 0 0 0 127 0"/><feMorphology in="SourceAlpha" radius=".945" result="effect1_dropShadow_141_675"/><feOffset dy="3.78"/><feGaussianBlur stdDeviation="2.835"/><feComposite in2="hardAlpha" operator="out"/><feColorMatrix values="0 0 0 0 0.105882 0 0 0 0 0.105882 0 0 0 0 0.105882 0 0 0 0.01 0"/><feBlend in2="BackgroundImageFix" result="effect1_dropShadow_141_675"/><feColorMatrix in="SourceAlpha" result="hardAlpha" values="0 0 0 0 0 0 0 0 0 0 0 0 0 0 0 0 0 0 127 0"/><feMorphology in="SourceAlpha" radius=".945" result="effect2_dropShadow_141_675"/><feOffset dy="3.78"/><feGaussianBlur stdDeviation="2.835"/><feComposite in2="hardAlpha" operator="out"/><feColorMatrix values="0 0 0 0 0.105882 0 0 0 0 0.105882 0 0 0 0 0.105882 0 0 0 0.1 0"/><feBlend in2="effect1_dropShadow_141_675" result="effect2_dropShadow_141_675"/><feBlend in="SourceGraphic" in2="effect2_dropShadow_141_675" result="shape"/></filter></defs></svg>