<svg xmlns="http://www.w3.org/2000/svg" width="272" height="143" fill="none" viewBox="0 0 272 143"><rect width="272" height="143" fill="#ededed" rx="8"/><rect width="184.906" height="96.43" x="45.547" y="23.285" fill="#eff6fb" stroke="#abc4d8" stroke-dasharray="3 5" stroke-linecap="round" stroke-linejoin="bevel" stroke-width="2" rx="9"/><path fill="#cddde9" d="M78.815 64.41c0-1.3 1.054-2.354 2.355-2.354h77.802a2.355 2.355 0 0 1 2.355 2.355v19.675c0 1.3-1.054 2.354-2.355 2.354H81.17a2.355 2.355 0 0 1-2.355-2.354z"/><path fill="#457aa5" d="M145.336 76.487h-16.558c-1.429 0-2.381-1.003-2.381-2.507s.952-2.505 2.381-2.505h16.558c1.428 0 2.38 1 2.38 2.505s-.952 2.507-2.38 2.507M120.246 76.487H90.142c-1.428 0-2.38-1.003-2.38-2.507s.952-2.505 2.38-2.505h30.104c1.428 0 2.38 1 2.38 2.505s-.952 2.507-2.38 2.507"/><path fill="#cddde9" d="M201.764 76.733H171.66c-1.428 0-2.38-.994-2.38-2.486s.952-2.484 2.38-2.484h30.104c1.428 0 2.381.992 2.381 2.484s-.953 2.486-2.381 2.486"/></svg>