<svg xmlns="http://www.w3.org/2000/svg" width="575" height="145" fill="none" viewBox="0 0 575 145"><path fill="#286ad8" d="M433 145C433 64.98 368.094.11 288.028.11L288 0v145zM182.424 145C160.651 145 143 127.148 143 105.125V0h145v145z"/><path fill="#286ad8" d="M430 145V0h72.335C542.467 0 575 32.46 575 72.5S542.467 145 502.335 145zM105.125 145H0C0 64.919 64.919 0 145 0v105.125C145 127.147 127.147 145 105.125 145"/><path fill="#5187df" d="M213.268 74.968c0-1.3 1.054-2.355 2.355-2.355h60.441c1.3 0 2.354 1.055 2.354 2.355v14.544c0 1.3-1.054 2.355-2.354 2.355h-60.441a2.355 2.355 0 0 1-2.355-2.355z"/><path fill="#1545bb" d="M265.792 84.007h-13.074c-1.128 0-1.88-.792-1.88-1.98s.752-1.977 1.88-1.977h13.074c1.127 0 1.879.79 1.879 1.978s-.752 1.98-1.879 1.98M245.982 84.007h-23.77c-1.128 0-1.88-.792-1.88-1.98s.752-1.977 1.88-1.977h23.77c1.127 0 1.879.79 1.879 1.978s-.752 1.98-1.879 1.98"/><path fill="#5187df" d="M310.348 84.202h-23.771c-1.127 0-1.879-.785-1.879-1.963s.752-1.962 1.879-1.962h23.771c1.127 0 1.879.784 1.879 1.962s-.752 1.963-1.879 1.963"/><rect width="146" height="76.14" x="187" y="42" stroke="#7aa5e7" stroke-dasharray="3 5" stroke-linecap="round" stroke-linejoin="bevel" rx="9"/><path fill="url(#a)" d="M408 145H215.5L191 117.5s2.5 1.293 6 1.293h127.527c4.97 0 8.982-4.029 8.982-9V48.325z" opacity=".56" style="mix-blend-mode:multiply"/><defs><linearGradient id="a" x1="390" x2="211" y1="170" y2="48" gradientUnits="userSpaceOnUse"><stop stop-color="#003ba1"/><stop offset="1" stop-color="#7aa5e7"/></linearGradient></defs></svg>