<svg xmlns="http://www.w3.org/2000/svg" width="580" height="145" fill="none" viewBox="0 0 580 145"><path fill="#286ad8" d="M329.875 145H435C435 64.919 370.081 0 290 0v105.125C290 127.147 307.853 145 329.875 145M435 145c91 0 145-54.5 145-145-92.5 0-145 52-145 145"/><path fill="#286ad8" d="M329.875 145H435C435 64.919 370.081 0 290 0v105.125C290 127.147 307.853 145 329.875 145M435 145c91 0 145-54.5 145-145-92.5 0-145 52-145 145M290 0v105.125C290 127.147 272.349 145 250.576 145H39.424C17.65 145 0 127.147 0 105.125V0z"/><path fill="#286ad8" d="M329.875 145H435C435 64.919 370.081 0 290 0v105.125C290 127.147 307.853 145 329.875 145"/><path fill="#286ad8" d="M434 145c91 0 145-54.5 145-145-92.5 0-145 52-145 145"/><path fill="#5187df" d="M127.952 120H93.364c-1.923 0-3.206-1.2-3.206-3s1.283-3 3.206-3h34.588c1.923 0 3.206 1.2 3.206 3s-1.283 3-3.206 3m59 0h-34.588c-1.923 0-3.206-1.2-3.206-3s1.283-3 3.206-3h34.588c1.923 0 3.206 1.2 3.206 3s-1.283 3-3.206 3m-54.609-22h-97.37c-2.289 0-3.815-1.6-3.815-4.002S32.684 90 34.973 90h97.37c2.289 0 3.815 1.596 3.815 3.998 0 2.401-1.526 4.002-3.815 4.002m-63.391 22H34.364c-1.923 0-3.206-1.2-3.206-3s1.283-3 3.206-3h34.588c1.924 0 3.206 1.2 3.206 3s-1.282 3-3.206 3"/></svg>