<svg xmlns="http://www.w3.org/2000/svg" width="578" height="145" fill="none" viewBox="0 0 578 145"><path fill="#286ad8" d="M0 145V39.875C0 17.853 17.65 0 39.424 0h211.152C272.349 0 290 17.853 290 39.875V145z"/><path fill="#286ad8" d="M361.5 145c40.041 0 72.5-32.459 72.5-72.5S401.541 0 361.5 0 289 32.46 289 72.5s32.459 72.5 72.5 72.5M533.344 74.25c18.018 0 32.625-14.607 32.625-32.625S551.362 9 533.344 9s-32.625 14.607-32.625 32.625 14.606 32.625 32.625 32.625"/><path fill="#286ad8" d="M578 145H433V0z"/><mask id="a" width="290" height="145" x="1" y="0" maskUnits="userSpaceOnUse" style="mask-type:alpha"><path fill="#286ad8" d="M40.424 145C18.651 145 1 127.148 1 105.125V0h290v145z"/></mask><path fill="#5187df" d="M126.332 42.741H33.985c-2.296 0-3.827-1.6-3.827-4.002s1.53-3.998 3.827-3.998h92.347c2.295 0 3.826 1.597 3.826 3.998s-1.531 4.002-3.826 4.002M103.968 62.741l-70.62-.001c-1.914 0-3.19-1.2-3.19-3.001s1.276-2.998 3.19-2.998l70.62.001c1.914 0 3.19 1.198 3.19 2.998s-1.276 3.001-3.19 3.001M170.935 62.741l-46.554-.001c-1.934 0-3.223-1.2-3.223-3.001s1.289-2.998 3.223-2.998l46.554.001c1.934 0 3.223 1.198 3.223 2.998s-1.289 3.001-3.223 3.001"/></svg>