<svg xmlns="http://www.w3.org/2000/svg" width="272" height="144" fill="none" viewBox="0 0 272 144"><path fill="#eff6fb" d="M0 8.175a8 8 0 0 1 8-8h256a8 8 0 0 1 8 8v56H0z"/><path fill="#ededed" d="M0 111.175h272v24a8 8 0 0 1-8 8H8a8 8 0 0 1-8-8z"/><path fill="#bec0c1" d="M21.371 125.915c-.272-.071-.516-.271-.81-.271a5.6 5.6 0 0 0-1.499.061c-.318.069-.573.127-.583.484-.003.316.396.637.33.96-.143.571-.866.922-1.327 1.205-.12.063-.312.157-.392.27-.134.189-.105.768 0 .77 1.647.005 6.6.007 8.887.006.3.025.497.237.639.513.146.252.163.584.283.836.154.265.548.375.793.539.32.191.617.404.965.562.192.087.437.182.553.37l.067.262c-.007.122-.169.215-.255.279-.133.1-.248.211-.323.364l-.018.242c.107.17.535.005.681-.043.202-.068.406-.159.616-.195.895-.159 1.811-.294 2.614-.719.114-.061.372-.157.403-.282.08-.311-.843-.014-.954.022-.2.07-.413.065-.621.096-.46.079-1.1.21-1.555.224-.228.025-.339-.15-.285-.376.063-.283.325-.457.307-.753-.037-.604.155-1.274.145-1.884-.033-.761.285-1.485.308-2.238.02-.646.113-1.292.034-1.934-.07-.569-.287-1.245-.242-1.819.011-.139.033-.226.072-.358.16-.441.008-.905.01-1.34 0-.544.098-.772-.25-.837-.35-.064-1.327.031-1.703.006-.529.015-1.067-.012-1.547.214-.596.284-1.062.799-1.455 1.311-.214.341-.647.448-.866.781-.222.307-.04.648-.028.985.015 1.038-.346.884-1.013 1.421-.288.232-.674.277-1.031.284-.283.007-.675.054-.95-.018M74.816 129.175H47.183c-1.31 0-2.184-.8-2.184-2.001s.874-1.999 2.185-1.999h27.63c1.311 0 2.185.798 2.185 1.999s-.874 2.001-2.184 2.001M114.816 129.175H87.184c-1.31 0-2.184-.8-2.184-2.001s.874-1.999 2.185-1.999h27.631c1.31 0 2.184.798 2.184 1.999s-.874 2.001-2.184 2.001M154.816 129.175h-27.631c-1.311 0-2.185-.8-2.185-2.001s.874-1.999 2.185-1.999h27.631c1.31 0 2.184.798 2.184 1.999s-.874 2.001-2.184 2.001"/><path fill="#0e324f" d="M0 66.175h272v43H0z"/><path fill="#457aa5" d="M96.13 84.175H22.87c-1.722 0-2.87-1.2-2.87-3.002 0-1.8 1.148-2.998 2.87-2.998h73.26c1.722 0 2.87 1.197 2.87 2.998s-1.148 3.002-2.87 3.002M67.964 97h-45.4c-1.38 0-2.3-.8-2.3-2s.92-2 2.3-2h45.4c1.38 0 2.3.8 2.3 2s-.92 2-2.3 2M124.964 97h-45.4c-1.38 0-2.3-.8-2.3-2s.92-2 2.3-2h45.4c1.38 0 2.3.8 2.3 2s-.92 2-2.3 2M181.964 97h-45.4c-1.38 0-2.3-.8-2.3-2s.92-2 2.3-2h45.4c1.38 0 2.3.8 2.3 2s-.92 2-2.3 2"/></svg>