<svg width="578" height="145" viewBox="0 0 578 145" fill="none" xmlns="http://www.w3.org/2000/svg">
<path d="M0 145V39.875C3.05176e-05 17.8525 17.6506 0.000213623 39.4238 0L250.576 0C272.349 0.000213623 290 17.8525 290 39.875V145L0 145Z" fill="#286AD8"/>
<path d="M361.5 145C401.541 145 434 112.541 434 72.5C434 32.4594 401.541 0 361.5 0C321.459 0 289 32.4594 289 72.5C289 112.541 321.459 145 361.5 145Z" fill="#286AD8"/>
<path d="M533.344 74.2499C551.362 74.2499 565.969 59.6432 565.969 41.625C565.969 23.6067 551.362 9 533.344 9C515.325 9 500.719 23.6067 500.719 41.625C500.719 59.6432 515.325 74.2499 533.344 74.2499Z" fill="#286AD8"/>
<path d="M578 145H433V0L578 145Z" fill="#286AD8"/>
<mask id="mask0_48_514" style="mask-type:alpha" maskUnits="userSpaceOnUse" x="1" y="0" width="290" height="145">
<path d="M40.4242 145C18.6508 145 1 127.148 1 105.125V0H291V145H40.4242Z" fill="#286AD8"/>
</mask>
<g mask="url(#mask0_48_514)">
</g>
<path d="M126.332 42.7412H33.9847C31.6887 42.7412 30.1582 41.1404 30.1582 38.7391C30.1582 36.3376 31.6888 34.7412 33.9847 34.7412H126.332C128.627 34.7412 130.158 36.3376 130.158 38.7391C130.158 41.1404 128.627 42.7412 126.332 42.7412Z" fill="#5187DF"/>
<path d="M103.968 62.7412L33.3479 62.74C31.4341 62.74 30.1582 61.5397 30.1582 59.739C30.1582 57.9383 31.4341 56.7412 33.3479 56.7412L103.968 56.7424C105.882 56.7424 107.158 57.9395 107.158 59.7402C107.158 61.5409 105.882 62.7412 103.968 62.7412Z" fill="#5187DF"/>
<path d="M170.935 62.7412L124.381 62.74C122.447 62.74 121.158 61.5396 121.158 59.739C121.158 57.9384 122.447 56.7412 124.381 56.7412L170.935 56.7424C172.869 56.7424 174.158 57.9395 174.158 59.7402C174.158 61.5409 172.869 62.7412 170.935 62.7412Z" fill="#5187DF"/>
</svg>
