<svg width="580" height="145" viewBox="0 0 580 145" fill="none" xmlns="http://www.w3.org/2000/svg">
<path d="M329.875 145H435C435 64.9187 370.081 0 290 0V105.125C290 127.147 307.853 145 329.875 145Z" fill="#286AD8"/>
<path d="M435 145C526 145 580 90.5 580 0C487.5 0 435 52 435 145Z" fill="#286AD8"/>
<path d="M329.875 145H435C435 64.9187 370.081 0 290 0V105.125C290 127.147 307.853 145 329.875 145Z" fill="#286AD8"/>
<path d="M435 145C526 145 580 90.5 580 0C487.5 0 435 52 435 145Z" fill="#286AD8"/>
<path d="M290 0V105.125C290 127.147 272.349 145 250.576 145H39.4238C17.6506 145 4.0771e-05 127.147 0 105.125V0H290Z" fill="#286AD8"/>
<path d="M329.875 145H435C435 64.9187 370.081 0 290 0V105.125C290 127.147 307.853 145 329.875 145Z" fill="#286AD8"/>
<path d="M434 145C525 145 579 90.5 579 0C486.5 0 434 52 434 145Z" fill="#286AD8"/>
<path d="M127.952 120H93.3644C91.4407 120 90.1582 118.8 90.1582 117C90.1582 115.2 91.4407 114 93.3644 114H127.952C129.875 114 131.158 115.2 131.158 117C131.158 118.8 129.875 120 127.952 120Z" fill="#5187DF"/>
<path d="M186.952 120H152.364C150.441 120 149.158 118.8 149.158 117C149.158 115.2 150.441 114 152.364 114H186.952C188.875 114 190.158 115.2 190.158 117C190.158 118.8 188.875 120 186.952 120Z" fill="#5187DF"/>
<path d="M132.343 98H34.9732C32.6842 98 31.1582 96.3992 31.1582 93.9978C31.1582 91.5964 32.6842 90 34.9732 90H132.343C134.632 90 136.158 91.5964 136.158 93.9978C136.158 96.3992 134.632 98 132.343 98Z" fill="#5187DF"/>
<path d="M68.952 120H34.3644C32.4407 120 31.1582 118.8 31.1582 117C31.1582 115.2 32.4407 114 34.3644 114H68.952C70.8757 114 72.1582 115.2 72.1582 117C72.1582 118.8 70.8757 120 68.952 120Z" fill="#5187DF"/>
</svg>
