<svg width="578" height="145" viewBox="0 0 578 145" fill="none" xmlns="http://www.w3.org/2000/svg">
<path d="M39.4242 145C17.6508 145 0 127.148 0 105.125V0H290V145H39.4242Z" fill="#286AD8"/>
<path d="M75.4214 55.4957C74.8858 55.6854 74.3096 55.6736 73.7519 55.755C72.517 55.9694 70.7952 56.3249 69.5746 56.3659C68.9602 56.4303 68.6647 55.9556 68.808 55.3434C68.9757 54.5758 69.6822 54.1055 69.6323 53.299C69.5369 51.6627 70.05 49.8435 70.0207 48.1904C69.9341 46.126 70.7899 44.1616 70.8521 42.1212C70.9056 40.3667 71.1541 38.6125 70.943 36.8724C70.7558 35.3275 70.1703 33.4933 70.2919 31.9374C70.3214 31.5597 70.3806 31.3269 70.4843 30.9663C70.9124 29.7708 70.5073 28.5121 70.5117 27.3321C70.5164 25.8539 70.7761 25.2365 69.8389 25.0619C68.9017 24.8873 66.2752 25.1448 65.2622 25.0775C63.8438 25.1161 62.3976 25.0459 61.1067 25.6584C59.5026 26.4298 58.2512 27.8264 57.1956 29.2141C56.6228 30.1404 55.4579 30.4281 54.8686 31.3318C54.2728 32.1643 54.7607 33.0911 54.7953 34.0048C54.8319 36.8223 53.8627 36.4033 52.0715 37.8602C51.298 38.4892 50.259 38.6097 49.2999 38.6319C48.5392 38.6495 47.4839 38.7747 46.7473 38.5812C46.0151 38.3889 45.3593 37.8467 44.5713 37.8467C43.4497 37.7167 41.7442 37.771 40.5404 38.012C39.6877 38.1994 39.0019 38.3585 38.975 39.3268C38.9651 40.1814 40.0382 41.0535 39.8633 41.9298C39.4789 43.4781 37.5364 44.4312 36.295 45.1982C35.9738 45.3705 35.4574 45.6217 35.2412 45.9304C34.8809 46.4446 34.9605 48.0142 35.2421 48.017C39.6677 48.0321 52.9803 48.0386 59.1266 48.0336C59.9305 48.1046 60.4592 48.6764 60.8437 49.4276C61.2333 50.1121 61.2789 51.011 61.6032 51.6942C62.0164 52.4146 63.0766 52.7136 63.7355 53.1603C64.5919 53.6758 65.3919 54.2509 66.328 54.6825C66.8428 54.9197 67.503 55.1758 67.8168 55.6845C67.9626 55.9208 68.0076 56.1588 67.9936 56.3973C67.9742 56.7273 67.5398 56.9798 67.3099 57.1535C66.9487 57.4266 66.6443 57.7255 66.4406 58.1397C66.3394 58.3455 66.2698 58.6021 66.3913 58.7963C66.6793 59.2569 67.8322 58.8108 68.2229 58.6797C68.7652 58.4978 69.3149 58.2503 69.8796 58.1492C72.2854 57.7176 74.7443 57.3537 76.9035 56.1992C77.2093 56.0356 77.9022 55.7736 77.9872 55.4351C78.1988 54.5928 75.7199 55.3978 75.4214 55.4957Z" fill="#5187DF"/>
<path d="M361.5 145C401.541 145 434 112.541 434 72.5C434 32.4594 401.541 0 361.5 0C321.459 0 289 32.4594 289 72.5C289 112.541 321.459 145 361.5 145Z" fill="#286AD8"/>
<path d="M532.344 74.2497C550.362 74.2497 564.969 59.643 564.969 41.6247C564.969 23.6065 550.362 8.99976 532.344 8.99976C514.325 8.99976 499.719 23.6065 499.719 41.6247C499.719 59.643 514.325 74.2497 532.344 74.2497Z" fill="#286AD8"/>
<path d="M578 145H433V0L578 145Z" fill="#286AD8"/>
<g style="mix-blend-mode:multiply" opacity="0.69">
<mask id="mask0_603_199" style="mask-type:alpha" maskUnits="userSpaceOnUse" x="0" y="0" width="290" height="145">
<path d="M39.4242 145C17.6508 145 0 127.148 0 105.125V0H290V145H39.4242Z" fill="#286AD8"/>
</mask>
<g mask="url(#mask0_603_199)">
<g style="mix-blend-mode:multiply">
<path d="M295.172 171.777L223.893 100.498C223.066 99.4128 221.71 98.7657 220.003 98.7657L171.775 98.7639C170.866 98.7639 170.067 98.9621 169.381 99.2948L150.84 80.8066C149.934 79.674 148.557 79 146.847 79H37.1596C34.0638 79 32 81.1503 32 84.3848C32 86.2559 32.7068 87.7476 33.8885 88.6884L52.8769 107.748L36.7748 107.748C33.91 107.748 32 109.54 32 112.236C32 113.728 32.6005 114.928 33.6082 115.717L104.888 186.997" fill="url(#paint0_linear_603_199)"/>
</g>
</g>
</g>
<path d="M146.847 89.7753H37.1596C34.0638 89.7753 32 87.6192 32 84.3848C32 81.1502 34.0638 79 37.1596 79H146.847C149.942 79 152.006 81.1502 152.006 84.3848C152.006 87.6192 149.942 89.7753 146.847 89.7753Z" fill="#5187DF"/>
<path d="M102.072 116.731L36.7748 116.729C33.9099 116.729 32 114.932 32 112.236C32 109.54 33.9099 107.748 36.7748 107.748L102.072 107.749C104.937 107.749 106.847 109.542 106.847 112.238C106.847 114.934 104.937 116.731 102.072 116.731Z" fill="#5187DF"/>
<path d="M220.003 107.748L171.775 107.746C168.91 107.746 167 105.948 167 103.252C167 100.556 168.91 98.7639 171.775 98.7639L220.003 98.7657C222.868 98.7657 224.778 100.558 224.778 103.254C224.778 105.95 222.868 107.748 220.003 107.748Z" fill="#5187DF"/>
<defs>
<linearGradient id="paint0_linear_603_199" x1="63" y1="61" x2="214" y2="226" gradientUnits="userSpaceOnUse">
<stop stop-color="#7AA5E7"/>
<stop offset="1" stop-color="#003BA1"/>
</linearGradient>
</defs>
</svg>
