<svg width="272" height="145" viewBox="0 0 272 145" fill="none" xmlns="http://www.w3.org/2000/svg">
<path d="M0 8.17505C0 3.75677 3.58172 0.175049 8 0.175049H264C268.418 0.175049 272 3.75677 272 8.17505V65.175H0V8.17505Z" fill="#EFF6FB"/>
<path d="M0 112.175H272V136.175C272 140.593 268.418 144.175 264 144.175H8.00001C3.58173 144.175 0 140.593 0 136.175V112.175Z" fill="#EDEDED"/>
<path d="M21.3712 126.915C21.0991 126.844 20.855 126.644 20.561 126.644C20.1444 126.597 19.5091 126.616 19.0622 126.705C18.7439 126.774 18.4889 126.832 18.4791 127.189C18.4755 127.505 18.8751 127.826 18.8095 128.149C18.6662 128.72 17.9435 129.071 17.4819 129.354C17.3629 129.417 17.1698 129.511 17.0896 129.624C16.956 129.813 16.9851 130.392 17.0896 130.394C18.7366 130.399 23.6899 130.401 25.9771 130.4C26.2771 130.425 26.4739 130.637 26.616 130.913C26.7617 131.165 26.7787 131.497 26.899 131.749C27.0532 132.014 27.4468 132.124 27.6921 132.288C28.0116 132.479 28.3092 132.692 28.6565 132.85C28.8485 132.937 29.0938 133.032 29.2104 133.22L29.2772 133.482C29.2699 133.604 29.1084 133.697 29.0221 133.761C28.8885 133.861 28.7744 133.972 28.6991 134.125L28.6808 134.367C28.7877 134.537 29.2165 134.372 29.3622 134.324C29.5639 134.256 29.7679 134.165 29.9781 134.129C30.8732 133.97 31.7891 133.835 32.592 133.41C32.7061 133.349 32.9636 133.253 32.9952 133.128C33.0742 132.817 32.1523 133.114 32.0405 133.15C31.8413 133.22 31.6275 133.215 31.4198 133.246C30.9595 133.325 30.3194 133.456 29.8651 133.47C29.6368 133.495 29.5262 133.32 29.5797 133.094C29.6428 132.811 29.9052 132.637 29.887 132.341C29.8505 131.737 30.0425 131.067 30.0315 130.457C29.9987 129.696 30.3169 128.972 30.34 128.219C30.3607 127.573 30.453 126.927 30.374 126.285C30.3048 125.716 30.0874 125.04 30.1323 124.466C30.1433 124.327 30.1651 124.24 30.204 124.108C30.3631 123.667 30.2125 123.203 30.2137 122.768C30.2149 122.224 30.3121 121.996 29.9635 121.931C29.6149 121.867 28.6371 121.962 28.2606 121.937C27.7322 121.952 27.1941 121.925 26.7143 122.151C26.118 122.435 25.6515 122.95 25.2592 123.462C25.0454 123.803 24.6118 123.91 24.3932 124.243C24.1709 124.55 24.3531 124.891 24.3652 125.228C24.3798 126.266 24.0191 126.112 23.3522 126.649C23.0644 126.881 22.6781 126.926 22.321 126.933C22.038 126.94 21.6457 126.987 21.3712 126.915Z" fill="#BEC0C1"/>
<path d="M74.8155 130.175H47.1845C45.8738 130.175 45 129.375 45 128.174C45 126.973 45.8738 126.175 47.1845 126.175H74.8155C76.1262 126.175 77 126.973 77 128.174C77 129.375 76.1262 130.175 74.8155 130.175Z" fill="#BEC0C1"/>
<path d="M114.816 130.175H87.1845C85.8738 130.175 85 129.375 85 128.174C85 126.973 85.8738 126.175 87.1845 126.175H114.816C116.126 126.175 117 126.973 117 128.174C117 129.375 116.126 130.175 114.816 130.175Z" fill="#BEC0C1"/>
<path d="M154.816 130.175H127.185C125.874 130.175 125 129.375 125 128.174C125 126.973 125.874 126.175 127.185 126.175H154.816C156.126 126.175 157 126.973 157 128.174C157 129.375 156.126 130.175 154.816 130.175Z" fill="#BEC0C1"/>
<rect width="272" height="43" transform="translate(0 67.175)" fill="#0E324F"/>
<path d="M96.1297 85.175H22.8703C21.1481 85.175 20 83.9744 20 82.1734C20 80.3724 21.1481 79.175 22.8703 79.175H96.1297C97.8519 79.175 99 80.3724 99 82.1734C99 83.9744 97.8519 85.175 96.1297 85.175Z" fill="#457AA5"/>
<path d="M67.9636 98H22.5635C21.1835 98 20.2635 97.2 20.2635 96C20.2635 94.8 21.1835 94 22.5635 94H67.9636C69.3436 94 70.2636 94.8 70.2636 96C70.2636 97.2 69.3436 98 67.9636 98Z" fill="#457AA5"/>
<path d="M124.964 98H79.5635C78.1835 98 77.2635 97.2 77.2635 96C77.2635 94.8 78.1835 94 79.5635 94H124.964C126.344 94 127.264 94.8 127.264 96C127.264 97.2 126.344 98 124.964 98Z" fill="#457AA5"/>
<path d="M181.964 98H136.563C135.184 98 134.264 97.2 134.264 96C134.264 94.8 135.184 94 136.563 94H181.964C183.344 94 184.264 94.8 184.264 96C184.264 97.2 183.344 98 181.964 98Z" fill="#457AA5"/>
</svg>
