<svg width="272" height="142" viewBox="0 0 272 142" fill="none" xmlns="http://www.w3.org/2000/svg">
<path d="M0 8C0 3.58172 3.58172 0 8 0H264C268.418 0 272 3.58172 272 8V85H0V8Z" fill="#EFF6FB"/>
<path d="M272 88H0V106.072H272V88Z" fill="#B5C1C8"/>
<path d="M117.573 99H17.5515C16.2444 99 15.373 98.2 15.373 97C15.373 95.8 16.2444 95 17.5515 95H117.573C118.88 95 119.752 95.8 119.752 97C119.752 98.2 118.88 99 117.573 99Z" fill="#88AAC6"/>
<path d="M154.187 99.0969H130.686C129.379 99.0969 128.508 98.2969 128.508 97.0969C128.508 95.8969 129.379 95.0969 130.686 95.0969H154.187C155.494 95.0969 156.365 95.8969 156.365 97.0969C156.365 98.2969 155.494 99.0969 154.187 99.0969Z" fill="#88AAC6"/>
<path d="M0 106H272V134C272 138.418 268.418 142 264 142H8.00001C3.58173 142 0 138.418 0 134V106Z" fill="#124A73"/>
<path d="M14.6809 124.507C14.3273 124.415 14.01 124.155 13.628 124.155C13.0866 124.093 12.261 124.118 11.6801 124.234C11.2665 124.323 10.935 124.399 10.9223 124.863C10.9176 125.274 11.437 125.691 11.3517 126.11C11.1654 126.852 10.2262 127.309 9.62634 127.676C9.47164 127.758 9.22064 127.88 9.11646 128.027C8.94281 128.273 8.9807 129.026 9.11646 129.028C11.257 129.034 17.6944 129.037 20.6669 129.036C21.0568 129.069 21.3125 129.343 21.4972 129.703C21.6866 130.03 21.7088 130.461 21.865 130.789C22.0655 131.133 22.577 131.277 22.8958 131.49C23.311 131.738 23.6978 132.014 24.1492 132.219C24.3986 132.333 24.7175 132.456 24.8691 132.701L24.9559 133.042C24.9464 133.2 24.7365 133.321 24.6244 133.403C24.4507 133.534 24.3023 133.678 24.2045 133.877L24.1808 134.191C24.3197 134.412 24.877 134.197 25.0664 134.136C25.3284 134.048 25.5936 133.929 25.8667 133.882C27.0301 133.675 28.2204 133.5 29.2638 132.947C29.4122 132.868 29.7469 132.744 29.7879 132.581C29.8905 132.177 28.6924 132.564 28.5471 132.609C28.2883 132.701 28.0104 132.695 27.7405 132.734C27.1422 132.837 26.3103 133.007 25.7199 133.026C25.4231 133.058 25.2795 132.83 25.3489 132.537C25.431 132.169 25.772 131.943 25.7483 131.558C25.701 130.774 25.9504 129.902 25.9362 129.11C25.8936 128.122 26.3071 127.181 26.3371 126.202C26.364 125.362 26.4839 124.522 26.3813 123.687C26.2914 122.949 26.0088 122.069 26.0672 121.324C26.0814 121.143 26.1098 121.031 26.1603 120.858C26.3671 120.285 26.1714 119.682 26.173 119.117C26.1745 118.41 26.3008 118.113 25.8478 118.03C25.3947 117.946 24.124 118.069 23.6346 118.038C22.9479 118.056 22.2486 118.022 21.6251 118.315C20.85 118.685 20.2438 119.354 19.734 120.019C19.4561 120.462 18.8926 120.601 18.6084 121.034C18.3195 121.433 18.5563 121.877 18.5721 122.314C18.5911 123.664 18.1222 123.463 17.2556 124.161C16.8815 124.462 16.3795 124.521 15.9154 124.53C15.5476 124.54 15.0377 124.6 14.6809 124.507Z" stroke="#ABC4D8" stroke-width="0.638259" stroke-miterlimit="10"/>
<path d="M231.093 129.519H60.1784C58.8714 129.519 58 128.319 58 126.519C58 124.719 58.8714 123.519 60.1784 123.519H231.093C232.4 123.519 233.271 124.719 233.271 126.519C233.271 128.319 232.4 129.519 231.093 129.519Z" fill="#88AAC6"/>
</svg>
