<svg width="580" height="145" viewBox="0 0 580 145" fill="none" xmlns="http://www.w3.org/2000/svg">
<path d="M329.875 145H435C435 64.9187 370.081 0 290 0V105.125C290 127.147 307.853 145 329.875 145Z" fill="#286AD8"/>
<path d="M39.4242 0C17.6508 0 0 17.8525 0 39.8751V145H290V0H39.4242Z" fill="#286AD8"/>
<path d="M435 145C526 145 580 90.5 580 0C487.5 0 435 52 435 145Z" fill="#286AD8"/>
<path d="M329.875 145H435C435 64.9187 370.081 0 290 0V105.125C290 127.147 307.853 145 329.875 145Z" fill="#286AD8"/>
<path d="M435 145C526 145 580 90.5 580 0C487.5 0 435 52 435 145Z" fill="#286AD8"/>
<g style="mix-blend-mode:multiply" opacity="0.72">
<mask id="mask0_617_959" style="mask-type:alpha" maskUnits="userSpaceOnUse" x="0" y="0" width="580" height="145">
<path d="M329.875 145H435C435 64.9187 370.081 0 290 0V105.125C290 127.147 307.853 145 329.875 145Z" fill="#286AD8"/>
<path d="M39.4242 0C17.6508 0 0 17.8525 0 39.8751V145H290V0H39.4242Z" fill="#286AD8"/>
<path d="M435 145C526 145 580 90.5 580 0C487.5 0 435 52 435 145Z" fill="#286AD8"/>
</mask>
<g mask="url(#mask0_617_959)">
<g style="mix-blend-mode:multiply">
<path d="M223.716 107.684C223.826 107.774 223.939 107.86 224.042 107.957H248.801C250.564 107.957 251.961 108.625 252.781 109.747L330.252 187.218C331.248 187.99 331.841 189.158 331.841 190.606C331.841 193.242 329.926 195 327.055 195H104.04C102.277 195 100.88 194.333 100.06 193.211L22.589 115.74C21.5928 114.967 21 113.8 21 112.352C21 109.715 22.9146 107.958 25.7864 107.958H44.3729L44.3722 107.957L23.2437 86.8281C21.8284 85.6752 21 83.8473 21 81.585C21 77.6295 23.5238 75 27.3096 75H188.348C190.417 75 192.088 75.8066 193.198 77.1652L223.716 107.684Z" fill="url(#paint0_linear_617_959)" fill-opacity="0.78"/>
</g>
</g>
</g>
<path d="M163.001 116.746H111.367C108.495 116.746 106.58 114.989 106.58 112.352C106.58 109.715 108.495 107.958 111.367 107.958H163.001C165.873 107.958 167.788 109.715 167.788 112.352C167.788 114.989 165.873 116.746 163.001 116.746Z" fill="#5187DF"/>
<path d="M248.782 116.746H197.147C194.276 116.746 192.361 114.989 192.361 112.352C192.361 109.715 194.276 107.958 197.147 107.958H248.782C251.653 107.958 253.568 109.715 253.568 112.352C253.568 114.989 251.653 116.746 248.782 116.746Z" fill="#5187DF"/>
<path d="M188.328 88.1771H27.2903C23.5045 88.1771 20.9807 85.5403 20.9807 81.585C20.9807 77.6295 23.5045 75 27.2903 75H188.328C192.114 75 194.639 77.6295 194.639 81.585C194.639 85.5403 192.114 88.1771 188.328 88.1771Z" fill="#5187DF"/>
<path d="M77.2208 116.746H25.5864C22.7146 116.746 20.8 114.989 20.8 112.352C20.8 109.715 22.7146 107.958 25.5864 107.958H77.2208C80.0926 107.958 82.0072 109.715 82.0072 112.352C82.0072 114.989 80.0926 116.746 77.2208 116.746Z" fill="#5187DF"/>
<defs>
<linearGradient id="paint0_linear_617_959" x1="57" y1="22" x2="158" y2="181" gradientUnits="userSpaceOnUse">
<stop stop-color="#7AA5E7"/>
<stop offset="1" stop-color="#003BA1"/>
</linearGradient>
</defs>
</svg>
