<svg xmlns="http://www.w3.org/2000/svg" width="573" height="145" fill="none" viewBox="0 0 573 145"><path fill="#286ad8" d="M144 0c80.021 0 144.89 64.906 144.89 144.972l.11.028H144z"/><path fill="#286ad8" d="M72.5 145c40.041 0 72.5-32.459 72.5-72.5S112.541 0 72.5 0 0 32.46 0 72.5 32.46 145 72.5 145M323.875 0C301.853 0 284 17.853 284 39.875V145h145V0z"/><path fill="#286ad8" d="M533.125 145H428C428 64.919 492.919 0 573 0v105.125C573 127.147 555.147 145 533.125 145"/><path fill="#1545bb" d="M76.398 49.042q1.247-.183 2.402.426a3.8 3.8 0 0 1 1.192.967l54.768 59.231c-9.243 15.45-24.071 27.171-41.697 32.375L46.429 94.786Q45 93.358 45 91.352V69.468q0-2.006 1.428-3.435 1.428-1.428 3.434-1.428t3.435 1.428l6.292 6.303V66.61q0-.972.395-1.854a5.2 5.2 0 0 1 1.064-1.55l13.191-13.13a3.92 3.92 0 0 1 2.158-1.034" opacity=".4" style="mix-blend-mode:multiply"/><path fill="#5187df" d="M91.143 64.533q1.942 0 3.4 1.453Q96 67.438 96 69.374v4.841q0 .424-.091.908-.09.484-.273.908L88.35 93.095q-.546 1.21-1.821 2.058-1.274.846-2.672.847H64.43q-2.004 0-3.43-1.422-1.428-1.422-1.428-3.419V66.53q0-.967.395-1.846.394-.877 1.063-1.542L74.204 50.07a3.92 3.92 0 0 1 2.155-1.03 3.85 3.85 0 0 1 2.398.425q1.154.605 1.67 1.694a3.18 3.18 0 0 1 .212 2.239l-2.732 11.134zM49.857 96q-2.004 0-3.43-1.422T45 91.159V69.374q0-1.996 1.427-3.419 1.426-1.422 3.43-1.422t3.43 1.422q1.428 1.422 1.427 3.42v21.784q0 1.996-1.426 3.419Q51.86 96 49.858 96"/></svg>