<svg xmlns="http://www.w3.org/2000/svg" width="583" height="145" fill="none" viewBox="0 0 583 145"><path fill="#286ad8" d="M293.504 145V0h72.335c40.132 0 72.665 32.46 72.665 72.5S405.971 145 365.839 145zM40.73 0C18.235 0 0 17.853 0 39.875V145h149.803V0z"/><path fill="#286ad8" d="M254.959 0c21.729 0 39.344 17.852 39.344 39.875V145h-149V0zM536.848 74.25c18.018 0 32.625-14.607 32.625-32.625S554.866 9 536.848 9s-32.625 14.607-32.625 32.625 14.606 32.625 32.625 32.625M582.504 145h-145V0z"/><path fill="#5287df" d="M63.37 40.151a2.244 2.244 0 0 1 2.244-2.244h45.631a2.244 2.244 0 0 1 0 4.489h-45.63a2.244 2.244 0 0 1-2.245-2.245M63.37 108.821a2.244 2.244 0 0 1 2.244-2.244h73.308a2.244 2.244 0 0 1 0 4.488H65.614a2.244 2.244 0 0 1-2.244-2.244M63.37 121.389a2.244 2.244 0 0 1 2.244-2.244h44.509a2.244 2.244 0 1 1 0 4.488H65.614a2.244 2.244 0 0 1-2.244-2.244M63.37 74.486a2.244 2.244 0 0 1 2.244-2.244h24.311a2.244 2.244 0 1 1 0 4.488h-24.31a2.244 2.244 0 0 1-2.245-2.244M36.797 47.782q-.63 0-1.078-.449a1.47 1.47 0 0 1-.449-1.078V35.575q0-.63.449-1.078a1.47 1.47 0 0 1 1.078-.449h.763v-.762q0-.325.219-.544a.74.74 0 0 1 .543-.22q.325 0 .544.22.22.219.22.544v.763h6.104v-.764q0-.324.219-.543a.74.74 0 0 1 .544-.22q.324 0 .543.22.22.219.22.544v.763h.762q.63 0 1.078.448.45.448.449 1.078v10.682q0 .63-.449 1.077a1.47 1.47 0 0 1-1.078.449zM42.13 66.856c-4.15 0-7.51 3.368-7.51 7.518s3.36 7.518 7.51 7.518c4.158 0 7.526-3.368 7.526-7.518s-3.368-7.518-7.526-7.518M171.289 57.655v.898H32.401v-.898zM171.289 91.767v.897H32.401v-.897zM41.556 117.021a1.5 1.5 0 0 1-.52-.312 32 32 0 0 1-2.392-2.434 18 18 0 0 1-1.737-2.298 11 11 0 0 1-1.06-2.143q-.365-1.029-.365-1.965 0-3.12 2.008-4.972 2.007-1.851 4.649-1.851 2.64 0 4.649 1.851 2.007 1.852 2.007 4.972 0 .936-.364 1.965a11 11 0 0 1-1.06 2.143 18 18 0 0 1-1.738 2.298 32 32 0 0 1-2.392 2.434 1.5 1.5 0 0 1-.52.312 1.7 1.7 0 0 1-.582.104 1.7 1.7 0 0 1-.583-.104"/></svg>