<svg xmlns="http://www.w3.org/2000/svg" width="272" height="143" fill="none" viewBox="0 0 272 143"><rect width="272" height="143" fill="#eff6fb" rx="8"/><path fill="#457aa5" d="M77 27.75a2.5 2.5 0 0 1 2.5-2.5h50.833a2.5 2.5 0 1 1 0 5H79.5a2.5 2.5 0 0 1-2.5-2.5M77 104.25a2.5 2.5 0 0 1 2.5-2.5h81.667a2.5 2.5 0 0 1 0 5H79.5a2.5 2.5 0 0 1-2.5-2.5M77 118.25a2.5 2.5 0 0 1 2.5-2.5h49.583a2.5 2.5 0 1 1 0 5H79.5a2.5 2.5 0 0 1-2.5-2.5M77 66a2.5 2.5 0 0 1 2.5-2.5h27.083a2.5 2.5 0 1 1 0 5H79.5A2.5 2.5 0 0 1 77 66"/><path fill="#154973" d="M47.396 36.25q-.7 0-1.2-.5a1.64 1.64 0 0 1-.5-1.2v-11.9q0-.701.5-1.2.5-.5 1.2-.5h.85v-.85q0-.36.245-.606a.82.82 0 0 1 .605-.244q.361 0 .606.244a.82.82 0 0 1 .244.606v.85h6.8v-.85q0-.36.245-.606a.82.82 0 0 1 .605-.244q.361 0 .606.244a.82.82 0 0 1 .244.606v.85h.85q.702 0 1.2.5.5.499.5 1.2v11.9q0 .702-.5 1.2-.498.5-1.2.5zm0-1.7h11.9v-8.5h-11.9zm0-10.2h11.9v-1.7h-11.9zm5.95 5.1a.82.82 0 0 1-.605-.244.82.82 0 0 1-.245-.606q0-.36.245-.606a.82.82 0 0 1 .605-.244q.361 0 .606.244a.82.82 0 0 1 .244.606q0 .36-.244.606a.82.82 0 0 1-.606.244m-3.4 0a.82.82 0 0 1-.605-.244.82.82 0 0 1-.245-.606q0-.36.245-.606a.82.82 0 0 1 .605-.244q.361 0 .606.244a.82.82 0 0 1 .244.606q0 .36-.244.606a.82.82 0 0 1-.606.244m6.8 0a.82.82 0 0 1-.605-.244.82.82 0 0 1-.245-.606q0-.36.245-.606a.82.82 0 0 1 .605-.244q.361 0 .606.244a.82.82 0 0 1 .244.606q0 .36-.244.606a.82.82 0 0 1-.606.244m-3.4 3.4a.82.82 0 0 1-.605-.244.82.82 0 0 1-.245-.606q0-.36.245-.606a.82.82 0 0 1 .605-.244q.361 0 .606.244a.82.82 0 0 1 .244.606q0 .36-.244.606a.82.82 0 0 1-.606.244m-3.4 0a.82.82 0 0 1-.605-.244.82.82 0 0 1-.245-.606q0-.36.245-.606a.82.82 0 0 1 .605-.244q.361 0 .606.244a.82.82 0 0 1 .244.606q0 .36-.244.606a.82.82 0 0 1-.606.244m6.8 0a.82.82 0 0 1-.605-.244.82.82 0 0 1-.245-.606q0-.36.245-.606a.82.82 0 0 1 .605-.244q.361 0 .606.244a.82.82 0 0 1 .244.606q0 .36-.244.606a.82.82 0 0 1-.606.244M53.338 57.5c-4.623 0-8.366 3.752-8.366 8.375s3.743 8.375 8.366 8.375c4.632 0 8.384-3.752 8.384-8.375S57.97 57.5 53.338 57.5m.009 15.075a6.7 6.7 0 0 1-6.7-6.7c0-3.702 2.998-6.7 6.7-6.7s6.7 2.998 6.7 6.7-2.999 6.7-6.7 6.7"/><path fill="#154973" d="M53.112 61.558h.05a.6.6 0 0 1 .603.603v3.802l3.241 1.927a.595.595 0 0 1 .21.829.597.597 0 0 1-.821.2l-3.476-2.085a.83.83 0 0 1-.41-.72v-3.953a.6.6 0 0 1 .603-.603"/><path stroke="#bec0c1" d="M42.5 47.75h195.943M42.5 85.75h195.943"/><path fill="#154973" d="M53.347 111.669q2.828-2.595 4.194-4.715t1.367-3.766q0-2.526-1.61-4.136t-3.951-1.61-3.951 1.61-1.61 4.136q0 1.645 1.367 3.766t4.194 4.715m-.649 1.715a1.7 1.7 0 0 1-.58-.347 36 36 0 0 1-2.664-2.712 20 20 0 0 1-1.935-2.56q-.776-1.24-1.182-2.387t-.405-2.19q0-3.475 2.236-5.538t5.179-2.063 5.18 2.063q2.235 2.063 2.235 5.538 0 1.043-.405 2.19-.406 1.147-1.182 2.387a20 20 0 0 1-1.935 2.56 36 36 0 0 1-2.665 2.712q-.255.231-.58.347a1.9 1.9 0 0 1-.648.116q-.325 0-.649-.116m1.958-9.072q.545-.544.545-1.309t-.545-1.31a1.79 1.79 0 0 0-1.31-.544q-.764 0-1.308.544-.545.545-.545 1.31t.545 1.309q.545.545 1.309.545t1.31-.545"/></svg>