<svg xmlns="http://www.w3.org/2000/svg" width="577" height="145" fill="none" viewBox="0 0 577 145"><path fill="#286ad8" d="M433 39.424C433 17.651 415.148 0 393.125 0H288v145h145zM182.424 145C160.651 145 143 127.148 143 105.125V0h145v145z"/><path fill="#286ad8" d="M432 145V0h72.335C544.467 0 577 32.46 577 72.5S544.467 145 504.335 145z"/><path fill="#1545bb" d="m411.96 145.009-190.822-.079-20.388-27.992 5.781 2.312c2.947 0 98.402.111 128.483.146 4.971.006 8.991-4.019 8.997-8.989l.066-51.622-1.361-5.203z" opacity=".4" style="mix-blend-mode:multiply"/><path stroke="#5187df" stroke-linecap="round" stroke-linejoin="bevel" d="M198 59.049a9 9 0 0 1 9-9h128a9 9 0 0 1 9 9v51.14a9 9 0 0 1-9 9H207a9 9 0 0 1-9-9z"/><path fill="#1545bb" d="M215 74.86a2 2 0 0 1 2-2h46.456a2 2 0 1 1 0 4H217a2 2 0 0 1-2-2" opacity=".4" style="mix-blend-mode:multiply"/><path fill="#5187df" d="M215 86.543a2 2 0 0 1 2-2h82.575a2 2 0 0 1 0 4H217a2 2 0 0 1-2-2"/><path fill="#1545bb" d="m332.482 65.11-2.42 2.42 2.361 2.36L331.314 71l-2.362-2.361-2.292 2.293-1.109-1.109 2.293-2.294-2.352-2.35 1.11-1.11 2.35 2.352 2.421-2.42zM327.048 101.049h-17.227c-1.768 0-3.202 1.454-3.202 3.248v3.032c0 1.794 1.434 3.248 3.202 3.248h17.227c1.768 0 3.202-1.454 3.202-3.248v-3.032c0-1.794-1.434-3.248-3.202-3.248" opacity=".4" style="mix-blend-mode:multiply"/><path fill="#5187df" d="M298.844 100.666h-17.227c-1.769 0-3.202 1.454-3.202 3.248v3.032c0 1.794 1.433 3.248 3.202 3.248h17.227c1.768 0 3.202-1.454 3.202-3.248v-3.032c0-1.794-1.434-3.248-3.202-3.248"/><path fill="#286ad8" d="M72.5 145c40.041 0 72.5-32.459 72.5-72.5S112.541 0 72.5 0 0 32.46 0 72.5 32.46 145 72.5 145"/></svg>