<svg xmlns="http://www.w3.org/2000/svg" width="272" height="143" fill="none" viewBox="0 0 272 143"><rect width="272" height="143" fill="#eff6fb" rx="8"/><g filter="url(#a)"><rect width="232" height="108" x="20" y="17" fill="#fff" rx="6.544"/></g><path fill="#154973" d="M50.065 42.203a2.454 2.454 0 0 1 2.455-2.454h69.943a2.454 2.454 0 0 1 0 4.909H52.52a2.454 2.454 0 0 1-2.455-2.455"/><path fill="#a7a9ab" d="M50.065 61.019a2.454 2.454 0 0 1 2.455-2.454h131.525a2.454 2.454 0 1 1 0 4.908H52.52a2.454 2.454 0 0 1-2.455-2.454M50.065 72.472a2.454 2.454 0 0 1 2.455-2.455h113.027a2.454 2.454 0 1 1 0 4.909H52.52a2.454 2.454 0 0 1-2.455-2.454"/><path fill="#457aa5" d="m221.947 35.398 1.296-1.296 6.806 6.806-1.296 1.296z"/><path fill="#457aa5" d="m228.822 34.023 1.296 1.296-6.806 6.806-1.296-1.296z"/><path fill="#154973" d="M221.29 100h-25.557c-2.623 0-4.75 2.157-4.75 4.819v4.498c0 2.661 2.127 4.818 4.75 4.818h25.557c2.623 0 4.749-2.157 4.749-4.818v-4.498c0-2.662-2.126-4.819-4.749-4.819"/><path fill="#d0d0ce" d="M179.447 100h-25.556c-2.623 0-4.75 2.157-4.75 4.819v4.498c0 2.661 2.127 4.818 4.75 4.818h25.556c2.624 0 4.75-2.157 4.75-4.818v-4.498c0-2.662-2.126-4.819-4.75-4.819"/><defs><filter id="a" width="242" height="118" x="15" y="14.823" color-interpolation-filters="sRGB" filterUnits="userSpaceOnUse"><feFlood flood-opacity="0" result="BackgroundImageFix"/><feColorMatrix in="SourceAlpha" result="hardAlpha" values="0 0 0 0 0 0 0 0 0 0 0 0 0 0 0 0 0 0 127 0"/><feOffset dy="2.824"/><feGaussianBlur stdDeviation="2.5"/><feComposite in2="hardAlpha" operator="out"/><feColorMatrix values="0 0 0 0 0 0 0 0 0 0 0 0 0 0 0 0 0 0 0.2 0"/><feBlend in2="BackgroundImageFix" result="effect1_dropShadow_89_34"/><feBlend in="SourceGraphic" in2="effect1_dropShadow_89_34" result="shape"/></filter></defs></svg>