<svg xmlns="http://www.w3.org/2000/svg" width="578" height="145" fill="none" viewBox="0 0 578 145"><path fill="#286ad8" d="M394.576 0C416.349 0 434 17.853 434 39.875V145H289V0z"/><path fill="#286ad8" d="M289.879 39.424C289.879 17.651 272.026 0 250.004 0H144.879v145h145zM432.754 145V0h72.335c40.132 0 72.665 32.46 72.665 72.5S545.221 145 505.089 145z"/><path fill="#286ad8" d="M145 105.125V0C64.919 0 0 64.919 0 145h105.125C127.147 145 145 127.147 145 105.125"/><path fill="#1545bb" d="M209.609 107a2.74 2.74 0 0 1 2.113 1.005q.196.163.359.36.196.163.36.36.198.163.361.36.196.164.359.36.196.163.36.36.198.163.361.36.196.163.359.36.197.163.361.36.196.163.359.36.197.163.36.36.198.164.361.36.196.163.359.36.196.163.36.36.198.163.361.36c.067.055.139.105.2.167v-3.454a2.757 2.757 0 0 1 2.757-2.758h15.852a2.74 2.74 0 0 1 2.112 1.005q.196.163.359.359.196.163.36.361.198.163.361.36.196.163.359.359.196.163.36.361.197.163.36.36.197.163.36.359.197.163.36.361.197.163.36.36.196.163.36.359.198.165.361.361.196.163.359.36.196.163.36.36.198.163.361.36c.067.056.138.105.2.167v-3.455A2.76 2.76 0 0 1 245.68 107h15.852c.852 0 1.606.397 2.112 1.006q.196.163.359.36.196.163.36.36.197.163.36.36.196.163.36.359.196.163.36.361.197.164.36.36.196.163.36.359.196.163.36.361.197.163.36.36.196.163.36.359.196.165.361.361.196.163.359.36.196.163.36.36.198.163.361.36c.067.056.139.106.201.168v-3.456a2.757 2.757 0 0 1 2.756-2.758h15.852c.853 0 1.607.396 2.112 1.005q.197.163.36.36.196.163.36.36.196.163.361.36.196.164.359.36.196.163.36.36.196.163.36.36.196.163.36.36.196.163.36.36.197.163.36.36.196.163.36.36.196.163.36.36.197.163.36.36.196.163.36.36.196.163.361.36c.066.056.138.105.2.167v-3.454a2.76 2.76 0 0 1 2.757-2.758h15.851c.854 0 1.607.396 2.112 1.005a39 39 0 0 1 5.04 5.04c.049.04 20.535 20.514 31.983 31.955H209.284l-17.279-17.279a2.74 2.74 0 0 1-1.005-2.113v-15.85a2.76 2.76 0 0 1 2.757-2.758z" opacity=".4" style="mix-blend-mode:multiply"/><path fill="#5187df" d="M235.571 107h-15.852a2.757 2.757 0 0 0-2.757 2.757v15.851a2.757 2.757 0 0 0 2.757 2.757h15.852a2.756 2.756 0 0 0 2.756-2.757v-15.851a2.756 2.756 0 0 0-2.756-2.757m-25.962 0h-15.852a2.757 2.757 0 0 0-2.757 2.757v15.851a2.757 2.757 0 0 0 2.757 2.757h15.852a2.757 2.757 0 0 0 2.757-2.757v-15.851a2.757 2.757 0 0 0-2.757-2.757"/><path fill="#1545bb" d="m200.51 117.683 3.134 3.134a.76.76 0 0 1 .221.562.77.77 0 0 1-.221.563.76.76 0 0 1-.562.221.76.76 0 0 1-.563-.221l-3.696-3.697a.77.77 0 0 1-.241-.562q0-.321.241-.563l3.696-3.696a.76.76 0 0 1 .563-.221q.341 0 .562.221a.76.76 0 0 1 .221.562.76.76 0 0 1-.221.563z"/><path fill="#5187df" d="M287.493 107h-15.852a2.756 2.756 0 0 0-2.756 2.757v15.851a2.756 2.756 0 0 0 2.756 2.757h15.852a2.757 2.757 0 0 0 2.757-2.757v-15.851a2.757 2.757 0 0 0-2.757-2.757m25.961 0h-15.852a2.756 2.756 0 0 0-2.756 2.757v15.851a2.756 2.756 0 0 0 2.756 2.757h15.852a2.757 2.757 0 0 0 2.757-2.757v-15.851a2.757 2.757 0 0 0-2.757-2.757"/><path fill="#1545bb" d="m306.241 117.681-3.133-3.134a.76.76 0 0 1-.221-.562q0-.342.221-.563a.76.76 0 0 1 .562-.221q.342 0 .563.221l3.696 3.697q.241.24.241.562 0 .321-.241.563l-3.696 3.696a.77.77 0 0 1-.563.221.76.76 0 0 1-.562-.221.76.76 0 0 1-.221-.563q0-.341.221-.562z"/><path fill="#5187df" d="M261.532 128.365H245.68a2.76 2.76 0 0 1-2.757-2.757v-15.851A2.76 2.76 0 0 1 245.68 107h15.852a2.76 2.76 0 0 1 2.757 2.757v15.851a2.76 2.76 0 0 1-2.757 2.757M245.68 108c-.969 0-1.757.788-1.757 1.757v15.851c0 .969.788 1.757 1.757 1.757h15.852a1.76 1.76 0 0 0 1.757-1.757v-15.851a1.76 1.76 0 0 0-1.757-1.757z"/></svg>