<svg xmlns="http://www.w3.org/2000/svg" width="272" height="143" fill="none" viewBox="0 0 272 143"><rect width="272" height="143" fill="#ededed" rx="8"/><rect width="30" height="30" x="21.5" y="56.5" fill="#fff" stroke="#a7a9ab" rx="3.5"/><rect width="30" height="30" x="60.5" y="56.5" fill="#fff" stroke="#a7a9ab" rx="3.5"/><rect width="31" height="31" x="99" y="56" fill="#154973" rx="4"/><path fill="#2d437f" d="M76.893 78h-2.106v-9.27l-1.962 2.034-1.224-1.278 3.456-3.492h1.836z"/><path fill="#000" d="m34.798 71.5 4.547 4.547q.32.321.32.816 0 .496-.32.816-.32.321-.816.321t-.816-.32l-5.363-5.364A1.12 1.12 0 0 1 32 71.5q0-.466.35-.816l5.363-5.363q.321-.321.816-.321t.816.32.32.817q0 .495-.32.816z"/><rect width="30" height="30" x="216.5" y="56.5" fill="#fff" stroke="#a7a9ab" rx="3.5"/><path fill="#000" d="m233.868 71.5-4.547-4.547a1.1 1.1 0 0 1-.321-.816q0-.496.321-.816.32-.321.816-.321t.816.32l5.363 5.364q.35.35.35.816t-.35.816l-5.363 5.363q-.321.321-.816.321-.496 0-.816-.32a1.1 1.1 0 0 1-.321-.817q0-.495.321-.816z"/><path fill="#fff" d="M117.991 78h-8.694v-1.656c4.662-3.528 6.48-5.094 6.48-6.822 0-1.26-1.08-1.836-2.178-1.836-1.404 0-2.484.576-3.24 1.44l-1.224-1.386c1.062-1.278 2.754-1.926 4.428-1.926 2.322 0 4.356 1.314 4.356 3.708 0 2.214-2.034 4.194-5.256 6.624h5.328z"/><path fill="#000" d="M147.708 78.198c-.684 0-1.26-.576-1.26-1.26s.576-1.26 1.26-1.26 1.26.576 1.26 1.26-.576 1.26-1.26 1.26m6.032 0c-.684 0-1.26-.576-1.26-1.26s.576-1.26 1.26-1.26 1.26.576 1.26 1.26-.576 1.26-1.26 1.26m6.032 0c-.684 0-1.26-.576-1.26-1.26s.576-1.26 1.26-1.26 1.26.576 1.26 1.26-.576 1.26-1.26 1.26"/><rect width="30" height="30" x="177.5" y="56.5" fill="#fff" stroke="#a7a9ab" rx="3.5"/><path fill="#2d437f" d="M192.442 78h-2.304l4.536-10.152h-6.228v-1.854h8.658v1.458z"/></svg>