<svg width="578" height="145" viewBox="0 0 578 145" fill="none" xmlns="http://www.w3.org/2000/svg">
<path d="M394.576 0C416.349 0 434 17.8525 434 39.8751V145L289 145V0L394.576 0Z" fill="#286AD8"/>
<path d="M289.879 39.4242C289.879 17.6508 272.027 0 250.004 0L144.879 0V145H289.879V39.4242Z" fill="#286AD8"/>
<path d="M432.754 145V-0.000152588L505.089 -0.000152588C545.221 -0.000152588 577.754 32.4592 577.754 72.4999C577.754 112.541 545.221 145 505.089 145L432.754 145Z" fill="#286AD8"/>
<path d="M145 105.125V0C64.9187 0 0 64.9187 0 145H105.125C127.147 145 145 127.147 145 105.125Z" fill="#286AD8"/>
<mask id="mask0_1398_5052" style="mask-type:alpha" maskUnits="userSpaceOnUse" x="144" y="0" width="290" height="145">
<path d="M250.004 0C269.16 0 285.16 13.356 289 31.1631V0H394.576C416.349 0.000212686 434 17.8525 434 39.875V145H144.879V0H250.004Z" fill="#286AD8"/>
</mask>
<g mask="url(#mask0_1398_5052)">
<path d="M386.168 152.645C386.177 152.652 216.953 152.669 216.953 152.669L192.005 127.72C191.396 127.215 191 126.462 191 125.608V109.757C191 108.234 192.235 107 193.757 107H209.609C210.463 107 211.216 107.396 211.721 108.005C211.853 108.114 211.972 108.233 212.081 108.365C212.213 108.474 212.332 108.593 212.441 108.725C212.573 108.834 212.692 108.953 212.801 109.085C212.933 109.194 213.052 109.313 213.161 109.445C213.293 109.554 213.412 109.673 213.521 109.805C213.653 109.914 213.772 110.033 213.881 110.165C214.013 110.274 214.132 110.394 214.241 110.525C214.373 110.634 214.492 110.754 214.601 110.885C214.733 110.994 214.852 111.113 214.961 111.245C215.093 111.354 215.212 111.473 215.321 111.605C215.453 111.714 215.572 111.834 215.681 111.965C215.813 112.074 215.932 112.194 216.041 112.325C216.173 112.434 216.292 112.554 216.401 112.685C216.533 112.794 216.652 112.914 216.761 113.045C216.828 113.1 216.901 113.15 216.962 113.211V109.757C216.962 108.234 218.196 107 219.719 107H235.571C236.424 107 237.177 107.396 237.682 108.005C237.813 108.114 237.933 108.233 238.042 108.365C238.173 108.474 238.293 108.593 238.402 108.725C238.533 108.834 238.653 108.953 238.762 109.085C238.894 109.194 239.013 109.313 239.122 109.445C239.254 109.554 239.373 109.673 239.482 109.805C239.613 109.914 239.733 110.033 239.842 110.165C239.973 110.274 240.093 110.393 240.202 110.525C240.334 110.634 240.453 110.753 240.562 110.885C240.694 110.994 240.813 111.113 240.922 111.245C241.054 111.354 241.173 111.473 241.282 111.605C241.414 111.714 241.533 111.833 241.642 111.965C241.774 112.074 241.893 112.193 242.002 112.325C242.134 112.434 242.253 112.553 242.362 112.685C242.494 112.794 242.613 112.913 242.722 113.045C242.789 113.1 242.862 113.15 242.923 113.211V109.757C242.923 108.236 244.16 107 245.68 107H261.532C262.384 107 263.137 107.396 263.643 108.005C263.774 108.115 263.894 108.234 264.003 108.365C264.134 108.475 264.254 108.594 264.363 108.726C264.494 108.835 264.614 108.954 264.723 109.086C264.854 109.195 264.974 109.314 265.083 109.446C265.214 109.555 265.334 109.674 265.443 109.806C265.574 109.915 265.694 110.034 265.803 110.166C265.934 110.275 266.054 110.394 266.163 110.526C266.294 110.635 266.414 110.754 266.523 110.886C266.654 110.995 266.774 111.114 266.883 111.246C267.014 111.355 267.134 111.474 267.243 111.606C267.374 111.715 267.494 111.834 267.603 111.966C267.734 112.075 267.854 112.194 267.963 112.326C268.094 112.435 268.214 112.554 268.323 112.686C268.454 112.795 268.574 112.914 268.683 113.046C268.751 113.102 268.823 113.152 268.885 113.214V109.757C268.885 108.234 270.119 107 271.641 107H287.493C288.346 107 289.099 107.396 289.605 108.005C289.736 108.114 289.856 108.233 289.965 108.365C290.096 108.474 290.216 108.593 290.325 108.725C290.456 108.834 290.576 108.953 290.685 109.085C290.816 109.194 290.936 109.313 291.045 109.445C291.176 109.554 291.296 109.673 291.405 109.805C291.536 109.914 291.656 110.033 291.765 110.165C291.896 110.274 292.016 110.394 292.125 110.525C292.256 110.634 292.376 110.754 292.485 110.885C292.616 110.994 292.736 111.113 292.845 111.245C292.976 111.354 293.096 111.473 293.205 111.605C293.336 111.714 293.456 111.834 293.565 111.965C293.696 112.074 293.816 112.194 293.925 112.325C294.056 112.434 294.176 112.554 294.285 112.685C294.416 112.794 294.536 112.914 294.645 113.045C294.712 113.101 294.785 113.15 294.846 113.212V109.757C294.846 108.234 296.08 107 297.602 107H313.454C314.308 107 315.061 107.396 315.566 108.005C315.698 108.114 315.817 108.233 315.926 108.365C316.058 108.474 316.177 108.593 316.286 108.725C316.418 108.834 316.537 108.953 316.646 109.085C316.778 109.194 316.897 109.313 317.006 109.445C317.138 109.554 317.257 109.673 317.366 109.805C317.498 109.914 317.617 110.033 317.726 110.165C317.858 110.274 317.977 110.393 318.086 110.525C318.218 110.634 318.337 110.753 318.446 110.885C318.578 110.994 318.697 111.113 318.806 111.245C318.938 111.354 319.057 111.473 319.166 111.605C319.298 111.714 319.417 111.833 319.526 111.965C319.658 112.074 319.777 112.193 319.886 112.325C320.018 112.434 320.137 112.553 320.246 112.685C320.378 112.794 320.497 112.913 320.606 113.045C320.674 113.101 320.746 113.15 320.808 113.212V109.757C320.808 108.234 322.041 107 323.563 107H339.415C340.269 107 341.022 107.396 341.528 108.005L386.168 152.645Z" fill="#1D54CA"/>
</g>
<path d="M235.571 107H219.719C218.196 107 216.962 108.234 216.962 109.757V125.608C216.962 127.131 218.196 128.365 219.719 128.365H235.571C237.093 128.365 238.327 127.131 238.327 125.608V109.757C238.327 108.234 237.093 107 235.571 107Z" fill="#5187DF"/>
<path d="M209.609 107H193.757C192.235 107 191 108.234 191 109.757V125.608C191 127.131 192.235 128.365 193.757 128.365H209.609C211.132 128.365 212.366 127.131 212.366 125.608V109.757C212.366 108.234 211.132 107 209.609 107Z" fill="#5187DF"/>
<path d="M200.51 117.683L203.644 120.817C203.791 120.964 203.865 121.152 203.865 121.379C203.865 121.607 203.791 121.794 203.644 121.942C203.497 122.089 203.309 122.163 203.082 122.163C202.854 122.163 202.666 122.089 202.519 121.942L198.823 118.245C198.662 118.085 198.582 117.897 198.582 117.683C198.582 117.469 198.662 117.281 198.823 117.12L202.519 113.424C202.666 113.277 202.854 113.203 203.082 113.203C203.309 113.203 203.497 113.277 203.644 113.424C203.791 113.571 203.865 113.759 203.865 113.986C203.865 114.214 203.791 114.402 203.644 114.549L200.51 117.683Z" fill="#134A74"/>
<path d="M313.454 107H297.602C296.08 107 294.846 108.234 294.846 109.757V125.608C294.846 127.131 296.08 128.365 297.602 128.365H313.454C314.977 128.365 316.211 127.131 316.211 125.608V109.757C316.211 108.234 314.977 107 313.454 107Z" fill="#5187DF"/>
<path d="M287.493 107H271.641C270.119 107 268.885 108.234 268.885 109.757V125.608C268.885 127.131 270.119 128.365 271.641 128.365H287.493C289.016 128.365 290.25 127.131 290.25 125.608V109.757C290.25 108.234 289.016 107 287.493 107Z" fill="#5187DF"/>
<path d="M339.415 107H323.564C322.042 107 320.807 108.234 320.807 109.757V125.608C320.807 127.131 322.042 128.365 323.564 128.365H339.415C340.939 128.365 342.173 127.131 342.173 125.608V109.757C342.173 108.234 340.939 107 339.415 107Z" fill="#5187DF"/>
<path d="M332.203 117.681L329.07 114.547C328.922 114.4 328.849 114.212 328.849 113.985C328.849 113.757 328.922 113.57 329.07 113.422C329.217 113.275 329.404 113.201 329.632 113.201C329.86 113.201 330.047 113.275 330.195 113.422L333.89 117.119C334.051 117.279 334.132 117.467 334.132 117.681C334.132 117.895 334.051 118.083 333.89 118.244L330.195 121.94C330.047 122.087 329.86 122.161 329.632 122.161C329.404 122.161 329.217 122.087 329.07 121.94C328.922 121.793 328.849 121.605 328.849 121.377C328.849 121.15 328.922 120.962 329.07 120.815L332.203 117.681Z" fill="#134A74"/>
<path d="M261.532 128.365H245.68C244.16 128.365 242.923 127.129 242.923 125.608V109.757C242.923 108.236 244.16 107 245.68 107H261.532C263.052 107 264.289 108.236 264.289 109.757V125.608C264.289 127.129 263.052 128.365 261.532 128.365ZM245.68 108C244.711 108 243.923 108.788 243.923 109.757V125.608C243.923 126.577 244.711 127.365 245.68 127.365H261.532C262.501 127.365 263.289 126.577 263.289 125.608V109.757C263.289 108.788 262.501 108 261.532 108H245.68Z" fill="#5187DF"/>
</svg>
