<svg xmlns="http://www.w3.org/2000/svg" width="272" height="148" fill="none" viewBox="0 0 272 148"><path fill="#ededed" d="M0 0h272v148H0z"/><path fill="#bec0c1" d="M136 29.732c-23.748 0-43 19.82-43 44.268 0 9.968 3.202 19.165 8.602 26.564L139.14 61.92h-27.96V49.363h48.787V99.59H147.77V70.792l-37.54 38.646c7.182 5.544 16.103 8.829 25.77 8.829 23.748 0 43-19.82 43-44.268s-19.252-44.268-43-44.268"/><path fill="#797c7f" d="M111.179 61.92h27.961l-13.981 14.392zm48.787-12.557v50.225h-12.197V70.793l-37.54 38.646c7.182 5.543 16.103 8.829 25.77 8.829C159.748 118.268 179 98.448 179 74c0-1.772-.113-3.517-.31-5.235z"/></svg>