<svg width="579" height="145" viewBox="0 0 579 145" fill="none" xmlns="http://www.w3.org/2000/svg">
<path d="M532.623 74.2495C550.641 74.2495 565.248 59.6428 565.248 41.6245C565.248 23.6062 550.641 8.99951 532.623 8.99951C514.605 8.99951 499.998 23.6062 499.998 41.6245C499.998 59.6428 514.605 74.2495 532.623 74.2495Z" fill="#457AA5"/>
<path d="M578.279 145H433.279V0L578.279 145Z" fill="#457AA5"/>
<path d="M105.125 145H0C0 64.9187 64.9186 0 145 0V105.125C145 127.147 127.147 145 105.125 145Z" fill="#457AA5"/>
<path d="M290 0V145H217.665C177.533 145 145 112.541 145 72.5C145 32.4594 177.533 2.23036e-05 217.665 2.23036e-05L290 0Z" fill="#457AA5"/>
<path d="M361.617 144.999C401.593 144.999 434 112.593 434 72.6169C434 32.641 401.593 0.234253 361.617 0.234253C321.641 0.234253 289.234 32.641 289.234 72.6169C289.234 112.593 321.641 144.999 361.617 144.999Z" fill="#457AA5"/>
<mask id="mask0_151_134" style="mask-type:luminance" maskUnits="userSpaceOnUse" x="289" y="0" width="145" height="145">
<path d="M361.383 144.765C401.358 144.765 433.765 112.358 433.765 72.3826C433.765 32.4068 401.358 0 361.383 0C321.407 0 289 32.4068 289 72.3826C289 112.358 321.407 144.765 361.383 144.765Z" fill="white"/>
</mask>
<g mask="url(#mask0_151_134)">
<path d="M433.398 87.861L425.236 109.683L412.893 125.901L396.225 138.064L383.071 143.109L377.15 144.695L335.014 102.56C334.916 102.462 334.818 102.365 334.721 102.267C334.623 102.17 334.526 102.072 334.429 101.974C334.331 101.878 334.234 101.78 334.137 101.682C334.039 101.585 333.941 101.487 333.844 101.389C333.746 101.292 333.648 101.194 333.551 101.096C333.453 100.999 333.356 100.902 333.259 100.804C325.937 93.5568 321.397 83.5033 321.397 72.3872C321.397 50.3039 339.3 32.4017 361.383 32.4017C372.499 32.4017 382.553 36.9409 389.8 44.263C389.898 44.36 389.995 44.4575 390.092 44.5555C390.191 44.6528 390.288 44.7504 390.385 44.8487L433.106 87.5688C433.204 87.6658 433.301 87.7631 433.398 87.861Z" fill="#154973"/>
</g>
<path d="M361.617 112.607C383.701 112.607 401.603 94.7049 401.603 72.6216C401.603 50.5382 383.701 32.6361 361.617 32.6361C339.534 32.6361 321.632 50.5382 321.632 72.6216C321.632 94.7049 339.534 112.607 361.617 112.607Z" fill="#CDDDE9"/>
<path d="M361.616 97.1034C375.147 97.1034 386.116 86.1344 386.116 72.6036C386.116 59.0727 375.147 48.1038 361.616 48.1038C348.085 48.1038 337.116 59.0727 337.116 72.6036C337.116 86.1344 348.085 97.1034 361.616 97.1034Z" fill="#154973"/>
</svg>
