<svg xmlns="http://www.w3.org/2000/svg" width="579" height="145" fill="none" viewBox="0 0 579 145"><path fill="#286ad8" d="M105.125 145H0C0 64.919 64.919 0 145 0v105.125C145 127.147 127.147 145 105.125 145M434 145C514.021 145 578.89 80.094 578.89.028L579 0H434z"/><path fill="#286ad8" d="M290 0c80.081 0 145 64.919 145 145H145V0z"/><path fill="#1545bb" d="M205.262 47.2c5.063 0 9.634 2.118 12.899 5.503l.996.99q.254.243.498.495.255.243.499.496.254.242.498.494.255.243.498.496.256.242.499.495.254.242.497.494.255.243.5.496.253.242.498.494.254.244.499.496.252.242.497.495.254.243.499.496.254.242.498.495.254.242.498.494.254.243.499.496.254.242.498.494l.996.99q.254.244.499.495l.996.99q.254.243.499.496.254.242.497.495.254.242.499.495l.996.99.097.088a3 3 0 0 1-.19-1.02c0-1.644 1.326-2.99 2.945-2.99h39.955c.92 0 1.735.444 2.276 1.121q.278.218.498.496.278.217.498.495.278.217.498.495.279.217.499.495L358.171 145H216.092l-18.247-18.131q-.255-.242-.499-.495l-1.992-1.98q-.255-.243-.5-.496l-1.494-1.485a18 18 0 0 1-.499-.495c-3.405-3.267-5.538-7.851-5.538-12.931 0-9.89 8.048-17.937 17.939-17.937.231 0 .455.025.684.034-.045-.046-.084-.096-.129-.142a19 19 0 0 1-.499-.496 19 19 0 0 1-.498-.494 19 19 0 0 1-.498-.496 19 19 0 0 1-.498-.494 19 19 0 0 1-.499-.496 19 19 0 0 1-.498-.495 19 19 0 0 1-.498-.494 19 19 0 0 1-.499-.496 17 17 0 0 1-.497-.495 19 19 0 0 1-.499-.496 17 17 0 0 1-.498-.494 19 19 0 0 1-.499-.496 17 17 0 0 1-.498-.495 17 17 0 0 1-.498-.494l-.996-.99q-.255-.244-.499-.496l-.996-.99q-.256-.242-.499-.495a17 17 0 0 1-.497-.495q-.255-.242-.5-.495a19 19 0 0 1-.498-.495 19 19 0 0 1-.499-.495 19 19 0 0 1-.497-.496 19 19 0 0 1-.499-.495c-3.405-3.267-5.538-7.85-5.538-12.93 0-9.891 8.048-17.939 17.939-17.939" opacity=".4" style="mix-blend-mode:multiply"/><path fill="#5187df" d="M274.474 62h-40.093c-1.624 0-2.953 1.35-2.953 3s1.329 3 2.953 3h40.093c1.625 0 2.954-1.35 2.954-3s-1.329-3-2.954-3m7.967 44h-48.026c-1.643 0-2.987 1.35-2.987 3s1.344 3 2.987 3h48.026c1.643 0 2.987-1.35 2.987-3s-1.344-3-2.987-3"/><circle cx="204.574" cy="109" r="16" stroke="#5187df" stroke-width="4"/><circle cx="204.574" cy="65" r="16" stroke="#5187df" stroke-width="4"/><circle cx="204.574" cy="65" r="9" fill="#5187df"/></svg>