<svg width="272" height="144" viewBox="0 0 272 144" fill="none" xmlns="http://www.w3.org/2000/svg">
<rect width="272" height="144" rx="8" fill="#EFF6FB"/>
<mask id="path-2-inside-1_11_34" fill="white">
<path d="M45.25 71.5001C45.25 64.4309 50.9807 58.7002 58.0499 58.7002V58.7002C65.1191 58.7002 70.8498 64.4309 70.8498 71.5001V71.5001C70.8498 78.5693 65.1191 84.3 58.0499 84.3V84.3C50.9807 84.3 45.25 78.5693 45.25 71.5001V71.5001Z"/>
</mask>
<path d="M45.25 71.5001C45.25 64.4309 50.9807 58.7002 58.0499 58.7002V58.7002C65.1191 58.7002 70.8498 64.4309 70.8498 71.5001V71.5001C70.8498 78.5693 65.1191 84.3 58.0499 84.3V84.3C50.9807 84.3 45.25 78.5693 45.25 71.5001V71.5001Z" fill="white"/>
<path d="M58.0499 84.3V82.1667C52.1589 82.1667 47.3833 77.3911 47.3833 71.5001H45.25H43.1167C43.1167 79.7475 49.8025 86.4334 58.0499 86.4334V84.3ZM70.8498 71.5001H68.7165C68.7165 77.3911 63.9409 82.1667 58.0499 82.1667V84.3V86.4334C66.2973 86.4334 72.9832 79.7475 72.9832 71.5001H70.8498ZM58.0499 58.7002V60.8335C63.9409 60.8335 68.7165 65.6091 68.7165 71.5001H70.8498H72.9832C72.9832 63.2527 66.2973 56.5669 58.0499 56.5669V58.7002ZM58.0499 58.7002V56.5669C49.8025 56.5669 43.1167 63.2527 43.1167 71.5001H45.25H47.3833C47.3833 65.6091 52.1589 60.8335 58.0499 60.8335V58.7002Z" fill="#62666A" mask="url(#path-2-inside-1_11_34)"/>
<circle cx="58.0499" cy="71.5001" r="7.46662" fill="#154973"/>
<mask id="path-5-inside-2_11_34" fill="white">
<path d="M45.25 30.9581C45.25 23.8889 50.9807 18.1582 58.0499 18.1582V18.1582C65.1191 18.1582 70.8498 23.8889 70.8498 30.9581V30.9581C70.8498 38.0273 65.1191 43.7581 58.0499 43.7581V43.7581C50.9807 43.7581 45.25 38.0273 45.25 30.9581V30.9581Z"/>
</mask>
<path d="M45.25 30.9581C45.25 23.8889 50.9807 18.1582 58.0499 18.1582V18.1582C65.1191 18.1582 70.8498 23.8889 70.8498 30.9581V30.9581C70.8498 38.0273 65.1191 43.7581 58.0499 43.7581V43.7581C50.9807 43.7581 45.25 38.0273 45.25 30.9581V30.9581Z" fill="white"/>
<path d="M58.0499 43.7581V41.6247C52.1589 41.6247 47.3833 36.8491 47.3833 30.9581H45.25H43.1167C43.1167 39.2055 49.8025 45.8914 58.0499 45.8914V43.7581ZM70.8498 30.9581H68.7165C68.7165 36.8491 63.9409 41.6247 58.0499 41.6247V43.7581V45.8914C66.2973 45.8914 72.9832 39.2055 72.9832 30.9581H70.8498ZM58.0499 18.1582V20.2915C63.9409 20.2915 68.7165 25.0671 68.7165 30.9581H70.8498H72.9832C72.9832 22.7107 66.2973 16.0249 58.0499 16.0249V18.1582ZM58.0499 18.1582V16.0249C49.8025 16.0249 43.1167 22.7107 43.1167 30.9581H45.25H47.3833C47.3833 25.0671 52.1589 20.2915 58.0499 20.2915V18.1582Z" fill="#62666A" mask="url(#path-5-inside-2_11_34)"/>
<mask id="path-7-inside-3_11_34" fill="white">
<path d="M45.25 113.1C45.25 106.031 50.9807 100.3 58.0499 100.3V100.3C65.1191 100.3 70.8498 106.031 70.8498 113.1V113.1C70.8498 120.169 65.1191 125.9 58.0499 125.9V125.9C50.9807 125.9 45.25 120.169 45.25 113.1V113.1Z"/>
</mask>
<path d="M45.25 113.1C45.25 106.031 50.9807 100.3 58.0499 100.3V100.3C65.1191 100.3 70.8498 106.031 70.8498 113.1V113.1C70.8498 120.169 65.1191 125.9 58.0499 125.9V125.9C50.9807 125.9 45.25 120.169 45.25 113.1V113.1Z" fill="white"/>
<path d="M58.0499 125.9V123.766C52.1589 123.766 47.3833 118.991 47.3833 113.1H45.25H43.1167C43.1167 121.347 49.8025 128.033 58.0499 128.033V125.9ZM70.8498 113.1H68.7165C68.7165 118.991 63.9409 123.766 58.0499 123.766V125.9V128.033C66.2973 128.033 72.9832 121.347 72.9832 113.1H70.8498ZM58.0499 100.3V102.433C63.9409 102.433 68.7165 107.209 68.7165 113.1H70.8498H72.9832C72.9832 104.852 66.2973 98.1665 58.0499 98.1665V100.3ZM58.0499 100.3V98.1665C49.8025 98.1665 43.1167 104.852 43.1167 113.1H45.25H47.3833C47.3833 107.209 52.1589 102.433 58.0499 102.433V100.3Z" fill="#62666A" mask="url(#path-7-inside-3_11_34)"/>
<path d="M84.75 30.958C84.75 29.3012 86.0931 27.958 87.75 27.958H197.75C199.407 27.958 200.75 29.3012 200.75 30.958V30.958C200.75 32.6149 199.407 33.958 197.75 33.958H87.75C86.0931 33.958 84.75 32.6149 84.75 30.958V30.958Z" fill="#D0D0CE"/>
<path d="M84.7823 71.5C84.7823 69.8431 86.1255 68.5 87.7823 68.5H113.782C115.439 68.5 116.782 69.8431 116.782 71.5V71.5C116.782 73.1569 115.439 74.5 113.782 74.5H87.7823C86.1255 74.5 84.7823 73.1569 84.7823 71.5V71.5Z" fill="#0E324F"/>
<path d="M124.75 71.5C124.75 69.8431 126.093 68.5 127.75 68.5H185.75C187.407 68.5 188.75 69.8431 188.75 71.5V71.5C188.75 73.1569 187.407 74.5 185.75 74.5H127.75C126.093 74.5 124.75 73.1569 124.75 71.5V71.5Z" fill="#0E324F"/>
<path d="M85.75 113.1C85.75 111.443 87.0931 110.1 88.75 110.1H124.75C126.407 110.1 127.75 111.443 127.75 113.1V113.1C127.75 114.757 126.407 116.1 124.75 116.1H88.75C87.0931 116.1 85.75 114.757 85.75 113.1V113.1Z" fill="#D0D0CE"/>
<path d="M135.75 113.1C135.75 111.443 137.093 110.1 138.75 110.1H204.75C206.407 110.1 207.75 111.443 207.75 113.1V113.1C207.75 114.757 206.407 116.1 204.75 116.1H138.75C137.093 116.1 135.75 114.757 135.75 113.1V113.1Z" fill="#D0D0CE"/>
</svg>
