<svg xmlns="http://www.w3.org/2000/svg" width="272" height="143" fill="none" viewBox="0 0 272 143"><rect width="272" height="143" fill="#eff6fb" rx="8"/><rect width="228" height="24" x="22" y="94" fill="#fff" stroke="#bec0c1" stroke-width="2" rx="4"/><rect width="228" height="24" x="22" y="36" fill="#fff" stroke="#bec0c1" stroke-width="2" rx="4"/><path fill="#457aa5" d="M23 26a3 3 0 0 1 3-3h85.71a3 3 0 1 1 0 6H26a3 3 0 0 1-3-3"/><path fill="#bec0c1" d="M23 84a3 3 0 0 1 3-3h66a3 3 0 1 1 0 6H26a3 3 0 0 1-3-3m210.5-34.132 4.547-4.547q.321-.32.816-.32.497 0 .816.32.321.321.321.816t-.321.816l-5.363 5.363q-.35.35-.816.35t-.816-.35l-5.363-5.363a1.1 1.1 0 0 1-.321-.816q0-.495.321-.816.32-.32.816-.32t.816.32zm0 58 4.547-4.547q.321-.321.816-.321.497 0 .816.321.321.32.321.816t-.321.816l-5.363 5.363q-.35.35-.816.35t-.816-.35l-5.363-5.363a1.1 1.1 0 0 1-.321-.816q0-.496.321-.816.32-.321.816-.321t.816.321z"/></svg>