<svg xmlns="http://www.w3.org/2000/svg" width="578" height="145" fill="none" viewBox="0 0 578 145"><path fill="#286ad8" d="M505.5 145c40.041 0 72.5-32.459 72.5-72.5S545.541 0 505.5 0 433 32.46 433 72.5s32.459 72.5 72.5 72.5"/><path fill="#286ad8" d="M183.424 0C161.651 0 144 17.853 144 39.875V145h290V0z"/><path fill="#286ad8" d="M39.875 145H145C145 64.919 80.081 0 0 0v105.125C0 127.147 17.853 145 39.875 145"/><g style="mix-blend-mode:multiply"><mask id="a" width="290" height="145" x="144" y="0" maskUnits="userSpaceOnUse" style="mask-type:alpha"><path fill="#286ad8" d="M183.424 0C161.651 0 144 17.853 144 39.875V145h290V0z" style="mix-blend-mode:multiply"/></mask><g mask="url(#a)"><path fill="url(#b)" fill-opacity=".59" d="M240.783 92.831h108.358c1.204 0 2.266.562 2.971 1.425l75.457 75.221c.866.703 1.431 1.76 1.431 2.959v12.259a3.84 3.84 0 0 1-3.848 3.831H255.859a3.83 3.83 0 0 1-2.971-1.424L177.43 111.88c-.865-.702-1.43-1.759-1.43-2.958v-12.26a3.84 3.84 0 0 1 3.848-3.83h3.704l-.047-.057-4.886-6.274c-.592-.417-1.08-1.427-1.08-2.202A2.304 2.304 0 0 1 179.848 82h50.788c.779 0 1.464.387 1.883.975z" opacity=".88" style="mix-blend-mode:multiply"/></g></g><path fill="#5187df" d="M348.908 92.79H179.842c-2.122 0-3.842 1.76-3.842 3.934v12.589c0 2.172 1.72 3.934 3.842 3.934h169.066c2.122 0 3.842-1.762 3.842-3.934v-12.59c0-2.172-1.72-3.933-3.842-3.933M177.5 84.455c0-1.356 1.038-2.455 2.319-2.455h51.006c1.281 0 2.319 1.099 2.319 2.455s-1.038 2.455-2.319 2.455h-51.006c-1.281 0-2.319-1.1-2.319-2.455"/><path fill="#286ad8" d="m342.855 102.357-4.121 4.22a.85.85 0 0 1-.627.275.85.85 0 0 1-.627-.275l-4.122-4.22a.88.88 0 0 1-.247-.642q0-.39.247-.642a.84.84 0 0 1 .627-.252q.381 0 .627.252l3.495 3.578 3.494-3.578a.84.84 0 0 1 .627-.252q.381 0 .627.252a.88.88 0 0 1 .247.642q0 .39-.247.642"/><defs><linearGradient id="b" x1="189.082" x2="361.609" y1="34.982" y2="180.144" gradientUnits="userSpaceOnUse"><stop stop-color="#7aa5e7"/><stop offset="1" stop-color="#003ba1"/></linearGradient></defs></svg>