<svg xmlns="http://www.w3.org/2000/svg" width="272" height="143" fill="none" viewBox="0 0 272 143"><path fill="#eff6fb" d="M0 76h272v59a8 8 0 0 1-8 8H8a8 8 0 0 1-8-8z"/><path fill="#ededed" d="M0 8a8 8 0 0 1 8-8h256a8 8 0 0 1 8 8v24H0z"/><circle cx="221.632" cy="16" r="5.5" fill="#d0d0ce"/><circle cx="244.632" cy="16" r="5.5" fill="#d0d0ce"/><path fill="#d0d0ce" d="m171.232 18.5-55.043-.001c-1.834 0-3.057-1-3.057-2.5s1.223-2.499 3.057-2.499l55.043.001c1.834 0 3.057.998 3.057 2.498s-1.223 2.501-3.057 2.501M184.632 17.04l2.448-2.373a.6.6 0 0 1 .44-.167q.267 0 .439.167a.57.57 0 0 1 .173.426.57.57 0 0 1-.173.426l-2.888 2.798a.6.6 0 0 1-.439.183.61.61 0 0 1-.44-.183l-2.888-2.798a.57.57 0 0 1-.172-.426q0-.258.172-.426a.6.6 0 0 1 .44-.167q.267 0 .439.167z"/><path fill="#f6f6f6" d="M0 34h272v40H0z"/><path fill="#d0d0ce" d="M93.165 50.997H19.872c-1.723 0-2.872-1.2-2.872-3S18.149 45 19.872 45h73.293c1.723 0 2.871 1.197 2.871 2.997s-1.148 3-2.871 3M56 63.997H19.658c-1.595 0-2.658-1.001-2.658-2.501s1.063-2.499 2.657-2.499L56 58.998c1.594 0 2.657.998 2.657 2.499 0 1.5-1.062 2.5-2.657 2.5M157.842 55.262l-42.184.002c-1.595 0-2.658-1-2.658-2.5s1.063-2.499 2.658-2.499l42.184-.002c1.595 0 2.658.998 2.658 2.498s-1.063 2.501-2.658 2.501M211.842 55.262l-42.184.002c-1.595 0-2.658-1-2.658-2.5s1.063-2.499 2.658-2.499l42.184-.002c1.595 0 2.658.998 2.658 2.498s-1.063 2.501-2.658 2.501"/><rect width="114.421" height="22.529" x="6.132" y="4.736" fill="#fff" stroke="#154973" stroke-width="2" rx="3"/><path fill="#457aa5" d="M41.26 13.502q.06.001.122.006.06-.005.122-.006h4.256c1.31 0 2.372 1.12 2.372 2.5s-1.062 2.5-2.372 2.5h-4.256c-.041 0-.082-.006-.122-.008-.04.002-.081.008-.122.008L17.504 18.5c-1.31 0-2.372-1.12-2.372-2.5s1.062-2.5 2.372-2.5zM52.132 16.002c0-1.381 1.062-2.5 2.372-2.5H69.76c1.31 0 2.373 1.119 2.373 2.5 0 1.38-1.062 2.5-2.373 2.5H54.504c-1.31 0-2.372-1.12-2.372-2.5M76.132 16.002c0-1.381 1.062-2.5 2.372-2.5h29.755c1.311 0 2.373 1.119 2.373 2.5 0 1.38-1.062 2.5-2.373 2.5H78.504c-1.31 0-2.372-1.12-2.372-2.5"/></svg>