<svg width="273" height="144" viewBox="0 0 273 144" fill="none" xmlns="http://www.w3.org/2000/svg">
<path d="M0 76H272V136C272 140.418 268.418 144 264 144H8.00001C3.58173 144 0 140.418 0 136V76Z" fill="#EFF6FB"/>
<path d="M0.131775 8C0.131775 3.58172 3.7135 0 8.13177 0H264.132C268.55 0 272.132 3.58172 272.132 8V32H0.131775V8Z" fill="#EDEDED"/>
<circle cx="221.632" cy="16" r="5.5" fill="#D0D0CE"/>
<circle cx="244.632" cy="16" r="5.5" fill="#D0D0CE"/>
<path d="M171.232 18.5L116.189 18.499C114.355 18.499 113.132 17.4987 113.132 15.9982C113.132 14.4976 114.355 13.5 116.189 13.5L171.232 13.501C173.066 13.501 174.289 14.4986 174.289 15.9992C174.289 17.4997 173.066 18.5 171.232 18.5Z" fill="#D0D0CE"/>
<path d="M184.632 17.0399L187.08 14.6673C187.195 14.5558 187.342 14.5 187.52 14.5C187.698 14.5 187.844 14.5558 187.959 14.6673C188.074 14.7788 188.132 14.9208 188.132 15.0932C188.132 15.2655 188.074 15.4075 187.959 15.519L185.071 18.3175C184.946 18.4392 184.799 18.5 184.632 18.5C184.464 18.5 184.318 18.4392 184.192 18.3175L181.304 15.519C181.189 15.4075 181.132 15.2655 181.132 15.0932C181.132 14.9208 181.189 14.7788 181.304 14.6673C181.42 14.5558 181.566 14.5 181.744 14.5C181.922 14.5 182.068 14.5558 182.183 14.6673L184.632 17.0399Z" fill="#D0D0CE"/>
<rect x="0.131775" y="34" width="272" height="40" fill="#F6F6F6"/>
<path d="M93.2966 50.9972H20.0034C18.2804 50.9972 17.1318 49.7972 17.1318 47.997C17.1318 46.1968 18.2804 45 20.0034 45H93.2966C95.0196 45 96.1683 46.1968 96.1683 47.997C96.1683 49.7972 95.0196 50.9972 93.2966 50.9972Z" fill="#D0D0CE"/>
<path d="M56.1318 63.9973L19.7893 63.9963C18.1948 63.9963 17.1318 62.996 17.1318 61.4955C17.1318 59.9949 18.1948 58.9973 19.7893 58.9973L56.1318 58.9983C57.7263 58.9983 58.7893 59.9959 58.7893 61.4965C58.7893 62.997 57.7263 63.9973 56.1318 63.9973Z" fill="#D0D0CE"/>
<path d="M157.974 55.2622L115.789 55.2643C114.195 55.2643 113.132 54.264 113.132 52.7635C113.132 51.2629 114.195 50.2653 115.789 50.2653L157.974 50.2632C159.569 50.2632 160.632 51.2607 160.632 52.7613C160.632 54.2619 159.569 55.2622 157.974 55.2622Z" fill="#D0D0CE"/>
<path d="M211.974 55.2622L169.789 55.2643C168.195 55.2643 167.132 54.264 167.132 52.7635C167.132 51.2629 168.195 50.2653 169.789 50.2653L211.974 50.2632C213.569 50.2632 214.632 51.2607 214.632 52.7613C214.632 54.2619 213.569 55.2622 211.974 55.2622Z" fill="#D0D0CE"/>
<rect x="5.84241" y="4.7356" width="114.421" height="22.529" rx="3" fill="white" stroke="#154973" stroke-width="2"/>
<path d="M32.951 19H17.2327C15.7961 19 14.8385 17.9995 14.8385 16.4987C14.8385 14.9978 15.7962 14 17.2327 14H32.951C34.3875 14 35.3452 14.9978 35.3452 16.4987C35.3452 17.9995 34.3875 19 32.951 19Z" fill="#457AA5"/>
<path d="M45.7912 19H41.2603C39.8238 19 38.8662 17.9995 38.8662 16.4987C38.8662 14.9978 39.8238 14 41.2603 14H45.7912C47.2277 14 48.1853 14.9978 48.1853 16.4987C48.1853 17.9995 47.2277 19 45.7912 19Z" fill="#457AA5"/>
<path d="M70.7563 19H54.1004C52.6639 19 51.7063 17.9995 51.7063 16.4987C51.7063 14.9978 52.6639 14 54.1004 14H70.7563C72.1928 14 73.1504 14.9978 73.1504 16.4987C73.1504 17.9995 72.1928 19 70.7563 19Z" fill="#457AA5"/>
<path d="M109.348 19H79.0657C77.6291 19 76.6715 17.9995 76.6715 16.4987C76.6715 14.9978 77.6292 14 79.0657 14H109.348C110.785 14 111.742 14.9978 111.742 16.4987C111.742 17.9995 110.785 19 109.348 19Z" fill="#457AA5"/>
</svg>
