<svg width="272" height="144" viewBox="0 0 272 144" fill="none" xmlns="http://www.w3.org/2000/svg">
<path d="M0 76.5H272V135.5C272 139.918 268.418 143.5 264 143.5H8.00001C3.58173 143.5 0 139.918 0 135.5V76.5Z" fill="#EFF6FB"/>
<path d="M0 8.5C0 4.08172 3.58172 0.5 8 0.5H264C268.418 0.5 272 4.08172 272 8.5V32.5H0V8.5Z" fill="#EDEDED"/>
<circle cx="221.632" cy="16.5" r="5.5" fill="#D0D0CE"/>
<circle cx="244.632" cy="16.5" r="5.5" fill="#D0D0CE"/>
<path d="M171.232 19L116.189 18.999C114.355 18.999 113.132 17.9987 113.132 16.4982C113.132 14.9976 114.355 14 116.189 14L171.232 14.001C173.066 14.001 174.289 14.9986 174.289 16.4992C174.289 17.9997 173.066 19 171.232 19Z" fill="#D0D0CE"/>
<path d="M184.632 17.5399L187.08 15.1673C187.195 15.0558 187.342 15 187.52 15C187.698 15 187.844 15.0558 187.959 15.1673C188.074 15.2788 188.132 15.4208 188.132 15.5932C188.132 15.7655 188.074 15.9075 187.959 16.019L185.071 18.8175C184.946 18.9392 184.799 19 184.632 19C184.464 19 184.318 18.9392 184.192 18.8175L181.304 16.019C181.189 15.9075 181.132 15.7655 181.132 15.5932C181.132 15.4208 181.189 15.2788 181.304 15.1673C181.42 15.0558 181.566 15 181.744 15C181.922 15 182.068 15.0558 182.183 15.1673L184.632 17.5399Z" fill="#D0D0CE"/>
<rect y="34.5" width="272" height="40" fill="#F6F6F6"/>
<path d="M93.1648 51.4972H19.8717C18.1486 51.4972 17 50.2972 17 48.497C17 46.6968 18.1487 45.5 19.8717 45.5H93.1648C94.8878 45.5 96.0365 46.6968 96.0365 48.497C96.0365 50.2972 94.8878 51.4972 93.1648 51.4972Z" fill="#D0D0CE"/>
<path d="M56 64.4973L19.6575 64.4963C18.063 64.4963 17 63.496 17 61.9955C17 60.4949 18.063 59.4973 19.6575 59.4973L56 59.4983C57.5945 59.4983 58.6575 60.4959 58.6575 61.9965C58.6575 63.497 57.5945 64.4973 56 64.4973Z" fill="#D0D0CE"/>
<path d="M157.842 55.7622L115.658 55.7643C114.063 55.7643 113 54.764 113 53.2635C113 51.7629 114.063 50.7653 115.658 50.7653L157.842 50.7632C159.437 50.7632 160.5 51.7607 160.5 53.2613C160.5 54.7619 159.437 55.7622 157.842 55.7622Z" fill="#D0D0CE"/>
<path d="M211.842 55.7622L169.658 55.7643C168.063 55.7643 167 54.764 167 53.2635C167 51.7629 168.063 50.7653 169.658 50.7653L211.842 50.7632C213.437 50.7632 214.5 51.7607 214.5 53.2613C214.5 54.7619 213.437 55.7622 211.842 55.7622Z" fill="#D0D0CE"/>
<rect x="5.84229" y="5.2356" width="114.421" height="22.529" rx="3" fill="white" stroke="#154973" stroke-width="2"/>
<path d="M32.9509 19.5H17.2325C15.796 19.5 14.8384 18.4995 14.8384 16.9987C14.8384 15.4978 15.796 14.5 17.2325 14.5H32.9509C34.3874 14.5 35.3451 15.4978 35.3451 16.9987C35.3451 18.4995 34.3874 19.5 32.9509 19.5Z" fill="#457AA5"/>
<path d="M45.7913 19.5H41.2604C39.8238 19.5 38.8662 18.4995 38.8662 16.9987C38.8662 15.4978 39.8239 14.5 41.2604 14.5H45.7913C47.2277 14.5 48.1854 15.4978 48.1854 16.9987C48.1854 18.4995 47.2277 19.5 45.7913 19.5Z" fill="#457AA5"/>
<path d="M70.7561 19.5H54.1002C52.6637 19.5 51.7061 18.4995 51.7061 16.9987C51.7061 15.4978 52.6637 14.5 54.1002 14.5H70.7561C72.1926 14.5 73.1502 15.4978 73.1502 16.9987C73.1502 18.4995 72.1926 19.5 70.7561 19.5Z" fill="#457AA5"/>
<path d="M109.348 19.5H79.0655C77.629 19.5 76.6714 18.4995 76.6714 16.9987C76.6714 15.4978 77.629 14.5 79.0655 14.5H109.348C110.785 14.5 111.742 15.4978 111.742 16.9987C111.742 18.4995 110.785 19.5 109.348 19.5Z" fill="#457AA5"/>
</svg>
