<svg xmlns="http://www.w3.org/2000/svg" width="578" height="146" fill="none" viewBox="0 0 578 146"><path fill="#286ad8" d="M183.424 145.105c-21.773 0-39.424-17.852-39.424-39.875V.105h290v145z"/><path fill="#286ad8" d="M182.893 145.292c-21.773 0-39.424-17.852-39.424-39.875V.292h290v145z"/><path fill="#286ad8" d="M145 39.98v105.125c-80.081 0-145-64.919-145-145h105.125C127.147.105 145 17.958 145 39.98M505.5 145c40.041 0 72.5-32.459 72.5-72.5S545.541 0 505.5 0 433 32.46 433 72.5s32.459 72.5 72.5 72.5"/><path fill="#1545bb" d="M314.233 98.105c1.033 0 1.943.522 2.483 1.315l45.835 45.872H225.23l-22.954-23.084a3 3 0 0 1-1.464-2.574v-18.529a3 3 0 0 1 3-3z" opacity=".4" style="mix-blend-mode:multiply"/><rect width="116.421" height="24.529" x="200.812" y="98.105" fill="#5187df" rx="3"/><path fill="#1545bb" d="M237.128 108q.062.001.122.006.06-.005.122-.006h4.256c1.31.001 2.372 1.12 2.372 2.5 0 1.381-1.062 2.5-2.372 2.5h-4.256q-.061-.002-.122-.007c-.041.002-.081.007-.122.007l-23.756-.001c-1.31-.001-2.372-1.12-2.372-2.5 0-1.381 1.062-2.5 2.372-2.5zM248 110.5c0-1.381 1.062-2.5 2.373-2.5h15.254c1.311 0 2.373 1.119 2.373 2.5s-1.062 2.5-2.373 2.5h-15.254c-1.311 0-2.373-1.119-2.373-2.5m24 0c0-1.381 1.062-2.5 2.373-2.5h29.754c1.311 0 2.373 1.119 2.373 2.5s-1.062 2.5-2.373 2.5h-29.754c-1.311 0-2.373-1.119-2.373-2.5"/></svg>