<svg width="578" height="146" viewBox="0 0 578 146" fill="none" xmlns="http://www.w3.org/2000/svg">
<path d="M471.938 145.926H577.062C577.062 65.8445 512.144 0.925781 432.062 0.925781V106.051C432.062 128.073 449.915 145.926 471.938 145.926Z" fill="#286AD8"/>
<path d="M361.335 0.925781C401.467 0.925781 434 33.3851 434 73.4258C434 113.466 401.467 145.926 361.335 145.926H183.424C161.651 145.926 144 128.073 144 106.051V0.925781H361.335Z" fill="#286AD8"/>
<path d="M72.5 145.926C112.541 145.926 145 113.466 145 73.4258C145 33.3851 112.541 0.925781 72.5 0.925781C32.4593 0.925781 0 33.3851 0 73.4258C0 113.466 32.4593 145.926 72.5 145.926Z" fill="#286AD8"/>
<g style="mix-blend-mode:multiply" opacity="0.45">
<mask id="mask0_1392_6191" style="mask-type:alpha" maskUnits="userSpaceOnUse" x="144" y="0" width="290" height="146">
<path d="M361.335 0.925781C401.467 0.925781 434 33.3851 434 73.4258C434 113.466 401.467 145.926 361.335 145.926H183.424C161.651 145.926 144 128.073 144 106.051V0.925781H361.335Z" fill="#286AD8"/>
</mask>
<g mask="url(#mask0_1392_6191)">
<path d="M392 151.253L284.723 45.6691C284.288 45.1036 283.612 44.733 282.844 44.733H220.192C218.879 44.733 217.816 45.7968 217.816 47.1092C217.816 47.8773 218.186 48.553 218.752 48.9874L214.12 49.0109L204.125 38.7291C202.211 36.6996 199.505 35.4258 196.495 35.4258C190.699 35.4258 186 40.1246 186 45.9208C186 48.9304 187.274 51.6366 189.303 53.5503L195.812 60.0642V65.7817L198.196 68.4471C197.641 68.3564 197.076 68.297 196.495 68.297C190.699 68.297 186 72.9959 186 78.7921C186 81.8016 187.274 84.5079 189.303 86.4216L195.812 92.9354V98.6529L198.181 101.296C197.673 101.22 197.156 101.168 196.627 101.168C196.605 101.168 196.583 101.171 196.561 101.172C196.539 101.171 196.517 101.168 196.495 101.168C190.699 101.168 186 105.867 186 111.663C186 114.653 187.259 117.34 189.266 119.249L221.33 151.313H391.718L392 151.253Z" fill="#1E4FA2"/>
</g>
</g>
<path d="M206.99 45.9208C206.99 51.717 202.291 56.4158 196.495 56.4158C190.699 56.4158 186 51.717 186 45.9208C186 40.1246 190.699 35.4258 196.495 35.4258C202.291 35.4258 206.99 40.1246 206.99 45.9208Z" fill="#5187DF"/>
<path d="M206.99 78.7939C206.99 84.5901 202.291 89.2888 196.495 89.2888C190.699 89.2888 186 84.5901 186 78.7939C186 72.9976 190.699 68.2988 196.495 68.2988C202.291 68.2988 206.99 72.9976 206.99 78.7939Z" fill="#5187DF"/>
<path d="M206.99 111.663C206.99 117.459 202.291 122.158 196.495 122.158C190.699 122.158 186 117.459 186 111.663C186 105.867 190.699 101.168 196.495 101.168C202.291 101.168 206.99 105.867 206.99 111.663Z" fill="#5187DF"/>
<path d="M213.158 47.1106C213.158 45.7982 214.222 44.7344 215.534 44.7344H282.86C284.173 44.7344 285.237 45.7982 285.237 47.1106C285.237 48.4229 284.173 49.4868 282.86 49.4868H215.534C214.222 49.4868 213.158 48.4229 213.158 47.1106Z" fill="#5187DF"/>
<path d="M213.158 111.663C213.158 110.351 214.222 109.287 215.534 109.287H293.158C294.47 109.287 295.534 110.351 295.534 111.663C295.534 112.976 294.47 114.04 293.158 114.04H215.534C214.222 114.04 213.158 112.976 213.158 111.663Z" fill="#5187DF"/>
<path d="M213.158 79.388C213.158 78.0756 214.222 77.0117 215.534 77.0117H309.335C310.647 77.0117 311.712 78.0756 311.712 79.388C311.712 80.7003 310.647 81.7642 309.335 81.7642H215.534C214.222 81.7642 213.158 80.7003 213.158 79.388Z" fill="#5187DF"/>
<path d="M197.178 65.7823C197.178 66.1594 196.871 66.4661 196.494 66.4661C196.117 66.4659 195.812 66.1593 195.812 65.7823V58.9305C195.812 58.5536 196.118 58.2483 196.494 58.248C196.871 58.248 197.178 58.5535 197.178 58.9305V65.7823Z" fill="#5187DF"/>
<path d="M197.178 98.6534C197.178 99.0305 196.871 99.3372 196.494 99.3372C196.117 99.337 195.812 99.0304 195.812 98.6534V91.8015C195.812 91.4247 196.118 91.1194 196.494 91.1191C196.871 91.1191 197.178 91.4246 197.178 91.8015V98.6534Z" fill="#5187DF"/>
</svg>
