<svg width="570" height="146" viewBox="0 0 570 146" fill="none" xmlns="http://www.w3.org/2000/svg">
<path d="M463.938 145.269H569.062C569.062 65.1873 504.144 0.268555 424.062 0.268555V105.394C424.062 127.416 441.915 145.269 463.938 145.269Z" fill="#286AD8"/>
<path d="M289.938 145.269V0.268402L362.273 0.268402C402.404 0.268402 434.938 32.7278 434.938 72.7685C434.938 112.809 402.404 145.269 362.273 145.269L289.938 145.269Z" fill="#286AD8"/>
<path d="M184.362 145.269C162.588 145.269 144.938 127.416 144.938 105.393V0.268555H289.938V145.269H184.362Z" fill="#286AD8"/>
<path d="M73.4375 145.269C113.478 145.269 145.938 112.809 145.938 72.7685C145.938 32.7279 113.478 0.268555 73.4375 0.268555C33.3968 0.268555 0.9375 32.7279 0.9375 72.7685C0.9375 112.809 33.3968 145.269 73.4375 145.269Z" fill="#286AD8"/>
<mask id="mask0_1187_321" style="mask-type:alpha" maskUnits="userSpaceOnUse" x="144" y="0" width="291" height="146">
<path d="M362.272 0.268555C402.404 0.268555 434.938 32.7279 434.938 72.7686C434.937 112.809 402.404 145.269 362.272 145.269H184.361C162.588 145.268 144.938 127.416 144.938 105.394V0.268555H362.272Z" fill="#286AD8"/>
</mask>
<g mask="url(#mask0_1187_321)">
<g style="mix-blend-mode:multiply">
<g style="mix-blend-mode:multiply" opacity="0.6">
<path d="M418.169 154.971L295.623 34.3595C295.127 33.7134 294.355 33.2901 293.477 33.2901H221.907C220.408 33.2901 219.193 34.5053 219.193 36.0045C219.193 36.8819 219.616 37.6538 220.262 38.15L214.971 38.1768L203.553 26.4316C201.367 24.1133 198.276 22.6582 194.838 22.6582C188.217 22.6582 182.849 28.0258 182.849 34.647C182.849 38.0849 184.304 41.1763 186.623 43.3624L194.058 50.8033V57.3347L196.781 60.3794C196.147 60.2758 195.501 60.208 194.838 60.208C188.217 60.208 182.849 65.5756 182.849 72.1968C182.849 75.6347 184.304 78.7261 186.623 80.9122L194.058 88.3531V94.8844L196.764 97.9035C196.183 97.8171 195.594 97.7578 194.989 97.7578C194.963 97.7578 194.939 97.7614 194.913 97.7616C194.888 97.7614 194.863 97.7578 194.838 97.7578C188.217 97.7578 182.849 103.125 182.849 109.747C182.849 113.162 184.287 116.232 186.58 118.412L223.207 155.04H417.847L418.169 154.971Z" fill="url(#paint0_linear_1187_321)"/>
</g>
</g>
</g>
<path d="M206.827 34.647C206.827 41.2682 201.459 46.6357 194.838 46.6357C188.217 46.6357 182.849 41.2682 182.849 34.647C182.849 28.0257 188.217 22.6582 194.838 22.6582C201.459 22.6582 206.827 28.0257 206.827 34.647Z" fill="#5187DF"/>
<path d="M206.827 72.1968C206.827 78.818 201.459 84.1855 194.838 84.1855C188.217 84.1855 182.849 78.818 182.849 72.1968C182.849 65.5756 188.217 60.208 194.838 60.208C201.459 60.208 206.827 65.5756 206.827 72.1968Z" fill="#5187DF"/>
<path d="M206.827 109.747C206.827 116.368 201.459 121.735 194.838 121.735C188.217 121.735 182.849 116.368 182.849 109.747C182.849 103.125 188.217 97.7578 194.838 97.7578C201.459 97.7578 206.827 103.125 206.827 109.747Z" fill="#5187DF"/>
<path d="M213.872 36.0044C213.872 34.5052 215.088 33.29 216.587 33.29H293.496C294.995 33.29 296.211 34.5052 296.211 36.0044C296.211 37.5035 294.995 38.7188 293.496 38.7188H216.587C215.088 38.7188 213.872 37.5035 213.872 36.0044Z" fill="#5187DF"/>
<path d="M213.872 109.747C213.872 108.248 215.088 107.032 216.587 107.032H305.259C306.758 107.032 307.973 108.248 307.973 109.747C307.973 111.246 306.758 112.461 305.259 112.461H216.587C215.088 112.461 213.872 111.246 213.872 109.747Z" fill="#5187DF"/>
<path d="M213.872 72.8756C213.872 71.3764 215.088 70.1611 216.587 70.1611H323.738C325.237 70.1611 326.453 71.3764 326.453 72.8756C326.453 74.3747 325.237 75.59 323.738 75.59H216.587C215.088 75.59 213.872 74.3747 213.872 72.8756Z" fill="#5187DF"/>
<path d="M195.618 57.3342C195.618 57.765 195.268 58.1152 194.837 58.1152C194.407 58.1151 194.058 57.7648 194.058 57.3342V49.5071C194.058 49.0766 194.407 48.7279 194.837 48.7275C195.268 48.7275 195.618 49.0764 195.618 49.5071V57.3342Z" fill="#5187DF"/>
<path d="M195.618 94.884C195.618 95.3148 195.268 95.665 194.837 95.665C194.407 95.6649 194.058 95.3146 194.058 94.884V87.0569C194.058 86.6264 194.407 86.2777 194.837 86.2773C195.268 86.2773 195.618 86.6263 195.618 87.0569V94.884Z" fill="#5187DF"/>
<defs>
<linearGradient id="paint0_linear_1187_321" x1="203.686" y1="22.6582" x2="396.686" y2="195.658" gradientUnits="userSpaceOnUse">
<stop stop-color="#7AA5E7"/>
<stop offset="1" stop-color="#003BA1"/>
</linearGradient>
</defs>
</svg>
