<svg xmlns="http://www.w3.org/2000/svg" width="272" height="143" fill="none" viewBox="0 0 272 143"><rect width="272" height="143" fill="#ededed" rx="8"/><circle cx="66.75" cy="30" r="13.25" fill="#000"/><circle cx="66.75" cy="71.5" r="13.25" fill="#154973"/><circle cx="66.75" cy="113" r="12.25" fill="#fff" stroke="#a7a9ab" stroke-width="2"/><path fill="#fff" d="M68.76 36h-2.556v-8.712l-1.998 2.034-1.458-1.53 3.78-3.798h2.232zM71.236 77.75h-9.037v-2.016c4.915-3.636 6.355-4.86 6.355-6.336 0-1.062-.954-1.566-1.945-1.566-1.367 0-2.411.54-3.221 1.386l-1.459-1.692c1.17-1.35 2.953-1.962 4.626-1.962 2.574 0 4.59 1.44 4.59 3.834 0 2.052-1.691 3.834-4.805 6.102h4.895z"/><path fill="#1b1b1b" d="M66.562 119.466c-2.196 0-3.852-.846-4.734-1.926l1.35-1.71c.81.864 2.124 1.368 3.294 1.368 1.458 0 2.268-.63 2.268-1.53 0-.954-.738-1.386-2.412-1.386a28 28 0 0 0-1.494.036v-2.304c.216.018 1.044.018 1.494.018 1.332 0 2.232-.396 2.232-1.278 0-.954-.99-1.422-2.232-1.422-1.17 0-2.214.432-3.06 1.242l-1.278-1.602c.972-1.098 2.484-1.908 4.59-1.908 2.808 0 4.536 1.26 4.536 3.258 0 1.512-1.296 2.502-2.628 2.736 1.224.126 2.808 1.08 2.808 2.88 0 2.07-1.854 3.528-4.734 3.528"/><path fill="#457aa5" d="M93.5 31.5a3 3 0 0 1 3-3h85a3 3 0 1 1 0 6h-85a3 3 0 0 1-3-3"/><path fill="#a7a9ab" d="M93.5 113a3 3 0 0 1 3-3h98a3 3 0 1 1 0 6h-98a3 3 0 0 1-3-3"/><path fill="#154973" d="M93.5 72.25a3 3 0 0 1 3-3h128a3 3 0 1 1 0 6h-128a3 3 0 0 1-3-3"/><path stroke="#62666a" stroke-linecap="round" d="M67.25 46.063v9.375M67.25 87.563v9.375"/></svg>