<svg xmlns="http://www.w3.org/2000/svg" width="578" height="145" fill="none" viewBox="0 0 578 145"><path fill="#286ad8" d="M471.938 145h105.124c0-80.081-64.918-145-145-145v105.125c0 22.022 17.853 39.875 39.876 39.875"/><path fill="#286ad8" d="M361.335 0C401.467 0 434 32.46 434 72.5S401.467 145 361.335 145H183.424C161.651 145 144 127.147 144 105.125V0z"/><path fill="#286ad8" d="M72.5 145c40.041 0 72.5-32.459 72.5-72.5S112.541 0 72.5 0 0 32.46 0 72.5 32.46 145 72.5 145"/><path fill="#1545bb" d="M205.194 34.849a10.22 10.22 0 0 1 7.458 3.23l9.771 10.05 4.528-.023a2.31 2.31 0 0 1-.915-1.837 2.32 2.32 0 0 1 2.322-2.322h61.246a2.31 2.31 0 0 1 1.837.915l96.605 95.081c-8.269 3.263-17.28 5.057-26.711 5.057H226.337l-28.21-28.21a10.2 10.2 0 0 1-3.192-7.415c0-5.666 4.593-10.26 10.259-10.26q.032.001.065.003l.064-.003c.518 0 1.022.051 1.519.125l-2.316-2.584v-5.589l-6.362-6.368a10.22 10.22 0 0 1-3.229-7.458c0-5.666 4.593-10.259 10.259-10.259.568 0 1.12.058 1.662.147l-2.33-2.606v-5.59l-6.362-6.367a10.22 10.22 0 0 1-3.229-7.458c0-5.666 4.593-10.26 10.259-10.26" opacity=".4" style="mix-blend-mode:multiply"/><path fill="#5187df" d="M215.453 45.108c0 5.666-4.593 10.26-10.259 10.26s-10.259-4.594-10.259-10.26 4.593-10.26 10.259-10.26 10.259 4.594 10.259 10.26M215.453 77.24c0 5.667-4.593 10.26-10.259 10.26s-10.259-4.593-10.259-10.26c0-5.665 4.593-10.259 10.259-10.259s10.259 4.594 10.259 10.26M215.453 109.375c0 5.666-4.593 10.259-10.259 10.259s-10.259-4.593-10.259-10.259 4.593-10.26 10.259-10.26 10.259 4.594 10.259 10.26M221.482 46.27a2.323 2.323 0 0 1 2.323-2.324h65.815a2.323 2.323 0 1 1 0 4.646h-65.815a2.323 2.323 0 0 1-2.323-2.323M221.482 109.375a2.323 2.323 0 0 1 2.323-2.323h75.881a2.323 2.323 0 1 1 0 4.646h-75.881a2.323 2.323 0 0 1-2.323-2.323M221.482 77.822a2.323 2.323 0 0 1 2.323-2.323H315.5a2.324 2.324 0 1 1 0 4.646h-91.695a2.323 2.323 0 0 1-2.323-2.323"/><rect width="2" height="7.5" x="204.194" y="89.558" fill="#5187df" rx="1"/><rect width="2" height="7.5" x="204.194" y="57.424" fill="#5187df" rx="1"/></svg>