<svg width="578" height="145" viewBox="0 0 578 145" fill="none" xmlns="http://www.w3.org/2000/svg">
<path d="M471.938 145H577.062C577.062 64.9187 512.144 0 432.062 0V105.125C432.062 127.147 449.915 145 471.938 145Z" fill="#286AD8"/>
<path d="M361.335 0C401.467 0 434 32.4593 434 72.5C434 112.541 401.467 145 361.335 145H183.424C161.651 145 144 127.147 144 105.125V0H361.335Z" fill="#286AD8"/>
<path d="M72.5 145C112.541 145 145 112.541 145 72.5C145 32.4594 112.541 0 72.5 0C32.4593 0 0 32.4594 0 72.5C0 112.541 32.4593 145 72.5 145Z" fill="#286AD8"/>
<mask id="mask0_1329_10612" style="mask-type:alpha" maskUnits="userSpaceOnUse" x="144" y="0" width="290" height="145">
<path d="M361.335 0C401.467 0 434 32.4593 434 72.5C434 112.541 401.467 145 361.335 145H183.424C161.651 145 144 127.147 144 105.125V0H361.335Z" fill="#286AD8"/>
</mask>
<g mask="url(#mask0_1329_10612)">
<g style="mix-blend-mode:multiply" opacity="0.25">
<path d="M417.32 155.313L294.774 34.7013C294.278 34.0552 293.505 33.6319 292.628 33.6319H221.058C219.559 33.6319 218.344 34.8471 218.344 36.3463C218.344 37.2237 218.767 37.9956 219.413 38.4918L214.122 38.5186L202.704 26.7734C200.518 24.4551 197.427 23 193.989 23C187.368 23 182 28.3676 182 34.9888C182 38.4267 183.455 41.5181 185.773 43.7042L193.208 51.1451V57.6765L195.932 60.7212C195.298 60.6176 194.652 60.5498 193.989 60.5498C187.368 60.5498 182 65.9174 182 72.5386C182 75.9765 183.455 79.0679 185.773 81.254L193.208 88.6949V95.2262L195.915 98.2453C195.334 98.1589 194.744 98.0996 194.14 98.0996C194.114 98.0996 194.09 98.1032 194.064 98.1034C194.039 98.1032 194.014 98.0996 193.989 98.0996C187.368 98.0996 182 103.467 182 110.088C182 113.504 183.438 116.573 185.731 118.754L222.358 155.382H416.998L417.32 155.313Z" fill="black"/>
</g>
</g>
<path d="M205.978 34.9888C205.978 41.61 200.61 46.9775 193.989 46.9775C187.368 46.9775 182 41.61 182 34.9888C182 28.3675 187.368 23 193.989 23C200.61 23 205.978 28.3675 205.978 34.9888Z" fill="#5187DF"/>
<path d="M205.978 72.5386C205.978 79.1598 200.61 84.5273 193.989 84.5273C187.368 84.5273 182 79.1598 182 72.5386C182 65.9174 187.368 60.5498 193.989 60.5498C200.61 60.5498 205.978 65.9174 205.978 72.5386Z" fill="#5187DF"/>
<path d="M205.978 110.088C205.978 116.71 200.61 122.077 193.989 122.077C187.368 122.077 182 116.71 182 110.088C182 103.467 187.368 98.0996 193.989 98.0996C200.61 98.0996 205.978 103.467 205.978 110.088Z" fill="#5187DF"/>
<path d="M213.023 36.3462C213.023 34.847 214.239 33.6318 215.738 33.6318H292.646C294.145 33.6318 295.361 34.847 295.361 36.3462C295.361 37.8453 294.145 39.0606 292.646 39.0606H215.738C214.239 39.0606 213.023 37.8453 213.023 36.3462Z" fill="#5187DF"/>
<path d="M213.023 110.089C213.023 108.589 214.239 107.374 215.738 107.374H304.409C305.908 107.374 307.123 108.589 307.123 110.089C307.123 111.588 305.908 112.803 304.409 112.803H215.738C214.239 112.803 213.023 111.588 213.023 110.089Z" fill="#5187DF"/>
<path d="M213.023 73.2174C213.023 71.7182 214.239 70.5029 215.738 70.5029H322.889C324.388 70.5029 325.604 71.7182 325.604 73.2174C325.604 74.7165 324.388 75.9318 322.889 75.9318H215.738C214.239 75.9318 213.023 74.7165 213.023 73.2174Z" fill="#5187DF"/>
<path d="M194.769 57.676C194.769 58.1068 194.419 58.457 193.988 58.457C193.557 58.4569 193.208 58.1066 193.208 57.676V49.8489C193.209 49.4184 193.558 49.0697 193.988 49.0693C194.419 49.0693 194.769 49.4182 194.769 49.8489V57.676Z" fill="#5187DF"/>
<path d="M194.769 95.2258C194.769 95.6566 194.419 96.0068 193.988 96.0068C193.557 96.0067 193.208 95.6564 193.208 95.2258V87.3987C193.209 86.9682 193.558 86.6195 193.988 86.6191C194.419 86.6191 194.769 86.9681 194.769 87.3987V95.2258Z" fill="#5187DF"/>
</svg>
