<svg xmlns="http://www.w3.org/2000/svg" width="584" height="145" fill="none" viewBox="0 0 584 145"><path fill="#286ad8" d="M145 0H39.424C17.65 0 0 17.853 0 39.875V145h145zM439 105.125V0c-80.081 0-145 64.919-145 145h105.125C421.148 145 439 127.147 439 105.125"/><path fill="#286ad8" d="M254.879 0c21.773 0 39.424 17.852 39.424 39.875V145H145V0zM538.344 74.25c18.018 0 32.625-14.607 32.625-32.626S556.362 9 538.344 9s-32.625 14.606-32.625 32.624 14.606 32.625 32.625 32.625M584 145H439V0z"/><path fill="#417bdc" d="M36 72.15A5.15 5.15 0 0 1 41.15 67h63.01a5.15 5.15 0 0 1 5.15 5.15v44.775H36z"/><path fill="#1545bb" d="M36 116.925h73.31v4.225H36z"/><path fill="#417bdc" d="M109.311 116.925h143.764v4.225H109.311z"/><path fill="#1545bb" d="M49.661 92.606a3.5 3.5 0 0 1 3.5-3.5H93.91a3.5 3.5 0 1 1 0 7H53.162a3.5 3.5 0 0 1-3.5-3.5"/><path fill="#5287df" d="M129.562 92.606c0-1.933 1.568-3.5 3.501-3.5h40.748a3.5 3.5 0 1 1 0 7h-40.748a3.5 3.5 0 0 1-3.501-3.5"/><path fill="#5287df" fill-opacity=".6" d="M201.445 92.606a3.5 3.5 0 0 1 3.501-3.5h40.748a3.501 3.501 0 1 1 0 7h-40.748a3.5 3.5 0 0 1-3.501-3.5"/></svg>