<svg width="584" height="145" viewBox="0 0 584 145" fill="none" xmlns="http://www.w3.org/2000/svg">
<path d="M145 0H39.4238C17.6506 0.000212688 0 17.8525 0 39.875V145H145V0Z" fill="#286AD8"/>
<path d="M439 105.125V0C358.919 0 294 64.9187 294 145H399.125C421.148 145 439 127.147 439 105.125Z" fill="#286AD8"/>
<path d="M254.879 -7.62939e-05C276.652 -7.62939e-05 294.303 17.8524 294.303 39.875V145L145 145L145 0L254.879 -7.62939e-05Z" fill="#286AD8"/>
<path d="M538.344 74.2495C556.362 74.2495 570.969 59.6428 570.969 41.6245C570.969 23.6062 556.362 8.99951 538.344 8.99951C520.325 8.99951 505.719 23.6062 505.719 41.6245C505.719 59.6428 520.325 74.2495 538.344 74.2495Z" fill="#286AD8"/>
<path d="M584 145H439V0L584 145Z" fill="#286AD8"/>
<path d="M36 72.1502C36 69.3058 38.3058 67 41.1502 67H104.16C107.005 67 109.31 69.3058 109.31 72.1502V116.925H36V72.1502Z" fill="#417BDC"/>
<path d="M36 116.925H109.31V121.15H36V116.925Z" fill="#1545BB"/>
<path d="M109.311 116.925H253.075V121.15H109.311V116.925Z" fill="#417BDC"/>
<path d="M49.6611 92.6063C49.6611 90.6731 51.2283 89.106 53.1615 89.106H93.91C95.8432 89.106 97.4104 90.6731 97.4104 92.6063C97.4104 94.5395 95.8432 96.1067 93.91 96.1067H53.1615C51.2283 96.1067 49.6611 94.5395 49.6611 92.6063Z" fill="#1545BB"/>
<path d="M129.562 92.6063C129.562 90.6731 131.13 89.106 133.063 89.106H173.811C175.745 89.106 177.312 90.6731 177.312 92.6063C177.312 94.5395 175.745 96.1067 173.811 96.1067H133.063C131.13 96.1067 129.562 94.5395 129.562 92.6063Z" fill="#5287DF"/>
<path d="M201.445 92.6063C201.445 90.6731 203.012 89.106 204.946 89.106H245.694C247.627 89.106 249.195 90.6731 249.195 92.6063C249.195 94.5395 247.627 96.1067 245.694 96.1067H204.946C203.012 96.1067 201.445 94.5395 201.445 92.6063Z" fill="#5287DF" fill-opacity="0.6"/>
</svg>
