<svg width="272" height="143" viewBox="0 0 272 143" fill="none" xmlns="http://www.w3.org/2000/svg">
<rect width="272" height="143" rx="8" fill="#EFF6FB"/>
<path d="M27.4629 28.4754C27.4629 25.631 29.7687 23.3252 32.6131 23.3252H95.6232C98.4676 23.3252 100.773 25.631 100.773 28.4754V73.2501H27.4629V28.4754Z" fill="white"/>
<path d="M27.4629 73.25H100.773V77.4756H27.4629V73.25Z" fill="#154973"/>
<path d="M100.773 73.25H244.538V77.4756H100.773V73.25Z" fill="#BEC0C1"/>
<path d="M41.124 48.9315C41.124 46.9983 42.6912 45.4312 44.6244 45.4312H85.3729C87.3061 45.4312 88.8733 46.9983 88.8733 48.9315C88.8733 50.8647 87.3061 52.4319 85.3729 52.4319H44.6244C42.6912 52.4319 41.124 50.8647 41.124 48.9315Z" fill="#154973"/>
<path d="M121.025 48.9315C121.025 46.9983 122.593 45.4312 124.526 45.4312H165.274C167.207 45.4312 168.775 46.9983 168.775 48.9315C168.775 50.8647 167.207 52.4319 165.274 52.4319H124.526C122.593 52.4319 121.025 50.8647 121.025 48.9315Z" fill="#457AA5"/>
<path d="M192.908 48.9315C192.908 46.9983 194.475 45.4312 196.409 45.4312H237.157C239.09 45.4312 240.657 46.9983 240.657 48.9315C240.657 50.8647 239.09 52.4319 237.157 52.4319H196.409C194.475 52.4319 192.908 50.8647 192.908 48.9315Z" fill="#D0D0CE"/>
<path d="M41.123 101.294C41.123 99.6371 42.4662 98.2939 44.123 98.2939H118.025C119.682 98.2939 121.025 99.6371 121.025 101.294C121.025 102.951 119.682 104.294 118.025 104.294H44.123C42.4662 104.294 41.123 102.951 41.123 101.294Z" fill="#D0D0CE"/>
<path d="M41 116.825C41 115.444 42.1193 114.325 43.5 114.325H211.5C212.881 114.325 214 115.444 214 116.825C214 118.206 212.881 119.325 211.5 119.325H43.5C42.1193 119.325 41 118.206 41 116.825Z" fill="#D0D0CE"/>
</svg>
