<svg xmlns="http://www.w3.org/2000/svg" width="272" height="143" fill="none" viewBox="0 0 272 143"><rect width="272" height="143" fill="#eff6fb" rx="8"/><path fill="#fff" d="M27.463 28.475a5.15 5.15 0 0 1 5.15-5.15h63.01a5.15 5.15 0 0 1 5.15 5.15V73.25h-73.31z"/><path fill="#154973" d="M27.463 73.25h73.31v4.226h-73.31z"/><path fill="#bec0c1" d="M100.773 73.25h143.765v4.226H100.773z"/><path fill="#154973" d="M41.124 48.932a3.5 3.5 0 0 1 3.5-3.5h40.749a3.5 3.5 0 1 1 0 7H44.624a3.5 3.5 0 0 1-3.5-3.5"/><path fill="#457aa5" d="M121.025 48.932a3.5 3.5 0 0 1 3.501-3.5h40.748a3.501 3.501 0 1 1 0 7h-40.748a3.5 3.5 0 0 1-3.501-3.5"/><path fill="#d0d0ce" d="M192.908 48.932a3.5 3.5 0 0 1 3.501-3.5h40.748a3.5 3.5 0 0 1 0 7h-40.748a3.5 3.5 0 0 1-3.501-3.5M41.123 101.294a3 3 0 0 1 3-3h73.902a3 3 0 1 1 0 6H44.123a3 3 0 0 1-3-3M41 116.825a2.5 2.5 0 0 1 2.5-2.5h168a2.5 2.5 0 1 1 0 5h-168a2.5 2.5 0 0 1-2.5-2.5"/></svg>