<svg xmlns="http://www.w3.org/2000/svg" width="272" height="143" fill="none" viewBox="0 0 272 143"><rect width="272" height="143" fill="#ededed" rx="8"/><rect width="232" height="108" x="20" y="17.5" fill="#fff" rx="6.544"/><path stroke="#d0d0ce" d="M100.917 41.5V115M171.083 41.5V115"/><path fill="#a7a9ab" d="M41.065 31.749a3 3 0 0 1 3-3H130.5a3 3 0 1 1 0 6H44.065a3 3 0 0 1-3-3"/><path fill="#467aa5" d="M41.065 54.72a2.454 2.454 0 0 1 2.455-2.453h44.026a2.454 2.454 0 0 1 0 4.908H43.52a2.454 2.454 0 0 1-2.455-2.454"/><path fill="#d0d0ce" d="M41.065 78.5a2.454 2.454 0 0 1 2.455-2.454h24.59a2.454 2.454 0 0 1 0 4.908H43.52a2.454 2.454 0 0 1-2.455-2.454M41.065 102.779a2.454 2.454 0 0 1 2.455-2.454h35.603a2.454 2.454 0 0 1 0 4.908H43.52a2.454 2.454 0 0 1-2.455-2.454"/><path fill="#467aa5" d="M180.732 54.72a2.455 2.455 0 0 1 2.455-2.453h38.026a2.454 2.454 0 0 1 0 4.908h-38.026a2.454 2.454 0 0 1-2.455-2.454"/><path fill="#d0d0ce" d="M180.732 78.5a2.454 2.454 0 0 1 2.455-2.454h44.589a2.454 2.454 0 1 1 0 4.908h-44.589a2.455 2.455 0 0 1-2.455-2.454M180.732 102.779a2.455 2.455 0 0 1 2.455-2.454h35.603a2.454 2.454 0 1 1 0 4.908h-35.603a2.454 2.454 0 0 1-2.455-2.454"/><path fill="#467aa5" d="M110.565 54.72a2.455 2.455 0 0 1 2.455-2.453h31.974a2.454 2.454 0 1 1 0 4.908H113.02a2.454 2.454 0 0 1-2.455-2.454"/><rect width="209.5" height="73" x="31.25" y="42" stroke="#d0d0ce" rx="2.5"/><path fill="#d0d0ce" d="M110.565 78.5a2.454 2.454 0 0 1 2.455-2.454h38.276a2.454 2.454 0 0 1 0 4.908H113.02a2.455 2.455 0 0 1-2.455-2.454M110.565 102.779a2.455 2.455 0 0 1 2.455-2.454h26.303a2.454 2.454 0 0 1 0 4.908H113.02a2.454 2.454 0 0 1-2.455-2.454"/><path stroke="#d0d0ce" d="M30.75 66h210.5M30.75 90.5h210.5"/></svg>