<svg xmlns="http://www.w3.org/2000/svg" width="580" height="145" fill="none" viewBox="0 0 580 145"><path fill="#286ad8" d="M145 145V39.875C145 17.853 162.651 0 184.424 0h211.152C417.349 0 435 17.853 435 39.875V145z"/><path fill="#286ad8" d="M434.5 145c91 0 145-54.5 145-145-92.5 0-145 52-145 145"/><path fill="#1545bb" d="M426.145 145H189.664l-16.446-16.444h173.324c1.657 0 2.895-1.343 2.895-3V68.882z" opacity=".4" style="mix-blend-mode:multiply"/><path fill="#5187df" d="M171.579 69.326a3 3 0 0 1 3-3h171.853a3 3 0 0 1 3 3v56.523a3 3 0 0 1-3 3H174.579a3 3 0 0 1-3-3z"/><path fill="#286ad8" d="M145 0C64.98 0 .11 64.906.11 144.972L0 145h145z"/><path fill="#286ad8" d="M180.294 58.087c0-1.4 1.135-2.534 2.535-2.534h72.606a2.535 2.535 0 1 1 0 5.07h-72.606a2.535 2.535 0 0 1-2.535-2.536" opacity=".4" style="mix-blend-mode:multiply"/><path stroke="#1d56cd" stroke-width="1.5" d="M230.863 66.326v62.101M290.146 66.326v62.101"/><rect width="176.353" height="61.023" x="172.329" y="67.076" stroke="#1d56cd" stroke-width="1.5" rx="2.25"/><path stroke="#1d56cd" stroke-width="1.5" d="M171.579 87.026h177.853M171.579 107.727h177.853"/><path fill="#194bc1" d="M298.3 118.102c0-1.145.928-2.074 2.073-2.074h30.082a2.075 2.075 0 0 1 0 4.147h-30.082a2.073 2.073 0 0 1-2.073-2.073M180.294 77.496c0-1.145.928-2.073 2.073-2.073h37.198a2.073 2.073 0 1 1 0 4.147h-37.198a2.073 2.073 0 0 1-2.073-2.074M180.294 97.588c0-1.145.928-2.073 2.073-2.073h20.776a2.073 2.073 0 1 1 0 4.147h-20.776a2.073 2.073 0 0 1-2.073-2.074M298.3 77.496c0-1.145.928-2.073 2.073-2.073h32.129a2.073 2.073 0 0 1 0 4.147h-32.129a2.073 2.073 0 0 1-2.073-2.074M298.3 97.588c0-1.145.928-2.073 2.073-2.073h37.674a2.074 2.074 0 0 1 0 4.147h-37.674a2.073 2.073 0 0 1-2.073-2.074M239.016 77.496c0-1.145.928-2.073 2.073-2.073h27.016a2.073 2.073 0 0 1 0 4.147h-27.016a2.073 2.073 0 0 1-2.073-2.074M239.016 97.588c0-1.145.928-2.073 2.073-2.073h32.34a2.073 2.073 0 0 1 0 4.147h-32.34a2.073 2.073 0 0 1-2.073-2.074M180.294 118.102c0-1.145.928-2.074 2.073-2.074h30.082a2.075 2.075 0 0 1 0 4.147h-30.082a2.073 2.073 0 0 1-2.073-2.073M239.016 118.102c0-1.145.928-2.074 2.073-2.074h22.224a2.074 2.074 0 0 1 0 4.147h-22.224a2.073 2.073 0 0 1-2.073-2.073"/></svg>