<svg xmlns="http://www.w3.org/2000/svg" width="272" height="143" fill="none" viewBox="0 0 272 143"><rect width="272" height="143" fill="#ededed" rx="8"/><path fill="#fff" stroke="#bec0c1" stroke-width="2" d="M26 33h220a4 4 0 0 1 4 4v77a4 4 0 0 1-4 4H26a4 4 0 0 1-4-4V37a4 4 0 0 1 4-4Z"/><path fill="#457aa5" d="M23 23a3 3 0 0 1 3-3h72a3 3 0 1 1 0 6H26a3 3 0 0 1-3-3"/><path stroke="#bec0c1" stroke-width="2" d="m237 118 13-13m-8 13 8-8"/><path stroke="#bec0c1" stroke-linecap="round" stroke-width="2" d="M30 40v12.5"/></svg>