<svg xmlns="http://www.w3.org/2000/svg" width="578" height="145" fill="none" viewBox="0 0 578 145"><path fill="#286ad8" d="M532.344 74.25c18.018 0 32.625-14.607 32.625-32.626S550.362 9 532.344 9s-32.625 14.606-32.625 32.624 14.606 32.625 32.625 32.625M578 145H433V0zM182.424 0C160.651 0 143 17.853 143 39.875V145h290V0z"/><path fill="#286ad8" d="M145 105.125V0C64.919 0 0 64.919 0 145h105.125C127.147 145 145 127.147 145 105.125"/><path fill="#1545bb" d="M263.5 57c.927 0 1.742.478 2.259 1.206L277.607 70h103.197c1.456 0 2.742.693 3.603 1.759L459.45 145H219.852l-21.539-21.538a4.82 4.82 0 0 1-1.813-3.77V74.808c0-2.655 2.102-4.808 4.695-4.808h5.856l-7.423-7.486A3.04 3.04 0 0 1 198.333 60c0-1.657 1.269-3 2.834-3z" opacity=".4" style="mix-blend-mode:multiply"/><path fill="#5187df" d="M380.804 70H201.196c-2.594 0-4.696 2.153-4.696 4.808v44.884c0 2.656 2.102 4.808 4.696 4.808h179.608c2.593 0 4.696-2.152 4.696-4.808V74.808c0-2.656-2.103-4.808-4.696-4.808M198.333 60c0-1.657 1.269-3 2.833-3H263.5c1.564 0 2.833 1.343 2.833 3s-1.269 3-2.833 3h-62.334c-1.564 0-2.833-1.343-2.833-3"/><path fill="#1545bb" d="M206.333 82.25c0-1.243.951-2.25 2.125-2.25h79.75c1.174 0 2.125 1.007 2.125 2.25s-.951 2.25-2.125 2.25h-79.75c-1.174 0-2.125-1.007-2.125-2.25m0 10.5c0-1.243.951-2.25 2.125-2.25h62.875c1.174 0 2.125 1.007 2.125 2.25s-.951 2.25-2.125 2.25h-62.875c-1.174 0-2.125-1.007-2.125-2.25" opacity=".6"/></svg>