<svg xmlns="http://www.w3.org/2000/svg" width="578" height="146" fill="none" viewBox="0 0 578 146"><path fill="#286ad8" d="M434 128.833C442.023 56.363 503.433 0 578.001 0v145H183.425c-21.774 0-39.424-17.852-39.424-39.875V84.564C138.257 118.862 108.431 145 72.5 145 32.46 145 0 112.54 0 72.5S32.46 0 72.5 0c35.93 0 65.756 26.137 71.501 60.436V0H434z"/><path fill="#003ba1" d="M332.502 70.801H187.789c-1.817 0-3.289 1.508-3.289 3.368v10.776c0 1.09.514 2.05 1.299 2.665l20.448 16.913-14.361-.099h-4.097c-1.816 0-3.289 1.507-3.289 3.367v10.775c0 1.091.514 2.05 1.299 2.665l23.656 23.894L407.812 145l-.863-.898c-1.147-1.195-2.265-2.359-3.34-3.481-26.208-27.333-68.565-68.565-68.565-68.565-.603-.76-1.512-1.255-2.542-1.255" opacity=".4" style="mix-blend-mode:multiply"/><path fill="#5187df" d="M332.502 70.801H187.789c-1.816 0-3.289 1.508-3.289 3.368v10.775c0 1.86 1.473 3.368 3.289 3.368h144.713c1.816 0 3.289-1.508 3.289-3.368V74.17c0-1.86-1.473-3.368-3.289-3.368M332.502 104.423H187.789c-1.816 0-3.289 1.508-3.289 3.368v10.776c0 1.859 1.473 3.367 3.289 3.367h144.713c1.816 0 3.289-1.508 3.289-3.367v-10.776c0-1.86-1.473-3.368-3.289-3.368"/><path stroke="#194bc1" stroke-linecap="round" stroke-width="1.5" d="M189.642 108.178v10"/><path fill="#1543b4" d="M189.642 79.466c0-1.161.888-2.102 1.984-2.102h62.393c1.096 0 1.985.941 1.985 2.102 0 1.16-.889 2.1-1.985 2.1h-62.393c-1.096 0-1.984-.94-1.984-2.1"/></svg>