<svg width="272" height="143" viewBox="0 0 272 143" fill="none" xmlns="http://www.w3.org/2000/svg">
<rect width="272" height="143" rx="8" fill="#EDEDED"/>
<path d="M26 33H246C248.209 33 250 34.7909 250 37V114C250 116.209 248.209 118 246 118H26C23.7909 118 22 116.209 22 114V37C22 34.7909 23.7909 33 26 33Z" fill="white" stroke="#BEC0C1" stroke-width="2"/>
<path d="M23 23C23 21.3431 24.3431 20 26 20H98C99.6569 20 101 21.3431 101 23C101 24.6569 99.6569 26 98 26H26C24.3431 26 23 24.6569 23 23Z" fill="#457AA5"/>
<path d="M237 118L250 105" stroke="#BEC0C1" stroke-width="2"/>
<path d="M242 118L250 110" stroke="#BEC0C1" stroke-width="2"/>
<path d="M30 40V52.5" stroke="#BEC0C1" stroke-width="2" stroke-linecap="round"/>
</svg>
