<svg xmlns="http://www.w3.org/2000/svg" width="272" height="143" fill="none" viewBox="0 0 272 143"><rect width="272" height="143" fill="#eff6fb" rx="8"/><rect width="228" height="24" x="21.868" y="36" fill="#fff" stroke="#bec0c1" stroke-width="2" rx="4"/><path fill="#bec0c1" d="M22.868 26a3 3 0 0 1 3-3h56.706a3 3 0 1 1 0 6H25.868a3 3 0 0 1-3-3"/><path fill="#457aa5" d="M30.132 47.7a2 2 0 0 1 2-2H149a2 2 0 1 1 0 4H32.132a2 2 0 0 1-2-2"/><rect width="228" height="24" x="22" y="94" fill="#fff" stroke="#bec0c1" stroke-width="2" rx="4"/><path fill="#bec0c1" d="M22.868 84a3 3 0 0 1 3-3h101a3 3 0 1 1 0 6h-101a3 3 0 0 1-3-3"/><path stroke="#bec0c1" stroke-linecap="round" stroke-width="2" d="M30 100v12.5"/></svg>