<svg width="577" height="145" viewBox="0 0 577 145" fill="none" xmlns="http://www.w3.org/2000/svg">
<path d="M0 145L0 -0.000152588L72.3354 -0.000152588C112.467 -0.000152588 145 32.4592 145 72.4999C145 112.541 112.467 145 72.3354 145L0 145Z" fill="#286AD8"/>
<path d="M537.125 145H432C432 64.9187 496.919 0 577 0V105.125C577 127.147 559.147 145 537.125 145Z" fill="#286AD8"/>
<path d="M183.424 145C161.651 145 144 127.148 144 105.125V0H289V145H183.424Z" fill="#286AD8"/>
<path d="M288 0C288 91 342.5 145 433 145C433 52.5 381 0 288 0Z" fill="#286AD8"/>
<g style="mix-blend-mode:multiply" opacity="0.91">
<mask id="mask0_616_866" style="mask-type:alpha" maskUnits="userSpaceOnUse" x="0" y="0" width="145" height="145">
<path d="M0 145L0 -0.000152588L72.3354 -0.000152588C112.467 -0.000152588 145 32.4592 145 72.4999C145 112.541 112.467 145 72.3354 145L0 145Z" fill="#286AD8"/>
</mask>
<g mask="url(#mask0_616_866)">
<g style="mix-blend-mode:multiply">
<path d="M92.1502 57.7359C88.2942 53.6009 82.8147 51 76.7149 51H46.123C34.4572 51 25 60.457 25 72.123C25 78.2232 27.6012 83.7031 31.7368 87.559L161.795 217.617C165.651 221.753 171.131 224.354 177.231 224.354H207.823C219.489 224.354 228.946 214.897 228.946 203.231C228.946 197.131 226.345 191.652 222.21 187.796L92.1502 57.7359Z" fill="url(#paint0_linear_616_866)" fill-opacity="0.78"/>
</g>
</g>
</g>
<path d="M76.7149 51H46.123C34.4571 51 25 60.4571 25 72.123C25 83.7889 34.4571 93.2459 46.123 93.2459H76.7149C88.3807 93.2459 97.8378 83.7889 97.8378 72.123C97.8378 60.4571 88.3807 51 76.7149 51ZM76.7149 90.3324C66.6581 90.3324 58.5054 82.1798 58.5054 72.123C58.5054 62.0662 66.6581 53.9135 76.7149 53.9135C86.7717 53.9135 94.9243 62.0662 94.9243 72.123C94.9243 82.1798 86.7717 90.3324 76.7149 90.3324Z" fill="#5187DF"/>
<path d="M85.6017 65.5674C85.01 65.5674 84.5207 65.76 84.1381 66.1453L73.7873 76.548L69.2916 72.0297C68.909 71.6444 68.4196 71.4517 67.8279 71.4517C67.236 71.4517 66.7467 71.6444 66.3642 72.0297C65.9814 72.4149 65.7892 72.9054 65.7892 73.5008C65.7892 74.0961 65.9814 74.5866 66.3642 74.9718L72.3237 80.9612C72.7418 81.3815 73.2291 81.5917 73.7873 81.5917C74.3457 81.5917 74.8328 81.3815 75.2511 80.9612L87.0655 69.0875C87.4482 68.7023 87.6405 68.2119 87.6405 67.6165C87.6405 67.0209 87.4482 66.5306 87.0655 66.1453C86.683 65.76 86.1936 65.5674 85.6017 65.5674Z" fill="#5187DF"/>
<defs>
<linearGradient id="paint0_linear_616_866" x1="52.3317" y1="69.354" x2="220.039" y2="94.4783" gradientUnits="userSpaceOnUse">
<stop stop-color="#7AA5E7"/>
<stop offset="1" stop-color="#003BA1"/>
</linearGradient>
</defs>
</svg>
