<svg xmlns="http://www.w3.org/2000/svg" width="578" height="145" fill="none" viewBox="0 0 578 145"><path fill="#286ad8" d="M537.625 145H432.5c0-80.081 64.919-145 145-145v105.125c0 22.023-17.853 39.875-39.875 39.875M72.335 0C108.351 0 138.247 26.143 144 60.447V0h144.5l-.001.002.376-.002v105.125C288.875 127.147 271.022 145 249 145H0V0z"/><path fill="#286ad8" d="M288 0c0 91 54.5 145 145 145C433 52.5 381 0 288 0"/><path fill="#1545bb" d="M73.138 88c4.59 0 8.736 1.892 11.712 4.933l11.5 11.5q.12.117.238.237c-.008-.092-.028-.181-.028-.275a3.17 3.17 0 0 1 3.159-3.16h64.503a3.14 3.14 0 0 1 2.344 1.065q.132.118.25.25.132.118.25.25.132.118.25.25.132.118.25.25.132.118.25.25.132.118.25.25.132.118.25.25.132.118.25.25.132.118.25.25.132.118.25.25.132.118.25.25.132.118.25.25.132.118.25.25.132.118.25.25.132.118.25.25.132.118.25.25.132.118.25.25.132.118.25.25.132.118.25.25.132.118.25.25.132.118.25.25.132.118.25.25.132.118.25.25.132.118.25.25.132.118.25.25.132.118.25.25.132.118.25.25.132.118.25.25.132.118.25.25.132.118.25.25.132.118.25.25.132.118.25.25.132.118.25.25.132.118.25.25.132.118.25.25.132.118.25.25.132.118.25.25.132.118.25.25.132.118.25.25.132.118.25.25.132.118.25.25.132.118.25.25.132.118.25.25.132.118.25.25.132.118.25.25.132.118.25.25.132.118.25.25.132.118.25.25.132.118.25.25.132.118.25.25.132.118.25.25.132.118.25.25.132.118.25.25.132.118.25.25.132.118.25.25.132.118.25.25.132.118.25.25.132.118.25.25.132.118.25.25.132.118.25.25.132.118.25.25.132.118.25.25.132.118.25.25.132.118.25.25.132.118.25.25.132.118.25.25.132.118.25.25.132.118.25.25.132.118.25.25.132.118.25.25.132.118.25.25.132.118.25.25.132.118.25.25.132.118.25.25.132.118.25.25.132.118.25.25.132.118.25.25.132.118.25.25.132.118.25.25.132.118.25.25.132.118.25.25.132.118.25.25.132.118.25.25.132.118.25.25.132.118.25.25.132.118.25.25.132.118.25.25.132.118.25.25.132.118.25.25.132.118.25.25.132.118.25.25.132.118.25.25.132.118.25.25.132.118.25.25.132.118.25.25.132.118.25.25.132.118.25.25.132.118.25.25.132.118.25.25.132.118.25.25.132.118.25.25.132.118.25.25.132.118.25.25.132.118.25.25.132.118.25.25.132.118.25.25.132.118.25.25.132.118.25.25.132.118.25.25.132.118.25.25.132.118.25.25.132.118.25.25.132.118.25.25.132.118.25.25.132.118.25.25.132.118.25.25.132.118.25.25.132.118.25.25.132.118.25.25.132.118.25.25.132.118.25.25.132.118.25.25.132.118.25.25.132.118.25.25.132.118.25.25.132.118.25.25.132.118.25.25.132.118.25.25.132.118.25.25.132.118.25.25.132.118.25.25.132.118.25.25.132.118.25.25.132.118.25.25.132.118.25.25.132.118.25.25.132.118.25.25.132.118.25.25.132.118.25.25.132.118.25.25.132.118.25.25.132.118.25.25.132.118.25.25.132.118.25.25.132.118.25.25.132.118.25.25.132.118.25.25.132.118.25.25.132.118.25.25.132.118.25.25.132.118.25.25.132.118.25.25.132.118.25.25.132.118.25.25.132.118.25.25.132.118.25.25.132.118.25.25.132.118.25.25.132.118.25.25.132.118.25.25.132.118.25.25.132.118.25.25.132.118.25.25.132.118.25.25.132.118.25.25.132.118.25.25.132.118.25.25.132.118.25.25.132.118.25.25.132.118.25.25.107.095.204.2H66.828l-29.177-29.177a16.33 16.33 0 0 1-4.65-11.428C33.001 95.34 40.341 88 49.395 88z" opacity=".4" style="mix-blend-mode:multiply"/><path fill="#5187df" d="M73.138 88H49.394C40.34 88 33 95.34 33 104.394s7.34 16.394 16.394 16.394h23.744c9.054 0 16.394-7.34 16.394-16.394S82.192 88 73.138 88m0 30.527c-7.806 0-14.133-6.327-14.133-14.133s6.327-14.133 14.133-14.133S87.27 96.59 87.27 104.394c0 7.806-6.327 14.133-14.132 14.133"/><path fill="#5187df" d="M80.034 99.306q-.69 0-1.136.449l-8.033 8.074-3.49-3.507q-.445-.449-1.135-.449-.691 0-1.136.449-.446.448-.447 1.141 0 .694.447 1.142l4.625 4.649q.487.489 1.136.489t1.136-.489l9.17-9.216q.445-.448.446-1.142 0-.693-.447-1.141-.445-.45-1.136-.449M164.002 101H98.998A3.01 3.01 0 0 0 96 104c0 1.65 1.349 3 2.998 3h65.004a3.01 3.01 0 0 0 2.998-3c0-1.65-1.349-3-2.998-3"/></svg>