<svg xmlns="http://www.w3.org/2000/svg" width="272" height="143" fill="none" viewBox="0 0 272 143"><rect width="272" height="143" fill="#eff6fb" rx="8"/><rect width="50" height="29" x="74" y="117" fill="#bec0c1" rx="14.5" transform="rotate(180 74 117)"/><circle cx="39.5" cy="102.5" r="12.5" fill="#fff" transform="rotate(180 39.5 102.5)"/><path fill="#bec0c1" stroke="#bec0c1" d="m39.5 103.831-4.658 4.658a.9.9 0 0 1-.665.261.9.9 0 0 1-.666-.261.9.9 0 0 1-.261-.666.9.9 0 0 1 .261-.665l4.658-4.658-4.658-4.658a.9.9 0 0 1-.261-.665q0-.404.261-.666a.9.9 0 0 1 .666-.261q.404 0 .665.261l4.658 4.658 4.658-4.658a.9.9 0 0 1 .665-.261q.404 0 .666.261a.9.9 0 0 1 .261.666q0 .404-.261.665L40.83 102.5l4.658 4.658a.9.9 0 0 1 .261.665q0 .404-.261.666a.9.9 0 0 1-.666.261.9.9 0 0 1-.665-.261z"/><rect width="50" height="29" x="24" y="27" fill="#124a73" rx="14.5"/><circle cx="59.5" cy="41.5" r="12.5" fill="#fff"/><path fill="#124a73" d="m57.49 44.538-3.086-3.102q-.394-.397-1.005-.397t-1.004.397-.395 1.01.395 1.01l4.09 4.111q.431.433 1.005.433.575 0 1.005-.433l8.11-8.15q.395-.398.395-1.01 0-.614-.395-1.01Q66.211 37 65.6 37t-1.004.397z"/><path fill="#457aa5" d="M98.787 42.991a3 3 0 0 1 3-3h72.301a3 3 0 1 1 0 6h-72.301a3 3 0 0 1-3-3m85.293 0a3 3 0 0 1 3-3h48.531a3 3 0 1 1 0 6H187.08a3 3 0 0 1-3-3"/><rect width="118.668" height="6" x="97.482" y="100.991" fill="#bec0c1" rx="3"/></svg>