<svg width="272" height="143" viewBox="0 0 272 143" fill="none" xmlns="http://www.w3.org/2000/svg">
<rect width="272" height="143" rx="8" fill="#EFF6FB"/>
<path d="M138 115.641L123.577 101.977H39.9321C35.5139 101.977 31.9321 98.3948 31.9321 93.9766V40.5C31.9321 36.0817 35.5139 32.5 39.9321 32.5H236.067C240.485 32.5 244.068 36.0817 244.068 40.5V93.9766C244.068 98.3947 240.486 101.976 236.068 101.977H152.422L138 115.641Z" fill="#467AA5"/>
<path d="M47.6802 60.2905C47.6802 58.7557 48.9244 57.5115 50.4592 57.5115H148.931C150.466 57.5115 151.71 58.7557 151.71 60.2905V60.2905C151.71 61.8254 150.466 63.0696 148.931 63.0696H50.4592C48.9244 63.0696 47.6802 61.8254 47.6802 60.2905V60.2905Z" fill="#EDEDED"/>
<path d="M160.695 60.2905C160.695 58.7557 161.94 57.5115 163.474 57.5115H224.614C226.149 57.5115 227.393 58.7557 227.393 60.2905V60.2905C227.393 61.8254 226.149 63.0696 224.614 63.0696H163.474C161.94 63.0696 160.695 61.8254 160.695 60.2905V60.2905Z" fill="#EDEDED"/>
<path d="M47.6802 78.4998C47.6802 76.9649 48.9244 75.7207 50.4592 75.7207H178.296C179.831 75.7207 181.075 76.9649 181.075 78.4998V78.4998C181.075 80.0346 179.831 81.2788 178.296 81.2788H50.4592C48.9244 81.2788 47.6802 80.0346 47.6802 78.4998V78.4998Z" fill="#EDEDED"/>
</svg>
