<svg xmlns="http://www.w3.org/2000/svg" width="272" height="143" fill="none" viewBox="0 0 272 143"><rect width="272" height="143" fill="#eff6fb" rx="8"/><path fill="#467aa5" d="m138 115.641-14.423-13.664H39.932a8 8 0 0 1-8-8V40.5a8 8 0 0 1 8-8h196.135a8 8 0 0 1 8.001 8v53.477a8 8 0 0 1-8 8h-83.646z"/><path fill="#ededed" d="M47.68 60.29a2.78 2.78 0 0 1 2.78-2.779h98.471a2.779 2.779 0 1 1 0 5.558H50.459a2.78 2.78 0 0 1-2.779-2.779m113.015 0a2.78 2.78 0 0 1 2.779-2.779h61.14a2.779 2.779 0 1 1 0 5.558h-61.14a2.78 2.78 0 0 1-2.779-2.779M47.68 78.5a2.78 2.78 0 0 1 2.78-2.78h127.836a2.779 2.779 0 1 1 0 5.558H50.459A2.78 2.78 0 0 1 47.68 78.5"/></svg>