<svg xmlns="http://www.w3.org/2000/svg" width="576" height="145" fill="none" viewBox="0 0 576 145"><path fill="#286ad8" d="M393.576 0C415.349 0 433 17.853 433 39.875V145H288V0z"/><path fill="#286ad8" d="M289 39.424C289 17.651 271.148 0 249.125 0H144v145h145z"/><path fill="#286ad8" d="M145 105.125V0C64.919 0 0 64.919 0 145h105.125C127.147 145 145 127.147 145 105.125M503.5 145c40.041 0 72.5-32.459 72.5-72.5S543.541 0 503.5 0 431 32.46 431 72.5s32.459 72.5 72.5 72.5"/><path fill="#5187df" fill-opacity=".8" d="M238.301 121.877h-34.568c-1.64 0-2.733-1.151-2.733-2.879s1.093-2.876 2.733-2.876h34.568c1.639 0 2.733 1.149 2.733 2.876 0 1.728-1.094 2.879-2.733 2.879m91 0h-18.568c-1.64 0-2.733-1.151-2.733-2.879s1.093-2.876 2.733-2.876h18.568c1.639 0 2.733 1.149 2.733 2.876 0 1.728-1.094 2.879-2.733 2.879m-31 0h-47.568c-1.64 0-2.733-1.151-2.733-2.879s1.093-2.876 2.733-2.876h47.568c1.639 0 2.733 1.149 2.733 2.876 0 1.728-1.094 2.879-2.733 2.879"/><circle cx="349" cy="119" r="8" fill="#5187df" fill-opacity=".8"/><path fill="#5187df" d="M392.32 67a3.425 3.425 0 0 1 3.425 3.425v21.15A3.425 3.425 0 0 1 392.32 95H356.5l-7.5 7.5-7.5-7.5h-37.075A3.425 3.425 0 0 1 301 91.575v-21.15A3.425 3.425 0 0 1 304.425 67z"/><path fill="#7aa5e7" d="M356.5 95v-.5h-.207l-.147.146zm-7.5 7.5-.354.354.354.353.354-.353zm-7.5-7.5.354-.354-.147-.146h-.207zm50.82-28v.5a2.925 2.925 0 0 1 2.925 2.925h1a3.925 3.925 0 0 0-3.925-3.925zm3.425 3.425h-.5v21.15h1v-21.15zm0 21.15h-.5a2.925 2.925 0 0 1-2.925 2.925v1a3.925 3.925 0 0 0 3.925-3.925zM392.32 95v-.5H356.5v1h35.82zm-35.82 0-.354-.354-7.5 7.5.354.354.354.354 7.5-7.5zm-7.5 7.5.354-.354-7.5-7.5-.354.354-.354.354 7.5 7.5zm-7.5-7.5v-.5h-37.075v1H341.5zm-37.075 0v-.5a2.925 2.925 0 0 1-2.925-2.925h-1a3.925 3.925 0 0 0 3.925 3.925zM301 91.575h.5v-21.15h-1v21.15zm0-21.15h.5a2.925 2.925 0 0 1 2.925-2.925v-1a3.925 3.925 0 0 0-3.925 3.925zM304.425 67v.5h87.895v-1h-87.895z"/><path fill="#1545bb" d="M379.383 84.57H360.37c-1.64 0-2.733-1.152-2.733-2.88s1.093-2.876 2.733-2.876h19.013c1.639 0 2.733 1.149 2.733 2.877s-1.094 2.879-2.733 2.879m-28.809 0h-34.568c-1.639 0-2.732-1.152-2.732-2.88s1.093-2.876 2.732-2.876h34.568c1.64 0 2.733 1.149 2.733 2.877s-1.093 2.879-2.733 2.879"/></svg>