<svg width="578" height="145" viewBox="0 0 578 145" fill="none" xmlns="http://www.w3.org/2000/svg">
<path d="M433 145V-0.000152588L505.335 -0.000152588C545.467 -0.000152588 578 32.4592 578 72.4999C578 112.541 545.467 145 505.335 145L433 145Z" fill="#286AD8"/>
<path d="M434 145C434 64.9792 369.094 0.109528 289.028 0.109528L289 0V145L434 145Z" fill="#286AD8"/>
<path d="M183.424 145C161.651 145 144 127.148 144 105.125V0H289V145H183.424Z" fill="#286AD8"/>
<path d="M72.5 145C112.541 145 145 112.541 145 72.5C145 32.4594 112.541 0 72.5 0C32.4593 0 0 32.4594 0 72.5C0 112.541 32.4593 145 72.5 145Z" fill="#286AD8"/>
<g style="mix-blend-mode:multiply" opacity="0.65">
<mask id="mask0_621_103" style="mask-type:alpha" maskUnits="userSpaceOnUse" x="144" y="0" width="290" height="145">
<g style="mix-blend-mode:multiply">
<path fill-rule="evenodd" clip-rule="evenodd" d="M144 105.125C144 127.148 161.651 145 183.424 145H289H434C434 64.9792 369.094 0.109528 289.028 0.109528L289 0H144V105.125Z" fill="#286AD8"/>
</g>
</mask>
<g mask="url(#mask0_621_103)">
<g style="mix-blend-mode:multiply">
<path fill-rule="evenodd" clip-rule="evenodd" d="M347.275 210.79H393.041L469.074 210.79C471.619 210.79 473.316 209.232 473.316 206.895C473.316 205.607 472.787 204.57 471.898 203.885C471.7 203.61 471.451 203.376 471.178 203.165L382.618 114.605C381.894 113.598 380.648 113 379.074 113H343.994C343.907 112.959 343.806 112.926 343.679 112.902C343.675 112.901 343.671 112.901 343.666 112.9C343.661 112.9 343.657 112.9 343.653 112.899L292.559 61.7819C292.555 61.7812 292.55 61.7808 292.546 61.7804C292.541 61.78 292.537 61.7796 292.533 61.779C292.492 61.3764 292.335 61.1543 291.839 61.0619C291.292 60.96 290.17 61.0052 289.128 61.0473C288.385 61.0772 287.684 61.1056 287.262 61.0776C287.067 61.0828 286.872 61.0861 286.677 61.0893C285.45 61.1097 284.221 61.1301 283.107 61.6584C281.503 62.4298 280.251 63.8264 279.196 65.2141C278.905 65.6849 278.461 65.9907 278.017 66.2963C277.587 66.592 277.158 66.8874 276.869 67.3318C276.45 67.9169 276.566 68.5486 276.685 69.1896C276.735 69.4606 276.785 69.7333 276.795 70.0048C276.822 72.082 276.303 72.4 275.31 73.0076C274.956 73.2241 274.542 73.4774 274.072 73.8602C273.298 74.4892 272.259 74.6097 271.3 74.6319C271.122 74.6361 270.927 74.6461 270.725 74.6565C270.062 74.6907 269.311 74.7294 268.747 74.5812C268.462 74.5063 268.188 74.3782 267.914 74.2498C267.484 74.0487 267.052 73.8467 266.571 73.8467C265.45 73.7167 263.744 73.771 262.54 74.012C261.688 74.1994 261.002 74.3585 260.975 75.3268C260.97 75.7215 261.197 76.12 261.425 76.5208C261.69 76.9879 261.957 77.4582 261.863 77.9298C261.529 79.2746 260.02 80.1704 258.816 80.8852C258.633 80.9934 258.458 81.0974 258.295 81.1982C258.262 81.2157 258.228 81.2339 258.192 81.253C257.872 81.422 257.435 81.653 257.241 81.9304C256.881 82.4446 256.961 84.0142 257.242 84.017L257.73 84.0185L286.542 113H257.275C254.729 113 253.032 114.558 253.032 116.895C253.032 118.183 253.561 119.22 254.45 119.905L343.01 208.465C343.208 208.74 343.457 208.974 343.73 209.185C344.454 210.192 345.701 210.79 347.275 210.79ZM227.009 113C228.583 113 229.829 113.598 230.554 114.605L319.834 203.885C320.722 204.57 321.252 205.607 321.252 206.895C321.252 209.232 319.555 210.79 317.009 210.79H271.242C269.669 210.79 268.422 210.192 267.698 209.185L179.138 120.625C178.865 120.414 178.616 120.18 178.417 119.904C177.529 119.22 177 118.183 177 116.895C177 114.558 178.697 113 181.242 113H227.009Z" fill="url(#paint0_linear_621_103)" fill-opacity="0.73"/>
</g>
</g>
</g>
<path d="M303.041 113H257.275C254.729 113 253.032 114.558 253.032 116.895C253.032 119.232 254.729 120.79 257.275 120.79H303.041C305.586 120.79 307.284 119.232 307.284 116.895C307.284 114.558 305.586 113 303.041 113Z" fill="#5187DF"/>
<path d="M379.074 113H333.307C330.762 113 329.064 114.558 329.064 116.895C329.064 119.232 330.762 120.79 333.307 120.79H379.074C381.619 120.79 383.316 119.232 383.316 116.895C383.316 114.558 381.619 113 379.074 113Z" fill="#5187DF"/>
<path d="M227.009 113H181.242C178.697 113 177 114.558 177 116.895C177 119.232 178.697 120.79 181.242 120.79H227.009C229.555 120.79 231.252 119.232 231.252 116.895C231.252 114.558 229.555 113 227.009 113Z" fill="#5187DF"/>
<path d="M257.242 84.017C261.668 84.0321 274.98 84.0386 281.127 84.0336C281.931 84.1046 282.459 84.6764 282.844 85.4276C283.233 86.1121 283.279 87.011 283.603 87.6942C284.016 88.4146 285.077 88.7136 285.735 89.1603C286.592 89.6758 287.392 90.2509 288.328 90.6825C288.843 90.9197 289.503 91.1758 289.817 91.6845C289.963 91.9208 290.008 92.1588 289.994 92.3973C289.974 92.7273 289.54 92.9798 289.31 93.1535C288.949 93.4266 288.644 93.7255 288.441 94.1397C288.339 94.3455 288.27 94.6021 288.391 94.7963C288.679 95.2569 289.832 94.8108 290.223 94.6797C290.765 94.4978 291.315 94.2503 291.88 94.1492C294.285 93.7176 296.744 93.3537 298.903 92.1992C299.209 92.0356 299.902 91.7736 299.987 91.4351C300.199 90.5928 297.72 91.3978 297.421 91.4957C296.886 91.6854 296.31 91.6736 295.752 91.755C294.517 91.9694 292.795 92.3249 291.575 92.3659C290.96 92.4303 290.665 91.9556 290.808 91.3434C290.976 90.5758 291.682 90.1055 291.632 89.299C291.537 87.6627 292.05 85.8435 292.021 84.1904C291.934 82.126 292.79 80.1616 292.852 78.1212C292.906 76.3667 293.154 74.6125 292.943 72.8724C292.756 71.3275 292.17 69.4933 292.292 67.9374C292.321 67.5597 292.381 67.3269 292.484 66.9663C292.912 65.7708 292.507 64.5121 292.512 63.3321C292.516 61.8539 292.776 61.2365 291.839 61.0619C290.902 60.8872 288.275 61.1448 287.262 61.0776C285.844 61.1161 284.398 61.0459 283.107 61.6584C281.503 62.4298 280.251 63.8264 279.196 65.2141C278.623 66.1404 277.458 66.4281 276.869 67.3318C276.273 68.1643 276.761 69.0911 276.795 70.0048C276.832 72.8223 275.863 72.4033 274.072 73.8602C273.298 74.4892 272.259 74.6097 271.3 74.6319C270.539 74.6495 269.484 74.7747 268.747 74.5812C268.015 74.3889 267.359 73.8467 266.571 73.8467C265.45 73.7167 263.744 73.771 262.54 74.012C261.688 74.1994 261.002 74.3585 260.975 75.3268C260.965 76.1814 262.038 77.0535 261.863 77.9298C261.479 79.4781 259.536 80.4312 258.295 81.1982C257.974 81.3705 257.457 81.6217 257.241 81.9304C256.881 82.4446 256.961 84.0142 257.242 84.017Z" fill="#5187DF"/>
<defs>
<linearGradient id="paint0_linear_621_103" x1="158" y1="14.5" x2="408.016" y2="51.8268" gradientUnits="userSpaceOnUse">
<stop stop-color="#7AA5E7"/>
<stop offset="1" stop-color="#003BA1"/>
</linearGradient>
</defs>
</svg>
