<svg width="272" height="144" viewBox="0 0 272 144" fill="none" xmlns="http://www.w3.org/2000/svg">
<path d="M0 76H272V136C272 140.418 268.418 144 264 144H8.00001C3.58173 144 0 140.418 0 136V76Z" fill="#EFF6FB"/>
<path d="M0 8C0 3.58172 3.58172 0 8 0H264C268.418 0 272 3.58172 272 8V32H0V8Z" fill="#0E324F"/>
<circle cx="221.5" cy="16" r="5.5" fill="#457AA5"/>
<circle cx="244.5" cy="16" r="5.5" fill="#457AA5"/>
<path d="M110.5 18.5H49.3942C47.9576 18.5 47 17.4995 47 15.9987C47 14.4978 47.9577 13.5 49.3942 13.5H110.5C111.936 13.5 112.894 14.4978 112.894 15.9987C112.894 17.4995 111.936 18.5 110.5 18.5Z" fill="#457AA5"/>
<path d="M171.5 18.5L123.658 18.499C122.063 18.499 121 17.4987 121 15.9982C121 14.4976 122.063 13.5 123.658 13.5L171.5 13.501C173.094 13.501 174.158 14.4986 174.158 15.9992C174.158 17.4997 173.094 18.5 171.5 18.5Z" fill="#457AA5"/>
<path d="M184.5 17.0399L186.948 14.6673C187.064 14.5558 187.21 14.5 187.388 14.5C187.566 14.5 187.712 14.5558 187.827 14.6673C187.942 14.7788 188 14.9208 188 15.0932C188 15.2655 187.942 15.4075 187.827 15.519L184.939 18.3175C184.814 18.4392 184.667 18.5 184.5 18.5C184.333 18.5 184.186 18.4392 184.061 18.3175L181.173 15.519C181.058 15.4075 181 15.2655 181 15.0932C181 14.9208 181.058 14.7788 181.173 14.6673C181.288 14.5558 181.434 14.5 181.612 14.5C181.79 14.5 181.936 14.5558 182.052 14.6673L184.5 17.0399Z" fill="#457AA5"/>
<path d="M22.6809 14.3622C22.3273 14.2707 22.01 14.0102 21.628 14.0102C21.0865 13.9486 20.2609 13.9739 19.68 14.0892C19.2665 14.1791 18.935 14.2549 18.9223 14.719C18.9176 15.1294 19.4369 15.5461 19.3517 15.9661C19.1654 16.708 18.2262 17.1642 17.6263 17.532C17.4716 17.6141 17.2206 17.7356 17.1165 17.8824C16.9428 18.1287 16.9807 18.8816 17.1165 18.8832C19.257 18.8895 25.6944 18.8927 28.6668 18.8911C29.0567 18.9243 29.3124 19.1989 29.4971 19.5588C29.6865 19.8856 29.7086 20.3165 29.8649 20.6449C30.0654 20.989 30.5768 21.1326 30.8957 21.3458C31.3109 21.5936 31.6976 21.8682 32.1491 22.0751C32.3985 22.1887 32.7174 22.3118 32.8689 22.5565L32.9557 22.8975C32.9462 23.0554 32.7363 23.1769 32.6242 23.259C32.4506 23.39 32.3022 23.5337 32.2043 23.7325L32.1806 24.0467C32.3196 24.2677 32.8768 24.053 33.0662 23.9914C33.3283 23.903 33.5935 23.7847 33.8666 23.7373C35.0299 23.5305 36.2202 23.3553 37.2636 22.8028C37.412 22.7239 37.7467 22.5992 37.7877 22.4366C37.8903 22.0324 36.6922 22.4192 36.5469 22.465C36.2881 22.5565 36.0102 22.5502 35.7403 22.5897C35.142 22.6923 34.3101 22.8628 33.7197 22.8817C33.423 22.9133 33.2793 22.686 33.3488 22.3924C33.4309 22.0246 33.7718 21.7989 33.7482 21.4137C33.7008 20.6291 33.9502 19.7578 33.936 18.9653C33.8934 17.9771 34.307 17.0363 34.337 16.0576C34.3638 15.2178 34.4838 14.378 34.3812 13.543C34.2912 12.8042 34.0086 11.925 34.067 11.1798C34.0812 10.9983 34.1096 10.8862 34.1602 10.7142C34.367 10.1412 34.1712 9.53812 34.1728 8.97305C34.1744 8.2658 34.3007 7.96905 33.8476 7.88537C33.3946 7.80174 32.1238 7.92487 31.6345 7.89326C30.9478 7.91219 30.2485 7.87751 29.625 8.17107C28.8499 8.54047 28.2437 9.2098 27.7338 9.87436C27.456 10.3179 26.8925 10.4568 26.6083 10.8894C26.3194 11.2887 26.5562 11.7323 26.572 12.1696C26.591 13.5192 26.1221 13.3188 25.2555 14.0165C24.8814 14.318 24.3794 14.3764 23.9153 14.3859C23.5475 14.3954 23.0376 14.4554 22.6809 14.3622Z" fill="#457AA5"/>
<rect y="34" width="272" height="40" fill="#EDEDED"/>
<path d="M93.1648 50.9972H19.8717C18.1486 50.9972 17 49.7972 17 47.997C17 46.1968 18.1487 45 19.8717 45H93.1648C94.8878 45 96.0365 46.1968 96.0365 47.997C96.0365 49.7972 94.8878 50.9972 93.1648 50.9972Z" fill="#D0D0CE"/>
<path d="M56 63.9973L19.6575 63.9963C18.063 63.9963 17 62.996 17 61.4955C17 59.9949 18.063 58.9973 19.6575 58.9973L56 58.9983C57.5945 58.9983 58.6575 59.9959 58.6575 61.4965C58.6575 62.997 57.5945 63.9973 56 63.9973Z" fill="#D0D0CE"/>
<path d="M142.5 55.2632L115.658 55.2622C114.063 55.2622 113 54.2619 113 52.7613C113 51.2607 114.063 50.2632 115.658 50.2632L142.5 50.2642C144.094 50.2642 145.158 51.2618 145.158 52.7624C145.158 54.2629 144.094 55.2632 142.5 55.2632Z" fill="#D0D0CE"/>
<path d="M182.5 55.2632L155.658 55.2622C154.063 55.2622 153 54.2619 153 52.7613C153 51.2607 154.063 50.2632 155.658 50.2632L182.5 50.2642C184.094 50.2642 185.158 51.2618 185.158 52.7624C185.158 54.2629 184.094 55.2632 182.5 55.2632Z" fill="#D0D0CE"/>
<path d="M222.5 55.2632L195.658 55.2622C194.063 55.2622 193 54.2619 193 52.7613C193 51.2607 194.063 50.2632 195.658 50.2632L222.5 50.2642C224.094 50.2642 225.158 51.2618 225.158 52.7624C225.158 54.2629 224.094 55.2632 222.5 55.2632Z" fill="#D0D0CE"/>
</svg>
