<svg width="579" height="146" viewBox="0 0 579 146" fill="none" xmlns="http://www.w3.org/2000/svg">
<path d="M184.424 145.895C162.651 145.895 145 128.043 145 106.02V0.89502H435V145.895H184.424Z" fill="#286AD8"/>
<path d="M145 106.02V0.89502C64.9187 0.89502 0 65.8137 0 145.895H105.125C127.147 145.895 145 128.042 145 106.02Z" fill="#286AD8"/>
<path d="M578.838 0.89502V145.895H506.503C466.371 145.895 433.838 113.436 433.838 73.3951C433.838 33.3544 466.371 0.895042 506.503 0.895042L578.838 0.89502Z" fill="#286AD8"/>
<g style="mix-blend-mode:multiply" opacity="0.82">
<mask id="mask0_621_88" style="mask-type:alpha" maskUnits="userSpaceOnUse" x="145" y="0" width="290" height="146">
<path d="M184.424 145.895C162.651 145.895 145 128.043 145 106.02V0.89502H435V145.895H184.424Z" fill="#286AD8"/>
</mask>
<g mask="url(#mask0_621_88)">
<g style="mix-blend-mode:multiply">
<path fill-rule="evenodd" clip-rule="evenodd" d="M200.958 121.419L264.154 184.615L317.961 184.605L233.983 100.626C233.979 100.626 233.975 100.625 233.97 100.625C233.966 100.624 233.962 100.624 233.959 100.624C233.92 100.247 233.773 100.039 233.309 99.9528C232.798 99.8576 231.749 99.8999 230.775 99.9392C230.08 99.9673 229.424 99.9938 229.03 99.9676C228.848 99.9725 228.665 99.9755 228.483 99.9785C227.335 99.9976 226.185 100.017 225.144 100.511C223.644 101.232 222.474 102.538 221.487 103.836C221.214 104.276 220.799 104.562 220.384 104.848C219.983 105.124 219.582 105.4 219.311 105.816C218.919 106.363 219.028 106.954 219.139 107.553C219.185 107.807 219.232 108.062 219.242 108.316C219.267 110.258 218.781 110.555 217.853 111.124C217.522 111.326 217.135 111.563 216.695 111.921C215.972 112.509 215 112.622 214.103 112.642C213.936 112.646 213.754 112.656 213.565 112.665C212.945 112.697 212.243 112.733 211.716 112.595C211.449 112.525 211.193 112.405 210.937 112.285C210.535 112.097 210.131 111.908 209.681 111.908C208.633 111.787 207.038 111.837 205.912 112.063C205.115 112.238 204.473 112.387 204.448 113.292C204.444 113.661 204.656 114.034 204.869 114.409C205.117 114.845 205.367 115.285 205.279 115.726C204.967 116.984 203.556 117.821 202.429 118.49C202.259 118.591 202.095 118.688 201.942 118.783C201.912 118.799 201.88 118.816 201.846 118.834C201.547 118.992 201.139 119.208 200.957 119.467C200.62 119.948 200.694 121.416 200.958 121.419ZM255.882 117.003L322.349 183.394C322.833 184.076 323.595 184.523 324.461 184.523H382.75C384.213 184.523 385.399 183.267 385.399 181.717C385.399 180.73 384.916 179.866 384.189 179.366L317.534 112.712C317.051 112.031 316.289 111.584 315.422 111.584H257.134C255.67 111.584 254.484 112.84 254.484 114.389C254.484 115.376 254.967 116.24 255.695 116.74L255.882 117.003ZM372.618 112.712C372.134 112.031 371.372 111.584 370.506 111.584H332.79C331.327 111.584 330.14 112.84 330.14 114.389C330.14 115.376 330.623 116.24 331.35 116.74L398.005 183.394C398.489 184.075 399.251 184.523 400.118 184.523H437.834C439.297 184.523 440.483 183.267 440.483 181.717C440.483 180.73 439.999 179.866 439.272 179.366L372.618 112.712Z" fill="url(#paint0_linear_621_88)" fill-opacity="0.73"/>
</g>
</g>
</g>
<path d="M254.484 114.389C254.484 112.839 255.67 111.583 257.134 111.583H315.422C316.886 111.583 318.071 112.839 318.071 114.389C318.071 115.938 316.886 117.194 315.422 117.194H257.134C255.67 117.194 254.484 115.938 254.484 114.389Z" fill="#5187DF"/>
<path d="M330.14 114.389C330.14 112.839 331.326 111.583 332.79 111.583H370.506C371.969 111.583 373.155 112.839 373.155 114.389C373.155 115.938 371.969 117.194 370.506 117.194H332.79C331.326 117.194 330.14 115.938 330.14 114.389Z" fill="#5187DF"/>
<path d="M238.53 128.412C238.029 128.589 237.49 128.578 236.968 128.654C235.814 128.855 234.204 129.187 233.062 129.226C232.488 129.286 232.211 128.842 232.345 128.269C232.502 127.552 233.163 127.112 233.116 126.358C233.027 124.828 233.507 123.126 233.479 121.581C233.398 119.65 234.199 117.813 234.257 115.905C234.307 114.265 234.539 112.624 234.342 110.997C234.167 109.552 233.619 107.837 233.733 106.382C233.761 106.029 233.816 105.811 233.913 105.474C234.313 104.356 233.934 103.179 233.939 102.076C233.943 100.693 234.186 100.116 233.309 99.9529C232.433 99.7896 229.977 100.03 229.03 99.9675C227.703 100.004 226.351 99.938 225.144 100.511C223.644 101.232 222.474 102.538 221.487 103.836C220.951 104.702 219.862 104.971 219.311 105.816C218.753 106.594 219.21 107.461 219.242 108.315C219.276 110.95 218.37 110.558 216.695 111.921C215.972 112.509 215 112.622 214.103 112.642C213.392 112.659 212.405 112.776 211.716 112.595C211.032 112.415 210.418 111.908 209.681 111.908C208.633 111.787 207.038 111.837 205.912 112.063C205.115 112.238 204.473 112.387 204.448 113.292C204.439 114.091 205.442 114.907 205.279 115.726C204.919 117.174 203.103 118.065 201.942 118.783C201.642 118.944 201.159 119.179 200.957 119.467C200.62 119.948 200.694 121.416 200.958 121.419C205.096 121.433 217.545 121.439 223.292 121.434C224.044 121.5 224.538 122.035 224.898 122.737C225.262 123.378 225.305 124.218 225.608 124.857C225.995 125.531 226.986 125.81 227.602 126.228C228.403 126.71 229.151 127.248 230.026 127.651C230.508 127.873 231.125 128.113 231.418 128.588C231.555 128.809 231.597 129.032 231.584 129.255C231.566 129.563 231.159 129.8 230.944 129.962C230.607 130.217 230.322 130.497 230.132 130.884C230.037 131.077 229.972 131.317 230.085 131.498C230.355 131.929 231.433 131.512 231.798 131.389C232.305 131.219 232.819 130.988 233.348 130.893C235.597 130.49 237.897 130.149 239.916 129.07C240.201 128.917 240.849 128.672 240.929 128.355C241.127 127.568 238.809 128.32 238.53 128.412Z" fill="#5187DF"/>
<path d="M488.469 97.0924C475.381 97.0924 464.771 86.4827 464.771 73.3949C464.771 60.307 475.381 49.6973 488.469 49.6973C501.557 49.6973 512.167 60.307 512.167 73.3949C512.167 86.4827 501.557 97.0924 488.469 97.0924Z" fill="#004DD1"/>
<defs>
<linearGradient id="paint0_linear_621_88" x1="190" y1="77.5" x2="450.412" y2="66.6298" gradientUnits="userSpaceOnUse">
<stop stop-color="#7AA5E7"/>
<stop offset="1" stop-color="#003BA1"/>
</linearGradient>
</defs>
</svg>
