<svg xmlns="http://www.w3.org/2000/svg" width="577" height="146" fill="none" viewBox="0 0 577 146"><path fill="#286ad8" fill-rule="evenodd" d="M433 40.77C433 18.747 415.349.895 393.576.895H182.424C160.651.895 143 18.748 143 40.77v105.125h290z" clip-rule="evenodd"/><path fill="#286ad8" d="M72.5 145.895c40.041 0 72.5-32.459 72.5-72.5S112.541.895 72.5.895 0 33.355 0 73.395s32.46 72.5 72.5 72.5M537.125 145.895H432c0-80.081 64.919-145 145-145V106.02c0 22.022-17.853 39.875-39.875 39.875"/><path fill="#5187df" d="M217.963 32.708c0-1.567 1.2-2.838 2.68-2.838h53.96c1.48 0 2.679 1.27 2.679 2.838 0 1.567-1.199 2.837-2.679 2.837h-53.96c-1.48 0-2.68-1.27-2.68-2.837M283.61 32.708c0-1.567 1.201-2.838 2.681-2.838h34.15c1.48 0 2.68 1.27 2.68 2.838 0 1.567-1.2 2.837-2.68 2.837h-34.15c-1.48 0-2.681-1.27-2.681-2.837M343.365 32.708c0-1.567 1.2-2.838 2.68-2.838h34.15c1.481 0 2.68 1.27 2.68 2.838 0 1.567-1.199 2.837-2.68 2.837h-34.15c-1.48 0-2.68-1.27-2.68-2.837M204.854 46.892c-.507.18-1.052.168-1.579.245-1.168.203-2.797.54-3.952.578-.581.061-.86-.388-.725-.967.159-.726.827-1.17.78-1.934-.09-1.547.395-3.268.367-4.832-.081-1.953.728-3.81.787-5.74.05-1.66.285-3.32.086-4.965-.177-1.462-.731-3.197-.616-4.668.028-.358.084-.578.182-.919.405-1.13.022-2.321.026-3.437.004-1.398.25-1.983-.637-2.148-.886-.165-3.37.079-4.329.015-1.341.037-2.709-.03-3.93.55-1.517.73-2.701 2.05-3.7 3.363-.541.876-1.643 1.148-2.201 2.003-.563.787-.102 1.664-.069 2.528.035 2.665-.882 2.269-2.576 3.647-.732.595-1.715.709-2.622.73-.719.017-1.718.135-2.414-.048-.693-.182-1.313-.695-2.059-.695-1.06-.123-2.674-.071-3.812.157-.807.177-1.456.327-1.481 1.243-.009.809 1.006 1.633.84 2.462-.363 1.465-2.201 2.366-3.375 3.092-.304.163-.792.4-.997.692-.341.487-.265 1.971.001 1.974 4.186.015 16.778.02 22.592.016.76.067 1.26.608 1.624 1.318.369.648.412 1.498.718 2.144.391.682 1.394.965 2.017 1.387.81.488 1.567 1.032 2.453 1.44.486.224 1.111.466 1.408.948.138.223.18.448.167.674-.018.312-.429.55-.647.715-.341.258-.629.541-.822.933-.096.195-.162.437-.047.621.273.436 1.363.014 1.733-.11.513-.172 1.033-.407 1.567-.502 2.275-.408 4.601-.752 6.644-1.845.289-.154.944-.402 1.025-.722.2-.797-2.145-.036-2.427.057"/><circle cx="333.243" cy="32.708" r="3.794" fill="#5187df"/></svg>