<svg xmlns="http://www.w3.org/2000/svg" width="578" height="145" fill="none" viewBox="0 0 578 145"><path fill="#286ad8" d="M433 145V0h72.335C545.467 0 578 32.46 578 72.5S545.467 145 505.335 145z"/><path fill="#286ad8" d="M434 145C434 64.98 369.094.11 289.028.11L289 0v145zM183.424 145C161.651 145 144 127.148 144 105.125V0h145v145z"/><path fill="#286ad8" d="M72.5 145c40.041 0 72.5-32.459 72.5-72.5S112.541 0 72.5 0 0 32.46 0 72.5 32.46 145 72.5 145"/><path fill="#5187df" d="M298.873 119h-35.43c-1.971 0-3.285 1.2-3.285 3s1.314 3 3.285 3h35.43c1.971 0 3.285-1.2 3.285-3s-1.314-3-3.285-3M370.874 119h-35.431c-1.97 0-3.285 1.2-3.285 3s1.315 3 3.285 3h35.431c1.97 0 3.284-1.2 3.284-3s-1.314-3-3.284-3M226.874 119h-35.431c-1.971 0-3.285 1.2-3.285 3s1.314 3 3.285 3h35.431c1.97 0 3.284-1.2 3.284-3s-1.314-3-3.284-3M264.242 90.017c4.426.015 17.738.022 23.885.017.804.07 1.332.642 1.717 1.394.389.684.435 1.583.759 2.266.413.72 1.474 1.02 2.132 1.466.857.516 1.657 1.09 2.593 1.523.515.237 1.175.493 1.489 1.001.146.237.191.475.177.713-.02.33-.454.583-.684.756-.361.274-.666.572-.869.987-.102.205-.171.462-.05.656.288.461 1.441.015 1.832-.116.542-.182 1.092-.43 1.657-.531 2.405-.431 4.864-.795 7.023-1.95.306-.163.999-.425 1.084-.764.212-.842-2.267-.037-2.566.06-.535.19-1.111.179-1.669.26-1.235.214-2.957.57-4.177.61-.615.065-.91-.41-.767-1.022.168-.767.874-1.237.824-2.044-.095-1.636.418-3.456.389-5.109-.087-2.064.769-4.028.831-6.069.054-1.754.302-3.508.091-5.249-.187-1.544-.773-3.379-.651-4.935.029-.377.089-.61.192-.97.428-1.196.023-2.455.028-3.635.004-1.478.264-2.095-.673-2.27s-3.564.083-4.577.016c-1.418.038-2.864-.032-4.155.58-1.604.772-2.856 2.168-3.911 3.556-.573.926-1.738 1.214-2.327 2.118-.596.832-.108 1.76-.074 2.673.037 2.817-.932 2.398-2.723 3.855-.774.63-1.813.75-2.772.772-.761.017-1.816.143-2.553-.05-.732-.193-1.388-.735-2.176-.735-1.121-.13-2.827-.076-4.031.165-.852.187-1.538.347-1.565 1.315-.01.854 1.063 1.727.888 2.603-.384 1.548-2.327 2.501-3.568 3.268-.321.173-.838.424-1.054.732-.36.515-.28 2.084.001 2.087"/></svg>