<svg width="273" height="145" viewBox="0 0 273 145" fill="none" xmlns="http://www.w3.org/2000/svg">
<path d="M0.131775 8.17505C0.131775 3.75677 3.7135 0.175049 8.13177 0.175049H264.132C268.55 0.175049 272.132 3.75677 272.132 8.17505V65.175H0.131775V8.17505Z" fill="#EFF6FB"/>
<path d="M0.131775 112.175H272.132V136.175C272.132 140.593 268.55 144.175 264.132 144.175H8.13178C3.7135 144.175 0.131775 140.593 0.131775 136.175V112.175Z" fill="#0E324F"/>
<path d="M21.503 126.915C21.2309 126.844 20.9867 126.644 20.6928 126.644C20.2762 126.597 19.6409 126.616 19.1939 126.705C18.8757 126.774 18.6206 126.832 18.6109 127.189C18.6073 127.505 19.0069 127.826 18.9413 128.149C18.798 128.72 18.0753 129.071 17.6137 129.354C17.4947 129.417 17.3015 129.511 17.2214 129.624C17.0878 129.813 17.1169 130.392 17.2214 130.394C18.8684 130.399 23.8217 130.401 26.1089 130.4C26.4089 130.425 26.6056 130.637 26.7477 130.913C26.8935 131.165 26.9105 131.497 27.0307 131.749C27.185 132.014 27.5785 132.124 27.8239 132.288C28.1433 132.479 28.4409 132.692 28.7883 132.85C28.9802 132.937 29.2256 133.032 29.3422 133.22L29.409 133.482C29.4017 133.604 29.2402 133.697 29.1539 133.761C29.0203 133.861 28.9061 133.972 28.8308 134.125L28.8126 134.367C28.9195 134.537 29.3483 134.372 29.494 134.324C29.6957 134.256 29.8997 134.165 30.1098 134.129C31.005 133.97 31.9209 133.835 32.7237 133.41C32.8379 133.349 33.0954 133.253 33.127 133.128C33.2059 132.817 32.284 133.114 32.1723 133.15C31.9731 133.22 31.7593 133.215 31.5516 133.246C31.0913 133.325 30.4512 133.456 29.9969 133.47C29.7685 133.495 29.658 133.32 29.7114 133.094C29.7746 132.811 30.037 132.637 30.0187 132.341C29.9823 131.737 30.1742 131.067 30.1633 130.457C30.1305 129.696 30.4487 128.972 30.4718 128.219C30.4924 127.573 30.5848 126.927 30.5058 126.285C30.4366 125.716 30.2192 125.04 30.2641 124.466C30.275 124.327 30.2969 124.24 30.3358 124.108C30.4949 123.667 30.3443 123.203 30.3455 122.768C30.3467 122.224 30.4439 121.996 30.0953 121.931C29.7467 121.867 28.7689 121.962 28.3923 121.937C27.864 121.952 27.3259 121.925 26.8461 122.151C26.2497 122.435 25.7833 122.95 25.391 123.462C25.1772 123.803 24.7436 123.91 24.525 124.243C24.3027 124.55 24.4849 124.891 24.497 125.228C24.5116 126.266 24.1509 126.112 23.484 126.649C23.1961 126.881 22.8099 126.926 22.4528 126.933C22.1698 126.94 21.7775 126.987 21.503 126.915Z" fill="#457AA5"/>
<path d="M74.9473 130.175H47.3163C46.0056 130.175 45.1318 129.375 45.1318 128.174C45.1318 126.973 46.0056 126.175 47.3163 126.175H74.9473C76.258 126.175 77.1318 126.973 77.1318 128.174C77.1318 129.375 76.258 130.175 74.9473 130.175Z" fill="#457AA5"/>
<path d="M114.947 130.175H87.3163C86.0056 130.175 85.1318 129.375 85.1318 128.174C85.1318 126.973 86.0056 126.175 87.3163 126.175H114.947C116.258 126.175 117.132 126.973 117.132 128.174C117.132 129.375 116.258 130.175 114.947 130.175Z" fill="#457AA5"/>
<path d="M154.947 130.175H127.316C126.006 130.175 125.132 129.375 125.132 128.174C125.132 126.973 126.006 126.175 127.316 126.175H154.947C156.258 126.175 157.132 126.973 157.132 128.174C157.132 129.375 156.258 130.175 154.947 130.175Z" fill="#457AA5"/>
<rect width="272" height="43" transform="translate(0.131775 67.175)" fill="#EDEDED"/>
<path d="M96.2615 85.175H23.0021C21.2799 85.175 20.1318 83.9744 20.1318 82.1734C20.1318 80.3724 21.2799 79.175 23.0021 79.175H96.2615C97.9836 79.175 99.1318 80.3724 99.1318 82.1734C99.1318 83.9744 97.9836 85.175 96.2615 85.175Z" fill="#D0D0CE"/>
<path d="M67.8319 98.175H22.4317C21.0517 98.175 20.1318 97.3751 20.1318 96.1751C20.1318 94.9751 21.0517 94.175 22.4317 94.175H67.8319C69.2118 94.175 70.1318 94.9751 70.1318 96.1751C70.1318 97.3751 69.2118 98.175 67.8319 98.175Z" fill="#D0D0CE"/>
<path d="M124.832 98.175H79.4317C78.0517 98.175 77.1318 97.3751 77.1318 96.1751C77.1318 94.9751 78.0517 94.175 79.4317 94.175H124.832C126.212 94.175 127.132 94.9751 127.132 96.1751C127.132 97.3751 126.212 98.175 124.832 98.175Z" fill="#D0D0CE"/>
<path d="M181.832 98.175H136.432C135.052 98.175 134.132 97.3751 134.132 96.1751C134.132 94.9751 135.052 94.175 136.432 94.175H181.832C183.212 94.175 184.132 94.9751 184.132 96.1751C184.132 97.3751 183.212 98.175 181.832 98.175Z" fill="#D0D0CE"/>
</svg>
