<svg width="578" height="146" viewBox="0 0 578 146" fill="none" xmlns="http://www.w3.org/2000/svg">
<path d="M183.424 145.895C161.651 145.895 144 128.043 144 106.02V0.89502H434V145.895H183.424Z" fill="#286AD8"/>
<g style="mix-blend-mode:multiply" opacity="0.82">
<mask id="mask0_623_665" style="mask-type:alpha" maskUnits="userSpaceOnUse" x="144" y="0" width="290" height="146">
<path d="M183.424 145.895C161.651 145.895 144 128.043 144 106.02V0.89502H434V145.895H183.424Z" fill="#286AD8"/>
</mask>
<g mask="url(#mask0_623_665)">
<g style="mix-blend-mode:multiply">
<path fill-rule="evenodd" clip-rule="evenodd" d="M199.958 121.419L263.154 184.615L316.961 184.605L232.983 100.626C232.979 100.626 232.975 100.625 232.97 100.625C232.966 100.624 232.962 100.624 232.959 100.624C232.92 100.247 232.773 100.039 232.309 99.9528C231.798 99.8576 230.749 99.8999 229.775 99.9392C229.08 99.9673 228.424 99.9938 228.03 99.9676C227.848 99.9725 227.665 99.9755 227.483 99.9785C226.335 99.9976 225.185 100.017 224.144 100.511C222.644 101.232 221.474 102.538 220.487 103.836C220.214 104.276 219.799 104.562 219.384 104.848C218.983 105.124 218.582 105.4 218.311 105.816C217.919 106.363 218.028 106.954 218.139 107.553C218.185 107.807 218.232 108.062 218.242 108.316C218.267 110.258 217.781 110.555 216.853 111.124C216.522 111.326 216.135 111.563 215.695 111.921C214.972 112.509 214 112.622 213.103 112.642C212.936 112.646 212.754 112.656 212.565 112.665C211.945 112.697 211.243 112.733 210.716 112.595C210.449 112.525 210.193 112.405 209.937 112.285C209.535 112.097 209.131 111.908 208.681 111.908C207.633 111.787 206.038 111.837 204.912 112.063C204.115 112.238 203.473 112.387 203.448 113.292C203.444 113.661 203.656 114.034 203.869 114.409C204.117 114.845 204.367 115.285 204.279 115.726C203.967 116.984 202.556 117.821 201.429 118.49C201.259 118.591 201.095 118.688 200.942 118.783C200.912 118.799 200.88 118.816 200.846 118.834C200.547 118.992 200.139 119.208 199.957 119.467C199.62 119.948 199.694 121.416 199.958 121.419ZM254.882 117.003L321.349 183.394C321.833 184.076 322.595 184.523 323.461 184.523H381.75C383.213 184.523 384.399 183.267 384.399 181.717C384.399 180.73 383.916 179.866 383.189 179.366L316.534 112.712C316.051 112.031 315.289 111.584 314.422 111.584H256.134C254.67 111.584 253.484 112.84 253.484 114.389C253.484 115.376 253.967 116.24 254.695 116.74L254.882 117.003ZM371.618 112.712C371.134 112.031 370.372 111.584 369.506 111.584H331.79C330.327 111.584 329.14 112.84 329.14 114.389C329.14 115.376 329.623 116.24 330.35 116.74L397.005 183.394C397.489 184.076 398.251 184.523 399.118 184.523H436.834C438.297 184.523 439.483 183.267 439.483 181.717C439.483 180.73 438.999 179.866 438.272 179.366L371.618 112.712Z" fill="url(#paint0_linear_623_665)" fill-opacity="0.73"/>
</g>
</g>
</g>
<path d="M253.484 114.389C253.484 112.839 254.67 111.583 256.134 111.583H314.422C315.886 111.583 317.071 112.839 317.071 114.389C317.071 115.938 315.886 117.194 314.422 117.194H256.134C254.67 117.194 253.484 115.938 253.484 114.389Z" fill="#5187DF"/>
<path d="M329.14 114.389C329.14 112.839 330.326 111.583 331.79 111.583H369.506C370.969 111.583 372.155 112.839 372.155 114.389C372.155 115.938 370.969 117.194 369.506 117.194H331.79C330.326 117.194 329.14 115.938 329.14 114.389Z" fill="#5187DF"/>
<path d="M237.53 128.412C237.029 128.589 236.49 128.578 235.968 128.654C234.814 128.855 233.204 129.187 232.062 129.226C231.488 129.286 231.211 128.842 231.345 128.269C231.502 127.552 232.163 127.112 232.116 126.358C232.027 124.828 232.507 123.126 232.479 121.581C232.398 119.65 233.199 117.813 233.257 115.905C233.307 114.265 233.539 112.624 233.342 110.997C233.167 109.552 232.619 107.837 232.733 106.382C232.761 106.029 232.816 105.811 232.913 105.474C233.313 104.356 232.934 103.179 232.939 102.076C232.943 100.693 233.186 100.116 232.309 99.9529C231.433 99.7896 228.977 100.03 228.03 99.9675C226.703 100.004 225.351 99.938 224.144 100.511C222.644 101.232 221.474 102.538 220.487 103.836C219.951 104.702 218.862 104.971 218.311 105.816C217.753 106.594 218.21 107.461 218.242 108.315C218.276 110.95 217.37 110.558 215.695 111.921C214.972 112.509 214 112.622 213.103 112.642C212.392 112.659 211.405 112.776 210.716 112.595C210.032 112.415 209.418 111.908 208.681 111.908C207.633 111.787 206.038 111.837 204.912 112.063C204.115 112.238 203.473 112.387 203.448 113.292C203.439 114.091 204.442 114.907 204.279 115.726C203.919 117.174 202.103 118.065 200.942 118.783C200.642 118.944 200.159 119.179 199.957 119.467C199.62 119.948 199.694 121.416 199.958 121.419C204.096 121.433 216.545 121.439 222.292 121.434C223.044 121.5 223.538 122.035 223.898 122.737C224.262 123.378 224.305 124.218 224.608 124.857C224.995 125.531 225.986 125.81 226.602 126.228C227.403 126.71 228.151 127.248 229.026 127.651C229.508 127.873 230.125 128.113 230.418 128.588C230.555 128.809 230.597 129.032 230.584 129.255C230.566 129.563 230.159 129.8 229.944 129.962C229.607 130.217 229.322 130.497 229.132 130.884C229.037 131.077 228.972 131.317 229.085 131.498C229.355 131.929 230.433 131.512 230.798 131.389C231.305 131.219 231.819 130.988 232.348 130.893C234.597 130.49 236.897 130.149 238.916 129.07C239.201 128.917 239.849 128.672 239.929 128.355C240.127 127.568 237.809 128.32 237.53 128.412Z" fill="#5187DF"/>
<path d="M578 40.77V145.895C497.919 145.895 433 80.9763 433 0.89502H538.125C560.147 0.89502 578 18.7477 578 40.77Z" fill="#286AD8"/>
<path d="M72.5 145.895C112.541 145.895 145 113.436 145 73.395C145 33.3544 112.541 0.89502 72.5 0.89502C32.4593 0.89502 0 33.3544 0 73.395C0 113.436 32.4593 145.895 72.5 145.895Z" fill="#286AD8"/>
<defs>
<linearGradient id="paint0_linear_623_665" x1="189" y1="77.5" x2="449.412" y2="66.6298" gradientUnits="userSpaceOnUse">
<stop stop-color="#7AA5E7"/>
<stop offset="1" stop-color="#003BA1"/>
</linearGradient>
</defs>
</svg>
