<svg xmlns="http://www.w3.org/2000/svg" width="273" height="144" fill="none" viewBox="0 0 273 144"><path fill="#eff6fb" d="M.132 8.175a8 8 0 0 1 8-8h256a8 8 0 0 1 8 8v56h-272z"/><path fill="#0e324f" d="M.132 111.175h272v24a8 8 0 0 1-8 8h-256a8 8 0 0 1-8-8z"/><path fill="#457aa5" d="M21.503 125.915c-.272-.071-.516-.271-.81-.271a5.6 5.6 0 0 0-1.499.061c-.318.069-.573.127-.583.484-.004.316.396.637.33.96-.143.571-.866.922-1.327 1.205-.12.063-.312.157-.393.27-.133.189-.104.768 0 .77 1.648.005 6.6.007 8.888.006.3.025.497.237.639.513.146.252.163.584.283.836.154.265.548.375.793.539.32.191.617.404.964.562.192.087.438.182.554.37l.067.262c-.007.122-.169.215-.255.279a1 1 0 0 0-.323.364l-.018.242c.107.17.535.005.681-.043.202-.068.406-.159.616-.195.895-.159 1.81-.294 2.614-.719.114-.061.372-.157.403-.282.079-.311-.843-.014-.955.022-.199.07-.413.065-.62.096-.46.079-1.1.21-1.555.224-.228.025-.339-.15-.285-.376.063-.283.325-.457.307-.753-.037-.604.155-1.274.144-1.884-.032-.761.286-1.485.309-2.238.02-.646.113-1.292.034-1.934-.07-.569-.287-1.245-.242-1.819.011-.139.033-.226.072-.358.159-.441.008-.905.01-1.34 0-.544.098-.772-.25-.837-.35-.064-1.327.031-1.704.006-.528.015-1.066-.012-1.546.214-.596.284-1.063.799-1.455 1.311-.214.341-.647.448-.866.781-.222.307-.04.648-.028.985.015 1.038-.346.884-1.013 1.421-.288.232-.674.277-1.031.284-.283.007-.675.054-.95-.018m53.444 3.26h-27.63c-1.311 0-2.185-.8-2.185-2.001s.874-1.999 2.184-1.999h27.631c1.311 0 2.185.798 2.185 1.999s-.874 2.001-2.185 2.001m40 0h-27.63c-1.311 0-2.185-.8-2.185-2.001s.874-1.999 2.184-1.999h27.631c1.311 0 2.185.798 2.185 1.999s-.874 2.001-2.185 2.001m40 0h-27.631c-1.31 0-2.184-.8-2.184-2.001s.874-1.999 2.184-1.999h27.631c1.311 0 2.185.798 2.185 1.999s-.874 2.001-2.185 2.001"/><path fill="#ededed" d="M.132 66.175h272v43h-272z"/><path fill="#d0d0ce" d="M96.262 84.175h-73.26c-1.722 0-2.87-1.2-2.87-3.002 0-1.8 1.148-2.998 2.87-2.998h73.26c1.722 0 2.87 1.197 2.87 2.998s-1.148 3.002-2.87 3.002m-28.43 13h-45.4c-1.38 0-2.3-.8-2.3-2s.92-2 2.3-2h45.4c1.38 0 2.3.8 2.3 2s-.92 2-2.3 2m57 0h-45.4c-1.38 0-2.3-.8-2.3-2s.92-2 2.3-2h45.4c1.38 0 2.3.8 2.3 2s-.92 2-2.3 2m57 0h-45.4c-1.38 0-2.3-.8-2.3-2s.92-2 2.3-2h45.4c1.38 0 2.3.8 2.3 2s-.92 2-2.3 2"/></svg>