<svg xmlns="http://www.w3.org/2000/svg" width="577" height="145" fill="none" viewBox="0 0 577 145"><path fill="#286ad8" d="M434 145H328.424C306.651 145 289 127.147 289 105.125V0h145zM289 105.125V0c-80.081 0-145 64.919-145 145h105.125C271.148 145 289 127.147 289 105.125"/><path fill="#286ad8" d="M536.879 0c21.773 0 39.424 17.852 39.424 39.875V145H427V0zM45.656 74.25c-18.018 0-32.625-14.607-32.625-32.626S27.638 9 45.656 9s32.625 14.606 32.625 32.624S63.674 74.25 45.656 74.25M0 145h145V0z"/><path fill="#1643bb" fill-opacity=".5" d="M522.989 37.857a5.3 5.3 0 0 1 3.9 1.724c.115.106.212.203.318.318a5 5 0 0 1 .318.318q.16.146.319.319.171.158.317.317c.115.106.213.204.319.318q.172.16.318.319.159.145.318.318.172.159.319.319c.115.106.212.203.318.318a5 5 0 0 1 .318.318q.16.146.319.319.173.159.318.318c.115.106.212.203.318.318q.173.16.319.319.159.145.317.317.172.159.319.318c.114.106.212.204.318.319q.173.159.318.318.16.146.319.318a5 5 0 0 1 .318.319c.115.106.212.203.318.318q.172.159.319.319.159.145.318.318a5 5 0 0 1 .318.318c.115.106.213.204.319.319.114.105.211.202.317.317q.173.159.318.318.16.146.319.319a5 5 0 0 1 .318.318c.115.106.212.203.319.318q.172.16.318.319.159.146.318.318.172.159.319.319c.114.105.212.203.318.318a5 5 0 0 1 .318.318q.16.146.319.319.171.158.317.317c.115.106.212.203.318.318q.173.16.319.319.159.145.318.318.172.159.319.318c.114.107.212.204.318.319a5 5 0 0 1 .318.318q.16.146.319.318.172.16.318.319c.115.106.212.203.318.318q.173.16.319.319.158.144.317.317a5 5 0 0 1 .318.318c.115.106.213.204.319.319.115.106.212.203.318.318q.172.159.319.318.159.147.318.319a5 5 0 0 1 .318.318c.115.106.213.203.319.318q.172.16.318.319.159.146.318.318.173.159.319.319c.114.105.211.202.317.317a5 5 0 0 1 .318.318q.16.146.319.319.173.159.318.318c.115.106.212.203.318.318q.173.16.319.319.159.146.318.318.172.159.319.318c.114.106.212.204.318.319a5 5 0 0 1 .318.318q.16.146.319.319.171.158.317.317c.115.106.212.203.318.318q.173.16.319.319.159.146.318.318a5 5 0 0 1 .318.318c.115.106.213.204.319.319.115.106.212.203.318.318q.172.159.319.318.159.147.318.319a5 5 0 0 1 .318.318c.115.106.213.204.319.318q.171.159.317.318.159.145.318.318.173.16.319.319c.115.106.212.203.318.318a5 5 0 0 1 .318.318q.16.147.319.319a5 5 0 0 1 .318.318 6 6 0 0 1 .319.318q.172.16.318.319.159.145.318.318.172.16.319.318c.114.106.211.203.317.318a5 5 0 0 1 .318.318q.16.146.319.319.173.159.318.318c.115.106.212.203.318.318q.173.16.319.319.159.145.318.318a5 5 0 0 1 .318.318c.115.106.213.204.319.319.115.106.212.203.318.318q.172.159.319.318.158.145.317.318.173.159.318.318c.115.106.213.204.319.319q.173.159.318.318.159.145.318.318.173.159.319.319c.115.106.212.203.318.318a5 5 0 0 1 .318.318q.16.146.319.319a5 5 0 0 1 .318.318c.115.106.213.204.319.318q.171.159.317.318.159.145.318.318.172.16.319.319c.115.106.212.203.318.318a5 5 0 0 1 .318.318q.16.146.319.319.173.159.318.318c.115.106.212.203.318.318q.173.16.319.319.159.145.318.318.172.159.319.318c.114.106.211.203.317.318.115.106.212.203.318.318q.172.159.319.319.159.145.318.318a5 5 0 0 1 .318.318c.115.106.213.204.319.319a5 5 0 0 1 .318.318q.159.145.318.318.173.16.319.319c.115.106.212.203.318.318a5 5 0 0 1 .318.318q.159.145.318.318a5 5 0 0 1 .318.318c.115.106.213.204.319.318q.172.16.318.319.159.145.318.318.172.159.319.319c.115.106.212.203.318.318a5 5 0 0 1 .318.318q.16.146.319.319a5 5 0 0 1 .318.318c.115.106.213.203.318.318q.173.159.318.318.159.145.318.318.172.159.319.318c.114.106.212.204.318.319.115.106.212.203.318.318q.172.159.319.319.159.146.318.318a5 5 0 0 1 .318.318c.115.106.213.204.319.319l.082.079V145H392.812c-.034-.035-.069-.237-.101-.275-.106-.106-.221-.203-.318-.318-.107-.106-.222-.204-.319-.319-.106-.106-.221-.203-.318-.318-.106-.106-.221-.203-.319-.318-.106-.106-.221-.204-.318-.319-.106-.106-.22-.203-.317-.318-.106-.106-.221-.203-.319-.318-.106-.106-.221-.204-.318-.319-.106-.106-.221-.203-.318-.318-.106-.106-.221-.204-.319-.318-.106-.106-.221-.203-.318-.318-.106-.106-.221-.203-.318-.318-.106-.106-.222-.204-.319-.319-.106-.106-.221-.203-.318-.318-.106-.106-.221-.203-.318-.318-.107-.106-.222-.204-.319-.319-.106-.106-.22-.203-.317-.318-.106-.106-.221-.203-.319-.318-.106-.106-.221-.204-.318-.319-.106-.106-.221-.203-.318-.318-.106-.106-.221-.203-.319-.318-.106-.106-.221-.203-.318-.318-.106-.106-.221-.203-.318-.318-.106-.106-.222-.204-.319-.319-.106-.106-.221-.203-.318-.318-.106-.106-.221-.203-.318-.318-.107-.106-.222-.204-.319-.319-.106-.106-.22-.203-.317-.318-.106-.106-.221-.203-.319-.318-.106-.106-.221-.204-.318-.319-.106-.106-.221-.203-.318-.318-.106-.106-.221-.204-.319-.318-.106-.106-.221-.203-.318-.318-.106-.106-.221-.203-.318-.318-.106-.106-.221-.204-.319-.319-.106-.106-.221-.203-.318-.318-.106-.106-.221-.203-.318-.318-.107-.106-.222-.204-.319-.319-.106-.106-.22-.203-.317-.318-.106-.106-.221-.203-.319-.318-.106-.106-.221-.204-.318-.319-.106-.106-.221-.203-.318-.318-.106-.106-.221-.203-.319-.318-.106-.106-.221-.203-.318-.318-.106-.106-.221-.203-.318-.318-.106-.106-.221-.204-.319-.319-.106-.106-.221-.203-.318-.318-.106-.106-.221-.203-.318-.318-.106-.106-.222-.204-.319-.319-.106-.106-.22-.203-.317-.318-.106-.106-.221-.203-.319-.318-.106-.106-.221-.204-.318-.319-.106-.106-.221-.203-.318-.318-.106-.106-.221-.203-.319-.318-.106-.106-.221-.203-.318-.318-.106-.106-.221-.203-.318-.318-.106-.106-.221-.204-.319-.318-.106-.107-.221-.204-.318-.319-.106-.106-.221-.203-.318-.318-.106-.106-.222-.204-.319-.319-.106-.106-.22-.203-.317-.318-.106-.106-.221-.203-.318-.318-.107-.106-.222-.204-.319-.319-.106-.106-.221-.203-.318-.318-.106-.106-.221-.203-.319-.318-.106-.106-.221-.203-.318-.318a5.27 5.27 0 0 1-1.636-3.289 6 6 0 0 1-.026-.539v-76.73a5.31 5.31 0 0 1 5.305-5.304z" opacity=".55" style="mix-blend-mode:multiply"/><rect width="156.251" height="85.339" x="369.856" y="37.972" stroke="#5287df" stroke-width="2" rx="5"/><path fill="#5287df" d="M368.856 108.979h158.252v9.332a6 6 0 0 1-6 6H374.856a6 6 0 0 1-6-6z"/><path fill="#286ad8" d="M376.147 116.487c0-.722.586-1.308 1.309-1.308h28.431a1.308 1.308 0 0 1 0 2.617h-28.431a1.31 1.31 0 0 1-1.309-1.309"/><path fill="#5287df" d="M447.672 57.5c-9.517 0-17.23 7.713-17.23 17.23s7.713 17.229 17.23 17.229 17.229-7.713 17.229-17.23-7.713-17.228-17.229-17.228m6.283 17.508-9.641 5.565a.617.617 0 0 1-.924-.535v-11.13c0-.469.513-.77.924-.535l9.641 5.565c.41.234.41.828 0 1.063z"/></svg>