<svg xmlns="http://www.w3.org/2000/svg" width="272" height="143" fill="none" viewBox="0 0 272 143"><rect width="272" height="143" fill="#ededed" rx="8"/><rect width="213.849" height="117.128" x="29.075" y="12.936" fill="#fff" stroke="#d9d9d9" stroke-width="2" rx="5"/><path fill="#154973" d="M28.075 110.151h215.849v14.913a6 6 0 0 1-6 6H34.075a6 6 0 0 1-6-6z"/><path fill="#cddde9" d="M38.02 120.392c0-.985.799-1.785 1.785-1.785h38.778a1.786 1.786 0 0 1 0 3.571H39.805c-.986 0-1.785-.8-1.785-1.786"/><g clip-path="url(#a)"><path fill="#1b1b1b" fill-opacity=".6" d="M136.349 82.325c10.493 0 19-8.506 19-19s-8.507-19-19-19-19 8.507-19 19 8.506 19 19 19"/><path stroke="#fff" stroke-opacity=".01" d="M136.349 43.825c10.769 0 19.5 8.73 19.5 19.5s-8.731 19.5-19.5 19.5-19.5-8.73-19.5-19.5 8.73-19.5 19.5-19.5Z"/><g filter="url(#b)"><path fill="#fff" d="m143.221 62.739-10.629-6.137a.678.678 0 0 0-1.017.586v12.275c0 .521.565.847 1.017.586l10.629-6.137a.678.678 0 0 0 0-1.173"/></g></g><defs><clipPath id="a"><path fill="#fff" d="M117.349 44.325h38v38h-38z"/></clipPath><filter id="b" width="21.985" height="23.631" x="126.575" y="55.51" color-interpolation-filters="sRGB" filterUnits="userSpaceOnUse"><feFlood flood-opacity="0" result="BackgroundImageFix"/><feColorMatrix in="SourceAlpha" result="hardAlpha" values="0 0 0 0 0 0 0 0 0 0 0 0 0 0 0 0 0 0 127 0"/><feMorphology in="SourceAlpha" radius="1" result="effect1_dropShadow_243_310"/><feOffset dy="4"/><feGaussianBlur stdDeviation="3"/><feComposite in2="hardAlpha" operator="out"/><feColorMatrix values="0 0 0 0 0.105882 0 0 0 0 0.105882 0 0 0 0 0.105882 0 0 0 0.01 0"/><feBlend in2="BackgroundImageFix" result="effect1_dropShadow_243_310"/><feColorMatrix in="SourceAlpha" result="hardAlpha" values="0 0 0 0 0 0 0 0 0 0 0 0 0 0 0 0 0 0 127 0"/><feMorphology in="SourceAlpha" radius="1" result="effect2_dropShadow_243_310"/><feOffset dy="4"/><feGaussianBlur stdDeviation="3"/><feComposite in2="hardAlpha" operator="out"/><feColorMatrix values="0 0 0 0 0.105882 0 0 0 0 0.105882 0 0 0 0 0.105882 0 0 0 0.1 0"/><feBlend in2="effect1_dropShadow_243_310" result="effect2_dropShadow_243_310"/><feBlend in="SourceGraphic" in2="effect2_dropShadow_243_310" result="shape"/></filter></defs></svg>