<svg xmlns="http://www.w3.org/2000/svg" width="218" height="188" fill="none" viewBox="0 0 218 188"><path fill="#f6f6f6" d="M0 0h218v188H0z"/><path fill="#5187df" d="M109.5 118q10.402 0 17.684-7 7.281-7 7.281-17t-7.281-17-17.684-7-17.684 7-7.281 17 7.281 17 17.684 7m0-9.6q-6.242 0-10.61-4.2Q94.52 100 94.52 94q0-6 4.369-10.2t10.61-4.2 10.61 4.2q4.37 4.2 4.369 10.2 0 6-4.369 10.2t-10.61 4.2m0 25.6q-18.585 0-33.91-9.6-15.326-9.6-24.203-25.333-.694-1.2-1.04-2.467A9.8 9.8 0 0 1 50 94q0-1.334.347-2.6.346-1.267 1.04-2.467Q60.264 73.2 75.589 63.6T109.5 54t33.911 9.6 24.202 25.333q.693 1.2 1.04 2.467A9.8 9.8 0 0 1 169 94a9.8 9.8 0 0 1-.347 2.6 10.4 10.4 0 0 1-1.04 2.467q-8.877 15.733-24.202 25.333T109.5 134m0-10.667q15.672 0 28.779-7.933T158.321 94q-6.936-13.467-20.042-21.4T109.5 64.667q-15.672 0-28.78 7.933Q67.615 80.533 60.68 94q6.935 13.467 20.04 21.4 13.108 7.933 28.78 7.933"/></svg>