<svg xmlns="http://www.w3.org/2000/svg" width="285" height="170" fill="none" viewBox="0 0 285 170"><path fill="#f6f6f6" d="M0 8a8 8 0 0 1 8-8h269a8 8 0 0 1 8 8v162H0z"/><path fill="#457aa5" d="M59.098 108.967q-4.705 0-8.838-2.078-4.131-2.079-6.771-5.791L33.33 86.691q-.402-.554-.316-1.191t.545-1.08q1.148-1.164 2.841-1.33t3.07.775l6.313 4.212V67.649q0-.942.66-1.579t1.636-.637 1.635.637.66 1.58v24.693q0 1.33-1.234 1.967-1.233.638-2.381-.138l-4.878-3.27 5.452 7.647a13.93 13.93 0 0 0 5.107 4.405q3.099 1.58 6.657 1.58 5.91 0 10.072-4.018 4.16-4.017 4.16-9.724V69.866q0-.942.66-1.58.66-.637 1.636-.637t1.636.638q.66.636.66 1.579v20.926q0 7.59-5.481 12.883t-13.343 5.292M57.262 61q.975 0 1.635.637.66.638.66 1.58v19.152q0 .942-.66 1.58-.66.637-1.635.637t-1.636-.638a2.1 2.1 0 0 1-.66-1.579V63.216q0-.941.66-1.579.66-.637 1.636-.637m9.182 2.216q.975 0 1.635.638.66.636.66 1.579v16.936q0 .942-.66 1.58-.66.637-1.635.637-.976 0-1.636-.638a2.1 2.1 0 0 1-.66-1.579V65.433q0-.942.66-1.58.66-.636 1.636-.637M172.5 95.8q4.807 0 8.173-3.15t3.365-7.65q0-4.5-3.365-7.65T172.5 74.2q-4.807 0-8.173 3.15T160.962 85q0 4.5 3.365 7.65t8.173 3.15m0-4.32q-2.885 0-4.904-1.89T165.577 85t2.019-4.59q2.02-1.89 4.904-1.89t4.904 1.89q2.019 1.89 2.019 4.59t-2.019 4.59q-2.02 1.89-4.904 1.89m0 11.52q-8.59 0-15.673-4.32t-11.186-11.4a4.6 4.6 0 0 1-.481-1.11Q145 85.6 145 85t.16-1.17.481-1.11q4.103-7.08 11.186-11.4T172.5 67t15.673 4.32 11.186 11.4q.32.54.481 1.11T200 85q0 .6-.16 1.17t-.481 1.11q-4.103 7.08-11.186 11.4T172.5 103m0-4.8q7.244 0 13.301-3.57t9.263-9.63q-3.205-6.06-9.263-9.63T172.5 71.8q-7.244 0-13.301 3.57T149.936 85q3.205 6.06 9.263 9.63T172.5 98.2M248.333 78.362q0 3.711-1.195 7.04a21.9 21.9 0 0 1-3.355 6.099q-.64.825-.641 1.797 0 .972.7 1.68.758.706 1.75.618.991-.09 1.633-.913 2.684-3.36 4.229-7.542Q253 82.957 253 78.36q0-4.713-1.546-8.896-1.545-4.184-4.229-7.542-.642-.825-1.633-.913-.992-.09-1.75.619a2.3 2.3 0 0 0-.7 1.679q0 .972.641 1.797a21.8 21.8 0 0 1 3.355 6.127q1.195 3.36 1.195 7.13m-21 5.892q2.45 0 4.142-1.739 1.692-1.738 1.692-4.153 0-2.475-1.692-4.184-1.691-1.708-4.142-1.708-2.45 0-4.141 1.708-1.692 1.71-1.692 4.184 0 2.415 1.692 4.154t4.141 1.738m-11.666 15.319q0-1.002-.671-1.68t-1.663-.677-1.662.678q-.67.677-.671 1.679 0 3.888 2.742 6.658 2.741 2.769 6.591 2.769 3.617 0 5.921-1.827t3.529-5.361q.992-2.946 1.896-4.125t4.171-3.77q3.617-2.947 5.717-6.658t2.1-8.897q0-7.012-4.696-11.755t-11.638-4.743q-6.941 0-11.637 4.743T211 78.362q0 1.002.671 1.679.67.678 1.662.678t1.663-.678q.67-.677.671-1.68 0-5.007 3.354-8.395t8.312-3.388q4.959 0 8.313 3.388T239 78.362q0 4.006-1.575 6.834-1.575 2.829-4.492 5.067-3.033 2.24-4.725 4.36a14.7 14.7 0 0 0-2.508 4.596q-.817 2.593-1.954 3.83t-3.413 1.237q-1.925 0-3.295-1.384-1.371-1.385-1.371-3.33M107.263 89.034l.233 1.909q.059.477.378.775.32.298.785.298h2.56q.465 0 .785-.298t.378-.775l.232-1.91q.466-.178.844-.417t.669-.537l1.745.776q.407.18.814.06t.64-.537l1.279-2.267a1.18 1.18 0 0 0 .146-.835 1.27 1.27 0 0 0-.436-.716l-1.513-1.133q.117-.477.117-.954t-.117-.955l1.513-1.133q.349-.298.436-.716a1.18 1.18 0 0 0-.146-.835l-1.279-2.266q-.233-.418-.64-.537a1.16 1.16 0 0 0-.814.06l-1.745.775a3.7 3.7 0 0 0-.669-.537 5 5 0 0 0-.844-.417l-.232-1.909a1.23 1.23 0 0 0-.378-.775 1.1 1.1 0 0 0-.785-.299h-2.56q-.465 0-.785.299a1.23 1.23 0 0 0-.378.775l-.233 1.909q-.465.178-.843.417a3.7 3.7 0 0 0-.669.537l-1.745-.775a1.16 1.16 0 0 0-.814-.06q-.407.12-.64.537l-1.279 2.266a1.18 1.18 0 0 0-.146.835q.087.418.436.716l1.513 1.133a4 4 0 0 0-.117.955q0 .477.117.954l-1.513 1.133a1.27 1.27 0 0 0-.436.716q-.087.418.146.835l1.279 2.267q.233.417.64.537t.814-.06l1.745-.776q.291.3.669.537.378.24.843.418m2.676-2.982a3.33 3.33 0 0 1-2.472-1.044q-1.018-1.044-1.018-2.535t1.018-2.535a3.33 3.33 0 0 1 2.472-1.044q1.453 0 2.472 1.044 1.018 1.043 1.018 2.535 0 1.491-1.018 2.535a3.33 3.33 0 0 1-2.472 1.044m-13.96 12.406a22 22 0 0 1-5.147-7.247A21.4 21.4 0 0 1 89 82.473q0-8.947 6.107-15.21T109.94 61q7.27 0 12.883 4.384t7.3 11.422l3.024 12.228q.29 1.132-.407 2.058-.698.924-1.861.924h-4.653v7.158q0 1.968-1.367 3.37-1.367 1.401-3.286 1.402h-4.653v2.385q0 1.014-.669 1.7-.67.686-1.658.686-.989 0-1.658-.686t-.669-1.7v-4.771q0-1.014.669-1.7.67-.686 1.658-.686h6.98V89.63q0-1.014.669-1.7t1.657-.686h3.955L125.643 78q-1.338-5.427-5.7-8.827t-10.004-3.4q-6.747 0-11.516 4.831t-4.77 11.75q0 3.58 1.425 6.8t4.043 5.726l1.512 1.432v10.02q0 1.014-.67 1.7-.668.686-1.657.686t-1.657-.686q-.67-.686-.67-1.7z"/></svg>