<svg xmlns="http://www.w3.org/2000/svg" width="285" height="170" fill="none" viewBox="0 0 285 170"><path fill="#f7fafd" d="M0 8a8 8 0 0 1 8-8h269a8 8 0 0 1 8 8v162H0z"/><path fill="#0e324f" fill-rule="evenodd" d="m80 54 25 15.252v30.49L80 115 55 99.742v-30.49zM61.307 73.096v22.808L80 107.304l18.693-11.4V73.09L80 61.696z" clip-rule="evenodd"/><path fill="#0e324f" d="M86.307 84.497c0 3.684-2.826 6.663-6.307 6.663s-6.307-2.979-6.307-6.663c0-3.678 2.826-6.663 6.307-6.663s6.307 2.985 6.307 6.663"/><path fill="#154973" fill-rule="evenodd" d="M142.5 54 168 69.252v30.49L142.5 115 117 99.742v-30.49zm-19.067 19.096v22.808l19.067 11.4 19.067-11.4V73.09L142.5 61.696z" clip-rule="evenodd"/><path fill="#154973" d="M148.933 84.497c0 3.684-2.882 6.663-6.433 6.663s-6.433-2.979-6.433-6.663c0-3.678 2.882-6.663 6.433-6.663s6.433 2.985 6.433 6.663"/><path fill="#457aa5" fill-rule="evenodd" d="m205 54 25 15.252v30.49L205 115l-25-15.258v-30.49zm-18.693 19.096v22.808l18.693 11.4 18.693-11.4V73.09L205 61.696z" clip-rule="evenodd"/><path fill="#457aa5" d="M211.307 84.497c0 3.684-2.826 6.663-6.307 6.663s-6.307-2.979-6.307-6.663c0-3.678 2.826-6.663 6.307-6.663s6.307 2.985 6.307 6.663"/></svg>