<svg width="870" height="435" viewBox="0 0 870 435" fill="none" xmlns="http://www.w3.org/2000/svg">
<rect x="580" y="290.001" width="145" height="145" fill="#CCE0F6"/>
<path d="M145 145H0C0 64.919 64.919 0 145 0V145Z" fill="#A3C2EE"/>
<path d="M580 290V435H435L580 290ZM444 335.656C444 317.638 458.607 303.031 476.625 303.031C494.643 303.031 509.25 317.638 509.25 335.656C509.25 353.674 494.643 368.281 476.625 368.281C458.607 368.281 444 353.675 444 335.656Z" fill="url(#paint0_linear_3216_666)"/>
<path d="M870 290.001H725V145.001L870 290.001ZM824.344 154.001C842.362 154.001 856.969 168.607 856.969 186.626C856.969 204.644 842.362 219.251 824.344 219.251C806.326 219.251 791.719 204.644 791.719 186.626C791.719 168.607 806.325 154.001 824.344 154.001Z" fill="url(#paint1_linear_3216_666)"/>
<path d="M72.4998 290C112.54 290 145 257.541 145 217.5C145 177.46 112.54 145.001 72.4998 145.001C32.4593 145.001 0 177.46 0 217.5C0 257.541 32.4593 290 72.4998 290Z" fill="#286AD8"/>
<g opacity="0.5" style="mix-blend-mode:multiply">
<path d="M72.3276 289.996C72.3568 289.996 72.4071 289.998 72.4363 289.998C72.4503 289.998 72.4858 290 72.4998 290C112.54 290 145 257.541 145 217.5C145 215.193 144.88 212.914 144.669 210.661L72.5 162.487L59.4704 202.588H17.3054L51.4176 227.372L38.3879 267.473L72.3276 289.996Z" fill="#1A4690"/>
</g>
<path d="M72.5 162.487L85.5296 202.588H127.695L93.5824 227.372L106.612 267.473L72.5 242.69L38.3878 267.473L51.4175 227.372L17.3054 202.588H59.4703L72.5 162.487Z" fill="#7FA3E9"/>
<path d="M435 250.126C435 272.148 452.852 290.001 474.875 290.001H580V145.001L435 145.001V250.126Z" fill="#A3C2EE"/>
<path d="M184.875 435.001H290C290 354.919 225.081 290.001 145 290.001V395.126C145 417.148 162.853 435.001 184.875 435.001Z" fill="#154973"/>
<path d="M725 39.8756V145.001C805.081 145.001 870 80.0819 870 0.000610352L764.875 0.000610352C742.853 0.000610352 725 17.8533 725 39.8756Z" fill="#A3C2EE"/>
<path d="M184.876 290.001C162.853 290.001 145 272.322 145 250.515V184.487C145 162.68 162.853 145.001 184.876 145.001H290V290.001H184.876Z" fill="#1B52B1"/>
<path d="M830.124 290.001C852.147 290.001 870 307.679 870 329.487V395.514C870 417.322 852.147 435.001 830.124 435.001H725V290.001H830.124Z" fill="#3A65DA"/>
<path d="M619.875 435.001H725C725 354.919 660.081 290.001 580 290.001V395.126C580 417.148 597.853 435.001 619.875 435.001Z" fill="url(#paint2_linear_3216_666)"/>
<path d="M580 145.001V0.000579834L652.335 0.000579834C692.467 0.000579834 725 32.46 725 72.5007C725 112.541 692.467 145.001 652.335 145.001L580 145.001Z" fill="#154973"/>
<path d="M395.125 290H290C290 209.919 354.919 145 435 145V250.125C435 272.147 417.147 290 395.125 290Z" fill="url(#paint3_linear_3216_666)"/>
<path d="M0 435C91 435 145 380.5 145 290C52.5 290 0 342 0 435Z" fill="url(#paint4_linear_3216_666)"/>
<path d="M652.5 290C692.54 290 725 257.541 725 217.5C725 177.46 692.54 145.001 652.5 145.001C612.459 145.001 580 177.46 580 217.5C580 257.541 612.459 290 652.5 290Z" fill="url(#paint5_linear_3216_666)"/>
<mask id="mask0_3216_666" style="mask-type:alpha" maskUnits="userSpaceOnUse" x="580" y="145" width="145" height="145">
<path d="M652.5 290C692.54 290 725 257.541 725 217.5C725 177.46 692.54 145.001 652.5 145.001C612.459 145.001 580 177.46 580 217.5C580 257.541 612.459 290 652.5 290Z" fill="url(#paint6_linear_3216_666)"/>
</mask>
<g mask="url(#mask0_3216_666)">
<path opacity="0.5" d="M742.413 298.828V298.6H742.185V298.372H741.957V298.143H741.729V297.915H741.5V297.686H741.272V297.458H741.044V297.23H740.816V297.001H740.588V296.773H740.359V296.544H740.131V296.316H739.903V296.087H739.675V295.859H739.446V295.631H739.218V295.402H738.99V295.174H738.762V294.945H738.534V294.717H738.305V294.488H738.077V294.26H737.849V294.032H737.621V293.803H737.393V293.575H737.164V293.346H736.936V293.118H736.708V292.889H736.48V292.661H736.252V292.433H736.023V292.204H735.795V291.976H735.567V291.747H735.339V291.519H735.11V291.29H734.882V291.062H734.654V290.834H734.426V290.605H734.198V290.377H733.969V290.148H733.741V289.92H733.513V289.691H733.285V289.463H733.057V289.235H732.828V289.006H732.6V288.778H732.372V288.549H732.144V288.321H731.916V288.092H731.687V287.864H731.459V287.636H731.231V287.407H731.003V287.179H730.774V286.95H730.546V286.722H730.318V286.493H730.09V286.265H729.862V286.037H729.633V285.808H729.405V285.58H729.177V285.351H728.949V285.123H728.721V284.894H728.492V284.666H728.264V284.438H728.036V284.209H727.808V283.981H727.58V283.752H727.351V283.524H727.123V283.295H726.895V283.067H726.667V282.839H726.438V282.61H726.21V282.382H725.982V282.153H725.754V281.925H725.526V281.696H725.297V281.468H725.069V281.24H724.841V281.011H724.613V280.783H724.385V280.554H724.156V280.326H723.928V280.097H723.7V279.869H723.472V279.641H723.243V279.412H723.015V279.184H722.787V278.955H722.559V278.727H722.331V278.498H722.102V278.27H721.874V278.042H721.646V277.813H721.418V277.585H721.19V277.356H720.961V277.128H720.733V276.899H720.505V276.671H720.277V276.443H720.049V276.214H720.041L761.146 271.987L719.813 230.844V230.615H719.585V230.387H719.356V230.159H719.128V229.93H718.9V229.702H718.672V229.473H718.444V229.245H718.215V229.016H717.987V228.788H717.759V228.56H717.531V228.331H717.302V228.103H717.074V227.874H716.846V227.646H716.618V227.417H716.39V227.189H716.161V226.961H715.933V226.732H715.705V226.504H715.477V226.275H715.249V226.047H715.02V225.818H714.792V225.59H714.564V225.362H714.336V225.133H714.108V224.905H713.879V224.676H713.651V224.448H713.423V224.219H713.195V223.991H712.966V223.763H712.738V223.534H712.51V223.306H712.282V223.077H712.054V222.849H711.825V222.62H711.597V222.392H711.369V222.164H711.141V221.935H710.913V221.707H710.684V221.478H710.456V221.25H710.228V221.021H710V220.793H709.771V220.565H709.543V220.336H709.315V220.108H709.087V219.879H708.859V219.651H708.63V219.422H708.402V219.194H708.174V218.966H707.946V218.737H707.718V218.509H707.489V218.28H707.261V218.052H707.033V217.823H706.805V217.595H706.577V217.367H706.348V217.138H706.12V216.91H705.892V216.681H705.664V216.453H705.435V216.224H705.207V215.996H704.979V215.768H704.751V215.539H704.523V215.311H704.294V215.082H704.066V214.854H703.838V214.625H703.61V214.397H703.382V214.169H703.153V213.94H702.925V213.712H702.697V213.483H702.469V213.255H702.241V213.026H702.012V212.798H701.784V212.57H701.556V212.341H701.328V212.113H701.099V211.884H700.871V211.656H700.643V211.427H700.415V211.199H700.187V210.971H699.958V210.742H699.73V210.514H699.502V210.285H699.274V210.057H699.046V209.828H698.817V209.6H698.589V209.372H698.361V209.143H698.133V208.915H697.905V208.686H697.676V208.458H697.448V208.229H697.22V208.001H696.992V207.773H696.763V207.544H696.535V207.316H696.307V207.087H696.079V206.859H695.851V206.63H695.622V206.402H695.394V206.174H695.166V205.945H694.938V205.717H694.71V205.488H694.481V205.26H694.253V205.031H694.025V204.803H693.797V204.575H693.569V204.346H693.34V204.118H693.112V203.889H692.884V203.661H692.656V203.433H692.427V203.204H692.199V202.976H691.971V202.747H691.743V202.519H691.515V202.29H691.286V202.062H691.058V201.834H690.83V201.605H690.602V201.377H690.374V201.148H690.145V200.92H689.917V200.691H689.689V200.463H689.461V200.235H689.232V200.006H689.004V199.778H688.776V199.549H688.548V199.321H688.32V199.092H688.091V198.864H687.863V198.636H687.635V198.407H687.407V198.179H687.179V197.95H686.95V197.722H686.722V197.493H686.494V197.265H686.266V197.037H686.038V196.808H685.809V196.58H685.581V196.351H685.353V196.123H685.125V195.894H684.896V195.666H684.668V195.438H684.44V195.209H684.212V194.981H683.984V194.752H683.755V194.524H683.527V194.295H683.299V194.067H683.071V193.839H682.843V193.61H682.614V193.382H682.386V193.153H682.158V192.925H681.93V192.696H681.702V192.468H681.473V192.24H681.245V192.011H681.017V191.783H680.789V191.554H680.56V191.326H680.332V191.097H680.104V190.869H679.876V190.641H679.648V190.412H679.419V190.184H679.191V189.955H678.963V189.727H678.735V189.498H678.507V189.27H678.278V189.042H678.05V188.813H677.822V188.585H677.594V188.356H677.365V188.128H677.137V187.899H676.909V187.671H676.681V187.443H676.453V187.214H676.224V186.986H675.996V186.757H675.768V186.529H675.54V186.3H675.312V186.072H675.083V185.844H674.855V185.615H674.627V185.387H674.399V185.158H674.171V184.93H673.942V184.701H673.714V184.473H673.486V184.245H673.258V184.016H673.029V183.788H672.801V183.559H672.573V183.331H672.345V183.102H672.117V182.874H671.888V182.646H671.66V182.417H671.432V182.189H671.204V181.96H670.976V181.732H670.747V181.503H670.519V181.275H670.291V181.047H670.063V180.818H669.835V180.59H669.606V180.361H669.378V180.133H669.15V179.904H668.922V179.676H668.693V179.448H668.465V179.219H668.237V178.991H668.009V178.762H667.781V178.534H667.552V178.305H667.324V178.077H667.096V177.849H666.868V177.62H666.64V177.392H666.411V177.163H666.183V176.935H665.955V176.706H665.727V176.478H665.499V176.25H665.27V176.021H665.042V175.793H664.814V175.564H664.586V175.336H664.357V175.108H664.129V174.879H663.901V174.651H663.673V174.422H663.445V174.194H663.216V173.965H662.988V173.737H649.117C644.812 180.679 635.605 186.225 621.494 190.374V207.191C621.569 207.16 621.648 207.126 621.723 207.094V207.419C621.797 207.389 621.876 207.354 621.951 207.323V207.648C622.025 207.617 622.104 207.582 622.179 207.551V207.876C622.253 207.845 622.332 207.811 622.407 207.78V208.104C622.482 208.074 622.561 208.039 622.636 208.008V208.333C622.71 208.302 622.789 208.268 622.864 208.236V208.561C622.938 208.531 623.017 208.496 623.092 208.465V208.79C623.166 208.759 623.245 208.725 623.32 208.693V209.018C623.394 208.988 623.473 208.953 623.548 208.922V209.247C623.623 209.216 623.702 209.181 623.777 209.15V209.475C623.851 209.444 623.93 209.41 624.005 209.379V209.703C624.079 209.673 624.158 209.638 624.233 209.607V209.932C624.307 209.901 624.386 209.867 624.461 209.835V210.16C624.535 210.13 624.614 210.095 624.689 210.064V210.389C624.764 210.358 624.843 210.324 624.918 210.292V210.617C624.992 210.587 625.071 210.552 625.146 210.521V210.846C625.22 210.815 625.299 210.78 625.374 210.749V211.074C625.448 211.043 625.527 211.009 625.602 210.978V211.302C625.676 211.272 625.755 211.237 625.83 211.206V211.531C625.905 211.5 625.984 211.466 626.059 211.434V211.759C626.133 211.729 626.212 211.694 626.287 211.663V211.988C626.361 211.957 626.44 211.922 626.515 211.891V212.216C626.589 212.186 626.668 212.151 626.743 212.12V212.445C626.818 212.414 626.897 212.379 626.972 212.348V212.673C627.046 212.642 627.125 212.608 627.2 212.576V212.901C627.274 212.871 627.353 212.836 627.428 212.805V213.13C627.502 213.099 627.581 213.065 627.656 213.033V213.358C627.73 213.328 627.809 213.293 627.884 213.262V213.587C627.959 213.556 628.038 213.521 628.113 213.49V213.815C628.187 213.785 628.266 213.75 628.341 213.719V214.044C628.415 214.013 628.494 213.978 628.569 213.947V214.272C628.643 214.241 628.722 214.207 628.797 214.175V214.5C628.871 214.47 628.95 214.435 629.025 214.404V214.729C629.1 214.698 629.179 214.664 629.254 214.632V214.957C629.328 214.927 629.407 214.892 629.482 214.861V215.186C629.556 215.155 629.635 215.12 629.71 215.089V215.414C629.784 215.383 629.863 215.349 629.938 215.318V215.643C630.013 215.612 630.091 215.577 630.167 215.546V215.871C630.241 215.84 630.32 215.806 630.395 215.774V216.099C630.469 216.069 630.548 216.034 630.623 216.003V216.328C630.697 216.297 630.776 216.263 630.851 216.231V216.556C630.925 216.526 631.004 216.491 631.079 216.46V216.785C631.154 216.754 631.233 216.719 631.308 216.688V217.013C631.382 216.982 631.461 216.948 631.536 216.917V217.242C631.61 217.211 631.689 217.176 631.764 217.145V217.47C631.838 217.439 631.917 217.405 631.992 217.373V217.698C632.066 217.668 632.145 217.633 632.22 217.602V217.927C632.295 217.896 632.374 217.862 632.449 217.83V218.155C632.523 218.125 632.602 218.09 632.677 218.059V218.384C632.751 218.353 632.83 218.318 632.905 218.287V218.612C632.979 218.581 633.058 218.547 633.133 218.516V218.84C633.207 218.81 633.286 218.775 633.361 218.744V219.069C633.436 219.038 633.515 219.004 633.59 218.972V219.297C633.664 219.267 633.743 219.232 633.818 219.201V219.526C633.892 219.495 633.971 219.461 634.046 219.429V219.754C634.12 219.724 634.199 219.689 634.274 219.658V219.983C634.349 219.952 634.427 219.917 634.503 219.886V220.211C634.577 220.18 634.656 220.146 634.731 220.115V220.439C634.805 220.409 634.884 220.374 634.959 220.343V220.668C635.033 220.637 635.112 220.603 635.187 220.571V220.896C635.261 220.866 635.34 220.831 635.415 220.8V221.125C635.49 221.094 635.569 221.06 635.644 221.028V221.353C635.718 221.323 635.797 221.288 635.872 221.257V221.582C635.946 221.551 636.025 221.516 636.1 221.485V221.81C636.174 221.779 636.253 221.745 636.328 221.714V222.038C636.402 222.008 636.481 221.973 636.556 221.942V222.267C636.631 222.236 636.71 222.202 636.785 222.17V222.495C636.859 222.465 636.938 222.43 637.013 222.399V222.724C637.087 222.693 637.166 222.659 637.241 222.627V222.952C637.315 222.922 637.394 222.887 637.469 222.856V223.181C637.544 223.15 637.622 223.115 637.698 223.084V223.409C637.772 223.378 637.851 223.344 637.926 223.313V223.637C638 223.607 638.079 223.572 638.154 223.541V223.866C638.228 223.835 638.307 223.801 638.382 223.769V224.094C638.456 224.064 638.535 224.029 638.61 223.998V224.323C638.685 224.292 638.763 224.258 638.839 224.226V224.551C638.913 224.521 638.992 224.486 639.067 224.455V224.78C639.141 224.749 639.22 224.714 639.295 224.683V225.008C639.369 224.977 639.448 224.943 639.523 224.911V225.236C639.597 225.206 639.676 225.171 639.751 225.14V225.465C639.826 225.434 639.905 225.4 639.98 225.368V225.693C640.054 225.663 640.133 225.628 640.208 225.597V225.922C640.282 225.891 640.361 225.856 640.436 225.825V226.15C640.51 226.12 640.589 226.085 640.664 226.054V226.379C640.738 226.348 640.817 226.313 640.892 226.282V226.607C640.967 226.576 641.046 226.542 641.121 226.51V226.835C641.195 226.805 641.274 226.77 641.349 226.739V227.064C641.423 227.033 641.502 226.999 641.577 226.967V227.292C641.651 227.262 641.73 227.227 641.805 227.196V227.521C641.88 227.49 641.958 227.455 642.034 227.424V227.749C642.108 227.718 642.187 227.684 642.262 227.653V227.978C642.336 227.947 642.415 227.912 642.49 227.881V228.206C642.564 228.175 642.643 228.141 642.718 228.109V228.434C642.792 228.404 642.871 228.369 642.946 228.338V228.663C643.021 228.632 643.1 228.598 643.175 228.566V228.891C643.249 228.861 643.328 228.826 643.403 228.795V229.12C643.477 229.089 643.556 229.054 643.631 229.023V229.348C643.705 229.317 643.784 229.283 643.859 229.252V229.577C643.933 229.546 644.012 229.511 644.087 229.48V229.805C644.129 229.788 644.173 229.768 644.215 229.751V241.721H619.462V258.732H619.69V258.96H619.918V259.189H620.147V259.417H620.375V259.646H620.603V259.874H620.831V260.102H621.059V260.331H621.288V260.559H621.516V260.788H621.744V261.016H621.972V261.245H622.2V261.473H622.429V261.701H622.657V261.93H622.885V262.158H623.113V262.387H623.342V262.615H623.57V262.844H623.798V263.072H624.026V263.3H624.254V263.529H624.483V263.757H624.711V263.986H624.939V264.214H625.167V264.443H625.395V264.671H625.624V264.899H625.852V265.128H626.08V265.356H626.308V265.585H626.536V265.813H626.765V266.042H626.993V266.27H627.221V266.498H627.449V266.727H627.677V266.955H627.906V267.184H628.134V267.412H628.362V267.641H628.59V267.869H628.819V268.097H629.047V268.326H629.275V268.554H629.503V268.783H629.731V269.011H629.96V269.24H630.188V269.468H630.416V269.696H630.644V269.925H630.872V270.153H631.101V270.382H631.329V270.61H631.557V270.839H631.785V271.067H632.013V271.295H632.242V271.524H632.47V271.752H632.698V271.981H632.926V272.209H633.155V272.438H633.383V272.666H633.611V272.894H633.839V273.123H634.067V273.351H634.296V273.58H634.524V273.808H634.752V274.037H634.98V274.265H635.208V274.493H635.437V274.722H635.665V274.95H635.893V275.179H636.121V275.407H636.35V275.636H636.578V275.864H636.806V276.092H637.034V276.321H637.262V276.549H637.491V276.778H637.719V277.006H637.947V277.234H638.175V277.463H638.403V277.691H638.632V277.92H638.86V278.148H639.088V278.377H639.316V278.605H639.544V278.833H639.773V279.062H640.001V279.29H640.229V279.519H640.457V279.747H640.686V279.976H640.914V280.204H641.142V280.432H641.37V280.661H641.598V280.889H641.827V281.118H642.055V281.346H642.283V281.575H642.511V281.803H642.739V282.031H642.968V282.26H643.196V282.488H643.424V282.717H643.652V282.945H643.88V283.174H644.109V283.402H644.337V283.63H644.565V283.859H644.793V284.087H645.022V284.316H645.25V284.544H645.478V284.773H645.706V285.001H645.934V285.229H646.163V285.458H646.391V285.686H646.619V285.915H646.847V286.143H647.075V286.372H647.304V286.6H647.532V286.828H647.76V287.057H647.988V287.285H648.217V287.514H648.445V287.742H648.673V287.971H648.901V288.199H649.129V288.427H649.358V288.656H649.586V288.884H649.814V289.113H650.042V289.341H650.27V289.57H650.499V289.798H650.727V290.026H650.955V290.255H651.183V290.483H651.411V290.712H651.64V290.94H651.868V291.169H652.096V291.397H652.324V291.625H652.553V291.854H652.781V292.082H653.009V292.311H653.237V292.539H653.465V292.768H653.694V292.996H653.922V293.224H654.15V293.453H654.378V293.681H654.606V293.91H654.835V294.138H655.063V294.367H655.291V294.595H655.519V294.823H655.748V295.052H655.976V295.28H656.204V295.509H656.432V295.737H656.66V295.966H656.889V296.194H657.117V296.422H657.345V296.651H657.573V296.879H657.801V297.108H658.03V297.336H658.258V297.565H658.486V297.793H658.714V298.021H658.942V298.25H659.171V298.478H659.399V298.707H659.627V298.935H659.855V299.164H660.083V299.392H660.312V299.62H660.54V299.849H660.768V300.077H660.996V300.306H661.225V300.534H661.453V300.763H661.681V300.991H661.909V301.219H662.137V301.448H662.366V301.676H662.594V301.905H662.822V302.133H663.05V302.362H663.278V302.59H663.507V302.818H663.735V303.047H663.963V303.275H664.191V303.504H664.42V303.732H664.648V303.96H664.876V304.189H665.104V304.417H665.332V304.646H665.561V304.874H665.789V305.103H666.017V305.331H666.245V305.559H666.473V305.788H666.702V306.016H666.93V306.245H667.158V306.473H667.386V306.702H667.614V306.93H667.843V307.158H668.071V307.387H668.299V307.615H668.527V307.844H668.756V308.072H668.984V308.301H669.212V308.529H669.44V308.757H669.668V308.986H669.897V309.214H670.125V309.443H670.353V309.671H670.581V309.9H670.809V310.128H671.038V310.356H671.266V310.585H671.494V310.813H671.722V311.042H671.95V311.27H672.179V311.499H672.407V311.727H672.635V311.955H672.863V312.184H673.092V312.412H673.32V312.641H673.548V312.869H673.776V313.098H674.004V313.326H674.233V313.554H674.461V313.783H674.689V314.011H674.917V314.24H675.145V314.468H675.374V314.697H675.602V314.925H675.83V315.153H676.058V315.382H676.287V315.61H676.515V315.839H742.641V298.828L742.413 298.828Z" fill="#1A4690" style="mix-blend-mode:multiply"/>
<path d="M621.495 207.191V190.374C635.605 186.225 644.813 180.679 649.117 173.737H662.988V241.722H685.589V258.732H619.462V241.722H644.215V194.983C634.489 200.888 626.915 204.957 621.495 207.191Z" fill="#7FA3E9"/>
</g>
<path d="M329.875 290C307.853 290 290 307.852 290 329.875V435H435V290H329.875Z" fill="#3A65DA"/>
<mask id="mask1_3216_666" style="mask-type:alpha" maskUnits="userSpaceOnUse" x="290" y="290" width="145" height="145">
<path d="M329.875 290C307.853 290 290 307.852 290 329.875V435H435V290H329.875Z" fill="#2D618C"/>
</mask>
<g mask="url(#mask1_3216_666)">
<path d="M515.312 453.361V453.203L514.932 452.981V452.823L514.552 452.601V452.443L514.173 452.221V452.063L513.793 451.842V451.683L513.413 451.462V451.303L513.033 451.082V450.924L512.653 450.702V450.544L512.273 450.322V450.164L511.893 449.942V449.784L511.513 449.562V449.404L511.134 449.182V449.024L510.754 448.802V448.644L510.374 448.423V448.264L509.994 448.043V447.885L509.614 447.663V447.505L509.234 447.283V447.125L508.854 446.903V446.745L508.474 446.523V446.365L508.095 446.143V445.985L507.715 445.763V445.605L507.335 445.384V445.225L506.955 445.004V444.845L506.575 444.624V444.466L506.195 444.244V444.086L505.815 443.864V443.706L505.435 443.484V443.326L505.056 443.104V442.946L504.676 442.724V442.566L504.296 442.345V442.186L503.916 441.965V441.806L503.536 441.585V441.427L503.156 441.205V441.047L502.776 440.825V440.667L502.396 440.445V440.287L502.016 440.065V439.907L501.637 439.685V439.527L501.257 439.306V439.147L500.877 438.926V438.767L500.497 438.546V438.388L500.117 438.166V438.008L499.737 437.786V437.628L499.357 437.406V437.248L498.977 437.026V436.868L498.598 436.646V436.488L498.218 436.266V436.108L497.838 435.887V435.728L497.458 435.507V435.349L497.078 435.127V434.969L496.698 434.747V434.589L496.318 434.367V434.209L495.938 433.987V433.829L495.559 433.607V433.449L495.179 433.227V433.069L494.799 432.848V432.689L494.419 432.468V432.309L494.039 432.088V431.93L493.659 431.708V431.55L493.279 431.328V431.17L492.899 430.948V430.79L492.52 430.568V430.41L492.14 430.188V430.03L491.76 429.809V429.65L491.38 429.429V429.27L491 429.049V428.891L490.62 428.669V428.511L490.24 428.289V428.131L489.86 427.909V427.751L489.48 427.529V427.371L489.101 427.149V426.991L488.721 426.77V426.611L488.341 426.39V426.231L487.961 426.01V425.852L487.581 425.63V425.472L487.201 425.25V425.092L486.821 424.87V424.712L486.441 424.49V424.332L486.062 424.11V423.952L485.682 423.73V423.572L485.302 423.351V423.192L484.922 422.971V422.813L484.542 422.591V422.433L484.162 422.211V422.053L483.782 421.831V421.673L483.402 421.451V421.293L483.023 421.071V420.913L482.643 420.692V420.533L482.263 420.312V420.153L481.883 419.932V419.773L481.503 419.552V419.394L481.123 419.172V419.014L480.743 418.792V418.634L480.363 418.412V418.254L479.984 418.032V417.874L479.604 417.652V417.494L479.224 417.273V417.114L478.844 416.893V416.734L478.464 416.513V416.355L478.084 416.133V415.975L477.704 415.753V415.595L477.324 415.373V415.215L476.945 414.993V414.835L476.565 414.613V414.455L476.185 414.234V414.075L475.805 413.854V413.695L475.425 413.474V413.316L475.045 413.094V412.936L474.665 412.714V412.556L474.285 412.334V412.176L473.905 411.954V411.796L473.526 411.574V411.416L473.146 411.195V411.036L472.766 410.815V410.656L472.386 410.435V410.277L472.006 410.055V409.897L471.626 409.675V409.517L471.246 409.295V409.137L470.866 408.915V408.757L470.487 408.535V408.377L470.107 408.156V407.997L469.727 407.776V407.617L469.347 407.396V407.238L468.967 407.016V406.858L468.587 406.636V406.478L468.207 406.256V406.098L467.827 405.876V405.718L467.448 405.496V405.338L467.068 405.117V404.958L466.688 404.737V404.578L466.308 404.357V404.198L465.928 403.977V403.819L465.548 403.597V403.439L465.168 403.217V403.059L464.788 402.837V402.679L464.409 402.457V402.299L464.029 402.077V401.919L463.649 401.698V401.539L463.269 401.318V401.159L462.889 400.938V400.78L462.509 400.558V400.4L462.129 400.178V400.02L461.749 399.798V399.64L461.369 399.418V399.26L460.99 399.038V398.88L460.61 398.659V398.5L460.23 398.279V398.12L459.85 397.899V397.741L459.47 397.519V397.361L459.09 397.139V396.981L458.71 396.759V396.601L458.33 396.379V396.221L457.951 395.999V395.841L457.571 395.62V395.461L457.191 395.24V395.081L456.811 394.86V394.702L456.431 394.48V394.322L456.051 394.1V393.942L455.671 393.72V393.562L455.291 393.34V393.182L454.912 392.96V392.802L454.532 392.581V392.422L454.152 392.201V392.042L453.772 391.821V391.662L453.392 391.441V391.283L453.012 391.061V390.903L452.632 390.681V390.523L452.252 390.301V390.143L451.873 389.921V389.763L451.493 389.541V389.383L451.113 389.162V389.003L450.733 388.782V388.623L450.353 388.402V388.244L449.973 388.022V387.864L449.593 387.642V387.484L449.213 387.262V387.104L448.833 386.882V386.724L448.454 386.502V386.344L448.074 386.123V385.964L447.694 385.743V385.584L447.314 385.363V385.205L446.934 384.983V384.825L446.554 384.603V384.445L446.174 384.223V384.065L445.794 383.843V383.685L445.415 383.463V383.305L445.035 383.084V382.925L444.655 382.704V382.545L444.275 382.324V382.166L443.895 381.944V381.786L443.515 381.564V381.406L443.135 381.184V381.026L442.755 380.804V380.646L442.376 380.424V380.266L441.996 380.045V379.886L441.616 379.665V379.506L441.236 379.285V379.126L440.856 378.905V378.747L440.476 378.525V378.367L440.096 378.145V377.987L439.716 377.765V377.607L439.337 377.385V377.227L438.957 377.005V376.847L438.577 376.626V376.467L438.197 376.246V376.087L437.817 375.866V375.708L437.437 375.486V375.328L437.057 375.106V374.948L436.677 374.726V374.568L436.298 374.346V374.188L435.918 373.966V373.808L435.538 373.587V373.428L435.158 373.207V373.048L434.778 372.827V372.669L434.398 372.447V372.289L434.018 372.067V371.909L433.638 371.687V371.529L433.259 371.307V371.149L432.879 370.927V370.769L432.499 370.548V370.389L432.119 370.168V370.009L431.739 369.788V369.63L431.359 369.408V369.25L430.979 369.028V368.87L430.599 368.648V368.49L430.22 368.268V368.11L429.84 367.888V367.73L429.46 367.509V367.35L429.08 367.129V366.97L428.7 366.749V366.59L428.32 366.369V366.211L427.94 365.989V365.831L427.56 365.609V365.451L427.18 365.229V365.071L426.801 364.849V364.691L426.421 364.47V364.311L426.041 364.09V363.931L425.661 363.71V363.551L425.281 363.33V363.172L424.901 362.95V362.792L424.521 362.57V362.412L424.141 362.19V362.032L423.762 361.81V361.652L423.382 361.43V361.272L423.002 361.051V360.892L422.622 360.671V360.512L422.242 360.291V360.133L421.862 359.911V359.753L421.482 359.531V359.373L421.102 359.151V358.993L420.723 358.771V358.613L420.343 358.391V358.233L419.963 358.012V357.853L419.583 357.632V357.473L419.203 357.252V357.094L418.823 356.872V356.714L418.443 356.492V356.334L418.063 356.112V355.954L417.684 355.732V355.574L417.304 355.352V355.194L416.924 354.973V354.814L416.544 354.593V354.434L416.164 354.213V354.055L415.784 353.833V353.675L415.404 353.453V353.295L415.024 353.073V352.915L414.644 352.693V352.535L414.265 352.313V352.155L413.885 351.934V351.775L413.505 351.554V351.395L413.125 351.174V351.015L412.745 350.794V350.636L412.365 350.414V350.256L411.985 350.034V349.876L411.605 349.654V349.496L411.226 349.274V349.116L410.846 348.894V348.736L410.466 348.515V348.356L410.086 348.135V347.976L409.706 347.755V347.597L409.326 347.375V347.217L408.946 346.995V346.837L408.566 346.615V346.457L408.187 346.235V346.077L407.807 345.855V345.697L407.427 345.476V345.317L407.047 345.096V344.937L406.667 344.716V344.558L406.287 344.336V344.178L405.907 343.956V343.798L405.527 343.576V343.418L405.148 343.196V343.038L404.768 342.816V342.658L404.388 342.437V342.278L404.008 342.057V341.898L403.628 341.677V341.519L403.248 341.297V341.139L402.868 340.917V340.759L402.488 340.537V340.379L402.108 340.157V339.999L401.729 339.777V339.619L362.5 316.733L323.271 339.619V385.371L323.651 385.593V385.751L324.031 385.972V386.131L324.411 386.352V386.51L324.791 386.732V386.89L325.171 387.112V387.27L325.551 387.492V387.65L325.931 387.872V388.03L326.311 388.252V388.41L326.69 388.632V388.79L327.07 389.011V389.17L327.45 389.391V389.55L327.83 389.771V389.929L328.21 390.151V390.309L328.59 390.531V390.689L328.97 390.911V391.069L329.35 391.291V391.449L329.729 391.671V391.829L330.109 392.05V392.209L330.489 392.43V392.589L330.869 392.81V392.968L331.249 393.19V393.348L331.629 393.57V393.728L332.009 393.95V394.108L332.389 394.33V394.488L332.768 394.71V394.868L333.148 395.089V395.248L333.528 395.469V395.628L333.908 395.849V396.007L334.288 396.229V396.387L334.668 396.609V396.767L335.048 396.989V397.147L335.428 397.369V397.527L335.807 397.749V397.907L336.187 398.129V398.287L336.567 398.508V398.667L336.947 398.888V399.046L337.327 399.268V399.426L337.707 399.648V399.806L338.087 400.028V400.186L338.467 400.408V400.566L338.847 400.788V400.946L339.226 401.168V401.326L339.606 401.547V401.706L339.986 401.927V402.086L340.366 402.307V402.465L340.746 402.687V402.845L341.126 403.067V403.225L341.506 403.447V403.605L341.886 403.827V403.985L342.265 404.207V404.365L342.645 404.586V404.745L343.025 404.966V405.125L343.405 405.346V405.504L343.785 405.726V405.884L344.165 406.106V406.264L344.545 406.486V406.644L344.925 406.866V407.024L345.304 407.246V407.404L345.684 407.625V407.784L346.064 408.005V408.164L346.444 408.385V408.543L346.824 408.765V408.923L347.204 409.145V409.303L347.584 409.525V409.683L347.964 409.905V410.063L348.343 410.285V410.443L348.723 410.665V410.823L349.103 411.044V411.203L349.483 411.424V411.582L349.863 411.804V411.962L350.243 412.184V412.342L350.623 412.564V412.722L351.003 412.944V413.102L351.382 413.324V413.482L351.762 413.704V413.862L352.142 414.083V414.242L352.522 414.463V414.622L352.902 414.843V415.001L353.282 415.223V415.381L353.662 415.603V415.761L354.042 415.983V416.141L354.422 416.363V416.521L354.801 416.743V416.901L355.181 417.122V417.281L355.561 417.502V417.661L355.941 417.882V418.04L356.321 418.262V418.42L356.701 418.642V418.8L357.081 419.022V419.18L357.461 419.402V419.56L357.84 419.782V419.94L358.22 420.161V420.32L358.6 420.541V420.7L358.98 420.921V421.079L359.36 421.301V421.459L359.74 421.681V421.839L360.12 422.061V422.219L360.5 422.441V422.599L360.879 422.821V422.979L361.259 423.2V423.359L361.639 423.58V423.739L362.019 423.96V424.118L362.399 424.34V424.498L362.779 424.72V424.878L363.159 425.1V425.258L363.539 425.48V425.638L363.918 425.86V426.018L364.298 426.24V426.398L364.678 426.619V426.778L365.058 426.999V427.158L365.438 427.379V427.537L365.818 427.759V427.917L366.198 428.139V428.297L366.578 428.519V428.677L366.958 428.899V429.057L367.337 429.279V429.437L367.717 429.658V429.817L368.097 430.038V430.196L368.477 430.418V430.576L368.857 430.798V430.956L369.237 431.178V431.336L369.617 431.558V431.716L369.997 431.938V432.096L370.376 432.318V432.476L370.756 432.697V432.856L371.136 433.077V433.236L371.516 433.457V433.615L371.896 433.837V433.995L372.276 434.217V434.375L372.656 434.597V434.755L373.036 434.977V435.135L373.415 435.357V435.515L373.795 435.736V435.895L374.175 436.116V436.275L374.555 436.496V436.654L374.935 436.876V437.034L375.315 437.256V437.414L375.695 437.636V437.794L376.075 438.016V438.174L376.454 438.396V438.554L376.834 438.776V438.934L377.214 439.155V439.314L377.594 439.535V439.693L377.974 439.915V440.073L378.354 440.295V440.453L378.734 440.675V440.833L379.114 441.055V441.213L379.494 441.435V441.593L379.873 441.815V441.973L380.253 442.194V442.353L380.633 442.574V442.732L381.013 442.954V443.112L381.393 443.334V443.492L381.773 443.714V443.872L382.153 444.094V444.252L382.532 444.474V444.632L382.912 444.854V445.012L383.292 445.233V445.392L383.672 445.613V445.771L384.052 445.993V446.151L384.432 446.373V446.531L384.812 446.753V446.911L385.192 447.133V447.291L385.572 447.513V447.671L385.951 447.893V448.051L386.331 448.272V448.431L386.711 448.652V448.811L387.091 449.032V449.19L387.471 449.412V449.57L387.851 449.792V449.95L388.231 450.172V450.33L388.611 450.552V450.71L388.99 450.932V451.09L389.37 451.312V451.47L389.75 451.691V451.85L390.13 452.071V452.229L390.51 452.451V452.609L390.89 452.831V452.989L391.27 453.211V453.369L391.65 453.591V453.749L392.029 453.971V454.129L392.409 454.351V454.509L392.789 454.73V454.889L393.169 455.11V455.268L393.549 455.49V455.648L393.929 455.87V456.028L394.309 456.25V456.408L394.689 456.63V456.788L395.068 457.01V457.168L395.448 457.39V457.548L395.828 457.769V457.928L396.208 458.149V458.307L396.588 458.529V458.687L396.968 458.909V459.067L397.348 459.289V459.447L397.728 459.669V459.827L398.107 460.049V460.207L398.487 460.429V460.587L398.867 460.808V460.967L399.247 461.188V461.347L399.627 461.568V461.726L400.007 461.948V462.106L400.387 462.328V462.486L400.767 462.708V462.866L401.147 463.088V463.246L401.526 463.468V463.626L401.906 463.848V464.006L402.286 464.227V464.386L402.666 464.607V464.765L403.046 464.987V465.145L403.426 465.367V465.525L403.806 465.747V465.905L404.186 466.127V466.285L404.565 466.507V466.665L404.945 466.887V467.045L405.325 467.266V467.425L405.705 467.646V467.804L406.085 468.026V468.184L406.465 468.406V468.564L406.845 468.786V468.944L407.225 469.166V469.324L407.604 469.546V469.704L407.984 469.926V470.084L408.364 470.305V470.464L408.744 470.685V470.843L409.124 471.065V471.223L409.504 471.445V471.603L409.884 471.825V471.983L410.264 472.205V472.363L410.643 472.585V472.743L411.023 472.965V473.123L411.403 473.345V473.503L411.783 473.724V473.883L412.163 474.104V474.262L412.543 474.484V474.642L412.923 474.864V475.022L413.303 475.244V475.402L413.683 475.624V475.782L414.062 476.004V476.162L414.442 476.383V476.542L414.822 476.763V476.922L415.202 477.143V477.301L415.582 477.523V477.681L415.962 477.903V478.061L416.342 478.283V478.441L416.722 478.663V478.821L417.101 479.043V479.201L417.481 479.423V479.581L417.861 479.802V479.961L418.241 480.182V480.34L418.621 480.562V480.72L419.001 480.942V481.1L419.381 481.322V481.48L419.761 481.702V481.86L420.14 482.082V482.24L420.52 482.462V482.62L420.9 482.841V483L421.28 483.221V483.379L421.66 483.601V483.759L422.04 483.981V484.139L422.42 484.361V484.519L422.8 484.741V484.899L423.179 485.121V485.279L423.559 485.501V485.659L423.939 485.88V486.039L424.319 486.26V486.419L424.699 486.64V486.798L425.079 487.02V487.178L425.459 487.4V487.558L425.839 487.78V487.938L426.219 488.16V488.318L426.598 488.54V488.698L426.978 488.919V489.078L427.358 489.299V489.458L427.738 489.679V489.837L428.118 490.059V490.217L428.498 490.439V490.597L428.878 490.819V490.977L429.258 491.199V491.357L429.637 491.579V491.737L430.017 491.958V492.117L430.397 492.338V492.497L430.777 492.718V492.876L431.157 493.098V493.256L431.537 493.478V493.636L431.917 493.858V494.016L432.297 494.238V494.396L432.676 494.618V494.776L433.056 494.997V495.156L433.436 495.377V495.536L433.816 495.757V495.915L434.196 496.137V496.295L434.576 496.517V496.675L434.956 496.897V497.055L435.336 497.277V497.435L435.715 497.657V497.815L436.095 498.037V498.195L436.475 498.416V498.575L436.855 498.796V498.954L437.235 499.176V499.334L476.464 522.23L515.692 499.334V453.583L515.312 453.361Z" fill="#1A4690"/>
<path fill-rule="evenodd" clip-rule="evenodd" d="M362.5 316.733L401.729 339.619L401.729 385.371L362.5 408.267L323.271 385.371V339.619L362.5 316.733ZM333.168 345.388V379.612L362.5 396.719L391.832 379.612V345.378L362.5 328.281L333.168 345.388Z" fill="#7FA3E9"/>
<path d="M372.396 362.495C372.396 368.024 367.963 372.493 362.5 372.493C357.038 372.493 352.604 368.024 352.604 362.495C352.604 356.976 357.038 352.497 362.5 352.497C367.963 352.497 372.396 356.976 372.396 362.495Z" fill="#7FA3E9"/>
</g>
<path d="M145 145.001V0.000610352H217.335C257.467 0.000610352 290 32.4599 290 72.5006C290 112.542 257.467 145.001 217.335 145.001H145Z" fill="#457AA5"/>
<mask id="mask2_3216_666" style="mask-type:alpha" maskUnits="userSpaceOnUse" x="145" y="0" width="145" height="146">
<path d="M145 145.001V0.000610352H217.335C257.467 0.000610352 290 32.4599 290 72.5006C290 112.542 257.467 145.001 217.335 145.001H145Z" fill="#457AA5"/>
</mask>
<g mask="url(#mask2_3216_666)">
<g opacity="0.6" style="mix-blend-mode:multiply">
<path d="M354.938 153.543C354.877 153.482 354.806 153.44 354.742 153.383C354.679 153.312 354.63 153.234 354.561 153.166C354.499 153.105 354.429 153.062 354.365 153.006C354.302 152.935 354.253 152.857 354.184 152.789C354.122 152.728 354.052 152.685 353.988 152.629C353.924 152.557 353.875 152.48 353.806 152.411C353.745 152.35 353.674 152.308 353.61 152.251C353.547 152.18 353.498 152.102 353.429 152.034C353.367 151.973 353.297 151.93 353.233 151.874C353.17 151.803 353.121 151.725 353.052 151.657C352.99 151.596 352.92 151.553 352.856 151.497C352.793 151.426 352.744 151.348 352.675 151.279C352.613 151.219 352.542 151.176 352.479 151.119C352.415 151.048 352.366 150.971 352.297 150.902C352.236 150.841 352.165 150.799 352.101 150.742C352.038 150.671 351.989 150.593 351.92 150.525C351.858 150.464 351.788 150.421 351.724 150.365C351.661 150.294 351.612 150.216 351.543 150.148C351.481 150.087 351.411 150.044 351.347 149.988C351.284 149.917 351.235 149.839 351.165 149.77C351.104 149.709 351.033 149.667 350.97 149.61C350.906 149.539 350.857 149.461 350.788 149.393C350.727 149.332 350.656 149.289 350.592 149.233C350.529 149.162 350.48 149.084 350.411 149.016C350.349 148.955 350.279 148.912 350.215 148.856C350.152 148.785 350.103 148.707 350.034 148.639C349.972 148.578 349.902 148.535 349.838 148.478C349.774 148.407 349.725 148.33 349.656 148.261C349.595 148.2 349.524 148.158 349.461 148.101C349.397 148.03 349.348 147.952 349.279 147.884C349.217 147.823 349.147 147.78 349.083 147.724C349.02 147.653 348.971 147.575 348.902 147.507C348.84 147.446 348.77 147.403 348.706 147.347C348.643 147.276 348.594 147.198 348.525 147.129C348.463 147.068 348.392 147.026 348.329 146.969C348.265 146.898 348.216 146.821 348.147 146.752C348.086 146.691 348.015 146.649 347.951 146.592C347.888 146.521 347.839 146.443 347.77 146.375C347.708 146.314 347.638 146.271 347.574 146.215C347.511 146.144 347.462 146.066 347.393 145.998C347.331 145.937 347.261 145.894 347.197 145.838C347.134 145.767 347.085 145.689 347.016 145.62C346.954 145.559 346.883 145.517 346.819 145.46C346.756 145.389 346.707 145.311 346.638 145.243C346.577 145.182 346.506 145.14 346.442 145.083C346.379 145.012 346.33 144.934 346.261 144.866C346.199 144.805 346.129 144.762 346.065 144.706C346.002 144.635 345.953 144.557 345.884 144.489C345.822 144.428 345.752 144.385 345.688 144.328C345.625 144.257 345.576 144.18 345.506 144.111C345.445 144.05 345.374 144.008 345.311 143.951C345.247 143.88 345.198 143.802 345.129 143.734C345.068 143.673 344.997 143.63 344.933 143.574C344.87 143.503 344.821 143.425 344.752 143.357C344.69 143.296 344.62 143.253 344.556 143.197C344.493 143.126 344.444 143.048 344.375 142.979C344.313 142.918 344.243 142.876 344.179 142.819C344.115 142.748 344.066 142.67 343.997 142.602C343.936 142.541 343.865 142.498 343.801 142.442C343.738 142.371 343.689 142.293 343.62 142.225C343.558 142.164 343.488 142.121 343.424 142.065C343.361 141.994 343.312 141.916 343.243 141.848C343.181 141.787 343.111 141.744 343.047 141.687C342.984 141.616 342.935 141.539 342.866 141.47C342.804 141.409 342.733 141.367 342.67 141.31C342.606 141.239 342.557 141.161 342.488 141.093C342.427 141.032 342.356 140.989 342.292 140.933C342.229 140.862 342.18 140.784 342.111 140.716C342.049 140.655 341.979 140.612 341.915 140.556C341.852 140.485 341.803 140.407 341.734 140.338C341.672 140.277 341.602 140.235 341.538 140.178C341.475 140.107 341.426 140.029 341.356 139.961C341.295 139.9 341.224 139.858 341.161 139.801C341.097 139.73 341.048 139.652 340.979 139.584C340.918 139.523 340.847 139.48 340.783 139.424C340.72 139.353 340.671 139.275 340.602 139.207C340.54 139.146 340.47 139.103 340.406 139.046C340.343 138.975 340.294 138.898 340.225 138.829C340.163 138.768 340.093 138.726 340.029 138.669C339.966 138.598 339.917 138.52 339.847 138.452C339.786 138.391 339.715 138.348 339.651 138.292C339.588 138.221 339.539 138.143 339.47 138.075C339.408 138.014 339.338 137.971 339.274 137.915C339.211 137.844 339.162 137.766 339.093 137.698C339.031 137.636 338.961 137.594 338.897 137.537C338.834 137.466 338.785 137.389 338.716 137.32C338.654 137.259 338.584 137.217 338.52 137.16C338.456 137.089 338.407 137.011 338.338 136.943C338.277 136.882 338.206 136.839 338.142 136.783C338.079 136.712 338.03 136.634 337.961 136.566C337.899 136.505 337.829 136.462 337.765 136.406C337.702 136.335 337.653 136.257 337.584 136.188C337.522 136.127 337.452 136.085 337.388 136.028C337.324 135.957 337.275 135.879 337.206 135.811C337.145 135.75 337.074 135.708 337.011 135.651C336.947 135.58 336.898 135.502 336.829 135.434C336.768 135.373 336.697 135.33 336.633 135.274C336.57 135.203 336.521 135.125 336.452 135.057C336.39 134.996 336.32 134.953 336.256 134.897C336.193 134.825 336.144 134.748 336.075 134.679C336.013 134.618 335.943 134.576 335.879 134.519C335.815 134.448 335.767 134.37 335.697 134.302C335.636 134.241 335.565 134.198 335.501 134.142C335.438 134.071 335.389 133.993 335.32 133.925C335.258 133.864 335.188 133.821 335.124 133.765C335.061 133.694 335.012 133.616 334.943 133.547C334.881 133.486 334.811 133.444 334.747 133.387C334.684 133.316 334.635 133.238 334.566 133.17C334.504 133.109 334.434 133.067 334.37 133.01C334.306 132.939 334.257 132.861 334.188 132.793C334.127 132.732 334.056 132.689 333.992 132.633C333.929 132.562 333.88 132.484 333.811 132.416C333.749 132.355 333.679 132.312 333.615 132.256C333.552 132.184 333.503 132.107 333.434 132.038C333.372 131.977 333.302 131.935 333.238 131.878C333.175 131.807 333.126 131.729 333.057 131.661C332.995 131.6 332.924 131.557 332.861 131.501C332.797 131.43 332.748 131.352 332.679 131.284C332.618 131.223 332.547 131.18 332.483 131.124C332.42 131.053 332.371 130.975 332.302 130.906C332.24 130.846 332.17 130.803 332.106 130.746C332.043 130.675 331.994 130.598 331.925 130.529C331.863 130.468 331.793 130.426 331.729 130.369C331.666 130.298 331.617 130.22 331.547 130.152C331.486 130.091 331.415 130.048 331.352 129.992C331.288 129.921 331.239 129.843 331.17 129.775C331.109 129.714 331.038 129.671 330.974 129.615C330.911 129.544 330.862 129.466 330.793 129.397C330.731 129.337 330.661 129.294 330.597 129.238C330.534 129.166 330.485 129.088 330.416 129.02C330.354 128.959 330.284 128.916 330.22 128.86C330.156 128.789 330.107 128.711 330.038 128.643C329.977 128.582 329.906 128.539 329.842 128.483C329.779 128.412 329.73 128.334 329.661 128.266C329.599 128.205 329.529 128.162 329.465 128.105C329.402 128.034 329.353 127.957 329.284 127.888C329.222 127.827 329.152 127.785 329.088 127.728C329.025 127.657 328.976 127.579 328.907 127.511C328.845 127.45 328.774 127.407 328.711 127.351C328.647 127.28 328.598 127.202 328.529 127.134C328.468 127.073 328.397 127.03 328.333 126.974C328.27 126.903 328.221 126.825 328.152 126.756C328.09 126.695 328.02 126.653 327.956 126.596C327.893 126.525 327.844 126.448 327.775 126.379C327.713 126.318 327.643 126.276 327.579 126.219C327.516 126.148 327.467 126.07 327.397 126.002C327.336 125.941 327.265 125.898 327.202 125.842C327.138 125.771 327.089 125.693 327.02 125.625C326.959 125.564 326.888 125.521 326.824 125.465C326.761 125.394 326.712 125.316 326.643 125.247C326.581 125.186 326.511 125.144 326.447 125.087C326.384 125.016 326.335 124.938 326.266 124.87C326.204 124.809 326.134 124.766 326.07 124.71C326.006 124.639 325.957 124.561 325.888 124.493C325.827 124.432 325.756 124.389 325.692 124.333C325.629 124.262 325.58 124.184 325.511 124.116C325.449 124.055 325.379 124.012 325.315 123.955C325.252 123.884 325.203 123.807 325.134 123.738C325.072 123.677 325.002 123.635 324.938 123.578C324.875 123.507 324.826 123.429 324.757 123.361C324.695 123.3 324.624 123.257 324.561 123.201C324.497 123.13 324.448 123.052 324.379 122.984C324.318 122.923 324.247 122.88 324.183 122.824C324.12 122.753 324.071 122.675 324.002 122.606C323.94 122.545 323.87 122.503 323.806 122.446C323.743 122.375 323.694 122.297 323.625 122.229C323.563 122.168 323.493 122.125 323.429 122.069C323.366 121.998 323.317 121.92 323.248 121.852C323.186 121.791 323.115 121.748 323.052 121.692C322.988 121.621 322.939 121.543 322.87 121.475C322.809 121.414 322.738 121.371 322.674 121.314C322.611 121.243 322.562 121.166 322.493 121.097C322.431 121.036 322.361 120.994 322.297 120.937C322.234 120.866 322.185 120.788 322.116 120.72C322.054 120.659 321.984 120.616 321.92 120.56C321.857 120.489 321.808 120.411 321.738 120.343C321.677 120.282 321.606 120.239 321.542 120.183C321.479 120.112 321.43 120.034 321.361 119.965C321.3 119.905 321.229 119.862 321.165 119.806C321.102 119.734 321.053 119.657 320.984 119.588C320.922 119.527 320.852 119.485 320.788 119.428C320.725 119.357 320.676 119.279 320.607 119.211C320.545 119.15 320.475 119.107 320.411 119.051C320.347 118.98 320.298 118.902 320.229 118.834C320.168 118.773 320.097 118.73 320.033 118.673C319.97 118.602 319.921 118.525 319.852 118.456C319.79 118.395 319.72 118.353 319.656 118.296C319.593 118.225 319.544 118.147 319.475 118.079C319.413 118.018 319.343 117.975 319.279 117.919C319.216 117.848 319.167 117.77 319.098 117.702C319.036 117.641 318.965 117.598 318.902 117.542C318.838 117.471 318.789 117.393 318.72 117.325C318.659 117.263 318.588 117.221 318.524 117.164C318.461 117.093 318.412 117.016 318.343 116.947C318.281 116.886 318.211 116.844 318.147 116.787C318.084 116.716 318.035 116.638 317.966 116.57C317.904 116.509 317.834 116.466 317.77 116.41C317.707 116.339 317.658 116.261 317.588 116.193C317.527 116.132 317.456 116.089 317.393 116.033C317.329 115.962 317.28 115.884 317.211 115.815C317.15 115.754 317.079 115.712 317.015 115.655C316.952 115.584 316.903 115.506 316.834 115.438C316.772 115.377 316.702 115.335 316.638 115.278C316.575 115.207 316.526 115.129 316.457 115.061C316.395 115 316.325 114.957 316.261 114.901C316.197 114.83 316.148 114.752 316.079 114.684C316.018 114.623 315.947 114.58 315.883 114.524C315.82 114.452 315.771 114.375 315.702 114.306C315.64 114.245 315.57 114.203 315.506 114.146C315.443 114.075 315.394 113.997 315.325 113.929C315.263 113.868 315.193 113.825 315.129 113.769C315.066 113.698 315.017 113.62 314.948 113.552C314.886 113.491 314.815 113.448 314.752 113.392C314.688 113.321 314.639 113.243 314.57 113.174C314.509 113.113 314.438 113.071 314.374 113.014C314.311 112.943 314.262 112.865 314.193 112.797C314.131 112.736 314.061 112.694 313.997 112.637C313.934 112.566 313.885 112.488 313.816 112.42C313.754 112.359 313.684 112.316 313.62 112.26C313.557 112.189 313.508 112.111 313.438 112.043C313.377 111.982 313.306 111.939 313.243 111.883C313.179 111.811 313.13 111.734 313.061 111.665C313 111.604 312.929 111.562 312.865 111.505C312.802 111.434 312.753 111.356 312.684 111.288C312.622 111.227 312.552 111.184 312.488 111.128C312.425 111.057 312.376 110.979 312.307 110.911C312.245 110.85 312.175 110.807 312.111 110.751C312.047 110.68 311.998 110.602 311.929 110.534C311.868 110.473 311.797 110.43 311.734 110.374C311.67 110.303 311.621 110.225 311.552 110.156C311.49 110.095 311.42 110.053 311.356 109.996C311.293 109.925 311.244 109.847 311.175 109.779C311.113 109.718 311.043 109.675 310.979 109.619C310.916 109.548 310.867 109.47 310.798 109.402C310.736 109.341 310.665 109.298 310.602 109.242C310.538 109.171 310.489 109.093 310.42 109.024C310.359 108.964 310.288 108.921 310.224 108.865C310.161 108.793 310.112 108.715 310.043 108.647C309.981 108.586 309.911 108.543 309.847 108.487C309.784 108.416 309.735 108.338 309.666 108.27C309.604 108.209 309.534 108.166 309.47 108.11C309.407 108.039 309.358 107.961 309.289 107.893C309.227 107.832 309.156 107.789 309.092 107.732C309.029 107.661 308.98 107.584 308.911 107.515C308.85 107.454 308.779 107.412 308.715 107.355C308.652 107.284 308.603 107.206 308.534 107.138C308.472 107.077 308.402 107.034 308.338 106.978C308.275 106.907 308.226 106.829 308.157 106.761C308.095 106.7 308.025 106.657 307.961 106.601C307.898 106.53 307.848 106.452 307.779 106.383C307.718 106.323 307.647 106.28 307.584 106.223C307.52 106.152 307.471 106.075 307.402 106.006C307.341 105.945 307.27 105.903 307.206 105.846C307.143 105.775 307.094 105.697 307.025 105.629C306.963 105.568 306.893 105.525 306.829 105.469C306.766 105.398 306.717 105.32 306.648 105.252C306.586 105.191 306.516 105.148 306.452 105.092C306.388 105.021 306.339 104.943 306.27 104.874C306.209 104.813 306.138 104.771 306.074 104.714C306.011 104.643 305.962 104.565 305.893 104.497C305.831 104.436 305.761 104.393 305.697 104.337C305.634 104.266 305.585 104.188 305.516 104.12C305.454 104.059 305.384 104.016 305.32 103.96C305.257 103.889 305.208 103.811 305.139 103.743C305.077 103.682 305.006 103.639 304.943 103.582C304.879 103.511 304.83 103.434 304.761 103.365C304.7 103.304 304.629 103.262 304.565 103.205C304.502 103.134 304.453 103.056 304.384 102.988C304.322 102.927 304.252 102.884 304.188 102.828C304.125 102.757 304.076 102.679 304.007 102.611C303.945 102.55 303.875 102.507 303.811 102.451C303.748 102.38 303.699 102.302 303.629 102.233C303.568 102.172 303.497 102.13 303.434 102.073C303.37 102.002 303.321 101.924 303.252 101.856C303.191 101.795 303.12 101.752 303.056 101.696C302.993 101.625 302.944 101.547 302.875 101.479C302.813 101.418 302.743 101.375 302.679 101.319C302.616 101.248 302.567 101.17 302.498 101.102C302.436 101.041 302.366 100.998 302.302 100.942C302.238 100.871 302.189 100.793 302.12 100.724C302.059 100.663 301.988 100.621 301.924 100.564C301.861 100.493 301.812 100.415 301.743 100.347C301.681 100.286 301.611 100.243 301.547 100.187C301.484 100.116 301.435 100.038 301.366 99.9697C301.304 99.9087 301.234 99.866 301.17 99.8096C301.107 99.7386 301.058 99.6608 300.989 99.5925C300.927 99.5316 300.857 99.4889 300.793 99.4326C300.729 99.3615 300.68 99.2836 300.611 99.2152C300.55 99.1542 300.479 99.1115 300.415 99.0551C300.352 98.9841 300.303 98.9062 300.234 98.8379C300.172 98.7769 300.102 98.7343 300.038 98.6779C299.975 98.6068 299.926 98.529 299.857 98.4606C299.795 98.3996 299.725 98.3569 299.661 98.3005C299.597 98.2295 299.548 98.1517 299.479 98.0834C299.418 98.0225 299.347 97.9798 299.284 97.9235C299.22 97.8524 299.171 97.7744 299.102 97.7061C299.041 97.6451 298.97 97.6024 298.906 97.546C298.843 97.475 298.794 97.3971 298.725 97.3288C298.663 97.2678 298.593 97.2252 298.529 97.1688C298.466 97.0977 298.417 97.0198 298.348 96.9515C298.286 96.8906 298.216 96.8479 298.152 96.7915C298.088 96.7204 298.039 96.6426 297.97 96.5743C297.909 96.5133 297.838 96.4706 297.774 96.4142C297.711 96.3432 297.662 96.2653 297.593 96.1969C297.531 96.136 297.461 96.0933 297.397 96.0369C297.334 95.9658 297.285 95.888 297.216 95.8197C297.154 95.7587 297.084 95.7161 297.02 95.6596C296.957 95.5886 296.908 95.5107 296.839 95.4424C296.777 95.3815 296.707 95.3388 296.643 95.2824C296.579 95.2113 296.53 95.1335 296.461 95.0652C296.4 95.0042 296.329 94.9615 296.265 94.9051C296.202 94.8341 296.153 94.7561 296.084 94.6878C296.022 94.6269 295.952 94.5842 295.888 94.5278C295.825 94.4567 295.776 94.3789 295.707 94.3106C295.645 94.2496 295.575 94.2069 295.511 94.1505C295.448 94.0795 295.399 94.0016 295.33 93.9333C295.268 93.8723 295.197 93.8297 295.134 93.7733C295.07 93.7022 295.021 93.6243 294.952 93.556C294.891 93.4951 294.82 93.4525 294.756 93.3961C294.693 93.3249 294.644 93.2471 294.575 93.1787C294.513 93.1178 294.443 93.0751 294.379 93.0187C294.316 92.9476 294.267 92.8698 294.198 92.8014C294.136 92.7405 294.066 92.6978 294.002 92.6414C293.939 92.5703 293.89 92.4925 293.82 92.4242C293.759 92.3632 293.688 92.3206 293.625 92.2641C293.561 92.1931 293.512 92.1152 293.443 92.0469C293.382 91.9859 293.311 91.9432 293.247 91.8868C293.184 91.8158 293.135 91.738 293.066 91.6697C293.004 91.6088 292.934 91.5661 292.87 91.5098C292.807 91.4386 292.758 91.3607 292.689 91.2923C292.627 91.2314 292.556 91.1887 292.493 91.1323C292.429 91.0612 292.38 90.9834 292.311 90.9151C292.25 90.8541 292.179 90.8115 292.115 90.755C292.052 90.684 292.003 90.6061 291.934 90.5378C291.872 90.4768 291.802 90.4341 291.738 90.3776C291.675 90.3066 291.626 90.2289 291.557 90.1606C291.495 90.0997 291.425 90.057 291.361 90.0006C291.298 89.9295 291.249 89.8516 291.18 89.7832C291.118 89.7223 291.047 89.6796 290.984 89.6232C290.92 89.5521 290.871 89.4743 290.802 89.406C290.741 89.345 290.67 89.3023 290.606 89.2459C290.543 89.1749 290.494 89.097 290.425 89.0287C290.363 88.9677 290.293 88.925 290.229 88.8685C290.166 88.7975 290.117 88.7198 290.048 88.6514C289.986 88.5906 289.916 88.5479 289.852 88.4915C289.789 88.4204 289.74 88.3425 289.67 88.2741C289.609 88.2132 289.538 88.1705 289.474 88.1141C289.411 88.043 289.362 87.9652 289.293 87.8969C289.231 87.8359 289.161 87.7932 289.097 87.7368C289.034 87.6658 288.985 87.5879 288.916 87.5196C288.854 87.4586 288.784 87.416 288.72 87.3596C288.657 87.2885 288.608 87.2107 288.539 87.1423C288.477 87.0814 288.407 87.0387 288.343 86.9823C288.279 86.9112 288.23 86.8333 288.161 86.765C288.1 86.704 288.029 86.6614 287.965 86.605C287.902 86.5339 287.853 86.4561 287.784 86.3877C287.722 86.3268 287.652 86.2841 287.588 86.2277C287.525 86.1566 287.476 86.0788 287.407 86.0105C287.345 85.9495 287.275 85.9069 287.211 85.8504C287.148 85.7794 287.099 85.7015 287.03 85.6332C286.968 85.5723 286.897 85.5296 286.834 85.4732C286.77 85.4021 286.721 85.3242 286.652 85.2559C286.591 85.1949 286.52 85.1523 286.456 85.0958C286.393 85.0248 286.344 84.9469 286.275 84.8786C286.213 84.8177 286.143 84.775 286.079 84.7186C286.016 84.6475 285.967 84.5697 285.898 84.5014C285.836 84.4404 285.766 84.3977 285.702 84.3413C285.639 84.2703 285.59 84.1924 285.521 84.1241C285.459 84.0631 285.388 84.0205 285.325 83.9641C285.261 83.893 285.212 83.8152 285.143 83.7468C285.082 83.6858 285.011 83.6431 284.947 83.5867C284.884 83.5157 284.835 83.4378 284.766 83.3695C284.704 83.3085 284.634 83.2659 284.57 83.2095C284.507 83.1384 284.458 83.0606 284.389 82.9922C284.327 82.9313 284.257 82.8886 284.193 82.8322C284.129 82.7611 284.08 82.6833 284.011 82.615C283.95 82.554 283.879 82.5112 283.815 82.4548C283.752 82.3838 283.703 82.306 283.634 82.2377C283.573 82.1768 283.502 82.1342 283.438 82.0778C283.375 82.0067 283.326 81.9288 283.257 81.8604C283.195 81.7994 283.125 81.7568 283.061 81.7004C282.998 81.6293 282.949 81.5515 282.88 81.4831C282.818 81.4222 282.747 81.3795 282.684 81.3231C282.62 81.252 282.571 81.1742 282.502 81.1059C282.441 81.0448 282.37 81.0021 282.306 80.9457C282.243 80.8747 282.194 80.7969 282.125 80.7286C282.063 80.6677 281.993 80.6251 281.929 80.5687C281.866 80.4976 281.817 80.4197 281.748 80.3513C281.686 80.2903 281.616 80.2477 281.552 80.1913C281.489 80.1202 281.44 80.0423 281.371 79.974C281.309 79.9131 281.238 79.8704 281.175 79.814C281.111 79.7429 281.062 79.6651 280.993 79.5968C280.932 79.5357 280.861 79.493 280.797 79.4366C280.734 79.3656 280.685 79.2878 280.616 79.2195C280.554 79.1586 280.484 79.1159 280.42 79.0596C280.357 78.9885 280.308 78.9106 280.239 78.8422C280.177 78.7812 280.107 78.7386 280.043 78.6821C279.979 78.6111 279.93 78.5332 279.861 78.4649C279.8 78.404 279.729 78.3613 279.665 78.3049C279.602 78.2338 279.553 78.156 279.484 78.0877C279.422 78.0267 279.352 77.984 279.288 77.9276C279.225 77.8566 279.176 77.7787 279.107 77.7104C279.045 77.6494 278.975 77.6068 278.911 77.5504C278.848 77.4793 278.799 77.4014 278.73 77.3331C278.668 77.2721 278.598 77.2294 278.534 77.173C278.47 77.102 278.421 77.0241 278.352 76.9558C278.291 76.8948 278.22 76.8522 278.156 76.7958C278.093 76.7247 278.044 76.6469 277.975 76.5785C277.913 76.5176 277.843 76.4749 277.779 76.4185C277.716 76.3474 277.667 76.2696 277.598 76.2013C277.536 76.1403 277.466 76.0976 277.402 76.0412C277.339 75.9702 277.29 75.8923 277.221 75.8239C277.159 75.763 277.088 75.7203 277.025 75.6639C276.961 75.5928 276.912 75.515 276.843 75.4467C276.782 75.3857 276.711 75.3431 276.647 75.2866C276.584 75.2156 276.535 75.1377 276.466 75.0694C276.404 75.0085 276.334 74.9658 276.27 74.9094C276.207 74.8383 276.158 74.7605 276.089 74.6922C276.027 74.6312 275.957 74.5886 275.893 74.5322C275.83 74.4611 275.781 74.3832 275.711 74.3148C275.65 74.2539 275.579 74.2112 275.516 74.1548C275.452 74.0837 275.403 74.0059 275.334 73.9376C275.273 73.8766 275.202 73.8339 275.138 73.7775C275.075 73.7065 275.026 73.6286 274.957 73.5603C274.895 73.4993 274.825 73.4567 274.761 73.4003C274.698 73.3292 274.649 73.2514 274.58 73.183C274.518 73.122 274.448 73.0793 274.384 73.0229C274.32 72.9519 274.271 72.8741 274.202 72.8058C274.141 72.7449 274.07 72.7022 274.007 72.6459C273.943 72.5747 273.894 72.4968 273.825 72.4285C273.763 72.3675 273.693 72.3248 273.629 72.2684C273.566 72.1974 273.517 72.1195 273.448 72.0512C273.386 71.9902 273.316 71.9476 273.252 71.8912C273.189 71.8201 273.14 71.7422 273.071 71.6739C273.009 71.6129 272.938 71.5702 272.875 71.5138C272.811 71.4428 272.762 71.365 272.693 71.2967C272.632 71.2358 272.561 71.1931 272.497 71.1368C272.434 71.0656 272.385 70.9877 272.316 70.9193C272.254 70.8584 272.184 70.8157 272.12 70.7593C272.057 70.6882 272.008 70.6104 271.939 70.5421C271.877 70.4811 271.807 70.4385 271.743 70.382C271.68 70.311 271.631 70.2331 271.561 70.1648C271.5 70.1038 271.429 70.0611 271.365 70.0047C271.302 69.9337 271.253 69.8559 271.184 69.7876C271.123 69.7267 271.052 69.684 270.988 69.6277C270.925 69.5565 270.876 69.4786 270.807 69.4102C270.745 69.3493 270.675 69.3066 270.611 69.2502C270.548 69.1791 270.499 69.1013 270.43 69.033C270.368 68.972 270.298 68.9294 270.234 68.8729C270.17 68.8019 270.121 68.724 270.052 68.6557C269.991 68.5948 269.92 68.5521 269.856 68.4957C269.793 68.4246 269.744 68.3468 269.675 68.2785C269.613 68.2175 269.543 68.1748 269.479 68.1184C269.416 68.0474 269.367 67.9694 269.298 67.9011C269.236 67.8402 269.166 67.7975 269.102 67.7411C269.039 67.67 268.99 67.5922 268.921 67.5239C268.859 67.4629 268.788 67.4202 268.725 67.3638C268.661 67.2928 268.612 67.2149 268.543 67.1466C268.482 67.0856 268.411 67.043 268.347 66.9866C268.284 66.9155 268.235 66.8377 268.166 66.7693C268.104 66.7084 268.034 66.6657 267.97 66.6093C267.907 66.5382 267.858 66.4603 267.789 66.392C267.727 66.331 267.657 66.2884 267.593 66.232C267.53 66.1609 267.481 66.0831 267.412 66.0147C267.35 65.9538 267.279 65.9111 267.216 65.8547C267.152 65.7836 267.103 65.7058 267.034 65.6375C266.973 65.5765 266.902 65.5339 266.838 65.4774C266.775 65.4064 266.726 65.3285 266.657 65.2602C266.595 65.1993 266.525 65.1567 266.461 65.1002C266.398 65.0291 266.349 64.9513 266.28 64.8829C266.218 64.8219 266.148 64.7793 266.084 64.7229C266.02 64.6518 265.971 64.5739 265.902 64.5056C265.841 64.4447 265.77 64.402 265.706 64.3456C265.643 64.2745 265.594 64.1967 265.525 64.1284C265.464 64.0674 265.393 64.0247 265.329 63.9683C265.266 63.8973 265.217 63.8194 265.148 63.7511C265.086 63.6901 265.016 63.6473 264.952 63.5909C264.889 63.5199 264.84 63.4421 264.771 63.3738C264.709 63.3129 264.639 63.2703 264.575 63.2139C264.511 63.1428 264.462 63.0649 264.393 62.9965C264.332 62.9356 264.261 62.8929 264.197 62.8365C264.134 62.7654 264.085 62.6876 264.016 62.6193C263.954 62.5583 263.884 62.5156 263.82 62.4592C263.757 62.3882 263.708 62.3103 263.639 62.242C263.577 62.181 263.507 62.1382 263.443 62.0818C263.38 62.0108 263.331 61.933 263.262 61.8647C263.2 61.8038 263.129 61.7612 263.066 61.7048C263.002 61.6337 262.953 61.5558 262.884 61.4874C262.823 61.4264 262.752 61.3838 262.688 61.3274C262.625 61.2563 262.576 61.1785 262.507 61.1101C262.445 61.0492 262.375 61.0065 262.311 60.9501C262.248 60.879 262.199 60.8012 262.13 60.7329C262.068 60.6719 261.998 60.6291 261.934 60.5727C261.87 60.5017 261.821 60.4239 261.752 60.3556C261.691 60.2947 261.62 60.2521 261.557 60.1957C261.493 60.1246 261.444 60.0467 261.375 59.9783C261.313 59.9173 261.243 59.8747 261.179 59.8183C261.116 59.7472 261.067 59.6694 260.998 59.601C260.936 59.5401 260.866 59.4974 260.802 59.441C260.739 59.3699 260.69 59.2921 260.621 59.2238C260.559 59.1628 260.489 59.1201 260.425 59.0637C260.361 58.9927 260.312 58.9148 260.243 58.8465C260.182 58.7855 260.111 58.7429 260.047 58.6865C259.984 58.6154 259.935 58.5375 259.866 58.4692C259.804 58.4082 259.734 58.3656 259.67 58.3091C259.607 58.2381 259.558 58.1602 259.489 58.0919C259.427 58.031 259.357 57.9883 259.293 57.9319C259.23 57.8608 259.181 57.783 259.112 57.7147C259.05 57.6537 258.979 57.611 258.916 57.5546C258.852 57.4836 258.803 57.4057 258.734 57.3374C258.673 57.2764 258.602 57.2338 258.538 57.1774C258.475 57.1063 258.426 57.0284 258.357 56.9601C258.295 56.8991 258.225 56.8564 258.161 56.8C258.098 56.729 258.049 56.6511 257.98 56.5828C257.918 56.5218 257.848 56.4792 257.784 56.4228C257.721 56.3517 257.672 56.2739 257.602 56.2055C257.541 56.1446 257.47 56.1019 257.407 56.0455C257.343 55.9744 257.294 55.8966 257.225 55.8283C257.164 55.7673 257.093 55.7247 257.029 55.6683C256.966 55.5972 256.917 55.5193 256.848 55.4509C256.786 55.39 256.716 55.3473 256.652 55.2909C256.589 55.2198 256.54 55.142 256.471 55.0737C256.409 55.0127 256.339 54.9701 256.275 54.9136C256.211 54.8426 256.162 54.7647 256.093 54.6964C256.032 54.6355 255.961 54.5928 255.897 54.5364C255.834 54.4653 255.785 54.3875 255.716 54.3192C255.654 54.2581 255.584 54.2154 255.52 54.159C255.457 54.088 255.408 54.0102 255.339 53.9419C255.277 53.881 255.207 53.8383 255.143 53.782C255.08 53.7109 255.031 53.633 254.962 53.5646C254.9 53.5036 254.829 53.4609 254.766 53.4045C254.702 53.3335 254.653 53.2556 254.584 53.1873C254.523 53.1263 254.452 53.0837 254.388 53.0273C254.325 52.9562 254.276 52.8784 254.207 52.81C254.145 52.749 254.075 52.7063 254.011 52.6499C253.948 52.5789 253.899 52.5011 253.83 52.4328C253.768 52.3719 253.698 52.3292 253.634 52.2729C253.571 52.2018 253.522 52.1238 253.452 52.0555C253.391 51.9945 253.32 51.9518 253.257 51.8954C253.193 51.8244 253.144 51.7465 253.075 51.6782C253.014 51.6172 252.943 51.5746 252.879 51.5182C252.816 51.4471 252.767 51.3693 252.698 51.3009C252.636 51.2399 252.566 51.1972 252.502 51.1408C252.439 51.0698 252.39 50.992 252.321 50.9237C252.259 50.8628 252.189 50.8201 252.125 50.7638C252.062 50.6926 252.013 50.6147 251.943 50.5464C251.882 50.4854 251.811 50.4427 251.747 50.3863C251.684 50.3153 251.635 50.2374 251.566 50.1691C251.504 50.1081 251.434 50.0655 251.37 50.0091C251.307 49.938 251.258 49.8601 251.189 49.7918C251.127 49.7309 251.057 49.6882 250.993 49.6318C250.93 49.5607 250.881 49.4829 250.812 49.4146C250.75 49.3536 250.679 49.3109 250.616 49.2545C250.552 49.1835 250.503 49.1056 250.434 49.0372C250.373 48.9763 250.302 48.9336 250.238 48.8772C250.175 48.8061 250.126 48.7283 250.057 48.66C249.995 48.599 249.925 48.5564 249.861 48.4999C249.798 48.4289 249.749 48.351 249.68 48.2827C249.618 48.2218 249.548 48.1791 249.484 48.1227C249.421 48.0516 249.372 47.9738 249.303 47.9054C249.241 47.8445 249.17 47.8018 249.107 47.7454C249.043 47.6743 248.994 47.5964 248.925 47.5281C248.864 47.4672 248.793 47.4245 248.729 47.3681C248.666 47.297 248.617 47.2192 248.548 47.1509C248.486 47.0899 248.416 47.0472 248.352 46.9908C248.289 46.9198 248.24 46.8419 248.171 46.7736C248.109 46.7126 248.039 46.67 247.975 46.6136C247.912 46.5425 247.863 46.4646 247.793 46.3963C247.732 46.3354 247.661 46.2928 247.598 46.2364C247.534 46.1652 247.485 46.0874 247.416 46.019C247.355 45.958 247.284 45.9154 247.22 45.859C247.157 45.7879 247.108 45.7101 247.039 45.6417C246.977 45.5808 246.907 45.5381 246.843 45.4817C246.78 45.4106 246.731 45.3328 246.662 45.2645C246.6 45.2035 246.53 45.1609 246.466 45.1044C246.402 45.0334 246.353 44.9555 246.284 44.8872C246.223 44.8262 246.152 44.7835 246.088 44.727C246.025 44.656 245.976 44.5783 245.907 44.51C245.845 44.4491 245.775 44.4064 245.711 44.35C245.648 44.2789 245.599 44.201 245.53 44.1326C245.468 44.0717 245.398 44.029 245.334 43.9726C245.271 43.9015 245.222 43.8237 245.153 43.7554C245.091 43.6944 245.02 43.6517 244.957 43.5953C244.893 43.5243 244.844 43.4464 244.775 43.3781C244.714 43.3171 244.643 43.2744 244.579 43.2179C244.516 43.1469 244.467 43.0692 244.398 43.0009C244.336 42.94 244.266 42.8973 244.202 42.8409C244.139 42.7698 244.09 42.6919 244.021 42.6235C243.959 42.5626 243.889 42.5199 243.825 42.4635C243.762 42.3924 243.713 42.3146 243.643 42.2463C243.582 42.1853 243.511 42.1426 243.448 42.0862C243.384 42.0152 243.335 41.9373 243.266 41.869C243.205 41.808 243.134 41.7652 243.07 41.7088C243.007 41.6378 242.958 41.5601 242.889 41.4917C242.827 41.4308 242.757 41.3882 242.693 41.3318C242.63 41.2607 242.581 41.1828 242.512 41.1144C242.45 41.0535 242.38 41.0108 242.316 40.9544C242.252 40.8833 242.203 40.8055 242.134 40.7372C242.073 40.6762 242.002 40.6335 241.938 40.5771C241.875 40.5061 241.826 40.4282 241.757 40.3599C240.934 39.546 239.915 39.1391 238.698 39.1391C237.482 39.1391 236.463 39.546 235.64 40.3599C235.17 40.8248 234.85 41.3606 234.648 41.9524C234.625 41.9311 234.6 41.9143 234.576 41.8936C234.513 41.8226 234.464 41.7448 234.395 41.6765C234.334 41.6156 234.263 41.5729 234.199 41.5166C234.136 41.4455 234.087 41.3676 234.018 41.2993C233.956 41.2383 233.886 41.1957 233.822 41.1394C233.759 41.0682 233.71 40.9903 233.641 40.9219C233.579 40.861 233.509 40.8183 233.445 40.7619C233.382 40.6908 233.333 40.613 233.263 40.5447C233.202 40.4836 233.131 40.4409 233.067 40.3845C233.004 40.3134 232.955 40.2357 232.886 40.1674C232.825 40.1065 232.754 40.0638 232.69 40.0074C232.627 39.9364 232.578 39.8585 232.509 39.7902C232.447 39.7292 232.377 39.6866 232.313 39.6302C232.25 39.5591 232.201 39.4812 232.132 39.4128C232.07 39.3519 232 39.3092 231.936 39.2528C231.872 39.1817 231.823 39.1039 231.754 39.0356C231.693 38.9746 231.622 38.9319 231.558 38.8755C231.495 38.8045 231.446 38.7266 231.377 38.6583C231.315 38.5973 231.245 38.5546 231.181 38.4982C231.118 38.4271 231.069 38.3494 231 38.281C230.938 38.2201 230.868 38.1775 230.804 38.1211C230.741 38.05 230.692 37.9721 230.623 37.9037C230.561 37.8428 230.49 37.8001 230.427 37.7437C230.363 37.6726 230.314 37.5948 230.245 37.5265C230.184 37.4655 230.113 37.4228 230.049 37.3664C229.986 37.2954 229.937 37.2175 229.868 37.1492C229.806 37.0882 229.736 37.0454 229.672 36.989C229.609 36.918 229.56 36.8402 229.491 36.7719C229.429 36.711 229.359 36.6684 229.295 36.612C229.232 36.5409 229.183 36.463 229.113 36.3946C229.052 36.3337 228.981 36.291 228.918 36.2346C228.854 36.1635 228.805 36.0857 228.736 36.0173C228.675 35.9564 228.604 35.9137 228.54 35.8573C228.477 35.7862 228.428 35.7084 228.359 35.6401C228.297 35.5791 228.227 35.5363 228.163 35.4799C228.1 35.4089 228.051 35.3311 227.982 35.2628C227.92 35.2019 227.85 35.1593 227.786 35.1029C227.722 35.0318 227.673 34.9539 227.604 34.8855C227.543 34.8245 227.472 34.7819 227.408 34.7255C227.345 34.6544 227.296 34.5766 227.227 34.5082C227.165 34.4473 227.095 34.4046 227.031 34.3482C226.968 34.2771 226.919 34.1993 226.85 34.131C226.788 34.07 226.718 34.0272 226.654 33.9708C226.591 33.8997 226.542 33.822 226.473 33.7537C226.411 33.6928 226.34 33.6502 226.277 33.5938C226.213 33.5227 226.164 33.4448 226.095 33.3764C226.034 33.3154 225.963 33.2727 225.899 33.2163C225.836 33.1452 225.787 33.0675 225.718 32.9991C225.656 32.9382 225.586 32.8955 225.522 32.8391C225.459 32.768 225.41 32.6902 225.341 32.6219C225.279 32.5609 225.209 32.5181 225.145 32.4617C225.081 32.3907 225.032 32.3129 224.963 32.2446C224.902 32.1837 224.831 32.141 224.768 32.0847C224.704 32.0136 224.655 31.9357 224.586 31.8674C223.763 31.0535 222.744 30.6465 221.528 30.6465C220.311 30.6465 219.292 31.0535 218.469 31.8674C217.646 32.6812 217.235 33.6897 217.235 34.8928V37.4428C217.231 37.4389 217.228 37.4341 217.224 37.4302C217.163 37.3692 217.092 37.3266 217.028 37.2701C216.965 37.1991 216.916 37.1212 216.847 37.0529C216.785 36.9919 216.715 36.9492 216.651 36.8928C216.588 36.8217 216.539 36.744 216.47 36.6757C216.408 36.6147 216.338 36.572 216.274 36.5157C216.211 36.4446 216.162 36.3667 216.092 36.2984C216.031 36.2374 215.96 36.1948 215.897 36.1385C215.833 36.0674 215.784 35.9895 215.715 35.9211C215.654 35.8601 215.583 35.8174 215.519 35.761C215.456 35.6899 215.407 35.6121 215.338 35.5438C215.276 35.4828 215.206 35.4401 215.142 35.3837C215.079 35.3126 215.03 35.2349 214.961 35.1666C214.899 35.1056 214.829 35.0629 214.765 35.0066C214.702 34.9355 214.652 34.8577 214.583 34.7893C214.522 34.7283 214.451 34.6857 214.388 34.6294C214.324 34.5583 214.275 34.4804 214.206 34.412C214.144 34.351 214.074 34.3083 214.01 34.2519C213.947 34.1808 213.898 34.103 213.829 34.0347C213.767 33.9737 213.697 33.931 213.633 33.8746C213.57 33.8035 213.521 33.7258 213.452 33.6575C213.39 33.5965 213.32 33.5538 213.256 33.4975C213.192 33.4264 213.143 33.3486 213.074 33.2802C213.013 33.2192 212.942 33.1766 212.878 33.1202C212.815 33.0491 212.766 32.9713 212.697 32.9029C212.635 32.842 212.565 32.7994 212.501 32.743C212.438 32.6719 212.389 32.594 212.32 32.5256C212.258 32.4647 212.188 32.422 212.124 32.3656C212.061 32.2945 212.012 32.2167 211.943 32.1483C211.881 32.0873 211.81 32.0446 211.746 31.9882C211.683 31.9171 211.634 31.8394 211.565 31.7711C211.504 31.7101 211.433 31.6675 211.369 31.6111C211.306 31.54 211.257 31.4621 211.188 31.3938C211.126 31.3329 211.056 31.2903 210.992 31.2339C210.929 31.1628 210.88 31.0849 210.811 31.0165C210.749 30.9555 210.679 30.9129 210.615 30.8565C210.552 30.7854 210.503 30.7076 210.433 30.6392C210.372 30.5782 210.301 30.5355 210.237 30.4791C210.174 30.408 210.125 30.3303 210.056 30.262C209.995 30.201 209.924 30.1584 209.86 30.102C209.797 30.0309 209.748 29.953 209.679 29.8847C209.617 29.8238 209.547 29.7812 209.483 29.7248C209.42 29.6537 209.371 29.5758 209.302 29.5074C209.24 29.4464 209.169 29.4038 209.106 29.3474C209.042 29.2763 208.993 29.1985 208.924 29.1301C208.863 29.0691 208.792 29.0264 208.728 28.97C208.665 28.8989 208.616 28.8212 208.547 28.7529C208.485 28.6919 208.415 28.6493 208.351 28.5929C208.288 28.5218 208.239 28.4439 208.17 28.3756C208.108 28.3147 208.038 28.2721 207.974 28.2157C207.911 28.1446 207.862 28.0667 207.792 27.9983C207.731 27.9373 207.66 27.8947 207.597 27.8383C207.533 27.7672 207.484 27.6893 207.415 27.621C206.592 26.8072 205.573 26.4002 204.357 26.4002C203.14 26.4002 202.121 26.8072 201.298 27.621C200.475 28.4349 200.064 29.4434 200.064 30.6465V45.9354C200.06 45.9314 200.057 45.9267 200.053 45.9227C199.992 45.8617 199.921 45.8191 199.857 45.7627C199.794 45.6916 199.745 45.6138 199.676 45.5454C199.614 45.4845 199.544 45.4419 199.48 45.3855C199.417 45.3144 199.368 45.2365 199.299 45.1681C199.237 45.1071 199.167 45.0644 199.103 45.008C199.04 44.9369 198.991 44.8591 198.922 44.7908C198.86 44.7298 198.789 44.6871 198.725 44.6307C198.662 44.5597 198.613 44.4818 198.544 44.4136C198.483 44.3526 198.412 44.31 198.348 44.2536C198.285 44.1825 198.236 44.1047 198.167 44.0363C198.105 43.9754 198.035 43.9328 197.971 43.8764C197.908 43.8053 197.859 43.7274 197.79 43.659C197.728 43.598 197.658 43.5553 197.594 43.4989C197.53 43.4278 197.482 43.3501 197.412 43.2817C197.351 43.2207 197.28 43.178 197.216 43.1216C197.153 43.0506 197.104 42.9727 197.035 42.9045C196.974 42.8435 196.903 42.8009 196.839 42.7445C196.776 42.6735 196.727 42.5956 196.658 42.5272C196.596 42.4663 196.526 42.4236 196.462 42.3672C196.399 42.2961 196.35 42.2183 196.281 42.15C196.219 42.089 196.149 42.0464 196.085 41.9901C196.021 41.9189 195.972 41.841 195.903 41.7726C195.842 41.7116 195.771 41.6689 195.707 41.6125C195.644 41.5415 195.595 41.4636 195.526 41.3954C195.464 41.3344 195.394 41.2918 195.33 41.2354C195.267 41.1643 195.218 41.0865 195.149 41.0181C195.087 40.9572 195.017 40.9145 194.953 40.8581C194.89 40.787 194.841 40.7092 194.772 40.6409C194.71 40.5799 194.639 40.5373 194.576 40.4809C194.512 40.4098 194.463 40.3319 194.394 40.2635C194.333 40.2025 194.262 40.1598 194.198 40.1034C194.135 40.0324 194.086 39.9545 194.017 39.8863C193.955 39.8253 193.885 39.7827 193.821 39.7263C193.758 39.6552 193.709 39.5774 193.64 39.509C193.578 39.4481 193.508 39.4054 193.444 39.349C193.38 39.2779 193.331 39.2001 193.262 39.1317C193.201 39.0708 193.13 39.0282 193.067 38.9718C193.003 38.9007 192.954 38.8228 192.885 38.7544C192.823 38.6935 192.753 38.6507 192.689 38.5943C192.626 38.5233 192.577 38.4455 192.508 38.3772C192.446 38.3161 192.376 38.2734 192.312 38.217C192.249 38.146 192.2 38.0682 192.131 37.9999C192.069 37.939 191.998 37.8963 191.935 37.8399C191.871 37.7688 191.822 37.691 191.753 37.6227C191.692 37.5617 191.621 37.5191 191.557 37.4627C191.494 37.3916 191.445 37.3137 191.376 37.2453C191.314 37.1844 191.244 37.1416 191.18 37.0852C191.117 37.0142 191.068 36.9364 190.999 36.8681C190.937 36.807 190.867 36.7643 190.803 36.7079C190.739 36.6369 190.691 36.5591 190.621 36.4908C190.56 36.4299 190.489 36.3872 190.426 36.3308C190.362 36.2598 190.313 36.1819 190.244 36.1136C189.421 35.2997 188.402 34.8927 187.186 34.8927C185.969 34.8927 184.95 35.2997 184.127 36.1136C183.304 36.9274 182.893 37.9359 182.893 39.139V79.7969L171.088 71.729C169.371 70.5259 167.457 70.0305 165.346 70.2428C163.236 70.4552 161.465 71.3044 160.034 72.7906C159.462 73.3567 159.122 74.0467 159.014 74.8607C158.907 75.6746 159.104 76.4353 159.605 77.143L178.6 104.744C179.88 106.588 181.305 108.269 182.867 109.798C182.992 109.924 183.117 110.05 183.243 110.175C183.369 110.301 183.494 110.427 183.621 110.552C183.746 110.678 183.871 110.804 183.998 110.929C184.123 111.055 184.248 111.182 184.376 111.307C184.501 111.433 184.626 111.559 184.753 111.684C184.878 111.81 185.003 111.937 185.13 112.061C185.255 112.187 185.38 112.313 185.507 112.438C185.632 112.564 185.758 112.691 185.885 112.816C186.01 112.942 186.135 113.068 186.262 113.193C186.387 113.319 186.512 113.446 186.639 113.57C186.764 113.696 186.889 113.823 187.016 113.947C187.141 114.074 187.267 114.2 187.394 114.325C187.519 114.451 187.644 114.578 187.771 114.702C187.896 114.828 188.021 114.955 188.148 115.079C188.273 115.205 188.398 115.332 188.525 115.456C188.65 115.583 188.775 115.709 188.903 115.834C189.028 115.96 189.153 116.087 189.28 116.211C189.405 116.338 189.53 116.464 189.657 116.588C189.782 116.715 189.907 116.841 190.034 116.966C190.159 117.092 190.284 117.218 190.411 117.342C190.537 117.469 190.662 117.596 190.789 117.721C190.914 117.847 191.039 117.973 191.166 118.097C191.291 118.224 191.417 118.35 191.544 118.475C191.669 118.601 191.793 118.727 191.92 118.851C192.046 118.978 192.171 119.105 192.299 119.23C192.424 119.356 192.548 119.482 192.675 119.606C192.801 119.733 192.926 119.859 193.053 119.984C193.178 120.11 193.303 120.236 193.429 120.36C193.555 120.487 193.68 120.614 193.808 120.739C193.933 120.865 194.058 120.991 194.184 121.116C194.31 121.242 194.435 121.368 194.562 121.493C194.687 121.619 194.812 121.745 194.939 121.87C195.064 121.996 195.189 122.123 195.317 122.248C195.442 122.374 195.567 122.5 195.694 122.625C195.819 122.751 195.944 122.878 196.071 123.002C196.196 123.128 196.321 123.254 196.448 123.379C196.573 123.505 196.699 123.632 196.826 123.757C196.951 123.883 197.076 124.01 197.203 124.134C197.328 124.26 197.453 124.387 197.58 124.511C197.705 124.637 197.83 124.764 197.957 124.888C198.082 125.014 198.207 125.141 198.335 125.266C198.46 125.392 198.585 125.519 198.712 125.643C198.837 125.77 198.962 125.896 199.089 126.02C199.214 126.147 199.339 126.273 199.466 126.397C199.591 126.524 199.716 126.65 199.843 126.774C199.969 126.901 200.094 127.028 200.221 127.152C200.346 127.279 200.471 127.405 200.598 127.529C200.723 127.656 200.848 127.782 200.975 127.907C201.1 128.033 201.225 128.159 201.352 128.283C201.478 128.41 201.603 128.537 201.73 128.662C201.855 128.788 201.98 128.914 202.107 129.038C202.232 129.165 202.358 129.291 202.485 129.416C202.61 129.542 202.734 129.668 202.861 129.792C202.987 129.919 203.112 130.046 203.24 130.171C203.365 130.297 203.489 130.423 203.616 130.547C203.742 130.674 203.867 130.8 203.994 130.925C204.119 131.051 204.244 131.177 204.37 131.301C204.496 131.428 204.621 131.555 204.749 131.68C204.874 131.806 204.999 131.932 205.125 132.057C205.251 132.183 205.376 132.309 205.503 132.434C205.628 132.56 205.753 132.686 205.88 132.811C206.005 132.937 206.13 133.064 206.258 133.189C206.383 133.315 206.508 133.441 206.635 133.566C206.76 133.692 206.885 133.819 207.012 133.943C207.137 134.069 207.262 134.195 207.389 134.32C207.514 134.446 207.639 134.573 207.766 134.698C207.892 134.824 208.017 134.951 208.144 135.075C208.269 135.201 208.394 135.328 208.521 135.452C208.646 135.578 208.771 135.705 208.898 135.829C209.023 135.956 209.148 136.082 209.275 136.206C209.4 136.333 209.526 136.46 209.653 136.584C209.778 136.711 209.903 136.837 210.03 136.961C210.155 137.088 210.28 137.214 210.407 137.338C210.532 137.465 210.657 137.591 210.784 137.715C210.91 137.842 211.035 137.969 211.162 138.093C211.287 138.22 211.412 138.346 211.539 138.47C211.664 138.597 211.789 138.723 211.916 138.848C212.041 138.974 212.166 139.1 212.293 139.224C212.419 139.351 212.544 139.478 212.671 139.603C212.796 139.729 212.921 139.855 213.048 139.979C213.173 140.106 213.299 140.232 213.426 140.357C213.551 140.483 213.675 140.609 213.802 140.733C213.928 140.86 214.053 140.987 214.181 141.112C214.306 141.238 214.431 141.364 214.557 141.488C214.682 141.615 214.808 141.741 214.935 141.866C215.06 141.992 215.185 142.118 215.311 142.242C215.437 142.369 215.562 142.496 215.69 142.621C215.815 142.747 215.94 142.873 216.066 142.998C216.192 143.124 216.317 143.25 216.444 143.375C216.569 143.501 216.694 143.627 216.821 143.752C216.946 143.878 217.071 144.005 217.198 144.129C217.324 144.256 217.449 144.383 217.576 144.507C217.701 144.633 217.826 144.76 217.953 144.884C218.078 145.01 218.203 145.137 218.33 145.261C218.455 145.387 218.58 145.514 218.707 145.638C218.832 145.765 218.958 145.892 219.085 146.016C219.21 146.143 219.335 146.269 219.462 146.393C219.587 146.519 219.712 146.646 219.839 146.77C219.964 146.897 220.089 147.023 220.216 147.147C220.342 147.274 220.467 147.401 220.594 147.525C220.719 147.652 220.844 147.778 220.971 147.902C221.096 148.029 221.221 148.155 221.348 148.279C221.473 148.406 221.598 148.532 221.725 148.656C221.851 148.783 221.976 148.91 222.103 149.034C222.228 149.161 222.353 149.287 222.48 149.411C222.605 149.538 222.73 149.664 222.857 149.789C222.982 149.915 223.107 150.041 223.234 150.165C223.36 150.292 223.485 150.419 223.613 150.544C223.737 150.67 223.862 150.796 223.989 150.92C224.114 151.047 224.239 151.173 224.367 151.298C224.492 151.424 224.616 151.55 224.743 151.674C224.869 151.801 224.994 151.928 225.122 152.053C225.247 152.179 225.372 152.305 225.498 152.429C225.623 152.556 225.749 152.682 225.876 152.807C226.001 152.933 226.126 153.059 226.252 153.183C226.378 153.31 226.503 153.437 226.63 153.561C226.756 153.688 226.881 153.815 227.008 153.939C227.133 154.065 227.258 154.192 227.385 154.316C227.51 154.442 227.635 154.569 227.762 154.693C227.887 154.819 228.012 154.946 228.139 155.07C228.264 155.197 228.39 155.323 228.517 155.448C228.642 155.574 228.767 155.701 228.894 155.825C229.019 155.951 229.144 156.078 229.271 156.202C229.396 156.328 229.521 156.455 229.648 156.579C229.773 156.706 229.899 156.833 230.026 156.957C230.151 157.084 230.276 157.21 230.403 157.334C230.528 157.46 230.653 157.587 230.78 157.711C230.905 157.838 231.03 157.964 231.157 158.088C231.282 158.215 231.408 158.342 231.535 158.466C231.66 158.593 231.785 158.719 231.912 158.843C232.037 158.97 232.162 159.096 232.289 159.22C232.414 159.347 232.539 159.473 232.666 159.597C232.792 159.724 232.917 159.851 233.044 159.975C233.169 160.102 233.294 160.228 233.421 160.352C233.546 160.479 233.671 160.605 233.798 160.729C233.923 160.856 234.048 160.982 234.175 161.106C234.301 161.233 234.426 161.36 234.554 161.485C234.678 161.611 234.803 161.737 234.93 161.861C235.055 161.988 235.18 162.114 235.308 162.239C235.433 162.365 235.557 162.491 235.684 162.615C235.81 162.742 235.935 162.869 236.062 162.993C236.187 163.12 236.313 163.246 236.44 163.371C236.565 163.497 236.69 163.623 236.817 163.748C236.942 163.874 237.067 164.001 237.194 164.125C237.319 164.251 237.444 164.378 237.571 164.502C237.696 164.629 237.822 164.755 237.949 164.88C238.074 165.006 238.199 165.133 238.326 165.257C238.451 165.383 238.576 165.51 238.703 165.634C238.828 165.76 238.953 165.887 239.08 166.011C239.205 166.138 239.331 166.264 239.458 166.389C239.583 166.515 239.708 166.642 239.835 166.766C239.96 166.892 240.085 167.019 240.212 167.143C240.337 167.269 240.462 167.396 240.589 167.52C240.714 167.647 240.84 167.774 240.967 167.898C241.092 168.025 241.217 168.151 241.344 168.275C241.469 168.401 241.594 168.528 241.721 168.652C241.846 168.779 241.971 168.905 242.098 169.029C242.223 169.156 242.349 169.283 242.476 169.407C242.601 169.534 242.726 169.66 242.853 169.784C242.978 169.911 243.103 170.037 243.23 170.161C243.355 170.288 243.48 170.414 243.607 170.538C243.733 170.665 243.858 170.792 243.985 170.916C244.11 171.043 244.235 171.169 244.362 171.293C244.487 171.42 244.612 171.546 244.739 171.67C244.864 171.797 244.989 171.923 245.116 172.047C245.242 172.174 245.367 172.301 245.494 172.425C245.619 172.552 245.745 172.678 245.872 172.803C245.997 172.929 246.122 173.055 246.249 173.18C246.374 173.306 246.499 173.433 246.626 173.557C246.751 173.683 246.876 173.809 247.003 173.934C247.128 174.06 247.254 174.187 247.381 174.312C247.506 174.438 247.631 174.564 247.758 174.689C247.883 174.815 248.008 174.942 248.135 175.066C248.26 175.192 248.385 175.319 248.512 175.443C248.637 175.57 248.763 175.696 248.89 175.821C249.015 175.947 249.14 176.074 249.267 176.198C249.392 176.324 249.517 176.451 249.644 176.575C249.769 176.701 249.894 176.828 250.021 176.952C250.146 177.079 250.272 177.205 250.399 177.33C250.524 177.456 250.649 177.583 250.776 177.707C250.901 177.833 251.026 177.96 251.153 178.084C251.278 178.21 251.403 178.337 251.53 178.461C251.655 178.588 251.781 178.715 251.908 178.839C252.033 178.966 252.158 179.092 252.285 179.216C252.41 179.342 252.535 179.469 252.662 179.593C252.787 179.72 252.912 179.846 253.039 179.97C253.164 180.097 253.29 180.224 253.417 180.348C253.542 180.475 253.667 180.601 253.794 180.725C253.919 180.852 254.044 180.978 254.171 181.102C254.296 181.229 254.421 181.355 254.548 181.479C254.673 181.606 254.799 181.733 254.926 181.857C255.051 181.984 255.177 182.11 255.304 182.235C255.429 182.361 255.554 182.487 255.68 182.611C255.806 182.738 255.931 182.864 256.058 182.989C256.183 183.115 256.308 183.241 256.435 183.366C256.56 183.492 256.685 183.619 256.813 183.744C256.938 183.87 257.063 183.996 257.19 184.121C257.315 184.247 257.44 184.374 257.567 184.498C257.692 184.624 257.817 184.751 257.944 184.875C258.069 185.001 258.195 185.128 258.322 185.253C258.447 185.379 258.572 185.505 258.699 185.63C258.824 185.756 258.949 185.883 259.076 186.007C259.201 186.133 259.326 186.26 259.453 186.384C259.578 186.511 259.704 186.637 259.831 186.762C259.956 186.888 260.081 187.015 260.208 187.139C260.333 187.265 260.458 187.392 260.585 187.516C260.71 187.642 260.835 187.769 260.962 187.893C261.087 188.02 261.213 188.146 261.34 188.271C261.465 188.397 261.59 188.524 261.717 188.648C261.842 188.774 261.967 188.901 262.094 189.025C262.219 189.152 262.344 189.278 262.471 189.402C262.596 189.529 262.722 189.656 262.849 189.78C262.974 189.907 263.099 190.033 263.226 190.157C263.351 190.283 263.476 190.41 263.603 190.534C263.728 190.661 263.853 190.787 263.98 190.911C264.105 191.038 264.231 191.164 264.358 191.289C264.483 191.416 264.608 191.542 264.736 191.667C264.861 191.793 264.985 191.919 265.112 192.043C265.237 192.17 265.363 192.296 265.49 192.421C265.615 192.547 265.74 192.673 265.866 192.798C265.992 192.924 266.117 193.051 266.245 193.176C266.37 193.302 266.495 193.428 266.621 193.552C266.747 193.679 266.872 193.805 266.999 193.93C267.124 194.056 267.249 194.182 267.376 194.307C267.501 194.433 267.626 194.56 267.754 194.685C267.879 194.811 268.004 194.937 268.131 195.062C268.256 195.188 268.381 195.315 268.508 195.439C268.633 195.565 268.758 195.691 268.885 195.816C269.01 195.942 269.136 196.069 269.263 196.194C269.388 196.32 269.513 196.446 269.64 196.571C269.765 196.697 269.89 196.824 270.017 196.948C270.142 197.074 270.267 197.201 270.394 197.325C270.519 197.452 270.645 197.578 270.772 197.703C270.897 197.829 271.022 197.956 271.149 198.08C271.274 198.206 271.399 198.333 271.526 198.457C271.651 198.583 271.776 198.71 271.903 198.834C272.028 198.961 272.154 199.088 272.281 199.212C272.406 199.338 272.531 199.465 272.658 199.589C272.783 199.715 272.908 199.842 273.035 199.966C273.16 200.093 273.285 200.219 273.412 200.343C273.537 200.47 273.663 200.596 273.79 200.721C273.915 200.847 274.04 200.974 274.167 201.099C274.292 201.225 274.417 201.351 274.544 201.475C274.669 201.602 274.795 201.728 274.922 201.853C275.047 201.979 275.171 202.105 275.298 202.229C275.424 202.356 275.549 202.483 275.677 202.608C275.802 202.734 275.926 202.86 276.053 202.984C276.179 203.111 276.304 203.237 276.431 203.362C276.556 203.488 276.681 203.614 276.807 203.739C276.933 203.865 277.058 203.992 277.186 204.117C277.311 204.243 277.436 204.369 277.562 204.493C277.688 204.62 277.813 204.746 277.94 204.871C278.065 204.997 278.19 205.123 278.317 205.248C278.442 205.374 278.567 205.501 278.695 205.626C278.82 205.752 278.945 205.878 279.072 206.003C279.197 206.129 279.322 206.256 279.449 206.38C279.574 206.506 279.699 206.632 279.826 206.757C279.951 206.883 280.077 207.01 280.204 207.135C280.329 207.261 280.454 207.387 280.581 207.512C280.706 207.638 280.831 207.765 280.958 207.889C281.083 208.015 281.208 208.142 281.335 208.266C281.46 208.393 281.586 208.519 281.713 208.644C281.838 208.77 281.963 208.897 282.09 209.021C282.215 209.147 282.34 209.274 282.467 209.398C282.592 209.524 282.717 209.651 282.844 209.775C282.969 209.902 283.094 210.028 283.222 210.153C283.347 210.279 283.472 210.406 283.599 210.53C283.724 210.657 283.849 210.783 283.976 210.907C284.101 211.034 284.226 211.16 284.353 211.285C284.478 211.411 284.603 211.537 284.73 211.661C284.856 211.788 284.981 211.915 285.108 212.04C285.233 212.166 285.358 212.292 285.485 212.416C285.61 212.543 285.736 212.669 285.863 212.794C285.988 212.92 286.112 213.046 286.239 213.17C286.365 213.297 286.49 213.424 286.618 213.549C286.743 213.675 286.867 213.801 286.994 213.925C287.12 214.052 287.245 214.178 287.372 214.303C287.497 214.429 287.622 214.555 287.748 214.679C287.874 214.806 287.999 214.933 288.127 215.058C288.252 215.184 288.377 215.31 288.503 215.435C288.629 215.561 288.754 215.687 288.881 215.812C289.006 215.938 289.131 216.064 289.258 216.189C289.383 216.315 289.508 216.442 289.636 216.567C289.761 216.693 289.886 216.819 290.013 216.944C290.138 217.07 290.263 217.197 290.39 217.321C290.515 217.447 290.64 217.573 290.767 217.698C290.892 217.824 291.018 217.951 291.145 218.076C291.27 218.202 291.395 218.328 291.522 218.453C291.647 218.579 291.772 218.706 291.899 218.83C292.024 218.956 292.149 219.083 292.276 219.207C292.401 219.333 292.526 219.46 292.653 219.585C292.779 219.711 292.904 219.838 293.031 219.962C293.156 220.089 293.281 220.215 293.408 220.339C293.533 220.466 293.658 220.592 293.785 220.716C293.91 220.843 294.035 220.969 294.162 221.093C294.288 221.22 294.413 221.347 294.54 221.471C294.665 221.598 294.79 221.724 294.917 221.848C295.042 221.975 295.167 222.101 295.294 222.226C295.419 222.352 295.544 222.478 295.671 222.602C298.214 225.171 301.135 227.314 304.447 229.02C309.598 231.674 315.107 233.001 320.974 233.001C330.775 233.001 339.093 229.621 345.925 222.863C352.758 216.104 356.174 207.877 356.174 198.181V156.568C356.174 155.365 355.763 154.356 354.94 153.543L354.938 153.543Z" fill="#1A4690"/>
</g>
</g>
<path d="M207.789 119.819C201.923 119.819 196.414 118.492 191.262 115.838C186.111 113.184 181.89 109.486 178.599 104.745L159.603 77.1441C159.102 76.4364 158.906 75.6757 159.013 74.8618C159.12 74.0479 159.46 73.3579 160.033 72.7917C161.463 71.3055 163.234 70.4563 165.345 70.244C167.455 70.0317 169.369 70.5271 171.086 71.7301L182.891 79.798V39.1401C182.891 37.9371 183.303 36.9286 184.126 36.1147C184.948 35.3008 185.968 34.8939 187.184 34.8939C188.4 34.8939 189.42 35.3008 190.243 36.1147C191.066 36.9286 191.477 37.9371 191.477 39.1401V87.9721C191.477 89.6706 190.708 90.9268 189.17 91.7407C187.631 92.5545 186.147 92.4661 184.716 91.4752L175.594 85.212L185.789 99.8616C188.293 103.471 191.477 106.284 195.34 108.301C199.204 110.318 203.354 111.327 207.789 111.327C215.159 111.327 221.437 108.761 226.624 103.63C231.811 98.4993 234.404 92.2891 234.404 84.9997V43.3864C234.404 42.1833 234.816 41.1748 235.639 40.3609C236.461 39.5471 237.481 39.1401 238.697 39.1401C239.913 39.1401 240.933 39.5471 241.756 40.3609C242.579 41.1748 242.99 42.1833 242.99 43.3864V84.9997C242.99 94.6954 239.574 102.922 232.741 109.681C225.908 116.44 217.591 119.819 207.789 119.819ZM204.355 26.4014C205.571 26.4014 206.591 26.8083 207.414 27.6222C208.237 28.436 208.648 29.4445 208.648 30.6476V68.8639C208.648 70.0671 208.237 71.0756 207.414 71.8894C206.591 72.7033 205.571 73.1102 204.355 73.1102C203.139 73.1102 202.119 72.7033 201.297 71.8894C200.474 71.0756 200.062 70.0671 200.062 68.8639V30.6476C200.062 29.4445 200.474 28.436 201.297 27.6222C202.119 26.8083 203.139 26.4014 204.355 26.4014ZM221.526 30.6476C222.742 30.6476 223.762 31.0546 224.585 31.8684C225.408 32.6823 225.819 33.6908 225.819 34.8939V68.8639C225.819 70.0671 225.408 71.0756 224.585 71.8894C223.762 72.7033 222.742 73.1102 221.526 73.1102C220.31 73.1102 219.29 72.7033 218.468 71.8894C217.645 71.0756 217.233 70.0671 217.233 68.8639V34.8939C217.233 33.6908 217.645 32.6823 218.468 31.8684C219.29 31.0546 220.31 30.6476 221.526 30.6476Z" fill="#7FA3E9"/>
<path d="M329.424 145.001C307.651 145.001 290 127.148 290 105.126V0.000610352H435V145.001H329.424Z" fill="#286AD8"/>
<rect x="435" width="145" height="145" fill="#CCE0F6"/>
<path d="M507.5 145C547.54 145 580 112.541 580 72.5004C580 32.4599 547.54 0.000610352 507.5 0.000610352C467.459 0.000610352 435 32.4599 435 72.5004C435 112.541 467.459 145 507.5 145Z" fill="#286AD8"/>
<mask id="mask3_3216_666" style="mask-type:alpha" maskUnits="userSpaceOnUse" x="435" y="0" width="145" height="145">
<path d="M507.5 145C547.54 145 580 112.541 580 72.5004C580 32.4599 547.54 0.000610352 507.5 0.000610352C467.459 0.000610352 435 32.4599 435 72.5004C435 112.541 467.459 145 507.5 145Z" fill="#286AD8"/>
</mask>
<g mask="url(#mask3_3216_666)">
<mask id="mask4_3216_666" style="mask-type:alpha" maskUnits="userSpaceOnUse" x="435" y="0" width="145" height="145">
<path d="M507.5 145C547.54 145 580 112.541 580 72.5004C580 32.4599 547.54 0.000610352 507.5 0.000610352C467.459 0.000610352 435 32.4599 435 72.5004C435 112.541 467.459 145 507.5 145Z" fill="#286AD8"/>
</mask>
<g mask="url(#mask4_3216_666)">
<g opacity="0.5" style="mix-blend-mode:multiply">
<path d="M598.186 92.2074L587.87 119.979L572.269 140.617L551.203 156.095L534.577 162.517L527.094 164.535L473.838 110.912C473.713 110.789 473.59 110.665 473.467 110.54C473.344 110.416 473.221 110.292 473.099 110.168C472.975 110.045 472.851 109.92 472.73 109.796C472.605 109.673 472.482 109.548 472.359 109.423C472.234 109.299 472.111 109.176 471.988 109.05C471.865 108.927 471.742 108.804 471.619 108.679C462.365 99.4553 456.627 86.6607 456.627 72.5144C456.627 44.4102 479.254 21.6276 507.166 21.6276C521.215 21.6276 533.922 27.405 543.082 36.7221C543.206 36.8467 543.329 36.9698 543.451 37.0958C543.576 37.2189 543.699 37.3435 543.822 37.468L597.817 91.8351C597.94 91.9583 598.063 92.0814 598.186 92.2074Z" fill="#1A4690"/>
</g>
<circle cx="507.5" cy="72.5003" r="46.2833" stroke="#7FA3E9" stroke-width="10.1787"/>
<path d="M527.839 88.9394H521.128V76.0367L509.029 57.4151H516.685L524.484 70.0343L532.282 57.4151H539.891L527.839 76.0367V88.9394Z" fill="#7FA3E9"/>
<path d="M508.012 88.9394H501.537L486.507 68.3801V88.9394H479.796V57.4151H486.696L501.301 77.2182V57.4151H508.012V88.9394Z" fill="#7FA3E9"/>
</g>
</g>
<defs>
<linearGradient id="paint0_linear_3216_666" x1="461.106" y1="313.578" x2="580" y2="420.11" gradientUnits="userSpaceOnUse">
<stop stop-color="#7AA5E7"/>
<stop offset="0.99716" stop-color="#003BA1"/>
</linearGradient>
<linearGradient id="paint1_linear_3216_666" x1="739.889" y1="290.001" x2="846.422" y2="171.106" gradientUnits="userSpaceOnUse">
<stop stop-color="#7AA5E7"/>
<stop offset="0.99716" stop-color="#003BA1"/>
</linearGradient>
<linearGradient id="paint2_linear_3216_666" x1="652.5" y1="290.001" x2="652.5" y2="435.001" gradientUnits="userSpaceOnUse">
<stop stop-color="#A3C2EE"/>
<stop offset="1" stop-color="#043EA3"/>
</linearGradient>
<linearGradient id="paint3_linear_3216_666" x1="362.5" y1="145" x2="362.5" y2="290" gradientUnits="userSpaceOnUse">
<stop stop-color="#A3C2EE"/>
<stop offset="1" stop-color="#043EA3"/>
</linearGradient>
<linearGradient id="paint4_linear_3216_666" x1="72.5" y1="290" x2="72.5" y2="435" gradientUnits="userSpaceOnUse">
<stop offset="0.00283998" stop-color="#003BA1"/>
<stop offset="1" stop-color="#7AA5E7"/>
</linearGradient>
<linearGradient id="paint5_linear_3216_666" x1="465" y1="39.1617" x2="715" y2="290" gradientUnits="userSpaceOnUse">
<stop stop-color="#A3C2EE"/>
<stop offset="1" stop-color="#043EA3"/>
</linearGradient>
<linearGradient id="paint6_linear_3216_666" x1="588" y1="145.001" x2="652.5" y2="290" gradientUnits="userSpaceOnUse">
<stop stop-color="#A3C2EE"/>
<stop offset="1" stop-color="#153872"/>
</linearGradient>
</defs>
</svg>
