<svg xmlns="http://www.w3.org/2000/svg" width="986" height="219" fill="none" viewBox="0 0 986 219"><g clip-path="url(#a)"><circle cx="115.5" cy="105.5" r="102.5" fill="#fff"/><path fill="#fff" d="M300.166 98.855 261.981 45.06v53.795h-17.05V18.764h17.531l37.104 51.873V18.764h17.051v80.09zm52.836-59.437c17.29 0 29.059 12.967 29.059 31.94v3.362h-43.109c.961 7.324 6.846 13.449 16.691 13.449 5.403 0 11.768-2.162 15.49-5.764l6.724 9.846c-5.884 5.403-14.889 8.045-23.895 8.045-17.651 0-30.98-11.888-30.98-30.5 0-16.81 12.369-30.379 30.02-30.379m-14.289 24.975h28.578c-.361-5.524-4.203-12.848-14.289-12.848-9.487 0-13.569 7.085-14.289 12.848m99.664 34.463L426.129 59.35l-12.248 39.505H397.55l-17.651-57.998h15.851l10.807 39.025 12.728-39.025h13.568l12.729 39.025 10.806-39.025h15.85l-17.651 57.998zm75.651 0V66.074l-30.859-47.31h19.452l19.933 32.18 19.693-32.18h19.452l-30.62 47.31v32.78z"/><path fill="#fff" d="M544.888 69.796c0-16.45 11.527-30.379 30.619-30.379 19.213 0 30.74 13.929 30.74 30.38 0 16.57-11.527 30.499-30.74 30.499-19.092 0-30.619-13.93-30.619-30.5m45.509 0c0-9.005-5.404-16.81-14.89-16.81s-14.769 7.805-14.769 16.81c0 9.127 5.283 16.931 14.769 16.931s14.89-7.804 14.89-16.93m22.576 29.058V40.857h15.25v7.926c4.082-5.164 11.286-9.246 18.491-9.246v14.89c-1.081-.24-2.521-.361-4.202-.361-5.045 0-11.769 2.761-14.289 6.484v38.305zm75.671 0-15.37-22.335-6.963 7.446v14.889h-15.25V18.764h15.25v47.91l21.973-25.817h18.732l-22.935 26.297 23.655 31.7zM734.875 74.6c5.644 5.884 14.41 10.807 25.457 10.807 9.366 0 13.928-4.444 13.928-9.007 0-6.003-6.963-8.045-16.21-10.207-13.088-3-29.899-6.604-29.899-24.494 0-13.328 11.527-24.136 30.38-24.136 12.728 0 23.294 3.843 31.219 11.167l-9.486 12.488c-6.484-6.004-15.129-8.765-22.935-8.765-7.685 0-11.767 3.361-11.767 8.165 0 5.404 6.724 7.085 15.97 9.246 13.209 3.001 30.02 6.964 30.02 24.736 0 14.648-10.447 25.696-32.061 25.696-15.37 0-26.417-5.164-33.982-12.729zm66.199 9.846V54.187h-9.605v-13.33h9.605v-15.85h15.37v15.85h11.768v13.33h-11.768v26.176c0 3.603 1.922 6.364 5.284 6.364 2.281 0 4.443-.84 5.282-1.68l3.243 11.527c-2.282 2.041-6.364 3.722-12.728 3.722-10.686 0-16.451-5.523-16.451-15.85m68.577 14.409v-6.004c-3.963 4.684-10.806 7.445-18.371 7.445-9.246 0-20.174-6.244-20.174-19.212 0-13.569 10.928-18.492 20.174-18.492 7.685 0 14.528 2.401 18.371 7.085V61.63c0-5.884-5.043-9.727-12.728-9.727-6.244 0-12.008 2.283-16.931 6.845l-5.763-10.207c7.084-6.243 16.209-9.125 25.336-9.125 13.208 0 25.336 5.283 25.336 21.974v37.464zm0-21.133c-2.521-3.363-7.325-5.044-12.248-5.044-6.004 0-10.927 3.242-10.927 8.766 0 5.403 4.923 8.526 10.927 8.526 4.923 0 9.727-1.681 12.248-5.043zm28.579 6.724V54.187h-9.605v-13.33h9.605v-15.85h15.37v15.85h11.768v13.33H913.6v26.176c0 3.603 1.922 6.364 5.284 6.364 2.281 0 4.443-.84 5.283-1.68l3.242 11.527c-2.281 2.041-6.363 3.722-12.728 3.722-10.686 0-16.451-5.523-16.451-15.85m59.319-45.028c17.29 0 29.058 12.967 29.058 31.94v3.362h-43.108c.961 7.324 6.845 13.449 16.69 13.449 5.404 0 11.769-2.162 15.491-5.764l6.724 9.846c-5.884 5.403-14.889 8.045-23.896 8.045-17.651 0-30.979-11.888-30.979-30.5 0-16.81 12.369-30.379 30.02-30.379M943.26 64.393h28.578c-.361-5.524-4.203-12.848-14.289-12.848-9.487 0-13.569 7.085-14.289 12.848m-697.056 126.13v-72.414h24.753c22.474 0 37.131 15.742 37.131 36.262 0 20.628-14.657 36.152-37.131 36.152zm9.012-8.034h15.741c17.588 0 27.793-12.594 27.793-28.118 0-15.634-9.879-28.229-27.793-28.229h-15.741zm83.487-45.706c15.851 0 25.189 12.376 25.189 28.118v2.063h-42.45c.651 9.88 7.599 18.131 18.891 18.131 5.971 0 12.05-2.388 16.176-6.622l3.908 5.319c-5.211 5.211-12.268 8.034-20.844 8.034-15.526 0-26.709-11.182-26.709-27.576 0-15.2 10.858-27.467 25.839-27.467m-17.261 24.21h34.415c-.108-7.818-5.319-17.48-17.262-17.48-11.182 0-16.719 9.445-17.153 17.48m49.83 16.72c3.474 4.016 10.098 7.49 17.263 7.49 8.034 0 12.376-3.582 12.376-8.686 0-5.753-6.405-7.599-13.462-9.336-8.903-2.063-18.999-4.451-18.999-15.307 0-8.143 7.056-15.091 19.542-15.091 8.902 0 15.2 3.365 19.434 7.599l-3.801 5.645c-3.148-3.8-8.902-6.622-15.633-6.622-7.165 0-11.617 3.257-11.617 7.925 0 5.103 5.972 6.732 12.811 8.36 9.12 2.063 19.651 4.668 19.651 16.286 0 8.793-7.056 15.85-20.628 15.85-8.576 0-15.851-2.606-21.17-8.251zm44.73-53.959c0-3.04 2.497-5.428 5.428-5.428 3.04 0 5.537 2.388 5.537 5.428s-2.497 5.538-5.537 5.538c-2.931 0-5.428-2.497-5.428-5.538m1.411 66.769v-52.438h8.142v52.438zm22.69 7.382c4.342 5.212 9.555 7.166 17.045 7.166 8.685 0 16.829-4.235 16.829-15.742v-7.491c-3.8 5.32-10.206 9.336-17.589 9.336-13.679 0-23.342-10.205-23.342-27.141 0-16.828 9.554-27.25 23.342-27.25 7.057 0 13.355 3.474 17.589 9.227v-7.925h8.142v50.918c0 17.371-12.159 22.799-24.971 22.799-8.902 0-14.982-1.737-21.17-7.816zm33.874-45.38c-2.823-4.56-9.121-8.469-15.635-8.469-10.53 0-16.828 8.361-16.828 19.977 0 11.507 6.298 19.976 16.828 19.976 6.514 0 12.812-4.017 15.635-8.576zm54.282 37.998v-34.307c0-9.229-4.67-12.16-11.726-12.16-6.405 0-12.485 3.909-15.525 8.142v38.325h-8.143v-52.438h8.143v7.6c3.692-4.343 10.857-8.902 18.673-8.902 10.966 0 16.72 5.536 16.72 16.936v36.804zm36.803-17.045c4.777 5.32 12.593 10.314 22.798 10.314 12.92 0 17.045-6.949 17.045-12.486 0-8.685-8.793-11.073-18.348-13.678-11.616-3.04-24.536-6.298-24.536-20.52 0-11.943 10.64-20.085 24.862-20.085 11.074 0 19.651 3.691 25.73 10.098l-5.428 6.622c-5.428-5.972-13.027-8.686-20.953-8.686-8.685 0-14.873 4.669-14.873 11.508 0 7.274 8.359 9.445 17.588 11.942 11.833 3.15 25.296 6.841 25.296 22.039 0 10.532-7.166 21.28-26.709 21.28-12.593 0-21.822-4.777-27.793-11.508z"/><path fill="#fff" d="M619.237 203.66c1.194.543 3.148.869 4.451.869 3.582 0 5.972-1.196 7.816-5.538l3.475-7.925-21.93-52.981h8.793l17.48 42.993 17.371-42.993h8.902l-26.273 63.077c-3.149 7.6-8.468 10.532-15.417 10.64-1.737 0-4.451-.325-5.971-.76zm50.049-25.947c3.474 4.016 10.096 7.49 17.262 7.49 8.034 0 12.376-3.582 12.376-8.686 0-5.753-6.405-7.599-13.463-9.336-8.902-2.063-18.998-4.451-18.998-15.307 0-8.143 7.056-15.091 19.542-15.091 8.902 0 15.199 3.365 19.433 7.599l-3.8 5.645c-3.148-3.8-8.902-6.622-15.633-6.622-7.166 0-11.617 3.257-11.617 7.925 0 5.103 5.971 6.732 12.811 8.36 9.12 2.063 19.65 4.668 19.65 16.286 0 8.793-7.056 15.85-20.627 15.85-8.577 0-15.851-2.606-21.17-8.251zm49.397 1.845V145.25h-8.685v-7.165h8.685v-14.331h8.143v14.331h10.639v7.165h-10.639v32.571c0 3.908 1.737 6.731 5.319 6.731 2.28 0 4.451-.977 5.537-2.171l2.388 6.079c-2.062 1.954-4.993 3.366-9.77 3.366-7.708 0-11.617-4.451-11.617-12.268m48.094-42.775c15.85 0 25.188 12.376 25.188 28.118v2.063h-42.45c.651 9.88 7.599 18.131 18.891 18.131 5.971 0 12.05-2.388 16.177-6.622l3.908 5.319c-5.212 5.211-12.269 8.034-20.845 8.034-15.526 0-26.708-11.182-26.708-27.576 0-15.2 10.857-27.467 25.839-27.467m-17.262 24.21h34.415c-.108-7.818-5.319-17.48-17.261-17.48-11.183 0-16.72 9.445-17.154 17.48m113.343 29.53v-35.609c0-6.624-2.931-10.858-9.662-10.858-5.428 0-11.183 3.909-13.897 8.035v38.432h-8.142v-35.609c0-6.624-2.823-10.858-9.663-10.858-5.32 0-10.965 3.909-13.788 8.142v38.325h-8.143v-52.438h8.143v7.6c2.172-3.366 9.228-8.902 16.937-8.902 8.034 0 12.593 4.342 14.113 9.77 2.931-4.777 9.989-9.77 17.588-9.77 9.554 0 14.656 5.319 14.656 15.851v37.889z"/><path fill="#245fc2" d="M89.66 110.894 56.335 77.556V48.47h116.294l44.657 44.966C211.3 42.511 168.016 3 115.5 3 58.89 3 13 48.908 13 105.538c0 23.089 7.632 44.392 20.505 61.532"/><path fill="#0e324f" d="M56.335 77.48h66.65L89.66 110.816zM172.63 48.393v116.339h-29.073v-66.7L54.072 187.55C71.192 200.39 92.457 208 115.5 208c56.609 0 102.5-45.908 102.5-102.538 0-4.106-.268-8.146-.738-12.125z"/></g><defs><clipPath id="a"><path fill="#fff" d="M0 0h985.608v218.967H0z"/></clipPath></defs></svg>