<svg width="136" height="92" viewBox="0 0 136 92" fill="none" xmlns="http://www.w3.org/2000/svg">
<rect x="60.4805" y="91.3018" width="60.4806" height="35.0787" rx="17.5394" transform="rotate(180 60.4805 91.3018)" fill="#BEC0C1"/>
<circle cx="18.75" cy="73.7622" r="15.1201" transform="rotate(180 18.75 73.7622)" fill="white"/>
<rect width="60.4806" height="35.0787" rx="17.5394" fill="#124A73"/>
<ellipse cx="42.9405" cy="17.5393" rx="15.1201" ry="15.1201" fill="white"/>
<rect x="69.5078" y="71.6047" width="66.4925" height="6.65415" rx="3.32708" fill="#BEC0C1"/>
<path d="M40.5104 21.2136L36.7774 17.4619C36.4597 17.142 36.0534 16.982 35.562 16.982C35.0706 16.982 34.6643 17.142 34.3466 17.4619C34.0288 17.7817 33.8691 18.189 33.8691 18.6834C33.8691 19.1777 34.0288 19.585 34.3466 19.9049L39.2951 24.8782C39.6422 25.2272 40.0468 25.4017 40.5104 25.4017C40.974 25.4017 41.3785 25.2272 41.7258 24.8782L51.5359 15.0188C51.8536 14.699 52.0133 14.2917 52.0133 13.7973C52.0133 13.3029 51.8536 12.8957 51.5359 12.5758C51.2182 12.2559 50.8119 12.0959 50.3205 12.0959C49.8291 12.0959 49.4227 12.2559 49.105 12.5758L40.5104 21.2136Z" fill="#124A73"/>
<path d="M70.6162 20.4782C70.6162 18.6407 72.1058 17.1511 73.9433 17.1511H122.74C124.578 17.1511 126.067 18.6407 126.067 20.4782V20.4782C126.067 22.3157 124.578 23.8053 122.74 23.8053H73.9433C72.1058 23.8053 70.6162 22.3157 70.6162 20.4782V20.4782Z" fill="#457AA5"/>
<path d="M18.7505 75.372L13.1164 81.0061C12.9056 81.2169 12.6373 81.3223 12.3115 81.3223C11.9857 81.3223 11.7174 81.2169 11.5066 81.0061C11.2958 80.7953 11.1904 80.527 11.1904 80.2012C11.1904 79.8754 11.2958 79.6071 11.5066 79.3963L17.1408 73.7622L11.5066 68.1281C11.2958 67.9173 11.1904 67.649 11.1904 67.3232C11.1904 66.9974 11.2958 66.7291 11.5066 66.5183C11.7174 66.3075 11.9857 66.2021 12.3115 66.2021C12.6373 66.2021 12.9056 66.3075 13.1164 66.5183L18.7505 72.1525L24.3846 66.5183C24.5954 66.3075 24.8637 66.2021 25.1895 66.2021C25.5153 66.2021 25.7836 66.3075 25.9944 66.5183C26.2052 66.7291 26.3106 66.9974 26.3106 67.3232C26.3106 67.649 26.2052 67.9173 25.9944 68.1281L20.3602 73.7622L25.9944 79.3963C26.2052 79.6071 26.3106 79.8754 26.3106 80.2012C26.3106 80.527 26.2052 80.7953 25.9944 81.0061C25.7836 81.2169 25.5153 81.3223 25.1895 81.3223C24.8637 81.3223 24.5954 81.2169 24.3846 81.0061L18.7505 75.372Z" fill="#BEC0C1" stroke="#BEC0C1" stroke-width="1.20961"/>
</svg>
