<svg xmlns="http://www.w3.org/2000/svg" width="285" height="170" fill="none" viewBox="0 0 285 170"><path fill="#f7fafd" d="M0 8a8 8 0 0 1 8-8h269a8 8 0 0 1 8 8v162H0z"/><rect width="54" height="31.32" x="111" y="123.32" fill="#bec0c1" rx="15.66" transform="rotate(180 111 123.32)"/><circle cx="73.74" cy="107.66" r="13.5" fill="#fff" transform="rotate(180 73.74 107.66)"/><path fill="#bec0c1" stroke="#bec0c1" d="m73.74 109.097-5.03 5.031a.97.97 0 0 1-.719.282.97.97 0 0 1-.718-.282.98.98 0 0 1-.283-.719q0-.436.283-.719l5.03-5.03-5.03-5.031a.97.97 0 0 1-.283-.718q0-.437.283-.719a.97.97 0 0 1 .718-.282q.436 0 .719.282l5.03 5.031 5.03-5.031a.97.97 0 0 1 .72-.282q.436 0 .718.282a.97.97 0 0 1 .282.719q0 .436-.282.718l-5.03 5.031 5.03 5.03a.98.98 0 0 1 .282.719q0 .436-.282.719a.97.97 0 0 1-.719.282.97.97 0 0 1-.718-.282z"/><rect width="53.448" height="31" x="57" y="46" fill="#124a73" rx="15.5"/><circle cx="94.948" cy="61.5" r="13.362" fill="#fff"/><path fill="#124a73" d="m92.8 64.747-3.3-3.315q-.422-.424-1.073-.424-.653 0-1.075.424-.421.423-.422 1.08.001.654.422 1.079l4.373 4.395q.46.462 1.075.462.614 0 1.074-.462l8.669-8.713q.422-.425.422-1.08t-.422-1.08q-.422-.423-1.074-.423t-1.074.424z"/><path fill="#457aa5" d="M124.934 62a4 4 0 0 1 4-4h105a4 4 0 0 1 0 8h-105a4 4 0 0 1-4-4"/><rect width="77" height="8" x="125" y="104" fill="#bec0c1" rx="4"/></svg>