<svg xmlns="http://www.w3.org/2000/svg" width="273" height="144" fill="none" viewBox="0 0 273 144"><rect width="272" height="143" x=".264" y=".35" fill="#eff6fb" rx="8"/><rect width="28.941" height="28.941" x="21.264" y="28.35" fill="#154973" rx="4.824"/><path fill="#457aa5" d="M83.519 43.39a3 3 0 0 1 3-3h84.039a3 3 0 1 1 0 6h-84.04a3 3 0 0 1-3-3M181.597 43.39a3 3 0 0 1 3-3h56.706a3 3 0 1 1 0 6h-56.706a3 3 0 0 1-3-3"/><rect width="25.726" height="25.726" x="22.872" y="83.017" fill="#fff" stroke="#bec0c1" stroke-width="3.216" rx="3.216"/><rect width="136.458" height="6" x="82.469" y="94.272" fill="#bec0c1" rx="3"/><path fill="#fff" d="m33.752 46.258-3.647-3.665q-.466-.47-1.187-.47-.72 0-1.188.47-.465.468-.466 1.193 0 .724.466 1.194l4.835 4.859q.509.51 1.187.511.679 0 1.188-.511l9.585-9.633q.466-.469.466-1.194 0-.724-.466-1.193t-1.188-.469-1.187.469z"/></svg>