<svg width="579" height="145" viewBox="0 0 579 145" fill="none" xmlns="http://www.w3.org/2000/svg">
<path d="M434 145H289V72.6646C289 32.5331 321.459 0 361.5 0C401.541 0 434 32.5331 434 72.6646L434 145Z" fill="#457AA5"/>
<path d="M434 145V0H506.335C546.467 0 579 32.4594 579 72.5C579 112.541 546.467 145 506.335 145L434 145Z" fill="#457AA5"/>
<path d="M289 0H144V145H289V0Z" fill="#457AA5"/>
<path d="M287.582 71.2568C287.35 71.0091 287.11 70.7697 286.862 70.5374C286.63 70.2893 286.39 70.0495 286.142 69.8168C285.91 69.5691 285.67 69.3297 285.422 69.0974C285.19 68.8493 284.95 68.6095 284.702 68.3768C284.47 68.1291 284.23 67.8897 283.982 67.6574C283.75 67.4093 283.51 67.1694 283.262 66.9368C283.03 66.689 282.79 66.4497 282.542 66.2174C282.31 65.9693 282.07 65.7295 281.822 65.4968C281.59 65.2491 281.35 65.0097 281.102 64.7774C280.87 64.5293 280.63 64.2895 280.382 64.0568C280.149 63.809 279.91 63.5695 279.662 63.3371C279.43 63.0892 279.19 62.8496 278.942 62.6172C278.71 62.3692 278.47 62.1296 278.222 61.8971C277.99 61.6492 277.75 61.4096 277.502 61.1772C277.27 60.9292 277.03 60.6896 276.782 60.4571C276.55 60.2092 276.31 59.9696 276.062 59.7372C275.83 59.4892 275.59 59.2496 275.342 59.0171C275.11 58.7692 274.87 58.5296 274.622 58.2972C274.39 58.0492 274.15 57.8096 273.902 57.5771C273.67 57.3292 273.43 57.0896 273.182 56.8572C272.95 56.6092 272.71 56.3696 272.462 56.1371C272.23 55.8892 271.99 55.6496 271.742 55.4172C271.51 55.1692 271.27 54.9296 271.022 54.6971C270.79 54.4493 270.55 54.2098 270.302 53.9775C270.07 53.7293 269.83 53.4895 269.582 53.2568C269.35 53.0091 269.11 52.7697 268.862 52.5375C268.63 52.2893 268.39 52.0495 268.142 51.8168C267.91 51.5691 267.67 51.3297 267.422 51.0975C267.19 50.8493 266.95 50.6095 266.702 50.3768C266.47 50.1291 266.23 49.8897 265.982 49.6575C265.75 49.4093 265.51 49.1695 265.262 48.9368C265.03 48.6891 264.79 48.4497 264.542 48.2175C264.31 47.9693 264.07 47.7295 263.822 47.4968C263.59 47.2491 263.35 47.0097 263.102 46.7775C262.87 46.5293 262.63 46.2895 262.382 46.0568C262.149 45.809 261.91 45.5695 261.662 45.3371C261.43 45.0892 261.19 44.8497 260.942 44.6172C260.71 44.3693 260.47 44.1296 260.222 43.8971C259.99 43.6492 259.75 43.4097 259.502 43.1772C259.27 42.9293 259.03 42.6896 258.782 42.4571C258.55 42.2092 258.31 41.9697 258.062 41.7372C257.83 41.4893 257.59 41.2496 257.342 41.0171C257.11 40.7692 256.87 40.5297 256.622 40.2972C256.39 40.0493 256.15 39.8096 255.902 39.5771C255.67 39.3292 255.43 39.0897 255.182 38.8572C254.95 38.6093 254.71 38.3696 254.462 38.1371C254.23 37.8892 253.99 37.6497 253.742 37.4172C253.51 37.1693 253.27 36.9296 253.022 36.6971C250.158 33.6428 246.101 31.7207 241.593 31.7207H191.404C182.756 31.7207 175.721 38.7571 175.721 47.4058V97.5942C175.721 102.102 177.643 106.159 180.697 109.023C180.93 109.271 181.169 109.511 181.417 109.743C181.65 109.991 181.889 110.231 182.137 110.463C182.37 110.711 182.609 110.951 182.857 111.183C183.09 111.431 183.329 111.671 183.577 111.903C183.81 112.151 184.049 112.391 184.297 112.623C184.53 112.871 184.769 113.111 185.017 113.343C185.25 113.591 185.489 113.831 185.737 114.063C185.97 114.311 186.209 114.551 186.457 114.783C186.69 115.031 186.929 115.271 187.177 115.503C187.41 115.751 187.649 115.991 187.897 116.223C188.13 116.471 188.369 116.711 188.617 116.943C188.85 117.191 189.089 117.431 189.337 117.663C189.57 117.911 189.809 118.151 190.057 118.384C190.29 118.631 190.529 118.871 190.777 119.103C191.009 119.351 191.249 119.591 191.497 119.824C191.73 120.071 191.969 120.311 192.217 120.543C192.449 120.791 192.689 121.031 192.937 121.264C193.17 121.511 193.409 121.751 193.657 121.983C193.889 122.231 194.129 122.471 194.377 122.704C194.61 122.951 194.849 123.191 195.097 123.423C195.329 123.671 195.569 123.911 195.817 124.144C196.05 124.391 196.289 124.631 196.537 124.863C196.769 125.111 197.009 125.351 197.257 125.584C197.49 125.831 197.729 126.071 197.977 126.303C198.209 126.551 198.449 126.791 198.697 127.023C198.929 127.271 199.169 127.511 199.417 127.743C199.65 127.991 199.889 128.231 200.137 128.463C200.369 128.711 200.609 128.951 200.857 129.183C201.09 129.431 201.329 129.671 201.577 129.903C201.809 130.151 202.049 130.391 202.297 130.623C202.53 130.871 202.769 131.111 203.017 131.343C203.249 131.591 203.489 131.831 203.737 132.063C203.97 132.311 204.209 132.551 204.457 132.783C204.689 133.031 204.929 133.271 205.177 133.503C205.41 133.751 205.649 133.991 205.897 134.223C206.129 134.471 206.369 134.711 206.617 134.943C206.85 135.191 207.089 135.431 207.337 135.663C207.57 135.911 207.809 136.151 208.057 136.384C208.29 136.631 208.529 136.871 208.777 137.103C209.009 137.351 209.249 137.591 209.497 137.824C209.73 138.071 209.969 138.311 210.217 138.543C210.449 138.791 210.689 139.031 210.937 139.264C211.17 139.511 211.409 139.751 211.657 139.983C211.889 140.231 212.129 140.471 212.377 140.704C212.61 140.951 212.849 141.191 213.097 141.423C213.329 141.671 213.569 141.911 213.817 142.144C214.05 142.391 214.289 142.631 214.537 142.863C214.769 143.111 215.009 143.351 215.257 143.584C215.49 143.831 215.729 144.071 215.977 144.303C216.202 144.543 216.434 144.774 216.674 145H289V72.6746C288.774 72.4351 288.542 72.2025 288.302 71.9774C288.07 71.7293 287.83 71.4895 287.582 71.2568Z" fill="#154973"/>
<path d="M241.594 36.4268H191.405C185.341 36.4268 180.426 41.3422 180.426 47.4056V97.5946C180.426 103.658 185.341 108.573 191.405 108.573H241.594C247.657 108.573 252.573 103.658 252.573 97.5946V47.4056C252.573 41.3422 247.657 36.4268 241.594 36.4268Z" fill="#154973"/>
<path d="M241.593 113.279H191.404C182.756 113.279 175.721 106.243 175.721 97.5942V47.4058C175.721 38.7571 182.756 31.7207 191.404 31.7207H241.593C250.242 31.7207 257.279 38.7571 257.279 47.4058V97.5942C257.279 106.243 250.242 113.279 241.593 113.279ZM191.404 41.1321C187.945 41.1321 185.131 43.9461 185.131 47.4058V97.5942C185.131 101.054 187.945 103.868 191.404 103.868H241.593C245.053 103.868 247.867 101.054 247.867 97.5942V47.4058C247.867 43.946 245.053 41.1321 241.593 41.1321H191.404Z" fill="#CDDDE9"/>
<path d="M211.977 80.5222L203.261 71.7626C202.519 71.0156 201.571 70.642 200.423 70.642C199.276 70.642 198.327 71.0156 197.585 71.7626C196.844 72.5093 196.471 73.4602 196.471 74.6145C196.471 75.7687 196.844 76.7197 197.585 77.4664L209.139 89.0781C209.95 89.8929 210.895 90.3004 211.977 90.3004C213.059 90.3004 214.004 89.8929 214.814 89.0781L237.719 66.0585C238.461 65.3118 238.834 64.3609 238.834 63.2066C238.834 62.0522 238.461 61.1015 237.719 60.3545C236.977 59.6076 236.029 59.2341 234.881 59.2341C233.734 59.2341 232.785 59.6076 232.044 60.3545L211.977 80.5222Z" fill="#CDDDE9"/>
<path d="M0 0H145C145 80.0813 80.0813 145 0 145V0Z" fill="#457AA5"/>
<path d="M529.3 97.6C542.721 97.6 553.6 86.7205 553.6 73.3C553.6 59.8795 542.721 49 529.3 49C515.879 49 505 59.8795 505 73.3C505 86.7205 515.879 97.6 529.3 97.6Z" fill="#154973"/>
</svg>
