<svg xmlns="http://www.w3.org/2000/svg" width="574" height="145" fill="none" viewBox="0 0 574 145"><path fill="#286ad8" d="M0 105.125V0c80.081 0 145 64.919 145 145H39.875C17.853 145 0 127.147 0 105.125M527.589 74.25c18.018 0 32.625-14.607 32.625-32.625S545.607 9 527.589 9s-32.625 14.607-32.625 32.625 14.607 32.625 32.625 32.625M573.245 145h-145V0z"/><path fill="#286ad8" d="M246.481 0c21.773 0 39.424 17.853 39.424 39.875V145h-145V0z"/><path fill="#286ad8" d="M284.659 145V0h72.336c40.131 0 72.664 32.46 72.664 72.5S397.126 145 356.995 145z"/><path fill="#5187df" d="M170.223 99.07a3.105 3.105 0 0 1 3.105-3.105h108.044a3.105 3.105 0 0 1 3.105 3.105v18.167a3.106 3.106 0 0 1-3.105 3.106H173.328a3.106 3.106 0 0 1-3.105-3.106z"/><path fill="#1b51cb" d="M267.782 114.346q-.512 0-.877-.365a1.2 1.2 0 0 1-.365-.878v-8.695q0-.512.365-.877t.877-.365h.621v-.621q0-.264.179-.443a.6.6 0 0 1 .442-.178q.264 0 .443.178a.6.6 0 0 1 .178.443v.621h4.969v-.621q0-.264.179-.443a.6.6 0 0 1 .442-.178q.264 0 .443.178a.6.6 0 0 1 .178.443v.621h.621a1.2 1.2 0 0 1 .878.365q.365.365.365.877v8.695a1.2 1.2 0 0 1-.365.878 1.2 1.2 0 0 1-.878.365zm0-1.243h8.695v-6.21h-8.695zm0-7.453h8.695v-1.242h-8.695zm4.348 3.727a.6.6 0 0 1-.443-.179.6.6 0 0 1-.178-.442q0-.264.178-.443a.6.6 0 0 1 .443-.178.6.6 0 0 1 .442.178.6.6 0 0 1 .179.443.6.6 0 0 1-.179.442.6.6 0 0 1-.442.179m-2.485 0a.6.6 0 0 1-.442-.179.6.6 0 0 1-.179-.442q0-.264.179-.443a.6.6 0 0 1 .442-.178q.264 0 .443.178a.6.6 0 0 1 .179.443.6.6 0 0 1-.179.442.6.6 0 0 1-.443.179m4.969 0a.6.6 0 0 1-.442-.179.6.6 0 0 1-.179-.442q0-.264.179-.443a.6.6 0 0 1 .442-.178q.264 0 .443.178a.6.6 0 0 1 .178.443.6.6 0 0 1-.178.442.6.6 0 0 1-.443.179m-2.484 2.484a.6.6 0 0 1-.443-.178.6.6 0 0 1-.178-.443.6.6 0 0 1 .178-.442.6.6 0 0 1 .443-.179.6.6 0 0 1 .442.179.6.6 0 0 1 .179.442q0 .264-.179.443a.6.6 0 0 1-.442.178m-2.485 0a.6.6 0 0 1-.442-.178.6.6 0 0 1-.179-.443.6.6 0 0 1 .179-.442.6.6 0 0 1 .442-.179q.264 0 .443.179a.6.6 0 0 1 .179.442q0 .264-.179.443a.6.6 0 0 1-.443.178m4.969 0a.6.6 0 0 1-.442-.178.6.6 0 0 1-.179-.443.6.6 0 0 1 .179-.442.6.6 0 0 1 .442-.179q.264 0 .443.179a.6.6 0 0 1 .178.442.6.6 0 0 1-.178.443.6.6 0 0 1-.443.178M173.647 77.152c0-1.029.835-1.863 1.864-1.863h38.073a1.863 1.863 0 0 1 0 3.727h-38.073a1.864 1.864 0 0 1-1.864-1.864M173.647 87.717c0-.858.696-1.553 1.553-1.553h61.488a1.553 1.553 0 1 1 0 3.105H175.2a1.553 1.553 0 0 1-1.553-1.552"/><path fill="#1545bb" d="M330.363 145H197.829l-24.557-24.654h108.253c1.407 0 2.959-1.357 2.959-3.078V99.115z" opacity=".4" style="mix-blend-mode:multiply"/><path fill="#1b51cb" d="M174.791 113.202c0-.366.297-.663.663-.663h11.353a.663.663 0 0 1 0 1.326h-11.353a.663.663 0 0 1-.663-.663M194.021 113.202c0-.366.296-.663.663-.663h11.352a.663.663 0 0 1 0 1.326h-11.352a.66.66 0 0 1-.663-.663M193.67 105.654a.664.664 0 0 1 .419.857l-2.588 7.141a.662.662 0 1 1-1.247-.452l2.588-7.141a.664.664 0 0 1 .828-.405M212.9 105.654a.663.663 0 0 1 .418.857l-2.588 7.141a.662.662 0 1 1-1.246-.452l2.588-7.141a.664.664 0 0 1 .828-.405M213.977 113.202c0-.366.296-.663.663-.663h22.938a.663.663 0 0 1 0 1.326H214.64a.66.66 0 0 1-.663-.663"/></svg>