<svg xmlns="http://www.w3.org/2000/svg" width="580" height="145" fill="none" viewBox="0 0 580 145"><path fill="#286ad8" d="M13.03 41.62C13.03 23.6 27.64 9 45.65 9s32.62 14.61 32.62 32.62c0 18.02-14.61 32.62-32.62 32.62s-32.62-14.6-32.62-32.62M507.34 0H435v37.35C433.71 16.51 416.59 0 395.66 0H145.08l-1 .92L0 145h507.34c40.13 0 72.66-32.46 72.66-72.5S547.47 0 507.34 0"/><mask id="a" width="580" height="145" x="0" y="0" maskUnits="userSpaceOnUse" style="mask-type:alpha"><path fill="#286ad8" d="M13.03 41.62C13.03 23.6 27.64 9 45.65 9s32.62 14.61 32.62 32.62c0 18.02-14.61 32.62-32.62 32.62s-32.62-14.6-32.62-32.62M507.34 0H435v37.35C433.71 16.51 416.59 0 395.66 0H145.08l-1 .92L0 145h507.34c40.13 0 72.66-32.46 72.66-72.5S547.47 0 507.34 0"/></mask><g mask="url(#a)"><path fill="#1545bb" d="M229.06 53.875c.82 0 1.53.43 1.93 1.07.29.18.54.43.72.72.29.18.54.43.72.72.29.18.54.43.72.72.29.18.54.43.72.72.29.18.54.43.72.72.29.18.54.43.72.72.29.18.54.43.72.72.29.18.54.43.72.72.29.18.54.43.72.72.29.18.539.43.719.72.29.18.541.43.721.72.29.18.54.43.72.72.29.18.54.43.72.72.29.18.54.43.72.72.29.18.54.43.72.72.29.18.54.43.72.72.29.18.54.43.719.72.29.18.541.43.721.72.29.18.54.43.72.72.29.18.54.43.72.72.29.18.54.43.72.72.29.18.54.43.72.72.29.18.54.43.72.72.29.18.54.43.72.72.29.18.54.43.72.72.29.18.54.43.72.72.29.18.54.43.72.72.29.18.54.43.72.72.29.18.54.43.72.72.29.18.54.43.72.72.29.18.54.43.72.72.29.18.54.43.72.72.29.18.54.43.72.72.29.18.54.43.72.72.29.18.539.43.719.72.29.18.541.43.721.72h36.88c.82 0 1.53.43 1.93 1.07.29.18.539.43.719.72.29.18.541.43.721.72.29.18.54.43.72.72.29.18.54.43.72.72.29.18.54.43.72.72.29.18.54.43.72.72.29.18.54.43.72.72.29.18.539.43.719.72.29.18.541.43.721.72.29.18.54.43.72.72.29.18.54.43.72.72.29.18.54.43.72.72.29.18.54.43.72.72.29.18.54.43.72.72.29.18.54.43.72.72.29.18.54.43.72.72.29.18.54.43.72.72.29.18.54.43.72.72.29.18.54.43.72.72.29.18.54.43.72.72.29.18.54.43.72.72.29.18.54.43.72.72.29.18.54.43.72.72.29.18.54.43.72.72.29.18.54.43.72.72.29.18.539.43.719.72.29.18.541.43.721.72.29.18.54.43.72.72.29.18.54.43.72.72.29.18.54.43.72.72.29.18.54.43.72.72.29.18.54.43.72.72.29.18.539.43.719.72.29.18.541.43.721.72.29.18.54.43.72.72.29.18.54.43.72.72.29.18.54.43.72.72.29.18.54.43.72.72.29.18.54.43.72.72.29.18.54.43.72.72.29.18.54.43.72.72.29.18.54.43.72.72.29.18.54.43.72.72.29.18.54.43.72.72.29.18.54.43.72.72.29.18.54.43.72.72.29.18.54.43.72.72.29.18.54.43.72.72.29.18.54.43.72.72.29.18.54.43.72.72.29.18.539.43.719.72.29.18.541.43.721.72.29.18.54.43.72.72.29.18.54.43.72.72.29.18.54.43.72.72.29.18.54.43.72.72.29.18.54.43.72.72.29.18.539.43.719.72.29.18.541.43.721.72.29.18.54.43.72.72.29.18.54.43.72.72.29.18.54.43.72.72.29.18.54.43.72.72.29.18.54.43.72.72.29.18.54.43.72.72.29.18.54.43.72.72.29.18.54.43.72.72.29.18.54.43.72.72.29.18.54.43.72.72.29.18.54.43.72.72.29.18.54.43.72.72.29.18.54.43.72.72.29.18.54.43.72.72.29.18.54.43.72.72.29.18.54.43.72.72.29.18.539.43.719.72.29.18.541.43.721.72.29.18.54.43.72.72.29.18.54.43.72.72.29.18.54.43.72.72.29.18.54.43.72.72.29.18.54.43.72.72.29.18.539.43.719.72.29.18.541.43.721.72.29.18.54.43.72.72.29.18.54.43.72.72.29.18.54.43.72.72q.206.129.38.3h-58.776q.108.125.196.265c.29.18.54.43.72.719.29.18.54.431.72.721.29.18.54.43.72.72.29.18.54.43.72.72.29.179.54.429.72.719.29.18.539.431.719.721.29.18.541.43.721.72.29.18.54.43.72.719.29.18.54.431.72.721.29.18.54.43.72.72.29.18.54.43.72.72.29.18.54.429.72.719.29.18.54.431.72.721.29.18.54.43.72.72.29.18.54.43.72.719.29.18.54.43.72.72.29.18.54.431.72.721.29.18.54.43.72.72.29.18.54.429.72.719.29.18.54.431.72.721.29.18.54.43.72.72.29.18.54.43.72.719.29.18.54.43.72.72.29.18.539.431.719.721.29.18.541.43.721.72.29.18.54.43.72.719.29.18.54.431.72.721.29.18.54.43.72.72.29.18.54.43.72.72.29.179.54.429.72.719.29.18.539.431.719.721.29.18.541.43.721.72.29.18.54.43.72.719.29.18.54.431.72.721.29.18.54.43.72.72.29.18.54.43.72.72.29.18.54.429.72.719.29.18.54.431.72.721.29.18.54.43.72.72.29.18.54.43.72.719.29.18.54.43.72.72.29.18.54.431.72.721.29.18.54.43.72.72.29.18.54.429.72.719.29.18.54.431.72.721.29.18.54.43.72.72.29.18.54.43.72.719.29.18.54.43.72.72.29.18.539.431.719.721.29.18.541.43.721.72.29.18.54.43.72.719.29.18.54.431.72.721.29.18.54.43.72.72.29.18.54.43.72.72.29.179.54.429.72.719.29.18.539.431.719.721.29.18.541.43.721.72.29.18.54.43.72.719.29.18.54.431.72.721.29.18.54.43.72.72q.206.129.38.3h-97.104a2 2 0 0 1-.246-.321c-.29-.18-.54-.43-.72-.719l-60.17-62.97c-.1-.11-.191-.221-.271-.351a2.3 2.3 0 0 1-.719-.719 2.25 2.25 0 0 1-.72-.72 2.25 2.25 0 0 1-.72-.72c-.29-.18-.54-.431-.72-.721-.29-.18-.54-.429-.72-.719a2.25 2.25 0 0 1-.72-.72 2.26 2.26 0 0 1-.721-.721 2.3 2.3 0 0 1-.719-.719 2.25 2.25 0 0 1-.72-.72 2.25 2.25 0 0 1-.72-.72c-.29-.18-.54-.431-.72-.721-.29-.18-.54-.429-.72-.719a2.25 2.25 0 0 1-.72-.72c-.29-.18-.54-.431-.72-.721a2.25 2.25 0 0 1-.72-.72 2.24 2.24 0 0 1-.72-.719 2.25 2.25 0 0 1-.72-.72 2.279 2.279 0 0 1 1.21-4.21h4.71c-.05-.07-.11-.141-.16-.221-.29-.18-.54-.429-.72-.719a2.25 2.25 0 0 1-.72-.72c-.29-.18-.54-.431-.72-.721a2.25 2.25 0 0 1-.72-.72 2.24 2.24 0 0 1-.72-.719 2.25 2.25 0 0 1-.72-.72c-.29-.18-.54-.431-.72-.721-.29-.18-.54-.429-.72-.719a2.28 2.28 0 0 1 1.21-4.21h11.279a2.3 2.3 0 0 1-.25-.325 2.26 2.26 0 0 1-.719-.72 2.25 2.25 0 0 1-.72-.72 2.25 2.25 0 0 1-.72-.72c-.29-.18-.54-.43-.72-.72-.29-.18-.54-.43-.72-.72a2.25 2.25 0 0 1-.72-.72c-.29-.18-.541-.43-.721-.72a2.26 2.26 0 0 1-.719-.72 2.25 2.25 0 0 1-.72-.72c-.29-.18-.54-.43-.72-.72-.29-.18-.54-.43-.72-.72a2.25 2.25 0 0 1-.72-.72 2.25 2.25 0 0 1-.72-.72 2.25 2.25 0 0 1-.72-.72c-.29-.18-.54-.43-.72-.72a2.25 2.25 0 0 1-.72-.72 2.25 2.25 0 0 1-.72-.72 2.279 2.279 0 0 1 1.21-4.21h11.3c-.1-.11-.191-.22-.271-.35a2.26 2.26 0 0 1-.719-.72 2.25 2.25 0 0 1-.72-.72 2.25 2.25 0 0 1-.72-.72c-.29-.18-.54-.43-.72-.72-.29-.18-.54-.43-.72-.72a2.25 2.25 0 0 1-.72-.72c-.29-.18-.541-.43-.721-.72a2.26 2.26 0 0 1-.719-.72c-.29-.18-.54-.43-.72-.72-.29-.18-.54-.43-.72-.72-.29-.18-.54-.43-.72-.72a2.25 2.25 0 0 1-.72-.72 2.25 2.25 0 0 1-.72-.72c-.29-.18-.54-.43-.72-.72a2.25 2.25 0 0 1-.72-.72 2.25 2.25 0 0 1-.72-.72 2.25 2.25 0 0 1-.72-.72 2.279 2.279 0 0 1 1.21-4.21h4.71c-.05-.07-.11-.14-.16-.22a2.25 2.25 0 0 1-.72-.72 2.25 2.25 0 0 1-.72-.72c-.29-.18-.54-.43-.72-.72a2.25 2.25 0 0 1-.72-.72 2.25 2.25 0 0 1-.72-.72 2.25 2.25 0 0 1-.72-.72c-.29-.18-.54-.43-.72-.72a2.25 2.25 0 0 1-.72-.72 2.28 2.28 0 0 1 1.21-4.21z" opacity=".8" style="mix-blend-mode:multiply"/></g><path fill="#7aa5e7" d="M171.875 83.159a2.283 2.283 0 0 1 2.284-2.284h119.587a2.284 2.284 0 0 1 0 4.567H174.159a2.283 2.283 0 0 1-2.284-2.283"/><path fill="#5187df" fill-opacity=".75" d="M171.92 100.048a2.283 2.283 0 0 1 2.284-2.283h75.352a2.283 2.283 0 1 1 0 4.567h-75.352a2.284 2.284 0 0 1-2.284-2.284M171.92 110.243a2.283 2.283 0 0 1 2.284-2.284h58.289a2.283 2.283 0 0 1 0 4.567h-58.289a2.283 2.283 0 0 1-2.284-2.283M171.92 56.159a2.283 2.283 0 0 1 2.284-2.284h54.852a2.283 2.283 0 1 1 0 4.567h-54.852a2.283 2.283 0 0 1-2.284-2.283M171.92 66.353a2.283 2.283 0 0 1 2.284-2.284h50.789a2.283 2.283 0 0 1 0 4.568h-50.789a2.284 2.284 0 0 1-2.284-2.284"/></svg>