<svg width="272" height="143" viewBox="0 0 272 143" fill="none" xmlns="http://www.w3.org/2000/svg">
<path d="M0 49H272V135C272 139.418 268.418 143 264 143H8.00001C3.58173 143 0 139.418 0 135V49Z" fill="#EFF6FB"/>
<path d="M271.999 12.643H0.00195312V46.3027H271.999V12.643Z" fill="#154973"/>
<path d="M21.1306 27.1731C20.777 27.0816 20.4597 26.8211 20.0777 26.8211C19.5362 26.7596 18.7106 26.7849 18.1297 26.9001C17.7162 26.9901 17.3847 27.0658 17.372 27.5299C17.3673 27.9404 17.8866 28.3571 17.8014 28.777C17.6151 29.5189 16.6759 29.9751 16.076 30.3429C15.9213 30.425 15.6703 30.5466 15.5662 30.6934C15.3925 30.9396 15.4304 31.6926 15.5662 31.6942C17.7067 31.7005 24.1441 31.7037 27.1165 31.7021C27.5064 31.7352 27.7621 32.0099 27.9468 32.3698C28.1362 32.6966 28.1583 33.1275 28.3146 33.4558C28.5151 33.8 29.0265 33.9436 29.3454 34.1567C29.7606 34.4046 30.1473 34.6792 30.5988 34.886C30.8482 34.9997 31.1671 35.1228 31.3186 35.3675L31.4054 35.7084C31.396 35.8663 31.186 35.9878 31.0739 36.0699C30.9003 36.201 30.7519 36.3446 30.654 36.5435L30.6304 36.8576C30.7693 37.0786 31.3265 36.8639 31.5159 36.8024C31.778 36.714 32.0432 36.5956 32.3163 36.5483C33.4797 36.3414 34.6699 36.1662 35.7133 35.6137C35.8617 35.5348 36.1964 35.4101 36.2374 35.2475C36.34 34.8434 35.1419 35.2301 34.9967 35.2759C34.7378 35.3675 34.4599 35.3612 34.19 35.4006C33.5917 35.5032 32.7598 35.6737 32.1694 35.6927C31.8727 35.7243 31.729 35.4969 31.7985 35.2033C31.8806 34.8355 32.2215 34.6098 32.1979 34.2246C32.1505 33.44 32.3999 32.5687 32.3857 31.7763C32.3431 30.7881 32.7567 29.8472 32.7867 28.8685C32.8135 28.0288 32.9335 27.189 32.8309 26.3539C32.7409 25.6151 32.4583 24.7359 32.5167 23.9908C32.5309 23.8093 32.5594 23.6972 32.6099 23.5251C32.8167 22.9521 32.6209 22.3491 32.6225 21.784C32.6241 21.0767 32.7504 20.78 32.2973 20.6963C31.8443 20.6127 30.5735 20.7358 30.0842 20.7042C29.3975 20.7231 28.6982 20.6885 28.0747 20.982C27.2996 21.3514 26.6934 22.0207 26.1835 22.6853C25.9057 23.1289 25.3422 23.2678 25.058 23.7003C24.7691 24.0997 25.0059 24.5433 25.0217 24.9805C25.0407 26.3302 24.5718 26.1297 23.7052 26.8274C23.3311 27.129 22.8291 27.1873 22.365 27.1968C21.9972 27.2063 21.4873 27.2663 21.1306 27.1731Z" fill="#ABC4D8"/>
<path d="M0 8C0 3.58172 3.58172 0 8 0H264C268.418 0 272 3.58172 272 8V13H0V8Z" fill="#B5C1C8"/>
<path d="M130.889 9H21.6132C20.7513 9 20.1768 8.39969 20.1768 7.4992C20.1768 6.59866 20.7514 6 21.6132 6H130.889C131.751 6 132.326 6.59866 132.326 7.4992C132.326 8.39969 131.751 9 130.889 9Z" fill="#88AAC6"/>
<rect x="44" y="26" width="54" height="6" rx="3" fill="#ABC4D8"/>
<rect x="108" y="26" width="38.4" height="6" rx="3" fill="#ABC4D8"/>
<rect x="156" y="26" width="38.4" height="6" rx="3" fill="#ABC4D8"/>
</svg>
