<svg xmlns="http://www.w3.org/2000/svg" width="272" height="144" fill="none" viewBox="0 0 272 144"><path fill="#eff6fb" d="M0 76.5h272v59a8 8 0 0 1-8 8H8a8 8 0 0 1-8-8z"/><path fill="#ededed" d="M0 8.5a8 8 0 0 1 8-8h256a8 8 0 0 1 8 8v24H0z"/><circle cx="221.5" cy="16.5" r="5.5" fill="#bec0c1"/><circle cx="244.5" cy="16.5" r="5.5" fill="#bec0c1"/><path fill="#d0d0ce" d="M110.5 19H49.394C47.958 19 47 18 47 16.499S47.958 14 49.394 14H110.5c1.436 0 2.394.998 2.394 2.499 0 1.5-.958 2.501-2.394 2.501m61 0-47.842-.001c-1.595 0-2.658-1-2.658-2.5S122.063 14 123.658 14l47.842.001c1.594 0 2.658.998 2.658 2.498S173.094 19 171.5 19m13-1.46 2.448-2.373a.6.6 0 0 1 .44-.167q.267 0 .439.167a.57.57 0 0 1 .173.426.57.57 0 0 1-.173.426l-2.888 2.799a.6.6 0 0 1-.439.182.6.6 0 0 1-.439-.183l-2.888-2.798a.57.57 0 0 1-.173-.426q0-.258.173-.426a.6.6 0 0 1 .439-.167q.267 0 .44.167zM22.68 14.862c-.353-.091-.67-.352-1.052-.352a7.3 7.3 0 0 0-1.948.08c-.413.09-.745.165-.758.629-.004.41.515.827.43 1.247-.187.742-1.126 1.198-1.726 1.566-.154.082-.405.204-.51.35-.173.247-.135 1 0 1.001 2.141.007 8.578.01 11.55.008.39.033.646.308.831.668.19.327.212.758.368 1.086.2.344.712.488 1.03.7.416.249.803.523 1.254.73.25.114.568.237.72.482l.087.34c-.01.158-.22.28-.332.362a1.3 1.3 0 0 0-.42.474l-.023.314c.139.22.696.006.885-.056.262-.088.527-.206.8-.254 1.164-.206 2.354-.382 3.398-.934.148-.08.483-.204.524-.366.102-.405-1.096-.018-1.241.028-.259.091-.537.085-.807.125-.598.102-1.43.273-2.02.292-.297.031-.44-.196-.371-.49.082-.367.423-.593.4-.978-.048-.785.201-1.656.187-2.449-.043-.988.371-1.929.401-2.907.027-.84.147-1.68.044-2.515-.09-.739-.372-1.618-.314-2.363.014-.182.043-.294.093-.466.207-.573.011-1.176.013-1.74.001-.708.128-1.005-.325-1.089-.453-.083-1.724.04-2.213.008-.687.02-1.387-.015-2.01.278-.775.37-1.381 1.039-1.891 1.703-.278.444-.842.583-1.126 1.015-.289.4-.052.843-.036 1.28.019 1.35-.45 1.15-1.316 1.848-.375.301-.877.36-1.34.369-.369.01-.878.07-1.235-.024"/><path fill="#0e324f" d="M0 34.5h272v40H0z"/><path fill="#457aa5" d="M93.165 51.497H19.872c-1.723 0-2.872-1.2-2.872-3s1.149-2.997 2.872-2.997h73.293c1.723 0 2.871 1.197 2.871 2.997s-1.148 3-2.871 3M56 64.497H19.658c-1.595 0-2.658-1.001-2.658-2.501s1.063-2.499 2.657-2.499L56 59.498c1.594 0 2.657.998 2.657 2.499 0 1.5-1.062 2.5-2.657 2.5m86.5-8.734h-26.842c-1.595 0-2.658-1.001-2.658-2.502s1.063-2.498 2.658-2.498l26.842.001c1.594 0 2.658.998 2.658 2.498s-1.064 2.501-2.658 2.501m40 0h-26.842c-1.595 0-2.658-1.001-2.658-2.502s1.063-2.498 2.658-2.498l26.842.001c1.594 0 2.658.998 2.658 2.498s-1.064 2.501-2.658 2.501m40 0h-26.842c-1.595 0-2.658-1.001-2.658-2.502s1.063-2.498 2.658-2.498l26.842.001c1.594 0 2.658.998 2.658 2.498s-1.064 2.501-2.658 2.501"/></svg>