<svg width="272" height="143" viewBox="0 0 272 143" fill="none" xmlns="http://www.w3.org/2000/svg">
<path d="M0 8C0 3.58173 3.58172 0 8 0H264C268.418 0 272 3.58172 272 8V135C272 139.418 268.418 143 264 143H8.00001C3.58173 143 0 139.418 0 135V8Z" fill="#EDEDED"/>
<path d="M226.993 112.143C227.612 112.143 228.136 111.928 228.564 111.498C228.992 111.068 229.206 110.542 229.206 109.919C229.206 109.297 228.992 108.77 228.564 108.34C228.136 107.91 227.612 107.695 226.993 107.695C226.373 107.695 225.849 107.91 225.421 108.34C224.993 108.77 224.78 109.297 224.78 109.919C224.78 110.542 224.993 111.068 225.421 111.498C225.849 111.928 226.373 112.143 226.993 112.143ZM227.081 119.259C224.632 119.259 222.33 118.792 220.176 117.858C218.022 116.924 216.148 115.656 214.555 114.055C212.961 112.454 211.7 110.572 210.77 108.407C209.841 106.243 209.376 103.93 209.376 101.469C209.376 99.0083 209.841 96.6956 210.77 94.5311C211.7 92.3667 212.961 90.484 214.555 88.8829C216.148 87.2819 218.022 86.0143 220.176 85.0804C222.33 84.1464 224.632 83.6795 227.081 83.6795C229.53 83.6795 231.832 84.1464 233.986 85.0804C236.141 86.0143 238.014 87.2819 239.608 88.8829C241.201 90.484 242.463 92.3667 243.392 94.5311C244.322 96.6956 244.787 99.0083 244.787 101.469C244.787 103.93 244.322 106.243 243.392 108.407C242.463 110.572 241.201 112.454 239.608 114.055C238.014 115.656 236.141 116.924 233.986 117.858C231.832 118.792 229.53 119.259 227.081 119.259ZM227.081 115.701C231.035 115.701 234.385 114.322 237.129 111.565C239.873 108.807 241.246 105.442 241.246 101.469C241.246 97.4961 239.873 94.1309 237.129 91.3735C234.385 88.6161 231.035 87.2374 227.081 87.2374C223.127 87.2374 219.778 88.6161 217.033 91.3735C214.289 94.1309 212.917 97.4961 212.917 101.469C212.917 105.442 214.289 108.807 217.033 111.565C219.778 114.322 223.127 115.701 227.081 115.701ZM227.258 93.8196C227.996 93.8196 228.638 94.0567 229.184 94.5311C229.73 95.0056 230.003 95.5985 230.003 96.3101C230.003 96.9624 229.803 97.5406 229.405 98.0446C229.007 98.5486 228.557 99.023 228.055 99.4678C227.376 100.061 226.779 100.713 226.262 101.425C225.746 102.136 225.488 102.937 225.488 103.826C225.488 104.241 225.643 104.59 225.953 104.871C226.262 105.153 226.624 105.294 227.037 105.294C227.48 105.294 227.856 105.146 228.166 104.849C228.476 104.553 228.675 104.182 228.763 103.737C228.881 103.115 229.147 102.559 229.56 102.07C229.973 101.58 230.416 101.113 230.888 100.669C231.567 100.016 232.149 99.3046 232.636 98.5338C233.123 97.763 233.367 96.903 233.367 95.9543C233.367 94.4422 232.754 93.2044 231.53 92.2407C230.305 91.2771 228.881 90.7953 227.258 90.7953C226.137 90.7953 225.067 91.0324 224.049 91.5069C223.031 91.9813 222.257 92.7077 221.725 93.6861C221.519 94.0419 221.452 94.4199 221.526 94.8202C221.6 95.2205 221.799 95.5243 222.124 95.7319C222.537 95.9691 222.965 96.0433 223.407 95.9543C223.85 95.8654 224.219 95.6133 224.514 95.1982C224.839 94.7535 225.244 94.4125 225.731 94.1754C226.218 93.9382 226.727 93.8196 227.258 93.8196Z" fill="#457AA5"/>
<path d="M149.113 57.3556C148.048 57.3556 147.136 56.9746 146.378 56.2125C145.619 55.4503 145.24 54.5343 145.24 53.4641V30.1152C145.24 29.045 145.619 28.129 146.378 27.3668C147.136 26.6047 148.048 26.2237 149.113 26.2237H159.135C159.651 26.2237 160.143 26.321 160.611 26.5156C161.079 26.7101 161.491 26.9858 161.846 27.3425L164.605 30.1152H180.098C181.163 30.1152 182.074 30.4962 182.833 31.2583C183.592 32.0205 183.971 32.9365 183.971 34.0067V53.4641C183.971 54.5343 183.592 55.4503 182.833 56.2125C182.074 56.9746 181.163 57.3556 180.098 57.3556H149.113ZM149.113 53.4641H180.098V34.0067H163.008L159.135 30.1152H149.113V53.4641ZM164.605 51.5184C165.154 51.5184 165.614 51.332 165.985 50.959C166.356 50.586 166.542 50.1239 166.542 49.5726V43.3463L168.285 45.0974C168.64 45.4541 169.092 45.6325 169.64 45.6325C170.189 45.6325 170.641 45.4541 170.996 45.0974C171.351 44.7408 171.528 44.2866 171.528 43.7354C171.528 43.1842 171.351 42.73 170.996 42.3734L165.961 37.3144C165.574 36.9253 165.122 36.7307 164.605 36.7307C164.089 36.7307 163.637 36.9253 163.25 37.3144L158.215 42.3734C157.86 42.73 157.682 43.1842 157.682 43.7354C157.682 44.2866 157.86 44.7408 158.215 45.0974C158.57 45.4541 159.022 45.6325 159.57 45.6325C160.119 45.6325 160.571 45.4541 160.926 45.0974L162.669 43.3463V49.5726C162.669 50.1239 162.854 50.586 163.226 50.959C163.597 51.332 164.057 51.5184 164.605 51.5184Z" fill="#457AA5"/>
<path d="M90.3518 120C89.3374 120 88.4687 119.637 87.7476 118.911C87.0246 118.185 86.6631 117.313 86.6631 116.294V90.3506C86.6631 89.3314 87.0246 88.4589 87.7476 87.7331C88.4687 87.0072 89.3374 86.6444 90.3518 86.6444H92.1961V84.7913C92.1961 84.2663 92.3731 83.8262 92.7272 83.471C93.0795 83.1157 93.5184 82.9382 94.0404 82.9382C94.5623 82.9382 95.0013 83.1157 95.3554 83.471C95.7076 83.8262 95.8847 84.2663 95.8847 84.7913V86.6444H110.639V84.7913C110.639 84.2663 110.816 83.8262 111.17 83.471C111.523 83.1157 111.962 82.9382 112.484 82.9382C113.005 82.9382 113.444 83.1157 113.799 83.471C114.151 83.8262 114.328 84.2663 114.328 84.7913V86.6444H116.172C117.187 86.6444 118.055 87.0072 118.778 87.7331C119.499 88.4589 119.861 89.3314 119.861 90.3506V116.294C119.861 117.313 119.499 118.185 118.778 118.911C118.055 119.637 117.187 120 116.172 120H90.3518ZM90.3518 116.294H116.172V97.7629H90.3518V116.294ZM90.3518 94.0567H116.172V90.3506H90.3518V94.0567ZM103.262 105.175C102.74 105.175 102.301 104.998 101.949 104.643C101.595 104.287 101.418 103.847 101.418 103.322C101.418 102.797 101.595 102.357 101.949 102.002C102.301 101.647 102.74 101.469 103.262 101.469C103.784 101.469 104.223 101.647 104.577 102.002C104.929 102.357 105.106 102.797 105.106 103.322C105.106 103.847 104.929 104.287 104.577 104.643C104.223 104.998 103.784 105.175 103.262 105.175ZM95.8847 105.175C95.3627 105.175 94.9238 104.998 94.5697 104.643C94.2174 104.287 94.0404 103.847 94.0404 103.322C94.0404 102.797 94.2174 102.357 94.5697 102.002C94.9238 101.647 95.3627 101.469 95.8847 101.469C96.4066 101.469 96.8456 101.647 97.1997 102.002C97.552 102.357 97.729 102.797 97.729 103.322C97.729 103.847 97.552 104.287 97.1997 104.643C96.8456 104.998 96.4066 105.175 95.8847 105.175ZM110.639 105.175C110.117 105.175 109.678 104.998 109.326 104.643C108.972 104.287 108.795 103.847 108.795 103.322C108.795 102.797 108.972 102.357 109.326 102.002C109.678 101.647 110.117 101.469 110.639 101.469C111.161 101.469 111.6 101.647 111.954 102.002C112.306 102.357 112.484 102.797 112.484 103.322C112.484 103.847 112.306 104.287 111.954 104.643C111.6 104.998 111.161 105.175 110.639 105.175ZM103.262 112.588C102.74 112.588 102.301 112.41 101.949 112.055C101.595 111.7 101.418 111.26 101.418 110.735C101.418 110.21 101.595 109.769 101.949 109.414C102.301 109.059 102.74 108.881 103.262 108.881C103.784 108.881 104.223 109.059 104.577 109.414C104.929 109.769 105.106 110.21 105.106 110.735C105.106 111.26 104.929 111.7 104.577 112.055C104.223 112.41 103.784 112.588 103.262 112.588ZM95.8847 112.588C95.3627 112.588 94.9238 112.41 94.5697 112.055C94.2174 111.7 94.0404 111.26 94.0404 110.735C94.0404 110.21 94.2174 109.769 94.5697 109.414C94.9238 109.059 95.3627 108.881 95.8847 108.881C96.4066 108.881 96.8456 109.059 97.1997 109.414C97.552 109.769 97.729 110.21 97.729 110.735C97.729 111.26 97.552 111.7 97.1997 112.055C96.8456 112.41 96.4066 112.588 95.8847 112.588ZM110.639 112.588C110.117 112.588 109.678 112.41 109.326 112.055C108.972 111.7 108.795 111.26 108.795 110.735C108.795 110.21 108.972 109.769 109.326 109.414C109.678 109.059 110.117 108.881 110.639 108.881C111.161 108.881 111.6 109.059 111.954 109.414C112.306 109.769 112.484 110.21 112.484 110.735C112.484 111.26 112.306 111.7 111.954 112.055C111.6 112.41 111.161 112.588 110.639 112.588Z" fill="#457AA5"/>
<path d="M41.7054 119.259C39.2851 119.259 36.9993 118.791 34.8446 117.857C32.6898 116.925 30.8095 115.649 29.2019 114.032C27.5924 112.417 26.3229 110.528 25.3952 108.363C24.4639 106.198 24 103.901 24 101.469C24 99.0088 24.4639 96.7033 25.3952 94.5543C26.3229 92.4035 27.5924 90.5214 29.2019 88.9061C30.8095 87.289 32.6898 86.0134 34.8446 85.0813C36.9993 84.1455 39.2851 83.6795 41.7054 83.6795C44.1541 83.6795 46.4487 84.1455 48.5875 85.0813C50.7281 86.0134 52.6014 87.289 54.209 88.9061C55.8184 90.5214 57.0879 92.4035 58.0157 94.5543C58.9452 96.7033 59.4109 99.0088 59.4109 101.469C59.4109 103.901 58.9452 106.198 58.0157 108.363C57.0879 110.528 55.8184 112.417 54.209 114.032C52.6014 115.649 50.7281 116.925 48.5875 117.857C46.4487 118.791 44.1541 119.259 41.7054 119.259ZM41.7054 115.612C42.4721 114.545 43.136 113.433 43.6973 112.276C44.2585 111.12 44.7153 109.889 45.0695 108.585H38.3414C38.6955 109.889 39.1523 111.12 39.7136 112.276C40.2748 113.433 40.9388 114.545 41.7054 115.612ZM37.102 114.9C36.5708 113.922 36.107 112.906 35.7086 111.855C35.3102 110.802 34.9774 109.711 34.7118 108.585H29.4887C30.3439 110.067 31.415 111.357 32.6969 112.454C33.9805 113.552 35.4501 114.367 37.102 114.9ZM46.3088 114.9C47.9607 114.367 49.4303 113.552 50.7139 112.454C51.9976 111.357 53.067 110.067 53.9222 108.585H48.6991C48.4335 109.711 48.1024 110.802 47.7023 111.855C47.3039 112.906 46.84 113.922 46.3088 114.9ZM27.9837 105.027H34.0036C33.915 104.435 33.8477 103.848 33.8035 103.269C33.7592 102.693 33.738 102.092 33.738 101.469C33.738 100.846 33.7592 100.245 33.8035 99.6688C33.8478 99.0906 33.915 98.5036 34.0036 97.9112H27.9837C27.8368 98.5036 27.7252 99.0906 27.6508 99.6688C27.5783 100.245 27.5411 100.846 27.5411 101.469C27.5411 102.092 27.5783 102.693 27.6508 103.269C27.7252 103.848 27.8368 104.435 27.9837 105.027ZM37.5447 105.027H45.8662C45.9547 104.435 46.022 103.848 46.0663 103.269C46.1105 102.693 46.1318 102.092 46.1318 101.469C46.1318 100.846 46.1105 100.245 46.0663 99.6688C46.022 99.0906 45.9547 98.5036 45.8662 97.9112H37.5447C37.4561 98.5036 37.3888 99.0906 37.3446 99.6688C37.3003 100.245 37.2791 100.846 37.2791 101.469C37.2791 102.092 37.3003 102.693 37.3446 103.269C37.3888 103.848 37.4561 104.435 37.5447 105.027ZM49.4073 105.027H55.4271C55.5741 104.435 55.6856 103.848 55.76 103.269C55.8326 102.693 55.8698 102.092 55.8698 101.469C55.8698 100.846 55.8326 100.245 55.76 99.6688C55.6856 99.0906 55.5741 98.5036 55.4271 97.9112H49.4073C49.4958 98.5036 49.5631 99.0906 49.6074 99.6688C49.6516 100.245 49.6729 100.846 49.6729 101.469C49.6729 102.092 49.6516 102.693 49.6074 103.269C49.5631 103.848 49.4958 104.435 49.4073 105.027ZM48.6991 94.3532H53.9222C53.067 92.8714 51.9976 91.5816 50.7139 90.484C49.4303 89.3864 47.9608 88.5716 46.3088 88.0379C46.84 89.0163 47.3039 90.0321 47.7023 91.0835C48.1024 92.1367 48.4335 93.2271 48.6991 94.3532ZM38.3414 94.3532H45.0695C44.7153 93.0493 44.2585 91.8182 43.6973 90.6619C43.136 89.5056 42.4721 88.3937 41.7054 87.3263C40.9388 88.3937 40.2748 89.5056 39.7136 90.6619C39.1523 91.8182 38.6955 93.0493 38.3414 94.3532ZM29.4887 94.3532H34.7118C34.9774 93.2271 35.3102 92.1367 35.7086 91.0835C36.107 90.0321 36.5708 89.0163 37.102 88.0379C35.4501 88.5716 33.9805 89.3864 32.6969 90.484C31.415 91.5816 30.3439 92.8714 29.4887 94.3532Z" fill="#457AA5"/>
<path d="M148.375 113.699C147.801 113.699 147.318 113.504 146.929 113.114C146.541 112.723 146.347 112.238 146.347 111.661C146.347 111.084 146.541 110.599 146.929 110.21C147.318 109.818 147.801 109.623 148.375 109.623H180.835C181.41 109.623 181.892 109.818 182.28 110.21C182.669 110.599 182.864 111.084 182.864 111.661C182.864 112.238 182.669 112.723 182.28 113.114C181.892 113.504 181.41 113.699 180.835 113.699H148.375ZM148.375 103.507C147.801 103.507 147.318 103.312 146.929 102.922C146.541 102.531 146.347 102.046 146.347 101.469C146.347 100.892 146.541 100.407 146.929 100.016C147.318 99.6264 147.801 99.4307 148.375 99.4307H180.835C181.41 99.4307 181.892 99.6264 182.28 100.016C182.669 100.407 182.864 100.892 182.864 101.469C182.864 102.046 182.669 102.531 182.28 102.922C181.892 103.312 181.41 103.507 180.835 103.507H148.375ZM148.375 93.3155C147.801 93.3155 147.318 93.1198 146.929 92.7284C146.541 92.3391 146.347 91.854 146.347 91.2771C146.347 90.7002 146.541 90.2151 146.929 89.8237C147.318 89.4344 147.801 89.2387 148.375 89.2387H180.835C181.41 89.2387 181.892 89.4344 182.28 89.8237C182.669 90.2151 182.864 90.7002 182.864 91.2771C182.864 91.854 182.669 92.3391 182.28 92.7284C181.892 93.1198 181.41 93.3155 180.835 93.3155H148.375Z" fill="#457AA5"/>
<path d="M227.081 50.444C229.403 50.444 231.376 49.6267 233.001 47.9958C234.626 46.3611 235.439 44.3794 235.439 42.0468C235.439 39.7143 234.626 37.7325 233.001 36.0978C231.376 34.4669 229.403 33.6496 227.081 33.6496C224.76 33.6496 222.786 34.4669 221.161 36.0978C219.536 37.7325 218.724 39.7143 218.724 42.0468C218.724 44.3794 219.536 46.3611 221.161 47.9958C222.786 49.6267 224.76 50.444 227.081 50.444ZM227.081 47.0851C225.688 47.0851 224.504 46.5963 223.529 45.6166C222.554 44.6369 222.067 43.4464 222.067 42.0468C222.067 40.6473 222.554 39.4586 223.529 38.4789C224.504 37.4974 225.688 37.0085 227.081 37.0085C228.474 37.0085 229.658 37.4974 230.633 38.4789C231.608 39.4586 232.096 40.6473 232.096 42.0468C232.096 43.4464 231.608 44.6369 230.633 45.6166C229.658 46.5963 228.474 47.0851 227.081 47.0851ZM227.081 56.0422C222.933 56.0422 219.149 54.9225 215.729 52.6833C212.309 50.444 209.608 47.4901 207.627 43.8196C207.472 43.5397 207.356 43.2523 207.279 42.9575C207.201 42.6607 207.163 42.3585 207.163 42.0468C207.163 41.7352 207.201 41.4329 207.279 41.1381C207.356 40.8414 207.472 40.554 207.627 40.2741C209.608 36.6035 212.309 33.6496 215.729 31.4103C219.149 29.1711 222.933 28.0514 227.081 28.0514C231.229 28.0514 235.013 29.1711 238.433 31.4103C241.854 33.6496 244.555 36.6035 246.535 40.2741C246.69 40.554 246.806 40.8414 246.884 41.1381C246.961 41.4329 247 41.7352 247 42.0468C247 42.3585 246.961 42.6607 246.884 42.9575C246.806 43.2523 246.69 43.5397 246.535 43.8196C244.555 47.4901 241.854 50.444 238.433 52.6833C235.013 54.9225 231.229 56.0422 227.081 56.0422ZM227.081 52.3101C230.579 52.3101 233.79 51.3845 236.715 49.5334C239.641 47.6841 241.877 45.1874 243.425 42.0468C241.877 38.9063 239.641 36.4095 236.715 34.5584C233.79 32.7091 230.579 31.7835 227.081 31.7835C223.583 31.7835 220.372 32.7091 217.447 34.5584C214.522 36.4095 212.285 38.9063 210.738 42.0468C212.285 45.1874 214.522 47.6841 217.447 49.5334C220.372 51.3845 223.583 52.3101 227.081 52.3101Z" fill="#457AA5"/>
<path d="M92.3732 50.8624C93.8782 49.706 95.5602 48.7952 97.4193 48.1263C99.2784 47.461 101.226 47.1266 103.262 47.1266C105.298 47.1266 107.246 47.461 109.105 48.1263C110.964 48.7952 112.646 49.706 114.151 50.8624C115.183 49.6474 115.989 48.2686 116.564 46.7263C117.14 45.1839 117.426 43.5384 117.426 41.7897C117.426 37.8457 116.047 34.4888 113.289 31.7171C110.528 28.9438 107.187 27.5579 103.262 27.5579C99.3368 27.5579 95.9958 28.9438 93.2372 31.7171C90.477 34.4888 89.0977 37.8457 89.0977 41.7897C89.0977 43.5384 89.3846 45.1839 89.96 46.7263C90.5354 48.2686 91.341 49.6474 92.3732 50.8624ZM103.262 43.5686C101.522 43.5686 100.054 42.9691 98.8587 41.7683C97.6636 40.5657 97.0652 39.091 97.0652 37.3422C97.0652 35.5935 97.6636 34.1188 98.8587 32.918C100.054 31.7171 101.522 31.1159 103.262 31.1159C105.003 31.1159 106.47 31.7171 107.667 32.918C108.862 34.1188 109.459 35.5935 109.459 37.3422C109.459 39.091 108.862 40.5657 107.667 41.7683C106.47 42.9691 105.003 43.5686 103.262 43.5686ZM103.262 59.5793C100.813 59.5793 98.5117 59.1115 96.357 58.1775C94.2022 57.2453 92.329 55.9769 90.7355 54.3758C89.142 52.7748 87.8796 50.8926 86.9518 48.7276C86.0205 46.5626 85.5566 44.25 85.5566 41.7897C85.5566 39.3294 86.0205 37.0167 86.9518 34.8517C87.8796 32.6867 89.142 30.8045 90.7355 29.2035C92.329 27.6024 94.2022 26.334 96.357 25.4018C98.5117 24.4661 100.813 24 103.262 24C105.711 24 108.012 24.4661 110.167 25.4018C112.322 26.334 114.195 27.6024 115.789 29.2035C117.382 30.8045 118.645 32.6867 119.572 34.8517C120.502 37.0167 120.967 39.3294 120.967 41.7897C120.967 44.25 120.502 46.5626 119.572 48.7276C118.645 50.8926 117.382 52.7748 115.789 54.3758C114.195 55.9769 112.322 57.2453 110.167 58.1775C108.012 59.1115 105.711 59.5793 103.262 59.5793Z" fill="#457AA5"/>
<path d="M39.2266 44.9918L35.42 41.167C35.096 40.8409 34.6817 40.6778 34.1806 40.6778C33.6795 40.6778 33.2652 40.8409 32.9412 41.167C32.6172 41.4931 32.4544 41.9083 32.4544 42.4123C32.4544 42.9163 32.6172 43.3315 32.9412 43.6576L37.9873 48.7276C38.3413 49.0834 38.7539 49.2613 39.2266 49.2613C39.6994 49.2613 40.1119 49.0834 40.466 48.7276L50.4696 38.6765C50.7936 38.3504 50.9565 37.9352 50.9565 37.4312C50.9565 36.9272 50.7936 36.5121 50.4696 36.1859C50.1457 35.8598 49.7313 35.6967 49.2302 35.6967C48.7291 35.6967 48.3148 35.8598 47.9908 36.1859L39.2266 44.9918ZM41.7054 59.5793C39.2568 59.5793 36.9551 59.1123 34.8003 58.1784C32.6455 57.2444 30.7723 55.9769 29.1788 54.3758C27.5854 52.7748 26.323 50.8921 25.3952 48.7276C24.4639 46.5632 24 44.2505 24 41.7897C24 39.3288 24.4639 37.0161 25.3952 34.8517C26.323 32.6873 27.5854 30.8045 29.1788 29.2035C30.7723 27.6024 32.6456 26.3349 34.8003 25.4009C36.9551 24.467 39.2568 24 41.7054 24C44.1541 24 46.4558 24.467 48.6106 25.4009C50.7653 26.3349 52.6385 27.6024 54.232 29.2035C55.8255 30.8045 57.0879 32.6873 58.0156 34.8517C58.9452 37.0161 59.4109 39.3288 59.4109 41.7897C59.4109 44.2505 58.9452 46.5632 58.0156 48.7276C57.0879 50.8921 55.8255 52.7748 54.232 54.3758C52.6385 55.9769 50.7653 57.2444 48.6106 58.1784C46.4558 59.1123 44.1541 59.5793 41.7054 59.5793ZM41.7054 56.0214C45.659 56.0214 49.0089 54.6427 51.7532 51.8853C54.4976 49.1279 55.8698 45.7626 55.8698 41.7897C55.8698 37.8167 54.4976 34.4514 51.7532 31.694C49.0089 28.9366 45.659 27.5579 41.7054 27.5579C37.7519 27.5579 34.4019 28.9366 31.6576 31.694C28.9133 34.4514 27.5411 37.8166 27.5411 41.7897C27.5411 45.7627 28.9133 49.1279 31.6576 51.8853C34.4019 54.6427 37.7519 56.0214 41.7054 56.0214Z" fill="#457AA5"/>
</svg>
