<svg xmlns="http://www.w3.org/2000/svg" width="272" height="143" fill="none"><path fill="#ededed" d="M0 8a8 8 0 0 1 8-8h256a8 8 0 0 1 8 8v127a8 8 0 0 1-8 8H8a8 8 0 0 1-8-8z"/><path fill="#457aa5" d="M226.993 112.143q.929 0 1.571-.645t.642-1.579-.642-1.579a2.13 2.13 0 0 0-1.571-.645q-.93 0-1.572.645-.641.645-.641 1.579t.641 1.579q.642.645 1.572.645m.088 7.116q-3.674 0-6.905-1.401t-5.621-3.803q-2.39-2.401-3.785-5.648-1.394-3.246-1.394-6.938 0-3.69 1.394-6.938 1.394-3.246 3.785-5.648t5.621-3.803 6.905-1.4c3.674 0 4.751.466 6.905 1.4q3.232 1.401 5.622 3.803t3.784 5.648q1.395 3.247 1.395 6.938 0 3.692-1.395 6.938-1.394 3.247-3.784 5.648-2.39 2.402-5.622 3.803t-6.905 1.401m0-3.558q5.932 0 10.048-4.136t4.117-10.096-4.117-10.095q-4.117-4.137-10.048-4.137-5.93.001-10.048 4.136-4.116 4.137-4.116 10.096t4.116 10.096q4.117 4.136 10.048 4.136m.177-21.881q1.107 0 1.926.711t.819 1.78q0 .977-.598 1.734a11 11 0 0 1-1.35 1.423 11.8 11.8 0 0 0-1.793 1.957 4 4 0 0 0-.774 2.401q0 .623.465 1.045.464.423 1.084.423a1.57 1.57 0 0 0 1.129-.445q.465-.444.597-1.112a3.6 3.6 0 0 1 .797-1.667q.62-.735 1.328-1.401a11.4 11.4 0 0 0 1.748-2.135 4.73 4.73 0 0 0 .731-2.58q0-2.268-1.837-3.713-1.838-1.446-4.272-1.446a7.5 7.5 0 0 0-3.209.712 4.96 4.96 0 0 0-2.324 2.18 1.6 1.6 0 0 0-.199 1.133q.11.6.598.912.62.356 1.283.222.665-.133 1.107-.756a3.25 3.25 0 0 1 1.217-1.023 3.45 3.45 0 0 1 1.527-.355m-78.145-36.464q-1.598 0-2.735-1.143-1.138-1.144-1.138-2.749V30.115q0-1.605 1.138-2.748t2.735-1.143h10.022a3.8 3.8 0 0 1 2.711 1.118l2.759 2.773h15.493q1.597 0 2.735 1.143t1.138 2.749v19.457q0 1.605-1.138 2.748t-2.735 1.144zm0-3.892h30.985V34.007h-17.09l-3.873-3.892h-10.022zm15.492-1.946q.823 0 1.38-.559c.557-.559.557-.835.557-1.386v-6.227l1.743 1.751q.533.535 1.355.535.823 0 1.356-.535.532-.534.532-1.362 0-.826-.532-1.362l-5.035-5.059q-.58-.583-1.356-.583-.774 0-1.355.583l-5.035 5.06q-.533.534-.533 1.361 0 .828.533 1.362t1.355.535q.823 0 1.356-.535l1.743-1.75v6.226q0 .826.557 1.386t1.379.56M90.352 120q-1.522 0-2.604-1.089-1.085-1.089-1.085-2.617V90.351q0-1.53 1.085-2.618 1.081-1.089 2.604-1.089h1.844v-1.853q0-.788.531-1.32.529-.533 1.313-.533t1.315.533.53 1.32v1.853h14.754v-1.853q0-.788.531-1.32a1.78 1.78 0 0 1 1.314-.533q.782 0 1.315.533.529.533.529 1.32v1.853h1.844q1.522 0 2.606 1.09 1.082 1.087 1.083 2.617v25.943q0 1.528-1.083 2.617-1.084 1.089-2.606 1.089zm0-3.706h25.82V97.763h-25.82zm0-22.237h25.82V90.35h-25.82zm12.91 11.118q-.784 0-1.313-.532a1.8 1.8 0 0 1-.531-1.321q0-.788.531-1.32a1.78 1.78 0 0 1 1.313-.533q.784 0 1.315.533.529.532.529 1.32c0 .788-.177.965-.529 1.321a1.78 1.78 0 0 1-1.315.532m-7.377 0q-.784 0-1.315-.532a1.8 1.8 0 0 1-.53-1.321q0-.788.53-1.32a1.8 1.8 0 0 1 1.315-.533q.783 0 1.315.533.528.532.529 1.32c.001.788-.177.965-.53 1.321a1.78 1.78 0 0 1-1.314.532m14.754 0q-.784 0-1.313-.532a1.8 1.8 0 0 1-.531-1.321q0-.788.531-1.32a1.78 1.78 0 0 1 1.313-.533q.783 0 1.315.533.529.532.53 1.32c.001.788-.178.965-.53 1.321a1.78 1.78 0 0 1-1.315.532m-7.377 7.413q-.784 0-1.313-.533-.531-.533-.531-1.32c0-.787.177-.966.531-1.321a1.78 1.78 0 0 1 1.313-.533q.784 0 1.315.533.529.533.529 1.321t-.529 1.32a1.8 1.8 0 0 1-1.315.533m-7.377 0q-.784 0-1.315-.533t-.53-1.32c0-.787.177-.966.53-1.321a1.8 1.8 0 0 1 1.315-.533q.783 0 1.315.533.528.533.529 1.321 0 .788-.53 1.32a1.8 1.8 0 0 1-1.314.533m14.754 0q-.784 0-1.313-.533-.531-.533-.531-1.32c0-.787.177-.966.531-1.321a1.78 1.78 0 0 1 1.313-.533q.783 0 1.315.533.529.533.53 1.321-.001.788-.53 1.32a1.8 1.8 0 0 1-1.315.533m-68.934 6.671q-3.63 0-6.86-1.402a17.9 17.9 0 0 1-5.643-3.825 18 18 0 0 1-3.807-5.669Q24 105.116 24 101.469q0-3.69 1.395-6.915a18 18 0 0 1 3.807-5.648 17.9 17.9 0 0 1 5.643-3.825q3.23-1.403 6.86-1.402 3.675 0 6.882 1.402a18 18 0 0 1 5.622 3.825 18 18 0 0 1 3.807 5.648q1.395 3.225 1.395 6.915 0 3.647-1.395 6.894a18 18 0 0 1-3.807 5.669 18 18 0 0 1-5.622 3.825q-3.208 1.401-6.882 1.402m0-3.647a22.7 22.7 0 0 0 1.992-3.336 21 21 0 0 0 1.372-3.691h-6.728q.53 1.956 1.373 3.691a22.7 22.7 0 0 0 1.991 3.336m-4.603-.712a25 25 0 0 1-1.393-3.045 26 26 0 0 1-.997-3.27h-5.223a14.8 14.8 0 0 0 3.208 3.869 12.7 12.7 0 0 0 4.405 2.446m9.207 0a12.7 12.7 0 0 0 4.405-2.446 14.7 14.7 0 0 0 3.208-3.869H48.7a26 26 0 0 1-.997 3.27 25 25 0 0 1-1.393 3.045m-18.325-9.873h6.02a23.5 23.5 0 0 1-.266-3.558 23.5 23.5 0 0 1 .266-3.558h-6.02q-.221.89-.333 1.758-.11.865-.11 1.8c0 .935.037 1.224.11 1.8q.112.87.333 1.758m9.56 0h8.322q.134-.889.2-1.758.066-.865.066-1.8c0-.935-.021-1.224-.066-1.8a25 25 0 0 0-.2-1.758h-8.321q-.134.89-.2 1.758-.067.865-.066 1.8c.001.935.021 1.224.066 1.8q.066.87.2 1.758m11.863 0h6.02q.221-.889.333-1.758.11-.865.11-1.8c0-.935-.037-1.224-.11-1.8a16 16 0 0 0-.333-1.758h-6.02q.134.89.2 1.758.067.865.066 1.8a19 19 0 0 1-.066 1.8 25 25 0 0 1-.2 1.758M48.7 94.353h5.223a14.8 14.8 0 0 0-3.208-3.869 12.7 12.7 0 0 0-4.405-2.446 25 25 0 0 1 1.393 3.045q.6 1.581.997 3.27m-10.358 0h6.728a21 21 0 0 0-1.372-3.691 22.7 22.7 0 0 0-1.992-3.336 22.7 22.7 0 0 0-1.991 3.336 21 21 0 0 0-1.373 3.691m-8.852 0h5.223q.398-1.689.997-3.27a25 25 0 0 1 1.393-3.045 12.7 12.7 0 0 0-4.405 2.446 14.8 14.8 0 0 0-3.208 3.87M148.375 113.7q-.862 0-1.446-.585-.582-.587-.582-1.453t.582-1.451q.584-.587 1.446-.587h32.46q.863 0 1.445.587.584.584.584 1.451 0 .866-.584 1.453-.582.585-1.445.585zm0-10.192q-.862 0-1.446-.585-.582-.587-.582-1.453t.582-1.453q.584-.585 1.446-.585h32.46q.863 0 1.445.585.584.587.584 1.453t-.584 1.453q-.582.585-1.445.585zm0-10.191q-.862 0-1.446-.588-.582-.585-.582-1.45 0-.867.582-1.454.584-.585 1.446-.585h32.46q.863 0 1.445.585.584.587.584 1.453t-.584 1.451q-.582.587-1.445.587zm78.706-42.872q3.483 0 5.92-2.448 2.438-2.451 2.438-5.95 0-3.497-2.438-5.948-2.437-2.447-5.92-2.448t-5.92 2.448q-2.437 2.451-2.437 5.949t2.437 5.949q2.438 2.447 5.92 2.448m0-3.359q-2.09 0-3.552-1.468-1.462-1.47-1.462-3.57t1.462-3.568q1.462-1.472 3.552-1.47 2.09-.001 3.552 1.47 1.463 1.469 1.463 3.568t-1.463 3.57q-1.462 1.469-3.552 1.468m0 8.957q-6.222 0-11.352-3.359t-8.102-8.863a3.7 3.7 0 0 1-.348-.862 3.6 3.6 0 0 1-.116-.911q0-.467.116-.909.115-.445.348-.864 2.972-5.504 8.102-8.864 5.13-3.359 11.352-3.359t11.352 3.36q5.132 3.358 8.102 8.863.232.42.349.864.116.442.116.909a3.6 3.6 0 0 1-.465 1.773q-2.97 5.505-8.102 8.863-5.13 3.36-11.352 3.36m0-3.732q5.247 0 9.634-2.777 4.389-2.775 6.71-7.486-2.321-4.71-6.71-7.489-4.387-2.774-9.634-2.774c-5.247 0-6.709.925-9.634 2.774q-4.388 2.778-6.709 7.489 2.321 4.711 6.709 7.486 4.387 2.777 9.634 2.777m-134.708-1.45a18.5 18.5 0 0 1 5.046-2.736q2.79-.999 5.843-1 3.054.001 5.843 1a18.5 18.5 0 0 1 5.046 2.736 13.8 13.8 0 0 0 2.413-4.136q.863-2.314.862-4.936 0-5.916-4.137-10.073-4.14-4.16-10.027-4.16t-10.025 4.16q-4.14 4.157-4.14 10.073 0 2.622.863 4.936a13.8 13.8 0 0 0 2.413 4.136m10.889-7.293q-2.61 0-4.403-1.8-1.793-1.804-1.794-4.427 0-2.622 1.794-4.424 1.793-1.801 4.403-1.802 2.61 0 4.405 1.802 1.792 1.801 1.792 4.424t-1.792 4.426q-1.794 1.8-4.405 1.8m0 16.01q-3.673 0-6.905-1.401-3.232-1.4-5.621-3.802-2.391-2.401-3.784-5.648-1.396-3.248-1.395-6.938c0-3.69.464-4.773 1.395-6.938q1.392-3.247 3.784-5.648 2.389-2.404 5.621-3.802 3.232-1.403 6.905-1.402c3.673.001 4.75.466 6.905 1.402q3.232 1.398 5.622 3.802 2.391 2.4 3.783 5.648 1.395 3.247 1.395 6.938c0 3.69-.465 4.773-1.395 6.938q-1.392 3.247-3.783 5.648-2.39 2.402-5.622 3.802-3.232 1.401-6.905 1.401M39.227 44.992l-3.807-3.825q-.486-.49-1.24-.49-.751 0-1.239.49-.486.489-.487 1.245 0 .757.487 1.246l5.046 5.07q.53.533 1.24.533.708 0 1.239-.533L50.47 38.677q.486-.49.487-1.246 0-.756-.487-1.245t-1.24-.49q-.751 0-1.24.49zm2.478 14.587q-3.672 0-6.905-1.4-3.232-1.402-5.621-3.803-2.392-2.402-3.784-5.648Q24 45.48 24 41.79q0-3.692 1.395-6.938 1.393-3.247 3.784-5.648Q31.569 26.8 34.8 25.4q3.233-1.4 6.905-1.4 3.674 0 6.906 1.4 3.231 1.402 5.621 3.804 2.392 2.4 3.784 5.648 1.395 3.246 1.395 6.938 0 3.69-1.395 6.938-1.393 3.246-3.784 5.648-2.39 2.4-5.621 3.802-3.233 1.401-6.906 1.401m0-3.558q5.931 0 10.048-4.136Q55.87 47.75 55.87 41.79t-4.117-10.096-10.048-4.136q-5.93 0-10.047 4.136T27.54 41.79t4.117 10.095q4.117 4.137 10.047 4.136"/></svg>