<svg width="577" height="145" viewBox="0 0 577 145" fill="none" xmlns="http://www.w3.org/2000/svg">
<path d="M433 39.4242C433 17.6508 415.148 0 393.125 0L288 0V145H433V39.4242Z" fill="#286AD8"/>
<path d="M182.424 145C160.651 145 143 127.148 143 105.125V0H288V145H182.424Z" fill="#286AD8"/>
<path d="M432 145V-0.000152588L504.335 -0.000152588C544.467 -0.000152588 577 32.4592 577 72.4999C577 112.541 544.467 145 504.335 145L432 145Z" fill="#286AD8"/>
<path style="mix-blend-mode:multiply" opacity="0.56" d="M419 145.001H226.5L202 117.501C202 117.501 204.5 118.794 208 118.794H335.527C340.497 118.794 344.509 114.765 344.509 109.794V48.3262L419 145.001Z" fill="url(#paint0_linear_1377_5912)"/>
<rect x="198" y="43" width="146" height="76.1398" rx="9" stroke="#4983DB" stroke-linecap="round" stroke-linejoin="bevel"/>
<path d="M215 61.5137C215 60.6 215.741 59.8594 216.654 59.8594H263.802C264.715 59.8594 265.456 60.6 265.456 61.5137C265.456 62.4273 264.715 63.168 263.802 63.168H216.654C215.741 63.168 215 62.4273 215 61.5137Z" fill="#1545BB"/>
<path d="M215 74.1973C215 73.2836 215.741 72.543 216.654 72.543H299.921C300.834 72.543 301.575 73.2836 301.575 74.1973C301.575 75.1109 300.834 75.8516 299.921 75.8516H216.654C215.741 75.8516 215 75.1109 215 74.1973Z" fill="#5187DF"/>
<path d="M215 81.918C215 81.0043 215.741 80.2637 216.654 80.2637H290.822C291.736 80.2637 292.476 81.0043 292.476 81.918C292.476 82.8316 291.736 83.5723 290.822 83.5723H216.654C215.741 83.5723 215 82.8316 215 81.918Z" fill="#5187DF"/>
<path d="M333 56.874L331.092 58.7803L332.953 60.6416L332.08 61.5156L330.219 59.6543L328.412 61.4609L327.539 60.5879L329.345 58.7803L327.492 56.9277L328.366 56.0537L330.219 57.9062L332.126 56L333 56.874Z" fill="#1545BB"/>
<path d="M327.049 101.049H309.821C308.053 101.049 306.62 102.503 306.62 104.297V107.329C306.62 109.123 308.053 110.577 309.821 110.577H327.049C328.817 110.577 330.25 109.123 330.25 107.329V104.297C330.25 102.503 328.817 101.049 327.049 101.049Z" fill="#1545BB"/>
<path d="M298.844 100.666H281.616C279.848 100.666 278.415 102.12 278.415 103.914V106.946C278.415 108.74 279.848 110.194 281.616 110.194H298.844C300.612 110.194 302.045 108.74 302.045 106.946V103.914C302.045 102.12 300.612 100.666 298.844 100.666Z" fill="#5187DF"/>
<path d="M72.5 145C112.541 145 145 112.541 145 72.5C145 32.4594 112.541 0 72.5 0C32.4593 0 0 32.4594 0 72.5C0 112.541 32.4593 145 72.5 145Z" fill="#286AD8"/>
<defs>
<linearGradient id="paint0_linear_1377_5912" x1="401" y1="170.001" x2="222" y2="48.001" gradientUnits="userSpaceOnUse">
<stop stop-color="#003BA1"/>
<stop offset="1" stop-color="#7AA5E7"/>
</linearGradient>
</defs>
</svg>
