<svg xmlns="http://www.w3.org/2000/svg" width="273" height="144" fill="none" viewBox="0 0 273 144"><rect width="272" height="143" x=".396" y=".5" fill="#eff6fb" rx="8"/><mask id="a" fill="#fff"><path d="M45.646 72c0-7.07 5.73-12.8 12.8-12.8 7.069 0 12.8 5.73 12.8 12.8s-5.731 12.8-12.8 12.8-12.8-5.73-12.8-12.8"/></mask><path fill="#fff" d="M45.646 72c0-7.07 5.73-12.8 12.8-12.8 7.069 0 12.8 5.73 12.8 12.8s-5.731 12.8-12.8 12.8-12.8-5.73-12.8-12.8"/><path fill="#62666a" d="M58.445 84.8v-2.133c-5.89 0-10.666-4.776-10.666-10.667h-4.267c0 8.248 6.686 14.933 14.933 14.933zm12.8-12.8h-2.133c0 5.891-4.776 10.667-10.667 10.667v4.266c8.248 0 14.934-6.686 14.934-14.933zm-12.8-12.8v2.133c5.891 0 10.667 4.776 10.667 10.667h4.267c0-8.247-6.686-14.933-14.934-14.933zm0 0v-2.133c-8.247 0-14.933 6.686-14.933 14.933h4.267c0-5.89 4.775-10.666 10.666-10.666z" mask="url(#a)"/><circle cx="58.446" cy="72" r="7.467" fill="#154973"/><mask id="b" fill="#fff"><path d="M45.646 31.458c0-7.07 5.73-12.8 12.8-12.8 7.069 0 12.8 5.73 12.8 12.8s-5.731 12.8-12.8 12.8-12.8-5.73-12.8-12.8"/></mask><path fill="#fff" d="M45.646 31.458c0-7.07 5.73-12.8 12.8-12.8 7.069 0 12.8 5.73 12.8 12.8s-5.731 12.8-12.8 12.8-12.8-5.73-12.8-12.8"/><path fill="#62666a" d="M58.445 44.258v-2.133c-5.89 0-10.666-4.776-10.666-10.667h-4.267c0 8.248 6.686 14.933 14.933 14.933zm12.8-12.8h-2.133c0 5.891-4.776 10.667-10.667 10.667v4.266c8.248 0 14.934-6.685 14.934-14.933zm-12.8-12.8v2.133c5.891 0 10.667 4.776 10.667 10.667h4.267c0-8.247-6.686-14.933-14.934-14.933zm0 0v-2.133c-8.247 0-14.933 6.686-14.933 14.933h4.267c0-5.89 4.775-10.666 10.666-10.666z" mask="url(#b)"/><mask id="c" fill="#fff"><path d="M45.646 113.6c0-7.069 5.73-12.8 12.8-12.8 7.069 0 12.8 5.731 12.8 12.8s-5.731 12.8-12.8 12.8-12.8-5.731-12.8-12.8"/></mask><path fill="#fff" d="M45.646 113.6c0-7.069 5.73-12.8 12.8-12.8 7.069 0 12.8 5.731 12.8 12.8s-5.731 12.8-12.8 12.8-12.8-5.731-12.8-12.8"/><path fill="#62666a" d="M58.445 126.4v-2.134c-5.89 0-10.666-4.775-10.666-10.666h-4.267c0 8.247 6.686 14.933 14.933 14.933zm12.8-12.8h-2.133c0 5.891-4.776 10.666-10.667 10.666v4.267c8.248 0 14.934-6.686 14.934-14.933zm-12.8-12.8v2.133c5.891 0 10.667 4.776 10.667 10.667h4.267c0-8.248-6.686-14.933-14.934-14.933zm0 0v-2.133c-8.247 0-14.933 6.685-14.933 14.933h4.267c0-5.891 4.775-10.667 10.666-10.667z" mask="url(#c)"/><path fill="#d0d0ce" d="M85.146 31.458a3 3 0 0 1 3-3h110a3 3 0 0 1 0 6h-110a3 3 0 0 1-3-3"/><path fill="#0e324f" d="M85.178 72a3 3 0 0 1 3-3h26a3 3 0 1 1 0 6h-26a3 3 0 0 1-3-3M125.146 72a3 3 0 0 1 3-3h58a3 3 0 0 1 0 6h-58a3 3 0 0 1-3-3"/><path fill="#d0d0ce" d="M86.146 113.6a3 3 0 0 1 3-3h36a3 3 0 0 1 0 6h-36a3 3 0 0 1-3-3M136.146 113.6a3 3 0 0 1 3-3h66a3 3 0 0 1 0 6h-66a3 3 0 0 1-3-3"/></svg>