<svg width="580" height="145" viewBox="0 0 580 145" fill="none" xmlns="http://www.w3.org/2000/svg">
<g id="GettingStarted-header-group">
<path id="Vector" d="M395.125 145H290C290 64.9187 354.919 0 435 0V105.125C435 127.147 417.147 145 395.125 145Z" fill="#286AD8"/>
<g id="Group 201">
<path id="Vector_2" d="M39.875 0C17.8526 0 0 17.8525 0 39.8751V145H145V0H39.875Z" fill="url(#paint0_linear_22_845)"/>
<g id="Clip path group" style="mix-blend-mode:multiply" opacity="0.6">
<mask id="mask0_22_845" style="mask-type:luminance" maskUnits="userSpaceOnUse" x="0" y="0" width="145" height="145">
<g id="clippath-1">
<path id="Vector_3" d="M39.875 0C17.8526 0 0 17.8525 0 39.8751V145H145V0H39.875Z" fill="white"/>
</g>
</mask>
<g mask="url(#mask0_22_845)">
<g id="Group">
<path id="Vector_4" style="mix-blend-mode:multiply" opacity="0.58" d="M197.519 181.054C197.469 180.942 197.386 180.851 197.256 180.791C197.206 180.679 197.122 180.588 196.993 180.528C196.943 180.416 196.859 180.325 196.729 180.265C196.68 180.153 196.596 180.062 196.466 180.002C196.416 179.89 196.333 179.799 196.203 179.739C196.153 179.627 196.07 179.536 195.94 179.476C195.89 179.363 195.807 179.273 195.677 179.212C195.627 179.1 195.544 179.009 195.414 178.949C195.364 178.837 195.281 178.746 195.151 178.686C195.101 178.574 195.018 178.483 194.888 178.423C194.838 178.311 194.754 178.22 194.625 178.16C194.575 178.048 194.491 177.957 194.361 177.897C194.312 177.785 194.228 177.694 194.098 177.634C194.048 177.522 193.965 177.431 193.835 177.371C193.785 177.259 193.702 177.168 193.572 177.108C193.522 176.996 193.439 176.905 193.309 176.844C193.259 176.732 193.176 176.642 193.046 176.581C192.996 176.469 192.913 176.378 192.783 176.318C192.733 176.206 192.65 176.115 192.52 176.055C192.47 175.943 192.386 175.852 192.257 175.792C192.207 175.68 192.123 175.589 191.993 175.529C191.944 175.417 191.86 175.326 191.73 175.266C191.68 175.154 191.597 175.063 191.467 175.003C191.417 174.891 191.334 174.8 191.204 174.74C191.154 174.628 191.071 174.537 190.941 174.477C190.891 174.364 190.808 174.274 190.678 174.214C190.628 174.101 190.545 174.01 190.415 173.95C190.365 173.838 190.282 173.747 190.152 173.687C190.102 173.575 190.018 173.484 189.889 173.424C189.839 173.312 189.755 173.221 189.626 173.161C189.576 173.049 189.492 172.958 189.362 172.898C189.312 172.786 189.229 172.695 189.099 172.635C189.049 172.523 188.966 172.432 188.836 172.372C188.786 172.26 188.703 172.169 188.573 172.109C188.523 171.997 188.44 171.906 188.31 171.845C188.26 171.733 188.177 171.643 188.047 171.582C187.997 171.47 187.914 171.379 187.784 171.319C187.734 171.207 187.651 171.116 187.521 171.056C187.471 170.944 187.387 170.853 187.258 170.793C187.208 170.681 187.124 170.59 186.994 170.53C186.945 170.418 186.861 170.327 186.731 170.267C186.681 170.155 186.598 170.064 186.468 170.004C186.418 169.892 186.335 169.801 186.205 169.741C186.155 169.629 186.072 169.538 185.942 169.478C185.892 169.365 185.809 169.275 185.679 169.214C185.629 169.102 185.546 169.012 185.416 168.951C185.366 168.839 185.283 168.748 185.153 168.688C185.103 168.576 185.019 168.485 184.89 168.425C184.84 168.313 184.756 168.222 184.626 168.162C184.577 168.05 184.493 167.959 184.363 167.899C184.313 167.787 184.23 167.696 184.1 167.636C184.05 167.524 183.967 167.433 183.837 167.373C183.787 167.261 183.704 167.17 183.574 167.11C183.524 166.998 183.441 166.907 183.311 166.847C183.261 166.734 183.178 166.644 183.048 166.583C182.998 166.471 182.915 166.38 182.785 166.32C182.735 166.208 182.651 166.117 182.522 166.057C182.472 165.945 182.388 165.854 182.259 165.794C182.209 165.682 182.125 165.591 181.995 165.531C181.945 165.419 181.862 165.328 181.732 165.268C181.682 165.156 181.599 165.065 181.469 165.005C181.449 164.959 181.429 164.913 181.395 164.876C181.688 161.366 182.954 157.96 183.062 154.445C183.172 150.852 183.686 147.26 183.25 143.697C182.863 140.534 181.653 136.778 181.904 133.592C181.965 132.819 182.087 132.342 182.302 131.604C183.186 129.156 182.349 126.579 182.358 124.163C182.366 121.763 182.7 120.474 181.875 119.864C181.805 119.764 181.717 119.678 181.612 119.601C181.542 119.501 181.453 119.415 181.349 119.338C181.279 119.238 181.19 119.152 181.086 119.075C181.016 118.975 180.927 118.889 180.823 118.812C180.753 118.712 180.664 118.626 180.56 118.549C180.49 118.449 180.401 118.362 180.297 118.285C180.227 118.186 180.138 118.099 180.034 118.022C179.964 117.922 179.875 117.836 179.771 117.759C179.701 117.659 179.612 117.573 179.508 117.496C179.438 117.396 179.349 117.31 179.244 117.233C179.174 117.133 179.085 117.047 178.981 116.97C178.911 116.87 178.822 116.784 178.718 116.707C178.648 116.607 178.559 116.521 178.455 116.444C178.385 116.344 178.296 116.258 178.192 116.18C178.122 116.081 178.033 115.994 177.929 115.917C177.859 115.818 177.77 115.731 177.666 115.654C177.596 115.555 177.507 115.468 177.403 115.391C177.333 115.291 177.244 115.205 177.139 115.128C177.069 115.028 176.981 114.942 176.876 114.865C176.806 114.765 176.718 114.679 176.613 114.602C176.543 114.502 176.454 114.416 176.35 114.339C176.28 114.239 176.191 114.153 176.087 114.076C176.017 113.976 175.928 113.89 175.824 113.813C175.754 113.713 175.665 113.627 175.561 113.549C175.491 113.45 175.402 113.363 175.298 113.286C175.228 113.187 175.139 113.1 175.035 113.023C174.965 112.923 174.876 112.837 174.772 112.76C174.701 112.66 174.613 112.574 174.509 112.497C174.438 112.397 174.35 112.311 174.245 112.234C174.175 112.134 174.087 112.048 173.982 111.971C173.912 111.871 173.823 111.785 173.719 111.708C173.649 111.608 173.56 111.522 173.456 111.445C173.386 111.345 173.297 111.259 173.193 111.181C173.123 111.082 173.034 110.996 172.93 110.918C172.86 110.819 172.771 110.732 172.667 110.655C172.597 110.556 172.508 110.469 172.404 110.392C172.334 110.292 172.245 110.206 172.141 110.129C172.071 110.029 171.982 109.943 171.878 109.866C171.807 109.766 171.719 109.68 171.614 109.603C171.544 109.503 171.455 109.417 171.351 109.34C171.281 109.24 171.192 109.154 171.088 109.077C171.018 108.977 170.929 108.891 170.825 108.814C170.755 108.714 170.666 108.628 170.562 108.55C170.492 108.451 170.403 108.364 170.299 108.287C170.229 108.188 170.14 108.101 170.036 108.024C169.966 107.925 169.877 107.838 169.773 107.761C169.703 107.661 169.614 107.575 169.509 107.498C169.439 107.398 169.351 107.312 169.246 107.235C169.176 107.135 169.088 107.049 168.983 106.972C168.913 106.872 168.824 106.786 168.72 106.709C168.65 106.609 168.561 106.523 168.457 106.446C168.387 106.346 168.298 106.26 168.194 106.182C168.124 106.083 168.035 105.996 167.931 105.919C167.861 105.82 167.772 105.733 167.668 105.656C167.598 105.557 167.509 105.47 167.405 105.393C167.335 105.293 167.246 105.207 167.141 105.13C167.071 105.03 166.983 104.944 166.878 104.867C166.808 104.767 166.72 104.681 166.615 104.604C166.545 104.504 166.456 104.418 166.352 104.341C166.282 104.241 166.193 104.155 166.089 104.078C166.019 103.978 165.93 103.892 165.826 103.815C165.756 103.715 165.667 103.629 165.563 103.551C165.493 103.452 165.404 103.366 165.3 103.288C165.23 103.189 165.141 103.102 165.037 103.025C164.967 102.925 164.878 102.839 164.774 102.762C164.704 102.662 164.615 102.576 164.511 102.499C164.441 102.399 164.352 102.313 164.248 102.236C164.177 102.136 164.089 102.05 163.984 101.973C163.914 101.873 163.825 101.787 163.721 101.71C163.651 101.61 163.562 101.524 163.458 101.447C163.388 101.347 163.299 101.261 163.195 101.184C163.125 101.084 163.036 100.998 162.932 100.92C162.862 100.821 162.773 100.734 162.669 100.657C162.599 100.558 162.51 100.471 162.406 100.394C162.336 100.295 162.247 100.208 162.143 100.131C162.073 100.031 161.984 99.9453 161.88 99.8681C161.81 99.7683 161.721 99.682 161.616 99.6048C161.546 99.5052 161.457 99.4189 161.353 99.3418C161.283 99.2421 161.194 99.1559 161.09 99.0787C161.02 98.979 160.931 98.8928 160.827 98.8157C160.757 98.7159 160.668 98.6296 160.564 98.5524C160.494 98.4528 160.405 98.3665 160.301 98.2894C160.231 98.1897 160.142 98.1034 160.038 98.0263C159.968 97.9266 159.879 97.8404 159.775 97.7633C159.705 97.6635 159.616 97.5772 159.511 97.5C159.441 97.4003 159.353 97.3141 159.248 97.237C159.178 97.1372 159.09 97.051 158.985 96.9739C158.915 96.8742 158.826 96.788 158.722 96.7109C158.652 96.6111 158.563 96.5247 158.459 96.4476C158.389 96.3479 158.3 96.2617 158.196 96.1846C158.126 96.0848 158.037 95.9986 157.933 95.9215C157.863 95.8218 157.774 95.7356 157.67 95.6585C157.6 95.5586 157.511 95.4723 157.407 95.3952C157.337 95.2955 157.248 95.2092 157.144 95.1322C157.074 95.0324 156.985 94.9462 156.881 94.8691C156.811 94.7694 156.722 94.6832 156.618 94.6061C156.547 94.5062 156.459 94.4199 156.354 94.3427C156.284 94.2431 156.195 94.1568 156.091 94.0797C156.021 93.98 155.932 93.8938 155.828 93.8166C155.758 93.7169 155.669 93.6307 155.565 93.5535C155.495 93.4538 155.406 93.3677 155.302 93.2905C155.232 93.1907 155.143 93.1044 155.039 93.0272C154.969 92.9276 154.88 92.8413 154.776 92.7642C154.706 92.6645 154.617 92.5783 154.513 92.5011C154.443 92.4014 154.354 92.3153 154.25 92.2381C154.18 92.1383 154.091 92.052 153.986 91.9748C153.916 91.8752 153.827 91.7889 153.723 91.7118C153.653 91.6121 153.564 91.5258 153.46 91.4487C153.39 91.349 153.301 91.2628 153.197 91.1857C153.127 91.0859 153.038 90.9996 152.934 90.9224C152.864 90.8227 152.775 90.7365 152.671 90.6594C152.601 90.5596 152.512 90.4734 152.408 90.3963C152.338 90.2966 152.249 90.2104 152.145 90.1333C152.075 90.0335 151.986 89.9471 151.881 89.87C151.811 89.7703 151.723 89.684 151.618 89.607C151.548 89.5072 151.46 89.421 151.355 89.3439C151.285 89.2442 151.196 89.158 151.092 89.0809C151.022 88.981 150.933 88.8947 150.829 88.8176C150.759 88.7179 150.67 88.6316 150.566 88.5546C150.496 88.4548 150.407 88.3686 150.303 88.2915C150.233 88.1918 150.144 88.1056 150.04 88.0285C149.97 87.9286 149.881 87.8423 149.777 87.7651C149.707 87.6655 149.618 87.5792 149.514 87.5021C149.444 87.4024 149.355 87.3162 149.251 87.239C149.18 87.1393 149.092 87.0531 148.987 86.9759C148.917 86.8763 148.829 86.7901 148.724 86.7129C148.654 86.6131 148.565 86.5268 148.461 86.4496C148.391 86.35 148.302 86.2637 148.198 86.1866C148.128 86.0869 148.039 86.0007 147.935 85.9235C147.865 85.8238 147.776 85.7377 147.672 85.6605C147.602 85.5607 147.513 85.4744 147.409 85.3972C147.339 85.2976 147.25 85.2113 147.146 85.1342C147.076 85.0345 146.987 84.9482 146.883 84.8711C146.813 84.7714 146.724 84.6852 146.62 84.6081C146.549 84.5083 146.461 84.422 146.356 84.3448C146.286 84.2451 146.197 84.1589 146.093 84.0818C146.023 83.9821 145.934 83.8958 145.83 83.8187C145.76 83.719 145.671 83.6328 145.567 83.5557C145.497 83.4559 145.408 83.3695 145.304 83.2924C145.234 83.1927 145.145 83.1065 145.041 83.0294C144.971 82.9297 144.882 82.8434 144.778 82.7663C144.708 82.6666 144.619 82.5804 144.515 82.5033C144.445 82.4035 144.356 82.3172 144.251 82.24C144.181 82.1403 144.093 82.0541 143.988 81.977C143.918 81.8772 143.83 81.791 143.725 81.7139C143.655 81.6142 143.566 81.528 143.462 81.4509C143.392 81.351 143.303 81.2647 143.199 81.1876C143.129 81.0879 143.04 81.0016 142.936 80.9246C142.866 80.8248 142.777 80.7386 142.673 80.6615C142.603 80.5617 142.514 80.4755 142.41 80.3983C142.34 80.2987 142.251 80.2125 142.147 80.1354C142.077 80.0355 141.988 79.9492 141.884 79.872C141.813 79.7724 141.725 79.6861 141.621 79.609C141.55 79.5093 141.462 79.4231 141.357 79.346C141.287 79.2463 141.199 79.1601 141.094 79.0829C141.024 78.9831 140.935 78.8968 140.831 78.8196C140.761 78.72 140.672 78.6337 140.568 78.5566C140.498 78.4569 140.409 78.3707 140.305 78.2935C140.235 78.1938 140.146 78.1077 140.042 78.0305C139.972 77.9307 139.883 77.8444 139.779 77.7672C139.709 77.6676 139.62 77.5813 139.516 77.5042C139.446 77.4045 139.357 77.3182 139.253 77.2411C139.183 77.1414 139.094 77.0552 138.99 76.9781C138.919 76.8783 138.831 76.792 138.726 76.7148C138.656 76.6151 138.567 76.5289 138.463 76.4518C138.393 76.3521 138.304 76.2658 138.2 76.1887C138.13 76.089 138.041 76.0028 137.937 75.9257C137.867 75.8259 137.778 75.7396 137.674 75.6624C137.604 75.5627 137.515 75.4765 137.411 75.3994C137.341 75.2996 137.252 75.2134 137.148 75.1363C137.078 75.0366 136.989 74.9504 136.885 74.8733C136.815 74.7734 136.726 74.6871 136.621 74.61C136.551 74.5103 136.463 74.424 136.358 74.347C136.288 74.2472 136.2 74.161 136.095 74.0839C136.025 73.9841 135.936 73.8979 135.832 73.8208C135.762 73.7211 135.673 73.6349 135.569 73.5578C135.499 73.4579 135.41 73.3716 135.306 73.2944C135.236 73.1948 135.147 73.1085 135.043 73.0314C134.973 72.9317 134.884 72.8455 134.78 72.7684C134.71 72.6687 134.621 72.5825 134.517 72.5053C134.447 72.4055 134.358 72.3192 134.253 72.242C134.183 72.1424 134.095 72.0561 133.99 71.979C133.92 71.8793 133.832 71.7931 133.727 71.7159C133.657 71.6162 133.568 71.5301 133.464 71.4529C133.394 71.3531 133.305 71.2668 133.201 71.1896C133.131 71.09 133.042 71.0037 132.938 70.9266C132.868 70.8269 132.779 70.7406 132.675 70.6635C132.605 70.5638 132.516 70.4776 132.412 70.4005C132.342 70.3007 132.253 70.2144 132.149 70.1372C132.079 70.0375 131.99 69.9513 131.886 69.8742C131.816 69.7745 131.727 69.6882 131.623 69.6111C131.553 69.5114 131.464 69.4252 131.36 69.3481C131.289 69.2483 131.201 69.1619 131.096 69.0848C131.026 68.9851 130.937 68.8989 130.833 68.8218C130.763 68.722 130.674 68.6358 130.57 68.5587C130.5 68.459 130.411 68.3728 130.307 68.2957C130.237 68.1958 130.148 68.1095 130.044 68.0324C129.974 67.9327 129.885 67.8464 129.781 67.7694C129.711 67.6696 129.622 67.5834 129.518 67.5063C129.448 67.4065 129.359 67.3203 129.255 67.2432C129.185 67.1435 129.096 67.0573 128.992 66.9802C128.922 66.8803 128.833 66.794 128.728 66.7169C128.658 66.6172 128.569 66.5309 128.465 66.4538C128.395 66.3541 128.306 66.2679 128.202 66.1908C128.132 66.0911 128.043 66.0049 127.939 65.9277C127.869 65.8279 127.78 65.7416 127.676 65.6644C127.606 65.5648 127.517 65.4785 127.413 65.4014C127.343 65.3017 127.254 65.2155 127.15 65.1383C127.08 65.0386 126.991 64.9525 126.887 64.8753C126.817 64.7755 126.728 64.6892 126.623 64.612C126.553 64.5124 126.465 64.4261 126.36 64.349C126.29 64.2493 126.202 64.163 126.097 64.0859C126.027 63.9862 125.938 63.9 125.834 63.8229C125.764 63.7231 125.675 63.6368 125.571 63.5596C125.501 63.4599 125.412 63.3737 125.308 63.2966C125.238 63.1969 125.149 63.1106 125.045 63.0335C124.975 62.9338 124.886 62.8476 124.782 62.7705C124.712 62.6707 124.623 62.5844 124.519 62.5072C124.449 62.4076 124.36 62.3213 124.256 62.2442C124.186 62.1445 124.097 62.0582 123.993 61.9811C123.923 61.8814 123.834 61.7952 123.73 61.7181C123.659 61.6183 123.571 61.532 123.466 61.4548C123.396 61.3551 123.307 61.2689 123.203 61.1918C123.133 61.092 123.044 61.0058 122.94 60.9287C122.87 60.8289 122.781 60.7427 122.677 60.6656C122.607 60.5659 122.518 60.4797 122.414 60.4026C122.344 60.3028 122.255 60.2164 122.151 60.1393C122.081 60.0396 121.992 59.9533 121.888 59.8763C121.818 59.7765 121.729 59.6903 121.625 59.6132C121.555 59.5135 121.466 59.4273 121.362 59.3502C121.292 59.2503 121.203 59.164 121.098 59.0869C121.028 58.9872 120.939 58.9009 120.835 58.8238C120.765 58.7241 120.676 58.6379 120.572 58.5608C120.502 58.4611 120.413 58.3749 120.309 58.2978C120.239 58.1979 120.15 58.1116 120.046 58.0344C119.976 57.9348 119.887 57.8485 119.783 57.7714C119.713 57.6717 119.624 57.5855 119.52 57.5083C119.45 57.4086 119.361 57.3225 119.257 57.2453C119.187 57.1455 119.098 57.0592 118.993 56.982C118.923 56.8824 118.835 56.7961 118.73 56.719C118.66 56.6193 118.572 56.533 118.467 56.4559C118.397 56.3562 118.308 56.27 118.204 56.1929C118.134 56.0931 118.045 56.0068 117.941 55.9296C117.871 55.83 117.782 55.7437 117.678 55.6666C117.608 55.5669 117.519 55.4806 117.415 55.4035C117.345 55.3038 117.256 55.2176 117.152 55.1405C117.082 55.0407 116.993 54.9544 116.889 54.8772C116.819 54.7775 116.73 54.6913 116.626 54.6142C116.556 54.5144 116.467 54.4282 116.363 54.3511C116.292 54.2513 116.204 54.1651 116.099 54.088C116.029 53.9883 115.941 53.9021 115.836 53.825C115.766 53.7252 115.677 53.6388 115.573 53.5617C115.503 53.462 115.414 53.3757 115.31 53.2987C115.24 53.1989 115.151 53.1127 115.047 53.0356C114.977 52.9359 114.888 52.8497 114.784 52.7726C114.714 52.6727 114.625 52.5864 114.521 52.5093C114.451 52.4096 114.362 52.3233 114.258 52.2462C114.188 52.1465 114.099 52.0603 113.995 51.9832C113.925 51.8835 113.836 51.7973 113.732 51.7202C113.661 51.6203 113.573 51.534 113.468 51.4568C113.398 51.3572 113.309 51.2709 113.205 51.1938C113.135 51.0941 113.046 51.0079 112.942 50.9307C112.872 50.831 112.783 50.7449 112.679 50.6677C112.609 50.5679 112.52 50.4816 112.416 50.4044C112.346 50.3048 112.257 50.2185 112.153 50.1414C112.083 50.0417 111.994 49.9554 111.89 49.8783C111.82 49.7786 111.731 49.6924 111.627 49.6153C111.557 49.5155 111.468 49.4292 111.363 49.352C111.293 49.2523 111.205 49.1661 111.1 49.089C111.03 48.9893 110.942 48.903 110.837 48.8259C110.767 48.7262 110.678 48.64 110.574 48.5629C110.504 48.4631 110.415 48.3768 110.311 48.2996C110.241 48.1999 110.152 48.1137 110.048 48.0366C109.978 47.9368 109.889 47.8506 109.785 47.7735C109.715 47.6737 109.626 47.5875 109.522 47.5104C109.452 47.4107 109.363 47.3245 109.259 47.2474C109.189 47.1476 109.1 47.0612 108.996 46.9841C108.925 46.8844 108.837 46.7981 108.732 46.7211C108.662 46.6213 108.574 46.5351 108.469 46.458C108.399 46.3583 108.311 46.2721 108.206 46.195C108.136 46.0951 108.047 46.0088 107.943 45.9317C107.873 45.832 107.784 45.7457 107.68 45.6686C107.61 45.5689 107.521 45.4827 107.417 45.4056C107.347 45.3059 107.258 45.2197 107.154 45.1426C107.084 45.0427 106.995 44.9564 106.891 44.8792C106.821 44.7796 106.732 44.6933 106.628 44.6162C106.558 44.5165 106.469 44.4303 106.365 44.3531C106.295 44.2534 106.206 44.1673 106.102 44.0901C106.031 43.9903 105.943 43.904 105.838 43.8268C105.768 43.7272 105.679 43.6409 105.575 43.5638C105.505 43.4641 105.416 43.3778 105.312 43.3007C105.242 43.201 105.153 43.1148 105.049 43.0377C104.979 42.9379 104.89 42.8516 104.786 42.7744C104.716 42.6748 104.627 42.5885 104.523 42.5114C104.453 42.4117 104.364 42.3254 104.26 42.2483C104.19 42.1486 104.101 42.0624 103.997 41.9853C103.927 41.8855 103.838 41.7992 103.733 41.722C103.663 41.6224 103.575 41.5361 103.47 41.459C103.4 41.3593 103.312 41.273 103.207 41.1959C102.992 40.8898 102.632 40.6932 102.036 40.5832C100.099 40.2257 94.6707 40.753 92.577 40.6153C89.6454 40.6942 86.6564 40.5506 83.9882 41.8047C80.6727 43.3843 78.0862 46.2439 75.9046 49.0852C74.7205 50.9819 72.3129 51.571 71.095 53.4213C69.8635 55.1259 70.872 57.0236 70.9435 58.8945C71.0191 64.6636 69.0159 63.8056 65.3138 66.7887C63.7151 68.0767 61.5676 68.3233 59.5852 68.3689C58.013 68.4048 55.8317 68.6611 54.3092 68.265C52.796 67.8713 51.4405 66.7611 49.8118 66.7611C47.4937 66.4948 43.9685 66.606 41.4804 67.0995C39.718 67.4832 38.3006 67.8089 38.245 69.7916C38.2245 71.5415 40.4424 73.3271 40.081 75.1214C39.2866 78.2917 35.2717 80.2433 32.7059 81.8137C32.0421 82.1665 30.9747 82.6809 30.5278 83.3129C29.7831 84.3658 29.9477 87.5796 30.5296 87.5855H30.5343C30.607 87.7474 30.6932 87.8476 30.7927 87.8486H30.7974C30.8701 88.0105 30.9563 88.1107 31.0558 88.1117H31.0606C31.1332 88.2736 31.2194 88.3738 31.3189 88.3748H31.3236C31.3963 88.5367 31.4825 88.6369 31.582 88.6379H31.5867C31.6594 88.7998 31.7456 88.9 31.8451 88.901H31.8499C31.9225 89.0629 32.0087 89.1631 32.1082 89.1641H32.113C32.1857 89.326 32.2718 89.4262 32.3714 89.4272H32.376C32.4487 89.5891 32.5349 89.6893 32.6344 89.6904H32.6392C32.7119 89.8522 32.798 89.9524 32.8976 89.9535H32.9023C32.975 90.1153 33.0611 90.2155 33.1606 90.2165H33.1654C33.2381 90.3784 33.3243 90.4786 33.4238 90.4796H33.4285C33.5011 90.6416 33.5873 90.7417 33.6869 90.7428H33.6916C33.7643 90.9047 33.8505 91.0048 33.95 91.0059H33.9547C34.0274 91.1678 34.1136 91.268 34.2131 91.269H34.2179C34.2905 91.4309 34.3767 91.531 34.4762 91.5321H34.4809C34.5536 91.694 34.6398 91.7942 34.7393 91.7952H34.7441C34.8167 91.9571 34.9029 92.0573 35.0024 92.0583H35.0071C35.0798 92.2202 35.166 92.3204 35.2655 92.3214H35.2703C35.3429 92.4833 35.4291 92.5835 35.5287 92.5845H35.5333C35.606 92.7464 35.6922 92.8466 35.7918 92.8476H35.7965C35.8691 93.0095 35.9553 93.1097 36.0548 93.1108H36.0596C36.1322 93.2726 36.2184 93.3728 36.318 93.3738H36.3227C36.3954 93.5357 36.4816 93.6359 36.5811 93.6369H36.5858C36.6584 93.7989 36.7446 93.899 36.8442 93.9001H36.8489C36.9216 94.062 37.0078 94.1621 37.1073 94.1632H37.112C37.1847 94.3251 37.2709 94.4252 37.3704 94.4263H37.3751C37.4478 94.5881 37.534 94.6884 37.6335 94.6894H37.6382C37.7109 94.8513 37.7971 94.9514 37.8966 94.9525H37.9013C37.974 95.1144 38.0602 95.2146 38.1597 95.2156H38.1644C38.2371 95.3775 38.3233 95.4777 38.4228 95.4787H38.4275C38.5002 95.6406 38.5864 95.7408 38.6859 95.7418H38.6907C38.7633 95.9037 38.8495 96.0039 38.949 96.0049H38.9537C39.0264 96.1668 39.1126 96.267 39.2121 96.268H39.2169C39.2895 96.4299 39.3757 96.5301 39.4752 96.5311H39.48C39.5526 96.693 39.6388 96.7932 39.7383 96.7942H39.7431C39.8158 96.9561 39.902 97.0563 40.0015 97.0573H40.0062C40.0788 97.2193 40.165 97.3194 40.2646 97.3205H40.2693C40.342 97.4823 40.4282 97.5825 40.5277 97.5836H40.5324C40.6051 97.7454 40.6912 97.8456 40.7908 97.8467H40.7955C40.8682 98.0085 40.9544 98.1087 41.0539 98.1097H41.0586C41.1313 98.2717 41.2174 98.3719 41.317 98.3729H41.3217C41.3944 98.5348 41.4806 98.635 41.5801 98.636H41.5848C41.6575 98.7979 41.7437 98.8981 41.8432 98.8991H41.848C41.9206 99.061 42.0068 99.1612 42.1063 99.1622H42.111C42.1837 99.3241 42.2699 99.4243 42.3694 99.4253H42.3742C42.4468 99.5872 42.533 99.6874 42.6325 99.6884H42.6373C42.7099 99.8503 42.7961 99.9505 42.8956 99.9515H42.9004C42.9731 100.113 43.0593 100.214 43.1588 100.215H43.1635C43.2361 100.377 43.3223 100.477 43.4219 100.478H43.4266C43.4993 100.64 43.5855 100.74 43.685 100.741H43.6897C43.7624 100.903 43.8485 101.003 43.9481 101.004H43.9528C44.0255 101.166 44.1116 101.266 44.2112 101.267H44.2159C44.2886 101.429 44.3748 101.529 44.4743 101.53H44.479C44.5517 101.692 44.6378 101.792 44.7374 101.793H44.7421C44.8148 101.955 44.901 102.055 45.0005 102.056H45.0052C45.0779 102.218 45.1641 102.318 45.2636 102.319H45.2684C45.341 102.481 45.4272 102.582 45.5267 102.583H45.5314C45.6041 102.745 45.6903 102.845 45.7898 102.846H45.7946C45.8672 103.008 45.9534 103.108 46.0529 103.109H46.0577C46.1303 103.271 46.2165 103.371 46.316 103.372H46.3208C46.3935 103.534 46.4797 103.634 46.5792 103.635H46.5839C46.6565 103.797 46.7427 103.897 46.8423 103.898H46.847C46.9197 104.06 47.0058 104.16 47.1054 104.161H47.1101C47.1828 104.323 47.2689 104.423 47.3685 104.424H47.3732C47.4459 104.586 47.5321 104.686 47.6316 104.687H47.6363C47.709 104.849 47.7951 104.95 47.8947 104.951H47.8994C47.9721 105.112 48.0583 105.213 48.1578 105.214H48.1625C48.2352 105.376 48.3214 105.476 48.4209 105.477H48.4257C48.4983 105.639 48.5845 105.739 48.684 105.74H48.6887C48.7614 105.902 48.8476 106.002 48.9471 106.003H48.9519C49.0245 106.165 49.1107 106.265 49.2102 106.266H49.215C49.2876 106.428 49.3738 106.528 49.4733 106.529H49.4781C49.5508 106.691 49.6369 106.791 49.7365 106.792H49.7411C49.8138 106.954 49.9 107.054 49.9996 107.055H50.0043C50.077 107.217 50.1631 107.317 50.2627 107.319H50.2674C50.3401 107.48 50.4262 107.581 50.5258 107.582H50.5305C50.6032 107.744 50.6893 107.844 50.7888 107.845H50.7936C50.8663 108.007 50.9525 108.107 51.052 108.108H51.0567C51.1293 108.27 51.2155 108.37 51.3151 108.371H51.3198C51.3925 108.533 51.4787 108.633 51.5782 108.634H51.5829C51.6556 108.796 51.7418 108.896 51.8413 108.897H51.8461C51.9187 109.059 52.0049 109.159 52.1044 109.16H52.1091C52.1818 109.322 52.268 109.422 52.3675 109.423H52.3722C52.4449 109.585 52.5311 109.685 52.6306 109.687H52.6353C52.708 109.848 52.7942 109.949 52.8937 109.95H52.8985C52.9712 110.111 53.0573 110.212 53.1569 110.213H53.1615C53.2342 110.375 53.3204 110.475 53.42 110.476H53.4247C53.4973 110.638 53.5835 110.738 53.6831 110.739H53.6878C53.7605 110.901 53.8466 111.001 53.9461 111.002H53.9509C54.0236 111.164 54.1098 111.264 54.2093 111.265H54.214C54.2866 111.427 54.3728 111.527 54.4724 111.528H54.4771C54.5498 111.69 54.636 111.79 54.7355 111.791H54.7402C54.8129 111.953 54.8991 112.053 54.9986 112.054H55.0034C55.076 112.216 55.1622 112.317 55.2617 112.318H55.2664C55.3391 112.479 55.4253 112.58 55.5248 112.581H55.5296C55.6022 112.743 55.6884 112.843 55.7879 112.844H55.7926C55.8653 113.006 55.9515 113.106 56.051 113.107H56.0558C56.1285 113.269 56.2146 113.369 56.3141 113.37H56.3188C56.3915 113.532 56.4777 113.632 56.5773 113.633H56.582C56.6546 113.795 56.7408 113.895 56.8403 113.896H56.8451C56.9177 114.058 57.0039 114.158 57.1034 114.159H57.1082C57.1808 114.321 57.267 114.421 57.3665 114.422H57.3713C57.444 114.584 57.5302 114.684 57.6297 114.685H57.6344C57.707 114.847 57.7932 114.948 57.8928 114.949H57.8975C57.9702 115.111 58.0564 115.211 58.1559 115.212H58.1606C58.2333 115.374 58.3195 115.474 58.419 115.475H58.4237C58.4964 115.637 58.5826 115.737 58.6821 115.738H58.6868C58.7595 115.9 58.8456 116 58.9452 116.001H58.9499C59.0226 116.163 59.1088 116.263 59.2083 116.264H59.213C59.2857 116.426 59.3719 116.526 59.4714 116.527H59.4762C59.5488 116.689 59.635 116.789 59.7345 116.79H59.7392C59.8119 116.952 59.8981 117.052 59.9976 117.054H60.0024C60.075 117.215 60.1612 117.316 60.2607 117.317H60.2655C60.3381 117.478 60.4243 117.579 60.5238 117.58H60.5286C60.6013 117.742 60.6875 117.842 60.787 117.843H60.7917C60.8643 118.005 60.9505 118.105 61.0501 118.106H61.0548C61.1275 118.268 61.2137 118.368 61.3132 118.369H61.3179C61.3906 118.531 61.4767 118.631 61.5763 118.632H61.581C61.6537 118.794 61.7399 118.894 61.8394 118.895H61.8441C61.9168 119.057 62.0029 119.157 62.1025 119.158H62.1072C62.1799 119.32 62.2661 119.42 62.3656 119.421H62.3703C62.443 119.583 62.5292 119.684 62.6287 119.685H62.6335C62.7061 119.846 62.7923 119.947 62.8918 119.948H62.8965C62.9692 120.11 63.0554 120.21 63.1549 120.211H63.1597C63.2323 120.373 63.3185 120.473 63.418 120.474H63.4228C63.4954 120.636 63.5816 120.736 63.6811 120.737H63.6859C63.7585 120.899 63.8447 120.999 63.9442 121H63.949C64.0217 121.162 64.1079 121.262 64.2074 121.263H64.2121C64.2847 121.425 64.3709 121.525 64.4705 121.526H64.4752C64.5479 121.688 64.6341 121.788 64.7336 121.789H64.7383C64.811 121.951 64.8971 122.051 64.9967 122.053H65.0014C65.0741 122.214 65.1603 122.315 65.2598 122.316H65.2645C65.3372 122.478 65.4233 122.578 65.5229 122.579H65.5276C65.6003 122.741 65.6865 122.841 65.786 122.842H65.7907C65.8634 123.004 65.9496 123.104 66.0491 123.105H66.0539C66.1265 123.267 66.2127 123.367 66.3122 123.368H66.3169C66.3896 123.53 66.4758 123.63 66.5753 123.631H66.5801C66.6527 123.793 66.7389 123.893 66.8384 123.894H66.8432C66.9158 124.056 67.002 124.156 67.1015 124.157H67.1063C67.179 124.319 67.2652 124.419 67.3647 124.42H67.3694C67.442 124.582 67.5282 124.683 67.6278 124.684H67.6325C67.7052 124.846 67.7913 124.946 67.8909 124.947H67.8956C67.9683 125.109 68.0544 125.209 68.154 125.21H68.1587C68.2314 125.372 68.3176 125.472 68.4171 125.473H68.4218C68.4945 125.635 68.5806 125.735 68.6802 125.736H68.6849C68.7576 125.898 68.8438 125.998 68.9433 125.999H68.948C69.0207 126.161 69.1069 126.261 69.2064 126.262H69.2112C69.2838 126.424 69.37 126.524 69.4695 126.525H69.4742C69.5469 126.687 69.6331 126.787 69.7326 126.788H69.7374C69.81 126.95 69.8962 127.051 69.9957 127.052H70.0005C70.0731 127.213 70.1593 127.314 70.2588 127.315H70.2636C70.3362 127.477 70.4224 127.577 70.5219 127.578H70.5267C70.5994 127.74 70.6855 127.84 70.7851 127.841H70.7897C70.8624 128.003 70.9486 128.103 71.0482 128.104H71.0529C71.1256 128.266 71.2117 128.366 71.3113 128.367H71.316C71.3886 128.529 71.4748 128.629 71.5743 128.63H71.5791C71.6518 128.792 71.738 128.892 71.8375 128.893H71.8422C71.9148 129.055 72.001 129.155 72.1006 129.156H72.1053C72.178 129.318 72.2642 129.419 72.3637 129.42H72.3684C72.4411 129.581 72.5273 129.682 72.6268 129.683H72.6316C72.7042 129.845 72.7904 129.945 72.8899 129.946H72.8946C72.9673 130.108 73.0535 130.208 73.153 130.209H73.1577C73.2304 130.371 73.3166 130.471 73.4161 130.472H73.4208C73.4935 130.634 73.5797 130.734 73.6792 130.735H73.684C73.7566 130.897 73.8428 130.997 73.9424 130.998H73.947C74.0197 131.16 74.1059 131.26 74.2055 131.261H74.2102C74.2828 131.423 74.369 131.523 74.4685 131.524H74.4733C74.5459 131.686 74.6321 131.786 74.7317 131.787H74.7364C74.8091 131.949 74.8953 132.05 74.9948 132.051H74.9995C75.0721 132.213 75.1583 132.313 75.2579 132.314H75.2626C75.3353 132.476 75.4215 132.576 75.521 132.577H75.5257C75.5984 132.739 75.6846 132.839 75.7841 132.84H75.7889C75.8615 133.002 75.9477 133.102 76.0472 133.103H76.0519C76.1246 133.265 76.2108 133.365 76.3103 133.366H76.315C76.3877 133.528 76.4739 133.628 76.5734 133.629H76.5781C76.6508 133.791 76.737 133.891 76.8365 133.892H76.8412C76.9139 134.054 77.0001 134.154 77.0996 134.155H77.1044C77.177 134.317 77.2632 134.418 77.3628 134.419H77.3674C77.4401 134.58 77.5263 134.681 77.6258 134.682H77.6306C77.7032 134.844 77.7894 134.944 77.8889 134.945H77.8937C77.9663 135.107 78.0525 135.207 78.152 135.208H78.1568C78.2295 135.37 78.3157 135.47 78.4152 135.471H78.4199C78.4925 135.633 78.5787 135.733 78.6783 135.734H78.683C78.7557 135.896 78.8419 135.996 78.9414 135.997H78.9461C79.0188 136.159 79.105 136.259 79.2045 136.26H79.2093C79.2819 136.422 79.3681 136.522 79.4676 136.523H79.4723C79.545 136.685 79.6311 136.786 79.7307 136.787H79.7354C79.8081 136.948 79.8943 137.049 79.9938 137.05H79.9985C80.0712 137.212 80.1574 137.312 80.2569 137.313H80.2617C80.3343 137.475 80.4205 137.575 80.52 137.576H80.5247C80.5974 137.738 80.6836 137.838 80.7831 137.839H80.7879C80.8605 138.001 80.9467 138.101 81.0462 138.102H81.051C81.1236 138.264 81.2098 138.364 81.3093 138.365H81.3141C81.3868 138.527 81.473 138.627 81.5725 138.628H81.5772C81.6498 138.79 81.736 138.89 81.8356 138.891H81.8403C81.913 139.053 81.9992 139.153 82.0987 139.155H82.1034C82.1761 139.316 82.2622 139.417 82.3618 139.418H82.3665C82.4392 139.579 82.5254 139.68 82.6249 139.681H82.6296C82.7023 139.843 82.7884 139.943 82.888 139.944H82.8927C82.9654 140.106 83.0516 140.206 83.1511 140.207H83.1558C83.2285 140.369 83.3147 140.469 83.4142 140.47H83.4189C83.4916 140.632 83.5778 140.732 83.6773 140.733H83.6821C83.7547 140.895 83.8409 140.995 83.9404 140.996H83.9451C84.0178 141.158 84.104 141.258 84.2035 141.259H84.2083C84.2809 141.421 84.3671 141.521 84.4666 141.522H84.4714C84.544 141.684 84.6302 141.785 84.7297 141.786H84.7345C84.8072 141.947 84.8934 142.048 84.9929 142.049H84.9976C85.0702 142.211 85.1564 142.311 85.256 142.312H85.2607C85.3334 142.474 85.4195 142.574 85.5191 142.575H85.5238C85.5965 142.737 85.6826 142.837 85.7822 142.838H85.7869C85.8596 143 85.9458 143.1 86.0453 143.101H86.05C86.1227 143.263 86.2088 143.363 86.3084 143.364H86.3131C86.3858 143.526 86.472 143.626 86.5715 143.627H86.5762C86.6489 143.789 86.7351 143.889 86.8346 143.89H86.8394C86.912 144.052 86.9982 144.153 87.0977 144.154H87.1024C87.1751 144.315 87.2613 144.416 87.3608 144.417H87.3656C87.4382 144.579 87.5244 144.679 87.6239 144.68H87.6287C87.7013 144.842 87.7875 144.942 87.887 144.943H87.8918C87.9645 145.105 88.0506 145.205 88.1502 145.206H88.1548C88.2275 145.368 88.3137 145.468 88.4133 145.469H88.418C88.4907 145.631 88.5768 145.731 88.6764 145.732H88.6811C88.7538 145.894 88.8399 145.994 88.9395 145.995H88.9442C89.0169 146.157 89.1031 146.257 89.2026 146.258H89.2073C89.28 146.42 89.3661 146.521 89.4657 146.522H89.4704C89.5431 146.683 89.6293 146.784 89.7288 146.785H89.7335C89.8062 146.947 89.8924 147.047 89.9919 147.048H89.9966C90.0693 147.21 90.1555 147.31 90.255 147.311H90.2598C90.3324 147.473 90.4186 147.573 90.5181 147.574H90.5228C90.5955 147.736 90.6817 147.836 90.7812 147.837H90.7859C90.8586 147.999 90.9448 148.099 91.0443 148.1H91.0491C91.1217 148.262 91.2079 148.362 91.3074 148.363H91.3122C91.3849 148.525 91.471 148.625 91.5706 148.626H91.5752C91.6479 148.788 91.7341 148.888 91.8337 148.889H91.8384C91.911 149.051 91.9972 149.152 92.0968 149.153H92.1015C92.1742 149.314 92.2603 149.415 92.3599 149.416H92.3646C92.4373 149.578 92.5235 149.678 92.623 149.679H92.6277C92.7003 149.841 92.7865 149.941 92.8861 149.942H92.8908C92.9635 150.104 93.0497 150.204 93.1492 150.205H93.1539C93.2266 150.367 93.3128 150.467 93.4123 150.468H93.4171C93.4897 150.63 93.5759 150.73 93.6754 150.731H93.6801C93.7528 150.893 93.839 150.993 93.9385 150.994H93.9433C94.0159 151.156 94.1021 151.256 94.2016 151.257H94.2063C94.279 151.419 94.3652 151.52 94.4647 151.521H94.4695C94.5422 151.682 94.6283 151.783 94.7279 151.784H94.7325C94.8052 151.946 94.8914 152.046 94.991 152.047H94.9957C95.0684 152.209 95.1545 152.309 95.2541 152.31H95.2588C95.3314 152.472 95.4176 152.572 95.5171 152.573H95.5219C95.5946 152.735 95.6808 152.835 95.7803 152.836H95.785C95.8576 152.998 95.9438 153.098 96.0434 153.099H96.0481C96.1208 153.261 96.207 153.361 96.3065 153.362H96.3112C96.3839 153.524 96.4701 153.624 96.5696 153.625H96.5743C96.647 153.787 96.7332 153.887 96.8327 153.888H96.8374C96.9101 154.05 96.9963 154.151 97.0958 154.152H97.1005C97.1732 154.314 97.2593 154.414 97.3589 154.415H97.3636C97.4363 154.577 97.5225 154.677 97.622 154.678H97.6267C97.6994 154.84 97.7856 154.94 97.8851 154.941H97.8899C97.9625 155.103 98.0487 155.203 98.1482 155.204H98.1529C98.2256 155.366 98.3118 155.466 98.4113 155.467H98.4161C98.4887 155.629 98.5749 155.729 98.6744 155.73H98.6792C98.7518 155.892 98.838 155.992 98.9375 155.993H98.9423C99.015 156.155 99.1012 156.255 99.2007 156.256H99.2054C99.278 156.418 99.3642 156.519 99.4638 156.52H99.4685C99.5412 156.681 99.6274 156.782 99.7269 156.783H99.7316C99.8043 156.945 99.8904 157.045 99.99 157.046H99.9947C100.067 157.208 100.154 157.308 100.253 157.309H100.258C100.33 157.471 100.417 157.571 100.516 157.572H100.521C100.594 157.734 100.68 157.834 100.779 157.835H100.784C100.857 157.997 100.943 158.097 101.042 158.098H101.047C101.12 158.26 101.206 158.36 101.306 158.361H101.31C101.383 158.523 101.469 158.623 101.569 158.624H101.573C101.646 158.786 101.732 158.887 101.832 158.888H101.836C101.909 159.049 101.995 159.15 102.095 159.151H102.1C102.172 159.313 102.258 159.413 102.358 159.414H102.363C102.435 159.576 102.522 159.676 102.621 159.677H102.626C102.698 159.839 102.785 159.939 102.884 159.94H102.889C102.962 160.102 103.048 160.202 103.147 160.203H103.152C103.225 160.365 103.311 160.465 103.41 160.466H103.415C103.488 160.628 103.574 160.728 103.674 160.729H103.678C103.751 160.891 103.837 160.991 103.937 160.992H103.941C104.014 161.154 104.1 161.254 104.2 161.256H104.204C104.277 161.417 104.363 161.518 104.463 161.519H104.468C104.54 161.68 104.626 161.781 104.726 161.782H104.731C104.803 161.944 104.889 162.044 104.989 162.045H104.994C105.066 162.207 105.153 162.307 105.252 162.308H105.257C105.33 162.47 105.416 162.57 105.515 162.571H105.52C105.593 162.733 105.679 162.833 105.778 162.834H105.783C105.856 162.996 105.942 163.096 106.041 163.097H106.046C106.119 163.259 106.205 163.359 106.305 163.36H106.309C106.382 163.522 106.468 163.622 106.568 163.623H106.572C106.645 163.785 106.731 163.886 106.831 163.887H106.835C106.908 164.048 106.994 164.149 107.094 164.15H107.099C107.171 164.312 107.257 164.412 107.357 164.413H107.362C107.434 164.575 107.521 164.675 107.62 164.676H107.625C107.698 164.838 107.784 164.938 107.883 164.939H107.888C107.961 165.101 108.047 165.201 108.146 165.202H108.151C108.224 165.364 108.31 165.464 108.409 165.465H108.414C108.487 165.627 108.573 165.727 108.673 165.728H108.677C108.75 165.89 108.836 165.99 108.936 165.991H108.94C109.013 166.153 109.099 166.254 109.199 166.255H109.203C109.276 166.416 109.362 166.517 109.462 166.518C117.159 166.544 137.859 166.557 151.798 166.555C151.854 166.623 151.92 166.682 151.997 166.728C152.001 166.735 152.001 166.744 152.005 166.751C152.07 166.853 152.158 166.929 152.26 166.991C152.264 166.998 152.264 167.007 152.268 167.014C152.333 167.116 152.421 167.193 152.523 167.254C152.527 167.262 152.527 167.27 152.531 167.277C152.596 167.379 152.684 167.456 152.786 167.517C152.79 167.525 152.79 167.533 152.795 167.541C152.859 167.642 152.947 167.719 153.049 167.78C153.053 167.788 153.053 167.796 153.058 167.804C153.122 167.905 153.21 167.982 153.312 168.044C153.316 168.051 153.316 168.059 153.321 168.067C153.385 168.169 153.473 168.245 153.575 168.307C153.579 168.314 153.579 168.323 153.584 168.33C153.648 168.432 153.737 168.508 153.838 168.57C153.843 168.577 153.842 168.586 153.847 168.593C153.911 168.695 154 168.771 154.101 168.833C154.106 168.84 154.105 168.849 154.11 168.856C154.174 168.958 154.263 169.034 154.364 169.096C154.369 169.103 154.369 169.112 154.373 169.119C154.437 169.221 154.526 169.297 154.628 169.359C154.632 169.366 154.632 169.375 154.636 169.382C154.7 169.484 154.789 169.56 154.891 169.622C154.895 169.629 154.895 169.638 154.899 169.645C154.964 169.747 155.052 169.824 155.154 169.885C155.158 169.893 155.158 169.901 155.162 169.908C155.227 170.01 155.315 170.087 155.417 170.148C155.421 170.156 155.421 170.164 155.426 170.172C155.49 170.273 155.578 170.35 155.68 170.411C155.684 170.419 155.684 170.427 155.689 170.435C155.753 170.536 155.841 170.613 155.943 170.675C155.947 170.682 155.947 170.691 155.952 170.698C156.016 170.8 156.104 170.876 156.206 170.938C156.21 170.945 156.21 170.954 156.215 170.961C156.279 171.063 156.368 171.139 156.469 171.201C156.474 171.208 156.473 171.217 156.478 171.224C156.542 171.326 156.631 171.402 156.732 171.464C156.737 171.471 156.736 171.48 156.741 171.487C156.805 171.589 156.894 171.665 156.995 171.727C157 171.734 157 171.743 157.004 171.75C157.068 171.852 157.157 171.928 157.258 171.99C157.263 171.997 157.263 172.006 157.267 172.013C157.332 172.115 157.42 172.192 157.522 172.253C157.526 172.261 157.526 172.269 157.53 172.276C157.595 172.378 157.683 172.455 157.785 172.516C157.789 172.524 157.789 172.532 157.793 172.54C157.858 172.641 157.946 172.718 158.048 172.779C158.052 172.787 158.052 172.795 158.057 172.803C158.121 172.904 158.209 172.981 158.311 173.042C158.315 173.05 158.315 173.058 158.32 173.066C158.384 173.168 158.472 173.244 158.574 173.306C158.578 173.313 158.578 173.322 158.583 173.329C158.647 173.431 158.735 173.507 158.837 173.569C158.841 173.576 158.841 173.585 158.846 173.592C158.91 173.694 158.999 173.77 159.1 173.832C159.105 173.839 159.104 173.848 159.109 173.855C159.173 173.957 159.262 174.033 159.363 174.095C159.368 174.102 159.367 174.111 159.372 174.118C159.436 174.22 159.525 174.296 159.626 174.358C159.631 174.365 159.631 174.374 159.635 174.381C159.699 174.483 159.788 174.559 159.89 174.621C159.894 174.628 159.894 174.637 159.898 174.644C159.963 174.746 160.051 174.823 160.153 174.884C160.157 174.892 160.157 174.9 160.161 174.907C160.226 175.009 160.314 175.086 160.416 175.147C160.42 175.155 160.42 175.163 160.424 175.171C160.489 175.272 160.577 175.349 160.679 175.411C160.683 175.418 160.683 175.426 160.688 175.434C160.752 175.536 160.84 175.612 160.942 175.674C160.946 175.681 160.946 175.69 160.951 175.697C161.015 175.799 161.103 175.875 161.205 175.937C161.209 175.944 161.209 175.953 161.214 175.96C161.278 176.062 161.366 176.138 161.468 176.2C161.472 176.207 161.472 176.216 161.477 176.223C161.541 176.325 161.63 176.401 161.731 176.463C161.736 176.47 161.735 176.479 161.74 176.486C161.804 176.588 161.893 176.664 161.994 176.726C161.999 176.733 161.998 176.742 162.003 176.749C162.067 176.851 162.156 176.927 162.257 176.989C162.262 176.996 162.262 177.005 162.266 177.012C162.33 177.114 162.419 177.191 162.521 177.252C162.525 177.26 162.525 177.268 162.529 177.275C162.594 177.377 162.682 177.454 162.784 177.515C162.788 177.523 162.788 177.531 162.792 177.539C162.857 177.64 162.945 177.717 163.047 177.778C163.051 177.786 163.051 177.794 163.055 177.802C163.12 177.903 163.208 177.98 163.31 178.042C163.314 178.049 163.314 178.058 163.319 178.065C163.383 178.167 163.471 178.243 163.573 178.305C163.577 178.312 163.577 178.321 163.582 178.328C163.646 178.43 163.734 178.506 163.836 178.568C163.84 178.575 163.84 178.584 163.845 178.591C163.909 178.693 163.997 178.769 164.099 178.831C164.103 178.838 164.103 178.847 164.108 178.854C164.172 178.956 164.261 179.032 164.362 179.094C164.367 179.101 164.366 179.11 164.371 179.117C164.435 179.219 164.524 179.295 164.625 179.357C164.63 179.364 164.63 179.373 164.634 179.38C164.698 179.482 164.787 179.558 164.888 179.62C164.893 179.628 164.893 179.636 164.897 179.643C164.961 179.745 165.05 179.822 165.152 179.883C165.156 179.891 165.156 179.899 165.16 179.907C165.225 180.008 165.313 180.085 165.415 180.146C165.419 180.154 165.419 180.162 165.423 180.17C165.488 180.271 165.576 180.348 165.678 180.41C165.682 180.417 165.682 180.425 165.686 180.433C165.751 180.535 165.839 180.611 165.941 180.673C165.945 180.68 165.945 180.689 165.95 180.696C166.014 180.798 166.102 180.874 166.204 180.936C166.208 180.943 166.208 180.952 166.213 180.959C166.277 181.061 166.365 181.137 166.467 181.199C166.471 181.206 166.471 181.215 166.476 181.222C166.54 181.324 166.628 181.4 166.73 181.462C166.735 181.469 166.734 181.478 166.739 181.485C166.803 181.587 166.892 181.663 166.993 181.725C166.998 181.732 166.997 181.741 167.002 181.748C167.066 181.85 167.155 181.927 167.256 181.988C167.261 181.996 167.26 182.004 167.265 182.011C167.329 182.113 167.418 182.19 167.519 182.251C167.524 182.259 167.524 182.267 167.528 182.274C167.592 182.376 167.681 182.453 167.783 182.514C167.787 182.522 167.787 182.53 167.791 182.538C167.856 182.639 167.944 182.716 168.046 182.778C168.05 182.785 168.05 182.793 168.054 182.801C168.119 182.902 168.207 182.979 168.309 183.041C168.313 183.048 168.313 183.057 168.317 183.064C168.382 183.166 168.47 183.242 168.572 183.304C168.576 183.311 168.576 183.32 168.581 183.327C168.645 183.429 168.733 183.505 168.835 183.567C168.839 183.574 168.839 183.583 168.844 183.59C168.908 183.692 168.996 183.768 169.098 183.83C169.102 183.837 169.102 183.846 169.107 183.853C169.171 183.955 169.259 184.031 169.361 184.093C169.365 184.1 169.365 184.109 169.37 184.116C169.434 184.218 169.523 184.294 169.624 184.356C169.629 184.363 169.628 184.372 169.633 184.379C169.697 184.481 169.786 184.558 169.887 184.619C169.892 184.627 169.891 184.635 169.896 184.642C169.96 184.744 170.049 184.821 170.15 184.882C170.155 184.89 170.155 184.898 170.159 184.906C170.223 185.007 170.312 185.084 170.414 185.145C170.418 185.153 170.418 185.161 170.422 185.169C170.487 185.27 170.575 185.347 170.677 185.409C170.681 185.416 170.681 185.425 170.685 185.432C170.75 185.534 170.838 185.61 170.94 185.672C170.944 185.679 170.944 185.688 170.948 185.695C171.013 185.797 171.101 185.873 171.203 185.935C171.207 185.942 171.207 185.951 171.212 185.958C171.276 186.06 171.364 186.136 171.466 186.198C171.47 186.205 171.47 186.214 171.475 186.221C171.539 186.323 171.627 186.399 171.729 186.461C171.733 186.468 171.733 186.477 171.738 186.484C171.802 186.586 171.89 186.662 171.992 186.724C171.996 186.731 171.996 186.74 172.001 186.747C172.065 186.849 172.154 186.926 172.255 186.987C172.26 186.995 172.259 187.003 172.264 187.01C172.328 187.112 172.417 187.189 172.518 187.25C172.523 187.258 172.522 187.266 172.527 187.274C172.591 187.375 172.68 187.452 172.781 187.513C172.786 187.521 172.786 187.529 172.79 187.537C172.854 187.638 172.943 187.715 173.045 187.777C173.049 187.784 173.049 187.793 173.053 187.8C173.118 187.902 173.206 187.978 173.308 188.04C173.312 188.047 173.312 188.056 173.316 188.063C173.381 188.165 173.469 188.241 173.571 188.303C173.575 188.31 173.575 188.319 173.579 188.326C173.644 188.428 173.732 188.504 173.834 188.566C173.838 188.573 173.838 188.582 173.843 188.589C174.438 189.532 176.821 188.619 177.628 188.35C178.749 187.978 179.885 187.471 181.053 187.264C186.025 186.38 191.107 185.635 195.57 183.271C196.202 182.936 197.634 182.4 197.81 181.707C197.893 181.377 197.772 181.172 197.519 181.055L197.519 181.054Z" fill="#002971"/>
</g>
</g>
</g>
<path id="Vector_5" d="M113.575 102.898C112.468 103.287 111.277 103.263 110.124 103.429C107.572 103.868 104.013 104.596 101.49 104.68C100.22 104.812 99.6096 103.84 99.9058 102.587C100.252 101.015 101.713 100.052 101.609 98.4005C101.412 95.0501 102.473 91.3251 102.412 87.9403C102.233 83.7133 104.002 79.6912 104.131 75.5133C104.241 71.9208 104.755 68.3291 104.319 64.766C103.931 61.6027 102.721 57.8472 102.973 54.6613C103.034 53.888 103.156 53.4113 103.37 52.673C104.255 50.2251 103.418 47.6477 103.427 45.2316C103.437 42.2049 103.974 40.9407 102.036 40.5832C100.099 40.2257 94.6707 40.753 92.5771 40.6153C89.6454 40.6942 86.6564 40.5506 83.9882 41.8047C80.6727 43.3842 78.0862 46.2438 75.9046 49.0851C74.7205 50.9819 72.3129 51.571 71.095 53.4213C69.8635 55.1259 70.8719 57.0235 70.9434 58.8944C71.0191 64.6636 69.0159 63.8055 65.3138 66.7887C63.7151 68.0766 61.5676 68.3232 59.5852 68.3688C58.013 68.4047 55.8317 68.661 54.3092 68.265C52.796 67.8713 51.4405 66.761 49.8118 66.761C47.4937 66.4947 43.9685 66.606 41.4805 67.0994C39.718 67.4831 38.3006 67.8089 38.245 69.7916C38.2245 71.5415 40.4425 73.327 40.081 75.1214C39.2866 78.2917 35.2717 80.2432 32.7059 81.8136C32.0421 82.1664 30.9747 82.6808 30.5278 83.3129C29.7831 84.3657 29.9477 87.5796 30.5296 87.5854C39.6768 87.6163 67.192 87.6296 79.8956 87.6193C81.5572 87.7646 82.6499 88.9355 83.4446 90.4735C84.25 91.8751 84.3441 93.7157 85.0144 95.1146C85.8685 96.5896 88.0597 97.202 89.4215 98.1165C91.1917 99.172 92.8451 100.35 94.7799 101.233C95.8439 101.719 97.2085 102.243 97.857 103.285C98.1583 103.769 98.2515 104.256 98.2225 104.745C98.1823 105.42 97.2846 105.937 96.8093 106.293C96.0628 106.852 95.4337 107.464 95.0126 108.312C94.8034 108.734 94.6595 109.259 94.9107 109.657C95.5061 110.6 97.8888 109.686 98.6964 109.418C99.8172 109.045 100.953 108.539 102.121 108.332C107.093 107.448 112.175 106.703 116.638 104.339C117.27 104.004 118.702 103.468 118.878 102.774C119.315 101.05 114.192 102.698 113.575 102.898Z" fill="#7AA5E7"/>
</g>
<path id="Vector_6" d="M290 0V145H217.665C177.533 145 145 112.541 145 72.5C145 32.4594 177.533 1.52588e-05 217.665 1.52588e-05L290 0Z" fill="#457AA5"/>
<path id="Vector_7" d="M580 0H435V145H580V0Z" fill="#A3C2EE"/>
<path id="Vector_8" d="M580 145C489 145 435 90.5 435 0C527.5 0 580 52 580 145Z" fill="url(#paint1_linear_22_845)"/>
</g>
<defs>
<linearGradient id="paint0_linear_22_845" x1="-50" y1="-46" x2="140" y2="138" gradientUnits="userSpaceOnUse">
<stop stop-color="#7AA5E7"/>
<stop offset="0.99716" stop-color="#003BA1"/>
</linearGradient>
<linearGradient id="paint1_linear_22_845" x1="507.5" y1="0" x2="507.5" y2="145" gradientUnits="userSpaceOnUse">
<stop stop-color="#7AA5E7"/>
<stop offset="1" stop-color="#002971"/>
</linearGradient>
</defs>
</svg>
